  0
SECTION
  2
HEADER
  9
$ACADVER
  1
AC1027
  9
$ACADMAINTVER
 70
   125
  9
$DWGCODEPAGE
  3
ANSI_1252
  9
$REQUIREDVERSIONS
160
                 0
  9
$INSBASE
 10
0.0
 20
0.0
 30
0.0
  9
$EXTMIN
 10
1.000000000000000E+20
 20
1.000000000000000E+20
 30
1.000000000000000E+20
  9
$EXTMAX
 10
-1.000000000000000E+20
 20
-1.000000000000000E+20
 30
-1.000000000000000E+20
  9
$LIMMIN
 10
0.0
 20
0.0
  9
$LIMMAX
 10
12.0
 20
9.0
  9
$ORTHOMODE
 70
     0
  9
$REGENMODE
 70
     1
  9
$FILLMODE
 70
     1
  9
$QTEXTMODE
 70
     0
  9
$MIRRTEXT
 70
     0
  9
$LTSCALE
 40
1.0
  9
$ATTMODE
 70
     1
  9
$TEXTSIZE
 40
0.2
  9
$TRACEWID
 40
0.05
  9
$TEXTSTYLE
  7
Standard
  9
$CLAYER
  8
0
  9
$CELTYPE
  6
ByLayer
  9
$CECOLOR
 62
   256
  9
$CELTSCALE
 40
1.0
  9
$DISPSILH
 70
     0
  9
$DIMSCALE
 40
1.0
  9
$DIMASZ
 40
0.18
  9
$DIMEXO
 40
0.0625
  9
$DIMDLI
 40
0.38
  9
$DIMRND
 40
0.0
  9
$DIMDLE
 40
0.0
  9
$DIMEXE
 40
0.18
  9
$DIMTP
 40
0.0
  9
$DIMTM
 40
0.0
  9
$DIMTXT
 40
0.18
  9
$DIMCEN
 40
0.09
  9
$DIMTSZ
 40
0.0
  9
$DIMTOL
 70
     0
  9
$DIMLIM
 70
     0
  9
$DIMTIH
 70
     1
  9
$DIMTOH
 70
     1
  9
$DIMSE1
 70
     0
  9
$DIMSE2
 70
     0
  9
$DIMTAD
 70
     0
  9
$DIMZIN
 70
     0
  9
$DIMBLK
  1

  9
$DIMASO
 70
     1
  9
$DIMSHO
 70
     1
  9
$DIMPOST
  1

  9
$DIMAPOST
  1

  9
$DIMALT
 70
     0
  9
$DIMALTD
 70
     2
  9
$DIMALTF
 40
25.4
  9
$DIMLFAC
 40
1.0
  9
$DIMTOFL
 70
     0
  9
$DIMTVP
 40
0.0
  9
$DIMTIX
 70
     0
  9
$DIMSOXD
 70
     0
  9
$DIMSAH
 70
     0
  9
$DIMBLK1
  1

  9
$DIMBLK2
  1

  9
$DIMSTYLE
  2
Standard
  9
$DIMCLRD
 70
     0
  9
$DIMCLRE
 70
     0
  9
$DIMCLRT
 70
     0
  9
$DIMTFAC
 40
1.0
  9
$DIMGAP
 40
0.09
  9
$DIMJUST
 70
     0
  9
$DIMSD1
 70
     0
  9
$DIMSD2
 70
     0
  9
$DIMTOLJ
 70
     1
  9
$DIMTZIN
 70
     0
  9
$DIMALTZ
 70
     0
  9
$DIMALTTZ
 70
     0
  9
$DIMUPT
 70
     0
  9
$DIMDEC
 70
     4
  9
$DIMTDEC
 70
     4
  9
$DIMALTU
 70
     2
  9
$DIMALTTD
 70
     2
  9
$DIMTXSTY
  7
Standard
  9
$DIMAUNIT
 70
     0
  9
$DIMADEC
 70
     0
  9
$DIMALTRND
 40
0.0
  9
$DIMAZIN
 70
     0
  9
$DIMDSEP
 70
    46
  9
$DIMATFIT
 70
     3
  9
$DIMFRAC
 70
     0
  9
$DIMLDRBLK
  1

  9
$DIMLUNIT
 70
     2
  9
$DIMLWD
 70
    -2
  9
$DIMLWE
 70
    -2
  9
$DIMTMOVE
 70
     0
  9
$DIMFXL
 40
1.0
  9
$DIMFXLON
 70
     0
  9
$DIMJOGANG
 40
0.7853981633974483
  9
$DIMTFILL
 70
     0
  9
$DIMTFILLCLR
 70
     0
  9
$DIMARCSYM
 70
     0
  9
$DIMLTYPE
  6

  9
$DIMLTEX1
  6

  9
$DIMLTEX2
  6

  9
$DIMTXTDIRECTION
 70
     0
  9
$LUNITS
 70
     2
  9
$LUPREC
 70
     4
  9
$SKETCHINC
 40
0.1
  9
$FILLETRAD
 40
0.0
  9
$AUNITS
 70
     0
  9
$AUPREC
 70
     0
  9
$MENU
  1
.
  9
$ELEVATION
 40
0.0
  9
$PELEVATION
 40
0.0
  9
$THICKNESS
 40
0.0
  9
$LIMCHECK
 70
     0
  9
$CHAMFERA
 40
0.0
  9
$CHAMFERB
 40
0.0
  9
$CHAMFERC
 40
0.0
  9
$CHAMFERD
 40
0.0
  9
$SKPOLY
 70
     0
  9
$TDCREATE
 40
2460366.409027778
  9
$TDUCREATE
 40
2460366.409027778
  9
$TDUPDATE
 40
2460366.409027778
  9
$TDUUPDATE
 40
2460366.409027778
  9
$TDINDWG
 40
0.0000000000
  9
$TDUSRTIMER
 40
0.0000000000
  9
$USRTIMER
 70
     1
  9
$ANGBASE
 50
0.0
  9
$ANGDIR
 70
     0
  9
$PDMODE
 70
     0
  9
$PDSIZE
 40
0.0
  9
$PLINEWID
 40
0.0
  9
$SPLFRAME
 70
     0
  9
$SPLINETYPE
 70
     6
  9
$SPLINESEGS
 70
     8
  9
$HANDSEED
  5
AB
  9
$SURFTAB1
 70
     6
  9
$SURFTAB2
 70
     6
  9
$SURFTYPE
 70
     6
  9
$SURFU
 70
     6
  9
$SURFV
 70
     6
  9
$UCSBASE
  2

  9
$UCSNAME
  2

  9
$UCSORG
 10
0.0
 20
0.0
 30
0.0
  9
$UCSXDIR
 10
1.0
 20
0.0
 30
0.0
  9
$UCSYDIR
 10
0.0
 20
1.0
 30
0.0
  9
$UCSORTHOREF
  2

  9
$UCSORTHOVIEW
 70
     0
  9
$UCSORGTOP
 10
0.0
 20
0.0
 30
0.0
  9
$UCSORGBOTTOM
 10
0.0
 20
0.0
 30
0.0
  9
$UCSORGLEFT
 10
0.0
 20
0.0
 30
0.0
  9
$UCSORGRIGHT
 10
0.0
 20
0.0
 30
0.0
  9
$UCSORGFRONT
 10
0.0
 20
0.0
 30
0.0
  9
$UCSORGBACK
 10
0.0
 20
0.0
 30
0.0
  9
$PUCSBASE
  2

  9
$PUCSNAME
  2

  9
$PUCSORG
 10
0.0
 20
0.0
 30
0.0
  9
$PUCSXDIR
 10
1.0
 20
0.0
 30
0.0
  9
$PUCSYDIR
 10
0.0
 20
1.0
 30
0.0
  9
$PUCSORTHOREF
  2

  9
$PUCSORTHOVIEW
 70
     0
  9
$PUCSORGTOP
 10
0.0
 20
0.0
 30
0.0
  9
$PUCSORGBOTTOM
 10
0.0
 20
0.0
 30
0.0
  9
$PUCSORGLEFT
 10
0.0
 20
0.0
 30
0.0
  9
$PUCSORGRIGHT
 10
0.0
 20
0.0
 30
0.0
  9
$PUCSORGFRONT
 10
0.0
 20
0.0
 30
0.0
  9
$PUCSORGBACK
 10
0.0
 20
0.0
 30
0.0
  9
$USERI1
 70
     0
  9
$USERI2
 70
     0
  9
$USERI3
 70
     0
  9
$USERI4
 70
     0
  9
$USERI5
 70
     0
  9
$USERR1
 40
0.0
  9
$USERR2
 40
0.0
  9
$USERR3
 40
0.0
  9
$USERR4
 40
0.0
  9
$USERR5
 40
0.0
  9
$WORLDVIEW
 70
     1
  9
$SHADEDGE
 70
     3
  9
$SHADEDIF
 70
    70
  9
$TILEMODE
 70
     1
  9
$MAXACTVP
 70
    64
  9
$PINSBASE
 10
0.0
 20
0.0
 30
0.0
  9
$PLIMCHECK
 70
     0
  9
$PEXTMIN
 10
1.000000000000000E+20
 20
1.000000000000000E+20
 30
1.000000000000000E+20
  9
$PEXTMAX
 10
-1.000000000000000E+20
 20
-1.000000000000000E+20
 30
-1.000000000000000E+20
  9
$PLIMMIN
 10
0.0
 20
0.0
  9
$PLIMMAX
 10
12.0
 20
9.0
  9
$UNITMODE
 70
     0
  9
$VISRETAIN
 70
     1
  9
$PLINEGEN
 70
     0
  9
$PSLTSCALE
 70
     1
  9
$TREEDEPTH
 70
  3020
  9
$CMLSTYLE
  2
Standard
  9
$CMLJUST
 70
     0
  9
$CMLSCALE
 40
1.0
  9
$PROXYGRAPHICS
 70
     1
  9
$MEASUREMENT
 70
     0
  9
$CELWEIGHT
370
    -1
  9
$ENDCAPS
280
     0
  9
$JOINSTYLE
280
     0
  9
$LWDISPLAY
290
     1
  9
$INSUNITS
 70
     0
  9
$HYPERLINKBASE
  1

  9
$STYLESHEET
  1

  9
$XEDIT
290
     1
  9
$CEPSNTYPE
380
     0
  9
$PSTYLEMODE
290
     1
  9
$FINGERPRINTGUID
  2
{CF71BF93-EDF8-E14F-ABFC-D4EC62A3EC63}
  9
$VERSIONGUID
  2
{05E965C8-8837-3346-AEC9-F122A5221981}
  9
$EXTNAMES
290
     1
  9
$PSVPSCALE
 40
0.0
  9
$OLESTARTUP
290
     0
  9
$SORTENTS
280
   127
  9
$INDEXCTL
280
     0
  9
$HIDETEXT
280
     1
  9
$XCLIPFRAME
280
     2
  9
$HALOGAP
280
     0
  9
$OBSCOLOR
 70
   257
  9
$OBSLTYPE
280
     0
  9
$INTERSECTIONDISPLAY
280
     0
  9
$INTERSECTIONCOLOR
 70
   257
  9
$DIMASSOC
280
     2
  9
$PROJECTNAME
  1

  9
$CAMERADISPLAY
290
     0
  9
$LENSLENGTH
 40
50.0
  9
$CAMERAHEIGHT
 40
0.0
  9
$STEPSPERSEC
 40
2.0
  9
$STEPSIZE
 40
6.0
  9
$3DDWFPREC
 40
2.0
  9
$PSOLWIDTH
 40
0.25
  9
$PSOLHEIGHT
 40
4.0
  9
$LOFTANG1
 40
1.570796326794896
  9
$LOFTANG2
 40
1.570796326794896
  9
$LOFTMAG1
 40
0.0
  9
$LOFTMAG2
 40
0.0
  9
$LOFTPARAM
 70
     7
  9
$LOFTNORMALS
280
     1
  9
$LATITUDE
 40
37.795
  9
$LONGITUDE
 40
-122.394
  9
$NORTHDIRECTION
 40
0.0
  9
$TIMEZONE
 70
 -8000
  9
$LIGHTGLYPHDISPLAY
280
     1
  9
$TILEMODELIGHTSYNCH
280
     1
  9
$CMATERIAL
347
11
  9
$SOLIDHIST
280
     0
  9
$SHOWHIST
280
     1
  9
$DWFFRAME
280
     2
  9
$DGNFRAME
280
     0
  9
$REALWORLDSCALE
290
     1
  9
$INTERFERECOLOR
 62
     1
  9
$INTERFEREOBJVS
345
33
  9
$INTERFEREVPVS
346
30
  9
$CSHADOW
280
     0
  9
$SHADOWPLANELOCATION
 40
0.0
  0
ENDSEC
  0
SECTION
  2
CLASSES
  0
CLASS
  1
ACDBDICTIONARYWDFLT
  2
AcDbDictionaryWithDefault
  3
ObjectDBX Classes
 90
        0
 91
        1
280
     0
281
     0
  0
CLASS
  1
MATERIAL
  2
AcDbMaterial
  3
ObjectDBX Classes
 90
     1153
 91
        3
280
     0
281
     0
  0
CLASS
  1
VISUALSTYLE
  2
AcDbVisualStyle
  3
ObjectDBX Classes
 90
     4095
 91
       24
280
     0
281
     0
  0
CLASS
  1
SCALE
  2
AcDbScale
  3
ObjectDBX Classes
 90
     1153
 91
       17
280
     0
281
     0
  0
CLASS
  1
TABLESTYLE
  2
AcDbTableStyle
  3
ObjectDBX Classes
 90
     4095
 91
        1
280
     0
281
     0
  0
CLASS
  1
MLEADERSTYLE
  2
AcDbMLeaderStyle
  3
ACDB_MLEADERSTYLE_CLASS
 90
     4095
 91
        1
280
     0
281
     0
  0
CLASS
  1
ACDBSECTIONVIEWSTYLE
  2
AcDbSectionViewStyle
  3
ObjectDBX Classes
 90
     1025
 91
        1
280
     0
281
     0
  0
CLASS
  1
ACDBDETAILVIEWSTYLE
  2
AcDbDetailViewStyle
  3
ObjectDBX Classes
 90
     1025
 91
        1
280
     0
281
     0
  0
CLASS
  1
DICTIONARYVAR
  2
AcDbDictionaryVar
  3
ObjectDBX Classes
 90
        0
 91
        5
280
     0
281
     0
  0
CLASS
  1
CELLSTYLEMAP
  2
AcDbCellStyleMap
  3
ObjectDBX Classes
 90
     1152
 91
        1
280
     0
281
     0
  0
ENDSEC
  0
SECTION
  2
TABLES
  0
TABLE
  2
VPORT
  5
8
330
0
100
AcDbSymbolTable
 70
     1
1001
ACAD
1000
DbSaveVer
1071
      278
  0
VPORT
  5
57
330
8
100
AcDbSymbolTableRecord
100
AcDbViewportTableRecord
  2
*Active
 70
     0
 10
0.0
 20
0.0
 11
1.0
 21
1.0
 12
0.0
 22
0.0
 13
0.0
 23
0.0
 14
1.0
 24
1.0
 15
0.0
 25
0.0
 16
0.0
 26
0.0
 36
1.0
 17
86.5683453237416
 27
-60.00000000000046
 37
0.0
 40
27.73812949640307
 41
2.742857142857127
 42
50.0
 43
0.0
 44
0.0
 50
0.0
 51
0.0
 71
     0
 72
   100
 73
     1
 74
     1
 75
     0
 76
     0
 77
     0
 78
     0
281
     0
 65
     1
110
0.0
120
0.0
130
0.0
111
1.0
121
0.0
131
0.0
112
0.0
122
1.0
132
0.0
 79
     0
146
0.0
 60
     3
 61
     5
292
     1
282
     1
141
0.0
142
0.0
 63
   250
421
  3355443
  0
ENDTAB
  0
TABLE
  2
LTYPE
  5
5
330
0
100
AcDbSymbolTable
 70
     1
  0
LTYPE
  5
5B
330
5
100
AcDbSymbolTableRecord
100
AcDbLinetypeTableRecord
  2
ByBlock
 70
     0
  3

 72
    65
 73
     0
 40
0.0
  0
LTYPE
  5
5C
330
5
100
AcDbSymbolTableRecord
100
AcDbLinetypeTableRecord
  2
ByLayer
 70
     0
  3

 72
    65
 73
     0
 40
0.0
  0
LTYPE
  5
5D
330
5
100
AcDbSymbolTableRecord
100
AcDbLinetypeTableRecord
  2
Continuous
 70
     0
  3
Solid line
 72
    65
 73
     0
 40
0.0
  0
ENDTAB
  0
TABLE
  2
LAYER
  5
2
330
0
100
AcDbSymbolTable
 70
     2
  0
LAYER
  5
54
330
2
100
AcDbSymbolTableRecord
100
AcDbLayerTableRecord
  2
0
 70
     0
 62
     7
  6
Continuous
370
    -3
390
F
347
21
348
0
  0
LAYER
  5
78
330
2
100
AcDbSymbolTableRecord
100
AcDbLayerTableRecord
  2
Layer 1
 70
     0
 62
     7
  6
Continuous
370
     0
390
F
347
21
348
0
  0
ENDTAB
  0
TABLE
  2
STYLE
  5
3
330
0
100
AcDbSymbolTable
 70
     2
  0
STYLE
  5
55
330
3
100
AcDbSymbolTableRecord
100
AcDbTextStyleTableRecord
  2
Standard
 70
     0
 40
0.0
 41
1.0
 50
0.0
 71
     0
 42
0.2
  3
txt
  4

  0
STYLE
  5
5A
330
3
100
AcDbSymbolTableRecord
100
AcDbTextStyleTableRecord
  2
Annotative
 70
     0
 40
0.0
 41
1.0
 50
0.0
 71
     0
 42
0.2
  3
txt
  4

1001
AcadAnnotative
1000
AnnotativeData
1002
{
1070
     1
1070
     1
1002
}
  0
ENDTAB
  0
TABLE
  2
VIEW
  5
6
330
0
100
AcDbSymbolTable
 70
     0
  0
ENDTAB
  0
TABLE
  2
UCS
  5
7
330
0
100
AcDbSymbolTable
 70
     0
  0
ENDTAB
  0
TABLE
  2
APPID
  5
9
330
0
100
AcDbSymbolTable
 70
     2
  0
APPID
  5
56
330
9
100
AcDbSymbolTableRecord
100
AcDbRegAppTableRecord
  2
ACAD
 70
     0
  0
APPID
  5
5E
330
9
100
AcDbSymbolTableRecord
100
AcDbRegAppTableRecord
  2
AcadAnnotative
 70
     0
  0
ENDTAB
  0
TABLE
  2
DIMSTYLE
  5
A
330
0
100
AcDbSymbolTable
 70
     2
100
AcDbDimStyleTable
 71
     0
  0
DIMSTYLE
105
58
330
A
100
AcDbSymbolTableRecord
100
AcDbDimStyleTableRecord
  2
Standard
 70
     0
340
55
  0
DIMSTYLE
105
59
330
A
100
AcDbSymbolTableRecord
100
AcDbDimStyleTableRecord
  2
Annotative
 70
     0
340
55
1001
AcadAnnotative
1000
AnnotativeData
1002
{
1070
     1
1070
     1
1002
}
  0
ENDTAB
  0
TABLE
  2
BLOCK_RECORD
  5
1
330
0
100
AcDbSymbolTable
 70
     1
  0
BLOCK_RECORD
  5
70
330
1
100
AcDbSymbolTableRecord
100
AcDbBlockTableRecord
  2
*Model_Space
340
73
 70
     0
280
     1
281
     0
  0
BLOCK_RECORD
  5
6C
330
1
100
AcDbSymbolTableRecord
100
AcDbBlockTableRecord
  2
*Paper_Space
340
6F
 70
     0
280
     1
281
     0
  0
BLOCK_RECORD
  5
74
330
1
100
AcDbSymbolTableRecord
100
AcDbBlockTableRecord
  2
*Paper_Space0
340
77
 70
     0
280
     1
281
     0
  0
ENDTAB
  0
ENDSEC
  0
SECTION
  2
BLOCKS
  0
BLOCK
  5
71
330
70
100
AcDbEntity
  8
0
100
AcDbBlockBegin
  2
*Model_Space
 70
     0
 10
0.0
 20
0.0
 30
0.0
  3
*Model_Space
  1

  0
ENDBLK
  5
72
330
70
100
AcDbEntity
  8
0
100
AcDbBlockEnd
  0
BLOCK
  5
6D
330
6C
100
AcDbEntity
 67
     1
  8
0
100
AcDbBlockBegin
  2
*Paper_Space
 70
     0
 10
0.0
 20
0.0
 30
0.0
  3
*Paper_Space
  1

  0
ENDBLK
  5
6E
330
6C
100
AcDbEntity
 67
     1
  8
0
100
AcDbBlockEnd
  0
BLOCK
  5
75
330
74
100
AcDbEntity
 67
     1
  8
0
100
AcDbBlockBegin
  2
*Paper_Space0
 70
     0
 10
0.0
 20
0.0
 30
0.0
  3
*Paper_Space0
  1

  0
ENDBLK
  5
76
330
74
100
AcDbEntity
 67
     1
  8
0
100
AcDbBlockEnd
  0
ENDSEC
  0
SECTION
  2
ENTITIES
  0
SPLINE
  5
79
330
70
100
AcDbEntity
  8
Layer 1
100
AcDbSpline
210
0.0
220
0.0
230
1.0
 70
     9
 71
     3
 72
    17
 73
    13
 74
     0
 42
0.0000000001
 43
0.0000000001
 40
0.0
 40
0.0
 40
0.0
 40
0.0
 40
1.0
 40
1.0
 40
1.0
 40
2.0
 40
2.0
 40
2.0
 40
3.0
 40
3.0
 40
3.0
 40
4.0
 40
4.0
 40
4.0
 40
4.0
 10
61.92724609375
 20
-59.9609375
 30
0.0
 10
61.92724609375
 20
-60.05712890625
 30
0.0
 10
61.97509765625
 20
-60.14111328125
 30
0.0
 10
62.31103515625
 20
-60.14111328125
 30
0.0
 10
62.65869140625
 20
-60.14111328125
 30
0.0
 10
63.1025390625
 20
-60.033203125
 30
0.0
 10
63.58203125
 20
-59.84130859375
 30
0.0
 10
63.30615234375
 20
-59.72119140625
 30
0.0
 10
62.99462890625
 20
-59.6494140625
 30
0.0
 10
62.646484375
 20
-59.6494140625
 30
0.0
 10
62.287109375
 20
-59.6494140625
 30
0.0
 10
61.92724609375
 20
-59.78125
 30
0.0
 10
61.92724609375
 20
-59.9609375
 30
0.0
  0
SPLINE
  5
7A
330
70
100
AcDbEntity
  8
Layer 1
100
AcDbSpline
210
0.0
220
0.0
230
1.0
 70
     9
 71
     3
 72
    23
 73
    19
 74
     0
 42
0.0000000001
 43
0.0000000001
 40
0.0
 40
0.0
 40
0.0
 40
0.0
 40
1.0
 40
1.0
 40
1.0
 40
2.0
 40
2.0
 40
2.0
 40
3.0
 40
3.0
 40
3.0
 40
4.0
 40
4.0
 40
4.0
 40
5.0
 40
5.0
 40
5.0
 40
6.0
 40
6.0
 40
6.0
 40
6.0
 10
64.27783203125
 20
-54.912109375
 30
0.0
 10
64.421875
 20
-54.912109375
 30
0.0
 10
64.76953125
 20
-55.3076171875
 30
0.0
 10
64.76953125
 20
-55.46337890625
 30
0.0
 10
64.76953125
 20
-55.5234375
 30
0.0
 10
64.7333984375
 20
-55.58349609375
 30
0.0
 10
64.62548828125
 20
-55.6552734375
 30
0.0
 10
63.37841796875
 20
-56.5068359375
 30
0.0
 10
60.1162109375
 20
-61.2802734375
 30
0.0
 10
60.1162109375
 20
-63.4150390625
 30
0.0
 10
60.1162109375
 20
-63.51123046875
 30
0.0
 10
60.10400390625
 20
-63.54736328125
 30
0.0
 10
60.06787109375
 20
-63.54736328125
 30
0.0
 10
60.02001953125
 20
-63.54736328125
 30
0.0
 10
59.66015625
 20
-63.4033203125
 30
0.0
 10
59.66015625
 20
-63.1875
 30
0.0
 10
59.66015625
 20
-61.1005859375
 30
0.0
 10
63.58203125
 20
-54.912109375
 30
0.0
 10
64.27783203125
 20
-54.912109375
 30
0.0
  0
SPLINE
  5
7B
330
70
100
AcDbEntity
  8
Layer 1
100
AcDbSpline
210
0.0
220
0.0
230
1.0
 70
     9
 71
     3
 72
    68
 73
    64
 74
     0
 42
0.0000000001
 43
0.0000000001
 40
0.0
 40
0.0
 40
0.0
 40
0.0
 40
1.0
 40
1.0
 40
1.0
 40
2.0
 40
2.0
 40
2.0
 40
3.0
 40
3.0
 40
3.0
 40
4.0
 40
4.0
 40
4.0
 40
5.0
 40
5.0
 40
5.0
 40
6.0
 40
6.0
 40
6.0
 40
7.0
 40
7.0
 40
7.0
 40
8.0
 40
8.0
 40
8.0
 40
9.0
 40
9.0
 40
9.0
 40
10.0
 40
10.0
 40
10.0
 40
11.0
 40
11.0
 40
11.0
 40
12.0
 40
12.0
 40
12.0
 40
13.0
 40
13.0
 40
13.0
 40
14.0
 40
14.0
 40
14.0
 40
15.0
 40
15.0
 40
15.0
 40
16.0
 40
16.0
 40
16.0
 40
17.0
 40
17.0
 40
17.0
 40
18.0
 40
18.0
 40
18.0
 40
19.0
 40
19.0
 40
19.0
 40
20.0
 40
20.0
 40
20.0
 40
21.0
 40
21.0
 40
21.0
 40
21.0
 10
65.6328125
 20
-54.3603515625
 30
0.0
 10
61.9150390625
 20
-54.3603515625
 30
0.0
 10
56.38623046875
 20
-57.20263671875
 30
0.0
 10
56.38623046875
 20
-59.92529296875
 30
0.0
 10
56.38623046875
 20
-60.57275390625
 30
0.0
 10
56.69775390625
 20
-60.99267578125
 30
0.0
 10
57.24951171875
 20
-60.99267578125
 30
0.0
 10
58.544921875
 20
-60.99267578125
 30
0.0
 10
59.6962890625
 20
-60.02099609375
 30
0.0
 10
60.45166015625
 20
-58.4501953125
 30
0.0
 10
60.48779296875
 20
-58.3779296875
 30
0.0
 10
60.51171875
 20
-58.330078125
 30
0.0
 10
60.5478515625
 20
-58.330078125
 30
0.0
 10
60.583984375
 20
-58.330078125
 30
0.0
 10
60.595703125
 20
-58.35400390625
 30
0.0
 10
60.595703125
 20
-58.39013671875
 30
0.0
 10
60.595703125
 20
-58.42578125
 30
0.0
 10
60.583984375
 20
-58.498046875
 30
0.0
 10
60.5478515625
 20
-58.59375
 30
0.0
 10
59.9482421875
 20
-60.212890625
 30
0.0
 10
58.712890625
 20
-61.1962890625
 30
0.0
 10
57.45361328125
 20
-61.1962890625
 30
0.0
 10
56.61376953125
 20
-61.1962890625
 30
0.0
 10
55.66650390625
 20
-60.46484375
 30
0.0
 10
55.66650390625
 20
-59.6494140625
 30
0.0
 10
55.66650390625
 20
-56.60302734375
 30
0.0
 10
61.60302734375
 20
-54.2041015625
 30
0.0
 10
65.6689453125
 20
-54.2041015625
 30
0.0
 10
67.5517578125
 20
-54.2041015625
 30
0.0
 10
68.5595703125
 20
-55.02001953125
 30
0.0
 10
68.5595703125
 20
-56.123046875
 30
0.0
 10
68.5595703125
 20
-57.4306640625
 30
0.0
 10
66.32861328125
 20
-59.2177734375
 30
0.0
 10
64.40966796875
 20
-60.0810546875
 30
0.0
 10
65.201171875
 20
-60.64453125
 30
0.0
 10
65.68115234375
 20
-61.55615234375
 30
0.0
 10
65.68115234375
 20
-62.4677734375
 30
0.0
 10
65.68115234375
 20
-62.5517578125
 30
0.0
 10
65.2734375
 20
-62.9716796875
 30
0.0
 10
65.21337890625
 20
-62.9716796875
 30
0.0
 10
65.17724609375
 20
-62.9716796875
 30
0.0
 10
65.1533203125
 20
-62.935546875
 30
0.0
 10
65.1533203125
 20
-62.83935546875
 30
0.0
 10
65.1533203125
 20
-61.904296875
 30
0.0
 10
64.853515625
 20
-60.83642578125
 30
0.0
 10
64.14599609375
 20
-60.201171875
 30
0.0
 10
63.54638671875
 20
-60.45263671875
 30
0.0
 10
62.982421875
 20
-60.5966796875
 30
0.0
 10
62.55078125
 20
-60.5966796875
 30
0.0
 10
62.14306640625
 20
-60.5966796875
 30
0.0
 10
61.72314453125
 20
-60.3330078125
 30
0.0
 10
61.72314453125
 20
-59.9970703125
 30
0.0
 10
61.72314453125
 20
-59.72119140625
 30
0.0
 10
62.203125
 20
-59.529296875
 30
0.0
 10
62.634765625
 20
-59.529296875
 30
0.0
 10
63.04248046875
 20
-59.529296875
 30
0.0
 10
63.42626953125
 20
-59.61328125
 30
0.0
 10
63.77392578125
 20
-59.7451171875
 30
0.0
 10
65.6328125
 20
-58.91748046875
 30
0.0
 10
67.89990234375
 20
-56.93896484375
 30
0.0
 10
67.89990234375
 20
-55.595703125
 30
0.0
 10
67.89990234375
 20
-54.923828125
 30
0.0
 10
67.38427734375
 20
-54.3603515625
 30
0.0
 10
65.6328125
 20
-54.3603515625
 30
0.0
  0
HATCH
  5
7C
330
70
100
AcDbEntity
  8
Layer 1
 62
   250
440
 33554687
100
AcDbHatch
 10
0.0
 20
0.0
 30
0.0
210
0.0
220
0.0
230
1.0
  2
SOLID
 70
     1
 71
     1
 91
        3
 92
        1
 93
        1
 72
     4
 94
        3
 73
     0
 74
     0
 95
       17
 96
       13
 40
0.0
 40
0.0
 40
0.0
 40
0.0
 40
1.0
 40
1.0
 40
1.0
 40
2.0
 40
2.0
 40
2.0
 40
3.0
 40
3.0
 40
3.0
 40
4.0
 40
4.0
 40
4.0
 40
4.0
 10
61.92724609375
 20
-59.9609375
 10
61.92724609375
 20
-60.05712890625
 10
61.97509765625
 20
-60.14111328125
 10
62.31103515625
 20
-60.14111328125
 10
62.65869140625
 20
-60.14111328125
 10
63.1025390625
 20
-60.033203125
 10
63.58203125
 20
-59.84130859375
 10
63.30615234375
 20
-59.72119140625
 10
62.99462890625
 20
-59.6494140625
 10
62.646484375
 20
-59.6494140625
 10
62.287109375
 20
-59.6494140625
 10
61.92724609375
 20
-59.78125
 10
61.92724609375
 20
-59.9609375
 97
        0
 97
        1
330
79
 92
        1
 93
        1
 72
     4
 94
        3
 73
     0
 74
     0
 95
       23
 96
       19
 40
0.0
 40
0.0
 40
0.0
 40
0.0
 40
1.0
 40
1.0
 40
1.0
 40
2.0
 40
2.0
 40
2.0
 40
3.0
 40
3.0
 40
3.0
 40
4.0
 40
4.0
 40
4.0
 40
5.0
 40
5.0
 40
5.0
 40
6.0
 40
6.0
 40
6.0
 40
6.0
 10
64.27783203125
 20
-54.912109375
 10
64.421875
 20
-54.912109375
 10
64.76953125
 20
-55.3076171875
 10
64.76953125
 20
-55.46337890625
 10
64.76953125
 20
-55.5234375
 10
64.7333984375
 20
-55.58349609375
 10
64.62548828125
 20
-55.6552734375
 10
63.37841796875
 20
-56.5068359375
 10
60.1162109375
 20
-61.2802734375
 10
60.1162109375
 20
-63.4150390625
 10
60.1162109375
 20
-63.51123046875
 10
60.10400390625
 20
-63.54736328125
 10
60.06787109375
 20
-63.54736328125
 10
60.02001953125
 20
-63.54736328125
 10
59.66015625
 20
-63.4033203125
 10
59.66015625
 20
-63.1875
 10
59.66015625
 20
-61.1005859375
 10
63.58203125
 20
-54.912109375
 10
64.27783203125
 20
-54.912109375
 97
        0
 97
        1
330
7A
 92
        1
 93
        1
 72
     4
 94
        3
 73
     0
 74
     0
 95
       68
 96
       64
 40
0.0
 40
0.0
 40
0.0
 40
0.0
 40
1.0
 40
1.0
 40
1.0
 40
2.0
 40
2.0
 40
2.0
 40
3.0
 40
3.0
 40
3.0
 40
4.0
 40
4.0
 40
4.0
 40
5.0
 40
5.0
 40
5.0
 40
6.0
 40
6.0
 40
6.0
 40
7.0
 40
7.0
 40
7.0
 40
8.0
 40
8.0
 40
8.0
 40
9.0
 40
9.0
 40
9.0
 40
10.0
 40
10.0
 40
10.0
 40
11.0
 40
11.0
 40
11.0
 40
12.0
 40
12.0
 40
12.0
 40
13.0
 40
13.0
 40
13.0
 40
14.0
 40
14.0
 40
14.0
 40
15.0
 40
15.0
 40
15.0
 40
16.0
 40
16.0
 40
16.0
 40
17.0
 40
17.0
 40
17.0
 40
18.0
 40
18.0
 40
18.0
 40
19.0
 40
19.0
 40
19.0
 40
20.0
 40
20.0
 40
20.0
 40
21.0
 40
21.0
 40
21.0
 40
21.0
 10
65.6328125
 20
-54.3603515625
 10
61.9150390625
 20
-54.3603515625
 10
56.38623046875
 20
-57.20263671875
 10
56.38623046875
 20
-59.92529296875
 10
56.38623046875
 20
-60.57275390625
 10
56.69775390625
 20
-60.99267578125
 10
57.24951171875
 20
-60.99267578125
 10
58.544921875
 20
-60.99267578125
 10
59.6962890625
 20
-60.02099609375
 10
60.45166015625
 20
-58.4501953125
 10
60.48779296875
 20
-58.3779296875
 10
60.51171875
 20
-58.330078125
 10
60.5478515625
 20
-58.330078125
 10
60.583984375
 20
-58.330078125
 10
60.595703125
 20
-58.35400390625
 10
60.595703125
 20
-58.39013671875
 10
60.595703125
 20
-58.42578125
 10
60.583984375
 20
-58.498046875
 10
60.5478515625
 20
-58.59375
 10
59.9482421875
 20
-60.212890625
 10
58.712890625
 20
-61.1962890625
 10
57.45361328125
 20
-61.1962890625
 10
56.61376953125
 20
-61.1962890625
 10
55.66650390625
 20
-60.46484375
 10
55.66650390625
 20
-59.6494140625
 10
55.66650390625
 20
-56.60302734375
 10
61.60302734375
 20
-54.2041015625
 10
65.6689453125
 20
-54.2041015625
 10
67.5517578125
 20
-54.2041015625
 10
68.5595703125
 20
-55.02001953125
 10
68.5595703125
 20
-56.123046875
 10
68.5595703125
 20
-57.4306640625
 10
66.32861328125
 20
-59.2177734375
 10
64.40966796875
 20
-60.0810546875
 10
65.201171875
 20
-60.64453125
 10
65.68115234375
 20
-61.55615234375
 10
65.68115234375
 20
-62.4677734375
 10
65.68115234375
 20
-62.5517578125
 10
65.2734375
 20
-62.9716796875
 10
65.21337890625
 20
-62.9716796875
 10
65.17724609375
 20
-62.9716796875
 10
65.1533203125
 20
-62.935546875
 10
65.1533203125
 20
-62.83935546875
 10
65.1533203125
 20
-61.904296875
 10
64.853515625
 20
-60.83642578125
 10
64.14599609375
 20
-60.201171875
 10
63.54638671875
 20
-60.45263671875
 10
62.982421875
 20
-60.5966796875
 10
62.55078125
 20
-60.5966796875
 10
62.14306640625
 20
-60.5966796875
 10
61.72314453125
 20
-60.3330078125
 10
61.72314453125
 20
-59.9970703125
 10
61.72314453125
 20
-59.72119140625
 10
62.203125
 20
-59.529296875
 10
62.634765625
 20
-59.529296875
 10
63.04248046875
 20
-59.529296875
 10
63.42626953125
 20
-59.61328125
 10
63.77392578125
 20
-59.7451171875
 10
65.6328125
 20
-58.91748046875
 10
67.89990234375
 20
-56.93896484375
 10
67.89990234375
 20
-55.595703125
 10
67.89990234375
 20
-54.923828125
 10
67.38427734375
 20
-54.3603515625
 10
65.6328125
 20
-54.3603515625
 97
        0
 97
        1
330
7B
 75
     2
 76
     1
 98
        1
 10
0.0
 20
0.0
450
        0
451
        0
460
0.0
461
0.0
452
        0
462
0.0
453
        0
470

  0
SPLINE
  5
7D
330
70
100
AcDbEntity
  8
Layer 1
100
AcDbSpline
210
0.0
220
0.0
230
1.0
 70
     9
 71
     3
 72
    17
 73
    13
 74
     0
 42
0.0000000001
 43
0.0000000001
 40
0.0
 40
0.0
 40
0.0
 40
0.0
 40
1.0
 40
1.0
 40
1.0
 40
2.0
 40
2.0
 40
2.0
 40
3.0
 40
3.0
 40
3.0
 40
4.0
 40
4.0
 40
4.0
 40
4.0
 10
66.80224609375
 20
-61.5322265625
 30
0.0
 10
66.80224609375
 20
-61.748046875
 30
0.0
 10
66.93408203125
 20
-61.92822265625
 30
0.0
 10
67.13818359375
 20
-61.92822265625
 30
0.0
 10
67.31787109375
 20
-61.92822265625
 30
0.0
 10
67.5576171875
 20
-61.8203125
 30
0.0
 10
67.7978515625
 20
-61.64013671875
 30
0.0
 10
67.40185546875
 20
-61.60400390625
 30
0.0
 10
67.06591796875
 20
-61.47216796875
 30
0.0
 10
66.85009765625
 20
-61.24462890625
 30
0.0
 10
66.814453125
 20
-61.34033203125
 30
0.0
 10
66.80224609375
 20
-61.4365234375
 30
0.0
 10
66.80224609375
 20
-61.5322265625
 30
0.0
  0
SPLINE
  5
7E
330
70
100
AcDbEntity
  8
Layer 1
100
AcDbSpline
210
0.0
220
0.0
230
1.0
 70
     9
 71
     3
 72
    32
 73
    28
 74
     0
 42
0.0000000001
 43
0.0000000001
 40
0.0
 40
0.0
 40
0.0
 40
0.0
 40
1.0
 40
1.0
 40
1.0
 40
2.0
 40
2.0
 40
2.0
 40
3.0
 40
3.0
 40
3.0
 40
4.0
 40
4.0
 40
4.0
 40
5.0
 40
5.0
 40
5.0
 40
6.0
 40
6.0
 40
6.0
 40
7.0
 40
7.0
 40
7.0
 40
8.0
 40
8.0
 40
8.0
 40
9.0
 40
9.0
 40
9.0
 40
9.0
 10
68.00146484375
 20
-59.16943359375
 30
0.0
 10
68.1455078125
 20
-59.16943359375
 30
0.0
 10
68.38525390625
 20
-59.50537109375
 30
0.0
 10
68.38525390625
 20
-59.62548828125
 30
0.0
 10
68.38525390625
 20
-59.697265625
 30
0.0
 10
68.30126953125
 20
-59.7451171875
 30
0.0
 10
68.2294921875
 20
-59.78125
 30
0.0
 10
67.78564453125
 20
-60.044921875
 30
0.0
 10
67.173828125
 20
-60.57275390625
 30
0.0
 10
66.91015625
 20
-61.1005859375
 30
0.0
 10
67.1142578125
 20
-61.3642578125
 30
0.0
 10
67.4736328125
 20
-61.5205078125
 30
0.0
 10
67.90576171875
 20
-61.54443359375
 30
0.0
 10
68.4091796875
 20
-61.1005859375
 30
0.0
 10
68.90087890625
 20
-60.3330078125
 30
0.0
 10
68.90087890625
 20
-59.55322265625
 30
0.0
 10
68.90087890625
 20
-59.15771484375
 30
0.0
 10
68.67333984375
 20
-58.90576171875
 30
0.0
 10
68.20556640625
 20
-58.90576171875
 30
0.0
 10
67.73779296875
 20
-58.90576171875
 30
0.0
 10
66.88623046875
 20
-59.45751953125
 30
0.0
 10
66.7421875
 20
-60.2490234375
 30
0.0
 10
66.93408203125
 20
-59.93701171875
 30
0.0
 10
67.1982421875
 20
-59.697265625
 30
0.0
 10
67.44970703125
 20
-59.4814453125
 30
0.0
 10
67.6416015625
 20
-59.3134765625
 30
0.0
 10
67.845703125
 20
-59.16943359375
 30
0.0
 10
68.00146484375
 20
-59.16943359375
 30
0.0
  0
SPLINE
  5
7F
330
70
100
AcDbEntity
  8
Layer 1
100
AcDbSpline
210
0.0
220
0.0
230
1.0
 70
     9
 71
     3
 72
    41
 73
    37
 74
     0
 42
0.0000000001
 43
0.0000000001
 40
0.0
 40
0.0
 40
0.0
 40
0.0
 40
1.0
 40
1.0
 40
1.0
 40
2.0
 40
2.0
 40
2.0
 40
3.0
 40
3.0
 40
3.0
 40
4.0
 40
4.0
 40
4.0
 40
5.0
 40
5.0
 40
5.0
 40
6.0
 40
6.0
 40
6.0
 40
7.0
 40
7.0
 40
7.0
 40
8.0
 40
8.0
 40
8.0
 40
9.0
 40
9.0
 40
9.0
 40
10.0
 40
10.0
 40
10.0
 40
11.0
 40
11.0
 40
11.0
 40
12.0
 40
12.0
 40
12.0
 40
12.0
 10
68.08544921875
 20
-61.64013671875
 30
0.0
 10
67.73779296875
 20
-61.916015625
 30
0.0
 10
67.4140625
 20
-62.07177734375
 30
0.0
 10
67.2578125
 20
-62.07177734375
 30
0.0
 10
66.97021484375
 20
-62.07177734375
 30
0.0
 10
66.45458984375
 20
-61.7841796875
 30
0.0
 10
66.45458984375
 20
-61.232421875
 30
0.0
 10
66.45458984375
 20
-60.99267578125
 30
0.0
 10
66.50244140625
 20
-60.77685546875
 30
0.0
 10
66.58642578125
 20
-60.57275390625
 30
0.0
 10
66.58642578125
 20
-60.548828125
 30
0.0
 10
66.57421875
 20
-60.52490234375
 30
0.0
 10
66.57421875
 20
-60.48876953125
 30
0.0
 10
66.57421875
 20
-59.46923828125
 30
0.0
 10
67.677734375
 20
-58.73779296875
 30
0.0
 10
68.3134765625
 20
-58.73779296875
 30
0.0
 10
68.85302734375
 20
-58.73779296875
 30
0.0
 10
69.2490234375
 20
-59.08544921875
 30
0.0
 10
69.2490234375
 20
-59.58935546875
 30
0.0
 10
69.2490234375
 20
-60.380859375
 30
0.0
 10
68.7333984375
 20
-61.064453125
 30
0.0
 10
68.21728515625
 20
-61.5205078125
 30
0.0
 10
68.93701171875
 20
-61.47216796875
 30
0.0
 10
69.560546875
 20
-60.98046875
 30
0.0
 10
69.9326171875
 20
-60.60888671875
 30
0.0
 10
69.9326171875
 20
-60.60888671875
 30
0.0
 10
69.96875
 20
-60.560546875
 30
0.0
 10
70.00439453125
 20
-60.560546875
 30
0.0
 10
70.04052734375
 20
-60.560546875
 30
0.0
 10
70.064453125
 20
-60.5966796875
 30
0.0
 10
70.064453125
 20
-60.60888671875
 30
0.0
 10
70.064453125
 20
-60.6328125
 30
0.0
 10
69.96875
 20
-60.716796875
 30
0.0
 10
69.9326171875
 20
-60.7529296875
 30
0.0
 10
69.57275390625
 20
-61.07666015625
 30
0.0
 10
69.0087890625
 20
-61.60400390625
 30
0.0
 10
68.08544921875
 20
-61.64013671875
 30
0.0
  0
HATCH
  5
80
330
70
100
AcDbEntity
  8
Layer 1
 62
   250
440
 33554687
100
AcDbHatch
 10
0.0
 20
0.0
 30
0.0
210
0.0
220
0.0
230
1.0
  2
SOLID
 70
     1
 71
     1
 91
        3
 92
        1
 93
        1
 72
     4
 94
        3
 73
     0
 74
     0
 95
       17
 96
       13
 40
0.0
 40
0.0
 40
0.0
 40
0.0
 40
1.0
 40
1.0
 40
1.0
 40
2.0
 40
2.0
 40
2.0
 40
3.0
 40
3.0
 40
3.0
 40
4.0
 40
4.0
 40
4.0
 40
4.0
 10
66.80224609375
 20
-61.5322265625
 10
66.80224609375
 20
-61.748046875
 10
66.93408203125
 20
-61.92822265625
 10
67.13818359375
 20
-61.92822265625
 10
67.31787109375
 20
-61.92822265625
 10
67.5576171875
 20
-61.8203125
 10
67.7978515625
 20
-61.64013671875
 10
67.40185546875
 20
-61.60400390625
 10
67.06591796875
 20
-61.47216796875
 10
66.85009765625
 20
-61.24462890625
 10
66.814453125
 20
-61.34033203125
 10
66.80224609375
 20
-61.4365234375
 10
66.80224609375
 20
-61.5322265625
 97
        0
 97
        1
330
7D
 92
        1
 93
        1
 72
     4
 94
        3
 73
     0
 74
     0
 95
       32
 96
       28
 40
0.0
 40
0.0
 40
0.0
 40
0.0
 40
1.0
 40
1.0
 40
1.0
 40
2.0
 40
2.0
 40
2.0
 40
3.0
 40
3.0
 40
3.0
 40
4.0
 40
4.0
 40
4.0
 40
5.0
 40
5.0
 40
5.0
 40
6.0
 40
6.0
 40
6.0
 40
7.0
 40
7.0
 40
7.0
 40
8.0
 40
8.0
 40
8.0
 40
9.0
 40
9.0
 40
9.0
 40
9.0
 10
68.00146484375
 20
-59.16943359375
 10
68.1455078125
 20
-59.16943359375
 10
68.38525390625
 20
-59.50537109375
 10
68.38525390625
 20
-59.62548828125
 10
68.38525390625
 20
-59.697265625
 10
68.30126953125
 20
-59.7451171875
 10
68.2294921875
 20
-59.78125
 10
67.78564453125
 20
-60.044921875
 10
67.173828125
 20
-60.57275390625
 10
66.91015625
 20
-61.1005859375
 10
67.1142578125
 20
-61.3642578125
 10
67.4736328125
 20
-61.5205078125
 10
67.90576171875
 20
-61.54443359375
 10
68.4091796875
 20
-61.1005859375
 10
68.90087890625
 20
-60.3330078125
 10
68.90087890625
 20
-59.55322265625
 10
68.90087890625
 20
-59.15771484375
 10
68.67333984375
 20
-58.90576171875
 10
68.20556640625
 20
-58.90576171875
 10
67.73779296875
 20
-58.90576171875
 10
66.88623046875
 20
-59.45751953125
 10
66.7421875
 20
-60.2490234375
 10
66.93408203125
 20
-59.93701171875
 10
67.1982421875
 20
-59.697265625
 10
67.44970703125
 20
-59.4814453125
 10
67.6416015625
 20
-59.3134765625
 10
67.845703125
 20
-59.16943359375
 10
68.00146484375
 20
-59.16943359375
 97
        0
 97
        1
330
7E
 92
        1
 93
        1
 72
     4
 94
        3
 73
     0
 74
     0
 95
       41
 96
       37
 40
0.0
 40
0.0
 40
0.0
 40
0.0
 40
1.0
 40
1.0
 40
1.0
 40
2.0
 40
2.0
 40
2.0
 40
3.0
 40
3.0
 40
3.0
 40
4.0
 40
4.0
 40
4.0
 40
5.0
 40
5.0
 40
5.0
 40
6.0
 40
6.0
 40
6.0
 40
7.0
 40
7.0
 40
7.0
 40
8.0
 40
8.0
 40
8.0
 40
9.0
 40
9.0
 40
9.0
 40
10.0
 40
10.0
 40
10.0
 40
11.0
 40
11.0
 40
11.0
 40
12.0
 40
12.0
 40
12.0
 40
12.0
 10
68.08544921875
 20
-61.64013671875
 10
67.73779296875
 20
-61.916015625
 10
67.4140625
 20
-62.07177734375
 10
67.2578125
 20
-62.07177734375
 10
66.97021484375
 20
-62.07177734375
 10
66.45458984375
 20
-61.7841796875
 10
66.45458984375
 20
-61.232421875
 10
66.45458984375
 20
-60.99267578125
 10
66.50244140625
 20
-60.77685546875
 10
66.58642578125
 20
-60.57275390625
 10
66.58642578125
 20
-60.548828125
 10
66.57421875
 20
-60.52490234375
 10
66.57421875
 20
-60.48876953125
 10
66.57421875
 20
-59.46923828125
 10
67.677734375
 20
-58.73779296875
 10
68.3134765625
 20
-58.73779296875
 10
68.85302734375
 20
-58.73779296875
 10
69.2490234375
 20
-59.08544921875
 10
69.2490234375
 20
-59.58935546875
 10
69.2490234375
 20
-60.380859375
 10
68.7333984375
 20
-61.064453125
 10
68.21728515625
 20
-61.5205078125
 10
68.93701171875
 20
-61.47216796875
 10
69.560546875
 20
-60.98046875
 10
69.9326171875
 20
-60.60888671875
 10
69.9326171875
 20
-60.60888671875
 10
69.96875
 20
-60.560546875
 10
70.00439453125
 20
-60.560546875
 10
70.04052734375
 20
-60.560546875
 10
70.064453125
 20
-60.5966796875
 10
70.064453125
 20
-60.60888671875
 10
70.064453125
 20
-60.6328125
 10
69.96875
 20
-60.716796875
 10
69.9326171875
 20
-60.7529296875
 10
69.57275390625
 20
-61.07666015625
 10
69.0087890625
 20
-61.60400390625
 10
68.08544921875
 20
-61.64013671875
 97
        0
 97
        1
330
7F
 75
     2
 76
     1
 98
        1
 10
0.0
 20
0.0
450
        0
451
        0
460
0.0
461
0.0
452
        0
462
0.0
453
        0
470

  0
SPLINE
  5
81
330
70
100
AcDbEntity
  8
Layer 1
100
AcDbSpline
210
0.0
220
0.0
230
1.0
 70
     9
 71
     3
 72
    86
 73
    82
 74
     0
 42
0.0000000001
 43
0.0000000001
 40
0.0
 40
0.0
 40
0.0
 40
0.0
 40
1.0
 40
1.0
 40
1.0
 40
2.0
 40
2.0
 40
2.0
 40
3.0
 40
3.0
 40
3.0
 40
4.0
 40
4.0
 40
4.0
 40
5.0
 40
5.0
 40
5.0
 40
6.0
 40
6.0
 40
6.0
 40
7.0
 40
7.0
 40
7.0
 40
8.0
 40
8.0
 40
8.0
 40
9.0
 40
9.0
 40
9.0
 40
10.0
 40
10.0
 40
10.0
 40
11.0
 40
11.0
 40
11.0
 40
12.0
 40
12.0
 40
12.0
 40
13.0
 40
13.0
 40
13.0
 40
14.0
 40
14.0
 40
14.0
 40
15.0
 40
15.0
 40
15.0
 40
16.0
 40
16.0
 40
16.0
 40
17.0
 40
17.0
 40
17.0
 40
18.0
 40
18.0
 40
18.0
 40
19.0
 40
19.0
 40
19.0
 40
20.0
 40
20.0
 40
20.0
 40
21.0
 40
21.0
 40
21.0
 40
22.0
 40
22.0
 40
22.0
 40
23.0
 40
23.0
 40
23.0
 40
24.0
 40
24.0
 40
24.0
 40
25.0
 40
25.0
 40
25.0
 40
26.0
 40
26.0
 40
26.0
 40
27.0
 40
27.0
 40
27.0
 40
27.0
 10
71.22998046875
 20
-59.84130859375
 30
0.0
 10
71.22998046875
 20
-59.9853515625
 30
0.0
 10
70.55810546875
 20
-60.92041015625
 30
0.0
 10
70.498046875
 20
-61.08837890625
 30
0.0
 10
70.498046875
 20
-61.08837890625
 30
0.0
 10
72.5732421875
 20
-58.9775390625
 30
0.0
 10
72.873046875
 20
-58.9775390625
 30
0.0
 10
73.07666015625
 20
-58.9775390625
 30
0.0
 10
73.49658203125
 20
-59.265625
 30
0.0
 10
73.49658203125
 20
-59.6611328125
 30
0.0
 10
73.49658203125
 20
-60.06884765625
 30
0.0
 10
72.76513671875
 20
-60.7529296875
 30
0.0
 10
72.76513671875
 20
-60.884765625
 30
0.0
 10
72.76513671875
 20
-60.884765625
 30
0.0
 10
74.1201171875
 20
-59.876953125
 30
0.0
 10
74.3359375
 20
-59.876953125
 30
0.0
 10
74.52783203125
 20
-59.876953125
 30
0.0
 10
74.76806640625
 20
-60.28515625
 30
0.0
 10
74.76806640625
 20
-60.64453125
 30
0.0
 10
74.76806640625
 20
-61.00439453125
 30
0.0
 10
74.0244140625
 20
-61.484375
 30
0.0
 10
74.0244140625
 20
-61.97607421875
 30
0.0
 10
74.0244140625
 20
-62.06005859375
 30
0.0
 10
74.072265625
 20
-62.10791015625
 30
0.0
 10
74.15625
 20
-62.10791015625
 30
0.0
 10
74.744140625
 20
-62.10791015625
 30
0.0
 10
76.1708984375
 20
-60.60888671875
 30
0.0
 10
76.1708984375
 20
-60.60888671875
 30
0.0
 10
76.1708984375
 20
-60.60888671875
 30
0.0
 10
76.20703125
 20
-60.560546875
 30
0.0
 10
76.2431640625
 20
-60.560546875
 30
0.0
 10
76.279296875
 20
-60.560546875
 30
0.0
 10
76.30322265625
 20
-60.5966796875
 30
0.0
 10
76.30322265625
 20
-60.60888671875
 30
0.0
 10
76.30322265625
 20
-60.6328125
 30
0.0
 10
76.20703125
 20
-60.716796875
 30
0.0
 10
76.1708984375
 20
-60.7529296875
 30
0.0
 10
76.1708984375
 20
-60.7529296875
 30
0.0
 10
74.66015625
 20
-62.32373046875
 30
0.0
 10
74.08447265625
 20
-62.32373046875
 30
0.0
 10
73.8203125
 20
-62.32373046875
 30
0.0
 10
73.44873046875
 20
-62.02392578125
 30
0.0
 10
73.44873046875
 20
-61.65234375
 30
0.0
 10
73.44873046875
 20
-61.1484375
 30
0.0
 10
74.2763671875
 20
-60.3447265625
 30
0.0
 10
74.2763671875
 20
-60.15283203125
 30
0.0
 10
74.2763671875
 20
-60.12890625
 30
0.0
 10
74.251953125
 20
-60.10498046875
 30
0.0
 10
74.22802734375
 20
-60.10498046875
 30
0.0
 10
74.1083984375
 20
-60.10498046875
 30
0.0
 10
73.29296875
 20
-60.60888671875
 30
0.0
 10
72.873046875
 20
-61.0166015625
 30
0.0
 10
72.5849609375
 20
-61.29248046875
 30
0.0
 10
72.369140625
 20
-61.55615234375
 30
0.0
 10
72.29736328125
 20
-61.55615234375
 30
0.0
 10
72.1533203125
 20
-61.55615234375
 30
0.0
 10
71.92529296875
 20
-61.2802734375
 30
0.0
 10
71.92529296875
 20
-61.12451171875
 30
0.0
 10
71.92529296875
 20
-60.78857421875
 30
0.0
 10
72.94482421875
 20
-59.529296875
 30
0.0
 10
72.94482421875
 20
-59.24169921875
 30
0.0
 10
72.94482421875
 20
-59.20556640625
 30
0.0
 10
72.93310546875
 20
-59.193359375
 30
0.0
 10
72.9091796875
 20
-59.193359375
 30
0.0
 10
72.537109375
 20
-59.193359375
 30
0.0
 10
70.73828125
 20
-61.0166015625
 30
0.0
 10
70.39013671875
 20
-61.4482421875
 30
0.0
 10
70.04248046875
 20
-61.8681640625
 30
0.0
 10
69.95849609375
 20
-62.095703125
 30
0.0
 10
69.8388671875
 20
-62.095703125
 30
0.0
 10
69.73046875
 20
-62.095703125
 30
0.0
 10
69.466796875
 20
-61.8681640625
 30
0.0
 10
69.466796875
 20
-61.568359375
 30
0.0
 10
69.466796875
 20
-61.08837890625
 30
0.0
 10
70.234375
 20
-60.18896484375
 30
0.0
 10
70.7021484375
 20
-59.3134765625
 30
0.0
 10
70.73828125
 20
-59.25341796875
 30
0.0
 10
70.77392578125
 20
-59.2177734375
 30
0.0
 10
70.822265625
 20
-59.2177734375
 30
0.0
 10
70.990234375
 20
-59.2177734375
 30
0.0
 10
71.22998046875
 20
-59.529296875
 30
0.0
 10
71.22998046875
 20
-59.84130859375
 30
0.0
  0
HATCH
  5
82
330
70
100
AcDbEntity
  8
Layer 1
 62
   250
440
 33554687
100
AcDbHatch
 10
0.0
 20
0.0
 30
0.0
210
0.0
220
0.0
230
1.0
  2
SOLID
 70
     1
 71
     1
 91
        1
 92
        1
 93
        1
 72
     4
 94
        3
 73
     0
 74
     0
 95
       86
 96
       82
 40
0.0
 40
0.0
 40
0.0
 40
0.0
 40
1.0
 40
1.0
 40
1.0
 40
2.0
 40
2.0
 40
2.0
 40
3.0
 40
3.0
 40
3.0
 40
4.0
 40
4.0
 40
4.0
 40
5.0
 40
5.0
 40
5.0
 40
6.0
 40
6.0
 40
6.0
 40
7.0
 40
7.0
 40
7.0
 40
8.0
 40
8.0
 40
8.0
 40
9.0
 40
9.0
 40
9.0
 40
10.0
 40
10.0
 40
10.0
 40
11.0
 40
11.0
 40
11.0
 40
12.0
 40
12.0
 40
12.0
 40
13.0
 40
13.0
 40
13.0
 40
14.0
 40
14.0
 40
14.0
 40
15.0
 40
15.0
 40
15.0
 40
16.0
 40
16.0
 40
16.0
 40
17.0
 40
17.0
 40
17.0
 40
18.0
 40
18.0
 40
18.0
 40
19.0
 40
19.0
 40
19.0
 40
20.0
 40
20.0
 40
20.0
 40
21.0
 40
21.0
 40
21.0
 40
22.0
 40
22.0
 40
22.0
 40
23.0
 40
23.0
 40
23.0
 40
24.0
 40
24.0
 40
24.0
 40
25.0
 40
25.0
 40
25.0
 40
26.0
 40
26.0
 40
26.0
 40
27.0
 40
27.0
 40
27.0
 40
27.0
 10
71.22998046875
 20
-59.84130859375
 10
71.22998046875
 20
-59.9853515625
 10
70.55810546875
 20
-60.92041015625
 10
70.498046875
 20
-61.08837890625
 10
70.498046875
 20
-61.08837890625
 10
72.5732421875
 20
-58.9775390625
 10
72.873046875
 20
-58.9775390625
 10
73.07666015625
 20
-58.9775390625
 10
73.49658203125
 20
-59.265625
 10
73.49658203125
 20
-59.6611328125
 10
73.49658203125
 20
-60.06884765625
 10
72.76513671875
 20
-60.7529296875
 10
72.76513671875
 20
-60.884765625
 10
72.76513671875
 20
-60.884765625
 10
74.1201171875
 20
-59.876953125
 10
74.3359375
 20
-59.876953125
 10
74.52783203125
 20
-59.876953125
 10
74.76806640625
 20
-60.28515625
 10
74.76806640625
 20
-60.64453125
 10
74.76806640625
 20
-61.00439453125
 10
74.0244140625
 20
-61.484375
 10
74.0244140625
 20
-61.97607421875
 10
74.0244140625
 20
-62.06005859375
 10
74.072265625
 20
-62.10791015625
 10
74.15625
 20
-62.10791015625
 10
74.744140625
 20
-62.10791015625
 10
76.1708984375
 20
-60.60888671875
 10
76.1708984375
 20
-60.60888671875
 10
76.1708984375
 20
-60.60888671875
 10
76.20703125
 20
-60.560546875
 10
76.2431640625
 20
-60.560546875
 10
76.279296875
 20
-60.560546875
 10
76.30322265625
 20
-60.5966796875
 10
76.30322265625
 20
-60.60888671875
 10
76.30322265625
 20
-60.6328125
 10
76.20703125
 20
-60.716796875
 10
76.1708984375
 20
-60.7529296875
 10
76.1708984375
 20
-60.7529296875
 10
74.66015625
 20
-62.32373046875
 10
74.08447265625
 20
-62.32373046875
 10
73.8203125
 20
-62.32373046875
 10
73.44873046875
 20
-62.02392578125
 10
73.44873046875
 20
-61.65234375
 10
73.44873046875
 20
-61.1484375
 10
74.2763671875
 20
-60.3447265625
 10
74.2763671875
 20
-60.15283203125
 10
74.2763671875
 20
-60.12890625
 10
74.251953125
 20
-60.10498046875
 10
74.22802734375
 20
-60.10498046875
 10
74.1083984375
 20
-60.10498046875
 10
73.29296875
 20
-60.60888671875
 10
72.873046875
 20
-61.0166015625
 10
72.5849609375
 20
-61.29248046875
 10
72.369140625
 20
-61.55615234375
 10
72.29736328125
 20
-61.55615234375
 10
72.1533203125
 20
-61.55615234375
 10
71.92529296875
 20
-61.2802734375
 10
71.92529296875
 20
-61.12451171875
 10
71.92529296875
 20
-60.78857421875
 10
72.94482421875
 20
-59.529296875
 10
72.94482421875
 20
-59.24169921875
 10
72.94482421875
 20
-59.20556640625
 10
72.93310546875
 20
-59.193359375
 10
72.9091796875
 20
-59.193359375
 10
72.537109375
 20
-59.193359375
 10
70.73828125
 20
-61.0166015625
 10
70.39013671875
 20
-61.4482421875
 10
70.04248046875
 20
-61.8681640625
 10
69.95849609375
 20
-62.095703125
 10
69.8388671875
 20
-62.095703125
 10
69.73046875
 20
-62.095703125
 10
69.466796875
 20
-61.8681640625
 10
69.466796875
 20
-61.568359375
 10
69.466796875
 20
-61.08837890625
 10
70.234375
 20
-60.18896484375
 10
70.7021484375
 20
-59.3134765625
 10
70.73828125
 20
-59.25341796875
 10
70.77392578125
 20
-59.2177734375
 10
70.822265625
 20
-59.2177734375
 10
70.990234375
 20
-59.2177734375
 10
71.22998046875
 20
-59.529296875
 10
71.22998046875
 20
-59.84130859375
 97
        0
 97
        1
330
81
 75
     2
 76
     1
 98
        1
 10
0.0
 20
0.0
450
        0
451
        0
460
0.0
461
0.0
452
        0
462
0.0
453
        0
470

  0
SPLINE
  5
83
330
70
100
AcDbEntity
  8
Layer 1
100
AcDbSpline
210
0.0
220
0.0
230
1.0
 70
     9
 71
     3
 72
    14
 73
    10
 74
     0
 42
0.0000000001
 43
0.0000000001
 40
0.0
 40
0.0
 40
0.0
 40
0.0
 40
1.0
 40
1.0
 40
1.0
 40
2.0
 40
2.0
 40
2.0
 40
3.0
 40
3.0
 40
3.0
 40
3.0
 10
77.79345703125
 20
-59.3974609375
 30
0.0
 10
77.79345703125
 20
-59.30126953125
 30
0.0
 10
77.75732421875
 20
-59.265625
 30
0.0
 10
77.697265625
 20
-59.265625
 30
0.0
 10
77.49365234375
 20
-59.265625
 30
0.0
 10
77.02587890625
 20
-59.7333984375
 30
0.0
 10
76.666015625
 20
-60.60888671875
 30
0.0
 10
77.20556640625
 20
-60.2490234375
 30
0.0
 10
77.79345703125
 20
-59.67333984375
 30
0.0
 10
77.79345703125
 20
-59.3974609375
 30
0.0
  0
SPLINE
  5
84
330
70
100
AcDbEntity
  8
Layer 1
100
AcDbSpline
210
0.0
220
0.0
230
1.0
 70
     9
 71
     3
 72
    38
 73
    34
 74
     0
 42
0.0000000001
 43
0.0000000001
 40
0.0
 40
0.0
 40
0.0
 40
0.0
 40
1.0
 40
1.0
 40
1.0
 40
2.0
 40
2.0
 40
2.0
 40
3.0
 40
3.0
 40
3.0
 40
4.0
 40
4.0
 40
4.0
 40
5.0
 40
5.0
 40
5.0
 40
6.0
 40
6.0
 40
6.0
 40
7.0
 40
7.0
 40
7.0
 40
8.0
 40
8.0
 40
8.0
 40
9.0
 40
9.0
 40
9.0
 40
10.0
 40
10.0
 40
10.0
 40
11.0
 40
11.0
 40
11.0
 40
11.0
 10
79.02880859375
 20
-60.560546875
 30
0.0
 10
79.06494140625
 20
-60.560546875
 30
0.0
 10
79.07666015625
 20
-60.5966796875
 30
0.0
 10
79.07666015625
 20
-60.60888671875
 30
0.0
 10
79.07666015625
 20
-60.6328125
 30
0.0
 10
78.99267578125
 20
-60.716796875
 30
0.0
 10
78.95703125
 20
-60.7529296875
 30
0.0
 10
78.95703125
 20
-60.7529296875
 30
0.0
 10
77.76953125
 20
-62.0478515625
 30
0.0
 10
76.845703125
 20
-62.0478515625
 30
0.0
 10
76.234375
 20
-62.0478515625
 30
0.0
 10
75.91064453125
 20
-61.6640625
 30
0.0
 10
75.91064453125
 20
-61.04052734375
 30
0.0
 10
75.91064453125
 20
-59.9609375
 30
0.0
 10
76.98974609375
 20
-58.833984375
 30
0.0
 10
77.517578125
 20
-58.833984375
 30
0.0
 10
77.84130859375
 20
-58.833984375
 30
0.0
 10
78.04541015625
 20
-59.24169921875
 30
0.0
 10
78.04541015625
 20
-59.38525390625
 30
0.0
 10
78.04541015625
 20
-59.72119140625
 30
0.0
 10
77.3134765625
 20
-60.35693359375
 30
0.0
 10
76.654296875
 20
-60.7646484375
 30
0.0
 10
76.6298828125
 20
-60.83642578125
 30
0.0
 10
76.6181640625
 20
-61.052734375
 30
0.0
 10
76.6181640625
 20
-61.13671875
 30
0.0
 10
76.6181640625
 20
-61.50830078125
 30
0.0
 10
76.7978515625
 20
-61.8203125
 30
0.0
 10
77.14599609375
 20
-61.8203125
 30
0.0
 10
77.78125
 20
-61.8203125
 30
0.0
 10
78.95703125
 20
-60.60888671875
 30
0.0
 10
78.95703125
 20
-60.60888671875
 30
0.0
 10
78.95703125
 20
-60.60888671875
 30
0.0
 10
79.0048828125
 20
-60.560546875
 30
0.0
 10
79.02880859375
 20
-60.560546875
 30
0.0
  0
HATCH
  5
85
330
70
100
AcDbEntity
  8
Layer 1
 62
   250
440
 33554687
100
AcDbHatch
 10
0.0
 20
0.0
 30
0.0
210
0.0
220
0.0
230
1.0
  2
SOLID
 70
     1
 71
     1
 91
        2
 92
        1
 93
        1
 72
     4
 94
        3
 73
     0
 74
     0
 95
       14
 96
       10
 40
0.0
 40
0.0
 40
0.0
 40
0.0
 40
1.0
 40
1.0
 40
1.0
 40
2.0
 40
2.0
 40
2.0
 40
3.0
 40
3.0
 40
3.0
 40
3.0
 10
77.79345703125
 20
-59.3974609375
 10
77.79345703125
 20
-59.30126953125
 10
77.75732421875
 20
-59.265625
 10
77.697265625
 20
-59.265625
 10
77.49365234375
 20
-59.265625
 10
77.02587890625
 20
-59.7333984375
 10
76.666015625
 20
-60.60888671875
 10
77.20556640625
 20
-60.2490234375
 10
77.79345703125
 20
-59.67333984375
 10
77.79345703125
 20
-59.3974609375
 97
        0
 97
        1
330
83
 92
        1
 93
        1
 72
     4
 94
        3
 73
     0
 74
     0
 95
       38
 96
       34
 40
0.0
 40
0.0
 40
0.0
 40
0.0
 40
1.0
 40
1.0
 40
1.0
 40
2.0
 40
2.0
 40
2.0
 40
3.0
 40
3.0
 40
3.0
 40
4.0
 40
4.0
 40
4.0
 40
5.0
 40
5.0
 40
5.0
 40
6.0
 40
6.0
 40
6.0
 40
7.0
 40
7.0
 40
7.0
 40
8.0
 40
8.0
 40
8.0
 40
9.0
 40
9.0
 40
9.0
 40
10.0
 40
10.0
 40
10.0
 40
11.0
 40
11.0
 40
11.0
 40
11.0
 10
79.02880859375
 20
-60.560546875
 10
79.06494140625
 20
-60.560546875
 10
79.07666015625
 20
-60.5966796875
 10
79.07666015625
 20
-60.60888671875
 10
79.07666015625
 20
-60.6328125
 10
78.99267578125
 20
-60.716796875
 10
78.95703125
 20
-60.7529296875
 10
78.95703125
 20
-60.7529296875
 10
77.76953125
 20
-62.0478515625
 10
76.845703125
 20
-62.0478515625
 10
76.234375
 20
-62.0478515625
 10
75.91064453125
 20
-61.6640625
 10
75.91064453125
 20
-61.04052734375
 10
75.91064453125
 20
-59.9609375
 10
76.98974609375
 20
-58.833984375
 10
77.517578125
 20
-58.833984375
 10
77.84130859375
 20
-58.833984375
 10
78.04541015625
 20
-59.24169921875
 10
78.04541015625
 20
-59.38525390625
 10
78.04541015625
 20
-59.72119140625
 10
77.3134765625
 20
-60.35693359375
 10
76.654296875
 20
-60.7646484375
 10
76.6298828125
 20
-60.83642578125
 10
76.6181640625
 20
-61.052734375
 10
76.6181640625
 20
-61.13671875
 10
76.6181640625
 20
-61.50830078125
 10
76.7978515625
 20
-61.8203125
 10
77.14599609375
 20
-61.8203125
 10
77.78125
 20
-61.8203125
 10
78.95703125
 20
-60.60888671875
 10
78.95703125
 20
-60.60888671875
 10
78.95703125
 20
-60.60888671875
 10
79.0048828125
 20
-60.560546875
 10
79.02880859375
 20
-60.560546875
 97
        0
 97
        1
330
84
 75
     2
 76
     1
 98
        1
 10
0.0
 20
0.0
450
        0
451
        0
460
0.0
461
0.0
452
        0
462
0.0
453
        0
470

  0
SPLINE
  5
86
330
70
100
AcDbEntity
  8
Layer 1
100
AcDbSpline
210
0.0
220
0.0
230
1.0
 70
     9
 71
     3
 72
    47
 73
    43
 74
     0
 42
0.0000000001
 43
0.0000000001
 40
0.0
 40
0.0
 40
0.0
 40
0.0
 40
1.0
 40
1.0
 40
1.0
 40
2.0
 40
2.0
 40
2.0
 40
3.0
 40
3.0
 40
3.0
 40
4.0
 40
4.0
 40
4.0
 40
5.0
 40
5.0
 40
5.0
 40
6.0
 40
6.0
 40
6.0
 40
7.0
 40
7.0
 40
7.0
 40
8.0
 40
8.0
 40
8.0
 40
9.0
 40
9.0
 40
9.0
 40
10.0
 40
10.0
 40
10.0
 40
11.0
 40
11.0
 40
11.0
 40
12.0
 40
12.0
 40
12.0
 40
13.0
 40
13.0
 40
13.0
 40
14.0
 40
14.0
 40
14.0
 40
14.0
 10
79.14990234375
 20
-61.65234375
 30
0.0
 10
79.14990234375
 20
-61.8681640625
 30
0.0
 10
79.28173828125
 20
-62.0478515625
 30
0.0
 10
79.48583984375
 20
-62.0478515625
 30
0.0
 10
80.42138671874999
 20
-62.0478515625
 30
0.0
 10
81.24853515625
 20
-60.5966796875
 30
0.0
 10
81.24853515625
 20
-59.7333984375
 30
0.0
 10
81.24853515625
 20
-59.33740234375
 30
0.0
 10
81.02099609375001
 20
-59.025390625
 30
0.0
 10
80.55322265624999
 20
-59.025390625
 30
0.0
 10
80.08544921875
 20
-59.025390625
 30
0.0
 10
79.23388671875
 20
-59.5771484375
 30
0.0
 10
79.08984375
 20
-60.369140625
 30
0.0
 10
79.28173828125
 20
-60.05712890625
 30
0.0
 10
79.5458984375
 20
-59.8173828125
 30
0.0
 10
79.79736328125
 20
-59.6015625
 30
0.0
 10
79.9892578125
 20
-59.43359375
 30
0.0
 10
80.19335937500001
 20
-59.28955078125
 30
0.0
 10
80.34912109375
 20
-59.28955078125
 30
0.0
 10
80.4931640625
 20
-59.28955078125
 30
0.0
 10
80.73291015625001
 20
-59.62548828125
 30
0.0
 10
80.73291015625001
 20
-59.7451171875
 30
0.0
 10
80.73291015625001
 20
-59.8173828125
 30
0.0
 10
80.64892578125
 20
-59.865234375
 30
0.0
 10
80.5771484375
 20
-59.9013671875
 30
0.0
 10
80.13330078124999
 20
-60.1650390625
 30
0.0
 10
79.59375
 20
-60.5849609375
 30
0.0
 10
79.32958984375
 20
-61.1123046875
 30
0.0
 10
79.40185546875
 20
-61.20849609375
 30
0.0
 10
79.5458984375
 20
-61.31640625
 30
0.0
 10
79.689453125
 20
-61.400390625
 30
0.0
 10
79.74951171875
 20
-61.4365234375
 30
0.0
 10
79.78564453125
 20
-61.4482421875
 30
0.0
 10
79.78564453125
 20
-61.484375
 30
0.0
 10
79.78564453125
 20
-61.50830078125
 30
0.0
 10
79.76171875
 20
-61.54443359375
 30
0.0
 10
79.71337890625
 20
-61.54443359375
 30
0.0
 10
79.61767578125
 20
-61.54443359375
 30
0.0
 10
79.3779296875
 20
-61.38818359375
 30
0.0
 10
79.23388671875
 20
-61.232421875
 30
0.0
 10
79.19775390625
 20
-61.328125
 30
0.0
 10
79.14990234375
 20
-61.55615234375
 30
0.0
 10
79.14990234375
 20
-61.65234375
 30
0.0
  0
SPLINE
  5
87
330
70
100
AcDbEntity
  8
Layer 1
100
AcDbSpline
210
0.0
220
0.0
230
1.0
 70
     9
 71
     3
 72
    23
 73
    19
 74
     0
 42
0.0000000001
 43
0.0000000001
 40
0.0
 40
0.0
 40
0.0
 40
0.0
 40
1.0
 40
1.0
 40
1.0
 40
2.0
 40
2.0
 40
2.0
 40
3.0
 40
3.0
 40
3.0
 40
4.0
 40
4.0
 40
4.0
 40
5.0
 40
5.0
 40
5.0
 40
6.0
 40
6.0
 40
6.0
 40
6.0
 10
78.80224609375
 20
-61.3525390625
 30
0.0
 10
78.80224609375
 20
-61.1123046875
 30
0.0
 10
78.85009765625
 20
-60.896484375
 30
0.0
 10
78.93408203125
 20
-60.69287109375
 30
0.0
 10
78.93408203125
 20
-60.6689453125
 30
0.0
 10
78.921875
 20
-60.64453125
 30
0.0
 10
78.921875
 20
-60.60888671875
 30
0.0
 10
78.921875
 20
-59.58935546875
 30
0.0
 10
80.025390625
 20
-58.85791015625
 30
0.0
 10
80.6611328125
 20
-58.85791015625
 30
0.0
 10
81.1767578125
 20
-58.85791015625
 30
0.0
 10
81.5966796875
 20
-59.20556640625
 30
0.0
 10
81.5966796875
 20
-59.79296875
 30
0.0
 10
81.5966796875
 20
-60.65673828125
 30
0.0
 10
80.529296875
 20
-62.19189453125
 30
0.0
 10
79.60546875
 20
-62.19189453125
 30
0.0
 10
79.31787109375
 20
-62.19189453125
 30
0.0
 10
78.80224609375
 20
-61.904296875
 30
0.0
 10
78.80224609375
 20
-61.3525390625
 30
0.0
  0
HATCH
  5
88
330
70
100
AcDbEntity
  8
Layer 1
 62
   250
440
 33554687
100
AcDbHatch
 10
0.0
 20
0.0
 30
0.0
210
0.0
220
0.0
230
1.0
  2
SOLID
 70
     1
 71
     1
 91
        2
 92
        1
 93
        1
 72
     4
 94
        3
 73
     0
 74
     0
 95
       47
 96
       43
 40
0.0
 40
0.0
 40
0.0
 40
0.0
 40
1.0
 40
1.0
 40
1.0
 40
2.0
 40
2.0
 40
2.0
 40
3.0
 40
3.0
 40
3.0
 40
4.0
 40
4.0
 40
4.0
 40
5.0
 40
5.0
 40
5.0
 40
6.0
 40
6.0
 40
6.0
 40
7.0
 40
7.0
 40
7.0
 40
8.0
 40
8.0
 40
8.0
 40
9.0
 40
9.0
 40
9.0
 40
10.0
 40
10.0
 40
10.0
 40
11.0
 40
11.0
 40
11.0
 40
12.0
 40
12.0
 40
12.0
 40
13.0
 40
13.0
 40
13.0
 40
14.0
 40
14.0
 40
14.0
 40
14.0
 10
79.14990234375
 20
-61.65234375
 10
79.14990234375
 20
-61.8681640625
 10
79.28173828125
 20
-62.0478515625
 10
79.48583984375
 20
-62.0478515625
 10
80.42138671874999
 20
-62.0478515625
 10
81.24853515625
 20
-60.5966796875
 10
81.24853515625
 20
-59.7333984375
 10
81.24853515625
 20
-59.33740234375
 10
81.02099609375001
 20
-59.025390625
 10
80.55322265624999
 20
-59.025390625
 10
80.08544921875
 20
-59.025390625
 10
79.23388671875
 20
-59.5771484375
 10
79.08984375
 20
-60.369140625
 10
79.28173828125
 20
-60.05712890625
 10
79.5458984375
 20
-59.8173828125
 10
79.79736328125
 20
-59.6015625
 10
79.9892578125
 20
-59.43359375
 10
80.19335937500001
 20
-59.28955078125
 10
80.34912109375
 20
-59.28955078125
 10
80.4931640625
 20
-59.28955078125
 10
80.73291015625001
 20
-59.62548828125
 10
80.73291015625001
 20
-59.7451171875
 10
80.73291015625001
 20
-59.8173828125
 10
80.64892578125
 20
-59.865234375
 10
80.5771484375
 20
-59.9013671875
 10
80.13330078124999
 20
-60.1650390625
 10
79.59375
 20
-60.5849609375
 10
79.32958984375
 20
-61.1123046875
 10
79.40185546875
 20
-61.20849609375
 10
79.5458984375
 20
-61.31640625
 10
79.689453125
 20
-61.400390625
 10
79.74951171875
 20
-61.4365234375
 10
79.78564453125
 20
-61.4482421875
 10
79.78564453125
 20
-61.484375
 10
79.78564453125
 20
-61.50830078125
 10
79.76171875
 20
-61.54443359375
 10
79.71337890625
 20
-61.54443359375
 10
79.61767578125
 20
-61.54443359375
 10
79.3779296875
 20
-61.38818359375
 10
79.23388671875
 20
-61.232421875
 10
79.19775390625
 20
-61.328125
 10
79.14990234375
 20
-61.55615234375
 10
79.14990234375
 20
-61.65234375
 97
        0
 97
        1
330
86
 92
        1
 93
        1
 72
     4
 94
        3
 73
     0
 74
     0
 95
       23
 96
       19
 40
0.0
 40
0.0
 40
0.0
 40
0.0
 40
1.0
 40
1.0
 40
1.0
 40
2.0
 40
2.0
 40
2.0
 40
3.0
 40
3.0
 40
3.0
 40
4.0
 40
4.0
 40
4.0
 40
5.0
 40
5.0
 40
5.0
 40
6.0
 40
6.0
 40
6.0
 40
6.0
 10
78.80224609375
 20
-61.3525390625
 10
78.80224609375
 20
-61.1123046875
 10
78.85009765625
 20
-60.896484375
 10
78.93408203125
 20
-60.69287109375
 10
78.93408203125
 20
-60.6689453125
 10
78.921875
 20
-60.64453125
 10
78.921875
 20
-60.60888671875
 10
78.921875
 20
-59.58935546875
 10
80.025390625
 20
-58.85791015625
 10
80.6611328125
 20
-58.85791015625
 10
81.1767578125
 20
-58.85791015625
 10
81.5966796875
 20
-59.20556640625
 10
81.5966796875
 20
-59.79296875
 10
81.5966796875
 20
-60.65673828125
 10
80.529296875
 20
-62.19189453125
 10
79.60546875
 20
-62.19189453125
 10
79.31787109375
 20
-62.19189453125
 10
78.80224609375
 20
-61.904296875
 10
78.80224609375
 20
-61.3525390625
 97
        0
 97
        1
330
87
 75
     2
 76
     1
 98
        1
 10
0.0
 20
0.0
450
        0
451
        0
460
0.0
461
0.0
452
        0
462
0.0
453
        0
470

  0
SPLINE
  5
89
330
70
100
AcDbEntity
  8
Layer 1
100
AcDbSpline
210
0.0
220
0.0
230
1.0
 70
     9
 71
     3
 72
    20
 73
    16
 74
     0
 42
0.0000000001
 43
0.0000000001
 40
0.0
 40
0.0
 40
0.0
 40
0.0
 40
1.0
 40
1.0
 40
1.0
 40
2.0
 40
2.0
 40
2.0
 40
3.0
 40
3.0
 40
3.0
 40
4.0
 40
4.0
 40
4.0
 40
5.0
 40
5.0
 40
5.0
 40
5.0
 10
89.68310546875001
 20
-59.61328125
 30
0.0
 10
89.7431640625
 20
-59.46923828125
 30
0.0
 10
89.77880859375
 20
-59.33740234375
 30
0.0
 10
89.77880859375
 20
-59.2177734375
 30
0.0
 10
89.77880859375
 20
-59.0498046875
 30
0.0
 10
89.64697265625
 20
-58.91748046875
 30
0.0
 10
89.51513671875
 20
-58.91748046875
 30
0.0
 10
89.09521484375
 20
-58.91748046875
 30
0.0
 10
88.1357421875
 20
-59.45751953125
 30
0.0
 10
88.1357421875
 20
-59.9013671875
 30
0.0
 10
88.1357421875
 20
-59.97314453125
 30
0.0
 10
88.17187500000001
 20
-60.05712890625
 30
0.0
 10
88.2919921875
 20
-60.05712890625
 30
0.0
 10
88.51953124999999
 20
-60.05712890625
 30
0.0
 10
89.107421875
 20
-59.76904296875
 30
0.0
 10
89.68310546875001
 20
-59.61328125
 30
0.0
  0
SPLINE
  5
8A
330
70
100
AcDbEntity
  8
Layer 1
100
AcDbSpline
210
0.0
220
0.0
230
1.0
 70
     9
 71
     3
 72
    17
 73
    13
 74
     0
 42
0.0000000001
 43
0.0000000001
 40
0.0
 40
0.0
 40
0.0
 40
0.0
 40
1.0
 40
1.0
 40
1.0
 40
2.0
 40
2.0
 40
2.0
 40
3.0
 40
3.0
 40
3.0
 40
4.0
 40
4.0
 40
4.0
 40
4.0
 10
87.21240234375001
 20
-57.97021484375
 30
0.0
 10
87.35644531250001
 20
-58.0419921875
 30
0.0
 10
87.56005859374999
 20
-58.06640625
 30
0.0
 10
87.81201171875
 20
-58.06640625
 30
0.0
 10
88.32763671875
 20
-58.06640625
 30
0.0
 10
89.0234375
 20
-57.79052734375
 30
0.0
 10
89.0234375
 20
-57.53857421875
 30
0.0
 10
89.0234375
 20
-57.50244140625
 30
0.0
 10
88.9755859375
 20
-57.41845703125
 30
0.0
 10
88.85546875000001
 20
-57.41845703125
 30
0.0
 10
88.39990234374999
 20
-57.41845703125
 30
0.0
 10
87.7998046875
 20
-57.62255859375
 30
0.0
 10
87.21240234375001
 20
-57.97021484375
 30
0.0
  0
SPLINE
  5
8B
330
70
100
AcDbEntity
  8
Layer 1
100
AcDbSpline
210
0.0
220
0.0
230
1.0
 70
     9
 71
     3
 72
    98
 73
    94
 74
     0
 42
0.0000000001
 43
0.0000000001
 40
0.0
 40
0.0
 40
0.0
 40
0.0
 40
1.0
 40
1.0
 40
1.0
 40
2.0
 40
2.0
 40
2.0
 40
3.0
 40
3.0
 40
3.0
 40
4.0
 40
4.0
 40
4.0
 40
5.0
 40
5.0
 40
5.0
 40
6.0
 40
6.0
 40
6.0
 40
7.0
 40
7.0
 40
7.0
 40
8.0
 40
8.0
 40
8.0
 40
9.0
 40
9.0
 40
9.0
 40
10.0
 40
10.0
 40
10.0
 40
11.0
 40
11.0
 40
11.0
 40
12.0
 40
12.0
 40
12.0
 40
13.0
 40
13.0
 40
13.0
 40
14.0
 40
14.0
 40
14.0
 40
15.0
 40
15.0
 40
15.0
 40
16.0
 40
16.0
 40
16.0
 40
17.0
 40
17.0
 40
17.0
 40
18.0
 40
18.0
 40
18.0
 40
19.0
 40
19.0
 40
19.0
 40
20.0
 40
20.0
 40
20.0
 40
21.0
 40
21.0
 40
21.0
 40
22.0
 40
22.0
 40
22.0
 40
23.0
 40
23.0
 40
23.0
 40
24.0
 40
24.0
 40
24.0
 40
25.0
 40
25.0
 40
25.0
 40
26.0
 40
26.0
 40
26.0
 40
27.0
 40
27.0
 40
27.0
 40
28.0
 40
28.0
 40
28.0
 40
29.0
 40
29.0
 40
29.0
 40
30.0
 40
30.0
 40
30.0
 40
31.0
 40
31.0
 40
31.0
 40
31.0
 10
89.25146484375
 20
-56.291015625
 30
0.0
 10
89.7431640625
 20
-56.05126953125
 30
0.0
 10
90.2587890625
 20
-55.6435546875
 30
0.0
 10
90.2587890625
 20
-55.35546875
 30
0.0
 10
90.2587890625
 20
-55.2236328125
 30
0.0
 10
90.138671875
 20
-55.11572265625
 30
0.0
 10
89.95898437500001
 20
-55.11572265625
 30
0.0
 10
88.57958984375001
 20
-55.11572265625
 30
0.0
 10
86.82861328125
 20
-56.26708984375
 30
0.0
 10
86.82861328125
 20
-57.1904296875
 30
0.0
 10
86.82861328125
 20
-57.4306640625
 30
0.0
 10
86.86474609375
 20
-57.62255859375
 30
0.0
 10
86.94873046875001
 20
-57.75439453125
 30
0.0
 10
87.63232421875001
 20
-57.45458984375
 30
0.0
 10
88.31591796875001
 20
-57.2744140625
 30
0.0
 10
88.78369140625
 20
-57.2744140625
 30
0.0
 10
89.01123046875
 20
-57.2744140625
 30
0.0
 10
89.25146484375
 20
-57.5146484375
 30
0.0
 10
89.25146484375
 20
-57.71826171875
 30
0.0
 10
89.25146484375
 20
-57.97021484375
 30
0.0
 10
88.84326171875001
 20
-58.330078125
 30
0.0
 10
88.1357421875
 20
-58.330078125
 30
0.0
 10
87.7880859375
 20
-58.330078125
 30
0.0
 10
87.404296875
 20
-58.23388671875
 30
0.0
 10
87.06835937500001
 20
-58.06640625
 30
0.0
 10
86.07324218749999
 20
-58.70166015625
 30
0.0
 10
85.185546875
 20
-59.7333984375
 30
0.0
 10
85.185546875
 20
-60.83642578125
 30
0.0
 10
85.185546875
 20
-61.46044921875
 30
0.0
 10
85.60546875
 20
-61.84423828125
 30
0.0
 10
86.18115234375
 20
-61.84423828125
 30
0.0
 10
87.5361328125
 20
-61.84423828125
 30
0.0
 10
89.01123046875
 20
-60.77685546875
 30
0.0
 10
89.56298828125
 20
-59.865234375
 30
0.0
 10
89.09521484375
 20
-59.9853515625
 30
0.0
 10
88.6396484375
 20
-60.22509765625
 30
0.0
 10
88.48388671875
 20
-60.22509765625
 30
0.0
 10
88.25585937499999
 20
-60.22509765625
 30
0.0
 10
87.77587890625
 20
-59.9970703125
 30
0.0
 10
87.77587890625
 20
-59.68505859375
 30
0.0
 10
87.77587890625
 20
-59.193359375
 30
0.0
 10
88.771484375
 20
-58.70166015625
 30
0.0
 10
89.3232421875
 20
-58.70166015625
 30
0.0
 10
89.5751953125
 20
-58.70166015625
 30
0.0
 10
89.98291015625
 20
-58.9775390625
 30
0.0
 10
89.98291015625
 20
-59.28955078125
 30
0.0
 10
89.98291015625
 20
-59.37353515625
 30
0.0
 10
89.970703125
 20
-59.46923828125
 30
0.0
 10
89.94677734375001
 20
-59.55322265625
 30
0.0
 10
90.06689453125
 20
-59.529296875
 30
0.0
 10
90.1865234375
 20
-59.517578125
 30
0.0
 10
90.30664062499999
 20
-59.517578125
 30
0.0
 10
90.71435546874999
 20
-59.517578125
 30
0.0
 10
90.8701171875
 20
-59.6611328125
 30
0.0
 10
90.8701171875
 20
-59.75732421875
 30
0.0
 10
90.8701171875
 20
-59.85302734375
 30
0.0
 10
90.63037109375001
 20
-60.05712890625
 30
0.0
 10
90.58251953124999
 20
-60.05712890625
 30
0.0
 10
90.55859375
 20
-60.05712890625
 30
0.0
 10
90.55859375
 20
-60.02099609375
 30
0.0
 10
90.5224609375
 20
-59.9853515625
 30
0.0
 10
90.37841796875
 20
-59.84130859375
 30
0.0
 10
90.3427734375
 20
-59.80517578125
 30
0.0
 10
89.99462890625
 20
-59.80517578125
 30
0.0
 10
89.94677734375001
 20
-59.80517578125
 30
0.0
 10
89.91113281249999
 20
-59.80517578125
 30
0.0
 10
89.86279296875
 20
-59.8173828125
 30
0.0
 10
89.43115234375
 20
-60.83642578125
 30
0.0
 10
87.93212890625
 20
-62.1318359375
 30
0.0
 10
86.56494140625
 20
-62.1318359375
 30
0.0
 10
85.7373046875
 20
-62.1318359375
 30
0.0
 10
84.44189453125
 20
-61.42431640625
 30
0.0
 10
84.44189453125
 20
-60.39306640625
 30
0.0
 10
84.44189453125
 20
-59.349609375
 30
0.0
 10
85.55712890625001
 20
-58.4140625
 30
0.0
 10
86.73242187499999
 20
-57.85009765625
 30
0.0
 10
86.44482421875
 20
-57.62255859375
 30
0.0
 10
86.25292968750001
 20
-57.32275390625
 30
0.0
 10
86.25292968750001
 20
-56.974609375
 30
0.0
 10
86.25292968750001
 20
-55.8115234375
 30
0.0
 10
88.00390625
 20
-54.73193359375
 30
0.0
 10
89.62304687499999
 20
-54.73193359375
 30
0.0
 10
90.07861328125001
 20
-54.73193359375
 30
0.0
 10
90.41455078125
 20
-55.0556640625
 30
0.0
 10
90.41455078125
 20
-55.3916015625
 30
0.0
 10
90.41455078125
 20
-55.859375
 30
0.0
 10
89.5869140625
 20
-56.6630859375
 30
0.0
 10
89.43115234375
 20
-56.6630859375
 30
0.0
 10
89.34716796874999
 20
-56.6630859375
 30
0.0
 10
89.19140625
 20
-56.458984375
 30
0.0
 10
89.19140625
 20
-56.36328125
 30
0.0
 10
89.19140625
 20
-56.3388671875
 30
0.0
 10
89.20312499999999
 20
-56.31494140625
 30
0.0
 10
89.25146484375
 20
-56.291015625
 30
0.0
  0
HATCH
  5
8C
330
70
100
AcDbEntity
  8
Layer 1
 62
   250
440
 33554687
100
AcDbHatch
 10
0.0
 20
0.0
 30
0.0
210
0.0
220
0.0
230
1.0
  2
SOLID
 70
     1
 71
     1
 91
        3
 92
        1
 93
        1
 72
     4
 94
        3
 73
     0
 74
     0
 95
       20
 96
       16
 40
0.0
 40
0.0
 40
0.0
 40
0.0
 40
1.0
 40
1.0
 40
1.0
 40
2.0
 40
2.0
 40
2.0
 40
3.0
 40
3.0
 40
3.0
 40
4.0
 40
4.0
 40
4.0
 40
5.0
 40
5.0
 40
5.0
 40
5.0
 10
89.68310546875001
 20
-59.61328125
 10
89.7431640625
 20
-59.46923828125
 10
89.77880859375
 20
-59.33740234375
 10
89.77880859375
 20
-59.2177734375
 10
89.77880859375
 20
-59.0498046875
 10
89.64697265625
 20
-58.91748046875
 10
89.51513671875
 20
-58.91748046875
 10
89.09521484375
 20
-58.91748046875
 10
88.1357421875
 20
-59.45751953125
 10
88.1357421875
 20
-59.9013671875
 10
88.1357421875
 20
-59.97314453125
 10
88.17187500000001
 20
-60.05712890625
 10
88.2919921875
 20
-60.05712890625
 10
88.51953124999999
 20
-60.05712890625
 10
89.107421875
 20
-59.76904296875
 10
89.68310546875001
 20
-59.61328125
 97
        0
 97
        1
330
89
 92
        1
 93
        1
 72
     4
 94
        3
 73
     0
 74
     0
 95
       17
 96
       13
 40
0.0
 40
0.0
 40
0.0
 40
0.0
 40
1.0
 40
1.0
 40
1.0
 40
2.0
 40
2.0
 40
2.0
 40
3.0
 40
3.0
 40
3.0
 40
4.0
 40
4.0
 40
4.0
 40
4.0
 10
87.21240234375001
 20
-57.97021484375
 10
87.35644531250001
 20
-58.0419921875
 10
87.56005859374999
 20
-58.06640625
 10
87.81201171875
 20
-58.06640625
 10
88.32763671875
 20
-58.06640625
 10
89.0234375
 20
-57.79052734375
 10
89.0234375
 20
-57.53857421875
 10
89.0234375
 20
-57.50244140625
 10
88.9755859375
 20
-57.41845703125
 10
88.85546875000001
 20
-57.41845703125
 10
88.39990234374999
 20
-57.41845703125
 10
87.7998046875
 20
-57.62255859375
 10
87.21240234375001
 20
-57.97021484375
 97
        0
 97
        1
330
8A
 92
        1
 93
        1
 72
     4
 94
        3
 73
     0
 74
     0
 95
       98
 96
       94
 40
0.0
 40
0.0
 40
0.0
 40
0.0
 40
1.0
 40
1.0
 40
1.0
 40
2.0
 40
2.0
 40
2.0
 40
3.0
 40
3.0
 40
3.0
 40
4.0
 40
4.0
 40
4.0
 40
5.0
 40
5.0
 40
5.0
 40
6.0
 40
6.0
 40
6.0
 40
7.0
 40
7.0
 40
7.0
 40
8.0
 40
8.0
 40
8.0
 40
9.0
 40
9.0
 40
9.0
 40
10.0
 40
10.0
 40
10.0
 40
11.0
 40
11.0
 40
11.0
 40
12.0
 40
12.0
 40
12.0
 40
13.0
 40
13.0
 40
13.0
 40
14.0
 40
14.0
 40
14.0
 40
15.0
 40
15.0
 40
15.0
 40
16.0
 40
16.0
 40
16.0
 40
17.0
 40
17.0
 40
17.0
 40
18.0
 40
18.0
 40
18.0
 40
19.0
 40
19.0
 40
19.0
 40
20.0
 40
20.0
 40
20.0
 40
21.0
 40
21.0
 40
21.0
 40
22.0
 40
22.0
 40
22.0
 40
23.0
 40
23.0
 40
23.0
 40
24.0
 40
24.0
 40
24.0
 40
25.0
 40
25.0
 40
25.0
 40
26.0
 40
26.0
 40
26.0
 40
27.0
 40
27.0
 40
27.0
 40
28.0
 40
28.0
 40
28.0
 40
29.0
 40
29.0
 40
29.0
 40
30.0
 40
30.0
 40
30.0
 40
31.0
 40
31.0
 40
31.0
 40
31.0
 10
89.25146484375
 20
-56.291015625
 10
89.7431640625
 20
-56.05126953125
 10
90.2587890625
 20
-55.6435546875
 10
90.2587890625
 20
-55.35546875
 10
90.2587890625
 20
-55.2236328125
 10
90.138671875
 20
-55.11572265625
 10
89.95898437500001
 20
-55.11572265625
 10
88.57958984375001
 20
-55.11572265625
 10
86.82861328125
 20
-56.26708984375
 10
86.82861328125
 20
-57.1904296875
 10
86.82861328125
 20
-57.4306640625
 10
86.86474609375
 20
-57.62255859375
 10
86.94873046875001
 20
-57.75439453125
 10
87.63232421875001
 20
-57.45458984375
 10
88.31591796875001
 20
-57.2744140625
 10
88.78369140625
 20
-57.2744140625
 10
89.01123046875
 20
-57.2744140625
 10
89.25146484375
 20
-57.5146484375
 10
89.25146484375
 20
-57.71826171875
 10
89.25146484375
 20
-57.97021484375
 10
88.84326171875001
 20
-58.330078125
 10
88.1357421875
 20
-58.330078125
 10
87.7880859375
 20
-58.330078125
 10
87.404296875
 20
-58.23388671875
 10
87.06835937500001
 20
-58.06640625
 10
86.07324218749999
 20
-58.70166015625
 10
85.185546875
 20
-59.7333984375
 10
85.185546875
 20
-60.83642578125
 10
85.185546875
 20
-61.46044921875
 10
85.60546875
 20
-61.84423828125
 10
86.18115234375
 20
-61.84423828125
 10
87.5361328125
 20
-61.84423828125
 10
89.01123046875
 20
-60.77685546875
 10
89.56298828125
 20
-59.865234375
 10
89.09521484375
 20
-59.9853515625
 10
88.6396484375
 20
-60.22509765625
 10
88.48388671875
 20
-60.22509765625
 10
88.25585937499999
 20
-60.22509765625
 10
87.77587890625
 20
-59.9970703125
 10
87.77587890625
 20
-59.68505859375
 10
87.77587890625
 20
-59.193359375
 10
88.771484375
 20
-58.70166015625
 10
89.3232421875
 20
-58.70166015625
 10
89.5751953125
 20
-58.70166015625
 10
89.98291015625
 20
-58.9775390625
 10
89.98291015625
 20
-59.28955078125
 10
89.98291015625
 20
-59.37353515625
 10
89.970703125
 20
-59.46923828125
 10
89.94677734375001
 20
-59.55322265625
 10
90.06689453125
 20
-59.529296875
 10
90.1865234375
 20
-59.517578125
 10
90.30664062499999
 20
-59.517578125
 10
90.71435546874999
 20
-59.517578125
 10
90.8701171875
 20
-59.6611328125
 10
90.8701171875
 20
-59.75732421875
 10
90.8701171875
 20
-59.85302734375
 10
90.63037109375001
 20
-60.05712890625
 10
90.58251953124999
 20
-60.05712890625
 10
90.55859375
 20
-60.05712890625
 10
90.55859375
 20
-60.02099609375
 10
90.5224609375
 20
-59.9853515625
 10
90.37841796875
 20
-59.84130859375
 10
90.3427734375
 20
-59.80517578125
 10
89.99462890625
 20
-59.80517578125
 10
89.94677734375001
 20
-59.80517578125
 10
89.91113281249999
 20
-59.80517578125
 10
89.86279296875
 20
-59.8173828125
 10
89.43115234375
 20
-60.83642578125
 10
87.93212890625
 20
-62.1318359375
 10
86.56494140625
 20
-62.1318359375
 10
85.7373046875
 20
-62.1318359375
 10
84.44189453125
 20
-61.42431640625
 10
84.44189453125
 20
-60.39306640625
 10
84.44189453125
 20
-59.349609375
 10
85.55712890625001
 20
-58.4140625
 10
86.73242187499999
 20
-57.85009765625
 10
86.44482421875
 20
-57.62255859375
 10
86.25292968750001
 20
-57.32275390625
 10
86.25292968750001
 20
-56.974609375
 10
86.25292968750001
 20
-55.8115234375
 10
88.00390625
 20
-54.73193359375
 10
89.62304687499999
 20
-54.73193359375
 10
90.07861328125001
 20
-54.73193359375
 10
90.41455078125
 20
-55.0556640625
 10
90.41455078125
 20
-55.3916015625
 10
90.41455078125
 20
-55.859375
 10
89.5869140625
 20
-56.6630859375
 10
89.43115234375
 20
-56.6630859375
 10
89.34716796874999
 20
-56.6630859375
 10
89.19140625
 20
-56.458984375
 10
89.19140625
 20
-56.36328125
 10
89.19140625
 20
-56.3388671875
 10
89.20312499999999
 20
-56.31494140625
 10
89.25146484375
 20
-56.291015625
 97
        0
 97
        1
330
8B
 75
     2
 76
     1
 98
        1
 10
0.0
 20
0.0
450
        0
451
        0
460
0.0
461
0.0
452
        0
462
0.0
453
        0
470

  0
SPLINE
  5
8D
330
70
100
AcDbEntity
  8
Layer 1
100
AcDbSpline
210
0.0
220
0.0
230
1.0
 70
     9
 71
     3
 72
    14
 73
    10
 74
     0
 42
0.0000000001
 43
0.0000000001
 40
0.0
 40
0.0
 40
0.0
 40
0.0
 40
1.0
 40
1.0
 40
1.0
 40
2.0
 40
2.0
 40
2.0
 40
3.0
 40
3.0
 40
3.0
 40
3.0
 10
97.77148437500001
 20
-59.88916015625
 30
0.0
 10
98.88671875
 20
-59.517578125
 30
0.0
 10
100.01416015625
 20
-59.3134765625
 30
0.0
 10
100.86572265625
 20
-59.30126953125
 30
0.0
 10
101.525390625
 20
-57.62255859375
 30
0.0
 10
102.16064453125
 20
-56.0751953125
 30
0.0
 10
102.96435546875
 20
-55.271484375
 30
0.0
 10
101.2373046875
 20
-56.4111328125
 30
0.0
 10
98.02294921875001
 20
-57.9462890625
 30
0.0
 10
97.77148437500001
 20
-59.88916015625
 30
0.0
  0
SPLINE
  5
8E
330
70
100
AcDbEntity
  8
Layer 1
100
AcDbSpline
210
0.0
220
0.0
230
1.0
 70
     9
 71
     3
 72
    26
 73
    22
 74
     0
 42
0.0000000001
 43
0.0000000001
 40
0.0
 40
0.0
 40
0.0
 40
0.0
 40
1.0
 40
1.0
 40
1.0
 40
2.0
 40
2.0
 40
2.0
 40
3.0
 40
3.0
 40
3.0
 40
4.0
 40
4.0
 40
4.0
 40
5.0
 40
5.0
 40
5.0
 40
6.0
 40
6.0
 40
6.0
 40
7.0
 40
7.0
 40
7.0
 40
7.0
 10
100.79345703125
 20
-59.4814453125
 30
0.0
 10
99.94189453125001
 20
-59.4814453125
 30
0.0
 10
98.85058593750001
 20
-59.70947265625
 30
0.0
 10
97.75927734375001
 20
-60.12890625
 30
0.0
 10
97.75927734375001
 20
-60.78857421875
 30
0.0
 10
98.287109375
 20
-61.08837890625
 30
0.0
 10
98.287109375
 20
-61.1845703125
 30
0.0
 10
98.287109375
 20
-61.2802734375
 30
0.0
 10
97.9990234375
 20
-61.5205078125
 30
0.0
 10
97.9150390625
 20
-61.5205078125
 30
0.0
 10
97.7353515625
 20
-61.5205078125
 30
0.0
 10
97.2314453125
 20
-61.064453125
 30
0.0
 10
97.2314453125
 20
-60.3330078125
 30
0.0
 10
95.43261718750001
 20
-61.13671875
 30
0.0
 10
93.77734375000001
 20
-62.4677734375
 30
0.0
 10
93.77734375000001
 20
-64.2666015625
 30
0.0
 10
93.77734375000001
 20
-65.333984375
 30
0.0
 10
94.72509765625
 20
-66.02978515625
 30
0.0
 10
95.57666015625001
 20
-66.02978515625
 30
0.0
 10
98.27490234375
 20
-66.02978515625
 30
0.0
 10
99.59423828125
 20
-62.57568359375
 30
0.0
 10
100.79345703125
 20
-59.4814453125
 30
0.0
  0
SPLINE
  5
8F
330
70
100
AcDbEntity
  8
Layer 1
100
AcDbSpline
210
0.0
220
0.0
230
1.0
 70
     9
 71
     3
 72
    38
 73
    34
 74
     0
 42
0.0000000001
 43
0.0000000001
 40
0.0
 40
0.0
 40
0.0
 40
0.0
 40
1.0
 40
1.0
 40
1.0
 40
2.0
 40
2.0
 40
2.0
 40
3.0
 40
3.0
 40
3.0
 40
4.0
 40
4.0
 40
4.0
 40
5.0
 40
5.0
 40
5.0
 40
6.0
 40
6.0
 40
6.0
 40
7.0
 40
7.0
 40
7.0
 40
8.0
 40
8.0
 40
8.0
 40
9.0
 40
9.0
 40
9.0
 40
10.0
 40
10.0
 40
10.0
 40
11.0
 40
11.0
 40
11.0
 40
11.0
 10
101.525390625
 20
-59.54150390625
 30
0.0
 10
100.505859375
 20
-62.74365234375
 30
0.0
 10
99.29443359375
 20
-66.32958984375
 30
0.0
 10
96.0322265625
 20
-66.32958984375
 30
0.0
 10
94.59277343750001
 20
-66.32958984375
 30
0.0
 10
93.45361328124999
 20
-65.23828125
 30
0.0
 10
93.45361328124999
 20
-63.8232421875
 30
0.0
 10
93.45361328124999
 20
-62.10791015625
 30
0.0
 10
95.2646484375
 20
-60.82470703125
 30
0.0
 10
97.24365234375
 20
-60.06884765625
 30
0.0
 10
97.53125
 20
-57.9462890625
 30
0.0
 10
101.2373046875
 20
-56.2431640625
 30
0.0
 10
103.15625
 20
-54.94775390625
 30
0.0
 10
103.15625
 20
-54.94775390625
 30
0.0
 10
103.9599609375
 20
-54.2041015625
 30
0.0
 10
104.0556640625
 20
-54.2041015625
 30
0.0
 10
104.1396484375
 20
-54.2041015625
 30
0.0
 10
104.2236328125
 20
-54.31201171875
 30
0.0
 10
104.2236328125
 20
-54.43212890625
 30
0.0
 10
104.2236328125
 20
-54.56396484375
 30
0.0
 10
103.9599609375
 20
-54.51611328125
 30
0.0
 10
103.30029296875
 20
-55.31982421875
 30
0.0
 10
102.5927734375
 20
-56.17138671875
 30
0.0
 10
102.11279296875
 20
-57.6826171875
 30
0.0
 10
101.59716796875
 20
-59.32568359375
 30
0.0
 10
102.16064453125
 20
-59.361328125
 30
0.0
 10
102.44873046875
 20
-59.4453125
 30
0.0
 10
102.44873046875
 20
-59.517578125
 30
0.0
 10
102.44873046875
 20
-59.55322265625
 30
0.0
 10
102.2685546875
 20
-59.75732421875
 30
0.0
 10
102.220703125
 20
-59.75732421875
 30
0.0
 10
102.16064453125
 20
-59.75732421875
 30
0.0
 10
102.02880859375
 20
-59.63720703125
 30
0.0
 10
101.525390625
 20
-59.54150390625
 30
0.0
  0
HATCH
  5
90
330
70
100
AcDbEntity
  8
Layer 1
 62
   250
440
 33554687
100
AcDbHatch
 10
0.0
 20
0.0
 30
0.0
210
0.0
220
0.0
230
1.0
  2
SOLID
 70
     1
 71
     1
 91
        3
 92
        1
 93
        1
 72
     4
 94
        3
 73
     0
 74
     0
 95
       14
 96
       10
 40
0.0
 40
0.0
 40
0.0
 40
0.0
 40
1.0
 40
1.0
 40
1.0
 40
2.0
 40
2.0
 40
2.0
 40
3.0
 40
3.0
 40
3.0
 40
3.0
 10
97.77148437500001
 20
-59.88916015625
 10
98.88671875
 20
-59.517578125
 10
100.01416015625
 20
-59.3134765625
 10
100.86572265625
 20
-59.30126953125
 10
101.525390625
 20
-57.62255859375
 10
102.16064453125
 20
-56.0751953125
 10
102.96435546875
 20
-55.271484375
 10
101.2373046875
 20
-56.4111328125
 10
98.02294921875001
 20
-57.9462890625
 10
97.77148437500001
 20
-59.88916015625
 97
        0
 97
        1
330
8D
 92
        1
 93
        1
 72
     4
 94
        3
 73
     0
 74
     0
 95
       26
 96
       22
 40
0.0
 40
0.0
 40
0.0
 40
0.0
 40
1.0
 40
1.0
 40
1.0
 40
2.0
 40
2.0
 40
2.0
 40
3.0
 40
3.0
 40
3.0
 40
4.0
 40
4.0
 40
4.0
 40
5.0
 40
5.0
 40
5.0
 40
6.0
 40
6.0
 40
6.0
 40
7.0
 40
7.0
 40
7.0
 40
7.0
 10
100.79345703125
 20
-59.4814453125
 10
99.94189453125001
 20
-59.4814453125
 10
98.85058593750001
 20
-59.70947265625
 10
97.75927734375001
 20
-60.12890625
 10
97.75927734375001
 20
-60.78857421875
 10
98.287109375
 20
-61.08837890625
 10
98.287109375
 20
-61.1845703125
 10
98.287109375
 20
-61.2802734375
 10
97.9990234375
 20
-61.5205078125
 10
97.9150390625
 20
-61.5205078125
 10
97.7353515625
 20
-61.5205078125
 10
97.2314453125
 20
-61.064453125
 10
97.2314453125
 20
-60.3330078125
 10
95.43261718750001
 20
-61.13671875
 10
93.77734375000001
 20
-62.4677734375
 10
93.77734375000001
 20
-64.2666015625
 10
93.77734375000001
 20
-65.333984375
 10
94.72509765625
 20
-66.02978515625
 10
95.57666015625001
 20
-66.02978515625
 10
98.27490234375
 20
-66.02978515625
 10
99.59423828125
 20
-62.57568359375
 10
100.79345703125
 20
-59.4814453125
 97
        0
 97
        1
330
8E
 92
        1
 93
        1
 72
     4
 94
        3
 73
     0
 74
     0
 95
       38
 96
       34
 40
0.0
 40
0.0
 40
0.0
 40
0.0
 40
1.0
 40
1.0
 40
1.0
 40
2.0
 40
2.0
 40
2.0
 40
3.0
 40
3.0
 40
3.0
 40
4.0
 40
4.0
 40
4.0
 40
5.0
 40
5.0
 40
5.0
 40
6.0
 40
6.0
 40
6.0
 40
7.0
 40
7.0
 40
7.0
 40
8.0
 40
8.0
 40
8.0
 40
9.0
 40
9.0
 40
9.0
 40
10.0
 40
10.0
 40
10.0
 40
11.0
 40
11.0
 40
11.0
 40
11.0
 10
101.525390625
 20
-59.54150390625
 10
100.505859375
 20
-62.74365234375
 10
99.29443359375
 20
-66.32958984375
 10
96.0322265625
 20
-66.32958984375
 10
94.59277343750001
 20
-66.32958984375
 10
93.45361328124999
 20
-65.23828125
 10
93.45361328124999
 20
-63.8232421875
 10
93.45361328124999
 20
-62.10791015625
 10
95.2646484375
 20
-60.82470703125
 10
97.24365234375
 20
-60.06884765625
 10
97.53125
 20
-57.9462890625
 10
101.2373046875
 20
-56.2431640625
 10
103.15625
 20
-54.94775390625
 10
103.15625
 20
-54.94775390625
 10
103.9599609375
 20
-54.2041015625
 10
104.0556640625
 20
-54.2041015625
 10
104.1396484375
 20
-54.2041015625
 10
104.2236328125
 20
-54.31201171875
 10
104.2236328125
 20
-54.43212890625
 10
104.2236328125
 20
-54.56396484375
 10
103.9599609375
 20
-54.51611328125
 10
103.30029296875
 20
-55.31982421875
 10
102.5927734375
 20
-56.17138671875
 10
102.11279296875
 20
-57.6826171875
 10
101.59716796875
 20
-59.32568359375
 10
102.16064453125
 20
-59.361328125
 10
102.44873046875
 20
-59.4453125
 10
102.44873046875
 20
-59.517578125
 10
102.44873046875
 20
-59.55322265625
 10
102.2685546875
 20
-59.75732421875
 10
102.220703125
 20
-59.75732421875
 10
102.16064453125
 20
-59.75732421875
 10
102.02880859375
 20
-59.63720703125
 10
101.525390625
 20
-59.54150390625
 97
        0
 97
        1
330
8F
 75
     2
 76
     1
 98
        1
 10
0.0
 20
0.0
450
        0
451
        0
460
0.0
461
0.0
452
        0
462
0.0
453
        0
470

  0
SPLINE
  5
91
330
70
100
AcDbEntity
  8
Layer 1
100
AcDbSpline
210
0.0
220
0.0
230
1.0
 70
    11
 71
     3
 72
    62
 73
    58
 74
     0
 42
0.0000000001
 43
0.0000000001
 40
0.0
 40
0.0
 40
0.0
 40
0.0
 40
1.0
 40
1.0
 40
1.0
 40
2.0
 40
2.0
 40
2.0
 40
3.0
 40
3.0
 40
3.0
 40
4.0
 40
4.0
 40
4.0
 40
5.0
 40
5.0
 40
5.0
 40
6.0
 40
6.0
 40
6.0
 40
7.0
 40
7.0
 40
7.0
 40
8.0
 40
8.0
 40
8.0
 40
9.0
 40
9.0
 40
9.0
 40
10.0
 40
10.0
 40
10.0
 40
11.0
 40
11.0
 40
11.0
 40
12.0
 40
12.0
 40
12.0
 40
13.0
 40
13.0
 40
13.0
 40
14.0
 40
14.0
 40
14.0
 40
15.0
 40
15.0
 40
15.0
 40
16.0
 40
16.0
 40
16.0
 40
17.0
 40
17.0
 40
17.0
 40
18.0
 40
18.0
 40
18.0
 40
19.0
 40
19.0
 40
19.0
 40
19.0
 10
103.64111328125
 20
-59.7451171875
 30
0.0
 10
103.64111328125
 20
-60.06884765625
 30
0.0
 10
102.3818359375
 20
-61.4365234375
 30
0.0
 10
102.3818359375
 20
-62.01220703125
 30
0.0
 10
102.3818359375
 20
-62.07177734375
 30
0.0
 10
102.4296875
 20
-62.1318359375
 30
0.0
 10
102.48974609375
 20
-62.1318359375
 30
0.0
 10
102.93359375
 20
-62.1318359375
 30
0.0
 10
104.62451171875
 20
-59.94921875
 30
0.0
 10
105.0322265625
 20
-59.94921875
 30
0.0
 10
105.2001953125
 20
-59.94921875
 30
0.0
 10
105.416015625
 20
-60.2607421875
 30
0.0
 10
105.416015625
 20
-60.45263671875
 30
0.0
 10
105.416015625
 20
-60.65673828125
 30
0.0
 10
105.00830078125
 20
-61.1962890625
 30
0.0
 10
105.00830078125
 20
-61.50830078125
 30
0.0
 10
105.00830078125
 20
-61.59228515625
 30
0.0
 10
105.05615234375
 20
-61.64013671875
 30
0.0
 10
105.1640625
 20
-61.64013671875
 30
0.0
 10
105.72802734375
 20
-61.64013671875
 30
0.0
 10
106.8193359375
 20
-60.60888671875
 30
0.0
 10
106.8193359375
 20
-60.60888671875
 30
0.0
 10
106.8193359375
 20
-60.60888671875
 30
0.0
 10
106.8671875
 20
-60.560546875
 30
0.0
 10
106.9033203125
 20
-60.560546875
 30
0.0
 10
106.92724609375
 20
-60.560546875
 30
0.0
 10
106.951171875
 20
-60.5966796875
 30
0.0
 10
106.951171875
 20
-60.60888671875
 30
0.0
 10
106.951171875
 20
-60.6328125
 30
0.0
 10
106.85546875
 20
-60.716796875
 30
0.0
 10
106.8193359375
 20
-60.7529296875
 30
0.0
 10
106.8193359375
 20
-60.7529296875
 30
0.0
 10
105.68017578125
 20
-61.85595703125
 30
0.0
 10
104.96044921875
 20
-61.85595703125
 30
0.0
 10
104.6962890625
 20
-61.85595703125
 30
0.0
 10
104.396484375
 20
-61.7001953125
 30
0.0
 10
104.396484375
 20
-61.29248046875
 30
0.0
 10
104.396484375
 20
-60.99267578125
 30
0.0
 10
104.5166015625
 20
-60.78857421875
 30
0.0
 10
104.5166015625
 20
-60.62060546875
 30
0.0
 10
104.5166015625
 20
-60.60888671875
 30
0.0
 10
104.50439453125
 20
-60.5849609375
 30
0.0
 10
104.46875
 20
-60.5849609375
 30
0.0
 10
104.27685546875
 20
-60.5849609375
 30
0.0
 10
102.861328125
 20
-62.37158203125
 30
0.0
 10
102.4658203125
 20
-62.37158203125
 30
0.0
 10
102.22607421875
 20
-62.37158203125
 30
0.0
 10
101.7939453125
 20
-62.10791015625
 30
0.0
 10
101.7939453125
 20
-61.6640625
 30
0.0
 10
101.7939453125
 20
-60.8486328125
 30
0.0
 10
103.0654296875
 20
-59.63720703125
 30
0.0
 10
103.0654296875
 20
-59.15771484375
 30
0.0
 10
103.0654296875
 20
-59.09765625
 30
0.0
 10
103.08935546875
 20
-59.07373046875
 30
0.0
 10
103.1611328125
 20
-59.07373046875
 30
0.0
 10
103.34130859375
 20
-59.07373046875
 30
0.0
 10
103.64111328125
 20
-59.42138671875
 30
0.0
 10
103.64111328125
 20
-59.7451171875
 30
0.0
  0
HATCH
  5
92
330
70
100
AcDbEntity
  8
Layer 1
 62
   250
440
 33554687
100
AcDbHatch
 10
0.0
 20
0.0
 30
0.0
210
0.0
220
0.0
230
1.0
  2
SOLID
 70
     1
 71
     1
 91
        1
 92
        1
 93
        1
 72
     4
 94
        3
 73
     0
 74
     0
 95
       62
 96
       58
 40
0.0
 40
0.0
 40
0.0
 40
0.0
 40
1.0
 40
1.0
 40
1.0
 40
2.0
 40
2.0
 40
2.0
 40
3.0
 40
3.0
 40
3.0
 40
4.0
 40
4.0
 40
4.0
 40
5.0
 40
5.0
 40
5.0
 40
6.0
 40
6.0
 40
6.0
 40
7.0
 40
7.0
 40
7.0
 40
8.0
 40
8.0
 40
8.0
 40
9.0
 40
9.0
 40
9.0
 40
10.0
 40
10.0
 40
10.0
 40
11.0
 40
11.0
 40
11.0
 40
12.0
 40
12.0
 40
12.0
 40
13.0
 40
13.0
 40
13.0
 40
14.0
 40
14.0
 40
14.0
 40
15.0
 40
15.0
 40
15.0
 40
16.0
 40
16.0
 40
16.0
 40
17.0
 40
17.0
 40
17.0
 40
18.0
 40
18.0
 40
18.0
 40
19.0
 40
19.0
 40
19.0
 40
19.0
 10
103.64111328125
 20
-59.7451171875
 10
103.64111328125
 20
-60.06884765625
 10
102.3818359375
 20
-61.4365234375
 10
102.3818359375
 20
-62.01220703125
 10
102.3818359375
 20
-62.07177734375
 10
102.4296875
 20
-62.1318359375
 10
102.48974609375
 20
-62.1318359375
 10
102.93359375
 20
-62.1318359375
 10
104.62451171875
 20
-59.94921875
 10
105.0322265625
 20
-59.94921875
 10
105.2001953125
 20
-59.94921875
 10
105.416015625
 20
-60.2607421875
 10
105.416015625
 20
-60.45263671875
 10
105.416015625
 20
-60.65673828125
 10
105.00830078125
 20
-61.1962890625
 10
105.00830078125
 20
-61.50830078125
 10
105.00830078125
 20
-61.59228515625
 10
105.05615234375
 20
-61.64013671875
 10
105.1640625
 20
-61.64013671875
 10
105.72802734375
 20
-61.64013671875
 10
106.8193359375
 20
-60.60888671875
 10
106.8193359375
 20
-60.60888671875
 10
106.8193359375
 20
-60.60888671875
 10
106.8671875
 20
-60.560546875
 10
106.9033203125
 20
-60.560546875
 10
106.92724609375
 20
-60.560546875
 10
106.951171875
 20
-60.5966796875
 10
106.951171875
 20
-60.60888671875
 10
106.951171875
 20
-60.6328125
 10
106.85546875
 20
-60.716796875
 10
106.8193359375
 20
-60.7529296875
 10
106.8193359375
 20
-60.7529296875
 10
105.68017578125
 20
-61.85595703125
 10
104.96044921875
 20
-61.85595703125
 10
104.6962890625
 20
-61.85595703125
 10
104.396484375
 20
-61.7001953125
 10
104.396484375
 20
-61.29248046875
 10
104.396484375
 20
-60.99267578125
 10
104.5166015625
 20
-60.78857421875
 10
104.5166015625
 20
-60.62060546875
 10
104.5166015625
 20
-60.60888671875
 10
104.50439453125
 20
-60.5849609375
 10
104.46875
 20
-60.5849609375
 10
104.27685546875
 20
-60.5849609375
 10
102.861328125
 20
-62.37158203125
 10
102.4658203125
 20
-62.37158203125
 10
102.22607421875
 20
-62.37158203125
 10
101.7939453125
 20
-62.10791015625
 10
101.7939453125
 20
-61.6640625
 10
101.7939453125
 20
-60.8486328125
 10
103.0654296875
 20
-59.63720703125
 10
103.0654296875
 20
-59.15771484375
 10
103.0654296875
 20
-59.09765625
 10
103.08935546875
 20
-59.07373046875
 10
103.1611328125
 20
-59.07373046875
 10
103.34130859375
 20
-59.07373046875
 10
103.64111328125
 20
-59.42138671875
 10
103.64111328125
 20
-59.7451171875
 97
        0
 97
        1
330
91
 75
     2
 76
     1
 98
        1
 10
0.0
 20
0.0
450
        0
451
        0
460
0.0
461
0.0
452
        0
462
0.0
453
        0
470

  0
SPLINE
  5
93
330
70
100
AcDbEntity
  8
Layer 1
100
AcDbSpline
210
0.0
220
0.0
230
1.0
 70
     9
 71
     3
 72
    14
 73
    10
 74
     0
 42
0.0000000001
 43
0.0000000001
 40
0.0
 40
0.0
 40
0.0
 40
0.0
 40
1.0
 40
1.0
 40
1.0
 40
2.0
 40
2.0
 40
2.0
 40
3.0
 40
3.0
 40
3.0
 40
3.0
 10
110.35986328125
 20
-56.38720703125
 30
0.0
 10
110.35986328125
 20
-56.279296875
 30
0.0
 10
110.2880859375
 20
-56.23095703125
 30
0.0
 10
110.2041015625
 20
-56.23095703125
 30
0.0
 10
109.5322265625
 20
-56.23095703125
 30
0.0
 10
107.88916015625
 20
-59.013671875
 30
0.0
 10
107.5771484375
 20
-60.18896484375
 30
0.0
 10
108.5126953125
 20
-59.265625
 30
0.0
 10
110.35986328125
 20
-57.11865234375
 30
0.0
 10
110.35986328125
 20
-56.38720703125
 30
0.0
  0
SPLINE
  5
94
330
70
100
AcDbEntity
  8
Layer 1
100
AcDbSpline
210
0.0
220
0.0
230
1.0
 70
     9
 71
     3
 72
    38
 73
    34
 74
     0
 42
0.0000000001
 43
0.0000000001
 40
0.0
 40
0.0
 40
0.0
 40
0.0
 40
1.0
 40
1.0
 40
1.0
 40
2.0
 40
2.0
 40
2.0
 40
3.0
 40
3.0
 40
3.0
 40
4.0
 40
4.0
 40
4.0
 40
5.0
 40
5.0
 40
5.0
 40
6.0
 40
6.0
 40
6.0
 40
7.0
 40
7.0
 40
7.0
 40
8.0
 40
8.0
 40
8.0
 40
9.0
 40
9.0
 40
9.0
 40
10.0
 40
10.0
 40
10.0
 40
11.0
 40
11.0
 40
11.0
 40
11.0
 10
109.5205078125
 20
-60.60888671875
 30
0.0
 10
109.54443359375
 20
-60.5849609375
 30
0.0
 10
109.568359375
 20
-60.560546875
 30
0.0
 10
109.59228515625
 20
-60.560546875
 30
0.0
 10
109.62841796875
 20
-60.560546875
 30
0.0
 10
109.64013671875
 20
-60.5966796875
 30
0.0
 10
109.64013671875
 20
-60.60888671875
 30
0.0
 10
109.64013671875
 20
-60.6328125
 30
0.0
 10
109.55615234375
 20
-60.716796875
 30
0.0
 10
109.5205078125
 20
-60.7529296875
 30
0.0
 10
109.5205078125
 20
-60.7529296875
 30
0.0
 10
107.9609375
 20
-62.22802734375
 30
0.0
 10
107.3017578125
 20
-62.22802734375
 30
0.0
 10
106.9775390625
 20
-62.22802734375
 30
0.0
 10
106.70166015625
 20
-61.98779296875
 30
0.0
 10
106.70166015625
 20
-61.49609375
 30
0.0
 10
106.70166015625
 20
-59.2177734375
 30
0.0
 10
109.04052734375
 20
-55.7392578125
 30
0.0
 10
109.9521484375
 20
-55.7392578125
 30
0.0
 10
110.2998046875
 20
-55.7392578125
 30
0.0
 10
110.57568359375
 20
-56.05126953125
 30
0.0
 10
110.57568359375
 20
-56.39892578125
 30
0.0
 10
110.57568359375
 20
-57.21484375
 30
0.0
 10
108.64453125
 20
-59.37353515625
 30
0.0
 10
107.4814453125
 20
-60.46484375
 30
0.0
 10
107.4814453125
 20
-60.46484375
 30
0.0
 10
107.25341796875
 20
-61.08837890625
 30
0.0
 10
107.25341796875
 20
-61.580078125
 30
0.0
 10
107.25341796875
 20
-61.8681640625
 30
0.0
 10
107.38525390625
 20
-61.9638671875
 30
0.0
 10
107.55322265625
 20
-61.9638671875
 30
0.0
 10
108.033203125
 20
-61.9638671875
 30
0.0
 10
109.5205078125
 20
-60.60888671875
 30
0.0
 10
109.5205078125
 20
-60.60888671875
 30
0.0
  0
HATCH
  5
95
330
70
100
AcDbEntity
  8
Layer 1
 62
   250
440
 33554687
100
AcDbHatch
 10
0.0
 20
0.0
 30
0.0
210
0.0
220
0.0
230
1.0
  2
SOLID
 70
     1
 71
     1
 91
        2
 92
        1
 93
        1
 72
     4
 94
        3
 73
     0
 74
     0
 95
       14
 96
       10
 40
0.0
 40
0.0
 40
0.0
 40
0.0
 40
1.0
 40
1.0
 40
1.0
 40
2.0
 40
2.0
 40
2.0
 40
3.0
 40
3.0
 40
3.0
 40
3.0
 10
110.35986328125
 20
-56.38720703125
 10
110.35986328125
 20
-56.279296875
 10
110.2880859375
 20
-56.23095703125
 10
110.2041015625
 20
-56.23095703125
 10
109.5322265625
 20
-56.23095703125
 10
107.88916015625
 20
-59.013671875
 10
107.5771484375
 20
-60.18896484375
 10
108.5126953125
 20
-59.265625
 10
110.35986328125
 20
-57.11865234375
 10
110.35986328125
 20
-56.38720703125
 97
        0
 97
        1
330
93
 92
        1
 93
        1
 72
     4
 94
        3
 73
     0
 74
     0
 95
       38
 96
       34
 40
0.0
 40
0.0
 40
0.0
 40
0.0
 40
1.0
 40
1.0
 40
1.0
 40
2.0
 40
2.0
 40
2.0
 40
3.0
 40
3.0
 40
3.0
 40
4.0
 40
4.0
 40
4.0
 40
5.0
 40
5.0
 40
5.0
 40
6.0
 40
6.0
 40
6.0
 40
7.0
 40
7.0
 40
7.0
 40
8.0
 40
8.0
 40
8.0
 40
9.0
 40
9.0
 40
9.0
 40
10.0
 40
10.0
 40
10.0
 40
11.0
 40
11.0
 40
11.0
 40
11.0
 10
109.5205078125
 20
-60.60888671875
 10
109.54443359375
 20
-60.5849609375
 10
109.568359375
 20
-60.560546875
 10
109.59228515625
 20
-60.560546875
 10
109.62841796875
 20
-60.560546875
 10
109.64013671875
 20
-60.5966796875
 10
109.64013671875
 20
-60.60888671875
 10
109.64013671875
 20
-60.6328125
 10
109.55615234375
 20
-60.716796875
 10
109.5205078125
 20
-60.7529296875
 10
109.5205078125
 20
-60.7529296875
 10
107.9609375
 20
-62.22802734375
 10
107.3017578125
 20
-62.22802734375
 10
106.9775390625
 20
-62.22802734375
 10
106.70166015625
 20
-61.98779296875
 10
106.70166015625
 20
-61.49609375
 10
106.70166015625
 20
-59.2177734375
 10
109.04052734375
 20
-55.7392578125
 10
109.9521484375
 20
-55.7392578125
 10
110.2998046875
 20
-55.7392578125
 10
110.57568359375
 20
-56.05126953125
 10
110.57568359375
 20
-56.39892578125
 10
110.57568359375
 20
-57.21484375
 10
108.64453125
 20
-59.37353515625
 10
107.4814453125
 20
-60.46484375
 10
107.4814453125
 20
-60.46484375
 10
107.25341796875
 20
-61.08837890625
 10
107.25341796875
 20
-61.580078125
 10
107.25341796875
 20
-61.8681640625
 10
107.38525390625
 20
-61.9638671875
 10
107.55322265625
 20
-61.9638671875
 10
108.033203125
 20
-61.9638671875
 10
109.5205078125
 20
-60.60888671875
 10
109.5205078125
 20
-60.60888671875
 97
        0
 97
        1
330
94
 75
     2
 76
     1
 98
        1
 10
0.0
 20
0.0
450
        0
451
        0
460
0.0
461
0.0
452
        0
462
0.0
453
        0
470

  0
SPLINE
  5
96
330
70
100
AcDbEntity
  8
Layer 1
100
AcDbSpline
210
0.0
220
0.0
230
1.0
 70
     9
 71
     3
 72
    26
 73
    22
 74
     0
 42
0.0000000001
 43
0.0000000001
 40
0.0
 40
0.0
 40
0.0
 40
0.0
 40
1.0
 40
1.0
 40
1.0
 40
2.0
 40
2.0
 40
2.0
 40
3.0
 40
3.0
 40
3.0
 40
4.0
 40
4.0
 40
4.0
 40
5.0
 40
5.0
 40
5.0
 40
6.0
 40
6.0
 40
6.0
 40
7.0
 40
7.0
 40
7.0
 40
7.0
 10
112.255859375
 20
-57.3583984375
 30
0.0
 10
112.255859375
 20
-57.4423828125
 30
0.0
 10
112.10009765625
 20
-57.6943359375
 30
0.0
 10
112.00390625
 20
-57.7421875
 30
0.0
 10
111.93212890625
 20
-57.7783203125
 30
0.0
 10
111.7763671875
 20
-57.826171875
 30
0.0
 10
111.66845703125
 20
-57.8623046875
 30
0.0
 10
111.4404296875
 20
-57.93408203125
 30
0.0
 10
111.36865234375
 20
-58.06640625
 30
0.0
 10
111.3203125
 20
-58.06640625
 30
0.0
 10
111.28466796875
 20
-58.06640625
 30
0.0
 10
111.24853515625
 20
-58.0419921875
 30
0.0
 10
111.24853515625
 20
-57.994140625
 30
0.0
 10
111.24853515625
 20
-57.70654296875
 30
0.0
 10
111.7041015625
 20
-57.1064453125
 30
0.0
 10
111.7041015625
 20
-56.81884765625
 30
0.0
 10
111.7041015625
 20
-56.78271484375
 30
0.0
 10
111.728515625
 20
-56.77099609375
 30
0.0
 10
111.75244140625
 20
-56.77099609375
 30
0.0
 10
111.9443359375
 20
-56.77099609375
 30
0.0
 10
112.255859375
 20
-57.1904296875
 30
0.0
 10
112.255859375
 20
-57.3583984375
 30
0.0
  0
SPLINE
  5
97
330
70
100
AcDbEntity
  8
Layer 1
100
AcDbSpline
210
0.0
220
0.0
230
1.0
 70
    11
 71
     3
 72
    38
 73
    34
 74
     0
 42
0.0000000001
 43
0.0000000001
 40
0.0
 40
0.0
 40
0.0
 40
0.0
 40
1.0
 40
1.0
 40
1.0
 40
2.0
 40
2.0
 40
2.0
 40
3.0
 40
3.0
 40
3.0
 40
4.0
 40
4.0
 40
4.0
 40
5.0
 40
5.0
 40
5.0
 40
6.0
 40
6.0
 40
6.0
 40
7.0
 40
7.0
 40
7.0
 40
8.0
 40
8.0
 40
8.0
 40
9.0
 40
9.0
 40
9.0
 40
10.0
 40
10.0
 40
10.0
 40
11.0
 40
11.0
 40
11.0
 40
11.0
 10
111.06884765625
 20
-59.4453125
 30
0.0
 10
111.06884765625
 20
-59.6611328125
 30
0.0
 10
109.701171875
 20
-61.20849609375
 30
0.0
 10
109.701171875
 20
-61.72412109375
 30
0.0
 10
109.701171875
 20
-61.8681640625
 30
0.0
 10
109.78515625
 20
-61.92822265625
 30
0.0
 10
109.89306640625
 20
-61.92822265625
 30
0.0
 10
110.5771484375
 20
-61.92822265625
 30
0.0
 10
111.96826171875
 20
-60.60888671875
 30
0.0
 10
111.96826171875
 20
-60.60888671875
 30
0.0
 10
111.96826171875
 20
-60.60888671875
 30
0.0
 10
112.01611328125
 20
-60.560546875
 30
0.0
 10
112.05224609375
 20
-60.560546875
 30
0.0
 10
112.076171875
 20
-60.560546875
 30
0.0
 10
112.10009765625
 20
-60.5966796875
 30
0.0
 10
112.10009765625
 20
-60.60888671875
 30
0.0
 10
112.10009765625
 20
-60.6328125
 30
0.0
 10
112.00390625
 20
-60.716796875
 30
0.0
 10
111.96826171875
 20
-60.7529296875
 30
0.0
 10
111.96826171875
 20
-60.7529296875
 30
0.0
 10
110.5048828125
 20
-62.15576171875
 30
0.0
 10
109.7255859375
 20
-62.15576171875
 30
0.0
 10
109.53369140625
 20
-62.15576171875
 30
0.0
 10
109.14990234375
 20
-61.8798828125
 30
0.0
 10
109.14990234375
 20
-61.49609375
 30
0.0
 10
109.14990234375
 20
-60.96875
 30
0.0
 10
110.193359375
 20
-59.63720703125
 30
0.0
 10
110.4208984375
 20
-59.07373046875
 30
0.0
 10
110.45703125
 20
-59.00146484375
 30
0.0
 10
110.5048828125
 20
-58.95361328125
 30
0.0
 10
110.56494140625
 20
-58.95361328125
 30
0.0
 10
110.8046875
 20
-58.95361328125
 30
0.0
 10
111.06884765625
 20
-59.2294921875
 30
0.0
 10
111.06884765625
 20
-59.4453125
 30
0.0
  0
HATCH
  5
98
330
70
100
AcDbEntity
  8
Layer 1
 62
   250
440
 33554687
100
AcDbHatch
 10
0.0
 20
0.0
 30
0.0
210
0.0
220
0.0
230
1.0
  2
SOLID
 70
     1
 71
     1
 91
        2
 92
        1
 93
        1
 72
     4
 94
        3
 73
     0
 74
     0
 95
       26
 96
       22
 40
0.0
 40
0.0
 40
0.0
 40
0.0
 40
1.0
 40
1.0
 40
1.0
 40
2.0
 40
2.0
 40
2.0
 40
3.0
 40
3.0
 40
3.0
 40
4.0
 40
4.0
 40
4.0
 40
5.0
 40
5.0
 40
5.0
 40
6.0
 40
6.0
 40
6.0
 40
7.0
 40
7.0
 40
7.0
 40
7.0
 10
112.255859375
 20
-57.3583984375
 10
112.255859375
 20
-57.4423828125
 10
112.10009765625
 20
-57.6943359375
 10
112.00390625
 20
-57.7421875
 10
111.93212890625
 20
-57.7783203125
 10
111.7763671875
 20
-57.826171875
 10
111.66845703125
 20
-57.8623046875
 10
111.4404296875
 20
-57.93408203125
 10
111.36865234375
 20
-58.06640625
 10
111.3203125
 20
-58.06640625
 10
111.28466796875
 20
-58.06640625
 10
111.24853515625
 20
-58.0419921875
 10
111.24853515625
 20
-57.994140625
 10
111.24853515625
 20
-57.70654296875
 10
111.7041015625
 20
-57.1064453125
 10
111.7041015625
 20
-56.81884765625
 10
111.7041015625
 20
-56.78271484375
 10
111.728515625
 20
-56.77099609375
 10
111.75244140625
 20
-56.77099609375
 10
111.9443359375
 20
-56.77099609375
 10
112.255859375
 20
-57.1904296875
 10
112.255859375
 20
-57.3583984375
 97
        0
 97
        1
330
96
 92
        1
 93
        1
 72
     4
 94
        3
 73
     0
 74
     0
 95
       38
 96
       34
 40
0.0
 40
0.0
 40
0.0
 40
0.0
 40
1.0
 40
1.0
 40
1.0
 40
2.0
 40
2.0
 40
2.0
 40
3.0
 40
3.0
 40
3.0
 40
4.0
 40
4.0
 40
4.0
 40
5.0
 40
5.0
 40
5.0
 40
6.0
 40
6.0
 40
6.0
 40
7.0
 40
7.0
 40
7.0
 40
8.0
 40
8.0
 40
8.0
 40
9.0
 40
9.0
 40
9.0
 40
10.0
 40
10.0
 40
10.0
 40
11.0
 40
11.0
 40
11.0
 40
11.0
 10
111.06884765625
 20
-59.4453125
 10
111.06884765625
 20
-59.6611328125
 10
109.701171875
 20
-61.20849609375
 10
109.701171875
 20
-61.72412109375
 10
109.701171875
 20
-61.8681640625
 10
109.78515625
 20
-61.92822265625
 10
109.89306640625
 20
-61.92822265625
 10
110.5771484375
 20
-61.92822265625
 10
111.96826171875
 20
-60.60888671875
 10
111.96826171875
 20
-60.60888671875
 10
111.96826171875
 20
-60.60888671875
 10
112.01611328125
 20
-60.560546875
 10
112.05224609375
 20
-60.560546875
 10
112.076171875
 20
-60.560546875
 10
112.10009765625
 20
-60.5966796875
 10
112.10009765625
 20
-60.60888671875
 10
112.10009765625
 20
-60.6328125
 10
112.00390625
 20
-60.716796875
 10
111.96826171875
 20
-60.7529296875
 10
111.96826171875
 20
-60.7529296875
 10
110.5048828125
 20
-62.15576171875
 10
109.7255859375
 20
-62.15576171875
 10
109.53369140625
 20
-62.15576171875
 10
109.14990234375
 20
-61.8798828125
 10
109.14990234375
 20
-61.49609375
 10
109.14990234375
 20
-60.96875
 10
110.193359375
 20
-59.63720703125
 10
110.4208984375
 20
-59.07373046875
 10
110.45703125
 20
-59.00146484375
 10
110.5048828125
 20
-58.95361328125
 10
110.56494140625
 20
-58.95361328125
 10
110.8046875
 20
-58.95361328125
 10
111.06884765625
 20
-59.2294921875
 10
111.06884765625
 20
-59.4453125
 97
        0
 97
        1
330
97
 75
     2
 76
     1
 98
        1
 10
0.0
 20
0.0
450
        0
451
        0
460
0.0
461
0.0
452
        0
462
0.0
453
        0
470

  0
SPLINE
  5
99
330
70
100
AcDbEntity
  8
Layer 1
100
AcDbSpline
210
0.0
220
0.0
230
1.0
 70
     9
 71
     3
 72
    14
 73
    10
 74
     0
 42
0.0000000001
 43
0.0000000001
 40
0.0
 40
0.0
 40
0.0
 40
0.0
 40
1.0
 40
1.0
 40
1.0
 40
2.0
 40
2.0
 40
2.0
 40
3.0
 40
3.0
 40
3.0
 40
3.0
 10
113.58837890625
 20
-59.3974609375
 30
0.0
 10
113.58837890625
 20
-59.30126953125
 30
0.0
 10
113.55224609375
 20
-59.265625
 30
0.0
 10
113.4921875
 20
-59.265625
 30
0.0
 10
113.28857421875
 20
-59.265625
 30
0.0
 10
112.82080078125
 20
-59.7333984375
 30
0.0
 10
112.4609375
 20
-60.60888671875
 30
0.0
 10
113.00048828125
 20
-60.2490234375
 30
0.0
 10
113.58837890625
 20
-59.67333984375
 30
0.0
 10
113.58837890625
 20
-59.3974609375
 30
0.0
  0
SPLINE
  5
9A
330
70
100
AcDbEntity
  8
Layer 1
100
AcDbSpline
210
0.0
220
0.0
230
1.0
 70
     9
 71
     3
 72
    38
 73
    34
 74
     0
 42
0.0000000001
 43
0.0000000001
 40
0.0
 40
0.0
 40
0.0
 40
0.0
 40
1.0
 40
1.0
 40
1.0
 40
2.0
 40
2.0
 40
2.0
 40
3.0
 40
3.0
 40
3.0
 40
4.0
 40
4.0
 40
4.0
 40
5.0
 40
5.0
 40
5.0
 40
6.0
 40
6.0
 40
6.0
 40
7.0
 40
7.0
 40
7.0
 40
8.0
 40
8.0
 40
8.0
 40
9.0
 40
9.0
 40
9.0
 40
10.0
 40
10.0
 40
10.0
 40
11.0
 40
11.0
 40
11.0
 40
11.0
 10
114.82373046875
 20
-60.560546875
 30
0.0
 10
114.85986328125
 20
-60.560546875
 30
0.0
 10
114.87158203125
 20
-60.5966796875
 30
0.0
 10
114.87158203125
 20
-60.60888671875
 30
0.0
 10
114.87158203125
 20
-60.6328125
 30
0.0
 10
114.78759765625
 20
-60.716796875
 30
0.0
 10
114.751953125
 20
-60.7529296875
 30
0.0
 10
114.751953125
 20
-60.7529296875
 30
0.0
 10
113.564453125
 20
-62.0478515625
 30
0.0
 10
112.640625
 20
-62.0478515625
 30
0.0
 10
112.029296875
 20
-62.0478515625
 30
0.0
 10
111.70556640625
 20
-61.6640625
 30
0.0
 10
111.70556640625
 20
-61.04052734375
 30
0.0
 10
111.70556640625
 20
-59.9609375
 30
0.0
 10
112.78466796875
 20
-58.833984375
 30
0.0
 10
113.3125
 20
-58.833984375
 30
0.0
 10
113.63623046875
 20
-58.833984375
 30
0.0
 10
113.84033203125
 20
-59.24169921875
 30
0.0
 10
113.84033203125
 20
-59.38525390625
 30
0.0
 10
113.84033203125
 20
-59.72119140625
 30
0.0
 10
113.1083984375
 20
-60.35693359375
 30
0.0
 10
112.44921875
 20
-60.7646484375
 30
0.0
 10
112.4248046875
 20
-60.83642578125
 30
0.0
 10
112.4130859375
 20
-61.052734375
 30
0.0
 10
112.4130859375
 20
-61.13671875
 30
0.0
 10
112.4130859375
 20
-61.50830078125
 30
0.0
 10
112.5927734375
 20
-61.8203125
 30
0.0
 10
112.94091796875
 20
-61.8203125
 30
0.0
 10
113.576171875
 20
-61.8203125
 30
0.0
 10
114.751953125
 20
-60.60888671875
 30
0.0
 10
114.751953125
 20
-60.60888671875
 30
0.0
 10
114.751953125
 20
-60.60888671875
 30
0.0
 10
114.7998046875
 20
-60.560546875
 30
0.0
 10
114.82373046875
 20
-60.560546875
 30
0.0
  0
HATCH
  5
9B
330
70
100
AcDbEntity
  8
Layer 1
 62
   250
440
 33554687
100
AcDbHatch
 10
0.0
 20
0.0
 30
0.0
210
0.0
220
0.0
230
1.0
  2
SOLID
 70
     1
 71
     1
 91
        2
 92
        1
 93
        1
 72
     4
 94
        3
 73
     0
 74
     0
 95
       14
 96
       10
 40
0.0
 40
0.0
 40
0.0
 40
0.0
 40
1.0
 40
1.0
 40
1.0
 40
2.0
 40
2.0
 40
2.0
 40
3.0
 40
3.0
 40
3.0
 40
3.0
 10
113.58837890625
 20
-59.3974609375
 10
113.58837890625
 20
-59.30126953125
 10
113.55224609375
 20
-59.265625
 10
113.4921875
 20
-59.265625
 10
113.28857421875
 20
-59.265625
 10
112.82080078125
 20
-59.7333984375
 10
112.4609375
 20
-60.60888671875
 10
113.00048828125
 20
-60.2490234375
 10
113.58837890625
 20
-59.67333984375
 10
113.58837890625
 20
-59.3974609375
 97
        0
 97
        1
330
99
 92
        1
 93
        1
 72
     4
 94
        3
 73
     0
 74
     0
 95
       38
 96
       34
 40
0.0
 40
0.0
 40
0.0
 40
0.0
 40
1.0
 40
1.0
 40
1.0
 40
2.0
 40
2.0
 40
2.0
 40
3.0
 40
3.0
 40
3.0
 40
4.0
 40
4.0
 40
4.0
 40
5.0
 40
5.0
 40
5.0
 40
6.0
 40
6.0
 40
6.0
 40
7.0
 40
7.0
 40
7.0
 40
8.0
 40
8.0
 40
8.0
 40
9.0
 40
9.0
 40
9.0
 40
10.0
 40
10.0
 40
10.0
 40
11.0
 40
11.0
 40
11.0
 40
11.0
 10
114.82373046875
 20
-60.560546875
 10
114.85986328125
 20
-60.560546875
 10
114.87158203125
 20
-60.5966796875
 10
114.87158203125
 20
-60.60888671875
 10
114.87158203125
 20
-60.6328125
 10
114.78759765625
 20
-60.716796875
 10
114.751953125
 20
-60.7529296875
 10
114.751953125
 20
-60.7529296875
 10
113.564453125
 20
-62.0478515625
 10
112.640625
 20
-62.0478515625
 10
112.029296875
 20
-62.0478515625
 10
111.70556640625
 20
-61.6640625
 10
111.70556640625
 20
-61.04052734375
 10
111.70556640625
 20
-59.9609375
 10
112.78466796875
 20
-58.833984375
 10
113.3125
 20
-58.833984375
 10
113.63623046875
 20
-58.833984375
 10
113.84033203125
 20
-59.24169921875
 10
113.84033203125
 20
-59.38525390625
 10
113.84033203125
 20
-59.72119140625
 10
113.1083984375
 20
-60.35693359375
 10
112.44921875
 20
-60.7646484375
 10
112.4248046875
 20
-60.83642578125
 10
112.4130859375
 20
-61.052734375
 10
112.4130859375
 20
-61.13671875
 10
112.4130859375
 20
-61.50830078125
 10
112.5927734375
 20
-61.8203125
 10
112.94091796875
 20
-61.8203125
 10
113.576171875
 20
-61.8203125
 10
114.751953125
 20
-60.60888671875
 10
114.751953125
 20
-60.60888671875
 10
114.751953125
 20
-60.60888671875
 10
114.7998046875
 20
-60.560546875
 10
114.82373046875
 20
-60.560546875
 97
        0
 97
        1
330
9A
 75
     2
 76
     1
 98
        1
 10
0.0
 20
0.0
450
        0
451
        0
460
0.0
461
0.0
452
        0
462
0.0
453
        0
470

  0
SPLINE
  5
9C
330
70
100
AcDbEntity
  8
Layer 1
100
AcDbSpline
210
0.0
220
0.0
230
1.0
 70
     9
 71
     3
 72
    65
 73
    61
 74
     0
 42
0.0000000001
 43
0.0000000001
 40
0.0
 40
0.0
 40
0.0
 40
0.0
 40
1.0
 40
1.0
 40
1.0
 40
2.0
 40
2.0
 40
2.0
 40
3.0
 40
3.0
 40
3.0
 40
4.0
 40
4.0
 40
4.0
 40
5.0
 40
5.0
 40
5.0
 40
6.0
 40
6.0
 40
6.0
 40
7.0
 40
7.0
 40
7.0
 40
8.0
 40
8.0
 40
8.0
 40
9.0
 40
9.0
 40
9.0
 40
10.0
 40
10.0
 40
10.0
 40
11.0
 40
11.0
 40
11.0
 40
12.0
 40
12.0
 40
12.0
 40
13.0
 40
13.0
 40
13.0
 40
14.0
 40
14.0
 40
14.0
 40
15.0
 40
15.0
 40
15.0
 40
16.0
 40
16.0
 40
16.0
 40
17.0
 40
17.0
 40
17.0
 40
18.0
 40
18.0
 40
18.0
 40
19.0
 40
19.0
 40
19.0
 40
20.0
 40
20.0
 40
20.0
 40
20.0
 10
114.63330078125
 20
-61.37646484375
 30
0.0
 10
114.63330078125
 20
-60.2490234375
 30
0.0
 10
115.4609375
 20
-58.86962890625
 30
0.0
 10
116.16845703125
 20
-57.7421875
 30
0.0
 10
115.7490234375
 20
-57.85009765625
 30
0.0
 10
115.52099609375
 20
-58.01806640625
 30
0.0
 10
115.47314453125
 20
-58.01806640625
 30
0.0
 10
115.35302734375
 20
-58.01806640625
 30
0.0
 10
115.208984375
 20
-57.80224609375
 30
0.0
 10
115.208984375
 20
-57.6943359375
 30
0.0
 10
115.208984375
 20
-57.658203125
 30
0.0
 10
115.208984375
 20
-57.63427734375
 30
0.0
 10
115.26904296875
 20
-57.6103515625
 30
0.0
 10
115.5810546875
 20
-57.50244140625
 30
0.0
 10
116.03662109375
 20
-57.478515625
 30
0.0
 10
116.32470703125
 20
-57.478515625
 30
0.0
 10
116.7802734375
 20
-56.7470703125
 30
0.0
 10
117.1640625
 20
-56.1474609375
 30
0.0
 10
117.1640625
 20
-55.8232421875
 30
0.0
 10
117.1640625
 20
-55.763671875
 30
0.0
 10
117.18798828125
 20
-55.7392578125
 30
0.0
 10
117.22412109375
 20
-55.7392578125
 30
0.0
 10
117.39208984375
 20
-55.7392578125
 30
0.0
 10
117.77587890625
 20
-56.21923828125
 30
0.0
 10
117.77587890625
 20
-56.56689453125
 30
0.0
 10
117.77587890625
 20
-56.6748046875
 30
0.0
 10
117.5
 20
-57.03466796875
 30
0.0
 10
117.14013671875
 20
-57.5146484375
 30
0.0
 10
117.931640625
 20
-57.6103515625
 30
0.0
 10
118.2314453125
 20
-57.826171875
 30
0.0
 10
118.2314453125
 20
-57.83837890625
 30
0.0
 10
118.2314453125
 20
-57.8623046875
 30
0.0
 10
118.1953125
 20
-57.91015625
 30
0.0
 10
118.18359375
 20
-57.91015625
 30
0.0
 10
118.1474609375
 20
-57.91015625
 30
0.0
 10
117.751953125
 20
-57.658203125
 30
0.0
 10
117.05615234375
 20
-57.63427734375
 30
0.0
 10
116.28857421875
 20
-58.677734375
 30
0.0
 10
115.18505859375
 20
-60.27294921875
 30
0.0
 10
115.18505859375
 20
-61.60400390625
 30
0.0
 10
115.18505859375
 20
-61.748046875
 30
0.0
 10
115.26904296875
 20
-61.80810546875
 30
0.0
 10
115.376953125
 20
-61.80810546875
 30
0.0
 10
115.544921875
 20
-61.80810546875
 30
0.0
 10
115.7607421875
 20
-61.7119140625
 30
0.0
 10
115.96484375
 20
-61.580078125
 30
0.0
 10
116.03662109375
 20
-61.5322265625
 30
0.0
 10
116.0966796875
 20
-61.484375
 30
0.0
 10
116.12060546875
 20
-61.484375
 30
0.0
 10
116.14453125
 20
-61.484375
 30
0.0
 10
116.16845703125
 20
-61.50830078125
 30
0.0
 10
116.16845703125
 20
-61.5322265625
 30
0.0
 10
116.16845703125
 20
-61.568359375
 30
0.0
 10
116.0966796875
 20
-61.62841796875
 30
0.0
 10
116.03662109375
 20
-61.67626953125
 30
0.0
 10
115.78466796875
 20
-61.8798828125
 30
0.0
 10
115.43701171875
 20
-62.0361328125
 30
0.0
 10
115.208984375
 20
-62.0361328125
 30
0.0
 10
114.96923828125
 20
-62.0361328125
 30
0.0
 10
114.63330078125
 20
-61.76025390625
 30
0.0
 10
114.63330078125
 20
-61.37646484375
 30
0.0
  0
HATCH
  5
9D
330
70
100
AcDbEntity
  8
Layer 1
 62
   250
440
 33554687
100
AcDbHatch
 10
0.0
 20
0.0
 30
0.0
210
0.0
220
0.0
230
1.0
  2
SOLID
 70
     1
 71
     1
 91
        1
 92
        1
 93
        1
 72
     4
 94
        3
 73
     0
 74
     0
 95
       65
 96
       61
 40
0.0
 40
0.0
 40
0.0
 40
0.0
 40
1.0
 40
1.0
 40
1.0
 40
2.0
 40
2.0
 40
2.0
 40
3.0
 40
3.0
 40
3.0
 40
4.0
 40
4.0
 40
4.0
 40
5.0
 40
5.0
 40
5.0
 40
6.0
 40
6.0
 40
6.0
 40
7.0
 40
7.0
 40
7.0
 40
8.0
 40
8.0
 40
8.0
 40
9.0
 40
9.0
 40
9.0
 40
10.0
 40
10.0
 40
10.0
 40
11.0
 40
11.0
 40
11.0
 40
12.0
 40
12.0
 40
12.0
 40
13.0
 40
13.0
 40
13.0
 40
14.0
 40
14.0
 40
14.0
 40
15.0
 40
15.0
 40
15.0
 40
16.0
 40
16.0
 40
16.0
 40
17.0
 40
17.0
 40
17.0
 40
18.0
 40
18.0
 40
18.0
 40
19.0
 40
19.0
 40
19.0
 40
20.0
 40
20.0
 40
20.0
 40
20.0
 10
114.63330078125
 20
-61.37646484375
 10
114.63330078125
 20
-60.2490234375
 10
115.4609375
 20
-58.86962890625
 10
116.16845703125
 20
-57.7421875
 10
115.7490234375
 20
-57.85009765625
 10
115.52099609375
 20
-58.01806640625
 10
115.47314453125
 20
-58.01806640625
 10
115.35302734375
 20
-58.01806640625
 10
115.208984375
 20
-57.80224609375
 10
115.208984375
 20
-57.6943359375
 10
115.208984375
 20
-57.658203125
 10
115.208984375
 20
-57.63427734375
 10
115.26904296875
 20
-57.6103515625
 10
115.5810546875
 20
-57.50244140625
 10
116.03662109375
 20
-57.478515625
 10
116.32470703125
 20
-57.478515625
 10
116.7802734375
 20
-56.7470703125
 10
117.1640625
 20
-56.1474609375
 10
117.1640625
 20
-55.8232421875
 10
117.1640625
 20
-55.763671875
 10
117.18798828125
 20
-55.7392578125
 10
117.22412109375
 20
-55.7392578125
 10
117.39208984375
 20
-55.7392578125
 10
117.77587890625
 20
-56.21923828125
 10
117.77587890625
 20
-56.56689453125
 10
117.77587890625
 20
-56.6748046875
 10
117.5
 20
-57.03466796875
 10
117.14013671875
 20
-57.5146484375
 10
117.931640625
 20
-57.6103515625
 10
118.2314453125
 20
-57.826171875
 10
118.2314453125
 20
-57.83837890625
 10
118.2314453125
 20
-57.8623046875
 10
118.1953125
 20
-57.91015625
 10
118.18359375
 20
-57.91015625
 10
118.1474609375
 20
-57.91015625
 10
117.751953125
 20
-57.658203125
 10
117.05615234375
 20
-57.63427734375
 10
116.28857421875
 20
-58.677734375
 10
115.18505859375
 20
-60.27294921875
 10
115.18505859375
 20
-61.60400390625
 10
115.18505859375
 20
-61.748046875
 10
115.26904296875
 20
-61.80810546875
 10
115.376953125
 20
-61.80810546875
 10
115.544921875
 20
-61.80810546875
 10
115.7607421875
 20
-61.7119140625
 10
115.96484375
 20
-61.580078125
 10
116.03662109375
 20
-61.5322265625
 10
116.0966796875
 20
-61.484375
 10
116.12060546875
 20
-61.484375
 10
116.14453125
 20
-61.484375
 10
116.16845703125
 20
-61.50830078125
 10
116.16845703125
 20
-61.5322265625
 10
116.16845703125
 20
-61.568359375
 10
116.0966796875
 20
-61.62841796875
 10
116.03662109375
 20
-61.67626953125
 10
115.78466796875
 20
-61.8798828125
 10
115.43701171875
 20
-62.0361328125
 10
115.208984375
 20
-62.0361328125
 10
114.96923828125
 20
-62.0361328125
 10
114.63330078125
 20
-61.76025390625
 10
114.63330078125
 20
-61.37646484375
 97
        0
 97
        1
330
9C
 75
     2
 76
     1
 98
        1
 10
0.0
 20
0.0
450
        0
451
        0
460
0.0
461
0.0
452
        0
462
0.0
453
        0
470

  0
ENDSEC
  0
SECTION
  2
OBJECTS
  0
DICTIONARY
  5
C
330
0
100
AcDbDictionary
281
     1
  3
ACAD_COLOR
350
63
  3
ACAD_DETAILVIEWSTYLE
350
6A
  3
ACAD_GROUP
350
D
  3
ACAD_LAYOUT
350
62
  3
ACAD_MATERIAL
350
10
  3
ACAD_MLEADERSTYLE
350
66
  3
ACAD_MLINESTYLE
350
5F
  3
ACAD_PLOTSETTINGS
350
61
  3
ACAD_PLOTSTYLENAME
350
E
  3
ACAD_SCALELIST
350
42
  3
ACAD_SECTIONVIEWSTYLE
350
68
  3
ACAD_TABLESTYLE
350
64
  3
ACAD_VISUALSTYLE
350
29
  3
ACDB_RECOMPOSE_DATA
350
A6
  3
AcDbVariableDictionary
350
9E
  0
DICTIONARY
  5
63
102
{ACAD_REACTORS
330
C
102
}
330
C
100
AcDbDictionary
281
     1
  0
DICTIONARY
  5
6A
102
{ACAD_REACTORS
330
C
102
}
330
C
100
AcDbDictionary
281
     1
  3
Imperial24
350
6B
  0
DICTIONARY
  5
D
102
{ACAD_REACTORS
330
C
102
}
330
C
100
AcDbDictionary
281
     1
  0
DICTIONARY
  5
62
102
{ACAD_REACTORS
330
C
102
}
330
C
100
AcDbDictionary
281
     1
  3
Layout1
350
6F
  3
Layout2
350
77
  3
Model
350
73
  0
DICTIONARY
  5
10
102
{ACAD_REACTORS
330
C
102
}
330
C
100
AcDbDictionary
281
     1
  3
ByBlock
350
19
  3
ByLayer
350
11
  3
Global
350
21
  0
DICTIONARY
  5
66
102
{ACAD_REACTORS
330
C
102
}
330
C
100
AcDbDictionary
281
     1
  3
Standard
350
67
  0
DICTIONARY
  5
5F
102
{ACAD_REACTORS
330
C
102
}
330
C
100
AcDbDictionary
281
     1
  3
Standard
350
60
  0
DICTIONARY
  5
61
102
{ACAD_REACTORS
330
C
102
}
330
C
100
AcDbDictionary
281
     1
  0
ACDBDICTIONARYWDFLT
  5
E
102
{ACAD_REACTORS
330
C
102
}
330
C
100
AcDbDictionary
281
     1
  3
Normal
350
F
100
AcDbDictionaryWithDefault
340
F
  0
DICTIONARY
  5
42
102
{ACAD_REACTORS
330
C
102
}
330
C
100
AcDbDictionary
281
     1
  3
A0
350
43
  3
A1
350
44
  3
A2
350
45
  3
A3
350
46
  3
A4
350
47
  3
A5
350
48
  3
A6
350
49
  3
A7
350
4A
  3
A8
350
4B
  3
A9
350
4C
  3
B0
350
4D
  3
B1
350
4E
  3
B2
350
4F
  3
B3
350
50
  3
B4
350
51
  3
B5
350
52
  3
B6
350
53
  0
DICTIONARY
  5
68
102
{ACAD_REACTORS
330
C
102
}
330
C
100
AcDbDictionary
281
     1
  3
Imperial24
350
69
  0
DICTIONARY
  5
64
102
{ACAD_REACTORS
330
C
102
}
330
C
100
AcDbDictionary
281
     1
  3
Standard
350
65
  0
DICTIONARY
  5
29
102
{ACAD_REACTORS
330
C
102
}
330
C
100
AcDbDictionary
281
     1
  3
2dWireframe
350
2F
  3
Basic
350
2E
  3
Brighten
350
35
  3
ColorChange
350
39
  3
Conceptual
350
32
  3
Dim
350
34
  3
EdgeColorOff
350
41
  3
Facepattern
350
38
  3
Flat
350
2A
  3
FlatWithEdges
350
2B
  3
Gouraud
350
2C
  3
GouraudWithEdges
350
2D
  3
Hidden
350
31
  3
JitterOff
350
3F
  3
Linepattern
350
37
  3
OverhangOff
350
40
  3
Realistic
350
33
  3
Shaded
350
3E
  3
Shaded with edges
350
3D
  3
Shades of Gray
350
3A
  3
Sketchy
350
3B
  3
Thicken
350
36
  3
Wireframe
350
30
  3
X-Ray
350
3C
  0
XRECORD
  5
A6
102
{ACAD_REACTORS
330
C
102
}
330
C
100
AcDbXrecord
280
     1
 90
        1
330
65
  0
DICTIONARY
  5
9E
102
{ACAD_REACTORS
330
C
102
}
330
C
100
AcDbDictionary
281
     1
  3
CANNOSCALE
350
A3
  3
CMLEADERSTYLE
350
A0
  3
CTABLESTYLE
350
9F
  3
CVIEWDETAILSTYLE
350
A1
  3
CVIEWSECTIONSTYLE
350
A2
  0
ACDBDETAILVIEWSTYLE
  5
6B
102
{ACAD_XDICTIONARY
360
A9
102
}
102
{ACAD_REACTORS
330
6A
102
}
330
6A
100
AcDbModelDocViewStyle
 70
     0
  3
Imperial24
290
     0
100
AcDbDetailViewStyle
 70
     0
 71
     0
 90
        3
 71
     1
340
55
 62
   256
 40
0.24
340
0
 62
   256
 40
0.24
300

 40
0.36
280
     3
 71
     2
340
5D
 90
       25
 62
   256
 71
     3
340
55
 62
   256
 40
0.24
 90
        1
 40
0.75
 90
        1
300
%<\AcVar ViewType \f "%tc1">% %<\AcVar ViewDetailId>%\PSCALE %<\AcVar ViewScale \f "%sn">%
 71
     4
340
5D
 90
       25
 62
   256
340
5D
 90
       25
 62
   256
280
     0
  0
LAYOUT
  5
6F
102
{ACAD_REACTORS
330
62
102
}
330
62
100
AcDbPlotSettings
  1

  2

  4

  6

 40
0.0
 41
0.0
 42
0.0
 43
0.0
 44
0.0
 45
0.0
 46
0.0
 47
0.0
 48
0.0
 49
0.0
140
0.0
141
0.0
142
1.0
143
1.0
 70
   688
 72
     0
 73
     0
 74
     5
  7

 75
    16
147
1.0
 76
     0
 77
     2
 78
   300
148
0.0
149
0.0
100
AcDbLayout
  1
Layout1
 70
     1
 71
     1
 10
0.0
 20
0.0
 11
12.0
 21
9.0
 12
0.0
 22
0.0
 32
0.0
 14
0.0
 24
0.0
 34
0.0
 15
0.0
 25
0.0
 35
0.0
146
0.0
 13
0.0
 23
0.0
 33
0.0
 16
1.0
 26
0.0
 36
0.0
 17
0.0
 27
1.0
 37
0.0
 76
     0
330
6C
  0
LAYOUT
  5
77
102
{ACAD_REACTORS
330
62
102
}
330
62
100
AcDbPlotSettings
  1

  2

  4

  6

 40
0.0
 41
0.0
 42
0.0
 43
0.0
 44
0.0
 45
0.0
 46
0.0
 47
0.0
 48
0.0
 49
0.0
140
0.0
141
0.0
142
1.0
143
1.0
 70
   688
 72
     0
 73
     0
 74
     5
  7

 75
    16
147
1.0
 76
     0
 77
     2
 78
   300
148
0.0
149
0.0
100
AcDbLayout
  1
Layout2
 70
     1
 71
     2
 10
0.0
 20
0.0
 11
12.0
 21
9.0
 12
0.0
 22
0.0
 32
0.0
 14
0.0
 24
0.0
 34
0.0
 15
0.0
 25
0.0
 35
0.0
146
0.0
 13
0.0
 23
0.0
 33
0.0
 16
1.0
 26
0.0
 36
0.0
 17
0.0
 27
1.0
 37
0.0
 76
     0
330
74
  0
LAYOUT
  5
73
102
{ACAD_REACTORS
330
62
102
}
330
62
100
AcDbPlotSettings
  1

  2

  4

  6

 40
0.0
 41
0.0
 42
0.0
 43
0.0
 44
0.0
 45
0.0
 46
0.0
 47
0.0
 48
0.0
 49
0.0
140
0.0
141
0.0
142
1.0
143
1.0
 70
  1712
 72
     0
 73
     0
 74
     0
  7

 75
     0
147
1.0
 76
     0
 77
     2
 78
   300
148
0.0
149
0.0
100
AcDbLayout
  1
Model
 70
     1
 71
     0
 10
0.0
 20
0.0
 11
12.0
 21
9.0
 12
0.0
 22
0.0
 32
0.0
 14
0.0
 24
0.0
 34
0.0
 15
0.0
 25
0.0
 35
0.0
146
0.0
 13
0.0
 23
0.0
 33
0.0
 16
1.0
 26
0.0
 36
0.0
 17
0.0
 27
1.0
 37
0.0
 76
     0
330
70
  0
MATERIAL
  5
19
102
{ACAD_XDICTIONARY
360
1A
102
}
102
{ACAD_REACTORS
330
10
102
}
330
10
100
AcDbMaterial
  1
ByBlock
 72
     0
 43
0.0208333333333333
 43
0.0
 43
0.0
 43
0.0
 43
0.0
 43
0.0208333333333333
 43
0.0
 43
0.0
 43
0.0
 43
0.0
 43
1.0
 43
0.0
 43
0.0
 43
0.0
 43
0.0
 43
1.0
 77
     0
 47
0.0208333333333333
 47
0.0
 47
0.0
 47
0.0
 47
0.0
 47
0.0208333333333333
 47
0.0
 47
0.0
 47
0.0
 47
0.0
 47
1.0
 47
0.0
 47
0.0
 47
0.0
 47
0.0
 47
1.0
171
     0
 49
0.0208333333333333
 49
0.0
 49
0.0
 49
0.0
 49
0.0
 49
0.0208333333333333
 49
0.0
 49
0.0
 49
0.0
 49
0.0
 49
1.0
 49
0.0
 49
0.0
 49
0.0
 49
0.0
 49
1.0
175
     0
142
0.0208333333333333
142
0.0
142
0.0
142
0.0
142
0.0
142
0.0208333333333333
142
0.0
142
0.0
142
0.0
142
0.0
142
1.0
142
0.0
142
0.0
142
0.0
142
0.0
142
1.0
179
     0
144
0.0208333333333333
144
0.0
144
0.0
144
0.0
144
0.0
144
0.0208333333333333
144
0.0
144
0.0
144
0.0
144
0.0
144
1.0
144
0.0
144
0.0
144
0.0
144
0.0
144
1.0
147
0.0208333333333333
147
0.0
147
0.0
147
0.0
147
0.0
147
0.0208333333333333
147
0.0
147
0.0
147
0.0
147
0.0
147
1.0
147
0.0
147
0.0
147
0.0
147
0.0
147
1.0
  0
MATERIAL
  5
11
102
{ACAD_XDICTIONARY
360
12
102
}
102
{ACAD_REACTORS
330
10
102
}
330
10
100
AcDbMaterial
  1
ByLayer
 72
     0
 43
0.0208333333333333
 43
0.0
 43
0.0
 43
0.0
 43
0.0
 43
0.0208333333333333
 43
0.0
 43
0.0
 43
0.0
 43
0.0
 43
1.0
 43
0.0
 43
0.0
 43
0.0
 43
0.0
 43
1.0
 77
     0
 47
0.0208333333333333
 47
0.0
 47
0.0
 47
0.0
 47
0.0
 47
0.0208333333333333
 47
0.0
 47
0.0
 47
0.0
 47
0.0
 47
1.0
 47
0.0
 47
0.0
 47
0.0
 47
0.0
 47
1.0
171
     0
 49
0.0208333333333333
 49
0.0
 49
0.0
 49
0.0
 49
0.0
 49
0.0208333333333333
 49
0.0
 49
0.0
 49
0.0
 49
0.0
 49
1.0
 49
0.0
 49
0.0
 49
0.0
 49
0.0
 49
1.0
175
     0
142
0.0208333333333333
142
0.0
142
0.0
142
0.0
142
0.0
142
0.0208333333333333
142
0.0
142
0.0
142
0.0
142
0.0
142
1.0
142
0.0
142
0.0
142
0.0
142
0.0
142
1.0
179
     0
144
0.0208333333333333
144
0.0
144
0.0
144
0.0
144
0.0
144
0.0208333333333333
144
0.0
144
0.0
144
0.0
144
0.0
144
1.0
144
0.0
144
0.0
144
0.0
144
0.0
144
1.0
147
0.0208333333333333
147
0.0
147
0.0
147
0.0
147
0.0
147
0.0208333333333333
147
0.0
147
0.0
147
0.0
147
0.0
147
1.0
147
0.0
147
0.0
147
0.0
147
0.0
147
1.0
  0
MATERIAL
  5
21
102
{ACAD_XDICTIONARY
360
22
102
}
102
{ACAD_REACTORS
330
10
102
}
330
10
100
AcDbMaterial
  1
Global
 72
     0
 43
0.0208333333333333
 43
0.0
 43
0.0
 43
0.0
 43
0.0
 43
0.0208333333333333
 43
0.0
 43
0.0
 43
0.0
 43
0.0
 43
1.0
 43
0.0
 43
0.0
 43
0.0
 43
0.0
 43
1.0
 77
     0
 47
0.0208333333333333
 47
0.0
 47
0.0
 47
0.0
 47
0.0
 47
0.0208333333333333
 47
0.0
 47
0.0
 47
0.0
 47
0.0
 47
1.0
 47
0.0
 47
0.0
 47
0.0
 47
0.0
 47
1.0
171
     0
 49
0.0208333333333333
 49
0.0
 49
0.0
 49
0.0
 49
0.0
 49
0.0208333333333333
 49
0.0
 49
0.0
 49
0.0
 49
0.0
 49
1.0
 49
0.0
 49
0.0
 49
0.0
 49
0.0
 49
1.0
175
     0
142
0.0208333333333333
142
0.0
142
0.0
142
0.0
142
0.0
142
0.0208333333333333
142
0.0
142
0.0
142
0.0
142
0.0
142
1.0
142
0.0
142
0.0
142
0.0
142
0.0
142
1.0
179
     0
144
0.0208333333333333
144
0.0
144
0.0
144
0.0
144
0.0
144
0.0208333333333333
144
0.0
144
0.0
144
0.0
144
0.0
144
1.0
144
0.0
144
0.0
144
0.0
144
0.0
144
1.0
147
0.0208333333333333
147
0.0
147
0.0
147
0.0
147
0.0
147
0.0208333333333333
147
0.0
147
0.0
147
0.0
147
0.0
147
1.0
147
0.0
147
0.0
147
0.0
147
0.0
147
1.0
  0
MLEADERSTYLE
  5
67
102
{ACAD_REACTORS
330
66
102
}
330
66
100
AcDbMLeaderStyle
179
     2
170
     2
171
     1
172
     0
 90
        2
 40
0.0
 41
0.0
173
     1
 91
-1056964608
340
5B
 92
       -2
290
     1
 42
0.09
291
     1
 43
0.36
  3
Standard
 44
0.18
300

342
55
174
     1
178
     6
175
     1
176
     0
 93
-1056964608
 45
0.18
292
     0
297
     0
 46
0.18
 94
-1056964608
 47
1.0
 49
1.0
140
1.0
293
     1
141
0.0
294
     1
177
     0
142
1.0
295
     0
296
     0
143
0.125
271
     0
272
     9
273
     9
298
     1
  0
MLINESTYLE
  5
60
102
{ACAD_REACTORS
330
5F
102
}
330
5F
100
AcDbMlineStyle
  2
STANDARD
 70
     0
  3

 62
   256
 51
90.0
 52
90.0
 71
     2
 49
0.5
 62
   256
  6
BYLAYER
 49
-0.5
 62
   256
  6
BYLAYER
  0
ACDBPLACEHOLDER
  5
F
102
{ACAD_REACTORS
330
E
102
}
330
E
  0
SCALE
  5
43
102
{ACAD_REACTORS
330
42
102
}
330
42
100
AcDbScale
 70
     0
300
1:1
140
1.0
141
1.0
290
     1
  0
SCALE
  5
44
102
{ACAD_REACTORS
330
42
102
}
330
42
100
AcDbScale
 70
     0
300
1/128" = 1'-0"
140
0.0078125
141
12.0
290
     0
  0
SCALE
  5
45
102
{ACAD_REACTORS
330
42
102
}
330
42
100
AcDbScale
 70
     0
300
1/64" = 1'-0"
140
0.015625
141
12.0
290
     0
  0
SCALE
  5
46
102
{ACAD_REACTORS
330
42
102
}
330
42
100
AcDbScale
 70
     0
300
1/32" = 1'-0"
140
0.03125
141
12.0
290
     0
  0
SCALE
  5
47
102
{ACAD_REACTORS
330
42
102
}
330
42
100
AcDbScale
 70
     0
300
1/16" = 1'-0"
140
0.0625
141
12.0
290
     0
  0
SCALE
  5
48
102
{ACAD_REACTORS
330
42
102
}
330
42
100
AcDbScale
 70
     0
300
3/32" = 1'-0"
140
0.09375
141
12.0
290
     0
  0
SCALE
  5
49
102
{ACAD_REACTORS
330
42
102
}
330
42
100
AcDbScale
 70
     0
300
1/8" = 1'-0"
140
0.125
141
12.0
290
     0
  0
SCALE
  5
4A
102
{ACAD_REACTORS
330
42
102
}
330
42
100
AcDbScale
 70
     0
300
3/16" = 1'-0"
140
0.1875
141
12.0
290
     0
  0
SCALE
  5
4B
102
{ACAD_REACTORS
330
42
102
}
330
42
100
AcDbScale
 70
     0
300
1/4" = 1'-0"
140
0.25
141
12.0
290
     0
  0
SCALE
  5
4C
102
{ACAD_REACTORS
330
42
102
}
330
42
100
AcDbScale
 70
     0
300
3/8" = 1'-0"
140
0.375
141
12.0
290
     0
  0
SCALE
  5
4D
102
{ACAD_REACTORS
330
42
102
}
330
42
100
AcDbScale
 70
     0
300
1/2" = 1'-0"
140
0.5
141
12.0
290
     0
  0
SCALE
  5
4E
102
{ACAD_REACTORS
330
42
102
}
330
42
100
AcDbScale
 70
     0
300
3/4" = 1'-0"
140
0.75
141
12.0
290
     0
  0
SCALE
  5
4F
102
{ACAD_REACTORS
330
42
102
}
330
42
100
AcDbScale
 70
     0
300
1" = 1'-0"
140
1.0
141
12.0
290
     0
  0
SCALE
  5
50
102
{ACAD_REACTORS
330
42
102
}
330
42
100
AcDbScale
 70
     0
300
1-1/2" = 1'-0"
140
1.5
141
12.0
290
     0
  0
SCALE
  5
51
102
{ACAD_REACTORS
330
42
102
}
330
42
100
AcDbScale
 70
     0
300
3" = 1'-0"
140
3.0
141
12.0
290
     0
  0
SCALE
  5
52
102
{ACAD_REACTORS
330
42
102
}
330
42
100
AcDbScale
 70
     0
300
6" = 1'-0"
140
6.0
141
12.0
290
     0
  0
SCALE
  5
53
102
{ACAD_REACTORS
330
42
102
}
330
42
100
AcDbScale
 70
     0
300
1'-0" = 1'-0"
140
12.0
141
12.0
290
     0
  0
ACDBSECTIONVIEWSTYLE
  5
69
102
{ACAD_XDICTIONARY
360
A7
102
}
102
{ACAD_REACTORS
330
68
102
}
330
68
100
AcDbModelDocViewStyle
 70
     0
  3
Imperial24
290
     0
100
AcDbSectionViewStyle
 70
     0
 71
     0
 90
       78
 71
     1
340
55
 62
   256
 40
0.24
340
0
340
0
 62
   256
 40
0.24
300
I, O, Q, S, X, Z
 40
0.48
 90
        3
 40
0.18
 90
        1
 71
     2
340
5D
 90
       25
 62
   256
340
5D
 90
       50
 62
   256
 40
0.24
 40
0.0
 40
0.24
 71
     3
340
55
 62
   256
 40
0.24
 90
        1
 40
0.75
 90
        1
300
%<\AcVar ViewType \f "%tc1">% %<\AcVar ViewSectionStartId>%-%<\AcVar ViewSectionEndId>%\PSCALE %<\AcVar ViewScale \f "%sn">%
 71
     4
 62
   256
 62
   257
300
ANSI31
 40
1.0
 90
        0
290
     0
290
     0
 90
        6
 40
0.0
 40
1.570796326794896
 40
0.2617993877991494
 40
1.308996938995747
 40
-0.2617993877991494
 40
1.832595714594046
  0
TABLESTYLE
  5
65
102
{ACAD_XDICTIONARY
360
A4
102
}
102
{ACAD_REACTORS
330
64
102
}
330
64
100
AcDbTableStyle
280
     0
  3
Standard
 70
     0
 71
     0
 40
0.06
 41
0.06
280
     0
281
     0
  7
Standard
140
0.18
170
     2
 62
     0
 63
     7
283
     0
 90
      512
 91
        0
  1

274
    -2
284
     1
 64
     0
275
    -2
285
     1
 65
     0
276
    -2
286
     1
 66
     0
277
    -2
287
     1
 67
     0
278
    -2
288
     1
 68
     0
279
    -2
289
     1
 69
     0
  7
Standard
140
0.25
170
     5
 62
     0
 63
     7
283
     0
 90
      512
 91
        0
  1

274
    -2
284
     1
 64
     0
275
    -2
285
     1
 65
     0
276
    -2
286
     1
 66
     0
277
    -2
287
     1
 67
     0
278
    -2
288
     1
 68
     0
279
    -2
289
     1
 69
     0
  7
Standard
140
0.18
170
     5
 62
     0
 63
     7
283
     0
 90
      512
 91
        0
  1

274
    -2
284
     1
 64
     0
275
    -2
285
     1
 65
     0
276
    -2
286
     1
 66
     0
277
    -2
287
     1
 67
     0
278
    -2
288
     1
 68
     0
279
    -2
289
     1
 69
     0
  0
VISUALSTYLE
  5
2F
102
{ACAD_REACTORS
330
29
102
}
330
29
100
AcDbVisualStyle
  2
2dWireframe
 70
     4
177
     3
291
     0
 70
    58
 90
        0
176
     1
 90
        2
176
     1
 90
        0
176
     1
 90
        0
176
     1
 40
0.6
176
     1
 40
30.0
176
     1
 62
     7
420
 16777215
176
     1
 90
        1
176
     1
 90
        4
176
     1
 62
     7
176
     1
 62
   257
176
     1
 90
        1
176
     1
 90
        1
176
     1
 40
1.0
176
     1
 90
        0
176
     1
 62
   257
176
     1
 40
1.0
176
     1
 90
        1
176
     1
 90
        6
176
     1
 90
        2
176
     1
 62
     7
176
     1
 90
        5
176
     1
 90
        0
176
     1
 90
        0
176
     1
290
     0
176
     1
 90
        1
176
     1
 40
0.0
176
     1
 90
        0
176
     1
290
     1
176
     1
290
     1
176
     1
290
     0
176
     1
290
     0
176
     1
290
     0
176
     1
290
     0
176
     1
290
     0
176
     1
290
     0
176
     1
290
     0
176
     1
 90
       50
176
     1
 40
0.0
176
     1
 40
1.0
176
     1
 90
        0
176
     1
 62
    18
420
        0
176
     1
 90
       50
176
     1
 90
        3
176
     1
 62
     5
420
      255
176
     1
290
     0
176
     1
 90
       50
176
     1
 90
       50
176
     1
 90
       50
176
     1
290
     0
176
     1
 90
       50
176
     1
 62
   256
176
     0
 40
1.0
176
     0
 90
        2
176
     1
  1
strokes_ogs.tif
176
     1
290
     0
176
     1
 40
1.0
176
     1
 40
1.0
176
     1
1001
ACAD
1000
AcDbSavedByObjectVersion
1070
     0
  0
VISUALSTYLE
  5
2E
102
{ACAD_REACTORS
330
29
102
}
330
29
100
AcDbVisualStyle
  2
Basic
 70
     7
177
     3
291
     1
 70
    58
 90
        1
176
     1
 90
        0
176
     1
 90
        1
176
     1
 90
        0
176
     1
 40
0.6
176
     1
 40
30.0
176
     1
 62
     7
420
 16777215
176
     1
 90
        0
176
     1
 90
        4
176
     1
 62
     7
176
     1
 62
   257
176
     1
 90
        1
176
     1
 90
        1
176
     1
 40
1.0
176
     1
 90
        8
176
     1
 62
     7
176
     1
 40
1.0
176
     1
 90
        1
176
     1
 90
        6
176
     1
 90
        2
176
     1
 62
     7
176
     1
 90
        5
176
     1
 90
        0
176
     1
 90
        0
176
     1
290
     0
176
     1
 90
        1
176
     1
 40
0.0
176
     1
 90
        0
176
     1
290
     0
176
     1
290
     1
176
     1
290
     1
176
     1
290
     0
176
     1
290
     0
176
     1
290
     0
176
     1
290
     0
176
     1
290
     0
176
     1
290
     0
176
     1
 90
       50
176
     1
 40
0.0
176
     1
 40
1.0
176
     1
 90
        0
176
     1
 62
    18
420
        0
176
     1
 90
       50
176
     1
 90
        3
176
     1
 62
     5
420
      255
176
     1
290
     0
176
     1
 90
       50
176
     1
 90
       50
176
     1
 90
       50
176
     1
290
     0
176
     1
 90
       50
176
     1
 62
   256
176
     0
 40
1.0
176
     0
 90
        2
176
     1
  1
strokes_ogs.tif
176
     1
290
     0
176
     1
 40
1.0
176
     1
 40
1.0
176
     1
1001
ACAD
1000
AcDbSavedByObjectVersion
1070
     0
  0
VISUALSTYLE
  5
35
102
{ACAD_REACTORS
330
29
102
}
330
29
100
AcDbVisualStyle
  2
Brighten
 70
    12
177
     3
291
     1
 70
    58
 90
        2
176
     1
 90
        2
176
     1
 90
        0
176
     1
 90
        0
176
     1
 40
0.6
176
     1
 40
30.0
176
     1
 62
     7
420
 16777215
176
     1
 90
        1
176
     1
 90
        4
176
     1
 62
     7
176
     1
 62
   257
176
     1
 90
        1
176
     1
 90
        1
176
     1
 40
1.0
176
     1
 90
        8
176
     1
 62
     7
176
     1
 40
1.0
176
     1
 90
        1
176
     1
 90
        6
176
     1
 90
        2
176
     1
 62
     7
176
     1
 90
        5
176
     1
 90
        0
176
     1
 90
        0
176
     1
290
     0
176
     1
 90
        1
176
     1
 40
50.0
176
     1
 90
        0
176
     1
290
     0
176
     1
290
     1
176
     1
290
     1
176
     1
290
     0
176
     1
290
     0
176
     1
290
     0
176
     1
290
     0
176
     1
290
     0
176
     1
290
     0
176
     1
 90
       50
176
     1
 40
0.0
176
     1
 40
1.0
176
     1
 90
        0
176
     1
 62
    18
420
        0
176
     1
 90
       50
176
     1
 90
        3
176
     1
 62
     5
420
      255
176
     1
290
     0
176
     1
 90
       50
176
     1
 90
       50
176
     1
 90
       50
176
     1
290
     0
176
     1
 90
       50
176
     1
 62
   256
176
     0
 40
1.0
176
     0
 90
        2
176
     1
  1
strokes_ogs.tif
176
     1
290
     0
176
     1
 40
1.0
176
     1
 40
1.0
176
     1
1001
ACAD
1000
AcDbSavedByObjectVersion
1070
     0
  0
VISUALSTYLE
  5
39
102
{ACAD_REACTORS
330
29
102
}
330
29
100
AcDbVisualStyle
  2
ColorChange
 70
    16
177
     3
291
     1
 70
    58
 90
        2
176
     1
 90
        2
176
     1
 90
        3
176
     1
 90
        0
176
     1
 40
0.6
176
     1
 40
30.0
176
     1
 62
     8
420
  8421504
176
     1
 90
        1
176
     1
 90
        4
176
     1
 62
     7
176
     1
 62
   257
176
     1
 90
        1
176
     1
 90
        1
176
     1
 40
1.0
176
     1
 90
        8
176
     1
 62
     8
420
  8421504
176
     1
 40
1.0
176
     1
 90
        1
176
     1
 90
        6
176
     1
 90
        2
176
     1
 62
     7
176
     1
 90
        5
176
     1
 90
        0
176
     1
 90
        0
176
     1
290
     0
176
     1
 90
        1
176
     1
 40
0.0
176
     1
 90
        0
176
     1
290
     0
176
     1
290
     1
176
     1
290
     1
176
     1
290
     0
176
     1
290
     0
176
     1
290
     0
176
     1
290
     0
176
     1
290
     0
176
     1
290
     0
176
     1
 90
       50
176
     1
 40
0.0
176
     1
 40
1.0
176
     1
 90
        0
176
     1
 62
    18
420
        0
176
     1
 90
       50
176
     1
 90
        3
176
     1
 62
     5
420
      255
176
     1
290
     0
176
     1
 90
       50
176
     1
 90
       50
176
     1
 90
       50
176
     1
290
     0
176
     1
 90
       50
176
     1
 62
   256
176
     0
 40
1.0
176
     0
 90
        2
176
     1
  1
strokes_ogs.tif
176
     1
290
     0
176
     1
 40
1.0
176
     1
 40
1.0
176
     1
1001
ACAD
1000
AcDbSavedByObjectVersion
1070
     0
  0
VISUALSTYLE
  5
32
102
{ACAD_REACTORS
330
29
102
}
330
29
100
AcDbVisualStyle
  2
Conceptual
 70
     9
177
     3
291
     0
 70
    58
 90
        3
176
     1
 90
        2
176
     1
 90
        0
176
     1
 90
        0
176
     1
 40
0.6
176
     1
 40
30.0
176
     1
 62
     7
420
 16777215
176
     1
 90
        2
176
     1
 90
        2
176
     1
 62
     7
176
     1
 62
   257
176
     1
 90
        1
176
     1
 90
        1
176
     1
 40
179.0
176
     1
 90
        8
176
     1
 62
     7
176
     1
 40
1.0
176
     1
 90
        1
176
     1
 90
        6
176
     1
 90
        2
176
     1
 62
     7
176
     1
 90
        3
176
     1
 90
        0
176
     1
 90
        0
176
     1
290
     0
176
     1
 90
        1
176
     1
 40
0.0
176
     1
 90
        0
176
     1
290
     0
176
     1
290
     1
176
     1
290
     1
176
     1
290
     0
176
     1
290
     0
176
     1
290
     0
176
     1
290
     0
176
     1
290
     0
176
     1
290
     0
176
     1
 90
       50
176
     1
 40
0.0
176
     1
 40
1.0
176
     1
 90
        0
176
     1
 62
    18
420
        0
176
     1
 90
       50
176
     1
 90
        3
176
     1
 62
     5
420
      255
176
     1
290
     0
176
     1
 90
       50
176
     1
 90
       50
176
     1
 90
       50
176
     1
290
     0
176
     1
 90
       50
176
     1
 62
   256
176
     0
 40
1.0
176
     0
 90
        2
176
     1
  1
strokes_ogs.tif
176
     1
290
     0
176
     1
 40
1.0
176
     1
 40
1.0
176
     1
1001
ACAD
1000
AcDbSavedByObjectVersion
1070
     0
  0
VISUALSTYLE
  5
34
102
{ACAD_REACTORS
330
29
102
}
330
29
100
AcDbVisualStyle
  2
Dim
 70
    11
177
     3
291
     1
 70
    58
 90
        2
176
     1
 90
        2
176
     1
 90
        0
176
     1
 90
        0
176
     1
 40
0.6
176
     1
 40
30.0
176
     1
 62
     7
420
 16777215
176
     1
 90
        1
176
     1
 90
        4
176
     1
 62
     7
176
     1
 62
   257
176
     1
 90
        1
176
     1
 90
        1
176
     1
 40
1.0
176
     1
 90
        8
176
     1
 62
     7
176
     1
 40
1.0
176
     1
 90
        1
176
     1
 90
        6
176
     1
 90
        2
176
     1
 62
     7
176
     1
 90
        5
176
     1
 90
        0
176
     1
 90
        0
176
     1
290
     0
176
     1
 90
        1
176
     1
 40
-50.0
176
     1
 90
        0
176
     1
290
     0
176
     1
290
     1
176
     1
290
     1
176
     1
290
     0
176
     1
290
     0
176
     1
290
     0
176
     1
290
     0
176
     1
290
     0
176
     1
290
     0
176
     1
 90
       50
176
     1
 40
0.0
176
     1
 40
1.0
176
     1
 90
        0
176
     1
 62
    18
420
        0
176
     1
 90
       50
176
     1
 90
        3
176
     1
 62
     5
420
      255
176
     1
290
     0
176
     1
 90
       50
176
     1
 90
       50
176
     1
 90
       50
176
     1
290
     0
176
     1
 90
       50
176
     1
 62
   256
176
     0
 40
1.0
176
     0
 90
        2
176
     1
  1
strokes_ogs.tif
176
     1
290
     0
176
     1
 40
1.0
176
     1
 40
1.0
176
     1
1001
ACAD
1000
AcDbSavedByObjectVersion
1070
     0
  0
VISUALSTYLE
  5
41
102
{ACAD_REACTORS
330
29
102
}
330
29
100
AcDbVisualStyle
  2
EdgeColorOff
 70
    22
177
     3
291
     1
 70
    58
 90
        2
176
     0
 90
        2
176
     0
 90
        0
176
     0
 90
        0
176
     0
 40
0.6
176
     0
 40
30.0
176
     0
 62
     7
420
 16777215
176
     0
 90
        1
176
     0
 90
        4
176
     0
 62
     7
176
     0
 62
   257
176
     0
 90
        1
176
     0
 90
        1
176
     0
 40
1.0
176
     0
 90
        8
176
     2
 62
     7
176
     0
 40
1.0
176
     0
 90
        1
176
     0
 90
        6
176
     0
 90
        2
176
     0
 62
     7
176
     0
 90
        5
176
     0
 90
        0
176
     0
 90
        0
176
     0
290
     0
176
     0
 90
        1
176
     0
 40
0.0
176
     0
 90
        0
176
     0
290
     0
176
     0
290
     1
176
     0
290
     1
176
     0
290
     0
176
     0
290
     0
176
     0
290
     0
176
     0
290
     0
176
     0
290
     0
176
     0
290
     0
176
     0
 90
       50
176
     0
 40
0.0
176
     0
 40
1.0
176
     0
 90
        0
176
     0
 62
    18
420
        0
176
     0
 90
       50
176
     0
 90
        3
176
     0
 62
     5
420
      255
176
     0
290
     0
176
     0
 90
       50
176
     0
 90
       50
176
     0
 90
       50
176
     0
290
     0
176
     0
 90
       50
176
     0
 62
   256
176
     0
 40
1.0
176
     0
 90
        2
176
     0
  1
strokes_ogs.tif
176
     0
290
     0
176
     0
 40
1.0
176
     0
 40
1.0
176
     0
1001
ACAD
1000
AcDbSavedByObjectVersion
1070
     0
  0
VISUALSTYLE
  5
38
102
{ACAD_REACTORS
330
29
102
}
330
29
100
AcDbVisualStyle
  2
Facepattern
 70
    15
177
     3
291
     1
 70
    58
 90
        2
176
     1
 90
        2
176
     1
 90
        0
176
     1
 90
        0
176
     1
 40
0.6
176
     1
 40
30.0
176
     1
 62
     7
420
 16777215
176
     1
 90
        1
176
     1
 90
        4
176
     1
 62
     7
176
     1
 62
   257
176
     1
 90
        1
176
     1
 90
        1
176
     1
 40
1.0
176
     1
 90
        8
176
     1
 62
     7
176
     1
 40
1.0
176
     1
 90
        1
176
     1
 90
        6
176
     1
 90
        2
176
     1
 62
     7
176
     1
 90
        5
176
     1
 90
        0
176
     1
 90
        0
176
     1
290
     0
176
     1
 90
        1
176
     1
 40
0.0
176
     1
 90
        0
176
     1
290
     0
176
     1
290
     1
176
     1
290
     1
176
     1
290
     0
176
     1
290
     0
176
     1
290
     0
176
     1
290
     0
176
     1
290
     0
176
     1
290
     0
176
     1
 90
       50
176
     1
 40
0.0
176
     1
 40
1.0
176
     1
 90
        0
176
     1
 62
    18
420
        0
176
     1
 90
       50
176
     1
 90
        3
176
     1
 62
     5
420
      255
176
     1
290
     0
176
     1
 90
       50
176
     1
 90
       50
176
     1
 90
       50
176
     1
290
     0
176
     1
 90
       50
176
     1
 62
   256
176
     0
 40
1.0
176
     0
 90
        2
176
     1
  1
strokes_ogs.tif
176
     1
290
     0
176
     1
 40
1.0
176
     1
 40
1.0
176
     1
1001
ACAD
1000
AcDbSavedByObjectVersion
1070
     0
  0
VISUALSTYLE
  5
2A
102
{ACAD_REACTORS
330
29
102
}
330
29
100
AcDbVisualStyle
  2
Flat
 70
     0
177
     3
291
     1
 70
    58
 90
        2
176
     1
 90
        1
176
     1
 90
        1
176
     1
 90
        2
176
     1
 40
0.6
176
     1
 40
30.0
176
     1
 62
     7
420
 16777215
176
     1
 90
        0
176
     1
 90
        0
176
     1
 62
     7
176
     1
 62
   257
176
     1
 90
        1
176
     1
 90
        1
176
     1
 40
1.0
176
     1
 90
        8
176
     1
 62
     7
176
     1
 40
1.0
176
     1
 90
        1
176
     1
 90
        6
176
     1
 90
        2
176
     1
 62
     7
176
     1
 90
        5
176
     1
 90
        0
176
     1
 90
        0
176
     1
290
     0
176
     1
 90
       13
176
     1
 40
0.0
176
     1
 90
        0
176
     1
290
     0
176
     1
290
     1
176
     1
290
     1
176
     1
290
     0
176
     1
290
     0
176
     1
290
     0
176
     1
290
     0
176
     1
290
     0
176
     1
290
     0
176
     1
 90
       50
176
     1
 40
0.0
176
     1
 40
1.0
176
     1
 90
        0
176
     1
 62
    18
420
        0
176
     1
 90
       50
176
     1
 90
        3
176
     1
 62
     5
420
      255
176
     1
290
     0
176
     1
 90
       50
176
     1
 90
       50
176
     1
 90
       50
176
     1
290
     0
176
     1
 90
       50
176
     1
 62
   256
176
     0
 40
1.0
176
     0
 90
        2
176
     1
  1
strokes_ogs.tif
176
     1
290
     0
176
     1
 40
1.0
176
     1
 40
1.0
176
     1
1001
ACAD
1000
AcDbSavedByObjectVersion
1070
     0
  0
VISUALSTYLE
  5
2B
102
{ACAD_REACTORS
330
29
102
}
330
29
100
AcDbVisualStyle
  2
FlatWithEdges
 70
     1
177
     3
291
     1
 70
    58
 90
        2
176
     1
 90
        1
176
     1
 90
        1
176
     1
 90
        2
176
     1
 40
0.6
176
     1
 40
30.0
176
     1
 62
     7
420
 16777215
176
     1
 90
        1
176
     1
 90
        0
176
     1
 62
     7
176
     1
 62
   257
176
     1
 90
        1
176
     1
 90
        1
176
     1
 40
1.0
176
     1
 90
        0
176
     1
 62
   257
176
     1
 40
1.0
176
     1
 90
        1
176
     1
 90
        6
176
     1
 90
        2
176
     1
 62
     7
176
     1
 90
        5
176
     1
 90
        0
176
     1
 90
        0
176
     1
290
     0
176
     1
 90
       13
176
     1
 40
0.0
176
     1
 90
        0
176
     1
290
     0
176
     1
290
     1
176
     1
290
     1
176
     1
290
     0
176
     1
290
     0
176
     1
290
     0
176
     1
290
     0
176
     1
290
     0
176
     1
290
     0
176
     1
 90
       50
176
     1
 40
0.0
176
     1
 40
1.0
176
     1
 90
        0
176
     1
 62
    18
420
        0
176
     1
 90
       50
176
     1
 90
        3
176
     1
 62
     5
420
      255
176
     1
290
     0
176
     1
 90
       50
176
     1
 90
       50
176
     1
 90
       50
176
     1
290
     0
176
     1
 90
       50
176
     1
 62
   256
176
     0
 40
1.0
176
     0
 90
        2
176
     1
  1
strokes_ogs.tif
176
     1
290
     0
176
     1
 40
1.0
176
     1
 40
1.0
176
     1
1001
ACAD
1000
AcDbSavedByObjectVersion
1070
     0
  0
VISUALSTYLE
  5
2C
102
{ACAD_REACTORS
330
29
102
}
330
29
100
AcDbVisualStyle
  2
Gouraud
 70
     2
177
     3
291
     1
 70
    58
 90
        2
176
     1
 90
        2
176
     1
 90
        1
176
     1
 90
        2
176
     1
 40
0.6
176
     1
 40
30.0
176
     1
 62
     7
420
 16777215
176
     1
 90
        0
176
     1
 90
        0
176
     1
 62
     7
176
     1
 62
   257
176
     1
 90
        1
176
     1
 90
        1
176
     1
 40
1.0
176
     1
 90
        0
176
     1
 62
     7
176
     1
 40
1.0
176
     1
 90
        1
176
     1
 90
        6
176
     1
 90
        2
176
     1
 62
     7
176
     1
 90
        5
176
     1
 90
        0
176
     1
 90
        0
176
     1
290
     0
176
     1
 90
       13
176
     1
 40
0.0
176
     1
 90
        0
176
     1
290
     0
176
     1
290
     1
176
     1
290
     1
176
     1
290
     0
176
     1
290
     0
176
     1
290
     0
176
     1
290
     0
176
     1
290
     0
176
     1
290
     0
176
     1
 90
       50
176
     1
 40
0.0
176
     1
 40
1.0
176
     1
 90
        0
176
     1
 62
    18
420
        0
176
     1
 90
       50
176
     1
 90
        3
176
     1
 62
     5
420
      255
176
     1
290
     0
176
     1
 90
       50
176
     1
 90
       50
176
     1
 90
       50
176
     1
290
     0
176
     1
 90
       50
176
     1
 62
   256
176
     0
 40
1.0
176
     0
 90
        2
176
     1
  1
strokes_ogs.tif
176
     1
290
     0
176
     1
 40
1.0
176
     1
 40
1.0
176
     1
1001
ACAD
1000
AcDbSavedByObjectVersion
1070
     0
  0
VISUALSTYLE
  5
2D
102
{ACAD_REACTORS
330
29
102
}
330
29
100
AcDbVisualStyle
  2
GouraudWithEdges
 70
     3
177
     3
291
     1
 70
    58
 90
        2
176
     1
 90
        2
176
     1
 90
        1
176
     1
 90
        2
176
     1
 40
0.6
176
     1
 40
30.0
176
     1
 62
     7
420
 16777215
176
     1
 90
        1
176
     1
 90
        0
176
     1
 62
     7
176
     1
 62
   257
176
     1
 90
        1
176
     1
 90
        1
176
     1
 40
1.0
176
     1
 90
        0
176
     1
 62
   257
176
     1
 40
1.0
176
     1
 90
        1
176
     1
 90
        6
176
     1
 90
        2
176
     1
 62
     7
176
     1
 90
        5
176
     1
 90
        0
176
     1
 90
        0
176
     1
290
     0
176
     1
 90
       13
176
     1
 40
0.0
176
     1
 90
        0
176
     1
290
     0
176
     1
290
     1
176
     1
290
     1
176
     1
290
     0
176
     1
290
     0
176
     1
290
     0
176
     1
290
     0
176
     1
290
     0
176
     1
290
     0
176
     1
 90
       50
176
     1
 40
0.0
176
     1
 40
1.0
176
     1
 90
        0
176
     1
 62
    18
420
        0
176
     1
 90
       50
176
     1
 90
        3
176
     1
 62
     5
420
      255
176
     1
290
     0
176
     1
 90
       50
176
     1
 90
       50
176
     1
 90
       50
176
     1
290
     0
176
     1
 90
       50
176
     1
 62
   256
176
     0
 40
1.0
176
     0
 90
        2
176
     1
  1
strokes_ogs.tif
176
     1
290
     0
176
     1
 40
1.0
176
     1
 40
1.0
176
     1
1001
ACAD
1000
AcDbSavedByObjectVersion
1070
     0
  0
VISUALSTYLE
  5
31
102
{ACAD_REACTORS
330
29
102
}
330
29
100
AcDbVisualStyle
  2
Hidden
 70
     6
177
     3
291
     0
 70
    58
 90
        1
176
     1
 90
        2
176
     1
 90
        2
176
     1
 90
        0
176
     1
 40
0.6
176
     1
 40
30.0
176
     1
 62
     7
420
 16777215
176
     1
 90
        2
176
     1
 90
        2
176
     1
 62
     7
176
     1
 62
   257
176
     1
 90
        2
176
     1
 90
        1
176
     1
 40
40.0
176
     1
 90
        0
176
     1
 62
   257
176
     1
 40
1.0
176
     1
 90
        1
176
     1
 90
        6
176
     1
 90
        2
176
     1
 62
     7
176
     1
 90
        3
176
     1
 90
        0
176
     1
 90
        0
176
     1
290
     0
176
     1
 90
        1
176
     1
 40
0.0
176
     1
 90
        0
176
     1
290
     0
176
     1
290
     1
176
     1
290
     1
176
     1
290
     0
176
     1
290
     0
176
     1
290
     0
176
     1
290
     0
176
     1
290
     0
176
     1
290
     0
176
     1
 90
       50
176
     1
 40
0.0
176
     1
 40
1.0
176
     1
 90
        0
176
     1
 62
    18
420
        0
176
     1
 90
       50
176
     1
 90
        3
176
     1
 62
     5
420
      255
176
     1
290
     0
176
     1
 90
       50
176
     1
 90
       50
176
     1
 90
       50
176
     1
290
     0
176
     1
 90
       50
176
     1
 62
   256
176
     0
 40
1.0
176
     0
 90
        2
176
     1
  1
strokes_ogs.tif
176
     1
290
     0
176
     1
 40
1.0
176
     1
 40
1.0
176
     1
1001
ACAD
1000
AcDbSavedByObjectVersion
1070
     0
  0
VISUALSTYLE
  5
3F
102
{ACAD_REACTORS
330
29
102
}
330
29
100
AcDbVisualStyle
  2
JitterOff
 70
    20
177
     3
291
     1
 70
    58
 90
        2
176
     0
 90
        2
176
     0
 90
        0
176
     0
 90
        0
176
     0
 40
0.6
176
     0
 40
30.0
176
     0
 62
     7
420
 16777215
176
     0
 90
        1
176
     0
 90
        4
176
     0
 62
     7
176
     0
 62
   257
176
     0
 90
        1
176
     0
 90
        1
176
     0
 40
1.0
176
     0
 90
       10
176
     2
 62
     7
176
     0
 40
1.0
176
     0
 90
        1
176
     0
 90
        6
176
     0
 90
        2
176
     0
 62
     7
176
     0
 90
        5
176
     0
 90
        0
176
     0
 90
        0
176
     0
290
     0
176
     0
 90
        1
176
     0
 40
0.0
176
     0
 90
        0
176
     0
290
     0
176
     0
290
     1
176
     0
290
     1
176
     0
290
     0
176
     0
290
     0
176
     0
290
     0
176
     0
290
     0
176
     0
290
     0
176
     0
290
     0
176
     0
 90
       50
176
     0
 40
0.0
176
     0
 40
1.0
176
     0
 90
        0
176
     0
 62
    18
420
        0
176
     0
 90
       50
176
     0
 90
        3
176
     0
 62
     5
420
      255
176
     0
290
     0
176
     0
 90
       50
176
     0
 90
       50
176
     0
 90
       50
176
     0
290
     0
176
     0
 90
       50
176
     0
 62
   256
176
     0
 40
1.0
176
     0
 90
        2
176
     0
  1
strokes_ogs.tif
176
     0
290
     0
176
     0
 40
1.0
176
     0
 40
1.0
176
     0
1001
ACAD
1000
AcDbSavedByObjectVersion
1070
     0
  0
VISUALSTYLE
  5
37
102
{ACAD_REACTORS
330
29
102
}
330
29
100
AcDbVisualStyle
  2
Linepattern
 70
    14
177
     3
291
     1
 70
    58
 90
        2
176
     1
 90
        2
176
     1
 90
        0
176
     1
 90
        0
176
     1
 40
0.6
176
     1
 40
30.0
176
     1
 62
     7
420
 16777215
176
     1
 90
        1
176
     1
 90
        4
176
     1
 62
     7
176
     1
 62
   257
176
     1
 90
        7
176
     1
 90
        7
176
     1
 40
1.0
176
     1
 90
        8
176
     1
 62
     7
176
     1
 40
1.0
176
     1
 90
        1
176
     1
 90
        6
176
     1
 90
        2
176
     1
 62
     7
176
     1
 90
        5
176
     1
 90
        0
176
     1
 90
        0
176
     1
290
     0
176
     1
 90
        1
176
     1
 40
0.0
176
     1
 90
        0
176
     1
290
     0
176
     1
290
     1
176
     1
290
     1
176
     1
290
     0
176
     1
290
     0
176
     1
290
     0
176
     1
290
     0
176
     1
290
     0
176
     1
290
     0
176
     1
 90
       50
176
     1
 40
0.0
176
     1
 40
1.0
176
     1
 90
        0
176
     1
 62
    18
420
        0
176
     1
 90
       50
176
     1
 90
        3
176
     1
 62
     5
420
      255
176
     1
290
     0
176
     1
 90
       50
176
     1
 90
       50
176
     1
 90
       50
176
     1
290
     0
176
     1
 90
       50
176
     1
 62
   256
176
     0
 40
1.0
176
     0
 90
        2
176
     1
  1
strokes_ogs.tif
176
     1
290
     0
176
     1
 40
1.0
176
     1
 40
1.0
176
     1
1001
ACAD
1000
AcDbSavedByObjectVersion
1070
     0
  0
VISUALSTYLE
  5
40
102
{ACAD_REACTORS
330
29
102
}
330
29
100
AcDbVisualStyle
  2
OverhangOff
 70
    21
177
     3
291
     1
 70
    58
 90
        2
176
     0
 90
        2
176
     0
 90
        0
176
     0
 90
        0
176
     0
 40
0.6
176
     0
 40
30.0
176
     0
 62
     7
420
 16777215
176
     0
 90
        1
176
     0
 90
        4
176
     0
 62
     7
176
     0
 62
   257
176
     0
 90
        1
176
     0
 90
        1
176
     0
 40
1.0
176
     0
 90
        9
176
     2
 62
     7
176
     0
 40
1.0
176
     0
 90
        1
176
     0
 90
        6
176
     0
 90
        2
176
     0
 62
     7
176
     0
 90
        5
176
     0
 90
        0
176
     0
 90
        0
176
     0
290
     0
176
     0
 90
        1
176
     0
 40
0.0
176
     0
 90
        0
176
     0
290
     0
176
     0
290
     1
176
     0
290
     1
176
     0
290
     0
176
     0
290
     0
176
     0
290
     0
176
     0
290
     0
176
     0
290
     0
176
     0
290
     0
176
     0
 90
       50
176
     0
 40
0.0
176
     0
 40
1.0
176
     0
 90
        0
176
     0
 62
    18
420
        0
176
     0
 90
       50
176
     0
 90
        3
176
     0
 62
     5
420
      255
176
     0
290
     0
176
     0
 90
       50
176
     0
 90
       50
176
     0
 90
       50
176
     0
290
     0
176
     0
 90
       50
176
     0
 62
   256
176
     0
 40
1.0
176
     0
 90
        2
176
     0
  1
strokes_ogs.tif
176
     0
290
     0
176
     0
 40
1.0
176
     0
 40
1.0
176
     0
1001
ACAD
1000
AcDbSavedByObjectVersion
1070
     0
  0
VISUALSTYLE
  5
33
102
{ACAD_REACTORS
330
29
102
}
330
29
100
AcDbVisualStyle
  2
Realistic
 70
     8
177
     3
291
     0
 70
    58
 90
        2
176
     1
 90
        3
176
     1
 90
        0
176
     1
 90
        2
176
     1
 40
0.6
176
     1
 40
30.0
176
     1
 62
     7
420
 16777215
176
     1
 90
        0
176
     1
 90
        0
176
     1
 62
     7
176
     1
 62
   257
176
     1
 90
        1
176
     1
 90
        1
176
     1
 40
1.0
176
     1
 90
        8
176
     1
 62
   257
176
     1
 40
1.0
176
     1
 90
        1
176
     1
 90
        6
176
     1
 90
        2
176
     1
 62
     7
176
     1
 90
        3
176
     1
 90
        0
176
     1
 90
        0
176
     1
290
     0
176
     1
 90
       13
176
     1
 40
0.0
176
     1
 90
        0
176
     1
290
     0
176
     1
290
     1
176
     1
290
     1
176
     1
290
     0
176
     1
290
     0
176
     1
290
     0
176
     1
290
     0
176
     1
290
     0
176
     1
290
     0
176
     1
 90
       50
176
     1
 40
0.0
176
     1
 40
1.0
176
     1
 90
        0
176
     1
 62
    18
420
        0
176
     1
 90
       50
176
     1
 90
        3
176
     1
 62
     5
420
      255
176
     1
290
     0
176
     1
 90
       50
176
     1
 90
       50
176
     1
 90
       50
176
     1
290
     0
176
     1
 90
       50
176
     1
 62
   256
176
     0
 40
1.0
176
     0
 90
        2
176
     1
  1
strokes_ogs.tif
176
     1
290
     0
176
     1
 40
1.0
176
     1
 40
1.0
176
     1
1001
ACAD
1000
AcDbSavedByObjectVersion
1070
     0
  0
VISUALSTYLE
  5
3E
102
{ACAD_REACTORS
330
29
102
}
330
29
100
AcDbVisualStyle
  2
Shaded
 70
    27
177
     3
291
     0
 70
    58
 90
        2
176
     1
 90
        2
176
     1
 90
        1
176
     1
 90
        2
176
     1
 40
0.6
176
     1
 40
30.0
176
     1
 62
     7
420
 16777215
176
     1
 90
        0
176
     1
 90
        4
176
     1
 62
     7
176
     1
 62
   257
176
     1
 90
        1
176
     1
 90
        1
176
     1
 40
1.0
176
     1
 90
        8
176
     1
 62
   257
176
     1
 40
1.0
176
     1
 90
        1
176
     1
 90
        6
176
     1
 90
        2
176
     1
 62
     8
420
  7895160
176
     1
 90
        3
176
     1
 90
        0
176
     1
 90
        0
176
     1
290
     0
176
     1
 90
        5
176
     1
 40
0.0
176
     1
 90
        0
176
     1
290
     0
176
     1
290
     1
176
     1
290
     1
176
     1
290
     0
176
     1
290
     0
176
     1
290
     0
176
     1
290
     0
176
     1
290
     0
176
     1
290
     0
176
     1
 90
       50
176
     1
 40
0.0
176
     1
 40
1.0
176
     1
 90
        0
176
     1
 62
    18
420
        0
176
     1
 90
       50
176
     1
 90
        3
176
     1
 62
     5
420
      255
176
     1
290
     0
176
     1
 90
       50
176
     1
 90
       50
176
     1
 90
       50
176
     1
290
     0
176
     1
 90
       50
176
     1
 62
   256
176
     0
 40
1.0
176
     0
 90
        2
176
     1
  1
strokes_ogs.tif
176
     1
290
     0
176
     1
 40
1.0
176
     1
 40
1.0
176
     1
1001
ACAD
1000
AcDbSavedByObjectVersion
1070
     0
  0
VISUALSTYLE
  5
3D
102
{ACAD_REACTORS
330
29
102
}
330
29
100
AcDbVisualStyle
  2
Shaded with edges
 70
    26
177
     3
291
     0
 70
    58
 90
        2
176
     1
 90
        2
176
     1
 90
        1
176
     1
 90
        2
176
     1
 40
0.6
176
     1
 40
30.0
176
     1
 62
     7
420
 16777215
176
     1
 90
        1
176
     1
 90
        2
176
     1
 62
     7
176
     1
 62
   257
176
     1
 90
        2
176
     1
 90
        1
176
     1
 40
1.0
176
     1
 90
        8
176
     1
 62
   257
176
     1
 40
1.0
176
     1
 90
        1
176
     1
 90
        6
176
     1
 90
        2
176
     1
 62
     7
176
     1
 90
        3
176
     1
 90
        0
176
     1
 90
        0
176
     1
290
     0
176
     1
 90
        5
176
     1
 40
0.0
176
     1
 90
        0
176
     1
290
     0
176
     1
290
     1
176
     1
290
     1
176
     1
290
     0
176
     1
290
     0
176
     1
290
     0
176
     1
290
     0
176
     1
290
     0
176
     1
290
     0
176
     1
 90
       50
176
     1
 40
0.0
176
     1
 40
1.0
176
     1
 90
        0
176
     1
 62
    18
420
        0
176
     1
 90
       50
176
     1
 90
        3
176
     1
 62
     5
420
      255
176
     1
290
     0
176
     1
 90
       50
176
     1
 90
       50
176
     1
 90
       50
176
     1
290
     0
176
     1
 90
       50
176
     1
 62
   256
176
     0
 40
1.0
176
     0
 90
        2
176
     1
  1
strokes_ogs.tif
176
     1
290
     0
176
     1
 40
1.0
176
     1
 40
1.0
176
     1
1001
ACAD
1000
AcDbSavedByObjectVersion
1070
     0
  0
VISUALSTYLE
  5
3A
102
{ACAD_REACTORS
330
29
102
}
330
29
100
AcDbVisualStyle
  2
Shades of Gray
 70
    23
177
     3
291
     0
 70
    58
 90
        2
176
     1
 90
        2
176
     1
 90
        3
176
     1
 90
        0
176
     1
 40
0.6
176
     1
 40
30.0
176
     1
 62
     7
420
 16777215
176
     1
 90
        2
176
     1
 90
        2
176
     1
 62
     7
176
     1
 62
     7
176
     1
 90
        1
176
     1
 90
        1
176
     1
 40
40.0
176
     1
 90
        8
176
     1
 62
     7
176
     1
 40
1.0
176
     1
 90
        1
176
     1
 90
        6
176
     1
 90
        2
176
     1
 62
     7
176
     1
 90
        3
176
     1
 90
        0
176
     1
 90
        0
176
     1
290
     0
176
     1
 90
        1
176
     1
 40
0.0
176
     1
 90
        0
176
     1
290
     0
176
     1
290
     1
176
     1
290
     1
176
     1
290
     0
176
     1
290
     0
176
     1
290
     0
176
     1
290
     0
176
     1
290
     0
176
     1
290
     0
176
     1
 90
       50
176
     1
 40
0.0
176
     1
 40
1.0
176
     1
 90
        0
176
     1
 62
    18
420
        0
176
     1
 90
       50
176
     1
 90
        3
176
     1
 62
     5
420
      255
176
     1
290
     0
176
     1
 90
       50
176
     1
 90
       50
176
     1
 90
       50
176
     1
290
     0
176
     1
 90
       50
176
     1
 62
   256
176
     0
 40
1.0
176
     0
 90
        2
176
     1
  1
strokes_ogs.tif
176
     1
290
     0
176
     1
 40
1.0
176
     1
 40
1.0
176
     1
1001
ACAD
1000
AcDbSavedByObjectVersion
1070
     0
  0
VISUALSTYLE
  5
3B
102
{ACAD_REACTORS
330
29
102
}
330
29
100
AcDbVisualStyle
  2
Sketchy
 70
    24
177
     3
291
     0
 70
    58
 90
        1
176
     1
 90
        2
176
     1
 90
        2
176
     1
 90
        0
176
     1
 40
0.6
176
     1
 40
30.0
176
     1
 62
     7
420
 16777215
176
     1
 90
        2
176
     1
 90
        2
176
     1
 62
     7
176
     1
 62
     7
176
     1
 90
        1
176
     1
 90
        1
176
     1
 40
40.0
176
     1
 90
       11
176
     1
 62
     7
176
     1
 40
1.0
176
     1
 90
        1
176
     1
 90
        6
176
     1
 90
        2
176
     1
 62
     7
176
     1
 90
        6
176
     1
 90
        0
176
     1
 90
        0
176
     1
290
     0
176
     1
 90
        1
176
     1
 40
0.0
176
     1
 90
        0
176
     1
290
     0
176
     1
290
     1
176
     1
290
     1
176
     1
290
     0
176
     1
290
     0
176
     1
290
     0
176
     1
290
     0
176
     1
290
     0
176
     1
290
     0
176
     1
 90
       50
176
     1
 40
0.0
176
     1
 40
1.0
176
     1
 90
        0
176
     1
 62
    18
420
        0
176
     1
 90
       50
176
     1
 90
        3
176
     1
 62
     5
420
      255
176
     1
290
     0
176
     1
 90
       50
176
     1
 90
       50
176
     1
 90
       50
176
     1
290
     0
176
     1
 90
       50
176
     1
 62
   256
176
     0
 40
1.0
176
     0
 90
        2
176
     1
  1
strokes_ogs.tif
176
     1
290
     0
176
     1
 40
1.0
176
     1
 40
1.0
176
     1
1001
ACAD
1000
AcDbSavedByObjectVersion
1070
     0
  0
VISUALSTYLE
  5
36
102
{ACAD_REACTORS
330
29
102
}
330
29
100
AcDbVisualStyle
  2
Thicken
 70
    13
177
     3
291
     1
 70
    58
 90
        2
176
     1
 90
        2
176
     1
 90
        0
176
     1
 90
        0
176
     1
 40
0.6
176
     1
 40
30.0
176
     1
 62
     7
420
 16777215
176
     1
 90
        1
176
     1
 90
        4
176
     1
 62
     7
176
     1
 62
   257
176
     1
 90
        1
176
     1
 90
        1
176
     1
 40
1.0
176
     1
 90
       12
176
     1
 62
     7
176
     1
 40
1.0
176
     1
 90
        1
176
     1
 90
        6
176
     1
 90
        2
176
     1
 62
     7
176
     1
 90
        5
176
     1
 90
        0
176
     1
 90
        0
176
     1
290
     0
176
     1
 90
        1
176
     1
 40
0.0
176
     1
 90
        0
176
     1
290
     0
176
     1
290
     1
176
     1
290
     1
176
     1
290
     0
176
     1
290
     0
176
     1
290
     0
176
     1
290
     0
176
     1
290
     0
176
     1
290
     0
176
     1
 90
       50
176
     1
 40
0.0
176
     1
 40
1.0
176
     1
 90
        0
176
     1
 62
    18
420
        0
176
     1
 90
       50
176
     1
 90
        3
176
     1
 62
     5
420
      255
176
     1
290
     0
176
     1
 90
       50
176
     1
 90
       50
176
     1
 90
       50
176
     1
290
     0
176
     1
 90
       50
176
     1
 62
   256
176
     0
 40
1.0
176
     0
 90
        2
176
     1
  1
strokes_ogs.tif
176
     1
290
     0
176
     1
 40
1.0
176
     1
 40
1.0
176
     1
1001
ACAD
1000
AcDbSavedByObjectVersion
1070
     0
  0
VISUALSTYLE
  5
30
102
{ACAD_REACTORS
330
29
102
}
330
29
100
AcDbVisualStyle
  2
Wireframe
 70
     5
177
     3
291
     0
 70
    58
 90
        0
176
     1
 90
        2
176
     1
 90
        0
176
     1
 90
        0
176
     1
 40
0.6
176
     1
 40
30.0
176
     1
 62
     7
420
 16777215
176
     1
 90
        1
176
     1
 90
        4
176
     1
 62
     7
176
     1
 62
   257
176
     1
 90
        1
176
     1
 90
        1
176
     1
 40
1.0
176
     1
 90
        0
176
     1
 62
   257
176
     1
 40
1.0
176
     1
 90
        1
176
     1
 90
        6
176
     1
 90
        2
176
     1
 62
     7
176
     1
 90
        3
176
     1
 90
        0
176
     1
 90
        0
176
     1
290
     0
176
     1
 90
        1
176
     1
 40
0.0
176
     1
 90
        0
176
     1
290
     0
176
     1
290
     1
176
     1
290
     1
176
     1
290
     0
176
     1
290
     0
176
     1
290
     0
176
     1
290
     0
176
     1
290
     0
176
     1
290
     0
176
     1
 90
       50
176
     1
 40
0.0
176
     1
 40
1.0
176
     1
 90
        0
176
     1
 62
    18
420
        0
176
     1
 90
       50
176
     1
 90
        3
176
     1
 62
     5
420
      255
176
     1
290
     0
176
     1
 90
       50
176
     1
 90
       50
176
     1
 90
       50
176
     1
290
     0
176
     1
 90
       50
176
     1
 62
   256
176
     0
 40
1.0
176
     0
 90
        2
176
     1
  1
strokes_ogs.tif
176
     1
290
     0
176
     1
 40
1.0
176
     1
 40
1.0
176
     1
1001
ACAD
1000
AcDbSavedByObjectVersion
1070
     0
  0
VISUALSTYLE
  5
3C
102
{ACAD_REACTORS
330
29
102
}
330
29
100
AcDbVisualStyle
  2
X-Ray
 70
    25
177
     3
291
     0
 70
    58
 90
        2
176
     1
 90
        2
176
     1
 90
        1
176
     1
 90
        1
176
     1
 40
0.5
176
     1
 40
30.0
176
     1
 62
     7
420
 16777215
176
     1
 90
        1
176
     1
 90
        0
176
     1
 62
     7
176
     1
 62
   257
176
     1
 90
        1
176
     1
 90
        1
176
     1
 40
1.0
176
     1
 90
        8
176
     1
 62
     7
176
     1
 40
1.0
176
     1
 90
        1
176
     1
 90
        6
176
     1
 90
        2
176
     1
 62
     7
176
     1
 90
        3
176
     1
 90
        0
176
     1
 90
        0
176
     1
290
     0
176
     1
 90
       13
176
     1
 40
0.0
176
     1
 90
        0
176
     1
290
     0
176
     1
290
     1
176
     1
290
     1
176
     1
290
     0
176
     1
290
     0
176
     1
290
     0
176
     1
290
     0
176
     1
290
     0
176
     1
290
     0
176
     1
 90
       50
176
     1
 40
0.0
176
     1
 40
1.0
176
     1
 90
        0
176
     1
 62
    18
420
        0
176
     1
 90
       50
176
     1
 90
        3
176
     1
 62
     5
420
      255
176
     1
290
     0
176
     1
 90
       50
176
     1
 90
       50
176
     1
 90
       50
176
     1
290
     0
176
     1
 90
       50
176
     1
 62
   256
176
     0
 40
1.0
176
     0
 90
        2
176
     1
  1
strokes_ogs.tif
176
     1
290
     0
176
     1
 40
1.0
176
     1
 40
1.0
176
     1
1001
ACAD
1000
AcDbSavedByObjectVersion
1070
     0
  0
DICTIONARYVAR
  5
A3
102
{ACAD_REACTORS
330
9E
102
}
330
9E
100
DictionaryVariables
280
     0
  1
1:1
  0
DICTIONARYVAR
  5
A0
102
{ACAD_REACTORS
330
9E
102
}
330
9E
100
DictionaryVariables
280
     0
  1
STANDARD
  0
DICTIONARYVAR
  5
9F
102
{ACAD_REACTORS
330
9E
102
}
330
9E
100
DictionaryVariables
280
     0
  1
STANDARD
  0
DICTIONARYVAR
  5
A1
102
{ACAD_REACTORS
330
9E
102
}
330
9E
100
DictionaryVariables
280
     0
  1
Imperial24
  0
DICTIONARYVAR
  5
A2
102
{ACAD_REACTORS
330
9E
102
}
330
9E
100
DictionaryVariables
280
     0
  1
Imperial24
  0
DICTIONARY
  5
A9
330
6B
100
AcDbDictionary
280
     1
281
     1
  3
ACAD_XREC_ROUNDTRIP
360
AA
  0
DICTIONARY
  5
1A
330
19
100
AcDbDictionary
280
     1
281
     1
  3
BUMPTILE
360
1C
  3
DIFFUSETILE
360
1B
  3
OPACITYTILE
360
1F
  3
REFLECTIONTILE
360
1E
  3
REFRACTIONTILE
360
20
  3
SPECULARTILE
360
1D
  0
DICTIONARY
  5
12
330
11
100
AcDbDictionary
280
     1
281
     1
  3
BUMPTILE
360
14
  3
DIFFUSETILE
360
13
  3
OPACITYTILE
360
17
  3
REFLECTIONTILE
360
16
  3
REFRACTIONTILE
360
18
  3
SPECULARTILE
360
15
  0
DICTIONARY
  5
22
330
21
100
AcDbDictionary
280
     1
281
     1
  3
BUMPTILE
360
24
  3
DIFFUSETILE
360
23
  3
OPACITYTILE
360
27
  3
REFLECTIONTILE
360
26
  3
REFRACTIONTILE
360
28
  3
SPECULARTILE
360
25
  0
DICTIONARY
  5
A7
330
69
100
AcDbDictionary
280
     1
281
     1
  3
ACAD_XREC_ROUNDTRIP
360
A8
  0
DICTIONARY
  5
A4
330
65
100
AcDbDictionary
280
     1
281
     1
  3
ACAD_ROUNDTRIP_2008_TABLESTYLE_CELLSTYLEMAP
360
A5
  0
XRECORD
  5
AA
102
{ACAD_REACTORS
330
A9
102
}
330
A9
100
AcDbXrecord
280
     1
102
DISPLAYNAME
  1
Imperial24
102
FLAGS
 90
        0
  0
XRECORD
  5
1C
102
{ACAD_REACTORS
330
1A
102
}
330
1A
100
AcDbXrecord
280
     1
270
     1
271
     1
  0
XRECORD
  5
1B
102
{ACAD_REACTORS
330
1A
102
}
330
1A
100
AcDbXrecord
280
     1
270
     1
271
     1
  0
XRECORD
  5
1F
102
{ACAD_REACTORS
330
1A
102
}
330
1A
100
AcDbXrecord
280
     1
270
     1
271
     1
  0
XRECORD
  5
1E
102
{ACAD_REACTORS
330
1A
102
}
330
1A
100
AcDbXrecord
280
     1
270
     1
271
     1
  0
XRECORD
  5
20
102
{ACAD_REACTORS
330
1A
102
}
330
1A
100
AcDbXrecord
280
     1
270
     1
271
     1
  0
XRECORD
  5
1D
102
{ACAD_REACTORS
330
1A
102
}
330
1A
100
AcDbXrecord
280
     1
270
     1
271
     1
  0
XRECORD
  5
14
102
{ACAD_REACTORS
330
12
102
}
330
12
100
AcDbXrecord
280
     1
270
     1
271
     1
  0
XRECORD
  5
13
102
{ACAD_REACTORS
330
12
102
}
330
12
100
AcDbXrecord
280
     1
270
     1
271
     1
  0
XRECORD
  5
17
102
{ACAD_REACTORS
330
12
102
}
330
12
100
AcDbXrecord
280
     1
270
     1
271
     1
  0
XRECORD
  5
16
102
{ACAD_REACTORS
330
12
102
}
330
12
100
AcDbXrecord
280
     1
270
     1
271
     1
  0
XRECORD
  5
18
102
{ACAD_REACTORS
330
12
102
}
330
12
100
AcDbXrecord
280
     1
270
     1
271
     1
  0
XRECORD
  5
15
102
{ACAD_REACTORS
330
12
102
}
330
12
100
AcDbXrecord
280
     1
270
     1
271
     1
  0
XRECORD
  5
24
102
{ACAD_REACTORS
330
22
102
}
330
22
100
AcDbXrecord
280
     1
270
     1
271
     1
  0
XRECORD
  5
23
102
{ACAD_REACTORS
330
22
102
}
330
22
100
AcDbXrecord
280
     1
270
     1
271
     1
  0
XRECORD
  5
27
102
{ACAD_REACTORS
330
22
102
}
330
22
100
AcDbXrecord
280
     1
270
     1
271
     1
  0
XRECORD
  5
26
102
{ACAD_REACTORS
330
22
102
}
330
22
100
AcDbXrecord
280
     1
270
     1
271
     1
  0
XRECORD
  5
28
102
{ACAD_REACTORS
330
22
102
}
330
22
100
AcDbXrecord
280
     1
270
     1
271
     1
  0
XRECORD
  5
25
102
{ACAD_REACTORS
330
22
102
}
330
22
100
AcDbXrecord
280
     1
270
     1
271
     1
  0
XRECORD
  5
A8
102
{ACAD_REACTORS
330
A7
102
}
330
A7
100
AcDbXrecord
280
     1
102
DISPLAYNAME
  1
Imperial24
102
FLAGS
 90
        0
  0
CELLSTYLEMAP
  5
A5
102
{ACAD_REACTORS
330
A4
102
}
330
A4
100
AcDbCellStyleMap
 90
        3
300
CELLSTYLE
  1
TABLEFORMAT_BEGIN
 90
        5
170
     1
 91
        0
 92
    32768
 62
   257
 93
        1
300
CONTENTFORMAT
  1
CONTENTFORMAT_BEGIN
 90
        0
 91
        0
 92
      512
 93
        0
300

 40
0.0
140
1.0
 94
        5
 62
     0
340
55
144
0.25
309
CONTENTFORMAT_END
171
     0
 94
        0
309
TABLEFORMAT_END
  1
CELLSTYLE_BEGIN
 90
        1
 91
        1
300
_TITLE
309
CELLSTYLE_END
300
CELLSTYLE
  1
TABLEFORMAT_BEGIN
 90
        5
170
     1
 91
        0
 92
        0
 62
   257
 93
        1
300
CONTENTFORMAT
  1
CONTENTFORMAT_BEGIN
 90
        0
 91
        0
 92
      512
 93
        0
300

 40
0.0
140
1.0
 94
        5
 62
     0
340
55
144
0.18
309
CONTENTFORMAT_END
171
     0
 94
        0
309
TABLEFORMAT_END
  1
CELLSTYLE_BEGIN
 90
        2
 91
        1
300
_HEADER
309
CELLSTYLE_END
300
CELLSTYLE
  1
TABLEFORMAT_BEGIN
 90
        5
170
     1
 91
        0
 92
        0
 62
   257
 93
        1
300
CONTENTFORMAT
  1
CONTENTFORMAT_BEGIN
 90
        0
 91
        0
 92
      512
 93
        0
300

 40
0.0
140
1.0
 94
        2
 62
     0
340
55
144
0.18
309
CONTENTFORMAT_END
171
     0
 94
        0
309
TABLEFORMAT_END
  1
CELLSTYLE_BEGIN
 90
        3
 91
        2
300
_DATA
309
CELLSTYLE_END
  0
ENDSEC
  0
EOF
