  0
SECTION
  2
HEADER
  9
$ACADVER
  1
AC1027
  9
$ACADMAINTVER
 70
   125
  9
$DWGCODEPAGE
  3
ANSI_1252
  9
$REQUIREDVERSIONS
160
                 0
  9
$INSBASE
 10
0.0
 20
0.0
 30
0.0
  9
$EXTMIN
 10
1.000000000000000E+20
 20
1.000000000000000E+20
 30
1.000000000000000E+20
  9
$EXTMAX
 10
-1.000000000000000E+20
 20
-1.000000000000000E+20
 30
-1.000000000000000E+20
  9
$LIMMIN
 10
0.0
 20
0.0
  9
$LIMMAX
 10
12.0
 20
9.0
  9
$ORTHOMODE
 70
     0
  9
$REGENMODE
 70
     1
  9
$FILLMODE
 70
     1
  9
$QTEXTMODE
 70
     0
  9
$MIRRTEXT
 70
     0
  9
$LTSCALE
 40
1.0
  9
$ATTMODE
 70
     1
  9
$TEXTSIZE
 40
0.2
  9
$TRACEWID
 40
0.05
  9
$TEXTSTYLE
  7
Standard
  9
$CLAYER
  8
0
  9
$CELTYPE
  6
ByLayer
  9
$CECOLOR
 62
   256
  9
$CELTSCALE
 40
1.0
  9
$DISPSILH
 70
     0
  9
$DIMSCALE
 40
1.0
  9
$DIMASZ
 40
0.18
  9
$DIMEXO
 40
0.0625
  9
$DIMDLI
 40
0.38
  9
$DIMRND
 40
0.0
  9
$DIMDLE
 40
0.0
  9
$DIMEXE
 40
0.18
  9
$DIMTP
 40
0.0
  9
$DIMTM
 40
0.0
  9
$DIMTXT
 40
0.18
  9
$DIMCEN
 40
0.09
  9
$DIMTSZ
 40
0.0
  9
$DIMTOL
 70
     0
  9
$DIMLIM
 70
     0
  9
$DIMTIH
 70
     1
  9
$DIMTOH
 70
     1
  9
$DIMSE1
 70
     0
  9
$DIMSE2
 70
     0
  9
$DIMTAD
 70
     0
  9
$DIMZIN
 70
     0
  9
$DIMBLK
  1

  9
$DIMASO
 70
     1
  9
$DIMSHO
 70
     1
  9
$DIMPOST
  1

  9
$DIMAPOST
  1

  9
$DIMALT
 70
     0
  9
$DIMALTD
 70
     2
  9
$DIMALTF
 40
25.4
  9
$DIMLFAC
 40
1.0
  9
$DIMTOFL
 70
     0
  9
$DIMTVP
 40
0.0
  9
$DIMTIX
 70
     0
  9
$DIMSOXD
 70
     0
  9
$DIMSAH
 70
     0
  9
$DIMBLK1
  1

  9
$DIMBLK2
  1

  9
$DIMSTYLE
  2
Standard
  9
$DIMCLRD
 70
     0
  9
$DIMCLRE
 70
     0
  9
$DIMCLRT
 70
     0
  9
$DIMTFAC
 40
1.0
  9
$DIMGAP
 40
0.09
  9
$DIMJUST
 70
     0
  9
$DIMSD1
 70
     0
  9
$DIMSD2
 70
     0
  9
$DIMTOLJ
 70
     1
  9
$DIMTZIN
 70
     0
  9
$DIMALTZ
 70
     0
  9
$DIMALTTZ
 70
     0
  9
$DIMUPT
 70
     0
  9
$DIMDEC
 70
     4
  9
$DIMTDEC
 70
     4
  9
$DIMALTU
 70
     2
  9
$DIMALTTD
 70
     2
  9
$DIMTXSTY
  7
Standard
  9
$DIMAUNIT
 70
     0
  9
$DIMADEC
 70
     0
  9
$DIMALTRND
 40
0.0
  9
$DIMAZIN
 70
     0
  9
$DIMDSEP
 70
    46
  9
$DIMATFIT
 70
     3
  9
$DIMFRAC
 70
     0
  9
$DIMLDRBLK
  1

  9
$DIMLUNIT
 70
     2
  9
$DIMLWD
 70
    -2
  9
$DIMLWE
 70
    -2
  9
$DIMTMOVE
 70
     0
  9
$DIMFXL
 40
1.0
  9
$DIMFXLON
 70
     0
  9
$DIMJOGANG
 40
0.7853981633974483
  9
$DIMTFILL
 70
     0
  9
$DIMTFILLCLR
 70
     0
  9
$DIMARCSYM
 70
     0
  9
$DIMLTYPE
  6

  9
$DIMLTEX1
  6

  9
$DIMLTEX2
  6

  9
$DIMTXTDIRECTION
 70
     0
  9
$LUNITS
 70
     2
  9
$LUPREC
 70
     4
  9
$SKETCHINC
 40
0.1
  9
$FILLETRAD
 40
0.0
  9
$AUNITS
 70
     0
  9
$AUPREC
 70
     0
  9
$MENU
  1
.
  9
$ELEVATION
 40
0.0
  9
$PELEVATION
 40
0.0
  9
$THICKNESS
 40
0.0
  9
$LIMCHECK
 70
     0
  9
$CHAMFERA
 40
0.0
  9
$CHAMFERB
 40
0.0
  9
$CHAMFERC
 40
0.0
  9
$CHAMFERD
 40
0.0
  9
$SKPOLY
 70
     0
  9
$TDCREATE
 40
2460412.796817129
  9
$TDUCREATE
 40
2460412.755150463
  9
$TDUPDATE
 40
2460412.796817129
  9
$TDUUPDATE
 40
2460412.755150463
  9
$TDINDWG
 40
0.0000000000
  9
$TDUSRTIMER
 40
0.0000000000
  9
$USRTIMER
 70
     1
  9
$ANGBASE
 50
0.0
  9
$ANGDIR
 70
     0
  9
$PDMODE
 70
     0
  9
$PDSIZE
 40
0.0
  9
$PLINEWID
 40
0.0
  9
$SPLFRAME
 70
     0
  9
$SPLINETYPE
 70
     6
  9
$SPLINESEGS
 70
     8
  9
$HANDSEED
  5
9E
  9
$SURFTAB1
 70
     6
  9
$SURFTAB2
 70
     6
  9
$SURFTYPE
 70
     6
  9
$SURFU
 70
     6
  9
$SURFV
 70
     6
  9
$UCSBASE
  2

  9
$UCSNAME
  2

  9
$UCSORG
 10
0.0
 20
0.0
 30
0.0
  9
$UCSXDIR
 10
1.0
 20
0.0
 30
0.0
  9
$UCSYDIR
 10
0.0
 20
1.0
 30
0.0
  9
$UCSORTHOREF
  2

  9
$UCSORTHOVIEW
 70
     0
  9
$UCSORGTOP
 10
0.0
 20
0.0
 30
0.0
  9
$UCSORGBOTTOM
 10
0.0
 20
0.0
 30
0.0
  9
$UCSORGLEFT
 10
0.0
 20
0.0
 30
0.0
  9
$UCSORGRIGHT
 10
0.0
 20
0.0
 30
0.0
  9
$UCSORGFRONT
 10
0.0
 20
0.0
 30
0.0
  9
$UCSORGBACK
 10
0.0
 20
0.0
 30
0.0
  9
$PUCSBASE
  2

  9
$PUCSNAME
  2

  9
$PUCSORG
 10
0.0
 20
0.0
 30
0.0
  9
$PUCSXDIR
 10
1.0
 20
0.0
 30
0.0
  9
$PUCSYDIR
 10
0.0
 20
1.0
 30
0.0
  9
$PUCSORTHOREF
  2

  9
$PUCSORTHOVIEW
 70
     0
  9
$PUCSORGTOP
 10
0.0
 20
0.0
 30
0.0
  9
$PUCSORGBOTTOM
 10
0.0
 20
0.0
 30
0.0
  9
$PUCSORGLEFT
 10
0.0
 20
0.0
 30
0.0
  9
$PUCSORGRIGHT
 10
0.0
 20
0.0
 30
0.0
  9
$PUCSORGFRONT
 10
0.0
 20
0.0
 30
0.0
  9
$PUCSORGBACK
 10
0.0
 20
0.0
 30
0.0
  9
$USERI1
 70
     0
  9
$USERI2
 70
     0
  9
$USERI3
 70
     0
  9
$USERI4
 70
     0
  9
$USERI5
 70
     0
  9
$USERR1
 40
0.0
  9
$USERR2
 40
0.0
  9
$USERR3
 40
0.0
  9
$USERR4
 40
0.0
  9
$USERR5
 40
0.0
  9
$WORLDVIEW
 70
     1
  9
$SHADEDGE
 70
     3
  9
$SHADEDIF
 70
    70
  9
$TILEMODE
 70
     1
  9
$MAXACTVP
 70
    64
  9
$PINSBASE
 10
0.0
 20
0.0
 30
0.0
  9
$PLIMCHECK
 70
     0
  9
$PEXTMIN
 10
1.000000000000000E+20
 20
1.000000000000000E+20
 30
1.000000000000000E+20
  9
$PEXTMAX
 10
-1.000000000000000E+20
 20
-1.000000000000000E+20
 30
-1.000000000000000E+20
  9
$PLIMMIN
 10
0.0
 20
0.0
  9
$PLIMMAX
 10
12.0
 20
9.0
  9
$UNITMODE
 70
     0
  9
$VISRETAIN
 70
     1
  9
$PLINEGEN
 70
     0
  9
$PSLTSCALE
 70
     1
  9
$TREEDEPTH
 70
  3020
  9
$CMLSTYLE
  2
Standard
  9
$CMLJUST
 70
     0
  9
$CMLSCALE
 40
1.0
  9
$PROXYGRAPHICS
 70
     1
  9
$MEASUREMENT
 70
     0
  9
$CELWEIGHT
370
    -1
  9
$ENDCAPS
280
     0
  9
$JOINSTYLE
280
     0
  9
$LWDISPLAY
290
     1
  9
$INSUNITS
 70
     4
  9
$HYPERLINKBASE
  1

  9
$STYLESHEET
  1

  9
$XEDIT
290
     1
  9
$CEPSNTYPE
380
     0
  9
$PSTYLEMODE
290
     1
  9
$FINGERPRINTGUID
  2
{213C1D0D-64F9-B640-B423-7811D6CAB126}
  9
$VERSIONGUID
  2
{E3B32A05-6140-FC44-8281-2CB84C1E18B0}
  9
$EXTNAMES
290
     1
  9
$PSVPSCALE
 40
0.0
  9
$OLESTARTUP
290
     0
  9
$SORTENTS
280
   127
  9
$INDEXCTL
280
     0
  9
$HIDETEXT
280
     1
  9
$XCLIPFRAME
280
     2
  9
$HALOGAP
280
     0
  9
$OBSCOLOR
 70
   257
  9
$OBSLTYPE
280
     0
  9
$INTERSECTIONDISPLAY
280
     0
  9
$INTERSECTIONCOLOR
 70
   257
  9
$DIMASSOC
280
     2
  9
$PROJECTNAME
  1

  9
$CAMERADISPLAY
290
     0
  9
$LENSLENGTH
 40
50.0
  9
$CAMERAHEIGHT
 40
0.0
  9
$STEPSPERSEC
 40
2.0
  9
$STEPSIZE
 40
6.0
  9
$3DDWFPREC
 40
2.0
  9
$PSOLWIDTH
 40
0.25
  9
$PSOLHEIGHT
 40
4.0
  9
$LOFTANG1
 40
1.570796326794896
  9
$LOFTANG2
 40
1.570796326794896
  9
$LOFTMAG1
 40
0.0
  9
$LOFTMAG2
 40
0.0
  9
$LOFTPARAM
 70
     7
  9
$LOFTNORMALS
280
     1
  9
$LATITUDE
 40
37.795
  9
$LONGITUDE
 40
-122.394
  9
$NORTHDIRECTION
 40
0.0
  9
$TIMEZONE
 70
 -8000
  9
$LIGHTGLYPHDISPLAY
280
     1
  9
$TILEMODELIGHTSYNCH
280
     1
  9
$CMATERIAL
347
11
  9
$SOLIDHIST
280
     0
  9
$SHOWHIST
280
     1
  9
$DWFFRAME
280
     2
  9
$DGNFRAME
280
     0
  9
$REALWORLDSCALE
290
     1
  9
$INTERFERECOLOR
 62
     1
  9
$INTERFEREOBJVS
345
33
  9
$INTERFEREVPVS
346
30
  9
$CSHADOW
280
     0
  9
$SHADOWPLANELOCATION
 40
0.0
  0
ENDSEC
  0
SECTION
  2
CLASSES
  0
CLASS
  1
ACDBDICTIONARYWDFLT
  2
AcDbDictionaryWithDefault
  3
ObjectDBX Classes
 90
        0
 91
        1
280
     0
281
     0
  0
CLASS
  1
MATERIAL
  2
AcDbMaterial
  3
ObjectDBX Classes
 90
     1153
 91
        3
280
     0
281
     0
  0
CLASS
  1
VISUALSTYLE
  2
AcDbVisualStyle
  3
ObjectDBX Classes
 90
     4095
 91
       24
280
     0
281
     0
  0
CLASS
  1
SCALE
  2
AcDbScale
  3
ObjectDBX Classes
 90
     1153
 91
       17
280
     0
281
     0
  0
CLASS
  1
TABLESTYLE
  2
AcDbTableStyle
  3
ObjectDBX Classes
 90
     4095
 91
        1
280
     0
281
     0
  0
CLASS
  1
MLEADERSTYLE
  2
AcDbMLeaderStyle
  3
ACDB_MLEADERSTYLE_CLASS
 90
     4095
 91
        1
280
     0
281
     0
  0
CLASS
  1
ACDBSECTIONVIEWSTYLE
  2
AcDbSectionViewStyle
  3
ObjectDBX Classes
 90
     1025
 91
        1
280
     0
281
     0
  0
CLASS
  1
ACDBDETAILVIEWSTYLE
  2
AcDbDetailViewStyle
  3
ObjectDBX Classes
 90
     1025
 91
        1
280
     0
281
     0
  0
CLASS
  1
DICTIONARYVAR
  2
AcDbDictionaryVar
  3
ObjectDBX Classes
 90
        0
 91
        5
280
     0
281
     0
  0
CLASS
  1
CELLSTYLEMAP
  2
AcDbCellStyleMap
  3
ObjectDBX Classes
 90
     1152
 91
        1
280
     0
281
     0
  0
ENDSEC
  0
SECTION
  2
TABLES
  0
TABLE
  2
VPORT
  5
8
330
0
100
AcDbSymbolTable
 70
     1
1001
ACAD
1000
DbSaveVer
1071
      278
  0
VPORT
  5
57
330
8
100
AcDbSymbolTableRecord
100
AcDbViewportTableRecord
  2
*Active
 70
     0
 10
0.0
 20
0.0
 11
1.0
 21
1.0
 12
0.0
 22
0.0
 13
0.0
 23
0.0
 14
1.0
 24
1.0
 15
0.0
 25
0.0
 16
0.0
 26
0.0
 36
1.0
 17
49.99999998749409
 27
-49.99999998749409
 37
0.0
 40
101.9999999744879
 41
1.0
 42
50.0
 43
0.0
 44
0.0
 50
0.0
 51
0.0
 71
     0
 72
   100
 73
     1
 74
     1
 75
     0
 76
     0
 77
     0
 78
     0
281
     0
 65
     1
110
0.0
120
0.0
130
0.0
111
1.0
121
0.0
131
0.0
112
0.0
122
1.0
132
0.0
 79
     0
146
0.0
 60
     3
 61
     5
292
     1
282
     1
141
0.0
142
0.0
 63
   250
421
  3355443
  0
ENDTAB
  0
TABLE
  2
LTYPE
  5
5
330
0
100
AcDbSymbolTable
 70
     1
  0
LTYPE
  5
5B
330
5
100
AcDbSymbolTableRecord
100
AcDbLinetypeTableRecord
  2
ByBlock
 70
     0
  3

 72
    65
 73
     0
 40
0.0
  0
LTYPE
  5
5C
330
5
100
AcDbSymbolTableRecord
100
AcDbLinetypeTableRecord
  2
ByLayer
 70
     0
  3

 72
    65
 73
     0
 40
0.0
  0
LTYPE
  5
5D
330
5
100
AcDbSymbolTableRecord
100
AcDbLinetypeTableRecord
  2
Continuous
 70
     0
  3
Solid line
 72
    65
 73
     0
 40
0.0
  0
ENDTAB
  0
TABLE
  2
LAYER
  5
2
330
0
100
AcDbSymbolTable
 70
     2
  0
LAYER
  5
54
330
2
100
AcDbSymbolTableRecord
100
AcDbLayerTableRecord
  2
0
 70
     0
 62
     7
  6
Continuous
370
    -3
390
F
347
21
348
0
  0
LAYER
  5
78
330
2
100
AcDbSymbolTableRecord
100
AcDbLayerTableRecord
  2
Layer 1
 70
     0
 62
     7
  6
Continuous
370
     0
390
F
347
21
348
0
  0
ENDTAB
  0
TABLE
  2
STYLE
  5
3
330
0
100
AcDbSymbolTable
 70
     2
  0
STYLE
  5
55
330
3
100
AcDbSymbolTableRecord
100
AcDbTextStyleTableRecord
  2
Standard
 70
     0
 40
0.0
 41
1.0
 50
0.0
 71
     0
 42
0.2
  3
txt
  4

  0
STYLE
  5
5A
330
3
100
AcDbSymbolTableRecord
100
AcDbTextStyleTableRecord
  2
Annotative
 70
     0
 40
0.0
 41
1.0
 50
0.0
 71
     0
 42
0.2
  3
txt
  4

1001
AcadAnnotative
1000
AnnotativeData
1002
{
1070
     1
1070
     1
1002
}
  0
ENDTAB
  0
TABLE
  2
VIEW
  5
6
330
0
100
AcDbSymbolTable
 70
     0
  0
ENDTAB
  0
TABLE
  2
UCS
  5
7
330
0
100
AcDbSymbolTable
 70
     0
  0
ENDTAB
  0
TABLE
  2
APPID
  5
9
330
0
100
AcDbSymbolTable
 70
     2
  0
APPID
  5
56
330
9
100
AcDbSymbolTableRecord
100
AcDbRegAppTableRecord
  2
ACAD
 70
     0
  0
APPID
  5
5E
330
9
100
AcDbSymbolTableRecord
100
AcDbRegAppTableRecord
  2
AcadAnnotative
 70
     0
  0
ENDTAB
  0
TABLE
  2
DIMSTYLE
  5
A
330
0
100
AcDbSymbolTable
 70
     2
100
AcDbDimStyleTable
 71
     0
  0
DIMSTYLE
105
58
330
A
100
AcDbSymbolTableRecord
100
AcDbDimStyleTableRecord
  2
Standard
 70
     0
340
55
  0
DIMSTYLE
105
59
330
A
100
AcDbSymbolTableRecord
100
AcDbDimStyleTableRecord
  2
Annotative
 70
     0
340
55
1001
AcadAnnotative
1000
AnnotativeData
1002
{
1070
     1
1070
     1
1002
}
  0
ENDTAB
  0
TABLE
  2
BLOCK_RECORD
  5
1
330
0
100
AcDbSymbolTable
 70
     3
  0
BLOCK_RECORD
  5
70
330
1
100
AcDbSymbolTableRecord
100
AcDbBlockTableRecord
  2
*Model_Space
340
73
 70
     0
280
     1
281
     0
  0
BLOCK_RECORD
  5
6C
330
1
100
AcDbSymbolTableRecord
100
AcDbBlockTableRecord
  2
*Paper_Space
340
6F
 70
     0
280
     1
281
     0
  0
BLOCK_RECORD
  5
74
330
1
100
AcDbSymbolTableRecord
100
AcDbBlockTableRecord
  2
*Paper_Space0
340
77
 70
     0
280
     1
281
     0
  0
BLOCK_RECORD
  5
79
330
1
100
AcDbSymbolTableRecord
100
AcDbBlockTableRecord
  2
Block_0
340
0
102
{BLKREFS
331
7A
102
}
 70
     0
280
     1
281
     0
  0
BLOCK_RECORD
  5
7D
330
1
100
AcDbSymbolTableRecord
100
AcDbBlockTableRecord
  2
Block_1
340
0
102
{BLKREFS
331
7E
102
}
 70
     0
280
     1
281
     0
  0
ENDTAB
  0
ENDSEC
  0
SECTION
  2
BLOCKS
  0
BLOCK
  5
71
330
70
100
AcDbEntity
  8
0
100
AcDbBlockBegin
  2
*Model_Space
 70
     0
 10
0.0
 20
0.0
 30
0.0
  3
*Model_Space
  1

  0
ENDBLK
  5
72
330
70
100
AcDbEntity
  8
0
100
AcDbBlockEnd
  0
BLOCK
  5
6D
330
6C
100
AcDbEntity
 67
     1
  8
0
100
AcDbBlockBegin
  2
*Paper_Space
 70
     0
 10
0.0
 20
0.0
 30
0.0
  3
*Paper_Space
  1

  0
ENDBLK
  5
6E
330
6C
100
AcDbEntity
 67
     1
  8
0
100
AcDbBlockEnd
  0
BLOCK
  5
75
330
74
100
AcDbEntity
 67
     1
  8
0
100
AcDbBlockBegin
  2
*Paper_Space0
 70
     0
 10
0.0
 20
0.0
 30
0.0
  3
*Paper_Space0
  1

  0
ENDBLK
  5
76
330
74
100
AcDbEntity
 67
     1
  8
0
100
AcDbBlockEnd
  0
BLOCK
  5
7B
330
79
100
AcDbEntity
  8
0
100
AcDbBlockBegin
  2
Block_0
 70
     0
 10
0.0
 20
0.0
 30
0.0
  3
Block_0
  1

  0
INSERT
  5
7E
330
79
100
AcDbEntity
  8
Layer 1
100
AcDbBlockReference
  2
Block_1
 10
0.0
 20
0.0
 30
0.0
  0
ENDBLK
  5
7C
330
79
100
AcDbEntity
  8
0
100
AcDbBlockEnd
  0
BLOCK
  5
7F
330
7D
100
AcDbEntity
  8
0
100
AcDbBlockBegin
  2
Block_1
 70
     0
 10
0.0
 20
0.0
 30
0.0
  3
Block_1
  1

  0
ENDBLK
  5
80
330
7D
100
AcDbEntity
  8
0
100
AcDbBlockEnd
  0
ENDSEC
  0
SECTION
  2
ENTITIES
  0
INSERT
  5
7A
330
70
100
AcDbEntity
  8
Layer 1
100
AcDbBlockReference
  2
Block_0
 10
0.0
 20
0.0
 30
0.0
  0
SPLINE
  5
81
330
70
100
AcDbEntity
  8
Layer 1
100
AcDbSpline
210
0.0
220
0.0
230
1.0
 70
     9
 71
     3
 72
    62
 73
    58
 74
     0
 42
0.0000000001
 43
0.0000000001
 40
0.0
 40
0.0
 40
0.0
 40
0.0
 40
1.0
 40
1.0
 40
1.0
 40
2.0
 40
2.0
 40
2.0
 40
3.0
 40
3.0
 40
3.0
 40
4.0
 40
4.0
 40
4.0
 40
5.0
 40
5.0
 40
5.0
 40
6.0
 40
6.0
 40
6.0
 40
7.0
 40
7.0
 40
7.0
 40
8.0
 40
8.0
 40
8.0
 40
9.0
 40
9.0
 40
9.0
 40
10.0
 40
10.0
 40
10.0
 40
11.0
 40
11.0
 40
11.0
 40
12.0
 40
12.0
 40
12.0
 40
13.0
 40
13.0
 40
13.0
 40
14.0
 40
14.0
 40
14.0
 40
15.0
 40
15.0
 40
15.0
 40
16.0
 40
16.0
 40
16.0
 40
17.0
 40
17.0
 40
17.0
 40
18.0
 40
18.0
 40
18.0
 40
19.0
 40
19.0
 40
19.0
 40
19.0
 10
28.60962320248301
 20
-22.35488009423767
 30
0.0
 10
28.60962320248301
 20
-22.35488009423767
 30
0.0
 10
26.73583576805563
 20
-26.40734591353706
 30
0.0
 10
26.73583576805563
 20
-26.40734591353706
 30
0.0
 10
26.73583576805563
 20
-26.40734591353706
 30
0.0
 10
26.62783202459304
 20
-26.40734591353706
 30
0.0
 10
26.62783202459304
 20
-26.40734591353706
 30
0.0
 10
26.62783202459304
 20
-26.40734591353706
 30
0.0
 10
24.81743434709426
 20
-22.39294839934968
 30
0.0
 10
24.81743434709426
 20
-22.39294839934968
 30
0.0
 10
24.70960285840594
 20
-22.15161946060793
 30
0.0
 10
24.63329399340765
 20
-21.99917398538563
 30
0.0
 10
24.43640678642562
 20
-21.90391709521847
 30
0.0
 10
24.43640678642562
 20
-21.90391709521847
 30
0.0
 10
24.44915363972105
 20
-21.84672851016332
 30
0.0
 10
24.44915363972105
 20
-21.84672851016332
 30
0.0
 10
24.62054714011223
 20
-21.85292968203677
 30
0.0
 10
24.70322943175822
 20
-21.85930310868448
 30
0.0
 10
24.88099635879712
 20
-21.85930310868448
 30
0.0
 10
25.07151013913143
 20
-21.85930310868448
 30
0.0
 10
25.27477077276117
 20
-21.85930310868448
 30
0.0
 10
25.45908338122204
 20
-21.84672851016332
 30
0.0
 10
25.45908338122204
 20
-21.84672851016332
 30
0.0
 10
25.47803140639091
 20
-21.90391709521847
 30
0.0
 10
25.47803140639091
 20
-21.90391709521847
 30
0.0
 10
25.37640108957604
 20
-21.94835882697819
 30
0.0
 10
25.31938475929516
 20
-22.03724229049763
 30
0.0
 10
25.31938475929516
 20
-22.11975232736937
 30
0.0
 10
25.31938475929516
 20
-22.21500921753653
 30
0.0
 10
25.37002766292833
 20
-22.36108126611112
 30
0.0
 10
25.43358967463119
 20
-22.51369899610769
 30
0.0
 10
25.43358967463119
 20
-22.51369899610769
 30
0.0
 10
26.79285209833651
 20
-25.63874511077782
 30
0.0
 10
26.79285209833651
 20
-25.63874511077782
 30
0.0
 10
26.79285209833651
 20
-25.63874511077782
 30
0.0
 10
28.2156765337447
 20
-22.43101670446169
 30
0.0
 10
28.2156765337447
 20
-22.43101670446169
 30
0.0
 10
28.28561197209527
 20
-22.26582437594396
 30
0.0
 10
28.31730685055957
 20
-22.17694091242452
 30
0.0
 10
28.31730685055957
 20
-22.10080430220049
 30
0.0
 10
28.31730685055957
 20
-22.02449543720221
 30
0.0
 10
28.26666394692639
 20
-21.94835882697819
 30
0.0
 10
28.17123480198497
 20
-21.90391709521847
 30
0.0
 10
28.17123480198497
 20
-21.90391709521847
 30
0.0
 10
28.19672850857582
 20
-21.84672851016332
 30
0.0
 10
28.19672850857582
 20
-21.84672851016332
 30
0.0
 10
28.3364271305027
 20
-21.85292968203677
 30
0.0
 10
28.48887260572501
 20
-21.85930310868448
 30
0.0
 10
28.64769150759503
 20
-21.85930310868448
 30
0.0
 10
28.75569525105761
 20
-21.85930310868448
 30
0.0
 10
28.85095214122476
 20
-21.85292968203677
 30
0.0
 10
28.95258245803963
 20
-21.84672851016332
 30
0.0
 10
28.95258245803963
 20
-21.84672851016332
 30
0.0
 10
28.97170273798277
 20
-21.90391709521847
 30
0.0
 10
28.97170273798277
 20
-21.90391709521847
 30
0.0
 10
28.83183186128163
 20
-21.98005370544249
 30
0.0
 10
28.72382811781904
 20
-22.10080430220049
 30
0.0
 10
28.60962320248301
 20
-22.35488009423767
 30
0.0
  0
HATCH
  5
82
330
70
100
AcDbEntity
  8
Layer 1
 62
   250
440
 33554687
100
AcDbHatch
 10
0.0
 20
0.0
 30
0.0
210
0.0
220
0.0
230
1.0
  2
SOLID
 70
     1
 71
     1
 91
        1
 92
        1
 93
        1
 72
     4
 94
        3
 73
     0
 74
     0
 95
       62
 96
       58
 40
0.0
 40
0.0
 40
0.0
 40
0.0
 40
1.0
 40
1.0
 40
1.0
 40
2.0
 40
2.0
 40
2.0
 40
3.0
 40
3.0
 40
3.0
 40
4.0
 40
4.0
 40
4.0
 40
5.0
 40
5.0
 40
5.0
 40
6.0
 40
6.0
 40
6.0
 40
7.0
 40
7.0
 40
7.0
 40
8.0
 40
8.0
 40
8.0
 40
9.0
 40
9.0
 40
9.0
 40
10.0
 40
10.0
 40
10.0
 40
11.0
 40
11.0
 40
11.0
 40
12.0
 40
12.0
 40
12.0
 40
13.0
 40
13.0
 40
13.0
 40
14.0
 40
14.0
 40
14.0
 40
15.0
 40
15.0
 40
15.0
 40
16.0
 40
16.0
 40
16.0
 40
17.0
 40
17.0
 40
17.0
 40
18.0
 40
18.0
 40
18.0
 40
19.0
 40
19.0
 40
19.0
 40
19.0
 10
28.60962320248301
 20
-22.35488009423767
 10
28.60962320248301
 20
-22.35488009423767
 10
26.73583576805563
 20
-26.40734591353706
 10
26.73583576805563
 20
-26.40734591353706
 10
26.73583576805563
 20
-26.40734591353706
 10
26.62783202459304
 20
-26.40734591353706
 10
26.62783202459304
 20
-26.40734591353706
 10
26.62783202459304
 20
-26.40734591353706
 10
24.81743434709426
 20
-22.39294839934968
 10
24.81743434709426
 20
-22.39294839934968
 10
24.70960285840594
 20
-22.15161946060793
 10
24.63329399340765
 20
-21.99917398538563
 10
24.43640678642562
 20
-21.90391709521847
 10
24.43640678642562
 20
-21.90391709521847
 10
24.44915363972105
 20
-21.84672851016332
 10
24.44915363972105
 20
-21.84672851016332
 10
24.62054714011223
 20
-21.85292968203677
 10
24.70322943175822
 20
-21.85930310868448
 10
24.88099635879712
 20
-21.85930310868448
 10
25.07151013913143
 20
-21.85930310868448
 10
25.27477077276117
 20
-21.85930310868448
 10
25.45908338122204
 20
-21.84672851016332
 10
25.45908338122204
 20
-21.84672851016332
 10
25.47803140639091
 20
-21.90391709521847
 10
25.47803140639091
 20
-21.90391709521847
 10
25.37640108957604
 20
-21.94835882697819
 10
25.31938475929516
 20
-22.03724229049763
 10
25.31938475929516
 20
-22.11975232736937
 10
25.31938475929516
 20
-22.21500921753653
 10
25.37002766292833
 20
-22.36108126611112
 10
25.43358967463119
 20
-22.51369899610769
 10
25.43358967463119
 20
-22.51369899610769
 10
26.79285209833651
 20
-25.63874511077782
 10
26.79285209833651
 20
-25.63874511077782
 10
26.79285209833651
 20
-25.63874511077782
 10
28.2156765337447
 20
-22.43101670446169
 10
28.2156765337447
 20
-22.43101670446169
 10
28.28561197209527
 20
-22.26582437594396
 10
28.31730685055957
 20
-22.17694091242452
 10
28.31730685055957
 20
-22.10080430220049
 10
28.31730685055957
 20
-22.02449543720221
 10
28.26666394692639
 20
-21.94835882697819
 10
28.17123480198497
 20
-21.90391709521847
 10
28.17123480198497
 20
-21.90391709521847
 10
28.19672850857582
 20
-21.84672851016332
 10
28.19672850857582
 20
-21.84672851016332
 10
28.3364271305027
 20
-21.85292968203677
 10
28.48887260572501
 20
-21.85930310868448
 10
28.64769150759503
 20
-21.85930310868448
 10
28.75569525105761
 20
-21.85930310868448
 10
28.85095214122476
 20
-21.85292968203677
 10
28.95258245803963
 20
-21.84672851016332
 10
28.95258245803963
 20
-21.84672851016332
 10
28.97170273798277
 20
-21.90391709521847
 10
28.97170273798277
 20
-21.90391709521847
 10
28.83183186128163
 20
-21.98005370544249
 10
28.72382811781904
 20
-22.10080430220049
 10
28.60962320248301
 20
-22.35488009423767
 97
        0
 97
        1
330
81
 75
     2
 76
     1
 98
        1
 10
0.0
 20
0.0
450
        0
451
        0
460
0.0
461
0.0
452
        0
462
0.0
453
        0
470

  0
SPLINE
  5
83
330
70
100
AcDbEntity
  8
Layer 1
100
AcDbSpline
210
0.0
220
0.0
230
1.0
 70
     9
 71
     3
 72
    77
 73
    73
 74
     0
 42
0.0000000001
 43
0.0000000001
 40
0.0
 40
0.0
 40
0.0
 40
0.0
 40
1.0
 40
1.0
 40
1.0
 40
2.0
 40
2.0
 40
2.0
 40
3.0
 40
3.0
 40
3.0
 40
4.0
 40
4.0
 40
4.0
 40
5.0
 40
5.0
 40
5.0
 40
6.0
 40
6.0
 40
6.0
 40
7.0
 40
7.0
 40
7.0
 40
8.0
 40
8.0
 40
8.0
 40
9.0
 40
9.0
 40
9.0
 40
10.0
 40
10.0
 40
10.0
 40
11.0
 40
11.0
 40
11.0
 40
12.0
 40
12.0
 40
12.0
 40
13.0
 40
13.0
 40
13.0
 40
14.0
 40
14.0
 40
14.0
 40
15.0
 40
15.0
 40
15.0
 40
16.0
 40
16.0
 40
16.0
 40
17.0
 40
17.0
 40
17.0
 40
18.0
 40
18.0
 40
18.0
 40
19.0
 40
19.0
 40
19.0
 40
20.0
 40
20.0
 40
20.0
 40
21.0
 40
21.0
 40
21.0
 40
22.0
 40
22.0
 40
22.0
 40
23.0
 40
23.0
 40
23.0
 40
24.0
 40
24.0
 40
24.0
 40
24.0
 10
32.59077554523773
 20
-26.30571559672219
 30
0.0
 10
32.06350368122024
 20
-26.29296874342676
 30
0.0
 10
31.75861273077563
 20
-26.29296874342676
 30
0.0
 10
31.2315131215324
 20
-26.29296874342676
 30
0.0
 10
30.58986408740462
 20
-26.29296874342676
 30
0.0
 10
30.15802136832855
 20
-26.29296874342676
 30
0.0
 10
29.52274576084848
 20
-26.3120890233699
 30
0.0
 10
29.52274576084848
 20
-26.3120890233699
 30
0.0
 10
29.4974243090319
 20
-26.26127386496246
 30
0.0
 10
29.4974243090319
 20
-26.26127386496246
 30
0.0
 10
29.64349635760649
 20
-26.17239040144302
 30
0.0
 10
29.70068494266163
 20
-26.03889295138959
 30
0.0
 10
29.70068494266163
 20
-25.80393743929555
 30
0.0
 10
29.70068494266163
 20
-25.80393743929555
 30
0.0
 10
29.70068494266163
 20
-22.31043836247795
 30
0.0
 10
29.70068494266163
 20
-22.31043836247795
 30
0.0
 10
29.70068494266163
 20
-22.09443087555278
 30
0.0
 10
29.66261663754963
 20
-21.97368027879477
 30
0.0
 10
29.49105088238419
 20
-21.89754366857076
 30
0.0
 10
29.49105088238419
 20
-21.89754366857076
 30
0.0
 10
29.50999890755306
 20
-21.8339816568679
 30
0.0
 10
29.50999890755306
 20
-21.8339816568679
 30
0.0
 10
30.13252766173771
 20
-21.86567653533219
 30
0.0
 10
30.36128200195829
 20
-21.85930310868448
 30
0.0
 10
30.98381075614294
 20
-21.85930310868448
 30
0.0
 10
31.55535209714589
 20
-21.85930310868448
 30
0.0
 10
32.0953708144588
 20
-21.85930310868448
 30
0.0
 10
32.66691215546174
 20
-21.82760823022018
 30
0.0
 10
32.60352239853315
 20
-21.93561197368277
 30
0.0
 10
32.51446668023944
 20
-22.12612575401708
 30
0.0
 10
32.47002494847972
 20
-22.25945094929625
 30
0.0
 10
32.40026176490341
 20
-22.18331433907223
 30
0.0
 10
32.26039088820227
 20
-22.15161946060793
 30
0.0
 10
31.84749619429507
 20
-22.15161946060793
 30
0.0
 10
31.84749619429507
 20
-22.15161946060793
 30
0.0
 10
30.22141112525715
 20
-22.15161946060793
 30
0.0
 10
30.22141112525715
 20
-22.15161946060793
 30
0.0
 10
30.22141112525715
 20
-22.15161946060793
 30
0.0
 10
30.22141112525715
 20
-23.62525905442355
 30
0.0
 10
30.22141112525715
 20
-23.62525905442355
 30
0.0
 10
30.22141112525715
 20
-23.62525905442355
 30
0.0
 10
30.91387531779237
 20
-23.62525905442355
 30
0.0
 10
30.91387531779237
 20
-23.62525905442355
 30
0.0
 10
31.37758517010699
 20
-23.62525905442355
 30
0.0
 10
31.63803438879189
 20
-23.61251220112812
 30
0.0
 10
31.78410643736647
 20
-23.53000216425639
 30
0.0
 10
31.78410643736647
 20
-23.53000216425639
 30
0.0
 10
31.82217474247849
 20
-23.56169704272069
 30
0.0
 10
31.82217474247849
 20
-23.56169704272069
 30
0.0
 10
31.75223930412792
 20
-23.64420707959242
 30
0.0
 10
31.65698241396075
 20
-23.86021456651759
 30
0.0
 10
31.61254068220103
 20
-23.99353976179675
 30
0.0
 10
31.49816351209074
 20
-23.93015000486816
 30
0.0
 10
31.25683457334899
 20
-23.91740315157274
 30
0.0
 10
30.91387531779237
 20
-23.91740315157274
 30
0.0
 10
30.91387531779237
 20
-23.91740315157274
 30
0.0
 10
30.22141112525715
 20
-23.91740315157274
 30
0.0
 10
30.22141112525715
 20
-23.91740315157274
 30
0.0
 10
30.22141112525715
 20
-23.91740315157274
 30
0.0
 10
30.22141112525715
 20
-26.00082464627757
 30
0.0
 10
30.22141112525715
 20
-26.00082464627757
 30
0.0
 10
30.22141112525715
 20
-26.00082464627757
 30
0.0
 10
31.60616725555332
 20
-26.00082464627757
 30
0.0
 10
31.60616725555332
 20
-26.00082464627757
 30
0.0
 10
32.4319566433677
 20
-26.00082464627757
 30
0.0
 10
32.67965900875717
 20
-25.86112602435069
 30
0.0
 10
32.92736137414664
 20
-25.61325140418697
 30
0.0
 10
32.92736137414664
 20
-25.61325140418697
 30
0.0
 10
32.98454995920178
 20
-25.65786539072095
 30
0.0
 10
32.98454995920178
 20
-25.65786539072095
 30
0.0
 10
32.82573105733177
 20
-25.85475259770298
 30
0.0
 10
32.66691215546174
 20
-26.12777641490903
 30
0.0
 10
32.59077554523773
 20
-26.30571559672219
 30
0.0
  0
HATCH
  5
84
330
70
100
AcDbEntity
  8
Layer 1
 62
   250
440
 33554687
100
AcDbHatch
 10
0.0
 20
0.0
 30
0.0
210
0.0
220
0.0
230
1.0
  2
SOLID
 70
     1
 71
     1
 91
        1
 92
        1
 93
        1
 72
     4
 94
        3
 73
     0
 74
     0
 95
       77
 96
       73
 40
0.0
 40
0.0
 40
0.0
 40
0.0
 40
1.0
 40
1.0
 40
1.0
 40
2.0
 40
2.0
 40
2.0
 40
3.0
 40
3.0
 40
3.0
 40
4.0
 40
4.0
 40
4.0
 40
5.0
 40
5.0
 40
5.0
 40
6.0
 40
6.0
 40
6.0
 40
7.0
 40
7.0
 40
7.0
 40
8.0
 40
8.0
 40
8.0
 40
9.0
 40
9.0
 40
9.0
 40
10.0
 40
10.0
 40
10.0
 40
11.0
 40
11.0
 40
11.0
 40
12.0
 40
12.0
 40
12.0
 40
13.0
 40
13.0
 40
13.0
 40
14.0
 40
14.0
 40
14.0
 40
15.0
 40
15.0
 40
15.0
 40
16.0
 40
16.0
 40
16.0
 40
17.0
 40
17.0
 40
17.0
 40
18.0
 40
18.0
 40
18.0
 40
19.0
 40
19.0
 40
19.0
 40
20.0
 40
20.0
 40
20.0
 40
21.0
 40
21.0
 40
21.0
 40
22.0
 40
22.0
 40
22.0
 40
23.0
 40
23.0
 40
23.0
 40
24.0
 40
24.0
 40
24.0
 40
24.0
 10
32.59077554523773
 20
-26.30571559672219
 10
32.06350368122024
 20
-26.29296874342676
 10
31.75861273077563
 20
-26.29296874342676
 10
31.2315131215324
 20
-26.29296874342676
 10
30.58986408740462
 20
-26.29296874342676
 10
30.15802136832855
 20
-26.29296874342676
 10
29.52274576084848
 20
-26.3120890233699
 10
29.52274576084848
 20
-26.3120890233699
 10
29.4974243090319
 20
-26.26127386496246
 10
29.4974243090319
 20
-26.26127386496246
 10
29.64349635760649
 20
-26.17239040144302
 10
29.70068494266163
 20
-26.03889295138959
 10
29.70068494266163
 20
-25.80393743929555
 10
29.70068494266163
 20
-25.80393743929555
 10
29.70068494266163
 20
-22.31043836247795
 10
29.70068494266163
 20
-22.31043836247795
 10
29.70068494266163
 20
-22.09443087555278
 10
29.66261663754963
 20
-21.97368027879477
 10
29.49105088238419
 20
-21.89754366857076
 10
29.49105088238419
 20
-21.89754366857076
 10
29.50999890755306
 20
-21.8339816568679
 10
29.50999890755306
 20
-21.8339816568679
 10
30.13252766173771
 20
-21.86567653533219
 10
30.36128200195829
 20
-21.85930310868448
 10
30.98381075614294
 20
-21.85930310868448
 10
31.55535209714589
 20
-21.85930310868448
 10
32.0953708144588
 20
-21.85930310868448
 10
32.66691215546174
 20
-21.82760823022018
 10
32.60352239853315
 20
-21.93561197368277
 10
32.51446668023944
 20
-22.12612575401708
 10
32.47002494847972
 20
-22.25945094929625
 10
32.40026176490341
 20
-22.18331433907223
 10
32.26039088820227
 20
-22.15161946060793
 10
31.84749619429507
 20
-22.15161946060793
 10
31.84749619429507
 20
-22.15161946060793
 10
30.22141112525715
 20
-22.15161946060793
 10
30.22141112525715
 20
-22.15161946060793
 10
30.22141112525715
 20
-22.15161946060793
 10
30.22141112525715
 20
-23.62525905442355
 10
30.22141112525715
 20
-23.62525905442355
 10
30.22141112525715
 20
-23.62525905442355
 10
30.91387531779237
 20
-23.62525905442355
 10
30.91387531779237
 20
-23.62525905442355
 10
31.37758517010699
 20
-23.62525905442355
 10
31.63803438879189
 20
-23.61251220112812
 10
31.78410643736647
 20
-23.53000216425639
 10
31.78410643736647
 20
-23.53000216425639
 10
31.82217474247849
 20
-23.56169704272069
 10
31.82217474247849
 20
-23.56169704272069
 10
31.75223930412792
 20
-23.64420707959242
 10
31.65698241396075
 20
-23.86021456651759
 10
31.61254068220103
 20
-23.99353976179675
 10
31.49816351209074
 20
-23.93015000486816
 10
31.25683457334899
 20
-23.91740315157274
 10
30.91387531779237
 20
-23.91740315157274
 10
30.91387531779237
 20
-23.91740315157274
 10
30.22141112525715
 20
-23.91740315157274
 10
30.22141112525715
 20
-23.91740315157274
 10
30.22141112525715
 20
-23.91740315157274
 10
30.22141112525715
 20
-26.00082464627757
 10
30.22141112525715
 20
-26.00082464627757
 10
30.22141112525715
 20
-26.00082464627757
 10
31.60616725555332
 20
-26.00082464627757
 10
31.60616725555332
 20
-26.00082464627757
 10
32.4319566433677
 20
-26.00082464627757
 10
32.67965900875717
 20
-25.86112602435069
 10
32.92736137414664
 20
-25.61325140418697
 10
32.92736137414664
 20
-25.61325140418697
 10
32.98454995920178
 20
-25.65786539072095
 10
32.98454995920178
 20
-25.65786539072095
 10
32.82573105733177
 20
-25.85475259770298
 10
32.66691215546174
 20
-26.12777641490903
 10
32.59077554523773
 20
-26.30571559672219
 97
        0
 97
        1
330
83
 75
     2
 76
     1
 98
        1
 10
0.0
 20
0.0
450
        0
451
        0
460
0.0
461
0.0
452
        0
462
0.0
453
        0
470

  0
SPLINE
  5
85
330
70
100
AcDbEntity
  8
Layer 1
100
AcDbSpline
210
0.0
220
0.0
230
1.0
 70
     9
 71
     3
 72
    53
 73
    49
 74
     0
 42
0.0000000001
 43
0.0000000001
 40
0.0
 40
0.0
 40
0.0
 40
0.0
 40
1.0
 40
1.0
 40
1.0
 40
2.0
 40
2.0
 40
2.0
 40
3.0
 40
3.0
 40
3.0
 40
4.0
 40
4.0
 40
4.0
 40
5.0
 40
5.0
 40
5.0
 40
6.0
 40
6.0
 40
6.0
 40
7.0
 40
7.0
 40
7.0
 40
8.0
 40
8.0
 40
8.0
 40
9.0
 40
9.0
 40
9.0
 40
10.0
 40
10.0
 40
10.0
 40
11.0
 40
11.0
 40
11.0
 40
12.0
 40
12.0
 40
12.0
 40
13.0
 40
13.0
 40
13.0
 40
14.0
 40
14.0
 40
14.0
 40
15.0
 40
15.0
 40
15.0
 40
16.0
 40
16.0
 40
16.0
 40
16.0
 10
36.53403183765469
 20
-26.30571559672219
 30
0.0
 10
35.88618163165346
 20
-26.29934217007447
 30
0.0
 10
35.51772866950599
 20
-26.29934217007447
 30
0.0
 10
34.86987846350475
 20
-26.29934217007447
 30
0.0
 10
34.36172687943041
 20
-26.29934217007447
 30
0.0
 10
34.05046250233808
 20
-26.29934217007447
 30
0.0
 10
33.56763237008032
 20
-26.30571559672219
 30
0.0
 10
33.56763237008032
 20
-26.30571559672219
 30
0.0
 10
33.55505777155916
 20
-26.26127386496246
 30
0.0
 10
33.55505777155916
 20
-26.26127386496246
 30
0.0
 10
33.66306151502174
 20
-26.19133842661189
 30
0.0
 10
33.75194497854118
 20
-26.02614609809416
 30
0.0
 10
33.75194497854118
 20
-25.84200574440755
 30
0.0
 10
33.75194497854118
 20
-25.84200574440755
 30
0.0
 10
33.75194497854118
 20
-22.31663953435139
 30
0.0
 10
33.75194497854118
 20
-22.31663953435139
 30
0.0
 10
33.75194497854118
 20
-22.06893716896193
 30
0.0
 10
33.70112982013374
 20
-21.97368027879477
 30
0.0
 10
33.53593749161602
 20
-21.91649169373963
 30
0.0
 10
33.53593749161602
 20
-21.91649169373963
 30
0.0
 10
33.56763237008032
 20
-21.84672851016332
 30
0.0
 10
33.56763237008032
 20
-21.84672851016332
 30
0.0
 10
33.68200954019061
 20
-21.85930310868448
 30
0.0
 10
33.82170816211749
 20
-21.85930310868448
 30
0.0
 10
33.98052706398751
 20
-21.85930310868448
 30
0.0
 10
34.13934596585753
 20
-21.85930310868448
 30
0.0
 10
34.34898002613498
 20
-21.85930310868448
 30
0.0
 10
34.46335719624528
 20
-21.84672851016332
 30
0.0
 10
34.46335719624528
 20
-21.84672851016332
 30
0.0
 10
34.48230522141415
 20
-21.91649169373963
 30
0.0
 10
34.48230522141415
 20
-21.91649169373963
 30
0.0
 10
34.32985974619184
 20
-21.9864271320902
 30
0.0
 10
34.27284341591096
 20
-22.09443087555278
 30
0.0
 10
34.27284341591096
 20
-22.27857122923939
 30
0.0
 10
34.27284341591096
 20
-22.27857122923939
 30
0.0
 10
34.27284341591096
 20
-25.98807779298215
 30
0.0
 10
34.27284341591096
 20
-25.98807779298215
 30
0.0
 10
34.27284341591096
 20
-25.98807779298215
 30
0.0
 10
35.79729816813401
 20
-25.98807779298215
 30
0.0
 10
35.79729816813401
 20
-25.98807779298215
 30
0.0
 10
36.41965466754439
 20
-25.98807779298215
 30
0.0
 10
36.59759384935755
 20
-25.86749945099841
 30
0.0
 10
36.88973794650673
 20
-25.58155652572267
 30
0.0
 10
36.88973794650673
 20
-25.58155652572267
 30
0.0
 10
36.95329995820959
 20
-25.63237168413011
 30
0.0
 10
36.95329995820959
 20
-25.63237168413011
 30
0.0
 10
36.77536077639644
 20
-25.84837917105527
 30
0.0
 10
36.61034070265297
 20
-26.14689669485217
 30
0.0
 10
36.53403183765469
 20
-26.30571559672219
 30
0.0
  0
HATCH
  5
86
330
70
100
AcDbEntity
  8
Layer 1
 62
   250
440
 33554687
100
AcDbHatch
 10
0.0
 20
0.0
 30
0.0
210
0.0
220
0.0
230
1.0
  2
SOLID
 70
     1
 71
     1
 91
        1
 92
        1
 93
        1
 72
     4
 94
        3
 73
     0
 74
     0
 95
       53
 96
       49
 40
0.0
 40
0.0
 40
0.0
 40
0.0
 40
1.0
 40
1.0
 40
1.0
 40
2.0
 40
2.0
 40
2.0
 40
3.0
 40
3.0
 40
3.0
 40
4.0
 40
4.0
 40
4.0
 40
5.0
 40
5.0
 40
5.0
 40
6.0
 40
6.0
 40
6.0
 40
7.0
 40
7.0
 40
7.0
 40
8.0
 40
8.0
 40
8.0
 40
9.0
 40
9.0
 40
9.0
 40
10.0
 40
10.0
 40
10.0
 40
11.0
 40
11.0
 40
11.0
 40
12.0
 40
12.0
 40
12.0
 40
13.0
 40
13.0
 40
13.0
 40
14.0
 40
14.0
 40
14.0
 40
15.0
 40
15.0
 40
15.0
 40
16.0
 40
16.0
 40
16.0
 40
16.0
 10
36.53403183765469
 20
-26.30571559672219
 10
35.88618163165346
 20
-26.29934217007447
 10
35.51772866950599
 20
-26.29934217007447
 10
34.86987846350475
 20
-26.29934217007447
 10
34.36172687943041
 20
-26.29934217007447
 10
34.05046250233808
 20
-26.29934217007447
 10
33.56763237008032
 20
-26.30571559672219
 10
33.56763237008032
 20
-26.30571559672219
 10
33.55505777155916
 20
-26.26127386496246
 10
33.55505777155916
 20
-26.26127386496246
 10
33.66306151502174
 20
-26.19133842661189
 10
33.75194497854118
 20
-26.02614609809416
 10
33.75194497854118
 20
-25.84200574440755
 10
33.75194497854118
 20
-25.84200574440755
 10
33.75194497854118
 20
-22.31663953435139
 10
33.75194497854118
 20
-22.31663953435139
 10
33.75194497854118
 20
-22.06893716896193
 10
33.70112982013374
 20
-21.97368027879477
 10
33.53593749161602
 20
-21.91649169373963
 10
33.53593749161602
 20
-21.91649169373963
 10
33.56763237008032
 20
-21.84672851016332
 10
33.56763237008032
 20
-21.84672851016332
 10
33.68200954019061
 20
-21.85930310868448
 10
33.82170816211749
 20
-21.85930310868448
 10
33.98052706398751
 20
-21.85930310868448
 10
34.13934596585753
 20
-21.85930310868448
 10
34.34898002613498
 20
-21.85930310868448
 10
34.46335719624528
 20
-21.84672851016332
 10
34.46335719624528
 20
-21.84672851016332
 10
34.48230522141415
 20
-21.91649169373963
 10
34.48230522141415
 20
-21.91649169373963
 10
34.32985974619184
 20
-21.9864271320902
 10
34.27284341591096
 20
-22.09443087555278
 10
34.27284341591096
 20
-22.27857122923939
 10
34.27284341591096
 20
-22.27857122923939
 10
34.27284341591096
 20
-25.98807779298215
 10
34.27284341591096
 20
-25.98807779298215
 10
34.27284341591096
 20
-25.98807779298215
 10
35.79729816813401
 20
-25.98807779298215
 10
35.79729816813401
 20
-25.98807779298215
 10
36.41965466754439
 20
-25.98807779298215
 10
36.59759384935755
 20
-25.86749945099841
 10
36.88973794650673
 20
-25.58155652572267
 10
36.88973794650673
 20
-25.58155652572267
 10
36.95329995820959
 20
-25.63237168413011
 10
36.95329995820959
 20
-25.63237168413011
 10
36.77536077639644
 20
-25.84837917105527
 10
36.61034070265297
 20
-26.14689669485217
 10
36.53403183765469
 20
-26.30571559672219
 97
        0
 97
        1
330
85
 75
     2
 76
     1
 98
        1
 10
0.0
 20
0.0
450
        0
451
        0
460
0.0
461
0.0
452
        0
462
0.0
453
        0
470

  0
SPLINE
  5
87
330
70
100
AcDbEntity
  8
Layer 1
100
AcDbSpline
210
0.0
220
0.0
230
1.0
 70
    11
 71
     3
 72
    14
 73
    10
 74
     0
 42
0.0000000001
 43
0.0000000001
 40
0.0
 40
0.0
 40
0.0
 40
0.0
 40
1.0
 40
1.0
 40
1.0
 40
2.0
 40
2.0
 40
2.0
 40
3.0
 40
3.0
 40
3.0
 40
3.0
 10
39.4864786685138
 20
-22.64065076473914
 30
0.0
 10
39.4864786685138
 20
-22.64065076473914
 30
0.0
 10
38.84482963438602
 20
-23.93652343151587
 30
0.0
 10
38.84482963438602
 20
-23.93652343151587
 30
0.0
 10
38.84482963438602
 20
-23.93652343151587
 30
0.0
 10
40.03907198434787
 20
-23.93652343151587
 30
0.0
 10
40.03907198434787
 20
-23.93652343151587
 30
0.0
 10
40.03907198434787
 20
-23.93652343151587
 30
0.0
 10
39.4864786685138
 20
-22.64065076473914
 30
0.0
 10
39.4864786685138
 20
-22.64065076473914
 30
0.0
  0
SPLINE
  5
88
330
70
100
AcDbEntity
  8
Layer 1
100
AcDbSpline
210
0.0
220
0.0
230
1.0
 70
     9
 71
     3
 72
    68
 73
    64
 74
     0
 42
0.0000000001
 43
0.0000000001
 40
0.0
 40
0.0
 40
0.0
 40
0.0
 40
1.0
 40
1.0
 40
1.0
 40
2.0
 40
2.0
 40
2.0
 40
3.0
 40
3.0
 40
3.0
 40
4.0
 40
4.0
 40
4.0
 40
5.0
 40
5.0
 40
5.0
 40
6.0
 40
6.0
 40
6.0
 40
7.0
 40
7.0
 40
7.0
 40
8.0
 40
8.0
 40
8.0
 40
9.0
 40
9.0
 40
9.0
 40
10.0
 40
10.0
 40
10.0
 40
11.0
 40
11.0
 40
11.0
 40
12.0
 40
12.0
 40
12.0
 40
13.0
 40
13.0
 40
13.0
 40
14.0
 40
14.0
 40
14.0
 40
15.0
 40
15.0
 40
15.0
 40
16.0
 40
16.0
 40
16.0
 40
17.0
 40
17.0
 40
17.0
 40
18.0
 40
18.0
 40
18.0
 40
19.0
 40
19.0
 40
19.0
 40
20.0
 40
20.0
 40
20.0
 40
21.0
 40
21.0
 40
21.0
 40
21.0
 10
41.91285941877526
 20
-26.30571559672219
 30
0.0
 10
41.72871906508865
 20
-26.28659531677905
 30
0.0
 10
41.56990016321864
 20
-26.29296874342676
 30
0.0
 10
41.33477239635033
 20
-26.29296874342676
 30
0.0
 10
41.11893716419944
 20
-26.29296874342676
 30
0.0
 10
40.87106254403571
 20
-26.29296874342676
 30
0.0
 10
40.66780191040597
 20
-26.30571559672219
 30
0.0
 10
40.66780191040597
 20
-26.30571559672219
 30
0.0
 10
40.64885388523709
 20
-26.24215358501932
 30
0.0
 10
40.64885388523709
 20
-26.24215358501932
 30
0.0
 10
40.76305880057312
 20
-26.19133842661189
 30
0.0
 10
40.85211451886683
 20
-26.07696125650159
 30
0.0
 10
40.85211451886683
 20
-25.97533093968673
 30
0.0
 10
40.85211451886683
 20
-25.86112602435069
 30
0.0
 10
40.82024738562827
 20
-25.74037542759269
 30
0.0
 10
40.73773734875653
 20
-25.54986164725837
 30
0.0
 10
40.73773734875653
 20
-25.54986164725837
 30
0.0
 10
40.16602375297932
 20
-24.22229410201734
 30
0.0
 10
40.16602375297932
 20
-24.22229410201734
 30
0.0
 10
40.16602375297932
 20
-24.22229410201734
 30
0.0
 10
38.70513101245914
 20
-24.22229410201734
 30
0.0
 10
38.70513101245914
 20
-24.22229410201734
 30
0.0
 10
38.70513101245914
 20
-24.22229410201734
 30
0.0
 10
38.09534911156992
 20
-25.46717935561237
 30
0.0
 10
38.09534911156992
 20
-25.46717935561237
 30
0.0
 10
38.00009222140276
 20
-25.66423881736866
 30
0.0
 10
37.96202391629075
 20
-25.79119058600012
 30
0.0
 10
37.96202391629075
 20
-25.92451578127929
 30
0.0
 10
37.96202391629075
 20
-26.09608153644473
 30
0.0
 10
38.04453395316248
 20
-26.15327012149988
 30
0.0
 10
38.20972628168021
 20
-26.24215358501932
 30
0.0
 10
38.20972628168021
 20
-26.24215358501932
 30
0.0
 10
38.19060600173708
 20
-26.30571559672219
 30
0.0
 10
38.19060600173708
 20
-26.30571559672219
 30
0.0
 10
37.97459851481191
 20
-26.29934217007447
 30
0.0
 10
37.79683158777301
 20
-26.29296874342676
 30
0.0
 10
37.58082410084785
 20
-26.29296874342676
 30
0.0
 10
37.39031032051354
 20
-26.29296874342676
 30
0.0
 10
37.28230657705096
 20
-26.29296874342676
 30
0.0
 10
37.09816622336435
 20
-26.30571559672219
 30
0.0
 10
37.09816622336435
 20
-26.30571559672219
 30
0.0
 10
37.08541937006893
 20
-26.2294067317239
 30
0.0
 10
37.08541937006893
 20
-26.2294067317239
 30
0.0
 10
37.30762802886754
 20
-26.15327012149988
 30
0.0
 10
37.46644693073756
 20
-26.00719807292529
 30
0.0
 10
37.63163925925529
 20
-25.67681341588983
 30
0.0
 10
37.63163925925529
 20
-25.67681341588983
 30
0.0
 10
39.32128633999607
 20
-22.31663953435139
 30
0.0
 10
39.32128633999607
 20
-22.31663953435139
 30
0.0
 10
39.45461153527524
 20
-22.04998914379306
 30
0.0
 10
39.51180012033038
 20
-21.88479681527533
 30
0.0
 10
39.51180012033038
 20
-21.73235134005302
 30
0.0
 10
39.51180012033038
 20
-21.73235134005302
 30
0.0
 10
39.61980386379297
 20
-21.73235134005302
 30
0.0
 10
39.61980386379297
 20
-21.73235134005302
 30
0.0
 10
39.61980386379297
 20
-21.73235134005302
 30
0.0
 10
41.39196098140548
 20
-25.71488172100184
 30
0.0
 10
41.39196098140548
 20
-25.71488172100184
 30
0.0
 10
41.51271157816348
 20
-25.98807779298215
 30
0.0
 10
41.66515705338579
 20
-26.15327012149988
 30
0.0
 10
41.92560627207067
 20
-26.24215358501932
 30
0.0
 10
41.92560627207067
 20
-26.24215358501932
 30
0.0
 10
41.91285941877526
 20
-26.30571559672219
 30
0.0
 10
41.91285941877526
 20
-26.30571559672219
 30
0.0
  0
HATCH
  5
89
330
70
100
AcDbEntity
  8
Layer 1
 62
   250
440
 33554687
100
AcDbHatch
 10
0.0
 20
0.0
 30
0.0
210
0.0
220
0.0
230
1.0
  2
SOLID
 70
     1
 71
     1
 91
        2
 92
        1
 93
        1
 72
     4
 94
        3
 73
     0
 74
     0
 95
       14
 96
       10
 40
0.0
 40
0.0
 40
0.0
 40
0.0
 40
1.0
 40
1.0
 40
1.0
 40
2.0
 40
2.0
 40
2.0
 40
3.0
 40
3.0
 40
3.0
 40
3.0
 10
39.4864786685138
 20
-22.64065076473914
 10
39.4864786685138
 20
-22.64065076473914
 10
38.84482963438602
 20
-23.93652343151587
 10
38.84482963438602
 20
-23.93652343151587
 10
38.84482963438602
 20
-23.93652343151587
 10
40.03907198434787
 20
-23.93652343151587
 10
40.03907198434787
 20
-23.93652343151587
 10
40.03907198434787
 20
-23.93652343151587
 10
39.4864786685138
 20
-22.64065076473914
 10
39.4864786685138
 20
-22.64065076473914
 97
        0
 97
        1
330
87
 92
        1
 93
        1
 72
     4
 94
        3
 73
     0
 74
     0
 95
       68
 96
       64
 40
0.0
 40
0.0
 40
0.0
 40
0.0
 40
1.0
 40
1.0
 40
1.0
 40
2.0
 40
2.0
 40
2.0
 40
3.0
 40
3.0
 40
3.0
 40
4.0
 40
4.0
 40
4.0
 40
5.0
 40
5.0
 40
5.0
 40
6.0
 40
6.0
 40
6.0
 40
7.0
 40
7.0
 40
7.0
 40
8.0
 40
8.0
 40
8.0
 40
9.0
 40
9.0
 40
9.0
 40
10.0
 40
10.0
 40
10.0
 40
11.0
 40
11.0
 40
11.0
 40
12.0
 40
12.0
 40
12.0
 40
13.0
 40
13.0
 40
13.0
 40
14.0
 40
14.0
 40
14.0
 40
15.0
 40
15.0
 40
15.0
 40
16.0
 40
16.0
 40
16.0
 40
17.0
 40
17.0
 40
17.0
 40
18.0
 40
18.0
 40
18.0
 40
19.0
 40
19.0
 40
19.0
 40
20.0
 40
20.0
 40
20.0
 40
21.0
 40
21.0
 40
21.0
 40
21.0
 10
41.91285941877526
 20
-26.30571559672219
 10
41.72871906508865
 20
-26.28659531677905
 10
41.56990016321864
 20
-26.29296874342676
 10
41.33477239635033
 20
-26.29296874342676
 10
41.11893716419944
 20
-26.29296874342676
 10
40.87106254403571
 20
-26.29296874342676
 10
40.66780191040597
 20
-26.30571559672219
 10
40.66780191040597
 20
-26.30571559672219
 10
40.64885388523709
 20
-26.24215358501932
 10
40.64885388523709
 20
-26.24215358501932
 10
40.76305880057312
 20
-26.19133842661189
 10
40.85211451886683
 20
-26.07696125650159
 10
40.85211451886683
 20
-25.97533093968673
 10
40.85211451886683
 20
-25.86112602435069
 10
40.82024738562827
 20
-25.74037542759269
 10
40.73773734875653
 20
-25.54986164725837
 10
40.73773734875653
 20
-25.54986164725837
 10
40.16602375297932
 20
-24.22229410201734
 10
40.16602375297932
 20
-24.22229410201734
 10
40.16602375297932
 20
-24.22229410201734
 10
38.70513101245914
 20
-24.22229410201734
 10
38.70513101245914
 20
-24.22229410201734
 10
38.70513101245914
 20
-24.22229410201734
 10
38.09534911156992
 20
-25.46717935561237
 10
38.09534911156992
 20
-25.46717935561237
 10
38.00009222140276
 20
-25.66423881736866
 10
37.96202391629075
 20
-25.79119058600012
 10
37.96202391629075
 20
-25.92451578127929
 10
37.96202391629075
 20
-26.09608153644473
 10
38.04453395316248
 20
-26.15327012149988
 10
38.20972628168021
 20
-26.24215358501932
 10
38.20972628168021
 20
-26.24215358501932
 10
38.19060600173708
 20
-26.30571559672219
 10
38.19060600173708
 20
-26.30571559672219
 10
37.97459851481191
 20
-26.29934217007447
 10
37.79683158777301
 20
-26.29296874342676
 10
37.58082410084785
 20
-26.29296874342676
 10
37.39031032051354
 20
-26.29296874342676
 10
37.28230657705096
 20
-26.29296874342676
 10
37.09816622336435
 20
-26.30571559672219
 10
37.09816622336435
 20
-26.30571559672219
 10
37.08541937006893
 20
-26.2294067317239
 10
37.08541937006893
 20
-26.2294067317239
 10
37.30762802886754
 20
-26.15327012149988
 10
37.46644693073756
 20
-26.00719807292529
 10
37.63163925925529
 20
-25.67681341588983
 10
37.63163925925529
 20
-25.67681341588983
 10
39.32128633999607
 20
-22.31663953435139
 10
39.32128633999607
 20
-22.31663953435139
 10
39.45461153527524
 20
-22.04998914379306
 10
39.51180012033038
 20
-21.88479681527533
 10
39.51180012033038
 20
-21.73235134005302
 10
39.51180012033038
 20
-21.73235134005302
 10
39.61980386379297
 20
-21.73235134005302
 10
39.61980386379297
 20
-21.73235134005302
 10
39.61980386379297
 20
-21.73235134005302
 10
41.39196098140548
 20
-25.71488172100184
 10
41.39196098140548
 20
-25.71488172100184
 10
41.51271157816348
 20
-25.98807779298215
 10
41.66515705338579
 20
-26.15327012149988
 10
41.92560627207067
 20
-26.24215358501932
 10
41.92560627207067
 20
-26.24215358501932
 10
41.91285941877526
 20
-26.30571559672219
 10
41.91285941877526
 20
-26.30571559672219
 97
        0
 97
        1
330
88
 75
     2
 76
     1
 98
        1
 10
0.0
 20
0.0
450
        0
451
        0
460
0.0
461
0.0
452
        0
462
0.0
453
        0
470

  0
SPLINE
  5
8A
330
70
100
AcDbEntity
  8
Layer 1
100
AcDbSpline
210
0.0
220
0.0
230
1.0
 70
     9
 71
     3
 72
    20
 73
    16
 74
     0
 42
0.0000000001
 43
0.0000000001
 40
0.0
 40
0.0
 40
0.0
 40
0.0
 40
1.0
 40
1.0
 40
1.0
 40
2.0
 40
2.0
 40
2.0
 40
3.0
 40
3.0
 40
3.0
 40
4.0
 40
4.0
 40
4.0
 40
5.0
 40
5.0
 40
5.0
 40
5.0
 10
44.24260524067546
 20
-22.1388726073125
 30
0.0
 10
43.83608397341598
 20
-22.1388726073125
 30
0.0
 10
43.54376762149253
 20
-22.14524603396021
 30
0.0
 10
43.17531465934506
 20
-22.15161946060793
 30
0.0
 10
43.17531465934506
 20
-22.15161946060793
 30
0.0
 10
43.17531465934506
 20
-23.76495767635043
 30
0.0
 10
43.17531465934506
 20
-23.76495767635043
 30
0.0
 10
43.48020560978967
 20
-23.76495767635043
 30
0.0
 10
43.76614853506541
 20
-23.77133110299814
 30
0.0
 10
44.08378633880544
 20
-23.77133110299814
 30
0.0
 10
44.70614283821582
 20
-23.77133110299814
 30
0.0
 10
45.22704127558561
 20
-23.50450845766554
 30
0.0
 10
45.22704127558561
 20
-22.92022026336717
 30
0.0
 10
45.22704127558561
 20
-22.38020154605425
 30
0.0
 10
44.90940347184556
 20
-22.1388726073125
 30
0.0
 10
44.24260524067546
 20
-22.1388726073125
 30
0.0
  0
SPLINE
  5
8B
330
70
100
AcDbEntity
  8
Layer 1
100
AcDbSpline
210
0.0
220
0.0
230
1.0
 70
     9
 71
     3
 72
    65
 73
    61
 74
     0
 42
0.0000000001
 43
0.0000000001
 40
0.0
 40
0.0
 40
0.0
 40
0.0
 40
1.0
 40
1.0
 40
1.0
 40
2.0
 40
2.0
 40
2.0
 40
3.0
 40
3.0
 40
3.0
 40
4.0
 40
4.0
 40
4.0
 40
5.0
 40
5.0
 40
5.0
 40
6.0
 40
6.0
 40
6.0
 40
7.0
 40
7.0
 40
7.0
 40
8.0
 40
8.0
 40
8.0
 40
9.0
 40
9.0
 40
9.0
 40
10.0
 40
10.0
 40
10.0
 40
11.0
 40
11.0
 40
11.0
 40
12.0
 40
12.0
 40
12.0
 40
13.0
 40
13.0
 40
13.0
 40
14.0
 40
14.0
 40
14.0
 40
15.0
 40
15.0
 40
15.0
 40
16.0
 40
16.0
 40
16.0
 40
17.0
 40
17.0
 40
17.0
 40
18.0
 40
18.0
 40
18.0
 40
19.0
 40
19.0
 40
19.0
 40
20.0
 40
20.0
 40
20.0
 40
20.0
 10
46.56098224747434
 20
-26.3437839018342
 30
0.0
 10
45.55742593262106
 20
-26.3437839018342
 30
0.0
 10
44.70614283821582
 20
-25.67043998924211
 30
0.0
 10
43.85503199858486
 20
-24.05710177349961
 30
0.0
 10
43.58183592660454
 20
-24.05710177349961
 30
0.0
 10
43.38494871962251
 20
-24.05710177349961
 30
0.0
 10
43.17531465934506
 20
-24.05710177349961
 30
0.0
 10
43.17531465934506
 20
-24.05710177349961
 30
0.0
 10
43.17531465934506
 20
-25.78481715935241
 30
0.0
 10
43.17531465934506
 20
-25.78481715935241
 30
0.0
 10
43.17531465934506
 20
-26.0452663780373
 30
0.0
 10
43.25162352434334
 20
-26.15327012149988
 30
0.0
 10
43.44851073132537
 20
-26.23578015837161
 30
0.0
 10
43.44851073132537
 20
-26.23578015837161
 30
0.0
 10
43.41681585286107
 20
-26.30571559672219
 30
0.0
 10
43.41681585286107
 20
-26.30571559672219
 30
0.0
 10
43.21355521923133
 20
-26.28659531677905
 30
0.0
 10
43.11192490241646
 20
-26.29296874342676
 30
0.0
 10
42.93398572060331
 20
-26.29296874342676
 30
0.0
 10
42.75621879356442
 20
-26.29296874342676
 30
0.0
 10
42.64821505010184
 20
-26.29296874342676
 30
0.0
 10
42.46390244164096
 20
-26.30571559672219
 30
0.0
 10
42.46390244164096
 20
-26.30571559672219
 30
0.0
 10
42.43858098982438
 20
-26.24852701166704
 30
0.0
 10
42.43858098982438
 20
-26.24852701166704
 30
0.0
 10
42.59102646504668
 20
-26.17859157331646
 30
0.0
 10
42.65458847674955
 20
-26.0452663780373
 30
0.0
 10
42.65458847674955
 20
-25.83563231775984
 30
0.0
 10
42.65458847674955
 20
-25.83563231775984
 30
0.0
 10
42.65458847674955
 20
-22.30406493583023
 30
0.0
 10
42.65458847674955
 20
-22.30406493583023
 30
0.0
 10
42.65458847674955
 20
-22.16419405912909
 30
0.0
 10
42.60377331834211
 20
-21.99917398538563
 30
0.0
 10
42.42583413652896
 20
-21.90391709521847
 30
0.0
 10
42.42583413652896
 20
-21.90391709521847
 30
0.0
 10
42.44495441647209
 20
-21.84672851016332
 30
0.0
 10
42.44495441647209
 20
-21.84672851016332
 30
0.0
 10
42.76259222021213
 20
-21.85930310868448
 30
0.0
 10
43.00392115895387
 20
-21.85930310868448
 30
0.0
 10
43.32155896269392
 20
-21.85930310868448
 30
0.0
 10
43.65814479160283
 20
-21.85930310868448
 30
0.0
 10
44.03934460704571
 20
-21.85292968203677
 30
0.0
 10
44.36955700930691
 20
-21.85292968203677
 30
0.0
 10
45.14453123871386
 20
-21.85292968203677
 30
0.0
 10
45.78600801806739
 20
-22.17694091242452
 30
0.0
 10
45.78600801806739
 20
-22.87560627683318
 30
0.0
 10
45.78600801806739
 20
-23.54895018942526
 30
0.0
 10
45.22704127558561
 20
-23.91102972492502
 30
0.0
 10
44.50288220458609
 20
-24.01903346838761
 30
0.0
 10
45.11903753212302
 20
-25.40999077055723
 30
0.0
 10
45.93208006664197
 20
-26.21683213320274
 30
0.0
 10
46.73874917451323
 20
-26.21683213320274
 30
0.0
 10
46.87862005121437
 20
-26.21683213320274
 30
0.0
 10
46.96750351473382
 20
-26.20408527990731
 30
0.0
 10
47.06913383154868
 20
-26.15964354814759
 30
0.0
 10
47.06913383154868
 20
-26.15964354814759
 30
0.0
 10
47.1072021366607
 20
-26.2294067317239
 30
0.0
 10
47.1072021366607
 20
-26.2294067317239
 30
0.0
 10
46.95475666143839
 20
-26.30571559672219
 30
0.0
 10
46.82143146615922
 20
-26.3437839018342
 30
0.0
 10
46.56098224747434
 20
-26.3437839018342
 30
0.0
  0
HATCH
  5
8C
330
70
100
AcDbEntity
  8
Layer 1
 62
   250
440
 33554687
100
AcDbHatch
 10
0.0
 20
0.0
 30
0.0
210
0.0
220
0.0
230
1.0
  2
SOLID
 70
     1
 71
     1
 91
        2
 92
        1
 93
        1
 72
     4
 94
        3
 73
     0
 74
     0
 95
       20
 96
       16
 40
0.0
 40
0.0
 40
0.0
 40
0.0
 40
1.0
 40
1.0
 40
1.0
 40
2.0
 40
2.0
 40
2.0
 40
3.0
 40
3.0
 40
3.0
 40
4.0
 40
4.0
 40
4.0
 40
5.0
 40
5.0
 40
5.0
 40
5.0
 10
44.24260524067546
 20
-22.1388726073125
 10
43.83608397341598
 20
-22.1388726073125
 10
43.54376762149253
 20
-22.14524603396021
 10
43.17531465934506
 20
-22.15161946060793
 10
43.17531465934506
 20
-22.15161946060793
 10
43.17531465934506
 20
-23.76495767635043
 10
43.17531465934506
 20
-23.76495767635043
 10
43.48020560978967
 20
-23.76495767635043
 10
43.76614853506541
 20
-23.77133110299814
 10
44.08378633880544
 20
-23.77133110299814
 10
44.70614283821582
 20
-23.77133110299814
 10
45.22704127558561
 20
-23.50450845766554
 10
45.22704127558561
 20
-22.92022026336717
 10
45.22704127558561
 20
-22.38020154605425
 10
44.90940347184556
 20
-22.1388726073125
 10
44.24260524067546
 20
-22.1388726073125
 97
        0
 97
        1
330
8A
 92
        1
 93
        1
 72
     4
 94
        3
 73
     0
 74
     0
 95
       65
 96
       61
 40
0.0
 40
0.0
 40
0.0
 40
0.0
 40
1.0
 40
1.0
 40
1.0
 40
2.0
 40
2.0
 40
2.0
 40
3.0
 40
3.0
 40
3.0
 40
4.0
 40
4.0
 40
4.0
 40
5.0
 40
5.0
 40
5.0
 40
6.0
 40
6.0
 40
6.0
 40
7.0
 40
7.0
 40
7.0
 40
8.0
 40
8.0
 40
8.0
 40
9.0
 40
9.0
 40
9.0
 40
10.0
 40
10.0
 40
10.0
 40
11.0
 40
11.0
 40
11.0
 40
12.0
 40
12.0
 40
12.0
 40
13.0
 40
13.0
 40
13.0
 40
14.0
 40
14.0
 40
14.0
 40
15.0
 40
15.0
 40
15.0
 40
16.0
 40
16.0
 40
16.0
 40
17.0
 40
17.0
 40
17.0
 40
18.0
 40
18.0
 40
18.0
 40
19.0
 40
19.0
 40
19.0
 40
20.0
 40
20.0
 40
20.0
 40
20.0
 10
46.56098224747434
 20
-26.3437839018342
 10
45.55742593262106
 20
-26.3437839018342
 10
44.70614283821582
 20
-25.67043998924211
 10
43.85503199858486
 20
-24.05710177349961
 10
43.58183592660454
 20
-24.05710177349961
 10
43.38494871962251
 20
-24.05710177349961
 10
43.17531465934506
 20
-24.05710177349961
 10
43.17531465934506
 20
-24.05710177349961
 10
43.17531465934506
 20
-25.78481715935241
 10
43.17531465934506
 20
-25.78481715935241
 10
43.17531465934506
 20
-26.0452663780373
 10
43.25162352434334
 20
-26.15327012149988
 10
43.44851073132537
 20
-26.23578015837161
 10
43.44851073132537
 20
-26.23578015837161
 10
43.41681585286107
 20
-26.30571559672219
 10
43.41681585286107
 20
-26.30571559672219
 10
43.21355521923133
 20
-26.28659531677905
 10
43.11192490241646
 20
-26.29296874342676
 10
42.93398572060331
 20
-26.29296874342676
 10
42.75621879356442
 20
-26.29296874342676
 10
42.64821505010184
 20
-26.29296874342676
 10
42.46390244164096
 20
-26.30571559672219
 10
42.46390244164096
 20
-26.30571559672219
 10
42.43858098982438
 20
-26.24852701166704
 10
42.43858098982438
 20
-26.24852701166704
 10
42.59102646504668
 20
-26.17859157331646
 10
42.65458847674955
 20
-26.0452663780373
 10
42.65458847674955
 20
-25.83563231775984
 10
42.65458847674955
 20
-25.83563231775984
 10
42.65458847674955
 20
-22.30406493583023
 10
42.65458847674955
 20
-22.30406493583023
 10
42.65458847674955
 20
-22.16419405912909
 10
42.60377331834211
 20
-21.99917398538563
 10
42.42583413652896
 20
-21.90391709521847
 10
42.42583413652896
 20
-21.90391709521847
 10
42.44495441647209
 20
-21.84672851016332
 10
42.44495441647209
 20
-21.84672851016332
 10
42.76259222021213
 20
-21.85930310868448
 10
43.00392115895387
 20
-21.85930310868448
 10
43.32155896269392
 20
-21.85930310868448
 10
43.65814479160283
 20
-21.85930310868448
 10
44.03934460704571
 20
-21.85292968203677
 10
44.36955700930691
 20
-21.85292968203677
 10
45.14453123871386
 20
-21.85292968203677
 10
45.78600801806739
 20
-22.17694091242452
 10
45.78600801806739
 20
-22.87560627683318
 10
45.78600801806739
 20
-23.54895018942526
 10
45.22704127558561
 20
-23.91102972492502
 10
44.50288220458609
 20
-24.01903346838761
 10
45.11903753212302
 20
-25.40999077055723
 10
45.93208006664197
 20
-26.21683213320274
 10
46.73874917451323
 20
-26.21683213320274
 10
46.87862005121437
 20
-26.21683213320274
 10
46.96750351473382
 20
-26.20408527990731
 10
47.06913383154868
 20
-26.15964354814759
 10
47.06913383154868
 20
-26.15964354814759
 10
47.1072021366607
 20
-26.2294067317239
 10
47.1072021366607
 20
-26.2294067317239
 10
46.95475666143839
 20
-26.30571559672219
 10
46.82143146615922
 20
-26.3437839018342
 10
46.56098224747434
 20
-26.3437839018342
 97
        0
 97
        1
330
8B
 75
     2
 76
     1
 98
        1
 10
0.0
 20
0.0
450
        0
451
        0
460
0.0
461
0.0
452
        0
462
0.0
453
        0
470

  0
SPLINE
  5
8D
330
70
100
AcDbEntity
  8
Layer 1
100
AcDbSpline
210
0.0
220
0.0
230
1.0
 70
     9
 71
     3
 72
    47
 73
    43
 74
     0
 42
0.0000000001
 43
0.0000000001
 40
0.0
 40
0.0
 40
0.0
 40
0.0
 40
1.0
 40
1.0
 40
1.0
 40
2.0
 40
2.0
 40
2.0
 40
3.0
 40
3.0
 40
3.0
 40
4.0
 40
4.0
 40
4.0
 40
5.0
 40
5.0
 40
5.0
 40
6.0
 40
6.0
 40
6.0
 40
7.0
 40
7.0
 40
7.0
 40
8.0
 40
8.0
 40
8.0
 40
9.0
 40
9.0
 40
9.0
 40
10.0
 40
10.0
 40
10.0
 40
11.0
 40
11.0
 40
11.0
 40
12.0
 40
12.0
 40
12.0
 40
13.0
 40
13.0
 40
13.0
 40
14.0
 40
14.0
 40
14.0
 40
14.0
 10
48.36982963200476
 20
-26.30571559672219
 30
0.0
 10
48.21101073013475
 20
-26.29296874342676
 30
0.0
 10
48.02669812167388
 20
-26.29296874342676
 30
0.0
 10
47.86787921980386
 20
-26.29296874342676
 30
0.0
 10
47.68373886611725
 20
-26.29296874342676
 30
0.0
 10
47.5057996843041
 20
-26.29296874342676
 30
0.0
 10
47.34077961056064
 20
-26.30571559672219
 30
0.0
 10
47.34077961056064
 20
-26.30571559672219
 30
0.0
 10
47.32803275726522
 20
-26.24215358501932
 30
0.0
 10
47.32803275726522
 20
-26.24215358501932
 30
0.0
 10
47.51217311095182
 20
-26.15964354814759
 30
0.0
 10
47.60122882924552
 20
-26.07076008462815
 30
0.0
 10
47.60122882924552
 20
-25.84837917105527
 30
0.0
 10
47.60122882924552
 20
-25.84837917105527
 30
0.0
 10
47.60122882924552
 20
-22.32938638764682
 30
0.0
 10
47.60122882924552
 20
-22.32938638764682
 30
0.0
 10
47.60122882924552
 20
-22.08168402225735
 30
0.0
 10
47.52491996424724
 20
-21.97368027879477
 30
0.0
 10
47.35972763572951
 20
-21.91011826709192
 30
0.0
 10
47.35972763572951
 20
-21.91011826709192
 30
0.0
 10
47.38522134232036
 20
-21.84672851016332
 30
0.0
 10
47.38522134232036
 20
-21.84672851016332
 30
0.0
 10
47.54404024419038
 20
-21.85930310868448
 30
0.0
 10
47.69648571941268
 20
-21.85930310868448
 30
0.0
 10
47.8553046212827
 20
-21.85930310868448
 30
0.0
 10
48.01395126837846
 20
-21.85930310868448
 30
0.0
 10
48.21101073013475
 20
-21.85930310868448
 30
0.0
 10
48.35708277870934
 20
-21.84672851016332
 30
0.0
 10
48.35708277870934
 20
-21.84672851016332
 30
0.0
 10
48.38240423052592
 20
-21.90391709521847
 30
0.0
 10
48.38240423052592
 20
-21.90391709521847
 30
0.0
 10
48.22358532865592
 20
-21.96730685214706
 30
0.0
 10
48.12195501184103
 20
-22.08168402225735
 30
0.0
 10
48.12195501184103
 20
-22.2849446558871
 30
0.0
 10
48.12195501184103
 20
-22.2849446558871
 30
0.0
 10
48.12195501184103
 20
-25.84200574440755
 30
0.0
 10
48.12195501184103
 20
-25.84200574440755
 30
0.0
 10
48.12195501184103
 20
-26.06438665798043
 30
0.0
 10
48.2172119020082
 20
-26.15964354814759
 30
0.0
 10
48.38877765717364
 20
-26.24215358501932
 30
0.0
 10
48.38877765717364
 20
-26.24215358501932
 30
0.0
 10
48.36982963200476
 20
-26.30571559672219
 30
0.0
 10
48.36982963200476
 20
-26.30571559672219
 30
0.0
  0
HATCH
  5
8E
330
70
100
AcDbEntity
  8
Layer 1
 62
   250
440
 33554687
100
AcDbHatch
 10
0.0
 20
0.0
 30
0.0
210
0.0
220
0.0
230
1.0
  2
SOLID
 70
     1
 71
     1
 91
        1
 92
        1
 93
        1
 72
     4
 94
        3
 73
     0
 74
     0
 95
       47
 96
       43
 40
0.0
 40
0.0
 40
0.0
 40
0.0
 40
1.0
 40
1.0
 40
1.0
 40
2.0
 40
2.0
 40
2.0
 40
3.0
 40
3.0
 40
3.0
 40
4.0
 40
4.0
 40
4.0
 40
5.0
 40
5.0
 40
5.0
 40
6.0
 40
6.0
 40
6.0
 40
7.0
 40
7.0
 40
7.0
 40
8.0
 40
8.0
 40
8.0
 40
9.0
 40
9.0
 40
9.0
 40
10.0
 40
10.0
 40
10.0
 40
11.0
 40
11.0
 40
11.0
 40
12.0
 40
12.0
 40
12.0
 40
13.0
 40
13.0
 40
13.0
 40
14.0
 40
14.0
 40
14.0
 40
14.0
 10
48.36982963200476
 20
-26.30571559672219
 10
48.21101073013475
 20
-26.29296874342676
 10
48.02669812167388
 20
-26.29296874342676
 10
47.86787921980386
 20
-26.29296874342676
 10
47.68373886611725
 20
-26.29296874342676
 10
47.5057996843041
 20
-26.29296874342676
 10
47.34077961056064
 20
-26.30571559672219
 10
47.34077961056064
 20
-26.30571559672219
 10
47.32803275726522
 20
-26.24215358501932
 10
47.32803275726522
 20
-26.24215358501932
 10
47.51217311095182
 20
-26.15964354814759
 10
47.60122882924552
 20
-26.07076008462815
 10
47.60122882924552
 20
-25.84837917105527
 10
47.60122882924552
 20
-25.84837917105527
 10
47.60122882924552
 20
-22.32938638764682
 10
47.60122882924552
 20
-22.32938638764682
 10
47.60122882924552
 20
-22.08168402225735
 10
47.52491996424724
 20
-21.97368027879477
 10
47.35972763572951
 20
-21.91011826709192
 10
47.35972763572951
 20
-21.91011826709192
 10
47.38522134232036
 20
-21.84672851016332
 10
47.38522134232036
 20
-21.84672851016332
 10
47.54404024419038
 20
-21.85930310868448
 10
47.69648571941268
 20
-21.85930310868448
 10
47.8553046212827
 20
-21.85930310868448
 10
48.01395126837846
 20
-21.85930310868448
 10
48.21101073013475
 20
-21.85930310868448
 10
48.35708277870934
 20
-21.84672851016332
 10
48.35708277870934
 20
-21.84672851016332
 10
48.38240423052592
 20
-21.90391709521847
 10
48.38240423052592
 20
-21.90391709521847
 10
48.22358532865592
 20
-21.96730685214706
 10
48.12195501184103
 20
-22.08168402225735
 10
48.12195501184103
 20
-22.2849446558871
 10
48.12195501184103
 20
-22.2849446558871
 10
48.12195501184103
 20
-25.84200574440755
 10
48.12195501184103
 20
-25.84200574440755
 10
48.12195501184103
 20
-26.06438665798043
 10
48.2172119020082
 20
-26.15964354814759
 10
48.38877765717364
 20
-26.24215358501932
 10
48.38877765717364
 20
-26.24215358501932
 10
48.36982963200476
 20
-26.30571559672219
 10
48.36982963200476
 20
-26.30571559672219
 97
        0
 97
        1
330
8D
 75
     2
 76
     1
 98
        1
 10
0.0
 20
0.0
450
        0
451
        0
460
0.0
461
0.0
452
        0
462
0.0
453
        0
470

  0
SPLINE
  5
8F
330
70
100
AcDbEntity
  8
Layer 1
100
AcDbSpline
210
0.0
220
0.0
230
1.0
 70
     9
 71
     3
 72
    53
 73
    49
 74
     0
 42
0.0000000001
 43
0.0000000001
 40
0.0
 40
0.0
 40
0.0
 40
0.0
 40
1.0
 40
1.0
 40
1.0
 40
2.0
 40
2.0
 40
2.0
 40
3.0
 40
3.0
 40
3.0
 40
4.0
 40
4.0
 40
4.0
 40
5.0
 40
5.0
 40
5.0
 40
6.0
 40
6.0
 40
6.0
 40
7.0
 40
7.0
 40
7.0
 40
8.0
 40
8.0
 40
8.0
 40
9.0
 40
9.0
 40
9.0
 40
10.0
 40
10.0
 40
10.0
 40
11.0
 40
11.0
 40
11.0
 40
12.0
 40
12.0
 40
12.0
 40
13.0
 40
13.0
 40
13.0
 40
14.0
 40
14.0
 40
14.0
 40
15.0
 40
15.0
 40
15.0
 40
16.0
 40
16.0
 40
16.0
 40
16.0
 10
50.66839733976346
 20
-26.33741047518648
 30
0.0
 10
50.01417370711451
 20
-26.33741047518648
 30
0.0
 10
49.57595756139074
 20
-26.22303330507619
 30
0.0
 10
49.13119573424499
 20
-26.02614609809416
 30
0.0
 10
49.13119573424499
 20
-26.02614609809416
 30
0.0
 10
49.09312742913297
 20
-25.27666557527806
 30
0.0
 10
49.09312742913297
 20
-25.27666557527806
 30
0.0
 10
49.09312742913297
 20
-25.27666557527806
 30
0.0
 10
49.16943629413125
 20
-25.25771755010918
 30
0.0
 10
49.16943629413125
 20
-25.25771755010918
 30
0.0
 10
49.39801837957758
 20
-25.7467488542404
 30
0.0
 10
49.96973197535479
 20
-26.05163980468501
 30
0.0
 10
50.73833277811402
 20
-26.05163980468501
 30
0.0
 10
51.54482963121101
 20
-26.05163980468501
 30
0.0
 10
52.08502060329819
 20
-25.65149196407324
 30
0.0
 10
52.08502060329819
 20
-25.06065808835289
 30
0.0
 10
52.08502060329819
 20
-24.59074706416482
 30
0.0
 10
51.85006509120415
 20
-24.40006102905624
 30
0.0
 10
50.8716579733932
 20
-24.17147894360991
 30
0.0
 10
49.70928275666991
 20
-23.8982828716296
 30
0.0
 10
49.30913491605814
 20
-23.66332735953556
 30
0.0
 10
49.30913491605814
 20
-22.99635687359119
 30
0.0
 10
49.30913491605814
 20
-22.32938638764682
 30
0.0
 10
49.96973197535479
 20
-21.82123480357247
 30
0.0
 10
50.9226453865749
 20
-21.82123480357247
 30
0.0
 10
51.47523870240897
 20
-21.82123480357247
 30
0.0
 10
51.89450682296388
 20
-21.89754366857076
 30
0.0
 10
52.28173555550596
 20
-22.03724229049763
 30
0.0
 10
52.28173555550596
 20
-22.03724229049763
 30
0.0
 10
52.21834579857736
 20
-22.57708875303629
 30
0.0
 10
52.21834579857736
 20
-22.57708875303629
 30
0.0
 10
52.21834579857736
 20
-22.57708875303629
 30
0.0
 10
52.14841036022679
 20
-22.58983560633171
 30
0.0
 10
52.14841036022679
 20
-22.58983560633171
 30
0.0
 10
51.90070799483732
 20
-22.30406493583023
 30
0.0
 10
51.53242728746412
 20
-22.10717772884821
 30
0.0
 10
50.82101506976003
 20
-22.10717772884821
 30
0.0
 10
50.16024575568911
 20
-22.10717772884821
 30
0.0
 10
49.7919650483159
 20
-22.45013698440483
 30
0.0
 10
49.7919650483159
 20
-22.83753797172117
 30
0.0
 10
49.7919650483159
 20
-23.23131238568523
 30
0.0
 10
49.95698512205937
 20
-23.40287814085067
 30
0.0
 10
50.98603514350349
 20
-23.64420707959242
 30
0.0
 10
52.07847492187621
 20
-23.8982828716296
 30
0.0
 10
52.56767848078169
 20
-24.19042696877879
 30
0.0
 10
52.56767848078169
 20
-24.88926458796171
 30
0.0
 10
52.56767848078169
 20
-25.78481715935241
 30
0.0
 10
51.72914223967188
 20
-26.33741047518648
 30
0.0
 10
50.66839733976346
 20
-26.33741047518648
 30
0.0
  0
HATCH
  5
90
330
70
100
AcDbEntity
  8
Layer 1
 62
   250
440
 33554687
100
AcDbHatch
 10
0.0
 20
0.0
 30
0.0
210
0.0
220
0.0
230
1.0
  2
SOLID
 70
     1
 71
     1
 91
        1
 92
        1
 93
        1
 72
     4
 94
        3
 73
     0
 74
     0
 95
       53
 96
       49
 40
0.0
 40
0.0
 40
0.0
 40
0.0
 40
1.0
 40
1.0
 40
1.0
 40
2.0
 40
2.0
 40
2.0
 40
3.0
 40
3.0
 40
3.0
 40
4.0
 40
4.0
 40
4.0
 40
5.0
 40
5.0
 40
5.0
 40
6.0
 40
6.0
 40
6.0
 40
7.0
 40
7.0
 40
7.0
 40
8.0
 40
8.0
 40
8.0
 40
9.0
 40
9.0
 40
9.0
 40
10.0
 40
10.0
 40
10.0
 40
11.0
 40
11.0
 40
11.0
 40
12.0
 40
12.0
 40
12.0
 40
13.0
 40
13.0
 40
13.0
 40
14.0
 40
14.0
 40
14.0
 40
15.0
 40
15.0
 40
15.0
 40
16.0
 40
16.0
 40
16.0
 40
16.0
 10
50.66839733976346
 20
-26.33741047518648
 10
50.01417370711451
 20
-26.33741047518648
 10
49.57595756139074
 20
-26.22303330507619
 10
49.13119573424499
 20
-26.02614609809416
 10
49.13119573424499
 20
-26.02614609809416
 10
49.09312742913297
 20
-25.27666557527806
 10
49.09312742913297
 20
-25.27666557527806
 10
49.09312742913297
 20
-25.27666557527806
 10
49.16943629413125
 20
-25.25771755010918
 10
49.16943629413125
 20
-25.25771755010918
 10
49.39801837957758
 20
-25.7467488542404
 10
49.96973197535479
 20
-26.05163980468501
 10
50.73833277811402
 20
-26.05163980468501
 10
51.54482963121101
 20
-26.05163980468501
 10
52.08502060329819
 20
-25.65149196407324
 10
52.08502060329819
 20
-25.06065808835289
 10
52.08502060329819
 20
-24.59074706416482
 10
51.85006509120415
 20
-24.40006102905624
 10
50.8716579733932
 20
-24.17147894360991
 10
49.70928275666991
 20
-23.8982828716296
 10
49.30913491605814
 20
-23.66332735953556
 10
49.30913491605814
 20
-22.99635687359119
 10
49.30913491605814
 20
-22.32938638764682
 10
49.96973197535479
 20
-21.82123480357247
 10
50.9226453865749
 20
-21.82123480357247
 10
51.47523870240897
 20
-21.82123480357247
 10
51.89450682296388
 20
-21.89754366857076
 10
52.28173555550596
 20
-22.03724229049763
 10
52.28173555550596
 20
-22.03724229049763
 10
52.21834579857736
 20
-22.57708875303629
 10
52.21834579857736
 20
-22.57708875303629
 10
52.21834579857736
 20
-22.57708875303629
 10
52.14841036022679
 20
-22.58983560633171
 10
52.14841036022679
 20
-22.58983560633171
 10
51.90070799483732
 20
-22.30406493583023
 10
51.53242728746412
 20
-22.10717772884821
 10
50.82101506976003
 20
-22.10717772884821
 10
50.16024575568911
 20
-22.10717772884821
 10
49.7919650483159
 20
-22.45013698440483
 10
49.7919650483159
 20
-22.83753797172117
 10
49.7919650483159
 20
-23.23131238568523
 10
49.95698512205937
 20
-23.40287814085067
 10
50.98603514350349
 20
-23.64420707959242
 10
52.07847492187621
 20
-23.8982828716296
 10
52.56767848078169
 20
-24.19042696877879
 10
52.56767848078169
 20
-24.88926458796171
 10
52.56767848078169
 20
-25.78481715935241
 10
51.72914223967188
 20
-26.33741047518648
 10
50.66839733976346
 20
-26.33741047518648
 97
        0
 97
        1
330
8F
 75
     2
 76
     1
 98
        1
 10
0.0
 20
0.0
450
        0
451
        0
460
0.0
461
0.0
452
        0
462
0.0
453
        0
470

  0
ENDSEC
  0
SECTION
  2
OBJECTS
  0
DICTIONARY
  5
C
330
0
100
AcDbDictionary
281
     1
  3
ACAD_COLOR
350
63
  3
ACAD_DETAILVIEWSTYLE
350
6A
  3
ACAD_GROUP
350
D
  3
ACAD_LAYOUT
350
62
  3
ACAD_MATERIAL
350
10
  3
ACAD_MLEADERSTYLE
350
66
  3
ACAD_MLINESTYLE
350
5F
  3
ACAD_PLOTSETTINGS
350
61
  3
ACAD_PLOTSTYLENAME
350
E
  3
ACAD_SCALELIST
350
42
  3
ACAD_SECTIONVIEWSTYLE
350
68
  3
ACAD_TABLESTYLE
350
64
  3
ACAD_VISUALSTYLE
350
29
  3
ACDB_RECOMPOSE_DATA
350
99
  3
AcDbVariableDictionary
350
91
  0
DICTIONARY
  5
63
102
{ACAD_REACTORS
330
C
102
}
330
C
100
AcDbDictionary
281
     1
  0
DICTIONARY
  5
6A
102
{ACAD_REACTORS
330
C
102
}
330
C
100
AcDbDictionary
281
     1
  3
Imperial24
350
6B
  0
DICTIONARY
  5
D
102
{ACAD_REACTORS
330
C
102
}
330
C
100
AcDbDictionary
281
     1
  0
DICTIONARY
  5
62
102
{ACAD_REACTORS
330
C
102
}
330
C
100
AcDbDictionary
281
     1
  3
Layout1
350
6F
  3
Layout2
350
77
  3
Model
350
73
  0
DICTIONARY
  5
10
102
{ACAD_REACTORS
330
C
102
}
330
C
100
AcDbDictionary
281
     1
  3
ByBlock
350
19
  3
ByLayer
350
11
  3
Global
350
21
  0
DICTIONARY
  5
66
102
{ACAD_REACTORS
330
C
102
}
330
C
100
AcDbDictionary
281
     1
  3
Standard
350
67
  0
DICTIONARY
  5
5F
102
{ACAD_REACTORS
330
C
102
}
330
C
100
AcDbDictionary
281
     1
  3
Standard
350
60
  0
DICTIONARY
  5
61
102
{ACAD_REACTORS
330
C
102
}
330
C
100
AcDbDictionary
281
     1
  0
ACDBDICTIONARYWDFLT
  5
E
102
{ACAD_REACTORS
330
C
102
}
330
C
100
AcDbDictionary
281
     1
  3
Normal
350
F
100
AcDbDictionaryWithDefault
340
F
  0
DICTIONARY
  5
42
102
{ACAD_REACTORS
330
C
102
}
330
C
100
AcDbDictionary
281
     1
  3
A0
350
43
  3
A1
350
44
  3
A2
350
45
  3
A3
350
46
  3
A4
350
47
  3
A5
350
48
  3
A6
350
49
  3
A7
350
4A
  3
A8
350
4B
  3
A9
350
4C
  3
B0
350
4D
  3
B1
350
4E
  3
B2
350
4F
  3
B3
350
50
  3
B4
350
51
  3
B5
350
52
  3
B6
350
53
  0
DICTIONARY
  5
68
102
{ACAD_REACTORS
330
C
102
}
330
C
100
AcDbDictionary
281
     1
  3
Imperial24
350
69
  0
DICTIONARY
  5
64
102
{ACAD_REACTORS
330
C
102
}
330
C
100
AcDbDictionary
281
     1
  3
Standard
350
65
  0
DICTIONARY
  5
29
102
{ACAD_REACTORS
330
C
102
}
330
C
100
AcDbDictionary
281
     1
  3
2dWireframe
350
2F
  3
Basic
350
2E
  3
Brighten
350
35
  3
ColorChange
350
39
  3
Conceptual
350
32
  3
Dim
350
34
  3
EdgeColorOff
350
41
  3
Facepattern
350
38
  3
Flat
350
2A
  3
FlatWithEdges
350
2B
  3
Gouraud
350
2C
  3
GouraudWithEdges
350
2D
  3
Hidden
350
31
  3
JitterOff
350
3F
  3
Linepattern
350
37
  3
OverhangOff
350
40
  3
Realistic
350
33
  3
Shaded
350
3E
  3
Shaded with edges
350
3D
  3
Shades of Gray
350
3A
  3
Sketchy
350
3B
  3
Thicken
350
36
  3
Wireframe
350
30
  3
X-Ray
350
3C
  0
XRECORD
  5
99
102
{ACAD_REACTORS
330
C
102
}
330
C
100
AcDbXrecord
280
     1
 90
        1
330
65
  0
DICTIONARY
  5
91
102
{ACAD_REACTORS
330
C
102
}
330
C
100
AcDbDictionary
281
     1
  3
CANNOSCALE
350
96
  3
CMLEADERSTYLE
350
93
  3
CTABLESTYLE
350
92
  3
CVIEWDETAILSTYLE
350
94
  3
CVIEWSECTIONSTYLE
350
95
  0
ACDBDETAILVIEWSTYLE
  5
6B
102
{ACAD_XDICTIONARY
360
9C
102
}
102
{ACAD_REACTORS
330
6A
102
}
330
6A
100
AcDbModelDocViewStyle
 70
     0
  3
Imperial24
290
     0
100
AcDbDetailViewStyle
 70
     0
 71
     0
 90
        3
 71
     1
340
55
 62
   256
 40
0.24
340
0
 62
   256
 40
0.24
300

 40
0.36
280
     3
 71
     2
340
5D
 90
       25
 62
   256
 71
     3
340
55
 62
   256
 40
0.24
 90
        1
 40
0.75
 90
        1
300
%<\AcVar ViewType \f "%tc1">% %<\AcVar ViewDetailId>%\PSCALE %<\AcVar ViewScale \f "%sn">%
 71
     4
340
5D
 90
       25
 62
   256
340
5D
 90
       25
 62
   256
280
     0
  0
LAYOUT
  5
6F
102
{ACAD_REACTORS
330
62
102
}
330
62
100
AcDbPlotSettings
  1

  2

  4

  6

 40
0.0
 41
0.0
 42
0.0
 43
0.0
 44
0.0
 45
0.0
 46
0.0
 47
0.0
 48
0.0
 49
0.0
140
0.0
141
0.0
142
1.0
143
1.0
 70
   688
 72
     0
 73
     0
 74
     5
  7

 75
    16
147
1.0
 76
     0
 77
     2
 78
   300
148
0.0
149
0.0
100
AcDbLayout
  1
Layout1
 70
     1
 71
     1
 10
0.0
 20
0.0
 11
12.0
 21
9.0
 12
0.0
 22
0.0
 32
0.0
 14
0.0
 24
0.0
 34
0.0
 15
0.0
 25
0.0
 35
0.0
146
0.0
 13
0.0
 23
0.0
 33
0.0
 16
1.0
 26
0.0
 36
0.0
 17
0.0
 27
1.0
 37
0.0
 76
     0
330
6C
  0
LAYOUT
  5
77
102
{ACAD_REACTORS
330
62
102
}
330
62
100
AcDbPlotSettings
  1

  2

  4

  6

 40
0.0
 41
0.0
 42
0.0
 43
0.0
 44
0.0
 45
0.0
 46
0.0
 47
0.0
 48
0.0
 49
0.0
140
0.0
141
0.0
142
1.0
143
1.0
 70
   688
 72
     0
 73
     0
 74
     5
  7

 75
    16
147
1.0
 76
     0
 77
     2
 78
   300
148
0.0
149
0.0
100
AcDbLayout
  1
Layout2
 70
     1
 71
     2
 10
0.0
 20
0.0
 11
12.0
 21
9.0
 12
0.0
 22
0.0
 32
0.0
 14
0.0
 24
0.0
 34
0.0
 15
0.0
 25
0.0
 35
0.0
146
0.0
 13
0.0
 23
0.0
 33
0.0
 16
1.0
 26
0.0
 36
0.0
 17
0.0
 27
1.0
 37
0.0
 76
     0
330
74
  0
LAYOUT
  5
73
102
{ACAD_REACTORS
330
62
102
}
330
62
100
AcDbPlotSettings
  1

  2

  4

  6

 40
0.0
 41
0.0
 42
0.0
 43
0.0
 44
0.0
 45
0.0
 46
0.0
 47
0.0
 48
0.0
 49
0.0
140
0.0
141
0.0
142
1.0
143
1.0
 70
  1712
 72
     0
 73
     0
 74
     0
  7

 75
     0
147
1.0
 76
     0
 77
     2
 78
   300
148
0.0
149
0.0
100
AcDbLayout
  1
Model
 70
     1
 71
     0
 10
0.0
 20
0.0
 11
12.0
 21
9.0
 12
0.0
 22
0.0
 32
0.0
 14
0.0
 24
0.0
 34
0.0
 15
0.0
 25
0.0
 35
0.0
146
0.0
 13
0.0
 23
0.0
 33
0.0
 16
1.0
 26
0.0
 36
0.0
 17
0.0
 27
1.0
 37
0.0
 76
     0
330
70
  0
MATERIAL
  5
19
102
{ACAD_XDICTIONARY
360
1A
102
}
102
{ACAD_REACTORS
330
10
102
}
330
10
100
AcDbMaterial
  1
ByBlock
 72
     0
 43
0.0208333333333333
 43
0.0
 43
0.0
 43
0.0
 43
0.0
 43
0.0208333333333333
 43
0.0
 43
0.0
 43
0.0
 43
0.0
 43
1.0
 43
0.0
 43
0.0
 43
0.0
 43
0.0
 43
1.0
 77
     0
 47
0.0208333333333333
 47
0.0
 47
0.0
 47
0.0
 47
0.0
 47
0.0208333333333333
 47
0.0
 47
0.0
 47
0.0
 47
0.0
 47
1.0
 47
0.0
 47
0.0
 47
0.0
 47
0.0
 47
1.0
171
     0
 49
0.0208333333333333
 49
0.0
 49
0.0
 49
0.0
 49
0.0
 49
0.0208333333333333
 49
0.0
 49
0.0
 49
0.0
 49
0.0
 49
1.0
 49
0.0
 49
0.0
 49
0.0
 49
0.0
 49
1.0
175
     0
142
0.0208333333333333
142
0.0
142
0.0
142
0.0
142
0.0
142
0.0208333333333333
142
0.0
142
0.0
142
0.0
142
0.0
142
1.0
142
0.0
142
0.0
142
0.0
142
0.0
142
1.0
179
     0
144
0.0208333333333333
144
0.0
144
0.0
144
0.0
144
0.0
144
0.0208333333333333
144
0.0
144
0.0
144
0.0
144
0.0
144
1.0
144
0.0
144
0.0
144
0.0
144
0.0
144
1.0
147
0.0208333333333333
147
0.0
147
0.0
147
0.0
147
0.0
147
0.0208333333333333
147
0.0
147
0.0
147
0.0
147
0.0
147
1.0
147
0.0
147
0.0
147
0.0
147
0.0
147
1.0
  0
MATERIAL
  5
11
102
{ACAD_XDICTIONARY
360
12
102
}
102
{ACAD_REACTORS
330
10
102
}
330
10
100
AcDbMaterial
  1
ByLayer
 72
     0
 43
0.0208333333333333
 43
0.0
 43
0.0
 43
0.0
 43
0.0
 43
0.0208333333333333
 43
0.0
 43
0.0
 43
0.0
 43
0.0
 43
1.0
 43
0.0
 43
0.0
 43
0.0
 43
0.0
 43
1.0
 77
     0
 47
0.0208333333333333
 47
0.0
 47
0.0
 47
0.0
 47
0.0
 47
0.0208333333333333
 47
0.0
 47
0.0
 47
0.0
 47
0.0
 47
1.0
 47
0.0
 47
0.0
 47
0.0
 47
0.0
 47
1.0
171
     0
 49
0.0208333333333333
 49
0.0
 49
0.0
 49
0.0
 49
0.0
 49
0.0208333333333333
 49
0.0
 49
0.0
 49
0.0
 49
0.0
 49
1.0
 49
0.0
 49
0.0
 49
0.0
 49
0.0
 49
1.0
175
     0
142
0.0208333333333333
142
0.0
142
0.0
142
0.0
142
0.0
142
0.0208333333333333
142
0.0
142
0.0
142
0.0
142
0.0
142
1.0
142
0.0
142
0.0
142
0.0
142
0.0
142
1.0
179
     0
144
0.0208333333333333
144
0.0
144
0.0
144
0.0
144
0.0
144
0.0208333333333333
144
0.0
144
0.0
144
0.0
144
0.0
144
1.0
144
0.0
144
0.0
144
0.0
144
0.0
144
1.0
147
0.0208333333333333
147
0.0
147
0.0
147
0.0
147
0.0
147
0.0208333333333333
147
0.0
147
0.0
147
0.0
147
0.0
147
1.0
147
0.0
147
0.0
147
0.0
147
0.0
147
1.0
  0
MATERIAL
  5
21
102
{ACAD_XDICTIONARY
360
22
102
}
102
{ACAD_REACTORS
330
10
102
}
330
10
100
AcDbMaterial
  1
Global
 72
     0
 43
0.0208333333333333
 43
0.0
 43
0.0
 43
0.0
 43
0.0
 43
0.0208333333333333
 43
0.0
 43
0.0
 43
0.0
 43
0.0
 43
1.0
 43
0.0
 43
0.0
 43
0.0
 43
0.0
 43
1.0
 77
     0
 47
0.0208333333333333
 47
0.0
 47
0.0
 47
0.0
 47
0.0
 47
0.0208333333333333
 47
0.0
 47
0.0
 47
0.0
 47
0.0
 47
1.0
 47
0.0
 47
0.0
 47
0.0
 47
0.0
 47
1.0
171
     0
 49
0.0208333333333333
 49
0.0
 49
0.0
 49
0.0
 49
0.0
 49
0.0208333333333333
 49
0.0
 49
0.0
 49
0.0
 49
0.0
 49
1.0
 49
0.0
 49
0.0
 49
0.0
 49
0.0
 49
1.0
175
     0
142
0.0208333333333333
142
0.0
142
0.0
142
0.0
142
0.0
142
0.0208333333333333
142
0.0
142
0.0
142
0.0
142
0.0
142
1.0
142
0.0
142
0.0
142
0.0
142
0.0
142
1.0
179
     0
144
0.0208333333333333
144
0.0
144
0.0
144
0.0
144
0.0
144
0.0208333333333333
144
0.0
144
0.0
144
0.0
144
0.0
144
1.0
144
0.0
144
0.0
144
0.0
144
0.0
144
1.0
147
0.0208333333333333
147
0.0
147
0.0
147
0.0
147
0.0
147
0.0208333333333333
147
0.0
147
0.0
147
0.0
147
0.0
147
1.0
147
0.0
147
0.0
147
0.0
147
0.0
147
1.0
  0
MLEADERSTYLE
  5
67
102
{ACAD_REACTORS
330
66
102
}
330
66
100
AcDbMLeaderStyle
179
     2
170
     2
171
     1
172
     0
 90
        2
 40
0.0
 41
0.0
173
     1
 91
-1056964608
340
5B
 92
       -2
290
     1
 42
0.09
291
     1
 43
0.36
  3
Standard
 44
0.18
300

342
55
174
     1
178
     6
175
     1
176
     0
 93
-1056964608
 45
0.18
292
     0
297
     0
 46
0.18
 94
-1056964608
 47
1.0
 49
1.0
140
1.0
293
     1
141
0.0
294
     1
177
     0
142
1.0
295
     0
296
     0
143
0.125
271
     0
272
     9
273
     9
298
     1
  0
MLINESTYLE
  5
60
102
{ACAD_REACTORS
330
5F
102
}
330
5F
100
AcDbMlineStyle
  2
STANDARD
 70
     0
  3

 62
   256
 51
90.0
 52
90.0
 71
     2
 49
0.5
 62
   256
  6
BYLAYER
 49
-0.5
 62
   256
  6
BYLAYER
  0
ACDBPLACEHOLDER
  5
F
102
{ACAD_REACTORS
330
E
102
}
330
E
  0
SCALE
  5
43
102
{ACAD_REACTORS
330
42
102
}
330
42
100
AcDbScale
 70
     0
300
1:1
140
1.0
141
1.0
290
     1
  0
SCALE
  5
44
102
{ACAD_REACTORS
330
42
102
}
330
42
100
AcDbScale
 70
     0
300
1/128" = 1'-0"
140
0.0078125
141
12.0
290
     0
  0
SCALE
  5
45
102
{ACAD_REACTORS
330
42
102
}
330
42
100
AcDbScale
 70
     0
300
1/64" = 1'-0"
140
0.015625
141
12.0
290
     0
  0
SCALE
  5
46
102
{ACAD_REACTORS
330
42
102
}
330
42
100
AcDbScale
 70
     0
300
1/32" = 1'-0"
140
0.03125
141
12.0
290
     0
  0
SCALE
  5
47
102
{ACAD_REACTORS
330
42
102
}
330
42
100
AcDbScale
 70
     0
300
1/16" = 1'-0"
140
0.0625
141
12.0
290
     0
  0
SCALE
  5
48
102
{ACAD_REACTORS
330
42
102
}
330
42
100
AcDbScale
 70
     0
300
3/32" = 1'-0"
140
0.09375
141
12.0
290
     0
  0
SCALE
  5
49
102
{ACAD_REACTORS
330
42
102
}
330
42
100
AcDbScale
 70
     0
300
1/8" = 1'-0"
140
0.125
141
12.0
290
     0
  0
SCALE
  5
4A
102
{ACAD_REACTORS
330
42
102
}
330
42
100
AcDbScale
 70
     0
300
3/16" = 1'-0"
140
0.1875
141
12.0
290
     0
  0
SCALE
  5
4B
102
{ACAD_REACTORS
330
42
102
}
330
42
100
AcDbScale
 70
     0
300
1/4" = 1'-0"
140
0.25
141
12.0
290
     0
  0
SCALE
  5
4C
102
{ACAD_REACTORS
330
42
102
}
330
42
100
AcDbScale
 70
     0
300
3/8" = 1'-0"
140
0.375
141
12.0
290
     0
  0
SCALE
  5
4D
102
{ACAD_REACTORS
330
42
102
}
330
42
100
AcDbScale
 70
     0
300
1/2" = 1'-0"
140
0.5
141
12.0
290
     0
  0
SCALE
  5
4E
102
{ACAD_REACTORS
330
42
102
}
330
42
100
AcDbScale
 70
     0
300
3/4" = 1'-0"
140
0.75
141
12.0
290
     0
  0
SCALE
  5
4F
102
{ACAD_REACTORS
330
42
102
}
330
42
100
AcDbScale
 70
     0
300
1" = 1'-0"
140
1.0
141
12.0
290
     0
  0
SCALE
  5
50
102
{ACAD_REACTORS
330
42
102
}
330
42
100
AcDbScale
 70
     0
300
1-1/2" = 1'-0"
140
1.5
141
12.0
290
     0
  0
SCALE
  5
51
102
{ACAD_REACTORS
330
42
102
}
330
42
100
AcDbScale
 70
     0
300
3" = 1'-0"
140
3.0
141
12.0
290
     0
  0
SCALE
  5
52
102
{ACAD_REACTORS
330
42
102
}
330
42
100
AcDbScale
 70
     0
300
6" = 1'-0"
140
6.0
141
12.0
290
     0
  0
SCALE
  5
53
102
{ACAD_REACTORS
330
42
102
}
330
42
100
AcDbScale
 70
     0
300
1'-0" = 1'-0"
140
12.0
141
12.0
290
     0
  0
ACDBSECTIONVIEWSTYLE
  5
69
102
{ACAD_XDICTIONARY
360
9A
102
}
102
{ACAD_REACTORS
330
68
102
}
330
68
100
AcDbModelDocViewStyle
 70
     0
  3
Imperial24
290
     0
100
AcDbSectionViewStyle
 70
     0
 71
     0
 90
       78
 71
     1
340
55
 62
   256
 40
0.24
340
0
340
0
 62
   256
 40
0.24
300
I, O, Q, S, X, Z
 40
0.48
 90
        3
 40
0.18
 90
        1
 71
     2
340
5D
 90
       25
 62
   256
340
5D
 90
       50
 62
   256
 40
0.24
 40
0.0
 40
0.24
 71
     3
340
55
 62
   256
 40
0.24
 90
        1
 40
0.75
 90
        1
300
%<\AcVar ViewType \f "%tc1">% %<\AcVar ViewSectionStartId>%-%<\AcVar ViewSectionEndId>%\PSCALE %<\AcVar ViewScale \f "%sn">%
 71
     4
 62
   256
 62
   257
300
ANSI31
 40
1.0
 90
        0
290
     0
290
     0
 90
        6
 40
0.0
 40
1.570796326794896
 40
0.2617993877991494
 40
1.308996938995747
 40
-0.2617993877991494
 40
1.832595714594046
  0
TABLESTYLE
  5
65
102
{ACAD_XDICTIONARY
360
97
102
}
102
{ACAD_REACTORS
330
64
102
}
330
64
100
AcDbTableStyle
280
     0
  3
Standard
 70
     0
 71
     0
 40
0.06
 41
0.06
280
     0
281
     0
  7
Standard
140
0.18
170
     2
 62
     0
 63
     7
283
     0
 90
      512
 91
        0
  1

274
    -2
284
     1
 64
     0
275
    -2
285
     1
 65
     0
276
    -2
286
     1
 66
     0
277
    -2
287
     1
 67
     0
278
    -2
288
     1
 68
     0
279
    -2
289
     1
 69
     0
  7
Standard
140
0.25
170
     5
 62
     0
 63
     7
283
     0
 90
      512
 91
        0
  1

274
    -2
284
     1
 64
     0
275
    -2
285
     1
 65
     0
276
    -2
286
     1
 66
     0
277
    -2
287
     1
 67
     0
278
    -2
288
     1
 68
     0
279
    -2
289
     1
 69
     0
  7
Standard
140
0.18
170
     5
 62
     0
 63
     7
283
     0
 90
      512
 91
        0
  1

274
    -2
284
     1
 64
     0
275
    -2
285
     1
 65
     0
276
    -2
286
     1
 66
     0
277
    -2
287
     1
 67
     0
278
    -2
288
     1
 68
     0
279
    -2
289
     1
 69
     0
  0
VISUALSTYLE
  5
2F
102
{ACAD_REACTORS
330
29
102
}
330
29
100
AcDbVisualStyle
  2
2dWireframe
 70
     4
177
     3
291
     0
 70
    58
 90
        0
176
     1
 90
        2
176
     1
 90
        0
176
     1
 90
        0
176
     1
 40
0.6
176
     1
 40
30.0
176
     1
 62
     7
420
 16777215
176
     1
 90
        1
176
     1
 90
        4
176
     1
 62
     7
176
     1
 62
   257
176
     1
 90
        1
176
     1
 90
        1
176
     1
 40
1.0
176
     1
 90
        0
176
     1
 62
   257
176
     1
 40
1.0
176
     1
 90
        1
176
     1
 90
        6
176
     1
 90
        2
176
     1
 62
     7
176
     1
 90
        5
176
     1
 90
        0
176
     1
 90
        0
176
     1
290
     0
176
     1
 90
        1
176
     1
 40
0.0
176
     1
 90
        0
176
     1
290
     1
176
     1
290
     1
176
     1
290
     0
176
     1
290
     0
176
     1
290
     0
176
     1
290
     0
176
     1
290
     0
176
     1
290
     0
176
     1
290
     0
176
     1
 90
       50
176
     1
 40
0.0
176
     1
 40
1.0
176
     1
 90
        0
176
     1
 62
    18
420
        0
176
     1
 90
       50
176
     1
 90
        3
176
     1
 62
     5
420
      255
176
     1
290
     0
176
     1
 90
       50
176
     1
 90
       50
176
     1
 90
       50
176
     1
290
     0
176
     1
 90
       50
176
     1
 62
   256
176
     0
 40
1.0
176
     0
 90
        2
176
     1
  1
strokes_ogs.tif
176
     1
290
     0
176
     1
 40
1.0
176
     1
 40
1.0
176
     1
1001
ACAD
1000
AcDbSavedByObjectVersion
1070
     0
  0
VISUALSTYLE
  5
2E
102
{ACAD_REACTORS
330
29
102
}
330
29
100
AcDbVisualStyle
  2
Basic
 70
     7
177
     3
291
     1
 70
    58
 90
        1
176
     1
 90
        0
176
     1
 90
        1
176
     1
 90
        0
176
     1
 40
0.6
176
     1
 40
30.0
176
     1
 62
     7
420
 16777215
176
     1
 90
        0
176
     1
 90
        4
176
     1
 62
     7
176
     1
 62
   257
176
     1
 90
        1
176
     1
 90
        1
176
     1
 40
1.0
176
     1
 90
        8
176
     1
 62
     7
176
     1
 40
1.0
176
     1
 90
        1
176
     1
 90
        6
176
     1
 90
        2
176
     1
 62
     7
176
     1
 90
        5
176
     1
 90
        0
176
     1
 90
        0
176
     1
290
     0
176
     1
 90
        1
176
     1
 40
0.0
176
     1
 90
        0
176
     1
290
     0
176
     1
290
     1
176
     1
290
     1
176
     1
290
     0
176
     1
290
     0
176
     1
290
     0
176
     1
290
     0
176
     1
290
     0
176
     1
290
     0
176
     1
 90
       50
176
     1
 40
0.0
176
     1
 40
1.0
176
     1
 90
        0
176
     1
 62
    18
420
        0
176
     1
 90
       50
176
     1
 90
        3
176
     1
 62
     5
420
      255
176
     1
290
     0
176
     1
 90
       50
176
     1
 90
       50
176
     1
 90
       50
176
     1
290
     0
176
     1
 90
       50
176
     1
 62
   256
176
     0
 40
1.0
176
     0
 90
        2
176
     1
  1
strokes_ogs.tif
176
     1
290
     0
176
     1
 40
1.0
176
     1
 40
1.0
176
     1
1001
ACAD
1000
AcDbSavedByObjectVersion
1070
     0
  0
VISUALSTYLE
  5
35
102
{ACAD_REACTORS
330
29
102
}
330
29
100
AcDbVisualStyle
  2
Brighten
 70
    12
177
     3
291
     1
 70
    58
 90
        2
176
     1
 90
        2
176
     1
 90
        0
176
     1
 90
        0
176
     1
 40
0.6
176
     1
 40
30.0
176
     1
 62
     7
420
 16777215
176
     1
 90
        1
176
     1
 90
        4
176
     1
 62
     7
176
     1
 62
   257
176
     1
 90
        1
176
     1
 90
        1
176
     1
 40
1.0
176
     1
 90
        8
176
     1
 62
     7
176
     1
 40
1.0
176
     1
 90
        1
176
     1
 90
        6
176
     1
 90
        2
176
     1
 62
     7
176
     1
 90
        5
176
     1
 90
        0
176
     1
 90
        0
176
     1
290
     0
176
     1
 90
        1
176
     1
 40
50.0
176
     1
 90
        0
176
     1
290
     0
176
     1
290
     1
176
     1
290
     1
176
     1
290
     0
176
     1
290
     0
176
     1
290
     0
176
     1
290
     0
176
     1
290
     0
176
     1
290
     0
176
     1
 90
       50
176
     1
 40
0.0
176
     1
 40
1.0
176
     1
 90
        0
176
     1
 62
    18
420
        0
176
     1
 90
       50
176
     1
 90
        3
176
     1
 62
     5
420
      255
176
     1
290
     0
176
     1
 90
       50
176
     1
 90
       50
176
     1
 90
       50
176
     1
290
     0
176
     1
 90
       50
176
     1
 62
   256
176
     0
 40
1.0
176
     0
 90
        2
176
     1
  1
strokes_ogs.tif
176
     1
290
     0
176
     1
 40
1.0
176
     1
 40
1.0
176
     1
1001
ACAD
1000
AcDbSavedByObjectVersion
1070
     0
  0
VISUALSTYLE
  5
39
102
{ACAD_REACTORS
330
29
102
}
330
29
100
AcDbVisualStyle
  2
ColorChange
 70
    16
177
     3
291
     1
 70
    58
 90
        2
176
     1
 90
        2
176
     1
 90
        3
176
     1
 90
        0
176
     1
 40
0.6
176
     1
 40
30.0
176
     1
 62
     8
420
  8421504
176
     1
 90
        1
176
     1
 90
        4
176
     1
 62
     7
176
     1
 62
   257
176
     1
 90
        1
176
     1
 90
        1
176
     1
 40
1.0
176
     1
 90
        8
176
     1
 62
     8
420
  8421504
176
     1
 40
1.0
176
     1
 90
        1
176
     1
 90
        6
176
     1
 90
        2
176
     1
 62
     7
176
     1
 90
        5
176
     1
 90
        0
176
     1
 90
        0
176
     1
290
     0
176
     1
 90
        1
176
     1
 40
0.0
176
     1
 90
        0
176
     1
290
     0
176
     1
290
     1
176
     1
290
     1
176
     1
290
     0
176
     1
290
     0
176
     1
290
     0
176
     1
290
     0
176
     1
290
     0
176
     1
290
     0
176
     1
 90
       50
176
     1
 40
0.0
176
     1
 40
1.0
176
     1
 90
        0
176
     1
 62
    18
420
        0
176
     1
 90
       50
176
     1
 90
        3
176
     1
 62
     5
420
      255
176
     1
290
     0
176
     1
 90
       50
176
     1
 90
       50
176
     1
 90
       50
176
     1
290
     0
176
     1
 90
       50
176
     1
 62
   256
176
     0
 40
1.0
176
     0
 90
        2
176
     1
  1
strokes_ogs.tif
176
     1
290
     0
176
     1
 40
1.0
176
     1
 40
1.0
176
     1
1001
ACAD
1000
AcDbSavedByObjectVersion
1070
     0
  0
VISUALSTYLE
  5
32
102
{ACAD_REACTORS
330
29
102
}
330
29
100
AcDbVisualStyle
  2
Conceptual
 70
     9
177
     3
291
     0
 70
    58
 90
        3
176
     1
 90
        2
176
     1
 90
        0
176
     1
 90
        0
176
     1
 40
0.6
176
     1
 40
30.0
176
     1
 62
     7
420
 16777215
176
     1
 90
        2
176
     1
 90
        2
176
     1
 62
     7
176
     1
 62
   257
176
     1
 90
        1
176
     1
 90
        1
176
     1
 40
179.0
176
     1
 90
        8
176
     1
 62
     7
176
     1
 40
1.0
176
     1
 90
        1
176
     1
 90
        6
176
     1
 90
        2
176
     1
 62
     7
176
     1
 90
        3
176
     1
 90
        0
176
     1
 90
        0
176
     1
290
     0
176
     1
 90
        1
176
     1
 40
0.0
176
     1
 90
        0
176
     1
290
     0
176
     1
290
     1
176
     1
290
     1
176
     1
290
     0
176
     1
290
     0
176
     1
290
     0
176
     1
290
     0
176
     1
290
     0
176
     1
290
     0
176
     1
 90
       50
176
     1
 40
0.0
176
     1
 40
1.0
176
     1
 90
        0
176
     1
 62
    18
420
        0
176
     1
 90
       50
176
     1
 90
        3
176
     1
 62
     5
420
      255
176
     1
290
     0
176
     1
 90
       50
176
     1
 90
       50
176
     1
 90
       50
176
     1
290
     0
176
     1
 90
       50
176
     1
 62
   256
176
     0
 40
1.0
176
     0
 90
        2
176
     1
  1
strokes_ogs.tif
176
     1
290
     0
176
     1
 40
1.0
176
     1
 40
1.0
176
     1
1001
ACAD
1000
AcDbSavedByObjectVersion
1070
     0
  0
VISUALSTYLE
  5
34
102
{ACAD_REACTORS
330
29
102
}
330
29
100
AcDbVisualStyle
  2
Dim
 70
    11
177
     3
291
     1
 70
    58
 90
        2
176
     1
 90
        2
176
     1
 90
        0
176
     1
 90
        0
176
     1
 40
0.6
176
     1
 40
30.0
176
     1
 62
     7
420
 16777215
176
     1
 90
        1
176
     1
 90
        4
176
     1
 62
     7
176
     1
 62
   257
176
     1
 90
        1
176
     1
 90
        1
176
     1
 40
1.0
176
     1
 90
        8
176
     1
 62
     7
176
     1
 40
1.0
176
     1
 90
        1
176
     1
 90
        6
176
     1
 90
        2
176
     1
 62
     7
176
     1
 90
        5
176
     1
 90
        0
176
     1
 90
        0
176
     1
290
     0
176
     1
 90
        1
176
     1
 40
-50.0
176
     1
 90
        0
176
     1
290
     0
176
     1
290
     1
176
     1
290
     1
176
     1
290
     0
176
     1
290
     0
176
     1
290
     0
176
     1
290
     0
176
     1
290
     0
176
     1
290
     0
176
     1
 90
       50
176
     1
 40
0.0
176
     1
 40
1.0
176
     1
 90
        0
176
     1
 62
    18
420
        0
176
     1
 90
       50
176
     1
 90
        3
176
     1
 62
     5
420
      255
176
     1
290
     0
176
     1
 90
       50
176
     1
 90
       50
176
     1
 90
       50
176
     1
290
     0
176
     1
 90
       50
176
     1
 62
   256
176
     0
 40
1.0
176
     0
 90
        2
176
     1
  1
strokes_ogs.tif
176
     1
290
     0
176
     1
 40
1.0
176
     1
 40
1.0
176
     1
1001
ACAD
1000
AcDbSavedByObjectVersion
1070
     0
  0
VISUALSTYLE
  5
41
102
{ACAD_REACTORS
330
29
102
}
330
29
100
AcDbVisualStyle
  2
EdgeColorOff
 70
    22
177
     3
291
     1
 70
    58
 90
        2
176
     0
 90
        2
176
     0
 90
        0
176
     0
 90
        0
176
     0
 40
0.6
176
     0
 40
30.0
176
     0
 62
     7
420
 16777215
176
     0
 90
        1
176
     0
 90
        4
176
     0
 62
     7
176
     0
 62
   257
176
     0
 90
        1
176
     0
 90
        1
176
     0
 40
1.0
176
     0
 90
        8
176
     2
 62
     7
176
     0
 40
1.0
176
     0
 90
        1
176
     0
 90
        6
176
     0
 90
        2
176
     0
 62
     7
176
     0
 90
        5
176
     0
 90
        0
176
     0
 90
        0
176
     0
290
     0
176
     0
 90
        1
176
     0
 40
0.0
176
     0
 90
        0
176
     0
290
     0
176
     0
290
     1
176
     0
290
     1
176
     0
290
     0
176
     0
290
     0
176
     0
290
     0
176
     0
290
     0
176
     0
290
     0
176
     0
290
     0
176
     0
 90
       50
176
     0
 40
0.0
176
     0
 40
1.0
176
     0
 90
        0
176
     0
 62
    18
420
        0
176
     0
 90
       50
176
     0
 90
        3
176
     0
 62
     5
420
      255
176
     0
290
     0
176
     0
 90
       50
176
     0
 90
       50
176
     0
 90
       50
176
     0
290
     0
176
     0
 90
       50
176
     0
 62
   256
176
     0
 40
1.0
176
     0
 90
        2
176
     0
  1
strokes_ogs.tif
176
     0
290
     0
176
     0
 40
1.0
176
     0
 40
1.0
176
     0
1001
ACAD
1000
AcDbSavedByObjectVersion
1070
     0
  0
VISUALSTYLE
  5
38
102
{ACAD_REACTORS
330
29
102
}
330
29
100
AcDbVisualStyle
  2
Facepattern
 70
    15
177
     3
291
     1
 70
    58
 90
        2
176
     1
 90
        2
176
     1
 90
        0
176
     1
 90
        0
176
     1
 40
0.6
176
     1
 40
30.0
176
     1
 62
     7
420
 16777215
176
     1
 90
        1
176
     1
 90
        4
176
     1
 62
     7
176
     1
 62
   257
176
     1
 90
        1
176
     1
 90
        1
176
     1
 40
1.0
176
     1
 90
        8
176
     1
 62
     7
176
     1
 40
1.0
176
     1
 90
        1
176
     1
 90
        6
176
     1
 90
        2
176
     1
 62
     7
176
     1
 90
        5
176
     1
 90
        0
176
     1
 90
        0
176
     1
290
     0
176
     1
 90
        1
176
     1
 40
0.0
176
     1
 90
        0
176
     1
290
     0
176
     1
290
     1
176
     1
290
     1
176
     1
290
     0
176
     1
290
     0
176
     1
290
     0
176
     1
290
     0
176
     1
290
     0
176
     1
290
     0
176
     1
 90
       50
176
     1
 40
0.0
176
     1
 40
1.0
176
     1
 90
        0
176
     1
 62
    18
420
        0
176
     1
 90
       50
176
     1
 90
        3
176
     1
 62
     5
420
      255
176
     1
290
     0
176
     1
 90
       50
176
     1
 90
       50
176
     1
 90
       50
176
     1
290
     0
176
     1
 90
       50
176
     1
 62
   256
176
     0
 40
1.0
176
     0
 90
        2
176
     1
  1
strokes_ogs.tif
176
     1
290
     0
176
     1
 40
1.0
176
     1
 40
1.0
176
     1
1001
ACAD
1000
AcDbSavedByObjectVersion
1070
     0
  0
VISUALSTYLE
  5
2A
102
{ACAD_REACTORS
330
29
102
}
330
29
100
AcDbVisualStyle
  2
Flat
 70
     0
177
     3
291
     1
 70
    58
 90
        2
176
     1
 90
        1
176
     1
 90
        1
176
     1
 90
        2
176
     1
 40
0.6
176
     1
 40
30.0
176
     1
 62
     7
420
 16777215
176
     1
 90
        0
176
     1
 90
        0
176
     1
 62
     7
176
     1
 62
   257
176
     1
 90
        1
176
     1
 90
        1
176
     1
 40
1.0
176
     1
 90
        8
176
     1
 62
     7
176
     1
 40
1.0
176
     1
 90
        1
176
     1
 90
        6
176
     1
 90
        2
176
     1
 62
     7
176
     1
 90
        5
176
     1
 90
        0
176
     1
 90
        0
176
     1
290
     0
176
     1
 90
       13
176
     1
 40
0.0
176
     1
 90
        0
176
     1
290
     0
176
     1
290
     1
176
     1
290
     1
176
     1
290
     0
176
     1
290
     0
176
     1
290
     0
176
     1
290
     0
176
     1
290
     0
176
     1
290
     0
176
     1
 90
       50
176
     1
 40
0.0
176
     1
 40
1.0
176
     1
 90
        0
176
     1
 62
    18
420
        0
176
     1
 90
       50
176
     1
 90
        3
176
     1
 62
     5
420
      255
176
     1
290
     0
176
     1
 90
       50
176
     1
 90
       50
176
     1
 90
       50
176
     1
290
     0
176
     1
 90
       50
176
     1
 62
   256
176
     0
 40
1.0
176
     0
 90
        2
176
     1
  1
strokes_ogs.tif
176
     1
290
     0
176
     1
 40
1.0
176
     1
 40
1.0
176
     1
1001
ACAD
1000
AcDbSavedByObjectVersion
1070
     0
  0
VISUALSTYLE
  5
2B
102
{ACAD_REACTORS
330
29
102
}
330
29
100
AcDbVisualStyle
  2
FlatWithEdges
 70
     1
177
     3
291
     1
 70
    58
 90
        2
176
     1
 90
        1
176
     1
 90
        1
176
     1
 90
        2
176
     1
 40
0.6
176
     1
 40
30.0
176
     1
 62
     7
420
 16777215
176
     1
 90
        1
176
     1
 90
        0
176
     1
 62
     7
176
     1
 62
   257
176
     1
 90
        1
176
     1
 90
        1
176
     1
 40
1.0
176
     1
 90
        0
176
     1
 62
   257
176
     1
 40
1.0
176
     1
 90
        1
176
     1
 90
        6
176
     1
 90
        2
176
     1
 62
     7
176
     1
 90
        5
176
     1
 90
        0
176
     1
 90
        0
176
     1
290
     0
176
     1
 90
       13
176
     1
 40
0.0
176
     1
 90
        0
176
     1
290
     0
176
     1
290
     1
176
     1
290
     1
176
     1
290
     0
176
     1
290
     0
176
     1
290
     0
176
     1
290
     0
176
     1
290
     0
176
     1
290
     0
176
     1
 90
       50
176
     1
 40
0.0
176
     1
 40
1.0
176
     1
 90
        0
176
     1
 62
    18
420
        0
176
     1
 90
       50
176
     1
 90
        3
176
     1
 62
     5
420
      255
176
     1
290
     0
176
     1
 90
       50
176
     1
 90
       50
176
     1
 90
       50
176
     1
290
     0
176
     1
 90
       50
176
     1
 62
   256
176
     0
 40
1.0
176
     0
 90
        2
176
     1
  1
strokes_ogs.tif
176
     1
290
     0
176
     1
 40
1.0
176
     1
 40
1.0
176
     1
1001
ACAD
1000
AcDbSavedByObjectVersion
1070
     0
  0
VISUALSTYLE
  5
2C
102
{ACAD_REACTORS
330
29
102
}
330
29
100
AcDbVisualStyle
  2
Gouraud
 70
     2
177
     3
291
     1
 70
    58
 90
        2
176
     1
 90
        2
176
     1
 90
        1
176
     1
 90
        2
176
     1
 40
0.6
176
     1
 40
30.0
176
     1
 62
     7
420
 16777215
176
     1
 90
        0
176
     1
 90
        0
176
     1
 62
     7
176
     1
 62
   257
176
     1
 90
        1
176
     1
 90
        1
176
     1
 40
1.0
176
     1
 90
        0
176
     1
 62
     7
176
     1
 40
1.0
176
     1
 90
        1
176
     1
 90
        6
176
     1
 90
        2
176
     1
 62
     7
176
     1
 90
        5
176
     1
 90
        0
176
     1
 90
        0
176
     1
290
     0
176
     1
 90
       13
176
     1
 40
0.0
176
     1
 90
        0
176
     1
290
     0
176
     1
290
     1
176
     1
290
     1
176
     1
290
     0
176
     1
290
     0
176
     1
290
     0
176
     1
290
     0
176
     1
290
     0
176
     1
290
     0
176
     1
 90
       50
176
     1
 40
0.0
176
     1
 40
1.0
176
     1
 90
        0
176
     1
 62
    18
420
        0
176
     1
 90
       50
176
     1
 90
        3
176
     1
 62
     5
420
      255
176
     1
290
     0
176
     1
 90
       50
176
     1
 90
       50
176
     1
 90
       50
176
     1
290
     0
176
     1
 90
       50
176
     1
 62
   256
176
     0
 40
1.0
176
     0
 90
        2
176
     1
  1
strokes_ogs.tif
176
     1
290
     0
176
     1
 40
1.0
176
     1
 40
1.0
176
     1
1001
ACAD
1000
AcDbSavedByObjectVersion
1070
     0
  0
VISUALSTYLE
  5
2D
102
{ACAD_REACTORS
330
29
102
}
330
29
100
AcDbVisualStyle
  2
GouraudWithEdges
 70
     3
177
     3
291
     1
 70
    58
 90
        2
176
     1
 90
        2
176
     1
 90
        1
176
     1
 90
        2
176
     1
 40
0.6
176
     1
 40
30.0
176
     1
 62
     7
420
 16777215
176
     1
 90
        1
176
     1
 90
        0
176
     1
 62
     7
176
     1
 62
   257
176
     1
 90
        1
176
     1
 90
        1
176
     1
 40
1.0
176
     1
 90
        0
176
     1
 62
   257
176
     1
 40
1.0
176
     1
 90
        1
176
     1
 90
        6
176
     1
 90
        2
176
     1
 62
     7
176
     1
 90
        5
176
     1
 90
        0
176
     1
 90
        0
176
     1
290
     0
176
     1
 90
       13
176
     1
 40
0.0
176
     1
 90
        0
176
     1
290
     0
176
     1
290
     1
176
     1
290
     1
176
     1
290
     0
176
     1
290
     0
176
     1
290
     0
176
     1
290
     0
176
     1
290
     0
176
     1
290
     0
176
     1
 90
       50
176
     1
 40
0.0
176
     1
 40
1.0
176
     1
 90
        0
176
     1
 62
    18
420
        0
176
     1
 90
       50
176
     1
 90
        3
176
     1
 62
     5
420
      255
176
     1
290
     0
176
     1
 90
       50
176
     1
 90
       50
176
     1
 90
       50
176
     1
290
     0
176
     1
 90
       50
176
     1
 62
   256
176
     0
 40
1.0
176
     0
 90
        2
176
     1
  1
strokes_ogs.tif
176
     1
290
     0
176
     1
 40
1.0
176
     1
 40
1.0
176
     1
1001
ACAD
1000
AcDbSavedByObjectVersion
1070
     0
  0
VISUALSTYLE
  5
31
102
{ACAD_REACTORS
330
29
102
}
330
29
100
AcDbVisualStyle
  2
Hidden
 70
     6
177
     3
291
     0
 70
    58
 90
        1
176
     1
 90
        2
176
     1
 90
        2
176
     1
 90
        0
176
     1
 40
0.6
176
     1
 40
30.0
176
     1
 62
     7
420
 16777215
176
     1
 90
        2
176
     1
 90
        2
176
     1
 62
     7
176
     1
 62
   257
176
     1
 90
        2
176
     1
 90
        1
176
     1
 40
40.0
176
     1
 90
        0
176
     1
 62
   257
176
     1
 40
1.0
176
     1
 90
        1
176
     1
 90
        6
176
     1
 90
        2
176
     1
 62
     7
176
     1
 90
        3
176
     1
 90
        0
176
     1
 90
        0
176
     1
290
     0
176
     1
 90
        1
176
     1
 40
0.0
176
     1
 90
        0
176
     1
290
     0
176
     1
290
     1
176
     1
290
     1
176
     1
290
     0
176
     1
290
     0
176
     1
290
     0
176
     1
290
     0
176
     1
290
     0
176
     1
290
     0
176
     1
 90
       50
176
     1
 40
0.0
176
     1
 40
1.0
176
     1
 90
        0
176
     1
 62
    18
420
        0
176
     1
 90
       50
176
     1
 90
        3
176
     1
 62
     5
420
      255
176
     1
290
     0
176
     1
 90
       50
176
     1
 90
       50
176
     1
 90
       50
176
     1
290
     0
176
     1
 90
       50
176
     1
 62
   256
176
     0
 40
1.0
176
     0
 90
        2
176
     1
  1
strokes_ogs.tif
176
     1
290
     0
176
     1
 40
1.0
176
     1
 40
1.0
176
     1
1001
ACAD
1000
AcDbSavedByObjectVersion
1070
     0
  0
VISUALSTYLE
  5
3F
102
{ACAD_REACTORS
330
29
102
}
330
29
100
AcDbVisualStyle
  2
JitterOff
 70
    20
177
     3
291
     1
 70
    58
 90
        2
176
     0
 90
        2
176
     0
 90
        0
176
     0
 90
        0
176
     0
 40
0.6
176
     0
 40
30.0
176
     0
 62
     7
420
 16777215
176
     0
 90
        1
176
     0
 90
        4
176
     0
 62
     7
176
     0
 62
   257
176
     0
 90
        1
176
     0
 90
        1
176
     0
 40
1.0
176
     0
 90
       10
176
     2
 62
     7
176
     0
 40
1.0
176
     0
 90
        1
176
     0
 90
        6
176
     0
 90
        2
176
     0
 62
     7
176
     0
 90
        5
176
     0
 90
        0
176
     0
 90
        0
176
     0
290
     0
176
     0
 90
        1
176
     0
 40
0.0
176
     0
 90
        0
176
     0
290
     0
176
     0
290
     1
176
     0
290
     1
176
     0
290
     0
176
     0
290
     0
176
     0
290
     0
176
     0
290
     0
176
     0
290
     0
176
     0
290
     0
176
     0
 90
       50
176
     0
 40
0.0
176
     0
 40
1.0
176
     0
 90
        0
176
     0
 62
    18
420
        0
176
     0
 90
       50
176
     0
 90
        3
176
     0
 62
     5
420
      255
176
     0
290
     0
176
     0
 90
       50
176
     0
 90
       50
176
     0
 90
       50
176
     0
290
     0
176
     0
 90
       50
176
     0
 62
   256
176
     0
 40
1.0
176
     0
 90
        2
176
     0
  1
strokes_ogs.tif
176
     0
290
     0
176
     0
 40
1.0
176
     0
 40
1.0
176
     0
1001
ACAD
1000
AcDbSavedByObjectVersion
1070
     0
  0
VISUALSTYLE
  5
37
102
{ACAD_REACTORS
330
29
102
}
330
29
100
AcDbVisualStyle
  2
Linepattern
 70
    14
177
     3
291
     1
 70
    58
 90
        2
176
     1
 90
        2
176
     1
 90
        0
176
     1
 90
        0
176
     1
 40
0.6
176
     1
 40
30.0
176
     1
 62
     7
420
 16777215
176
     1
 90
        1
176
     1
 90
        4
176
     1
 62
     7
176
     1
 62
   257
176
     1
 90
        7
176
     1
 90
        7
176
     1
 40
1.0
176
     1
 90
        8
176
     1
 62
     7
176
     1
 40
1.0
176
     1
 90
        1
176
     1
 90
        6
176
     1
 90
        2
176
     1
 62
     7
176
     1
 90
        5
176
     1
 90
        0
176
     1
 90
        0
176
     1
290
     0
176
     1
 90
        1
176
     1
 40
0.0
176
     1
 90
        0
176
     1
290
     0
176
     1
290
     1
176
     1
290
     1
176
     1
290
     0
176
     1
290
     0
176
     1
290
     0
176
     1
290
     0
176
     1
290
     0
176
     1
290
     0
176
     1
 90
       50
176
     1
 40
0.0
176
     1
 40
1.0
176
     1
 90
        0
176
     1
 62
    18
420
        0
176
     1
 90
       50
176
     1
 90
        3
176
     1
 62
     5
420
      255
176
     1
290
     0
176
     1
 90
       50
176
     1
 90
       50
176
     1
 90
       50
176
     1
290
     0
176
     1
 90
       50
176
     1
 62
   256
176
     0
 40
1.0
176
     0
 90
        2
176
     1
  1
strokes_ogs.tif
176
     1
290
     0
176
     1
 40
1.0
176
     1
 40
1.0
176
     1
1001
ACAD
1000
AcDbSavedByObjectVersion
1070
     0
  0
VISUALSTYLE
  5
40
102
{ACAD_REACTORS
330
29
102
}
330
29
100
AcDbVisualStyle
  2
OverhangOff
 70
    21
177
     3
291
     1
 70
    58
 90
        2
176
     0
 90
        2
176
     0
 90
        0
176
     0
 90
        0
176
     0
 40
0.6
176
     0
 40
30.0
176
     0
 62
     7
420
 16777215
176
     0
 90
        1
176
     0
 90
        4
176
     0
 62
     7
176
     0
 62
   257
176
     0
 90
        1
176
     0
 90
        1
176
     0
 40
1.0
176
     0
 90
        9
176
     2
 62
     7
176
     0
 40
1.0
176
     0
 90
        1
176
     0
 90
        6
176
     0
 90
        2
176
     0
 62
     7
176
     0
 90
        5
176
     0
 90
        0
176
     0
 90
        0
176
     0
290
     0
176
     0
 90
        1
176
     0
 40
0.0
176
     0
 90
        0
176
     0
290
     0
176
     0
290
     1
176
     0
290
     1
176
     0
290
     0
176
     0
290
     0
176
     0
290
     0
176
     0
290
     0
176
     0
290
     0
176
     0
290
     0
176
     0
 90
       50
176
     0
 40
0.0
176
     0
 40
1.0
176
     0
 90
        0
176
     0
 62
    18
420
        0
176
     0
 90
       50
176
     0
 90
        3
176
     0
 62
     5
420
      255
176
     0
290
     0
176
     0
 90
       50
176
     0
 90
       50
176
     0
 90
       50
176
     0
290
     0
176
     0
 90
       50
176
     0
 62
   256
176
     0
 40
1.0
176
     0
 90
        2
176
     0
  1
strokes_ogs.tif
176
     0
290
     0
176
     0
 40
1.0
176
     0
 40
1.0
176
     0
1001
ACAD
1000
AcDbSavedByObjectVersion
1070
     0
  0
VISUALSTYLE
  5
33
102
{ACAD_REACTORS
330
29
102
}
330
29
100
AcDbVisualStyle
  2
Realistic
 70
     8
177
     3
291
     0
 70
    58
 90
        2
176
     1
 90
        3
176
     1
 90
        0
176
     1
 90
        2
176
     1
 40
0.6
176
     1
 40
30.0
176
     1
 62
     7
420
 16777215
176
     1
 90
        0
176
     1
 90
        0
176
     1
 62
     7
176
     1
 62
   257
176
     1
 90
        1
176
     1
 90
        1
176
     1
 40
1.0
176
     1
 90
        8
176
     1
 62
   257
176
     1
 40
1.0
176
     1
 90
        1
176
     1
 90
        6
176
     1
 90
        2
176
     1
 62
     7
176
     1
 90
        3
176
     1
 90
        0
176
     1
 90
        0
176
     1
290
     0
176
     1
 90
       13
176
     1
 40
0.0
176
     1
 90
        0
176
     1
290
     0
176
     1
290
     1
176
     1
290
     1
176
     1
290
     0
176
     1
290
     0
176
     1
290
     0
176
     1
290
     0
176
     1
290
     0
176
     1
290
     0
176
     1
 90
       50
176
     1
 40
0.0
176
     1
 40
1.0
176
     1
 90
        0
176
     1
 62
    18
420
        0
176
     1
 90
       50
176
     1
 90
        3
176
     1
 62
     5
420
      255
176
     1
290
     0
176
     1
 90
       50
176
     1
 90
       50
176
     1
 90
       50
176
     1
290
     0
176
     1
 90
       50
176
     1
 62
   256
176
     0
 40
1.0
176
     0
 90
        2
176
     1
  1
strokes_ogs.tif
176
     1
290
     0
176
     1
 40
1.0
176
     1
 40
1.0
176
     1
1001
ACAD
1000
AcDbSavedByObjectVersion
1070
     0
  0
VISUALSTYLE
  5
3E
102
{ACAD_REACTORS
330
29
102
}
330
29
100
AcDbVisualStyle
  2
Shaded
 70
    27
177
     3
291
     0
 70
    58
 90
        2
176
     1
 90
        2
176
     1
 90
        1
176
     1
 90
        2
176
     1
 40
0.6
176
     1
 40
30.0
176
     1
 62
     7
420
 16777215
176
     1
 90
        0
176
     1
 90
        4
176
     1
 62
     7
176
     1
 62
   257
176
     1
 90
        1
176
     1
 90
        1
176
     1
 40
1.0
176
     1
 90
        8
176
     1
 62
   257
176
     1
 40
1.0
176
     1
 90
        1
176
     1
 90
        6
176
     1
 90
        2
176
     1
 62
     8
420
  7895160
176
     1
 90
        3
176
     1
 90
        0
176
     1
 90
        0
176
     1
290
     0
176
     1
 90
        5
176
     1
 40
0.0
176
     1
 90
        0
176
     1
290
     0
176
     1
290
     1
176
     1
290
     1
176
     1
290
     0
176
     1
290
     0
176
     1
290
     0
176
     1
290
     0
176
     1
290
     0
176
     1
290
     0
176
     1
 90
       50
176
     1
 40
0.0
176
     1
 40
1.0
176
     1
 90
        0
176
     1
 62
    18
420
        0
176
     1
 90
       50
176
     1
 90
        3
176
     1
 62
     5
420
      255
176
     1
290
     0
176
     1
 90
       50
176
     1
 90
       50
176
     1
 90
       50
176
     1
290
     0
176
     1
 90
       50
176
     1
 62
   256
176
     0
 40
1.0
176
     0
 90
        2
176
     1
  1
strokes_ogs.tif
176
     1
290
     0
176
     1
 40
1.0
176
     1
 40
1.0
176
     1
1001
ACAD
1000
AcDbSavedByObjectVersion
1070
     0
  0
VISUALSTYLE
  5
3D
102
{ACAD_REACTORS
330
29
102
}
330
29
100
AcDbVisualStyle
  2
Shaded with edges
 70
    26
177
     3
291
     0
 70
    58
 90
        2
176
     1
 90
        2
176
     1
 90
        1
176
     1
 90
        2
176
     1
 40
0.6
176
     1
 40
30.0
176
     1
 62
     7
420
 16777215
176
     1
 90
        1
176
     1
 90
        2
176
     1
 62
     7
176
     1
 62
   257
176
     1
 90
        2
176
     1
 90
        1
176
     1
 40
1.0
176
     1
 90
        8
176
     1
 62
   257
176
     1
 40
1.0
176
     1
 90
        1
176
     1
 90
        6
176
     1
 90
        2
176
     1
 62
     7
176
     1
 90
        3
176
     1
 90
        0
176
     1
 90
        0
176
     1
290
     0
176
     1
 90
        5
176
     1
 40
0.0
176
     1
 90
        0
176
     1
290
     0
176
     1
290
     1
176
     1
290
     1
176
     1
290
     0
176
     1
290
     0
176
     1
290
     0
176
     1
290
     0
176
     1
290
     0
176
     1
290
     0
176
     1
 90
       50
176
     1
 40
0.0
176
     1
 40
1.0
176
     1
 90
        0
176
     1
 62
    18
420
        0
176
     1
 90
       50
176
     1
 90
        3
176
     1
 62
     5
420
      255
176
     1
290
     0
176
     1
 90
       50
176
     1
 90
       50
176
     1
 90
       50
176
     1
290
     0
176
     1
 90
       50
176
     1
 62
   256
176
     0
 40
1.0
176
     0
 90
        2
176
     1
  1
strokes_ogs.tif
176
     1
290
     0
176
     1
 40
1.0
176
     1
 40
1.0
176
     1
1001
ACAD
1000
AcDbSavedByObjectVersion
1070
     0
  0
VISUALSTYLE
  5
3A
102
{ACAD_REACTORS
330
29
102
}
330
29
100
AcDbVisualStyle
  2
Shades of Gray
 70
    23
177
     3
291
     0
 70
    58
 90
        2
176
     1
 90
        2
176
     1
 90
        3
176
     1
 90
        0
176
     1
 40
0.6
176
     1
 40
30.0
176
     1
 62
     7
420
 16777215
176
     1
 90
        2
176
     1
 90
        2
176
     1
 62
     7
176
     1
 62
     7
176
     1
 90
        1
176
     1
 90
        1
176
     1
 40
40.0
176
     1
 90
        8
176
     1
 62
     7
176
     1
 40
1.0
176
     1
 90
        1
176
     1
 90
        6
176
     1
 90
        2
176
     1
 62
     7
176
     1
 90
        3
176
     1
 90
        0
176
     1
 90
        0
176
     1
290
     0
176
     1
 90
        1
176
     1
 40
0.0
176
     1
 90
        0
176
     1
290
     0
176
     1
290
     1
176
     1
290
     1
176
     1
290
     0
176
     1
290
     0
176
     1
290
     0
176
     1
290
     0
176
     1
290
     0
176
     1
290
     0
176
     1
 90
       50
176
     1
 40
0.0
176
     1
 40
1.0
176
     1
 90
        0
176
     1
 62
    18
420
        0
176
     1
 90
       50
176
     1
 90
        3
176
     1
 62
     5
420
      255
176
     1
290
     0
176
     1
 90
       50
176
     1
 90
       50
176
     1
 90
       50
176
     1
290
     0
176
     1
 90
       50
176
     1
 62
   256
176
     0
 40
1.0
176
     0
 90
        2
176
     1
  1
strokes_ogs.tif
176
     1
290
     0
176
     1
 40
1.0
176
     1
 40
1.0
176
     1
1001
ACAD
1000
AcDbSavedByObjectVersion
1070
     0
  0
VISUALSTYLE
  5
3B
102
{ACAD_REACTORS
330
29
102
}
330
29
100
AcDbVisualStyle
  2
Sketchy
 70
    24
177
     3
291
     0
 70
    58
 90
        1
176
     1
 90
        2
176
     1
 90
        2
176
     1
 90
        0
176
     1
 40
0.6
176
     1
 40
30.0
176
     1
 62
     7
420
 16777215
176
     1
 90
        2
176
     1
 90
        2
176
     1
 62
     7
176
     1
 62
     7
176
     1
 90
        1
176
     1
 90
        1
176
     1
 40
40.0
176
     1
 90
       11
176
     1
 62
     7
176
     1
 40
1.0
176
     1
 90
        1
176
     1
 90
        6
176
     1
 90
        2
176
     1
 62
     7
176
     1
 90
        6
176
     1
 90
        0
176
     1
 90
        0
176
     1
290
     0
176
     1
 90
        1
176
     1
 40
0.0
176
     1
 90
        0
176
     1
290
     0
176
     1
290
     1
176
     1
290
     1
176
     1
290
     0
176
     1
290
     0
176
     1
290
     0
176
     1
290
     0
176
     1
290
     0
176
     1
290
     0
176
     1
 90
       50
176
     1
 40
0.0
176
     1
 40
1.0
176
     1
 90
        0
176
     1
 62
    18
420
        0
176
     1
 90
       50
176
     1
 90
        3
176
     1
 62
     5
420
      255
176
     1
290
     0
176
     1
 90
       50
176
     1
 90
       50
176
     1
 90
       50
176
     1
290
     0
176
     1
 90
       50
176
     1
 62
   256
176
     0
 40
1.0
176
     0
 90
        2
176
     1
  1
strokes_ogs.tif
176
     1
290
     0
176
     1
 40
1.0
176
     1
 40
1.0
176
     1
1001
ACAD
1000
AcDbSavedByObjectVersion
1070
     0
  0
VISUALSTYLE
  5
36
102
{ACAD_REACTORS
330
29
102
}
330
29
100
AcDbVisualStyle
  2
Thicken
 70
    13
177
     3
291
     1
 70
    58
 90
        2
176
     1
 90
        2
176
     1
 90
        0
176
     1
 90
        0
176
     1
 40
0.6
176
     1
 40
30.0
176
     1
 62
     7
420
 16777215
176
     1
 90
        1
176
     1
 90
        4
176
     1
 62
     7
176
     1
 62
   257
176
     1
 90
        1
176
     1
 90
        1
176
     1
 40
1.0
176
     1
 90
       12
176
     1
 62
     7
176
     1
 40
1.0
176
     1
 90
        1
176
     1
 90
        6
176
     1
 90
        2
176
     1
 62
     7
176
     1
 90
        5
176
     1
 90
        0
176
     1
 90
        0
176
     1
290
     0
176
     1
 90
        1
176
     1
 40
0.0
176
     1
 90
        0
176
     1
290
     0
176
     1
290
     1
176
     1
290
     1
176
     1
290
     0
176
     1
290
     0
176
     1
290
     0
176
     1
290
     0
176
     1
290
     0
176
     1
290
     0
176
     1
 90
       50
176
     1
 40
0.0
176
     1
 40
1.0
176
     1
 90
        0
176
     1
 62
    18
420
        0
176
     1
 90
       50
176
     1
 90
        3
176
     1
 62
     5
420
      255
176
     1
290
     0
176
     1
 90
       50
176
     1
 90
       50
176
     1
 90
       50
176
     1
290
     0
176
     1
 90
       50
176
     1
 62
   256
176
     0
 40
1.0
176
     0
 90
        2
176
     1
  1
strokes_ogs.tif
176
     1
290
     0
176
     1
 40
1.0
176
     1
 40
1.0
176
     1
1001
ACAD
1000
AcDbSavedByObjectVersion
1070
     0
  0
VISUALSTYLE
  5
30
102
{ACAD_REACTORS
330
29
102
}
330
29
100
AcDbVisualStyle
  2
Wireframe
 70
     5
177
     3
291
     0
 70
    58
 90
        0
176
     1
 90
        2
176
     1
 90
        0
176
     1
 90
        0
176
     1
 40
0.6
176
     1
 40
30.0
176
     1
 62
     7
420
 16777215
176
     1
 90
        1
176
     1
 90
        4
176
     1
 62
     7
176
     1
 62
   257
176
     1
 90
        1
176
     1
 90
        1
176
     1
 40
1.0
176
     1
 90
        0
176
     1
 62
   257
176
     1
 40
1.0
176
     1
 90
        1
176
     1
 90
        6
176
     1
 90
        2
176
     1
 62
     7
176
     1
 90
        3
176
     1
 90
        0
176
     1
 90
        0
176
     1
290
     0
176
     1
 90
        1
176
     1
 40
0.0
176
     1
 90
        0
176
     1
290
     0
176
     1
290
     1
176
     1
290
     1
176
     1
290
     0
176
     1
290
     0
176
     1
290
     0
176
     1
290
     0
176
     1
290
     0
176
     1
290
     0
176
     1
 90
       50
176
     1
 40
0.0
176
     1
 40
1.0
176
     1
 90
        0
176
     1
 62
    18
420
        0
176
     1
 90
       50
176
     1
 90
        3
176
     1
 62
     5
420
      255
176
     1
290
     0
176
     1
 90
       50
176
     1
 90
       50
176
     1
 90
       50
176
     1
290
     0
176
     1
 90
       50
176
     1
 62
   256
176
     0
 40
1.0
176
     0
 90
        2
176
     1
  1
strokes_ogs.tif
176
     1
290
     0
176
     1
 40
1.0
176
     1
 40
1.0
176
     1
1001
ACAD
1000
AcDbSavedByObjectVersion
1070
     0
  0
VISUALSTYLE
  5
3C
102
{ACAD_REACTORS
330
29
102
}
330
29
100
AcDbVisualStyle
  2
X-Ray
 70
    25
177
     3
291
     0
 70
    58
 90
        2
176
     1
 90
        2
176
     1
 90
        1
176
     1
 90
        1
176
     1
 40
0.5
176
     1
 40
30.0
176
     1
 62
     7
420
 16777215
176
     1
 90
        1
176
     1
 90
        0
176
     1
 62
     7
176
     1
 62
   257
176
     1
 90
        1
176
     1
 90
        1
176
     1
 40
1.0
176
     1
 90
        8
176
     1
 62
     7
176
     1
 40
1.0
176
     1
 90
        1
176
     1
 90
        6
176
     1
 90
        2
176
     1
 62
     7
176
     1
 90
        3
176
     1
 90
        0
176
     1
 90
        0
176
     1
290
     0
176
     1
 90
       13
176
     1
 40
0.0
176
     1
 90
        0
176
     1
290
     0
176
     1
290
     1
176
     1
290
     1
176
     1
290
     0
176
     1
290
     0
176
     1
290
     0
176
     1
290
     0
176
     1
290
     0
176
     1
290
     0
176
     1
 90
       50
176
     1
 40
0.0
176
     1
 40
1.0
176
     1
 90
        0
176
     1
 62
    18
420
        0
176
     1
 90
       50
176
     1
 90
        3
176
     1
 62
     5
420
      255
176
     1
290
     0
176
     1
 90
       50
176
     1
 90
       50
176
     1
 90
       50
176
     1
290
     0
176
     1
 90
       50
176
     1
 62
   256
176
     0
 40
1.0
176
     0
 90
        2
176
     1
  1
strokes_ogs.tif
176
     1
290
     0
176
     1
 40
1.0
176
     1
 40
1.0
176
     1
1001
ACAD
1000
AcDbSavedByObjectVersion
1070
     0
  0
DICTIONARYVAR
  5
96
102
{ACAD_REACTORS
330
91
102
}
330
91
100
DictionaryVariables
280
     0
  1
1:1
  0
DICTIONARYVAR
  5
93
102
{ACAD_REACTORS
330
91
102
}
330
91
100
DictionaryVariables
280
     0
  1
STANDARD
  0
DICTIONARYVAR
  5
92
102
{ACAD_REACTORS
330
91
102
}
330
91
100
DictionaryVariables
280
     0
  1
STANDARD
  0
DICTIONARYVAR
  5
94
102
{ACAD_REACTORS
330
91
102
}
330
91
100
DictionaryVariables
280
     0
  1
Imperial24
  0
DICTIONARYVAR
  5
95
102
{ACAD_REACTORS
330
91
102
}
330
91
100
DictionaryVariables
280
     0
  1
Imperial24
  0
DICTIONARY
  5
9C
330
6B
100
AcDbDictionary
280
     1
281
     1
  3
ACAD_XREC_ROUNDTRIP
360
9D
  0
DICTIONARY
  5
1A
330
19
100
AcDbDictionary
280
     1
281
     1
  3
BUMPTILE
360
1C
  3
DIFFUSETILE
360
1B
  3
OPACITYTILE
360
1F
  3
REFLECTIONTILE
360
1E
  3
REFRACTIONTILE
360
20
  3
SPECULARTILE
360
1D
  0
DICTIONARY
  5
12
330
11
100
AcDbDictionary
280
     1
281
     1
  3
BUMPTILE
360
14
  3
DIFFUSETILE
360
13
  3
OPACITYTILE
360
17
  3
REFLECTIONTILE
360
16
  3
REFRACTIONTILE
360
18
  3
SPECULARTILE
360
15
  0
DICTIONARY
  5
22
330
21
100
AcDbDictionary
280
     1
281
     1
  3
BUMPTILE
360
24
  3
DIFFUSETILE
360
23
  3
OPACITYTILE
360
27
  3
REFLECTIONTILE
360
26
  3
REFRACTIONTILE
360
28
  3
SPECULARTILE
360
25
  0
DICTIONARY
  5
9A
330
69
100
AcDbDictionary
280
     1
281
     1
  3
ACAD_XREC_ROUNDTRIP
360
9B
  0
DICTIONARY
  5
97
330
65
100
AcDbDictionary
280
     1
281
     1
  3
ACAD_ROUNDTRIP_2008_TABLESTYLE_CELLSTYLEMAP
360
98
  0
XRECORD
  5
9D
102
{ACAD_REACTORS
330
9C
102
}
330
9C
100
AcDbXrecord
280
     1
102
DISPLAYNAME
  1
Imperial24
102
FLAGS
 90
        0
  0
XRECORD
  5
1C
102
{ACAD_REACTORS
330
1A
102
}
330
1A
100
AcDbXrecord
280
     1
270
     1
271
     1
  0
XRECORD
  5
1B
102
{ACAD_REACTORS
330
1A
102
}
330
1A
100
AcDbXrecord
280
     1
270
     1
271
     1
  0
XRECORD
  5
1F
102
{ACAD_REACTORS
330
1A
102
}
330
1A
100
AcDbXrecord
280
     1
270
     1
271
     1
  0
XRECORD
  5
1E
102
{ACAD_REACTORS
330
1A
102
}
330
1A
100
AcDbXrecord
280
     1
270
     1
271
     1
  0
XRECORD
  5
20
102
{ACAD_REACTORS
330
1A
102
}
330
1A
100
AcDbXrecord
280
     1
270
     1
271
     1
  0
XRECORD
  5
1D
102
{ACAD_REACTORS
330
1A
102
}
330
1A
100
AcDbXrecord
280
     1
270
     1
271
     1
  0
XRECORD
  5
14
102
{ACAD_REACTORS
330
12
102
}
330
12
100
AcDbXrecord
280
     1
270
     1
271
     1
  0
XRECORD
  5
13
102
{ACAD_REACTORS
330
12
102
}
330
12
100
AcDbXrecord
280
     1
270
     1
271
     1
  0
XRECORD
  5
17
102
{ACAD_REACTORS
330
12
102
}
330
12
100
AcDbXrecord
280
     1
270
     1
271
     1
  0
XRECORD
  5
16
102
{ACAD_REACTORS
330
12
102
}
330
12
100
AcDbXrecord
280
     1
270
     1
271
     1
  0
XRECORD
  5
18
102
{ACAD_REACTORS
330
12
102
}
330
12
100
AcDbXrecord
280
     1
270
     1
271
     1
  0
XRECORD
  5
15
102
{ACAD_REACTORS
330
12
102
}
330
12
100
AcDbXrecord
280
     1
270
     1
271
     1
  0
XRECORD
  5
24
102
{ACAD_REACTORS
330
22
102
}
330
22
100
AcDbXrecord
280
     1
270
     1
271
     1
  0
XRECORD
  5
23
102
{ACAD_REACTORS
330
22
102
}
330
22
100
AcDbXrecord
280
     1
270
     1
271
     1
  0
XRECORD
  5
27
102
{ACAD_REACTORS
330
22
102
}
330
22
100
AcDbXrecord
280
     1
270
     1
271
     1
  0
XRECORD
  5
26
102
{ACAD_REACTORS
330
22
102
}
330
22
100
AcDbXrecord
280
     1
270
     1
271
     1
  0
XRECORD
  5
28
102
{ACAD_REACTORS
330
22
102
}
330
22
100
AcDbXrecord
280
     1
270
     1
271
     1
  0
XRECORD
  5
25
102
{ACAD_REACTORS
330
22
102
}
330
22
100
AcDbXrecord
280
     1
270
     1
271
     1
  0
XRECORD
  5
9B
102
{ACAD_REACTORS
330
9A
102
}
330
9A
100
AcDbXrecord
280
     1
102
DISPLAYNAME
  1
Imperial24
102
FLAGS
 90
        0
  0
CELLSTYLEMAP
  5
98
102
{ACAD_REACTORS
330
97
102
}
330
97
100
AcDbCellStyleMap
 90
        3
300
CELLSTYLE
  1
TABLEFORMAT_BEGIN
 90
        5
170
     1
 91
        0
 92
    32768
 62
   257
 93
        1
300
CONTENTFORMAT
  1
CONTENTFORMAT_BEGIN
 90
        0
 91
        0
 92
      512
 93
        0
300

 40
0.0
140
1.0
 94
        5
 62
     0
340
55
144
0.25
309
CONTENTFORMAT_END
171
     0
 94
        0
309
TABLEFORMAT_END
  1
CELLSTYLE_BEGIN
 90
        1
 91
        1
300
_TITLE
309
CELLSTYLE_END
300
CELLSTYLE
  1
TABLEFORMAT_BEGIN
 90
        5
170
     1
 91
        0
 92
        0
 62
   257
 93
        1
300
CONTENTFORMAT
  1
CONTENTFORMAT_BEGIN
 90
        0
 91
        0
 92
      512
 93
        0
300

 40
0.0
140
1.0
 94
        5
 62
     0
340
55
144
0.18
309
CONTENTFORMAT_END
171
     0
 94
        0
309
TABLEFORMAT_END
  1
CELLSTYLE_BEGIN
 90
        2
 91
        1
300
_HEADER
309
CELLSTYLE_END
300
CELLSTYLE
  1
TABLEFORMAT_BEGIN
 90
        5
170
     1
 91
        0
 92
        0
 62
   257
 93
        1
300
CONTENTFORMAT
  1
CONTENTFORMAT_BEGIN
 90
        0
 91
        0
 92
      512
 93
        0
300

 40
0.0
140
1.0
 94
        2
 62
     0
340
55
144
0.18
309
CONTENTFORMAT_END
171
     0
 94
        0
309
TABLEFORMAT_END
  1
CELLSTYLE_BEGIN
 90
        3
 91
        2
300
_DATA
309
CELLSTYLE_END
  0
ENDSEC
  0
EOF
