  0
SECTION
  2
HEADER
  9
$ACADVER
  1
AC1027
  9
$ACADMAINTVER
 70
   125
  9
$DWGCODEPAGE
  3
ANSI_1252
  9
$REQUIREDVERSIONS
160
                 0
  9
$INSBASE
 10
0.0
 20
0.0
 30
0.0
  9
$EXTMIN
 10
1.000000000000000E+20
 20
1.000000000000000E+20
 30
1.000000000000000E+20
  9
$EXTMAX
 10
-1.000000000000000E+20
 20
-1.000000000000000E+20
 30
-1.000000000000000E+20
  9
$LIMMIN
 10
0.0
 20
0.0
  9
$LIMMAX
 10
12.0
 20
9.0
  9
$ORTHOMODE
 70
     0
  9
$REGENMODE
 70
     1
  9
$FILLMODE
 70
     1
  9
$QTEXTMODE
 70
     0
  9
$MIRRTEXT
 70
     0
  9
$LTSCALE
 40
1.0
  9
$ATTMODE
 70
     1
  9
$TEXTSIZE
 40
0.2
  9
$TRACEWID
 40
0.05
  9
$TEXTSTYLE
  7
Standard
  9
$CLAYER
  8
0
  9
$CELTYPE
  6
ByLayer
  9
$CECOLOR
 62
   256
  9
$CELTSCALE
 40
1.0
  9
$DISPSILH
 70
     0
  9
$DIMSCALE
 40
1.0
  9
$DIMASZ
 40
0.18
  9
$DIMEXO
 40
0.0625
  9
$DIMDLI
 40
0.38
  9
$DIMRND
 40
0.0
  9
$DIMDLE
 40
0.0
  9
$DIMEXE
 40
0.18
  9
$DIMTP
 40
0.0
  9
$DIMTM
 40
0.0
  9
$DIMTXT
 40
0.18
  9
$DIMCEN
 40
0.09
  9
$DIMTSZ
 40
0.0
  9
$DIMTOL
 70
     0
  9
$DIMLIM
 70
     0
  9
$DIMTIH
 70
     1
  9
$DIMTOH
 70
     1
  9
$DIMSE1
 70
     0
  9
$DIMSE2
 70
     0
  9
$DIMTAD
 70
     0
  9
$DIMZIN
 70
     0
  9
$DIMBLK
  1

  9
$DIMASO
 70
     1
  9
$DIMSHO
 70
     1
  9
$DIMPOST
  1

  9
$DIMAPOST
  1

  9
$DIMALT
 70
     0
  9
$DIMALTD
 70
     2
  9
$DIMALTF
 40
25.4
  9
$DIMLFAC
 40
1.0
  9
$DIMTOFL
 70
     0
  9
$DIMTVP
 40
0.0
  9
$DIMTIX
 70
     0
  9
$DIMSOXD
 70
     0
  9
$DIMSAH
 70
     0
  9
$DIMBLK1
  1

  9
$DIMBLK2
  1

  9
$DIMSTYLE
  2
Standard
  9
$DIMCLRD
 70
     0
  9
$DIMCLRE
 70
     0
  9
$DIMCLRT
 70
     0
  9
$DIMTFAC
 40
1.0
  9
$DIMGAP
 40
0.09
  9
$DIMJUST
 70
     0
  9
$DIMSD1
 70
     0
  9
$DIMSD2
 70
     0
  9
$DIMTOLJ
 70
     1
  9
$DIMTZIN
 70
     0
  9
$DIMALTZ
 70
     0
  9
$DIMALTTZ
 70
     0
  9
$DIMUPT
 70
     0
  9
$DIMDEC
 70
     4
  9
$DIMTDEC
 70
     4
  9
$DIMALTU
 70
     2
  9
$DIMALTTD
 70
     2
  9
$DIMTXSTY
  7
Standard
  9
$DIMAUNIT
 70
     0
  9
$DIMADEC
 70
     0
  9
$DIMALTRND
 40
0.0
  9
$DIMAZIN
 70
     0
  9
$DIMDSEP
 70
    46
  9
$DIMATFIT
 70
     3
  9
$DIMFRAC
 70
     0
  9
$DIMLDRBLK
  1

  9
$DIMLUNIT
 70
     2
  9
$DIMLWD
 70
    -2
  9
$DIMLWE
 70
    -2
  9
$DIMTMOVE
 70
     0
  9
$DIMFXL
 40
1.0
  9
$DIMFXLON
 70
     0
  9
$DIMJOGANG
 40
0.7853981633974483
  9
$DIMTFILL
 70
     0
  9
$DIMTFILLCLR
 70
     0
  9
$DIMARCSYM
 70
     0
  9
$DIMLTYPE
  6

  9
$DIMLTEX1
  6

  9
$DIMLTEX2
  6

  9
$DIMTXTDIRECTION
 70
     0
  9
$LUNITS
 70
     2
  9
$LUPREC
 70
     4
  9
$SKETCHINC
 40
0.1
  9
$FILLETRAD
 40
0.0
  9
$AUNITS
 70
     0
  9
$AUPREC
 70
     0
  9
$MENU
  1
.
  9
$ELEVATION
 40
0.0
  9
$PELEVATION
 40
0.0
  9
$THICKNESS
 40
0.0
  9
$LIMCHECK
 70
     0
  9
$CHAMFERA
 40
0.0
  9
$CHAMFERB
 40
0.0
  9
$CHAMFERC
 40
0.0
  9
$CHAMFERD
 40
0.0
  9
$SKPOLY
 70
     0
  9
$TDCREATE
 40
2460412.794027778
  9
$TDUCREATE
 40
2460412.752361111
  9
$TDUPDATE
 40
2460412.794027778
  9
$TDUUPDATE
 40
2460412.752361111
  9
$TDINDWG
 40
0.0000000000
  9
$TDUSRTIMER
 40
0.0000000000
  9
$USRTIMER
 70
     1
  9
$ANGBASE
 50
0.0
  9
$ANGDIR
 70
     0
  9
$PDMODE
 70
     0
  9
$PDSIZE
 40
0.0
  9
$PLINEWID
 40
0.0
  9
$SPLFRAME
 70
     0
  9
$SPLINETYPE
 70
     6
  9
$SPLINESEGS
 70
     8
  9
$HANDSEED
  5
AB
  9
$SURFTAB1
 70
     6
  9
$SURFTAB2
 70
     6
  9
$SURFTYPE
 70
     6
  9
$SURFU
 70
     6
  9
$SURFV
 70
     6
  9
$UCSBASE
  2

  9
$UCSNAME
  2

  9
$UCSORG
 10
0.0
 20
0.0
 30
0.0
  9
$UCSXDIR
 10
1.0
 20
0.0
 30
0.0
  9
$UCSYDIR
 10
0.0
 20
1.0
 30
0.0
  9
$UCSORTHOREF
  2

  9
$UCSORTHOVIEW
 70
     0
  9
$UCSORGTOP
 10
0.0
 20
0.0
 30
0.0
  9
$UCSORGBOTTOM
 10
0.0
 20
0.0
 30
0.0
  9
$UCSORGLEFT
 10
0.0
 20
0.0
 30
0.0
  9
$UCSORGRIGHT
 10
0.0
 20
0.0
 30
0.0
  9
$UCSORGFRONT
 10
0.0
 20
0.0
 30
0.0
  9
$UCSORGBACK
 10
0.0
 20
0.0
 30
0.0
  9
$PUCSBASE
  2

  9
$PUCSNAME
  2

  9
$PUCSORG
 10
0.0
 20
0.0
 30
0.0
  9
$PUCSXDIR
 10
1.0
 20
0.0
 30
0.0
  9
$PUCSYDIR
 10
0.0
 20
1.0
 30
0.0
  9
$PUCSORTHOREF
  2

  9
$PUCSORTHOVIEW
 70
     0
  9
$PUCSORGTOP
 10
0.0
 20
0.0
 30
0.0
  9
$PUCSORGBOTTOM
 10
0.0
 20
0.0
 30
0.0
  9
$PUCSORGLEFT
 10
0.0
 20
0.0
 30
0.0
  9
$PUCSORGRIGHT
 10
0.0
 20
0.0
 30
0.0
  9
$PUCSORGFRONT
 10
0.0
 20
0.0
 30
0.0
  9
$PUCSORGBACK
 10
0.0
 20
0.0
 30
0.0
  9
$USERI1
 70
     0
  9
$USERI2
 70
     0
  9
$USERI3
 70
     0
  9
$USERI4
 70
     0
  9
$USERI5
 70
     0
  9
$USERR1
 40
0.0
  9
$USERR2
 40
0.0
  9
$USERR3
 40
0.0
  9
$USERR4
 40
0.0
  9
$USERR5
 40
0.0
  9
$WORLDVIEW
 70
     1
  9
$SHADEDGE
 70
     3
  9
$SHADEDIF
 70
    70
  9
$TILEMODE
 70
     1
  9
$MAXACTVP
 70
    64
  9
$PINSBASE
 10
0.0
 20
0.0
 30
0.0
  9
$PLIMCHECK
 70
     0
  9
$PEXTMIN
 10
1.000000000000000E+20
 20
1.000000000000000E+20
 30
1.000000000000000E+20
  9
$PEXTMAX
 10
-1.000000000000000E+20
 20
-1.000000000000000E+20
 30
-1.000000000000000E+20
  9
$PLIMMIN
 10
0.0
 20
0.0
  9
$PLIMMAX
 10
12.0
 20
9.0
  9
$UNITMODE
 70
     0
  9
$VISRETAIN
 70
     1
  9
$PLINEGEN
 70
     0
  9
$PSLTSCALE
 70
     1
  9
$TREEDEPTH
 70
  3020
  9
$CMLSTYLE
  2
Standard
  9
$CMLJUST
 70
     0
  9
$CMLSCALE
 40
1.0
  9
$PROXYGRAPHICS
 70
     1
  9
$MEASUREMENT
 70
     0
  9
$CELWEIGHT
370
    -1
  9
$ENDCAPS
280
     0
  9
$JOINSTYLE
280
     0
  9
$LWDISPLAY
290
     1
  9
$INSUNITS
 70
     4
  9
$HYPERLINKBASE
  1

  9
$STYLESHEET
  1

  9
$XEDIT
290
     1
  9
$CEPSNTYPE
380
     0
  9
$PSTYLEMODE
290
     1
  9
$FINGERPRINTGUID
  2
{DB46E96B-FBE2-684B-B7BF-A8DB5608E46D}
  9
$VERSIONGUID
  2
{631146D3-EB20-D94B-8341-9453B73ACC99}
  9
$EXTNAMES
290
     1
  9
$PSVPSCALE
 40
0.0
  9
$OLESTARTUP
290
     0
  9
$SORTENTS
280
   127
  9
$INDEXCTL
280
     0
  9
$HIDETEXT
280
     1
  9
$XCLIPFRAME
280
     2
  9
$HALOGAP
280
     0
  9
$OBSCOLOR
 70
   257
  9
$OBSLTYPE
280
     0
  9
$INTERSECTIONDISPLAY
280
     0
  9
$INTERSECTIONCOLOR
 70
   257
  9
$DIMASSOC
280
     2
  9
$PROJECTNAME
  1

  9
$CAMERADISPLAY
290
     0
  9
$LENSLENGTH
 40
50.0
  9
$CAMERAHEIGHT
 40
0.0
  9
$STEPSPERSEC
 40
2.0
  9
$STEPSIZE
 40
6.0
  9
$3DDWFPREC
 40
2.0
  9
$PSOLWIDTH
 40
0.25
  9
$PSOLHEIGHT
 40
4.0
  9
$LOFTANG1
 40
1.570796326794896
  9
$LOFTANG2
 40
1.570796326794896
  9
$LOFTMAG1
 40
0.0
  9
$LOFTMAG2
 40
0.0
  9
$LOFTPARAM
 70
     7
  9
$LOFTNORMALS
280
     1
  9
$LATITUDE
 40
37.795
  9
$LONGITUDE
 40
-122.394
  9
$NORTHDIRECTION
 40
0.0
  9
$TIMEZONE
 70
 -8000
  9
$LIGHTGLYPHDISPLAY
280
     1
  9
$TILEMODELIGHTSYNCH
280
     1
  9
$CMATERIAL
347
11
  9
$SOLIDHIST
280
     0
  9
$SHOWHIST
280
     1
  9
$DWFFRAME
280
     2
  9
$DGNFRAME
280
     0
  9
$REALWORLDSCALE
290
     1
  9
$INTERFERECOLOR
 62
     1
  9
$INTERFEREOBJVS
345
33
  9
$INTERFEREVPVS
346
30
  9
$CSHADOW
280
     0
  9
$SHADOWPLANELOCATION
 40
0.0
  0
ENDSEC
  0
SECTION
  2
CLASSES
  0
CLASS
  1
ACDBDICTIONARYWDFLT
  2
AcDbDictionaryWithDefault
  3
ObjectDBX Classes
 90
        0
 91
        1
280
     0
281
     0
  0
CLASS
  1
MATERIAL
  2
AcDbMaterial
  3
ObjectDBX Classes
 90
     1153
 91
        3
280
     0
281
     0
  0
CLASS
  1
VISUALSTYLE
  2
AcDbVisualStyle
  3
ObjectDBX Classes
 90
     4095
 91
       24
280
     0
281
     0
  0
CLASS
  1
SCALE
  2
AcDbScale
  3
ObjectDBX Classes
 90
     1153
 91
       17
280
     0
281
     0
  0
CLASS
  1
TABLESTYLE
  2
AcDbTableStyle
  3
ObjectDBX Classes
 90
     4095
 91
        1
280
     0
281
     0
  0
CLASS
  1
MLEADERSTYLE
  2
AcDbMLeaderStyle
  3
ACDB_MLEADERSTYLE_CLASS
 90
     4095
 91
        1
280
     0
281
     0
  0
CLASS
  1
ACDBSECTIONVIEWSTYLE
  2
AcDbSectionViewStyle
  3
ObjectDBX Classes
 90
     1025
 91
        1
280
     0
281
     0
  0
CLASS
  1
ACDBDETAILVIEWSTYLE
  2
AcDbDetailViewStyle
  3
ObjectDBX Classes
 90
     1025
 91
        1
280
     0
281
     0
  0
CLASS
  1
DICTIONARYVAR
  2
AcDbDictionaryVar
  3
ObjectDBX Classes
 90
        0
 91
        5
280
     0
281
     0
  0
CLASS
  1
CELLSTYLEMAP
  2
AcDbCellStyleMap
  3
ObjectDBX Classes
 90
     1152
 91
        1
280
     0
281
     0
  0
ENDSEC
  0
SECTION
  2
TABLES
  0
TABLE
  2
VPORT
  5
8
330
0
100
AcDbSymbolTable
 70
     1
1001
ACAD
1000
DbSaveVer
1071
      278
  0
VPORT
  5
57
330
8
100
AcDbSymbolTableRecord
100
AcDbViewportTableRecord
  2
*Active
 70
     0
 10
0.0
 20
0.0
 11
1.0
 21
1.0
 12
0.0
 22
0.0
 13
0.0
 23
0.0
 14
1.0
 24
1.0
 15
0.0
 25
0.0
 16
0.0
 26
0.0
 36
1.0
 17
49.99999998749409
 27
-49.99999998749409
 37
0.0
 40
101.9999999744879
 41
1.0
 42
50.0
 43
0.0
 44
0.0
 50
0.0
 51
0.0
 71
     0
 72
   100
 73
     1
 74
     1
 75
     0
 76
     0
 77
     0
 78
     0
281
     0
 65
     1
110
0.0
120
0.0
130
0.0
111
1.0
121
0.0
131
0.0
112
0.0
122
1.0
132
0.0
 79
     0
146
0.0
 60
     3
 61
     5
292
     1
282
     1
141
0.0
142
0.0
 63
   250
421
  3355443
  0
ENDTAB
  0
TABLE
  2
LTYPE
  5
5
330
0
100
AcDbSymbolTable
 70
     1
  0
LTYPE
  5
5B
330
5
100
AcDbSymbolTableRecord
100
AcDbLinetypeTableRecord
  2
ByBlock
 70
     0
  3

 72
    65
 73
     0
 40
0.0
  0
LTYPE
  5
5C
330
5
100
AcDbSymbolTableRecord
100
AcDbLinetypeTableRecord
  2
ByLayer
 70
     0
  3

 72
    65
 73
     0
 40
0.0
  0
LTYPE
  5
5D
330
5
100
AcDbSymbolTableRecord
100
AcDbLinetypeTableRecord
  2
Continuous
 70
     0
  3
Solid line
 72
    65
 73
     0
 40
0.0
  0
ENDTAB
  0
TABLE
  2
LAYER
  5
2
330
0
100
AcDbSymbolTable
 70
     2
  0
LAYER
  5
54
330
2
100
AcDbSymbolTableRecord
100
AcDbLayerTableRecord
  2
0
 70
     0
 62
     7
  6
Continuous
370
    -3
390
F
347
21
348
0
  0
LAYER
  5
78
330
2
100
AcDbSymbolTableRecord
100
AcDbLayerTableRecord
  2
Layer 1
 70
     0
 62
     7
  6
Continuous
370
     0
390
F
347
21
348
0
  0
ENDTAB
  0
TABLE
  2
STYLE
  5
3
330
0
100
AcDbSymbolTable
 70
     2
  0
STYLE
  5
55
330
3
100
AcDbSymbolTableRecord
100
AcDbTextStyleTableRecord
  2
Standard
 70
     0
 40
0.0
 41
1.0
 50
0.0
 71
     0
 42
0.2
  3
txt
  4

  0
STYLE
  5
5A
330
3
100
AcDbSymbolTableRecord
100
AcDbTextStyleTableRecord
  2
Annotative
 70
     0
 40
0.0
 41
1.0
 50
0.0
 71
     0
 42
0.2
  3
txt
  4

1001
AcadAnnotative
1000
AnnotativeData
1002
{
1070
     1
1070
     1
1002
}
  0
ENDTAB
  0
TABLE
  2
VIEW
  5
6
330
0
100
AcDbSymbolTable
 70
     0
  0
ENDTAB
  0
TABLE
  2
UCS
  5
7
330
0
100
AcDbSymbolTable
 70
     0
  0
ENDTAB
  0
TABLE
  2
APPID
  5
9
330
0
100
AcDbSymbolTable
 70
     2
  0
APPID
  5
56
330
9
100
AcDbSymbolTableRecord
100
AcDbRegAppTableRecord
  2
ACAD
 70
     0
  0
APPID
  5
5E
330
9
100
AcDbSymbolTableRecord
100
AcDbRegAppTableRecord
  2
AcadAnnotative
 70
     0
  0
ENDTAB
  0
TABLE
  2
DIMSTYLE
  5
A
330
0
100
AcDbSymbolTable
 70
     2
100
AcDbDimStyleTable
 71
     0
  0
DIMSTYLE
105
58
330
A
100
AcDbSymbolTableRecord
100
AcDbDimStyleTableRecord
  2
Standard
 70
     0
340
55
  0
DIMSTYLE
105
59
330
A
100
AcDbSymbolTableRecord
100
AcDbDimStyleTableRecord
  2
Annotative
 70
     0
340
55
1001
AcadAnnotative
1000
AnnotativeData
1002
{
1070
     1
1070
     1
1002
}
  0
ENDTAB
  0
TABLE
  2
BLOCK_RECORD
  5
1
330
0
100
AcDbSymbolTable
 70
     1
  0
BLOCK_RECORD
  5
70
330
1
100
AcDbSymbolTableRecord
100
AcDbBlockTableRecord
  2
*Model_Space
340
73
 70
     0
280
     1
281
     0
  0
BLOCK_RECORD
  5
6C
330
1
100
AcDbSymbolTableRecord
100
AcDbBlockTableRecord
  2
*Paper_Space
340
6F
 70
     0
280
     1
281
     0
  0
BLOCK_RECORD
  5
74
330
1
100
AcDbSymbolTableRecord
100
AcDbBlockTableRecord
  2
*Paper_Space0
340
77
 70
     0
280
     1
281
     0
  0
ENDTAB
  0
ENDSEC
  0
SECTION
  2
BLOCKS
  0
BLOCK
  5
71
330
70
100
AcDbEntity
  8
0
100
AcDbBlockBegin
  2
*Model_Space
 70
     0
 10
0.0
 20
0.0
 30
0.0
  3
*Model_Space
  1

  0
ENDBLK
  5
72
330
70
100
AcDbEntity
  8
0
100
AcDbBlockEnd
  0
BLOCK
  5
6D
330
6C
100
AcDbEntity
 67
     1
  8
0
100
AcDbBlockBegin
  2
*Paper_Space
 70
     0
 10
0.0
 20
0.0
 30
0.0
  3
*Paper_Space
  1

  0
ENDBLK
  5
6E
330
6C
100
AcDbEntity
 67
     1
  8
0
100
AcDbBlockEnd
  0
BLOCK
  5
75
330
74
100
AcDbEntity
 67
     1
  8
0
100
AcDbBlockBegin
  2
*Paper_Space0
 70
     0
 10
0.0
 20
0.0
 30
0.0
  3
*Paper_Space0
  1

  0
ENDBLK
  5
76
330
74
100
AcDbEntity
 67
     1
  8
0
100
AcDbBlockEnd
  0
ENDSEC
  0
SECTION
  2
ENTITIES
  0
SPLINE
  5
79
330
70
100
AcDbEntity
  8
Layer 1
100
AcDbSpline
210
0.0
220
0.0
230
1.0
 70
     9
 71
     3
 72
    80
 73
    76
 74
     0
 42
0.0000000001
 43
0.0000000001
 40
0.0
 40
0.0
 40
0.0
 40
0.0
 40
1.0
 40
1.0
 40
1.0
 40
2.0
 40
2.0
 40
2.0
 40
3.0
 40
3.0
 40
3.0
 40
4.0
 40
4.0
 40
4.0
 40
5.0
 40
5.0
 40
5.0
 40
6.0
 40
6.0
 40
6.0
 40
7.0
 40
7.0
 40
7.0
 40
8.0
 40
8.0
 40
8.0
 40
9.0
 40
9.0
 40
9.0
 40
10.0
 40
10.0
 40
10.0
 40
11.0
 40
11.0
 40
11.0
 40
12.0
 40
12.0
 40
12.0
 40
13.0
 40
13.0
 40
13.0
 40
14.0
 40
14.0
 40
14.0
 40
15.0
 40
15.0
 40
15.0
 40
16.0
 40
16.0
 40
16.0
 40
17.0
 40
17.0
 40
17.0
 40
18.0
 40
18.0
 40
18.0
 40
19.0
 40
19.0
 40
19.0
 40
20.0
 40
20.0
 40
20.0
 40
21.0
 40
21.0
 40
21.0
 40
22.0
 40
22.0
 40
22.0
 40
23.0
 40
23.0
 40
23.0
 40
24.0
 40
24.0
 40
24.0
 40
25.0
 40
25.0
 40
25.0
 40
25.0
 10
30.88045789158544
 20
-11.97187906601745
 30
0.0
 10
30.88045789158544
 20
-11.97187906601745
 30
0.0
 10
28.77205945461254
 20
-17.28938394750057
 30
0.0
 10
28.77205945461254
 20
-17.28938394750057
 30
0.0
 10
28.77205945461254
 20
-17.28938394750057
 30
0.0
 10
28.6280544633291
 20
-17.28938394750057
 30
0.0
 10
28.6280544633291
 20
-17.28938394750057
 30
0.0
 10
28.6280544633291
 20
-17.28938394750057
 30
0.0
 10
27.4849717813232
 20
-13.75833332989375
 30
0.0
 10
27.4849717813232
 20
-13.75833332989375
 30
0.0
 10
27.4849717813232
 20
-13.75833332989375
 30
0.0
 10
26.23181829856358
 20
-17.28938394750057
 30
0.0
 10
26.23181829856358
 20
-17.28938394750057
 30
0.0
 10
26.23181829856358
 20
-17.28938394750057
 30
0.0
 10
26.08781330728013
 20
-17.28938394750057
 30
0.0
 10
26.08781330728013
 20
-17.28938394750057
 30
0.0
 10
26.08781330728013
 20
-17.28938394750057
 30
0.0
 10
24.21660969446668
 20
-11.90401068495802
 30
0.0
 10
24.21660969446668
 20
-11.90401068495802
 30
0.0
 10
24.08948567106096
 20
-11.54003634694138
 30
0.0
 10
23.98802760902036
 20
-11.38759087171907
 30
0.0
 10
23.78476697539062
 20
-11.2859605549042
 30
0.0
 10
23.78476697539062
 20
-11.2859605549042
 30
0.0
 10
23.80164794326834
 20
-11.20965168990592
 30
0.0
 10
23.80164794326834
 20
-11.20965168990592
 30
0.0
 10
23.99646809295922
 20
-11.21826442861904
 30
0.0
 10
24.20816921052782
 20
-11.2267049125579
 30
0.0
 10
24.40281710544443
 20
-11.2267049125579
 30
0.0
 10
24.58919677119645
 20
-11.2267049125579
 30
0.0
 10
24.86859401505022
 20
-11.2267049125579
 30
0.0
 10
25.07185464867995
 20
-11.20965168990592
 30
0.0
 10
25.07185464867995
 20
-11.20965168990592
 30
0.0
 10
25.08029513261881
 20
-11.2859605549042
 30
0.0
 10
25.08029513261881
 20
-11.2859605549042
 30
0.0
 10
24.9531711092131
 20
-11.35365668118936
 30
0.0
 10
24.87703449898908
 20
-11.43840603012651
 30
0.0
 10
24.87703449898908
 20
-11.54003634694138
 30
0.0
 10
24.87703449898908
 20
-11.65010714769511
 30
0.0
 10
24.8939154668668
 20
-11.7686184323877
 30
0.0
 10
24.93629014133537
 20
-11.90401068495802
 30
0.0
 10
24.93629014133537
 20
-11.90401068495802
 30
0.0
 10
26.31656764750072
 20
-15.92598740921295
 30
0.0
 10
26.31656764750072
 20
-15.92598740921295
 30
0.0
 10
26.31656764750072
 20
-15.92598740921295
 30
0.0
 10
27.5442274236695
 20
-12.3105319522175
 30
0.0
 10
27.5442274236695
 20
-12.3105319522175
 30
0.0
 10
27.5442274236695
 20
-12.3105319522175
 30
0.0
 10
27.68823241495294
 20
-12.3105319522175
 30
0.0
 10
27.68823241495294
 20
-12.3105319522175
 30
0.0
 10
27.68823241495294
 20
-12.3105319522175
 30
0.0
 10
28.88213025536627
 20
-15.9514811158038
 30
0.0
 10
28.88213025536627
 20
-15.9514811158038
 30
0.0
 10
28.88213025536627
 20
-15.9514811158038
 30
0.0
 10
30.42312146591853
 20
-11.98031954995631
 30
0.0
 10
30.42312146591853
 20
-11.98031954995631
 30
0.0
 10
30.48237710826482
 20
-11.827874074734
 30
0.0
 10
30.53319226667226
 20
-11.64149440898198
 30
0.0
 10
30.53319226667226
 20
-11.53142360822825
 30
0.0
 10
30.53319226667226
 20
-11.42996554618765
 30
0.0
 10
30.4654961403871
 20
-11.33677571331164
 30
0.0
 10
30.3130506651648
 20
-11.2859605549042
 30
0.0
 10
30.3130506651648
 20
-11.2859605549042
 30
0.0
 10
30.33010388781678
 20
-11.20965168990592
 30
0.0
 10
30.33010388781678
 20
-11.20965168990592
 30
0.0
 10
30.49098984697795
 20
-11.21826442861904
 30
0.0
 10
30.82964273317801
 20
-11.2267049125579
 30
0.0
 10
30.96503498574833
 20
-11.2267049125579
 30
0.0
 10
31.09215900915405
 20
-11.2267049125579
 30
0.0
 10
31.24460448437635
 20
-11.2267049125579
 30
0.0
 10
31.38843722088553
 20
-11.20965168990592
 30
0.0
 10
31.38843722088553
 20
-11.20965168990592
 30
0.0
 10
31.40549044353752
 20
-11.2859605549042
 30
0.0
 10
31.40549044353752
 20
-11.2859605549042
 30
0.0
 10
31.18517658725579
 20
-11.38759087171907
 30
0.0
 10
31.04134385074661
 20
-11.57379828269683
 30
0.0
 10
30.88045789158544
 20
-11.97187906601745
 30
0.0
  0
HATCH
  5
7A
330
70
100
AcDbEntity
  8
Layer 1
 62
   250
440
 33554687
100
AcDbHatch
 10
0.0
 20
0.0
 30
0.0
210
0.0
220
0.0
230
1.0
  2
SOLID
 70
     1
 71
     1
 91
        1
 92
        1
 93
        1
 72
     4
 94
        3
 73
     0
 74
     0
 95
       80
 96
       76
 40
0.0
 40
0.0
 40
0.0
 40
0.0
 40
1.0
 40
1.0
 40
1.0
 40
2.0
 40
2.0
 40
2.0
 40
3.0
 40
3.0
 40
3.0
 40
4.0
 40
4.0
 40
4.0
 40
5.0
 40
5.0
 40
5.0
 40
6.0
 40
6.0
 40
6.0
 40
7.0
 40
7.0
 40
7.0
 40
8.0
 40
8.0
 40
8.0
 40
9.0
 40
9.0
 40
9.0
 40
10.0
 40
10.0
 40
10.0
 40
11.0
 40
11.0
 40
11.0
 40
12.0
 40
12.0
 40
12.0
 40
13.0
 40
13.0
 40
13.0
 40
14.0
 40
14.0
 40
14.0
 40
15.0
 40
15.0
 40
15.0
 40
16.0
 40
16.0
 40
16.0
 40
17.0
 40
17.0
 40
17.0
 40
18.0
 40
18.0
 40
18.0
 40
19.0
 40
19.0
 40
19.0
 40
20.0
 40
20.0
 40
20.0
 40
21.0
 40
21.0
 40
21.0
 40
22.0
 40
22.0
 40
22.0
 40
23.0
 40
23.0
 40
23.0
 40
24.0
 40
24.0
 40
24.0
 40
25.0
 40
25.0
 40
25.0
 40
25.0
 10
30.88045789158544
 20
-11.97187906601745
 10
30.88045789158544
 20
-11.97187906601745
 10
28.77205945461254
 20
-17.28938394750057
 10
28.77205945461254
 20
-17.28938394750057
 10
28.77205945461254
 20
-17.28938394750057
 10
28.6280544633291
 20
-17.28938394750057
 10
28.6280544633291
 20
-17.28938394750057
 10
28.6280544633291
 20
-17.28938394750057
 10
27.4849717813232
 20
-13.75833332989375
 10
27.4849717813232
 20
-13.75833332989375
 10
27.4849717813232
 20
-13.75833332989375
 10
26.23181829856358
 20
-17.28938394750057
 10
26.23181829856358
 20
-17.28938394750057
 10
26.23181829856358
 20
-17.28938394750057
 10
26.08781330728013
 20
-17.28938394750057
 10
26.08781330728013
 20
-17.28938394750057
 10
26.08781330728013
 20
-17.28938394750057
 10
24.21660969446668
 20
-11.90401068495802
 10
24.21660969446668
 20
-11.90401068495802
 10
24.08948567106096
 20
-11.54003634694138
 10
23.98802760902036
 20
-11.38759087171907
 10
23.78476697539062
 20
-11.2859605549042
 10
23.78476697539062
 20
-11.2859605549042
 10
23.80164794326834
 20
-11.20965168990592
 10
23.80164794326834
 20
-11.20965168990592
 10
23.99646809295922
 20
-11.21826442861904
 10
24.20816921052782
 20
-11.2267049125579
 10
24.40281710544443
 20
-11.2267049125579
 10
24.58919677119645
 20
-11.2267049125579
 10
24.86859401505022
 20
-11.2267049125579
 10
25.07185464867995
 20
-11.20965168990592
 10
25.07185464867995
 20
-11.20965168990592
 10
25.08029513261881
 20
-11.2859605549042
 10
25.08029513261881
 20
-11.2859605549042
 10
24.9531711092131
 20
-11.35365668118936
 10
24.87703449898908
 20
-11.43840603012651
 10
24.87703449898908
 20
-11.54003634694138
 10
24.87703449898908
 20
-11.65010714769511
 10
24.8939154668668
 20
-11.7686184323877
 10
24.93629014133537
 20
-11.90401068495802
 10
24.93629014133537
 20
-11.90401068495802
 10
26.31656764750072
 20
-15.92598740921295
 10
26.31656764750072
 20
-15.92598740921295
 10
26.31656764750072
 20
-15.92598740921295
 10
27.5442274236695
 20
-12.3105319522175
 10
27.5442274236695
 20
-12.3105319522175
 10
27.5442274236695
 20
-12.3105319522175
 10
27.68823241495294
 20
-12.3105319522175
 10
27.68823241495294
 20
-12.3105319522175
 10
27.68823241495294
 20
-12.3105319522175
 10
28.88213025536627
 20
-15.9514811158038
 10
28.88213025536627
 20
-15.9514811158038
 10
28.88213025536627
 20
-15.9514811158038
 10
30.42312146591853
 20
-11.98031954995631
 10
30.42312146591853
 20
-11.98031954995631
 10
30.48237710826482
 20
-11.827874074734
 10
30.53319226667226
 20
-11.64149440898198
 10
30.53319226667226
 20
-11.53142360822825
 10
30.53319226667226
 20
-11.42996554618765
 10
30.4654961403871
 20
-11.33677571331164
 10
30.3130506651648
 20
-11.2859605549042
 10
30.3130506651648
 20
-11.2859605549042
 10
30.33010388781678
 20
-11.20965168990592
 10
30.33010388781678
 20
-11.20965168990592
 10
30.49098984697795
 20
-11.21826442861904
 10
30.82964273317801
 20
-11.2267049125579
 10
30.96503498574833
 20
-11.2267049125579
 10
31.09215900915405
 20
-11.2267049125579
 10
31.24460448437635
 20
-11.2267049125579
 10
31.38843722088553
 20
-11.20965168990592
 10
31.38843722088553
 20
-11.20965168990592
 10
31.40549044353752
 20
-11.2859605549042
 10
31.40549044353752
 20
-11.2859605549042
 10
31.18517658725579
 20
-11.38759087171907
 10
31.04134385074661
 20
-11.57379828269683
 10
30.88045789158544
 20
-11.97187906601745
 97
        0
 97
        1
330
79
 75
     2
 76
     1
 98
        1
 10
0.0
 20
0.0
450
        0
451
        0
460
0.0
461
0.0
452
        0
462
0.0
453
        0
470

  0
SPLINE
  5
7B
330
70
100
AcDbEntity
  8
Layer 1
100
AcDbSpline
210
0.0
220
0.0
230
1.0
 70
     9
 71
     3
 72
    77
 73
    73
 74
     0
 42
0.0000000001
 43
0.0000000001
 40
0.0
 40
0.0
 40
0.0
 40
0.0
 40
1.0
 40
1.0
 40
1.0
 40
2.0
 40
2.0
 40
2.0
 40
3.0
 40
3.0
 40
3.0
 40
4.0
 40
4.0
 40
4.0
 40
5.0
 40
5.0
 40
5.0
 40
6.0
 40
6.0
 40
6.0
 40
7.0
 40
7.0
 40
7.0
 40
8.0
 40
8.0
 40
8.0
 40
9.0
 40
9.0
 40
9.0
 40
10.0
 40
10.0
 40
10.0
 40
11.0
 40
11.0
 40
11.0
 40
12.0
 40
12.0
 40
12.0
 40
13.0
 40
13.0
 40
13.0
 40
14.0
 40
14.0
 40
14.0
 40
15.0
 40
15.0
 40
15.0
 40
16.0
 40
16.0
 40
16.0
 40
17.0
 40
17.0
 40
17.0
 40
18.0
 40
18.0
 40
18.0
 40
19.0
 40
19.0
 40
19.0
 40
20.0
 40
20.0
 40
20.0
 40
21.0
 40
21.0
 40
21.0
 40
22.0
 40
22.0
 40
22.0
 40
23.0
 40
23.0
 40
23.0
 40
24.0
 40
24.0
 40
24.0
 40
24.0
 10
36.17178004738067
 20
-17.15381944015599
 30
0.0
 10
35.4689805683897
 20
-17.13693847227826
 30
0.0
 10
35.06245930113022
 20
-17.13693847227826
 30
0.0
 10
34.35965982213925
 20
-17.13693847227826
 30
0.0
 10
33.50441486792598
 20
-17.13693847227826
 30
0.0
 10
32.92873941234073
 20
-17.13693847227826
 30
0.0
 10
32.08193494206633
 20
-17.16225992409485
 30
0.0
 10
32.08193494206633
 20
-17.16225992409485
 30
0.0
 10
32.04817300631088
 20
-17.09456379780969
 30
0.0
 10
32.04817300631088
 20
-17.09456379780969
 30
0.0
 10
32.24282090122749
 20
-16.9760525131171
 30
0.0
 10
32.31912976622577
 20
-16.79828558607821
 30
0.0
 10
32.31912976622577
 20
-16.48495415169473
 30
0.0
 10
32.31912976622577
 20
-16.48495415169473
 30
0.0
 10
32.31912976622577
 20
-11.827874074734
 30
0.0
 10
32.31912976622577
 20
-11.827874074734
 30
0.0
 10
32.31912976622577
 20
-11.54003634694138
 30
0.0
 10
32.26831460781834
 20
-11.37915038778021
 30
0.0
 10
32.03956026759775
 20
-11.27752007096534
 30
0.0
 10
32.03956026759775
 20
-11.27752007096534
 30
0.0
 10
32.0650539741886
 20
-11.1927707220282
 30
0.0
 10
32.0650539741886
 20
-11.1927707220282
 30
0.0
 10
32.89480522181102
 20
-11.23514539649677
 30
0.0
 10
33.19969617225563
 20
-11.2267049125579
 30
0.0
 10
34.02944741987806
 20
-11.2267049125579
 30
0.0
 10
34.79150254121532
 20
-11.2267049125579
 30
0.0
 10
35.51118298808401
 20
-11.2267049125579
 30
0.0
 10
36.27341036419554
 20
-11.18433023808933
 30
0.0
 10
36.18866101525839
 20
-11.32833522937278
 30
0.0
 10
36.0701497305658
 20
-11.58223876663569
 30
0.0
 10
36.0108940882195
 20
-11.76017794844884
 30
0.0
 10
35.91770425534349
 20
-11.65854763163397
 30
0.0
 10
35.73149684436574
 20
-11.6161729571654
 30
0.0
 10
35.18097058582281
 20
-11.6161729571654
 30
0.0
 10
35.18097058582281
 20
-11.6161729571654
 30
0.0
 10
33.01331650650361
 20
-11.6161729571654
 30
0.0
 10
33.01331650650361
 20
-11.6161729571654
 30
0.0
 10
33.01331650650361
 20
-11.6161729571654
 30
0.0
 10
33.01331650650361
 20
-13.58056640285486
 30
0.0
 10
33.01331650650361
 20
-13.58056640285486
 30
0.0
 10
33.01331650650361
 20
-13.58056640285486
 30
0.0
 10
33.93625758700205
 20
-13.58056640285486
 30
0.0
 10
33.93625758700205
 20
-13.58056640285486
 30
0.0
 10
34.55447997183013
 20
-13.58056640285486
 30
0.0
 10
34.90157334196906
 20
-13.56368543497713
 30
0.0
 10
35.09639349165993
 20
-13.4536146342234
 30
0.0
 10
35.09639349165993
 20
-13.4536146342234
 30
0.0
 10
35.14720865006736
 20
-13.49598930869197
 30
0.0
 10
35.14720865006736
 20
-13.49598930869197
 30
0.0
 10
35.05401881719136
 20
-13.60606010944571
 30
0.0
 10
34.9270670485599
 20
-13.89389783723833
 30
0.0
 10
34.8678114062136
 20
-14.07166476427722
 30
0.0
 10
34.7153659309913
 20
-13.98708767011434
 30
0.0
 10
34.39359401266897
 20
-13.97003444746235
 30
0.0
 10
33.93625758700205
 20
-13.97003444746235
 30
0.0
 10
33.93625758700205
 20
-13.97003444746235
 30
0.0
 10
33.01331650650361
 20
-13.97003444746235
 30
0.0
 10
33.01331650650361
 20
-13.97003444746235
 30
0.0
 10
33.01331650650361
 20
-13.97003444746235
 30
0.0
 10
33.01331650650361
 20
-16.74747042767077
 30
0.0
 10
33.01331650650361
 20
-16.74747042767077
 30
0.0
 10
33.01331650650361
 20
-16.74747042767077
 30
0.0
 10
34.85919866750048
 20
-16.74747042767077
 30
0.0
 10
34.85919866750048
 20
-16.74747042767077
 30
0.0
 10
35.96007892981206
 20
-16.74747042767077
 30
0.0
 10
36.29029133207326
 20
-16.56109076191875
 30
0.0
 10
36.62050373433446
 20
-16.23087835965756
 30
0.0
 10
36.62050373433446
 20
-16.23087835965756
 30
0.0
 10
36.69664034455848
 20
-16.29013400200386
 30
0.0
 10
36.69664034455848
 20
-16.29013400200386
 30
0.0
 10
36.48493922698988
 20
-16.55265027797989
 30
0.0
 10
36.27341036419554
 20
-16.9167968707708
 30
0.0
 10
36.17178004738067
 20
-17.15381944015599
 30
0.0
  0
HATCH
  5
7C
330
70
100
AcDbEntity
  8
Layer 1
 62
   250
440
 33554687
100
AcDbHatch
 10
0.0
 20
0.0
 30
0.0
210
0.0
220
0.0
230
1.0
  2
SOLID
 70
     1
 71
     1
 91
        1
 92
        1
 93
        1
 72
     4
 94
        3
 73
     0
 74
     0
 95
       77
 96
       73
 40
0.0
 40
0.0
 40
0.0
 40
0.0
 40
1.0
 40
1.0
 40
1.0
 40
2.0
 40
2.0
 40
2.0
 40
3.0
 40
3.0
 40
3.0
 40
4.0
 40
4.0
 40
4.0
 40
5.0
 40
5.0
 40
5.0
 40
6.0
 40
6.0
 40
6.0
 40
7.0
 40
7.0
 40
7.0
 40
8.0
 40
8.0
 40
8.0
 40
9.0
 40
9.0
 40
9.0
 40
10.0
 40
10.0
 40
10.0
 40
11.0
 40
11.0
 40
11.0
 40
12.0
 40
12.0
 40
12.0
 40
13.0
 40
13.0
 40
13.0
 40
14.0
 40
14.0
 40
14.0
 40
15.0
 40
15.0
 40
15.0
 40
16.0
 40
16.0
 40
16.0
 40
17.0
 40
17.0
 40
17.0
 40
18.0
 40
18.0
 40
18.0
 40
19.0
 40
19.0
 40
19.0
 40
20.0
 40
20.0
 40
20.0
 40
21.0
 40
21.0
 40
21.0
 40
22.0
 40
22.0
 40
22.0
 40
23.0
 40
23.0
 40
23.0
 40
24.0
 40
24.0
 40
24.0
 40
24.0
 10
36.17178004738067
 20
-17.15381944015599
 10
35.4689805683897
 20
-17.13693847227826
 10
35.06245930113022
 20
-17.13693847227826
 10
34.35965982213925
 20
-17.13693847227826
 10
33.50441486792598
 20
-17.13693847227826
 10
32.92873941234073
 20
-17.13693847227826
 10
32.08193494206633
 20
-17.16225992409485
 10
32.08193494206633
 20
-17.16225992409485
 10
32.04817300631088
 20
-17.09456379780969
 10
32.04817300631088
 20
-17.09456379780969
 10
32.24282090122749
 20
-16.9760525131171
 10
32.31912976622577
 20
-16.79828558607821
 10
32.31912976622577
 20
-16.48495415169473
 10
32.31912976622577
 20
-16.48495415169473
 10
32.31912976622577
 20
-11.827874074734
 10
32.31912976622577
 20
-11.827874074734
 10
32.31912976622577
 20
-11.54003634694138
 10
32.26831460781834
 20
-11.37915038778021
 10
32.03956026759775
 20
-11.27752007096534
 10
32.03956026759775
 20
-11.27752007096534
 10
32.0650539741886
 20
-11.1927707220282
 10
32.0650539741886
 20
-11.1927707220282
 10
32.89480522181102
 20
-11.23514539649677
 10
33.19969617225563
 20
-11.2267049125579
 10
34.02944741987806
 20
-11.2267049125579
 10
34.79150254121532
 20
-11.2267049125579
 10
35.51118298808401
 20
-11.2267049125579
 10
36.27341036419554
 20
-11.18433023808933
 10
36.18866101525839
 20
-11.32833522937278
 10
36.0701497305658
 20
-11.58223876663569
 10
36.0108940882195
 20
-11.76017794844884
 10
35.91770425534349
 20
-11.65854763163397
 10
35.73149684436574
 20
-11.6161729571654
 10
35.18097058582281
 20
-11.6161729571654
 10
35.18097058582281
 20
-11.6161729571654
 10
33.01331650650361
 20
-11.6161729571654
 10
33.01331650650361
 20
-11.6161729571654
 10
33.01331650650361
 20
-11.6161729571654
 10
33.01331650650361
 20
-13.58056640285486
 10
33.01331650650361
 20
-13.58056640285486
 10
33.01331650650361
 20
-13.58056640285486
 10
33.93625758700205
 20
-13.58056640285486
 10
33.93625758700205
 20
-13.58056640285486
 10
34.55447997183013
 20
-13.58056640285486
 10
34.90157334196906
 20
-13.56368543497713
 10
35.09639349165993
 20
-13.4536146342234
 10
35.09639349165993
 20
-13.4536146342234
 10
35.14720865006736
 20
-13.49598930869197
 10
35.14720865006736
 20
-13.49598930869197
 10
35.05401881719136
 20
-13.60606010944571
 10
34.9270670485599
 20
-13.89389783723833
 10
34.8678114062136
 20
-14.07166476427722
 10
34.7153659309913
 20
-13.98708767011434
 10
34.39359401266897
 20
-13.97003444746235
 10
33.93625758700205
 20
-13.97003444746235
 10
33.93625758700205
 20
-13.97003444746235
 10
33.01331650650361
 20
-13.97003444746235
 10
33.01331650650361
 20
-13.97003444746235
 10
33.01331650650361
 20
-13.97003444746235
 10
33.01331650650361
 20
-16.74747042767077
 10
33.01331650650361
 20
-16.74747042767077
 10
33.01331650650361
 20
-16.74747042767077
 10
34.85919866750048
 20
-16.74747042767077
 10
34.85919866750048
 20
-16.74747042767077
 10
35.96007892981206
 20
-16.74747042767077
 10
36.29029133207326
 20
-16.56109076191875
 10
36.62050373433446
 20
-16.23087835965756
 10
36.62050373433446
 20
-16.23087835965756
 10
36.69664034455848
 20
-16.29013400200386
 10
36.69664034455848
 20
-16.29013400200386
 10
36.48493922698988
 20
-16.55265027797989
 10
36.27341036419554
 20
-16.9167968707708
 10
36.17178004738067
 20
-17.15381944015599
 97
        0
 97
        1
330
7B
 75
     2
 76
     1
 98
        1
 10
0.0
 20
0.0
450
        0
451
        0
460
0.0
461
0.0
452
        0
462
0.0
453
        0
470

  0
SPLINE
  5
7D
330
70
100
AcDbEntity
  8
Layer 1
100
AcDbSpline
210
0.0
220
0.0
230
1.0
 70
     9
 71
     3
 72
    53
 73
    49
 74
     0
 42
0.0000000001
 43
0.0000000001
 40
0.0
 40
0.0
 40
0.0
 40
0.0
 40
1.0
 40
1.0
 40
1.0
 40
2.0
 40
2.0
 40
2.0
 40
3.0
 40
3.0
 40
3.0
 40
4.0
 40
4.0
 40
4.0
 40
5.0
 40
5.0
 40
5.0
 40
6.0
 40
6.0
 40
6.0
 40
7.0
 40
7.0
 40
7.0
 40
8.0
 40
8.0
 40
8.0
 40
9.0
 40
9.0
 40
9.0
 40
10.0
 40
10.0
 40
10.0
 40
11.0
 40
11.0
 40
11.0
 40
12.0
 40
12.0
 40
12.0
 40
13.0
 40
13.0
 40
13.0
 40
14.0
 40
14.0
 40
14.0
 40
15.0
 40
15.0
 40
15.0
 40
16.0
 40
16.0
 40
16.0
 40
16.0
 10
41.42951252219471
 20
-17.15381944015599
 30
0.0
 10
40.56582708404257
 20
-17.14537895621713
 30
0.0
 10
40.0747287226202
 20
-17.14537895621713
 30
0.0
 10
39.21104328446808
 20
-17.14537895621713
 30
0.0
 10
38.53373751206796
 20
-17.14537895621713
 30
0.0
 10
38.11877576086961
 20
-17.14537895621713
 30
0.0
 10
37.47523192422494
 20
-17.15381944015599
 30
0.0
 10
37.47523192422494
 20
-17.15381944015599
 30
0.0
 10
37.45835095634722
 20
-17.09456379780969
 30
0.0
 10
37.45835095634722
 20
-17.09456379780969
 30
0.0
 10
37.6021836928564
 20
-17.00137396493368
 30
0.0
 10
37.72086723232326
 20
-16.78123236342622
 30
0.0
 10
37.72086723232326
 20
-16.53576931010217
 30
0.0
 10
37.72086723232326
 20
-16.53576931010217
 30
0.0
 10
37.72086723232326
 20
-11.83631455867286
 30
0.0
 10
37.72086723232326
 20
-11.83631455867286
 30
0.0
 10
37.72086723232326
 20
-11.50610215641167
 30
0.0
 10
37.65299885126384
 20
-11.37915038778021
 30
0.0
 10
37.43285724975637
 20
-11.30284152278193
 30
0.0
 10
37.43285724975637
 20
-11.30284152278193
 30
0.0
 10
37.47523192422494
 20
-11.20965168990592
 30
0.0
 10
37.47523192422494
 20
-11.20965168990592
 30
0.0
 10
37.62767739944725
 20
-11.2267049125579
 30
0.0
 10
37.813884810425
 20
-11.2267049125579
 30
0.0
 10
38.02558592799361
 20
-11.2267049125579
 30
0.0
 10
38.2372870455622
 20
-11.2267049125579
 30
0.0
 10
38.51668428941597
 20
-11.2267049125579
 30
0.0
 10
38.66912976463828
 20
-11.20965168990592
 30
0.0
 10
38.66912976463828
 20
-11.20965168990592
 30
0.0
 10
38.69462347122912
 20
-11.30284152278193
 30
0.0
 10
38.69462347122912
 20
-11.30284152278193
 30
0.0
 10
38.49136283759938
 20
-11.39603135565794
 30
0.0
 10
38.4150539726011
 20
-11.54003634694138
 30
0.0
 10
38.4150539726011
 20
-11.78549940026543
 30
0.0
 10
38.4150539726011
 20
-11.78549940026543
 30
0.0
 10
38.4150539726011
 20
-16.73041720501878
 30
0.0
 10
38.4150539726011
 20
-16.73041720501878
 30
0.0
 10
38.4150539726011
 20
-16.73041720501878
 30
0.0
 10
40.44731579934998
 20
-16.73041720501878
 30
0.0
 10
40.44731579934998
 20
-16.73041720501878
 30
0.0
 10
41.2770670469724
 20
-16.73041720501878
 30
0.0
 10
41.51426187113185
 20
-16.56953124585762
 30
0.0
 10
41.90372991573934
 20
-16.18850368518899
 30
0.0
 10
41.90372991573934
 20
-16.18850368518899
 30
0.0
 10
41.98830700990223
 20
-16.25637206624841
 30
0.0
 10
41.98830700990223
 20
-16.25637206624841
 30
0.0
 10
41.75128444051703
 20
-16.54420979404103
 30
0.0
 10
41.53114283900957
 20
-16.94211832258738
 30
0.0
 10
41.42951252219471
 20
-17.15381944015599
 30
0.0
  0
HATCH
  5
7E
330
70
100
AcDbEntity
  8
Layer 1
 62
   250
440
 33554687
100
AcDbHatch
 10
0.0
 20
0.0
 30
0.0
210
0.0
220
0.0
230
1.0
  2
SOLID
 70
     1
 71
     1
 91
        1
 92
        1
 93
        1
 72
     4
 94
        3
 73
     0
 74
     0
 95
       53
 96
       49
 40
0.0
 40
0.0
 40
0.0
 40
0.0
 40
1.0
 40
1.0
 40
1.0
 40
2.0
 40
2.0
 40
2.0
 40
3.0
 40
3.0
 40
3.0
 40
4.0
 40
4.0
 40
4.0
 40
5.0
 40
5.0
 40
5.0
 40
6.0
 40
6.0
 40
6.0
 40
7.0
 40
7.0
 40
7.0
 40
8.0
 40
8.0
 40
8.0
 40
9.0
 40
9.0
 40
9.0
 40
10.0
 40
10.0
 40
10.0
 40
11.0
 40
11.0
 40
11.0
 40
12.0
 40
12.0
 40
12.0
 40
13.0
 40
13.0
 40
13.0
 40
14.0
 40
14.0
 40
14.0
 40
15.0
 40
15.0
 40
15.0
 40
16.0
 40
16.0
 40
16.0
 40
16.0
 10
41.42951252219471
 20
-17.15381944015599
 10
40.56582708404257
 20
-17.14537895621713
 10
40.0747287226202
 20
-17.14537895621713
 10
39.21104328446808
 20
-17.14537895621713
 10
38.53373751206796
 20
-17.14537895621713
 10
38.11877576086961
 20
-17.14537895621713
 10
37.47523192422494
 20
-17.15381944015599
 10
37.47523192422494
 20
-17.15381944015599
 10
37.45835095634722
 20
-17.09456379780969
 10
37.45835095634722
 20
-17.09456379780969
 10
37.6021836928564
 20
-17.00137396493368
 10
37.72086723232326
 20
-16.78123236342622
 10
37.72086723232326
 20
-16.53576931010217
 10
37.72086723232326
 20
-16.53576931010217
 10
37.72086723232326
 20
-11.83631455867286
 10
37.72086723232326
 20
-11.83631455867286
 10
37.72086723232326
 20
-11.50610215641167
 10
37.65299885126384
 20
-11.37915038778021
 10
37.43285724975637
 20
-11.30284152278193
 10
37.43285724975637
 20
-11.30284152278193
 10
37.47523192422494
 20
-11.20965168990592
 10
37.47523192422494
 20
-11.20965168990592
 10
37.62767739944725
 20
-11.2267049125579
 10
37.813884810425
 20
-11.2267049125579
 10
38.02558592799361
 20
-11.2267049125579
 10
38.2372870455622
 20
-11.2267049125579
 10
38.51668428941597
 20
-11.2267049125579
 10
38.66912976463828
 20
-11.20965168990592
 10
38.66912976463828
 20
-11.20965168990592
 10
38.69462347122912
 20
-11.30284152278193
 10
38.69462347122912
 20
-11.30284152278193
 10
38.49136283759938
 20
-11.39603135565794
 10
38.4150539726011
 20
-11.54003634694138
 10
38.4150539726011
 20
-11.78549940026543
 10
38.4150539726011
 20
-11.78549940026543
 10
38.4150539726011
 20
-16.73041720501878
 10
38.4150539726011
 20
-16.73041720501878
 10
38.4150539726011
 20
-16.73041720501878
 10
40.44731579934998
 20
-16.73041720501878
 10
40.44731579934998
 20
-16.73041720501878
 10
41.2770670469724
 20
-16.73041720501878
 10
41.51426187113185
 20
-16.56953124585762
 10
41.90372991573934
 20
-16.18850368518899
 10
41.90372991573934
 20
-16.18850368518899
 10
41.98830700990223
 20
-16.25637206624841
 10
41.98830700990223
 20
-16.25637206624841
 10
41.75128444051703
 20
-16.54420979404103
 10
41.53114283900957
 20
-16.94211832258738
 10
41.42951252219471
 20
-17.15381944015599
 97
        0
 97
        1
330
7D
 75
     2
 76
     1
 98
        1
 10
0.0
 20
0.0
450
        0
451
        0
460
0.0
461
0.0
452
        0
462
0.0
453
        0
470

  0
SPLINE
  5
7F
330
70
100
AcDbEntity
  8
Layer 1
100
AcDbSpline
210
0.0
220
0.0
230
1.0
 70
     9
 71
     3
 72
    41
 73
    37
 74
     0
 42
0.0000000001
 43
0.0000000001
 40
0.0
 40
0.0
 40
0.0
 40
0.0
 40
1.0
 40
1.0
 40
1.0
 40
2.0
 40
2.0
 40
2.0
 40
3.0
 40
3.0
 40
3.0
 40
4.0
 40
4.0
 40
4.0
 40
5.0
 40
5.0
 40
5.0
 40
6.0
 40
6.0
 40
6.0
 40
7.0
 40
7.0
 40
7.0
 40
8.0
 40
8.0
 40
8.0
 40
9.0
 40
9.0
 40
9.0
 40
10.0
 40
10.0
 40
10.0
 40
11.0
 40
11.0
 40
11.0
 40
12.0
 40
12.0
 40
12.0
 40
12.0
 10
47.10220674820709
 20
-16.67960204661135
 30
0.0
 10
46.56873371231615
 20
-16.98449299705596
 30
0.0
 10
45.88281520120291
 20
-17.19619411462456
 30
0.0
 10
45.03618298570276
 20
-17.19619411462456
 30
0.0
 10
43.5034600043151
 20
-17.19619411462456
 30
0.0
 10
42.1657294273926
 20
-16.19711642390211
 30
0.0
 10
42.1657294273926
 20
-14.2664849139681
 30
0.0
 10
42.1657294273926
 20
-12.40372178509351
 30
0.0
 10
43.58820935325225
 20
-11.16744927021161
 30
0.0
 10
45.18001572221193
 20
-11.16744927021161
 30
0.0
 10
46.00993922460863
 20
-11.16744927021161
 30
0.0
 10
46.5432400057253
 20
-11.36209716512822
 30
0.0
 10
47.01745739926994
 20
-11.65010714769511
 30
0.0
 10
47.01745739926994
 20
-11.87868923314144
 30
0.0
 10
47.05139158979966
 20
-12.27659776168779
 30
0.0
 10
47.0851535255551
 20
-12.49673936319526
 30
0.0
 10
47.0851535255551
 20
-12.49673936319526
 30
0.0
 10
46.98369546351449
 20
-12.53911403766383
 30
0.0
 10
46.98369546351449
 20
-12.53911403766383
 30
0.0
 10
46.46710339550128
 20
-11.86180826526371
 30
0.0
 10
45.93363035961035
 20
-11.54847683088024
 30
0.0
 10
45.12076007986564
 20
-11.54847683088024
 30
0.0
 10
43.8336724065763
 20
-11.54847683088024
 30
0.0
 10
42.91934406479099
 20
-12.54755452160269
 30
0.0
 10
42.91934406479099
 20
-14.19017604896982
 30
0.0
 10
42.91934406479099
 20
-15.92598740921295
 30
0.0
 10
43.92686223945231
 20
-16.81516655395593
 30
0.0
 10
45.21394991274165
 20
-16.81516655395593
 30
0.0
 10
45.96756455014005
 20
-16.81516655395593
 30
0.0
 10
46.57717419625501
 20
-16.50183511957246
 30
0.0
 10
47.06827255767738
 20
-15.79059515664263
 30
0.0
 10
47.06827255767738
 20
-15.79059515664263
 30
0.0
 10
47.16990287449225
 20
-15.8329698311112
 30
0.0
 10
47.16990287449225
 20
-15.8329698311112
 30
0.0
 10
47.13596868396254
 20
-16.05311143261866
 30
0.0
 10
47.10220674820709
 20
-16.45101996116502
 30
0.0
 10
47.10220674820709
 20
-16.67960204661135
 30
0.0
  0
HATCH
  5
80
330
70
100
AcDbEntity
  8
Layer 1
 62
   250
440
 33554687
100
AcDbHatch
 10
0.0
 20
0.0
 30
0.0
210
0.0
220
0.0
230
1.0
  2
SOLID
 70
     1
 71
     1
 91
        1
 92
        1
 93
        1
 72
     4
 94
        3
 73
     0
 74
     0
 95
       41
 96
       37
 40
0.0
 40
0.0
 40
0.0
 40
0.0
 40
1.0
 40
1.0
 40
1.0
 40
2.0
 40
2.0
 40
2.0
 40
3.0
 40
3.0
 40
3.0
 40
4.0
 40
4.0
 40
4.0
 40
5.0
 40
5.0
 40
5.0
 40
6.0
 40
6.0
 40
6.0
 40
7.0
 40
7.0
 40
7.0
 40
8.0
 40
8.0
 40
8.0
 40
9.0
 40
9.0
 40
9.0
 40
10.0
 40
10.0
 40
10.0
 40
11.0
 40
11.0
 40
11.0
 40
12.0
 40
12.0
 40
12.0
 40
12.0
 10
47.10220674820709
 20
-16.67960204661135
 10
46.56873371231615
 20
-16.98449299705596
 10
45.88281520120291
 20
-17.19619411462456
 10
45.03618298570276
 20
-17.19619411462456
 10
43.5034600043151
 20
-17.19619411462456
 10
42.1657294273926
 20
-16.19711642390211
 10
42.1657294273926
 20
-14.2664849139681
 10
42.1657294273926
 20
-12.40372178509351
 10
43.58820935325225
 20
-11.16744927021161
 10
45.18001572221193
 20
-11.16744927021161
 10
46.00993922460863
 20
-11.16744927021161
 10
46.5432400057253
 20
-11.36209716512822
 10
47.01745739926994
 20
-11.65010714769511
 10
47.01745739926994
 20
-11.87868923314144
 10
47.05139158979966
 20
-12.27659776168779
 10
47.0851535255551
 20
-12.49673936319526
 10
47.0851535255551
 20
-12.49673936319526
 10
46.98369546351449
 20
-12.53911403766383
 10
46.98369546351449
 20
-12.53911403766383
 10
46.46710339550128
 20
-11.86180826526371
 10
45.93363035961035
 20
-11.54847683088024
 10
45.12076007986564
 20
-11.54847683088024
 10
43.8336724065763
 20
-11.54847683088024
 10
42.91934406479099
 20
-12.54755452160269
 10
42.91934406479099
 20
-14.19017604896982
 10
42.91934406479099
 20
-15.92598740921295
 10
43.92686223945231
 20
-16.81516655395593
 10
45.21394991274165
 20
-16.81516655395593
 10
45.96756455014005
 20
-16.81516655395593
 10
46.57717419625501
 20
-16.50183511957246
 10
47.06827255767738
 20
-15.79059515664263
 10
47.06827255767738
 20
-15.79059515664263
 10
47.16990287449225
 20
-15.8329698311112
 10
47.16990287449225
 20
-15.8329698311112
 10
47.13596868396254
 20
-16.05311143261866
 10
47.10220674820709
 20
-16.45101996116502
 10
47.10220674820709
 20
-16.67960204661135
 97
        0
 97
        1
330
7F
 75
     2
 76
     1
 98
        1
 10
0.0
 20
0.0
450
        0
451
        0
460
0.0
461
0.0
452
        0
462
0.0
453
        0
470

  0
SPLINE
  5
81
330
70
100
AcDbEntity
  8
Layer 1
100
AcDbSpline
210
0.0
220
0.0
230
1.0
 70
     9
 71
     3
 72
    17
 73
    13
 74
     0
 42
0.0000000001
 43
0.0000000001
 40
0.0
 40
0.0
 40
0.0
 40
0.0
 40
1.0
 40
1.0
 40
1.0
 40
2.0
 40
2.0
 40
2.0
 40
3.0
 40
3.0
 40
3.0
 40
4.0
 40
4.0
 40
4.0
 40
4.0
 10
50.98810220079464
 20
-11.51454264035053
 30
0.0
 10
49.55718179099612
 20
-11.51454264035053
 30
0.0
 10
48.67661538496626
 20
-12.65762532235642
 30
0.0
 10
48.67661538496626
 20
-14.2072292716218
 30
0.0
 10
48.67661538496626
 20
-15.78215467270377
 30
0.0
 10
49.68413355962758
 20
-16.84910074448564
 30
0.0
 10
51.04735784314094
 20
-16.84910074448564
 30
0.0
 10
52.44468857195827
 20
-16.84910074448564
 30
0.0
 10
53.33352320715273
 20
-15.52807888066659
 30
0.0
 10
53.33352320715273
 20
-14.0547837963995
 30
0.0
 10
53.33352320715273
 20
-12.6407443544787
 30
0.0
 10
52.4023138974897
 20
-11.51454264035053
 30
0.0
 10
50.98810220079464
 20
-11.51454264035053
 30
0.0
  0
SPLINE
  5
82
330
70
100
AcDbEntity
  8
Layer 1
100
AcDbSpline
210
0.0
220
0.0
230
1.0
 70
     9
 71
     3
 72
    17
 73
    13
 74
     0
 42
0.0000000001
 43
0.0000000001
 40
0.0
 40
0.0
 40
0.0
 40
0.0
 40
1.0
 40
1.0
 40
1.0
 40
2.0
 40
2.0
 40
2.0
 40
3.0
 40
3.0
 40
3.0
 40
4.0
 40
4.0
 40
4.0
 40
4.0
 10
51.04735784314094
 20
-17.23012830515427
 30
0.0
 10
49.26073132449037
 20
-17.23012830515427
 30
0.0
 10
47.92300074756786
 20
-15.99385579027237
 30
0.0
 10
47.92300074756786
 20
-14.27492539790696
 30
0.0
 10
47.92300074756786
 20
-12.47141791137867
 30
0.0
 10
49.30310599895895
 20
-11.1335150796819
 30
0.0
 10
51.08973251760951
 20
-11.1335150796819
 30
0.0
 10
52.78334145815833
 20
-11.1335150796819
 30
0.0
 10
54.0873100993254
 20
-12.35290662668608
 30
0.0
 10
54.0873100993254
 20
-14.03790282852177
 30
0.0
 10
54.0873100993254
 20
-15.72289903035747
 30
0.0
 10
52.72408581581204
 20
-17.23012830515427
 30
0.0
 10
51.04735784314094
 20
-17.23012830515427
 30
0.0
  0
HATCH
  5
83
330
70
100
AcDbEntity
  8
Layer 1
 62
   250
440
 33554687
100
AcDbHatch
 10
0.0
 20
0.0
 30
0.0
210
0.0
220
0.0
230
1.0
  2
SOLID
 70
     1
 71
     1
 91
        2
 92
        1
 93
        1
 72
     4
 94
        3
 73
     0
 74
     0
 95
       17
 96
       13
 40
0.0
 40
0.0
 40
0.0
 40
0.0
 40
1.0
 40
1.0
 40
1.0
 40
2.0
 40
2.0
 40
2.0
 40
3.0
 40
3.0
 40
3.0
 40
4.0
 40
4.0
 40
4.0
 40
4.0
 10
50.98810220079464
 20
-11.51454264035053
 10
49.55718179099612
 20
-11.51454264035053
 10
48.67661538496626
 20
-12.65762532235642
 10
48.67661538496626
 20
-14.2072292716218
 10
48.67661538496626
 20
-15.78215467270377
 10
49.68413355962758
 20
-16.84910074448564
 10
51.04735784314094
 20
-16.84910074448564
 10
52.44468857195827
 20
-16.84910074448564
 10
53.33352320715273
 20
-15.52807888066659
 10
53.33352320715273
 20
-14.0547837963995
 10
53.33352320715273
 20
-12.6407443544787
 10
52.4023138974897
 20
-11.51454264035053
 10
50.98810220079464
 20
-11.51454264035053
 97
        0
 97
        1
330
81
 92
        1
 93
        1
 72
     4
 94
        3
 73
     0
 74
     0
 95
       17
 96
       13
 40
0.0
 40
0.0
 40
0.0
 40
0.0
 40
1.0
 40
1.0
 40
1.0
 40
2.0
 40
2.0
 40
2.0
 40
3.0
 40
3.0
 40
3.0
 40
4.0
 40
4.0
 40
4.0
 40
4.0
 10
51.04735784314094
 20
-17.23012830515427
 10
49.26073132449037
 20
-17.23012830515427
 10
47.92300074756786
 20
-15.99385579027237
 10
47.92300074756786
 20
-14.27492539790696
 10
47.92300074756786
 20
-12.47141791137867
 10
49.30310599895895
 20
-11.1335150796819
 10
51.08973251760951
 20
-11.1335150796819
 10
52.78334145815833
 20
-11.1335150796819
 10
54.0873100993254
 20
-12.35290662668608
 10
54.0873100993254
 20
-14.03790282852177
 10
54.0873100993254
 20
-15.72289903035747
 10
52.72408581581204
 20
-17.23012830515427
 10
51.04735784314094
 20
-17.23012830515427
 97
        0
 97
        1
330
82
 75
     2
 76
     1
 98
        1
 10
0.0
 20
0.0
450
        0
451
        0
460
0.0
461
0.0
452
        0
462
0.0
453
        0
470

  0
SPLINE
  5
84
330
70
100
AcDbEntity
  8
Layer 1
100
AcDbSpline
210
0.0
220
0.0
230
1.0
 70
     9
 71
     3
 72
    98
 73
    94
 74
     0
 42
0.0000000001
 43
0.0000000001
 40
0.0
 40
0.0
 40
0.0
 40
0.0
 40
1.0
 40
1.0
 40
1.0
 40
2.0
 40
2.0
 40
2.0
 40
3.0
 40
3.0
 40
3.0
 40
4.0
 40
4.0
 40
4.0
 40
5.0
 40
5.0
 40
5.0
 40
6.0
 40
6.0
 40
6.0
 40
7.0
 40
7.0
 40
7.0
 40
8.0
 40
8.0
 40
8.0
 40
9.0
 40
9.0
 40
9.0
 40
10.0
 40
10.0
 40
10.0
 40
11.0
 40
11.0
 40
11.0
 40
12.0
 40
12.0
 40
12.0
 40
13.0
 40
13.0
 40
13.0
 40
14.0
 40
14.0
 40
14.0
 40
15.0
 40
15.0
 40
15.0
 40
16.0
 40
16.0
 40
16.0
 40
17.0
 40
17.0
 40
17.0
 40
18.0
 40
18.0
 40
18.0
 40
19.0
 40
19.0
 40
19.0
 40
20.0
 40
20.0
 40
20.0
 40
21.0
 40
21.0
 40
21.0
 40
22.0
 40
22.0
 40
22.0
 40
23.0
 40
23.0
 40
23.0
 40
24.0
 40
24.0
 40
24.0
 40
25.0
 40
25.0
 40
25.0
 40
26.0
 40
26.0
 40
26.0
 40
27.0
 40
27.0
 40
27.0
 40
28.0
 40
28.0
 40
28.0
 40
29.0
 40
29.0
 40
29.0
 40
30.0
 40
30.0
 40
30.0
 40
31.0
 40
31.0
 40
31.0
 40
31.0
 10
61.64791665125469
 20
-17.15381944015599
 30
0.0
 10
61.4108940818695
 20
-17.14537895621713
 30
0.0
 10
61.18213974164891
 20
-17.13693847227826
 30
0.0
 10
60.94511717226372
 20
-17.13693847227826
 30
0.0
 10
60.65710718969683
 20
-17.13693847227826
 30
0.0
 10
60.42008462031165
 20
-17.13693847227826
 30
0.0
 10
60.14068737645788
 20
-17.15381944015599
 30
0.0
 10
60.14068737645788
 20
-17.15381944015599
 30
0.0
 10
60.12380640858016
 20
-17.06062960727998
 30
0.0
 10
60.12380640858016
 20
-17.06062960727998
 30
0.0
 10
60.42008462031165
 20
-16.95055880652625
 30
0.0
 10
60.53032767583964
 20
-16.74747042767077
 30
0.0
 10
60.49622123053566
 20
-16.40864528669645
 30
0.0
 10
60.49622123053566
 20
-16.40864528669645
 30
0.0
 10
60.19133028009106
 20
-12.04801567624147
 30
0.0
 10
60.19133028009106
 20
-12.04801567624147
 30
0.0
 10
60.19133028009106
 20
-12.04801567624147
 30
0.0
 10
58.15080022417758
 20
-16.01917724208895
 30
0.0
 10
58.15080022417758
 20
-16.01917724208895
 30
0.0
 10
58.15080022417758
 20
-16.01917724208895
 30
0.0
 10
58.07466361395356
 20
-16.01917724208895
 30
0.0
 10
58.07466361395356
 20
-16.01917724208895
 30
0.0
 10
58.07466361395356
 20
-16.01917724208895
 30
0.0
 10
56.01690808061383
 20
-12.08194986677118
 30
0.0
 10
56.01690808061383
 20
-12.08194986677118
 30
0.0
 10
56.01690808061383
 20
-12.08194986677118
 30
0.0
 10
55.72062986888234
 20
-16.39176431881872
 30
0.0
 10
55.72062986888234
 20
-16.39176431881872
 30
0.0
 10
55.68686793312689
 20
-16.77279187948736
 30
0.0
 10
55.72924260759546
 20
-16.89130316417995
 30
0.0
 10
56.13576387485495
 20
-17.06062960727998
 30
0.0
 10
56.13576387485495
 20
-17.06062960727998
 30
0.0
 10
56.1102701682641
 20
-17.15381944015599
 30
0.0
 10
56.1102701682641
 20
-17.15381944015599
 30
0.0
 10
55.89012856675664
 20
-17.13693847227826
 30
0.0
 10
55.71236163971775
 20
-17.13693847227826
 30
0.0
 10
55.48360729949716
 20
-17.13693847227826
 30
0.0
 10
55.28034666586741
 20
-17.13693847227826
 30
0.0
 10
55.0856987709508
 20
-17.13693847227826
 30
0.0
 10
54.88243813732106
 20
-17.15381944015599
 30
0.0
 10
54.88243813732106
 20
-17.15381944015599
 30
0.0
 10
54.85694443073021
 20
-17.0692423459931
 30
0.0
 10
54.85694443073021
 20
-17.0692423459931
 30
0.0
 10
55.1449544132971
 20
-16.95055880652625
 30
0.0
 10
55.22970376223424
 20
-16.81516655395593
 30
0.0
 10
55.26346569798969
 20
-16.44257947722616
 30
0.0
 10
55.26346569798969
 20
-16.44257947722616
 30
0.0
 10
55.5683566484343
 20
-11.99720051783403
 30
0.0
 10
55.5683566484343
 20
-11.99720051783403
 30
0.0
 10
55.60211858418975
 20
-11.6161729571654
 30
0.0
 10
55.49222003821029
 20
-11.42135280747452
 30
0.0
 10
55.26346569798969
 20
-11.29440103884306
 30
0.0
 10
55.26346569798969
 20
-11.29440103884306
 30
0.0
 10
55.28034666586741
 20
-11.20965168990592
 30
0.0
 10
55.28034666586741
 20
-11.20965168990592
 30
0.0
 10
55.34821504692684
 20
-11.21826442861904
 30
0.0
 10
55.5683566484343
 20
-11.2267049125579
 30
0.0
 10
55.73751083676007
 20
-11.2267049125579
 30
0.0
 10
56.03413355804008
 20
-11.2267049125579
 30
0.0
 10
56.27115612742527
 20
-11.21826442861904
 30
0.0
 10
56.40654837999559
 20
-11.21826442861904
 30
0.0
 10
56.44892305446416
 20
-11.41291232353566
 30
0.0
 10
56.58431530703448
 20
-11.70092230610255
 30
0.0
 10
56.99083657429396
 20
-12.49673936319526
 30
0.0
 10
56.99083657429396
 20
-12.49673936319526
 30
0.0
 10
58.26104327970558
 20
-14.95240342508134
 30
0.0
 10
58.26104327970558
 20
-14.95240342508134
 30
0.0
 10
58.26104327970558
 20
-14.95240342508134
 30
0.0
 10
59.47164983322236
 20
-12.54755452160269
 30
0.0
 10
59.47164983322236
 20
-12.54755452160269
 30
0.0
 10
59.82752819684868
 20
-11.85319552655059
 30
0.0
 10
60.03905705964301
 20
-11.39603135565794
 30
0.0
 10
60.07281899539846
 20
-11.21826442861904
 30
0.0
 10
60.19133028009106
 20
-11.2267049125579
 30
0.0
 10
60.42008462031165
 20
-11.2267049125579
 30
0.0
 10
60.61473251522826
 20
-11.2267049125579
 30
0.0
 10
60.84348685544885
 20
-11.2267049125579
 30
0.0
 10
60.97887910801917
 20
-11.2267049125579
 30
0.0
 10
61.17387151248431
 20
-11.20965168990592
 30
0.0
 10
61.17387151248431
 20
-11.20965168990592
 30
0.0
 10
61.19902070952663
 20
-11.30284152278193
 30
0.0
 10
61.19902070952663
 20
-11.30284152278193
 30
0.0
 10
60.95372991097685
 20
-11.38759087171907
 30
0.0
 10
60.85209959416197
 20
-11.59067925057455
 30
0.0
 10
60.88586152991743
 20
-11.90401068495802
 30
0.0
 10
60.88586152991743
 20
-11.90401068495802
 30
0.0
 10
61.19075248036203
 20
-16.34938964435015
 30
0.0
 10
61.19075248036203
 20
-16.34938964435015
 30
0.0
 10
61.22451441611748
 20
-16.77279187948736
 30
0.0
 10
61.31753199421923
 20
-16.9167968707708
 30
0.0
 10
61.67341035784554
 20
-17.06062960727998
 30
0.0
 10
61.67341035784554
 20
-17.06062960727998
 30
0.0
 10
61.64791665125469
 20
-17.15381944015599
 30
0.0
 10
61.64791665125469
 20
-17.15381944015599
 30
0.0
  0
HATCH
  5
85
330
70
100
AcDbEntity
  8
Layer 1
 62
   250
440
 33554687
100
AcDbHatch
 10
0.0
 20
0.0
 30
0.0
210
0.0
220
0.0
230
1.0
  2
SOLID
 70
     1
 71
     1
 91
        1
 92
        1
 93
        1
 72
     4
 94
        3
 73
     0
 74
     0
 95
       98
 96
       94
 40
0.0
 40
0.0
 40
0.0
 40
0.0
 40
1.0
 40
1.0
 40
1.0
 40
2.0
 40
2.0
 40
2.0
 40
3.0
 40
3.0
 40
3.0
 40
4.0
 40
4.0
 40
4.0
 40
5.0
 40
5.0
 40
5.0
 40
6.0
 40
6.0
 40
6.0
 40
7.0
 40
7.0
 40
7.0
 40
8.0
 40
8.0
 40
8.0
 40
9.0
 40
9.0
 40
9.0
 40
10.0
 40
10.0
 40
10.0
 40
11.0
 40
11.0
 40
11.0
 40
12.0
 40
12.0
 40
12.0
 40
13.0
 40
13.0
 40
13.0
 40
14.0
 40
14.0
 40
14.0
 40
15.0
 40
15.0
 40
15.0
 40
16.0
 40
16.0
 40
16.0
 40
17.0
 40
17.0
 40
17.0
 40
18.0
 40
18.0
 40
18.0
 40
19.0
 40
19.0
 40
19.0
 40
20.0
 40
20.0
 40
20.0
 40
21.0
 40
21.0
 40
21.0
 40
22.0
 40
22.0
 40
22.0
 40
23.0
 40
23.0
 40
23.0
 40
24.0
 40
24.0
 40
24.0
 40
25.0
 40
25.0
 40
25.0
 40
26.0
 40
26.0
 40
26.0
 40
27.0
 40
27.0
 40
27.0
 40
28.0
 40
28.0
 40
28.0
 40
29.0
 40
29.0
 40
29.0
 40
30.0
 40
30.0
 40
30.0
 40
31.0
 40
31.0
 40
31.0
 40
31.0
 10
61.64791665125469
 20
-17.15381944015599
 10
61.4108940818695
 20
-17.14537895621713
 10
61.18213974164891
 20
-17.13693847227826
 10
60.94511717226372
 20
-17.13693847227826
 10
60.65710718969683
 20
-17.13693847227826
 10
60.42008462031165
 20
-17.13693847227826
 10
60.14068737645788
 20
-17.15381944015599
 10
60.14068737645788
 20
-17.15381944015599
 10
60.12380640858016
 20
-17.06062960727998
 10
60.12380640858016
 20
-17.06062960727998
 10
60.42008462031165
 20
-16.95055880652625
 10
60.53032767583964
 20
-16.74747042767077
 10
60.49622123053566
 20
-16.40864528669645
 10
60.49622123053566
 20
-16.40864528669645
 10
60.19133028009106
 20
-12.04801567624147
 10
60.19133028009106
 20
-12.04801567624147
 10
60.19133028009106
 20
-12.04801567624147
 10
58.15080022417758
 20
-16.01917724208895
 10
58.15080022417758
 20
-16.01917724208895
 10
58.15080022417758
 20
-16.01917724208895
 10
58.07466361395356
 20
-16.01917724208895
 10
58.07466361395356
 20
-16.01917724208895
 10
58.07466361395356
 20
-16.01917724208895
 10
56.01690808061383
 20
-12.08194986677118
 10
56.01690808061383
 20
-12.08194986677118
 10
56.01690808061383
 20
-12.08194986677118
 10
55.72062986888234
 20
-16.39176431881872
 10
55.72062986888234
 20
-16.39176431881872
 10
55.68686793312689
 20
-16.77279187948736
 10
55.72924260759546
 20
-16.89130316417995
 10
56.13576387485495
 20
-17.06062960727998
 10
56.13576387485495
 20
-17.06062960727998
 10
56.1102701682641
 20
-17.15381944015599
 10
56.1102701682641
 20
-17.15381944015599
 10
55.89012856675664
 20
-17.13693847227826
 10
55.71236163971775
 20
-17.13693847227826
 10
55.48360729949716
 20
-17.13693847227826
 10
55.28034666586741
 20
-17.13693847227826
 10
55.0856987709508
 20
-17.13693847227826
 10
54.88243813732106
 20
-17.15381944015599
 10
54.88243813732106
 20
-17.15381944015599
 10
54.85694443073021
 20
-17.0692423459931
 10
54.85694443073021
 20
-17.0692423459931
 10
55.1449544132971
 20
-16.95055880652625
 10
55.22970376223424
 20
-16.81516655395593
 10
55.26346569798969
 20
-16.44257947722616
 10
55.26346569798969
 20
-16.44257947722616
 10
55.5683566484343
 20
-11.99720051783403
 10
55.5683566484343
 20
-11.99720051783403
 10
55.60211858418975
 20
-11.6161729571654
 10
55.49222003821029
 20
-11.42135280747452
 10
55.26346569798969
 20
-11.29440103884306
 10
55.26346569798969
 20
-11.29440103884306
 10
55.28034666586741
 20
-11.20965168990592
 10
55.28034666586741
 20
-11.20965168990592
 10
55.34821504692684
 20
-11.21826442861904
 10
55.5683566484343
 20
-11.2267049125579
 10
55.73751083676007
 20
-11.2267049125579
 10
56.03413355804008
 20
-11.2267049125579
 10
56.27115612742527
 20
-11.21826442861904
 10
56.40654837999559
 20
-11.21826442861904
 10
56.44892305446416
 20
-11.41291232353566
 10
56.58431530703448
 20
-11.70092230610255
 10
56.99083657429396
 20
-12.49673936319526
 10
56.99083657429396
 20
-12.49673936319526
 10
58.26104327970558
 20
-14.95240342508134
 10
58.26104327970558
 20
-14.95240342508134
 10
58.26104327970558
 20
-14.95240342508134
 10
59.47164983322236
 20
-12.54755452160269
 10
59.47164983322236
 20
-12.54755452160269
 10
59.82752819684868
 20
-11.85319552655059
 10
60.03905705964301
 20
-11.39603135565794
 10
60.07281899539846
 20
-11.21826442861904
 10
60.19133028009106
 20
-11.2267049125579
 10
60.42008462031165
 20
-11.2267049125579
 10
60.61473251522826
 20
-11.2267049125579
 10
60.84348685544885
 20
-11.2267049125579
 10
60.97887910801917
 20
-11.2267049125579
 10
61.17387151248431
 20
-11.20965168990592
 10
61.17387151248431
 20
-11.20965168990592
 10
61.19902070952663
 20
-11.30284152278193
 10
61.19902070952663
 20
-11.30284152278193
 10
60.95372991097685
 20
-11.38759087171907
 10
60.85209959416197
 20
-11.59067925057455
 10
60.88586152991743
 20
-11.90401068495802
 10
60.88586152991743
 20
-11.90401068495802
 10
61.19075248036203
 20
-16.34938964435015
 10
61.19075248036203
 20
-16.34938964435015
 10
61.22451441611748
 20
-16.77279187948736
 10
61.31753199421923
 20
-16.9167968707708
 10
61.67341035784554
 20
-17.06062960727998
 10
61.67341035784554
 20
-17.06062960727998
 10
61.64791665125469
 20
-17.15381944015599
 10
61.64791665125469
 20
-17.15381944015599
 97
        0
 97
        1
330
84
 75
     2
 76
     1
 98
        1
 10
0.0
 20
0.0
450
        0
451
        0
460
0.0
461
0.0
452
        0
462
0.0
453
        0
470

  0
SPLINE
  5
86
330
70
100
AcDbEntity
  8
Layer 1
100
AcDbSpline
210
0.0
220
0.0
230
1.0
 70
     9
 71
     3
 72
    77
 73
    73
 74
     0
 42
0.0000000001
 43
0.0000000001
 40
0.0
 40
0.0
 40
0.0
 40
0.0
 40
1.0
 40
1.0
 40
1.0
 40
2.0
 40
2.0
 40
2.0
 40
3.0
 40
3.0
 40
3.0
 40
4.0
 40
4.0
 40
4.0
 40
5.0
 40
5.0
 40
5.0
 40
6.0
 40
6.0
 40
6.0
 40
7.0
 40
7.0
 40
7.0
 40
8.0
 40
8.0
 40
8.0
 40
9.0
 40
9.0
 40
9.0
 40
10.0
 40
10.0
 40
10.0
 40
11.0
 40
11.0
 40
11.0
 40
12.0
 40
12.0
 40
12.0
 40
13.0
 40
13.0
 40
13.0
 40
14.0
 40
14.0
 40
14.0
 40
15.0
 40
15.0
 40
15.0
 40
16.0
 40
16.0
 40
16.0
 40
17.0
 40
17.0
 40
17.0
 40
18.0
 40
18.0
 40
18.0
 40
19.0
 40
19.0
 40
19.0
 40
20.0
 40
20.0
 40
20.0
 40
21.0
 40
21.0
 40
21.0
 40
22.0
 40
22.0
 40
22.0
 40
23.0
 40
23.0
 40
23.0
 40
24.0
 40
24.0
 40
24.0
 40
24.0
 10
66.70221623766472
 20
-17.15381944015599
 30
0.0
 10
65.99941675867376
 20
-17.13693847227826
 30
0.0
 10
65.59324000096281
 20
-17.13693847227826
 30
0.0
 10
64.89044052197184
 20
-17.13693847227826
 30
0.0
 10
64.0350233129843
 20
-17.13693847227826
 30
0.0
 10
63.45934785739905
 20
-17.13693847227826
 30
0.0
 10
62.61254338712465
 20
-17.16225992409485
 30
0.0
 10
62.61254338712465
 20
-17.16225992409485
 30
0.0
 10
62.5787814513692
 20
-17.09456379780969
 30
0.0
 10
62.5787814513692
 20
-17.09456379780969
 30
0.0
 10
62.77342934628581
 20
-16.9760525131171
 30
0.0
 10
62.84956595650983
 20
-16.79828558607821
 30
0.0
 10
62.84956595650983
 20
-16.48495415169473
 30
0.0
 10
62.84956595650983
 20
-16.48495415169473
 30
0.0
 10
62.84956595650983
 20
-11.827874074734
 30
0.0
 10
62.84956595650983
 20
-11.827874074734
 30
0.0
 10
62.84956595650983
 20
-11.54003634694138
 30
0.0
 10
62.79892305287666
 20
-11.37915038778021
 30
0.0
 10
62.57016871265607
 20
-11.27752007096534
 30
0.0
 10
62.57016871265607
 20
-11.27752007096534
 30
0.0
 10
62.59566241924692
 20
-11.1927707220282
 30
0.0
 10
62.59566241924692
 20
-11.1927707220282
 30
0.0
 10
63.42558592164361
 20
-11.23514539649677
 30
0.0
 10
63.73013236253969
 20
-11.2267049125579
 30
0.0
 10
64.56005586493637
 20
-11.2267049125579
 30
0.0
 10
65.32211098627364
 20
-11.2267049125579
 30
0.0
 10
66.04179143314233
 20
-11.2267049125579
 30
0.0
 10
66.80384655447959
 20
-11.18433023808933
 30
0.0
 10
66.71909720554245
 20
-11.32833522937278
 30
0.0
 10
66.60058592084985
 20
-11.58223876663569
 30
0.0
 10
66.54133027850356
 20
-11.76017794844884
 30
0.0
 10
66.44831270040182
 20
-11.65854763163397
 30
0.0
 10
66.2619330346498
 20
-11.6161729571654
 30
0.0
 10
65.71175128565539
 20
-11.6161729571654
 30
0.0
 10
65.71175128565539
 20
-11.6161729571654
 30
0.0
 10
63.5440972063362
 20
-11.6161729571654
 30
0.0
 10
63.5440972063362
 20
-11.6161729571654
 30
0.0
 10
63.5440972063362
 20
-11.6161729571654
 30
0.0
 10
63.5440972063362
 20
-13.58056640285486
 30
0.0
 10
63.5440972063362
 20
-13.58056640285486
 30
0.0
 10
63.5440972063362
 20
-13.58056640285486
 30
0.0
 10
64.46703828683464
 20
-13.58056640285486
 30
0.0
 10
64.46703828683464
 20
-13.58056640285486
 30
0.0
 10
65.08508841688845
 20
-13.58056640285486
 30
0.0
 10
65.43235404180163
 20
-13.56368543497713
 30
0.0
 10
65.62700193671826
 20
-13.4536146342234
 30
0.0
 10
65.62700193671826
 20
-13.4536146342234
 30
0.0
 10
65.67764484035142
 20
-13.49598930869197
 30
0.0
 10
65.67764484035142
 20
-13.49598930869197
 30
0.0
 10
65.58462726224968
 20
-13.60606010944571
 30
0.0
 10
65.45750323884395
 20
-13.89389783723833
 30
0.0
 10
65.39824759649767
 20
-14.07166476427722
 30
0.0
 10
65.24597437604962
 20
-13.98708767011434
 30
0.0
 10
64.92420245772729
 20
-13.97003444746235
 30
0.0
 10
64.46703828683464
 20
-13.97003444746235
 30
0.0
 10
64.46703828683464
 20
-13.97003444746235
 30
0.0
 10
63.5440972063362
 20
-13.97003444746235
 30
0.0
 10
63.5440972063362
 20
-13.97003444746235
 30
0.0
 10
63.5440972063362
 20
-13.97003444746235
 30
0.0
 10
63.5440972063362
 20
-16.74747042767077
 30
0.0
 10
63.5440972063362
 20
-16.74747042767077
 30
0.0
 10
63.5440972063362
 20
-16.74747042767077
 30
0.0
 10
65.38997936733307
 20
-16.74747042767077
 30
0.0
 10
65.38997936733307
 20
-16.74747042767077
 30
0.0
 10
66.49068737487039
 20
-16.74747042767077
 30
0.0
 10
66.82072752235732
 20
-16.56109076191875
 30
0.0
 10
67.15111217939278
 20
-16.23087835965756
 30
0.0
 10
67.15111217939278
 20
-16.23087835965756
 30
0.0
 10
67.22724878961681
 20
-16.29013400200386
 30
0.0
 10
67.22724878961681
 20
-16.29013400200386
 30
0.0
 10
67.01571992682246
 20
-16.55265027797989
 30
0.0
 10
66.80384655447959
 20
-16.9167968707708
 30
0.0
 10
66.70221623766472
 20
-17.15381944015599
 30
0.0
  0
HATCH
  5
87
330
70
100
AcDbEntity
  8
Layer 1
 62
   250
440
 33554687
100
AcDbHatch
 10
0.0
 20
0.0
 30
0.0
210
0.0
220
0.0
230
1.0
  2
SOLID
 70
     1
 71
     1
 91
        1
 92
        1
 93
        1
 72
     4
 94
        3
 73
     0
 74
     0
 95
       77
 96
       73
 40
0.0
 40
0.0
 40
0.0
 40
0.0
 40
1.0
 40
1.0
 40
1.0
 40
2.0
 40
2.0
 40
2.0
 40
3.0
 40
3.0
 40
3.0
 40
4.0
 40
4.0
 40
4.0
 40
5.0
 40
5.0
 40
5.0
 40
6.0
 40
6.0
 40
6.0
 40
7.0
 40
7.0
 40
7.0
 40
8.0
 40
8.0
 40
8.0
 40
9.0
 40
9.0
 40
9.0
 40
10.0
 40
10.0
 40
10.0
 40
11.0
 40
11.0
 40
11.0
 40
12.0
 40
12.0
 40
12.0
 40
13.0
 40
13.0
 40
13.0
 40
14.0
 40
14.0
 40
14.0
 40
15.0
 40
15.0
 40
15.0
 40
16.0
 40
16.0
 40
16.0
 40
17.0
 40
17.0
 40
17.0
 40
18.0
 40
18.0
 40
18.0
 40
19.0
 40
19.0
 40
19.0
 40
20.0
 40
20.0
 40
20.0
 40
21.0
 40
21.0
 40
21.0
 40
22.0
 40
22.0
 40
22.0
 40
23.0
 40
23.0
 40
23.0
 40
24.0
 40
24.0
 40
24.0
 40
24.0
 10
66.70221623766472
 20
-17.15381944015599
 10
65.99941675867376
 20
-17.13693847227826
 10
65.59324000096281
 20
-17.13693847227826
 10
64.89044052197184
 20
-17.13693847227826
 10
64.0350233129843
 20
-17.13693847227826
 10
63.45934785739905
 20
-17.13693847227826
 10
62.61254338712465
 20
-17.16225992409485
 10
62.61254338712465
 20
-17.16225992409485
 10
62.5787814513692
 20
-17.09456379780969
 10
62.5787814513692
 20
-17.09456379780969
 10
62.77342934628581
 20
-16.9760525131171
 10
62.84956595650983
 20
-16.79828558607821
 10
62.84956595650983
 20
-16.48495415169473
 10
62.84956595650983
 20
-16.48495415169473
 10
62.84956595650983
 20
-11.827874074734
 10
62.84956595650983
 20
-11.827874074734
 10
62.84956595650983
 20
-11.54003634694138
 10
62.79892305287666
 20
-11.37915038778021
 10
62.57016871265607
 20
-11.27752007096534
 10
62.57016871265607
 20
-11.27752007096534
 10
62.59566241924692
 20
-11.1927707220282
 10
62.59566241924692
 20
-11.1927707220282
 10
63.42558592164361
 20
-11.23514539649677
 10
63.73013236253969
 20
-11.2267049125579
 10
64.56005586493637
 20
-11.2267049125579
 10
65.32211098627364
 20
-11.2267049125579
 10
66.04179143314233
 20
-11.2267049125579
 10
66.80384655447959
 20
-11.18433023808933
 10
66.71909720554245
 20
-11.32833522937278
 10
66.60058592084985
 20
-11.58223876663569
 10
66.54133027850356
 20
-11.76017794844884
 10
66.44831270040182
 20
-11.65854763163397
 10
66.2619330346498
 20
-11.6161729571654
 10
65.71175128565539
 20
-11.6161729571654
 10
65.71175128565539
 20
-11.6161729571654
 10
63.5440972063362
 20
-11.6161729571654
 10
63.5440972063362
 20
-11.6161729571654
 10
63.5440972063362
 20
-11.6161729571654
 10
63.5440972063362
 20
-13.58056640285486
 10
63.5440972063362
 20
-13.58056640285486
 10
63.5440972063362
 20
-13.58056640285486
 10
64.46703828683464
 20
-13.58056640285486
 10
64.46703828683464
 20
-13.58056640285486
 10
65.08508841688845
 20
-13.58056640285486
 10
65.43235404180163
 20
-13.56368543497713
 10
65.62700193671826
 20
-13.4536146342234
 10
65.62700193671826
 20
-13.4536146342234
 10
65.67764484035142
 20
-13.49598930869197
 10
65.67764484035142
 20
-13.49598930869197
 10
65.58462726224968
 20
-13.60606010944571
 10
65.45750323884395
 20
-13.89389783723833
 10
65.39824759649767
 20
-14.07166476427722
 10
65.24597437604962
 20
-13.98708767011434
 10
64.92420245772729
 20
-13.97003444746235
 10
64.46703828683464
 20
-13.97003444746235
 10
64.46703828683464
 20
-13.97003444746235
 10
63.5440972063362
 20
-13.97003444746235
 10
63.5440972063362
 20
-13.97003444746235
 10
63.5440972063362
 20
-13.97003444746235
 10
63.5440972063362
 20
-16.74747042767077
 10
63.5440972063362
 20
-16.74747042767077
 10
63.5440972063362
 20
-16.74747042767077
 10
65.38997936733307
 20
-16.74747042767077
 10
65.38997936733307
 20
-16.74747042767077
 10
66.49068737487039
 20
-16.74747042767077
 10
66.82072752235732
 20
-16.56109076191875
 10
67.15111217939278
 20
-16.23087835965756
 10
67.15111217939278
 20
-16.23087835965756
 10
67.22724878961681
 20
-16.29013400200386
 10
67.22724878961681
 20
-16.29013400200386
 10
67.01571992682246
 20
-16.55265027797989
 10
66.80384655447959
 20
-16.9167968707708
 10
66.70221623766472
 20
-17.15381944015599
 97
        0
 97
        1
330
86
 75
     2
 76
     1
 98
        1
 10
0.0
 20
0.0
450
        0
451
        0
460
0.0
461
0.0
452
        0
462
0.0
453
        0
470

  0
SPLINE
  5
88
330
70
100
AcDbEntity
  8
Layer 1
100
AcDbSpline
210
0.0
220
0.0
230
1.0
 70
    11
 71
     3
 72
    59
 73
    55
 74
     0
 42
0.0000000001
 43
0.0000000001
 40
0.0
 40
0.0
 40
0.0
 40
0.0
 40
1.0
 40
1.0
 40
1.0
 40
2.0
 40
2.0
 40
2.0
 40
3.0
 40
3.0
 40
3.0
 40
4.0
 40
4.0
 40
4.0
 40
5.0
 40
5.0
 40
5.0
 40
6.0
 40
6.0
 40
6.0
 40
7.0
 40
7.0
 40
7.0
 40
8.0
 40
8.0
 40
8.0
 40
9.0
 40
9.0
 40
9.0
 40
10.0
 40
10.0
 40
10.0
 40
11.0
 40
11.0
 40
11.0
 40
12.0
 40
12.0
 40
12.0
 40
13.0
 40
13.0
 40
13.0
 40
14.0
 40
14.0
 40
14.0
 40
15.0
 40
15.0
 40
15.0
 40
16.0
 40
16.0
 40
16.0
 40
17.0
 40
17.0
 40
17.0
 40
18.0
 40
18.0
 40
18.0
 40
18.0
 10
75.38902450372219
 20
-11.86180826526371
 30
0.0
 10
75.38902450372219
 20
-11.86180826526371
 30
0.0
 10
75.30427515478504
 20
-11.86180826526371
 30
0.0
 10
75.30427515478504
 20
-11.86180826526371
 30
0.0
 10
75.25328774160334
 20
-11.73468424185799
 30
0.0
 10
75.15165742478848
 20
-11.6161729571654
 30
0.0
 10
74.63523761154952
 20
-11.6161729571654
 30
0.0
 10
74.63523761154952
 20
-11.6161729571654
 30
0.0
 10
73.4242865484842
 20
-11.6161729571654
 30
0.0
 10
73.4242865484842
 20
-11.6161729571654
 30
0.0
 10
73.4242865484842
 20
-11.6161729571654
 30
0.0
 10
73.4242865484842
 20
-16.44257947722616
 30
0.0
 10
73.4242865484842
 20
-16.44257947722616
 30
0.0
 10
73.4242865484842
 20
-16.78123236342622
 30
0.0
 10
73.50903589742135
 20
-16.94211832258738
 30
0.0
 10
73.81392684786597
 20
-17.06062960727998
 30
0.0
 10
73.81392684786597
 20
-17.06062960727998
 30
0.0
 10
73.79704587998825
 20
-17.15381944015599
 30
0.0
 10
73.79704587998825
 20
-17.15381944015599
 30
0.0
 10
73.5937852463585
 20
-17.13693847227826
 30
0.0
 10
73.33126897038247
 20
-17.13693847227826
 30
0.0
 10
73.11974010758813
 20
-17.13693847227826
 30
0.0
 10
72.91647947395839
 20
-17.13693847227826
 30
0.0
 10
72.6284694913915
 20
-17.14537895621713
 30
0.0
 10
72.43382159647488
 20
-17.15381944015599
 30
0.0
 10
72.43382159647488
 20
-17.15381944015599
 30
0.0
 10
72.41694062859716
 20
-17.06062960727998
 30
0.0
 10
72.41694062859716
 20
-17.06062960727998
 30
0.0
 10
72.63708223010462
 20
-16.95917154523937
 30
0.0
 10
72.73009980820636
 20
-16.80672607001707
 30
0.0
 10
72.73009980820636
 20
-16.49339463563359
 30
0.0
 10
72.73009980820636
 20
-16.49339463563359
 30
0.0
 10
72.73009980820636
 20
-11.6161729571654
 30
0.0
 10
72.73009980820636
 20
-11.6161729571654
 30
0.0
 10
72.73009980820636
 20
-11.6161729571654
 30
0.0
 10
71.75651582407477
 20
-11.6161729571654
 30
0.0
 10
71.75651582407477
 20
-11.6161729571654
 30
0.0
 10
71.0619845742484
 20
-11.6161729571654
 30
0.0
 10
70.83323023402781
 20
-11.71780327398027
 30
0.0
 10
70.60482040335575
 20
-11.87868923314144
 30
0.0
 10
70.60482040335575
 20
-11.87868923314144
 30
0.0
 10
70.53695202229632
 20
-11.827874074734
 30
0.0
 10
70.53695202229632
 20
-11.827874074734
 30
0.0
 10
70.53695202229632
 20
-11.827874074734
 30
0.0
 10
70.80808103698548
 20
-11.20965168990592
 30
0.0
 10
70.80808103698548
 20
-11.20965168990592
 30
0.0
 10
71.69691567217994
 20
-11.21826442861904
 30
0.0
 10
72.2050672562543
 20
-11.2267049125579
 30
0.0
 10
73.09424640099727
 20
-11.2267049125579
 30
0.0
 10
74.09332409171972
 20
-11.2267049125579
 30
0.0
 10
74.66899954730497
 20
-11.21826442861904
 30
0.0
 10
75.65980900886282
 20
-11.20965168990592
 30
0.0
 10
75.65980900886282
 20
-11.20965168990592
 30
0.0
 10
75.38902450372219
 20
-11.86180826526371
 30
0.0
 10
75.38902450372219
 20
-11.86180826526371
 30
0.0
  0
HATCH
  5
89
330
70
100
AcDbEntity
  8
Layer 1
 62
   250
440
 33554687
100
AcDbHatch
 10
0.0
 20
0.0
 30
0.0
210
0.0
220
0.0
230
1.0
  2
SOLID
 70
     1
 71
     1
 91
        1
 92
        1
 93
        1
 72
     4
 94
        3
 73
     0
 74
     0
 95
       59
 96
       55
 40
0.0
 40
0.0
 40
0.0
 40
0.0
 40
1.0
 40
1.0
 40
1.0
 40
2.0
 40
2.0
 40
2.0
 40
3.0
 40
3.0
 40
3.0
 40
4.0
 40
4.0
 40
4.0
 40
5.0
 40
5.0
 40
5.0
 40
6.0
 40
6.0
 40
6.0
 40
7.0
 40
7.0
 40
7.0
 40
8.0
 40
8.0
 40
8.0
 40
9.0
 40
9.0
 40
9.0
 40
10.0
 40
10.0
 40
10.0
 40
11.0
 40
11.0
 40
11.0
 40
12.0
 40
12.0
 40
12.0
 40
13.0
 40
13.0
 40
13.0
 40
14.0
 40
14.0
 40
14.0
 40
15.0
 40
15.0
 40
15.0
 40
16.0
 40
16.0
 40
16.0
 40
17.0
 40
17.0
 40
17.0
 40
18.0
 40
18.0
 40
18.0
 40
18.0
 10
75.38902450372219
 20
-11.86180826526371
 10
75.38902450372219
 20
-11.86180826526371
 10
75.30427515478504
 20
-11.86180826526371
 10
75.30427515478504
 20
-11.86180826526371
 10
75.25328774160334
 20
-11.73468424185799
 10
75.15165742478848
 20
-11.6161729571654
 10
74.63523761154952
 20
-11.6161729571654
 10
74.63523761154952
 20
-11.6161729571654
 10
73.4242865484842
 20
-11.6161729571654
 10
73.4242865484842
 20
-11.6161729571654
 10
73.4242865484842
 20
-11.6161729571654
 10
73.4242865484842
 20
-16.44257947722616
 10
73.4242865484842
 20
-16.44257947722616
 10
73.4242865484842
 20
-16.78123236342622
 10
73.50903589742135
 20
-16.94211832258738
 10
73.81392684786597
 20
-17.06062960727998
 10
73.81392684786597
 20
-17.06062960727998
 10
73.79704587998825
 20
-17.15381944015599
 10
73.79704587998825
 20
-17.15381944015599
 10
73.5937852463585
 20
-17.13693847227826
 10
73.33126897038247
 20
-17.13693847227826
 10
73.11974010758813
 20
-17.13693847227826
 10
72.91647947395839
 20
-17.13693847227826
 10
72.6284694913915
 20
-17.14537895621713
 10
72.43382159647488
 20
-17.15381944015599
 10
72.43382159647488
 20
-17.15381944015599
 10
72.41694062859716
 20
-17.06062960727998
 10
72.41694062859716
 20
-17.06062960727998
 10
72.63708223010462
 20
-16.95917154523937
 10
72.73009980820636
 20
-16.80672607001707
 10
72.73009980820636
 20
-16.49339463563359
 10
72.73009980820636
 20
-16.49339463563359
 10
72.73009980820636
 20
-11.6161729571654
 10
72.73009980820636
 20
-11.6161729571654
 10
72.73009980820636
 20
-11.6161729571654
 10
71.75651582407477
 20
-11.6161729571654
 10
71.75651582407477
 20
-11.6161729571654
 10
71.0619845742484
 20
-11.6161729571654
 10
70.83323023402781
 20
-11.71780327398027
 10
70.60482040335575
 20
-11.87868923314144
 10
70.60482040335575
 20
-11.87868923314144
 10
70.53695202229632
 20
-11.827874074734
 10
70.53695202229632
 20
-11.827874074734
 10
70.53695202229632
 20
-11.827874074734
 10
70.80808103698548
 20
-11.20965168990592
 10
70.80808103698548
 20
-11.20965168990592
 10
71.69691567217994
 20
-11.21826442861904
 10
72.2050672562543
 20
-11.2267049125579
 10
73.09424640099727
 20
-11.2267049125579
 10
74.09332409171972
 20
-11.2267049125579
 10
74.66899954730497
 20
-11.21826442861904
 10
75.65980900886282
 20
-11.20965168990592
 10
75.65980900886282
 20
-11.20965168990592
 10
75.38902450372219
 20
-11.86180826526371
 10
75.38902450372219
 20
-11.86180826526371
 97
        0
 97
        1
330
88
 75
     2
 76
     1
 98
        1
 10
0.0
 20
0.0
450
        0
451
        0
460
0.0
461
0.0
452
        0
462
0.0
453
        0
470

  0
SPLINE
  5
8A
330
70
100
AcDbEntity
  8
Layer 1
100
AcDbSpline
210
0.0
220
0.0
230
1.0
 70
     9
 71
     3
 72
    17
 73
    13
 74
     0
 42
0.0000000001
 43
0.0000000001
 40
0.0
 40
0.0
 40
0.0
 40
0.0
 40
1.0
 40
1.0
 40
1.0
 40
2.0
 40
2.0
 40
2.0
 40
3.0
 40
3.0
 40
3.0
 40
4.0
 40
4.0
 40
4.0
 40
4.0
 10
78.93643932488394
 20
-11.51454264035053
 30
0.0
 10
77.50534666031116
 20
-11.51454264035053
 30
0.0
 10
76.6247802542813
 20
-12.65762532235642
 30
0.0
 10
76.6247802542813
 20
-14.2072292716218
 30
0.0
 10
76.6247802542813
 20
-15.78215467270377
 30
0.0
 10
77.63247068371689
 20
-16.84910074448564
 30
0.0
 10
78.99569496723024
 20
-16.84910074448564
 30
0.0
 10
80.39268118649905
 20
-16.84910074448564
 30
0.0
 10
81.28186033124205
 20
-15.52807888066659
 30
0.0
 10
81.28186033124205
 20
-14.0547837963995
 30
0.0
 10
81.28186033124205
 20
-12.6407443544787
 30
0.0
 10
80.35030651203049
 20
-11.51454264035053
 30
0.0
 10
78.93643932488394
 20
-11.51454264035053
 30
0.0
  0
SPLINE
  5
8B
330
70
100
AcDbEntity
  8
Layer 1
100
AcDbSpline
210
0.0
220
0.0
230
1.0
 70
     9
 71
     3
 72
    17
 73
    13
 74
     0
 42
0.0000000001
 43
0.0000000001
 40
0.0
 40
0.0
 40
0.0
 40
0.0
 40
1.0
 40
1.0
 40
1.0
 40
2.0
 40
2.0
 40
2.0
 40
3.0
 40
3.0
 40
3.0
 40
4.0
 40
4.0
 40
4.0
 40
4.0
 10
78.99569496723024
 20
-17.23012830515427
 30
0.0
 10
77.20906844857968
 20
-17.23012830515427
 30
0.0
 10
75.87099336210865
 20
-15.99385579027237
 30
0.0
 10
75.87099336210865
 20
-14.27492539790696
 30
0.0
 10
75.87099336210865
 20
-12.47141791137867
 30
0.0
 10
77.25144312304824
 20
-11.1335150796819
 30
0.0
 10
79.03806964169882
 20
-11.1335150796819
 30
0.0
 10
80.73133407269912
 20
-11.1335150796819
 30
0.0
 10
82.03530271386616
 20
-12.35290662668608
 30
0.0
 10
82.03530271386616
 20
-14.03790282852177
 30
0.0
 10
82.03530271386616
 20
-15.72289903035747
 30
0.0
 10
80.67207843035282
 20
-17.23012830515427
 30
0.0
 10
78.99569496723024
 20
-17.23012830515427
 30
0.0
  0
HATCH
  5
8C
330
70
100
AcDbEntity
  8
Layer 1
 62
   250
440
 33554687
100
AcDbHatch
 10
0.0
 20
0.0
 30
0.0
210
0.0
220
0.0
230
1.0
  2
SOLID
 70
     1
 71
     1
 91
        2
 92
        1
 93
        1
 72
     4
 94
        3
 73
     0
 74
     0
 95
       17
 96
       13
 40
0.0
 40
0.0
 40
0.0
 40
0.0
 40
1.0
 40
1.0
 40
1.0
 40
2.0
 40
2.0
 40
2.0
 40
3.0
 40
3.0
 40
3.0
 40
4.0
 40
4.0
 40
4.0
 40
4.0
 10
78.93643932488394
 20
-11.51454264035053
 10
77.50534666031116
 20
-11.51454264035053
 10
76.6247802542813
 20
-12.65762532235642
 10
76.6247802542813
 20
-14.2072292716218
 10
76.6247802542813
 20
-15.78215467270377
 10
77.63247068371689
 20
-16.84910074448564
 10
78.99569496723024
 20
-16.84910074448564
 10
80.39268118649905
 20
-16.84910074448564
 10
81.28186033124205
 20
-15.52807888066659
 10
81.28186033124205
 20
-14.0547837963995
 10
81.28186033124205
 20
-12.6407443544787
 10
80.35030651203049
 20
-11.51454264035053
 10
78.93643932488394
 20
-11.51454264035053
 97
        0
 97
        1
330
8A
 92
        1
 93
        1
 72
     4
 94
        3
 73
     0
 74
     0
 95
       17
 96
       13
 40
0.0
 40
0.0
 40
0.0
 40
0.0
 40
1.0
 40
1.0
 40
1.0
 40
2.0
 40
2.0
 40
2.0
 40
3.0
 40
3.0
 40
3.0
 40
4.0
 40
4.0
 40
4.0
 40
4.0
 10
78.99569496723024
 20
-17.23012830515427
 10
77.20906844857968
 20
-17.23012830515427
 10
75.87099336210865
 20
-15.99385579027237
 10
75.87099336210865
 20
-14.27492539790696
 10
75.87099336210865
 20
-12.47141791137867
 10
77.25144312304824
 20
-11.1335150796819
 10
79.03806964169882
 20
-11.1335150796819
 10
80.73133407269912
 20
-11.1335150796819
 10
82.03530271386616
 20
-12.35290662668608
 10
82.03530271386616
 20
-14.03790282852177
 10
82.03530271386616
 20
-15.72289903035747
 10
80.67207843035282
 20
-17.23012830515427
 10
78.99569496723024
 20
-17.23012830515427
 97
        0
 97
        1
330
8B
 75
     2
 76
     1
 98
        1
 10
0.0
 20
0.0
450
        0
451
        0
460
0.0
461
0.0
452
        0
462
0.0
453
        0
470

  0
SPLINE
  5
8D
330
70
100
AcDbEntity
  8
Layer 1
100
AcDbSpline
210
0.0
220
0.0
230
1.0
 70
     9
 71
     3
 72
    62
 73
    58
 74
     0
 42
0.0000000001
 43
0.0000000001
 40
0.0
 40
0.0
 40
0.0
 40
0.0
 40
1.0
 40
1.0
 40
1.0
 40
2.0
 40
2.0
 40
2.0
 40
3.0
 40
3.0
 40
3.0
 40
4.0
 40
4.0
 40
4.0
 40
5.0
 40
5.0
 40
5.0
 40
6.0
 40
6.0
 40
6.0
 40
7.0
 40
7.0
 40
7.0
 40
8.0
 40
8.0
 40
8.0
 40
9.0
 40
9.0
 40
9.0
 40
10.0
 40
10.0
 40
10.0
 40
11.0
 40
11.0
 40
11.0
 40
12.0
 40
12.0
 40
12.0
 40
13.0
 40
13.0
 40
13.0
 40
14.0
 40
14.0
 40
14.0
 40
15.0
 40
15.0
 40
15.0
 40
16.0
 40
16.0
 40
16.0
 40
17.0
 40
17.0
 40
17.0
 40
18.0
 40
18.0
 40
18.0
 40
19.0
 40
19.0
 40
19.0
 40
19.0
 10
30.01849500117593
 20
-21.04109293093765
 30
0.0
 10
30.01849500117593
 20
-21.04109293093765
 30
0.0
 10
27.52062851959554
 20
-26.44334716135791
 30
0.0
 10
27.52062851959554
 20
-26.44334716135791
 30
0.0
 10
27.52062851959554
 20
-26.44334716135791
 30
0.0
 10
27.3766235283121
 20
-26.44334716135791
 30
0.0
 10
27.3766235283121
 20
-26.44334716135791
 30
0.0
 10
27.3766235283121
 20
-26.44334716135791
 30
0.0
 10
24.96350639566885
 20
-21.09190808934508
 30
0.0
 10
24.96350639566885
 20
-21.09190808934508
 30
0.0
 10
24.8195014043854
 20
-20.77013617102275
 30
0.0
 10
24.71787108757053
 20
-20.566875537393
 30
0.0
 10
24.4553548115945
 20
-20.43992376876155
 30
0.0
 10
24.4553548115945
 20
-20.43992376876155
 30
0.0
 10
24.47240803424648
 20
-20.36361490376326
 30
0.0
 10
24.47240803424648
 20
-20.36361490376326
 30
0.0
 10
24.70099011969281
 20
-20.37222764247639
 30
0.0
 10
24.81106092044654
 20
-20.38066812641525
 30
0.0
 10
25.04808348983173
 20
-20.38066812641525
 30
0.0
 10
25.30215928186891
 20
-20.38066812641525
 30
0.0
 10
25.5731160417838
 20
-20.38066812641525
 30
0.0
 10
25.81875134988212
 20
-20.36361490376326
 30
0.0
 10
25.81875134988212
 20
-20.36361490376326
 30
0.0
 10
25.8440728016987
 20
-20.43992376876155
 30
0.0
 10
25.8440728016987
 20
-20.43992376876155
 30
0.0
 10
25.70868054912839
 20
-20.49917941110785
 30
0.0
 10
25.63237168413011
 20
-20.61769069580044
 30
0.0
 10
25.63237168413011
 20
-20.72776149655418
 30
0.0
 10
25.63237168413011
 20
-20.85488551995989
 30
0.0
 10
25.70006781041526
 20
-21.04953341487651
 30
0.0
 10
25.78481715935241
 20
-21.25279404850624
 30
0.0
 10
25.78481715935241
 20
-21.25279404850624
 30
0.0
 10
27.59676512981956
 20
-25.41877576404461
 30
0.0
 10
27.59676512981956
 20
-25.41877576404461
 30
0.0
 10
27.59676512981956
 20
-25.41877576404461
 30
0.0
 10
29.49346244922386
 20
-21.14272324775251
 30
0.0
 10
29.49346244922386
 20
-21.14272324775251
 30
0.0
 10
29.58665228209987
 20
-20.92258164624505
 30
0.0
 10
29.62902695656844
 20
-20.80407036155246
 30
0.0
 10
29.62902695656844
 20
-20.70244004473758
 30
0.0
 10
29.62902695656844
 20
-20.60080972792272
 30
0.0
 10
29.56133083028328
 20
-20.49917941110785
 30
0.0
 10
29.43420680687756
 20
-20.43992376876155
 30
0.0
 10
29.43420680687756
 20
-20.43992376876155
 30
0.0
 10
29.46814099740727
 20
-20.36361490376326
 30
0.0
 10
29.46814099740727
 20
-20.36361490376326
 30
0.0
 10
29.65434840838503
 20
-20.37222764247639
 30
0.0
 10
29.85760904201477
 20
-20.38066812641525
 30
0.0
 10
30.06931015958337
 20
-20.38066812641525
 30
0.0
 10
30.21331515086681
 20
-20.38066812641525
 30
0.0
 10
30.34026691949827
 20
-20.37222764247639
 30
0.0
 10
30.47565917206858
 20
-20.36361490376326
 30
0.0
 10
30.47565917206858
 20
-20.36361490376326
 30
0.0
 10
30.50115287865944
 20
-20.43992376876155
 30
0.0
 10
30.50115287865944
 20
-20.43992376876155
 30
0.0
 10
30.31494546768168
 20
-20.54155408557642
 30
0.0
 10
30.17094047639824
 20
-20.70244004473758
 30
0.0
 10
30.01849500117593
 20
-21.04109293093765
 30
0.0
  0
HATCH
  5
8E
330
70
100
AcDbEntity
  8
Layer 1
 62
   250
440
 33554687
100
AcDbHatch
 10
0.0
 20
0.0
 30
0.0
210
0.0
220
0.0
230
1.0
  2
SOLID
 70
     1
 71
     1
 91
        1
 92
        1
 93
        1
 72
     4
 94
        3
 73
     0
 74
     0
 95
       62
 96
       58
 40
0.0
 40
0.0
 40
0.0
 40
0.0
 40
1.0
 40
1.0
 40
1.0
 40
2.0
 40
2.0
 40
2.0
 40
3.0
 40
3.0
 40
3.0
 40
4.0
 40
4.0
 40
4.0
 40
5.0
 40
5.0
 40
5.0
 40
6.0
 40
6.0
 40
6.0
 40
7.0
 40
7.0
 40
7.0
 40
8.0
 40
8.0
 40
8.0
 40
9.0
 40
9.0
 40
9.0
 40
10.0
 40
10.0
 40
10.0
 40
11.0
 40
11.0
 40
11.0
 40
12.0
 40
12.0
 40
12.0
 40
13.0
 40
13.0
 40
13.0
 40
14.0
 40
14.0
 40
14.0
 40
15.0
 40
15.0
 40
15.0
 40
16.0
 40
16.0
 40
16.0
 40
17.0
 40
17.0
 40
17.0
 40
18.0
 40
18.0
 40
18.0
 40
19.0
 40
19.0
 40
19.0
 40
19.0
 10
30.01849500117593
 20
-21.04109293093765
 10
30.01849500117593
 20
-21.04109293093765
 10
27.52062851959554
 20
-26.44334716135791
 10
27.52062851959554
 20
-26.44334716135791
 10
27.52062851959554
 20
-26.44334716135791
 10
27.3766235283121
 20
-26.44334716135791
 10
27.3766235283121
 20
-26.44334716135791
 10
27.3766235283121
 20
-26.44334716135791
 10
24.96350639566885
 20
-21.09190808934508
 10
24.96350639566885
 20
-21.09190808934508
 10
24.8195014043854
 20
-20.77013617102275
 10
24.71787108757053
 20
-20.566875537393
 10
24.4553548115945
 20
-20.43992376876155
 10
24.4553548115945
 20
-20.43992376876155
 10
24.47240803424648
 20
-20.36361490376326
 10
24.47240803424648
 20
-20.36361490376326
 10
24.70099011969281
 20
-20.37222764247639
 10
24.81106092044654
 20
-20.38066812641525
 10
25.04808348983173
 20
-20.38066812641525
 10
25.30215928186891
 20
-20.38066812641525
 10
25.5731160417838
 20
-20.38066812641525
 10
25.81875134988212
 20
-20.36361490376326
 10
25.81875134988212
 20
-20.36361490376326
 10
25.8440728016987
 20
-20.43992376876155
 10
25.8440728016987
 20
-20.43992376876155
 10
25.70868054912839
 20
-20.49917941110785
 10
25.63237168413011
 20
-20.61769069580044
 10
25.63237168413011
 20
-20.72776149655418
 10
25.63237168413011
 20
-20.85488551995989
 10
25.70006781041526
 20
-21.04953341487651
 10
25.78481715935241
 20
-21.25279404850624
 10
25.78481715935241
 20
-21.25279404850624
 10
27.59676512981956
 20
-25.41877576404461
 10
27.59676512981956
 20
-25.41877576404461
 10
27.59676512981956
 20
-25.41877576404461
 10
29.49346244922386
 20
-21.14272324775251
 10
29.49346244922386
 20
-21.14272324775251
 10
29.58665228209987
 20
-20.92258164624505
 10
29.62902695656844
 20
-20.80407036155246
 10
29.62902695656844
 20
-20.70244004473758
 10
29.62902695656844
 20
-20.60080972792272
 10
29.56133083028328
 20
-20.49917941110785
 10
29.43420680687756
 20
-20.43992376876155
 10
29.43420680687756
 20
-20.43992376876155
 10
29.46814099740727
 20
-20.36361490376326
 10
29.46814099740727
 20
-20.36361490376326
 10
29.65434840838503
 20
-20.37222764247639
 10
29.85760904201477
 20
-20.38066812641525
 10
30.06931015958337
 20
-20.38066812641525
 10
30.21331515086681
 20
-20.38066812641525
 10
30.34026691949827
 20
-20.37222764247639
 10
30.47565917206858
 20
-20.36361490376326
 10
30.47565917206858
 20
-20.36361490376326
 10
30.50115287865944
 20
-20.43992376876155
 10
30.50115287865944
 20
-20.43992376876155
 10
30.31494546768168
 20
-20.54155408557642
 10
30.17094047639824
 20
-20.70244004473758
 10
30.01849500117593
 20
-21.04109293093765
 97
        0
 97
        1
330
8D
 75
     2
 76
     1
 98
        1
 10
0.0
 20
0.0
450
        0
451
        0
460
0.0
461
0.0
452
        0
462
0.0
453
        0
470

  0
SPLINE
  5
8F
330
70
100
AcDbEntity
  8
Layer 1
100
AcDbSpline
210
0.0
220
0.0
230
1.0
 70
    11
 71
     3
 72
    14
 73
    10
 74
     0
 42
0.0000000001
 43
0.0000000001
 40
0.0
 40
0.0
 40
0.0
 40
0.0
 40
1.0
 40
1.0
 40
1.0
 40
2.0
 40
2.0
 40
2.0
 40
3.0
 40
3.0
 40
3.0
 40
3.0
 10
32.83761663675587
 20
-21.42212049160628
 30
0.0
 10
32.83761663675587
 20
-21.42212049160628
 30
0.0
 10
31.98254393731687
 20
-23.14949136791055
 30
0.0
 10
31.98254393731687
 20
-23.14949136791055
 30
0.0
 10
31.98254393731687
 20
-23.14949136791055
 30
0.0
 10
33.57435030627655
 20
-23.14949136791055
 30
0.0
 10
33.57435030627655
 20
-23.14949136791055
 30
0.0
 10
33.57435030627655
 20
-23.14949136791055
 30
0.0
 10
32.83761663675587
 20
-21.42212049160628
 30
0.0
 10
32.83761663675587
 20
-21.42212049160628
 30
0.0
  0
SPLINE
  5
90
330
70
100
AcDbEntity
  8
Layer 1
100
AcDbSpline
210
0.0
220
0.0
230
1.0
 70
     9
 71
     3
 72
    68
 73
    64
 74
     0
 42
0.0000000001
 43
0.0000000001
 40
0.0
 40
0.0
 40
0.0
 40
0.0
 40
1.0
 40
1.0
 40
1.0
 40
2.0
 40
2.0
 40
2.0
 40
3.0
 40
3.0
 40
3.0
 40
4.0
 40
4.0
 40
4.0
 40
5.0
 40
5.0
 40
5.0
 40
6.0
 40
6.0
 40
6.0
 40
7.0
 40
7.0
 40
7.0
 40
8.0
 40
8.0
 40
8.0
 40
9.0
 40
9.0
 40
9.0
 40
10.0
 40
10.0
 40
10.0
 40
11.0
 40
11.0
 40
11.0
 40
12.0
 40
12.0
 40
12.0
 40
13.0
 40
13.0
 40
13.0
 40
14.0
 40
14.0
 40
14.0
 40
15.0
 40
15.0
 40
15.0
 40
16.0
 40
16.0
 40
16.0
 40
17.0
 40
17.0
 40
17.0
 40
18.0
 40
18.0
 40
18.0
 40
19.0
 40
19.0
 40
19.0
 40
20.0
 40
20.0
 40
20.0
 40
21.0
 40
21.0
 40
21.0
 40
21.0
 10
36.07221678785695
 20
-26.30778265401334
 30
0.0
 10
35.8267537345329
 20
-26.28246120219675
 30
0.0
 10
35.61505261696429
 20
-26.29090168613561
 30
0.0
 10
35.30172118258082
 20
-26.29090168613561
 30
0.0
 10
35.0138834547882
 20
-26.29090168613561
 30
0.0
 10
34.683671052527
 20
-26.29090168613561
 30
0.0
 10
34.4127142926121
 20
-26.30778265401334
 30
0.0
 10
34.4127142926121
 20
-26.30778265401334
 30
0.0
 10
34.38722058602125
 20
-26.22320555985045
 30
0.0
 10
34.38722058602125
 20
-26.22320555985045
 30
0.0
 10
34.53966606124356
 20
-26.15533717879103
 30
0.0
 10
34.65817734593616
 20
-26.00306395834298
 30
0.0
 10
34.65817734593616
 20
-25.86749945099841
 30
0.0
 10
34.65817734593616
 20
-25.7150539757761
 30
0.0
 10
34.61580267146758
 20
-25.55416801661493
 30
0.0
 10
34.50573187071384
 20
-25.30026447935202
 30
0.0
 10
34.50573187071384
 20
-25.30026447935202
 30
0.0
 10
33.74367674937658
 20
-23.53051892857918
 30
0.0
 10
33.74367674937658
 20
-23.53051892857918
 30
0.0
 10
33.74367674937658
 20
-23.53051892857918
 30
0.0
 10
31.79616427156485
 20
-23.53051892857918
 30
0.0
 10
31.79616427156485
 20
-23.53051892857918
 30
0.0
 10
31.79616427156485
 20
-23.53051892857918
 30
0.0
 10
30.98329399182015
 20
-25.19019367859829
 30
0.0
 10
30.98329399182015
 20
-25.19019367859829
 30
0.0
 10
30.8563422231887
 20
-25.45253769980006
 30
0.0
 10
30.80552706478126
 20
-25.62186414290009
 30
0.0
 10
30.80552706478126
 20
-25.79980332471325
 30
0.0
 10
30.80552706478126
 20
-26.02838541015958
 30
0.0
 10
30.91559786553499
 20
-26.1045220203836
 30
0.0
 10
31.13573946704246
 20
-26.22320555985045
 30
0.0
 10
31.13573946704246
 20
-26.22320555985045
 30
0.0
 10
31.11041801522587
 20
-26.30778265401334
 30
0.0
 10
31.11041801522587
 20
-26.30778265401334
 30
0.0
 10
30.82240803265899
 20
-26.29934217007447
 30
0.0
 10
30.5853854632738
 20
-26.29090168613561
 30
0.0
 10
30.29754773548117
 20
-26.29090168613561
 30
0.0
 10
30.04347194344399
 20
-26.29090168613561
 30
0.0
 10
29.89946695216055
 20
-26.29090168613561
 30
0.0
 10
29.6540038988365
 20
-26.30778265401334
 30
0.0
 10
29.6540038988365
 20
-26.30778265401334
 30
0.0
 10
29.63695067618452
 20
-26.20615233719846
 30
0.0
 10
29.63695067618452
 20
-26.20615233719846
 30
0.0
 10
29.93340114269026
 20
-26.1045220203836
 30
0.0
 10
30.14510226025886
 20
-25.90987412546698
 30
0.0
 10
30.36524386176633
 20
-25.46959092245205
 30
0.0
 10
30.36524386176633
 20
-25.46959092245205
 30
0.0
 10
32.61747503524841
 20
-20.99027777253021
 30
0.0
 10
32.61747503524841
 20
-20.99027777253021
 30
0.0
 10
32.79541421706156
 20
-20.63457166367816
 30
0.0
 10
32.87155082728559
 20
-20.4144300621707
 30
0.0
 10
32.87155082728559
 20
-20.21134168331522
 30
0.0
 10
32.87155082728559
 20
-20.21134168331522
 30
0.0
 10
33.01555581856903
 20
-20.21134168331522
 30
0.0
 10
33.01555581856903
 20
-20.21134168331522
 30
0.0
 10
33.01555581856903
 20
-20.21134168331522
 30
0.0
 10
35.37785779280484
 20
-25.52040608085949
 30
0.0
 10
35.37785779280484
 20
-25.52040608085949
 30
0.0
 10
35.53874375196601
 20
-25.88438041887613
 30
0.0
 10
35.74200438559575
 20
-26.1045220203836
 30
0.0
 10
36.08909775573467
 20
-26.22320555985045
 30
0.0
 10
36.08909775573467
 20
-26.22320555985045
 30
0.0
 10
36.07221678785695
 20
-26.30778265401334
 30
0.0
 10
36.07221678785695
 20
-26.30778265401334
 30
0.0
  0
HATCH
  5
91
330
70
100
AcDbEntity
  8
Layer 1
 62
   250
440
 33554687
100
AcDbHatch
 10
0.0
 20
0.0
 30
0.0
210
0.0
220
0.0
230
1.0
  2
SOLID
 70
     1
 71
     1
 91
        2
 92
        1
 93
        1
 72
     4
 94
        3
 73
     0
 74
     0
 95
       14
 96
       10
 40
0.0
 40
0.0
 40
0.0
 40
0.0
 40
1.0
 40
1.0
 40
1.0
 40
2.0
 40
2.0
 40
2.0
 40
3.0
 40
3.0
 40
3.0
 40
3.0
 10
32.83761663675587
 20
-21.42212049160628
 10
32.83761663675587
 20
-21.42212049160628
 10
31.98254393731687
 20
-23.14949136791055
 10
31.98254393731687
 20
-23.14949136791055
 10
31.98254393731687
 20
-23.14949136791055
 10
33.57435030627655
 20
-23.14949136791055
 10
33.57435030627655
 20
-23.14949136791055
 10
33.57435030627655
 20
-23.14949136791055
 10
32.83761663675587
 20
-21.42212049160628
 10
32.83761663675587
 20
-21.42212049160628
 97
        0
 97
        1
330
8F
 92
        1
 93
        1
 72
     4
 94
        3
 73
     0
 74
     0
 95
       68
 96
       64
 40
0.0
 40
0.0
 40
0.0
 40
0.0
 40
1.0
 40
1.0
 40
1.0
 40
2.0
 40
2.0
 40
2.0
 40
3.0
 40
3.0
 40
3.0
 40
4.0
 40
4.0
 40
4.0
 40
5.0
 40
5.0
 40
5.0
 40
6.0
 40
6.0
 40
6.0
 40
7.0
 40
7.0
 40
7.0
 40
8.0
 40
8.0
 40
8.0
 40
9.0
 40
9.0
 40
9.0
 40
10.0
 40
10.0
 40
10.0
 40
11.0
 40
11.0
 40
11.0
 40
12.0
 40
12.0
 40
12.0
 40
13.0
 40
13.0
 40
13.0
 40
14.0
 40
14.0
 40
14.0
 40
15.0
 40
15.0
 40
15.0
 40
16.0
 40
16.0
 40
16.0
 40
17.0
 40
17.0
 40
17.0
 40
18.0
 40
18.0
 40
18.0
 40
19.0
 40
19.0
 40
19.0
 40
20.0
 40
20.0
 40
20.0
 40
21.0
 40
21.0
 40
21.0
 40
21.0
 10
36.07221678785695
 20
-26.30778265401334
 10
35.8267537345329
 20
-26.28246120219675
 10
35.61505261696429
 20
-26.29090168613561
 10
35.30172118258082
 20
-26.29090168613561
 10
35.0138834547882
 20
-26.29090168613561
 10
34.683671052527
 20
-26.29090168613561
 10
34.4127142926121
 20
-26.30778265401334
 10
34.4127142926121
 20
-26.30778265401334
 10
34.38722058602125
 20
-26.22320555985045
 10
34.38722058602125
 20
-26.22320555985045
 10
34.53966606124356
 20
-26.15533717879103
 10
34.65817734593616
 20
-26.00306395834298
 10
34.65817734593616
 20
-25.86749945099841
 10
34.65817734593616
 20
-25.7150539757761
 10
34.61580267146758
 20
-25.55416801661493
 10
34.50573187071384
 20
-25.30026447935202
 10
34.50573187071384
 20
-25.30026447935202
 10
33.74367674937658
 20
-23.53051892857918
 10
33.74367674937658
 20
-23.53051892857918
 10
33.74367674937658
 20
-23.53051892857918
 10
31.79616427156485
 20
-23.53051892857918
 10
31.79616427156485
 20
-23.53051892857918
 10
31.79616427156485
 20
-23.53051892857918
 10
30.98329399182015
 20
-25.19019367859829
 10
30.98329399182015
 20
-25.19019367859829
 10
30.8563422231887
 20
-25.45253769980006
 10
30.80552706478126
 20
-25.62186414290009
 10
30.80552706478126
 20
-25.79980332471325
 10
30.80552706478126
 20
-26.02838541015958
 10
30.91559786553499
 20
-26.1045220203836
 10
31.13573946704246
 20
-26.22320555985045
 10
31.13573946704246
 20
-26.22320555985045
 10
31.11041801522587
 20
-26.30778265401334
 10
31.11041801522587
 20
-26.30778265401334
 10
30.82240803265899
 20
-26.29934217007447
 10
30.5853854632738
 20
-26.29090168613561
 10
30.29754773548117
 20
-26.29090168613561
 10
30.04347194344399
 20
-26.29090168613561
 10
29.89946695216055
 20
-26.29090168613561
 10
29.6540038988365
 20
-26.30778265401334
 10
29.6540038988365
 20
-26.30778265401334
 10
29.63695067618452
 20
-26.20615233719846
 10
29.63695067618452
 20
-26.20615233719846
 10
29.93340114269026
 20
-26.1045220203836
 10
30.14510226025886
 20
-25.90987412546698
 10
30.36524386176633
 20
-25.46959092245205
 10
30.36524386176633
 20
-25.46959092245205
 10
32.61747503524841
 20
-20.99027777253021
 10
32.61747503524841
 20
-20.99027777253021
 10
32.79541421706156
 20
-20.63457166367816
 10
32.87155082728559
 20
-20.4144300621707
 10
32.87155082728559
 20
-20.21134168331522
 10
32.87155082728559
 20
-20.21134168331522
 10
33.01555581856903
 20
-20.21134168331522
 10
33.01555581856903
 20
-20.21134168331522
 10
33.01555581856903
 20
-20.21134168331522
 10
35.37785779280484
 20
-25.52040608085949
 10
35.37785779280484
 20
-25.52040608085949
 10
35.53874375196601
 20
-25.88438041887613
 10
35.74200438559575
 20
-26.1045220203836
 10
36.08909775573467
 20
-26.22320555985045
 10
36.08909775573467
 20
-26.22320555985045
 10
36.07221678785695
 20
-26.30778265401334
 10
36.07221678785695
 20
-26.30778265401334
 97
        0
 97
        1
330
90
 75
     2
 76
     1
 98
        1
 10
0.0
 20
0.0
450
        0
451
        0
460
0.0
461
0.0
452
        0
462
0.0
453
        0
470

  0
SPLINE
  5
92
330
70
100
AcDbEntity
  8
Layer 1
100
AcDbSpline
210
0.0
220
0.0
230
1.0
 70
     9
 71
     3
 72
    53
 73
    49
 74
     0
 42
0.0000000001
 43
0.0000000001
 40
0.0
 40
0.0
 40
0.0
 40
0.0
 40
1.0
 40
1.0
 40
1.0
 40
2.0
 40
2.0
 40
2.0
 40
3.0
 40
3.0
 40
3.0
 40
4.0
 40
4.0
 40
4.0
 40
5.0
 40
5.0
 40
5.0
 40
6.0
 40
6.0
 40
6.0
 40
7.0
 40
7.0
 40
7.0
 40
8.0
 40
8.0
 40
8.0
 40
9.0
 40
9.0
 40
9.0
 40
10.0
 40
10.0
 40
10.0
 40
11.0
 40
11.0
 40
11.0
 40
12.0
 40
12.0
 40
12.0
 40
13.0
 40
13.0
 40
13.0
 40
14.0
 40
14.0
 40
14.0
 40
15.0
 40
15.0
 40
15.0
 40
16.0
 40
16.0
 40
16.0
 40
16.0
 10
40.77115477496346
 20
-26.30778265401334
 30
0.0
 10
39.90746933681133
 20
-26.29934217007447
 30
0.0
 10
39.41637097538897
 20
-26.29934217007447
 30
0.0
 10
38.55268553723684
 20
-26.29934217007447
 30
0.0
 10
37.87537976483672
 20
-26.29934217007447
 30
0.0
 10
37.46041801363837
 20
-26.29934217007447
 30
0.0
 10
36.8168741769937
 20
-26.30778265401334
 30
0.0
 10
36.8168741769937
 20
-26.30778265401334
 30
0.0
 10
36.79999320911598
 20
-26.24852701166704
 30
0.0
 10
36.79999320911598
 20
-26.24852701166704
 30
0.0
 10
36.94382594562516
 20
-26.15533717879103
 30
0.0
 10
37.06250948509202
 20
-25.93519557728356
 30
0.0
 10
37.06250948509202
 20
-25.68973252395951
 30
0.0
 10
37.06250948509202
 20
-25.68973252395951
 30
0.0
 10
37.06250948509202
 20
-20.99027777253021
 30
0.0
 10
37.06250948509202
 20
-20.99027777253021
 30
0.0
 10
37.06250948509202
 20
-20.66006537026901
 30
0.0
 10
36.99464110403259
 20
-20.53311360163756
 30
0.0
 10
36.77449950252512
 20
-20.45680473663927
 30
0.0
 10
36.77449950252512
 20
-20.45680473663927
 30
0.0
 10
36.8168741769937
 20
-20.36361490376326
 30
0.0
 10
36.8168741769937
 20
-20.36361490376326
 30
0.0
 10
36.96931965221601
 20
-20.38066812641525
 30
0.0
 10
37.15552706319376
 20
-20.38066812641525
 30
0.0
 10
37.36722818076236
 20
-20.38066812641525
 30
0.0
 10
37.57892929833096
 20
-20.38066812641525
 30
0.0
 10
37.85832654218473
 20
-20.38066812641525
 30
0.0
 10
38.01077201740703
 20
-20.36361490376326
 30
0.0
 10
38.01077201740703
 20
-20.36361490376326
 30
0.0
 10
38.03626572399788
 20
-20.45680473663927
 30
0.0
 10
38.03626572399788
 20
-20.45680473663927
 30
0.0
 10
37.83300509036814
 20
-20.54999456951528
 30
0.0
 10
37.75669622536986
 20
-20.69399956079872
 30
0.0
 10
37.75669622536986
 20
-20.93946261412277
 30
0.0
 10
37.75669622536986
 20
-20.93946261412277
 30
0.0
 10
37.75669622536986
 20
-25.88438041887613
 30
0.0
 10
37.75669622536986
 20
-25.88438041887613
 30
0.0
 10
37.75669622536986
 20
-25.88438041887613
 30
0.0
 10
39.78895805211874
 20
-25.88438041887613
 30
0.0
 10
39.78895805211874
 20
-25.88438041887613
 30
0.0
 10
40.61870929974115
 20
-25.88438041887613
 30
0.0
 10
40.8559041239006
 20
-25.72349445971496
 30
0.0
 10
41.2453721685081
 20
-25.34246689904633
 30
0.0
 10
41.2453721685081
 20
-25.34246689904633
 30
0.0
 10
41.32994926267098
 20
-25.41033528010575
 30
0.0
 10
41.32994926267098
 20
-25.41033528010575
 30
0.0
 10
41.0929266932858
 20
-25.69817300789838
 30
0.0
 10
40.87278509177833
 20
-26.09608153644473
 30
0.0
 10
40.77115477496346
 20
-26.30778265401334
 30
0.0
  0
HATCH
  5
93
330
70
100
AcDbEntity
  8
Layer 1
 62
   250
440
 33554687
100
AcDbHatch
 10
0.0
 20
0.0
 30
0.0
210
0.0
220
0.0
230
1.0
  2
SOLID
 70
     1
 71
     1
 91
        1
 92
        1
 93
        1
 72
     4
 94
        3
 73
     0
 74
     0
 95
       53
 96
       49
 40
0.0
 40
0.0
 40
0.0
 40
0.0
 40
1.0
 40
1.0
 40
1.0
 40
2.0
 40
2.0
 40
2.0
 40
3.0
 40
3.0
 40
3.0
 40
4.0
 40
4.0
 40
4.0
 40
5.0
 40
5.0
 40
5.0
 40
6.0
 40
6.0
 40
6.0
 40
7.0
 40
7.0
 40
7.0
 40
8.0
 40
8.0
 40
8.0
 40
9.0
 40
9.0
 40
9.0
 40
10.0
 40
10.0
 40
10.0
 40
11.0
 40
11.0
 40
11.0
 40
12.0
 40
12.0
 40
12.0
 40
13.0
 40
13.0
 40
13.0
 40
14.0
 40
14.0
 40
14.0
 40
15.0
 40
15.0
 40
15.0
 40
16.0
 40
16.0
 40
16.0
 40
16.0
 10
40.77115477496346
 20
-26.30778265401334
 10
39.90746933681133
 20
-26.29934217007447
 10
39.41637097538897
 20
-26.29934217007447
 10
38.55268553723684
 20
-26.29934217007447
 10
37.87537976483672
 20
-26.29934217007447
 10
37.46041801363837
 20
-26.29934217007447
 10
36.8168741769937
 20
-26.30778265401334
 10
36.8168741769937
 20
-26.30778265401334
 10
36.79999320911598
 20
-26.24852701166704
 10
36.79999320911598
 20
-26.24852701166704
 10
36.94382594562516
 20
-26.15533717879103
 10
37.06250948509202
 20
-25.93519557728356
 10
37.06250948509202
 20
-25.68973252395951
 10
37.06250948509202
 20
-25.68973252395951
 10
37.06250948509202
 20
-20.99027777253021
 10
37.06250948509202
 20
-20.99027777253021
 10
37.06250948509202
 20
-20.66006537026901
 10
36.99464110403259
 20
-20.53311360163756
 10
36.77449950252512
 20
-20.45680473663927
 10
36.77449950252512
 20
-20.45680473663927
 10
36.8168741769937
 20
-20.36361490376326
 10
36.8168741769937
 20
-20.36361490376326
 10
36.96931965221601
 20
-20.38066812641525
 10
37.15552706319376
 20
-20.38066812641525
 10
37.36722818076236
 20
-20.38066812641525
 10
37.57892929833096
 20
-20.38066812641525
 10
37.85832654218473
 20
-20.38066812641525
 10
38.01077201740703
 20
-20.36361490376326
 10
38.01077201740703
 20
-20.36361490376326
 10
38.03626572399788
 20
-20.45680473663927
 10
38.03626572399788
 20
-20.45680473663927
 10
37.83300509036814
 20
-20.54999456951528
 10
37.75669622536986
 20
-20.69399956079872
 10
37.75669622536986
 20
-20.93946261412277
 10
37.75669622536986
 20
-20.93946261412277
 10
37.75669622536986
 20
-25.88438041887613
 10
37.75669622536986
 20
-25.88438041887613
 10
37.75669622536986
 20
-25.88438041887613
 10
39.78895805211874
 20
-25.88438041887613
 10
39.78895805211874
 20
-25.88438041887613
 10
40.61870929974115
 20
-25.88438041887613
 10
40.8559041239006
 20
-25.72349445971496
 10
41.2453721685081
 20
-25.34246689904633
 10
41.2453721685081
 20
-25.34246689904633
 10
41.32994926267098
 20
-25.41033528010575
 10
41.32994926267098
 20
-25.41033528010575
 10
41.0929266932858
 20
-25.69817300789838
 10
40.87278509177833
 20
-26.09608153644473
 10
40.77115477496346
 20
-26.30778265401334
 97
        0
 97
        1
330
92
 75
     2
 76
     1
 98
        1
 10
0.0
 20
0.0
450
        0
451
        0
460
0.0
461
0.0
452
        0
462
0.0
453
        0
470

  0
SPLINE
  5
94
330
70
100
AcDbEntity
  8
Layer 1
100
AcDbSpline
210
0.0
220
0.0
230
1.0
 70
    11
 71
     3
 72
    14
 73
    10
 74
     0
 42
0.0000000001
 43
0.0000000001
 40
0.0
 40
0.0
 40
0.0
 40
0.0
 40
1.0
 40
1.0
 40
1.0
 40
2.0
 40
2.0
 40
2.0
 40
3.0
 40
3.0
 40
3.0
 40
3.0
 10
44.70786538595844
 20
-21.42212049160628
 30
0.0
 10
44.70786538595844
 20
-21.42212049160628
 30
0.0
 10
43.85279268651944
 20
-23.14949136791055
 30
0.0
 10
43.85279268651944
 20
-23.14949136791055
 30
0.0
 10
43.85279268651944
 20
-23.14949136791055
 30
0.0
 10
45.44459905547912
 20
-23.14949136791055
 30
0.0
 10
45.44459905547912
 20
-23.14949136791055
 30
0.0
 10
45.44459905547912
 20
-23.14949136791055
 30
0.0
 10
44.70786538595844
 20
-21.42212049160628
 30
0.0
 10
44.70786538595844
 20
-21.42212049160628
 30
0.0
  0
SPLINE
  5
95
330
70
100
AcDbEntity
  8
Layer 1
100
AcDbSpline
210
0.0
220
0.0
230
1.0
 70
     9
 71
     3
 72
    68
 73
    64
 74
     0
 42
0.0000000001
 43
0.0000000001
 40
0.0
 40
0.0
 40
0.0
 40
0.0
 40
1.0
 40
1.0
 40
1.0
 40
2.0
 40
2.0
 40
2.0
 40
3.0
 40
3.0
 40
3.0
 40
4.0
 40
4.0
 40
4.0
 40
5.0
 40
5.0
 40
5.0
 40
6.0
 40
6.0
 40
6.0
 40
7.0
 40
7.0
 40
7.0
 40
8.0
 40
8.0
 40
8.0
 40
9.0
 40
9.0
 40
9.0
 40
10.0
 40
10.0
 40
10.0
 40
11.0
 40
11.0
 40
11.0
 40
12.0
 40
12.0
 40
12.0
 40
13.0
 40
13.0
 40
13.0
 40
14.0
 40
14.0
 40
14.0
 40
15.0
 40
15.0
 40
15.0
 40
16.0
 40
16.0
 40
16.0
 40
17.0
 40
17.0
 40
17.0
 40
18.0
 40
18.0
 40
18.0
 40
19.0
 40
19.0
 40
19.0
 40
20.0
 40
20.0
 40
20.0
 40
21.0
 40
21.0
 40
21.0
 40
21.0
 10
47.94246553705952
 20
-26.30778265401334
 30
0.0
 10
47.69700248373547
 20
-26.28246120219675
 30
0.0
 10
47.48530136616687
 20
-26.29090168613561
 30
0.0
 10
47.17196993178339
 20
-26.29090168613561
 30
0.0
 10
46.88413220399077
 20
-26.29090168613561
 30
0.0
 10
46.55391980172957
 20
-26.29090168613561
 30
0.0
 10
46.28296304181467
 20
-26.30778265401334
 30
0.0
 10
46.28296304181467
 20
-26.30778265401334
 30
0.0
 10
46.25746933522383
 20
-26.22320555985045
 30
0.0
 10
46.25746933522383
 20
-26.22320555985045
 30
0.0
 10
46.40991481044613
 20
-26.15533717879103
 30
0.0
 10
46.52842609513872
 20
-26.00306395834298
 30
0.0
 10
46.52842609513872
 20
-25.86749945099841
 30
0.0
 10
46.52842609513872
 20
-25.7150539757761
 30
0.0
 10
46.48605142067015
 20
-25.55416801661493
 30
0.0
 10
46.37598061991642
 20
-25.30026447935202
 30
0.0
 10
46.37598061991642
 20
-25.30026447935202
 30
0.0
 10
45.61392549857916
 20
-23.53051892857918
 30
0.0
 10
45.61392549857916
 20
-23.53051892857918
 30
0.0
 10
45.61392549857916
 20
-23.53051892857918
 30
0.0
 10
43.66641302076742
 20
-23.53051892857918
 30
0.0
 10
43.66641302076742
 20
-23.53051892857918
 30
0.0
 10
43.66641302076742
 20
-23.53051892857918
 30
0.0
 10
42.85354274102273
 20
-25.19019367859829
 30
0.0
 10
42.85354274102273
 20
-25.19019367859829
 30
0.0
 10
42.72659097239126
 20
-25.45253769980006
 30
0.0
 10
42.67577581398383
 20
-25.62186414290009
 30
0.0
 10
42.67577581398383
 20
-25.79980332471325
 30
0.0
 10
42.67577581398383
 20
-26.02838541015958
 30
0.0
 10
42.78584661473757
 20
-26.1045220203836
 30
0.0
 10
43.00598821624503
 20
-26.22320555985045
 30
0.0
 10
43.00598821624503
 20
-26.22320555985045
 30
0.0
 10
42.98066676442845
 20
-26.30778265401334
 30
0.0
 10
42.98066676442845
 20
-26.30778265401334
 30
0.0
 10
42.69265678186155
 20
-26.29934217007447
 30
0.0
 10
42.45563421247637
 20
-26.29090168613561
 30
0.0
 10
42.16779648468374
 20
-26.29090168613561
 30
0.0
 10
41.91372069264657
 20
-26.29090168613561
 30
0.0
 10
41.76971570136312
 20
-26.29090168613561
 30
0.0
 10
41.52425264803908
 20
-26.30778265401334
 30
0.0
 10
41.52425264803908
 20
-26.30778265401334
 30
0.0
 10
41.50719942538709
 20
-26.20615233719846
 30
0.0
 10
41.50719942538709
 20
-26.20615233719846
 30
0.0
 10
41.80364989189284
 20
-26.1045220203836
 30
0.0
 10
42.01535100946144
 20
-25.90987412546698
 30
0.0
 10
42.2354926109689
 20
-25.46959092245205
 30
0.0
 10
42.2354926109689
 20
-25.46959092245205
 30
0.0
 10
44.48772378445098
 20
-20.99027777253021
 30
0.0
 10
44.48772378445098
 20
-20.99027777253021
 30
0.0
 10
44.66566296626414
 20
-20.63457166367816
 30
0.0
 10
44.74179957648816
 20
-20.4144300621707
 30
0.0
 10
44.74179957648816
 20
-20.21134168331522
 30
0.0
 10
44.74179957648816
 20
-20.21134168331522
 30
0.0
 10
44.8858045677716
 20
-20.21134168331522
 30
0.0
 10
44.8858045677716
 20
-20.21134168331522
 30
0.0
 10
44.8858045677716
 20
-20.21134168331522
 30
0.0
 10
47.24810654200742
 20
-25.52040608085949
 30
0.0
 10
47.24810654200742
 20
-25.52040608085949
 30
0.0
 10
47.40899250116859
 20
-25.88438041887613
 30
0.0
 10
47.61225313479832
 20
-26.1045220203836
 30
0.0
 10
47.95934650493725
 20
-26.22320555985045
 30
0.0
 10
47.95934650493725
 20
-26.22320555985045
 30
0.0
 10
47.94246553705952
 20
-26.30778265401334
 30
0.0
 10
47.94246553705952
 20
-26.30778265401334
 30
0.0
  0
HATCH
  5
96
330
70
100
AcDbEntity
  8
Layer 1
 62
   250
440
 33554687
100
AcDbHatch
 10
0.0
 20
0.0
 30
0.0
210
0.0
220
0.0
230
1.0
  2
SOLID
 70
     1
 71
     1
 91
        2
 92
        1
 93
        1
 72
     4
 94
        3
 73
     0
 74
     0
 95
       14
 96
       10
 40
0.0
 40
0.0
 40
0.0
 40
0.0
 40
1.0
 40
1.0
 40
1.0
 40
2.0
 40
2.0
 40
2.0
 40
3.0
 40
3.0
 40
3.0
 40
3.0
 10
44.70786538595844
 20
-21.42212049160628
 10
44.70786538595844
 20
-21.42212049160628
 10
43.85279268651944
 20
-23.14949136791055
 10
43.85279268651944
 20
-23.14949136791055
 10
43.85279268651944
 20
-23.14949136791055
 10
45.44459905547912
 20
-23.14949136791055
 10
45.44459905547912
 20
-23.14949136791055
 10
45.44459905547912
 20
-23.14949136791055
 10
44.70786538595844
 20
-21.42212049160628
 10
44.70786538595844
 20
-21.42212049160628
 97
        0
 97
        1
330
94
 92
        1
 93
        1
 72
     4
 94
        3
 73
     0
 74
     0
 95
       68
 96
       64
 40
0.0
 40
0.0
 40
0.0
 40
0.0
 40
1.0
 40
1.0
 40
1.0
 40
2.0
 40
2.0
 40
2.0
 40
3.0
 40
3.0
 40
3.0
 40
4.0
 40
4.0
 40
4.0
 40
5.0
 40
5.0
 40
5.0
 40
6.0
 40
6.0
 40
6.0
 40
7.0
 40
7.0
 40
7.0
 40
8.0
 40
8.0
 40
8.0
 40
9.0
 40
9.0
 40
9.0
 40
10.0
 40
10.0
 40
10.0
 40
11.0
 40
11.0
 40
11.0
 40
12.0
 40
12.0
 40
12.0
 40
13.0
 40
13.0
 40
13.0
 40
14.0
 40
14.0
 40
14.0
 40
15.0
 40
15.0
 40
15.0
 40
16.0
 40
16.0
 40
16.0
 40
17.0
 40
17.0
 40
17.0
 40
18.0
 40
18.0
 40
18.0
 40
19.0
 40
19.0
 40
19.0
 40
20.0
 40
20.0
 40
20.0
 40
21.0
 40
21.0
 40
21.0
 40
21.0
 10
47.94246553705952
 20
-26.30778265401334
 10
47.69700248373547
 20
-26.28246120219675
 10
47.48530136616687
 20
-26.29090168613561
 10
47.17196993178339
 20
-26.29090168613561
 10
46.88413220399077
 20
-26.29090168613561
 10
46.55391980172957
 20
-26.29090168613561
 10
46.28296304181467
 20
-26.30778265401334
 10
46.28296304181467
 20
-26.30778265401334
 10
46.25746933522383
 20
-26.22320555985045
 10
46.25746933522383
 20
-26.22320555985045
 10
46.40991481044613
 20
-26.15533717879103
 10
46.52842609513872
 20
-26.00306395834298
 10
46.52842609513872
 20
-25.86749945099841
 10
46.52842609513872
 20
-25.7150539757761
 10
46.48605142067015
 20
-25.55416801661493
 10
46.37598061991642
 20
-25.30026447935202
 10
46.37598061991642
 20
-25.30026447935202
 10
45.61392549857916
 20
-23.53051892857918
 10
45.61392549857916
 20
-23.53051892857918
 10
45.61392549857916
 20
-23.53051892857918
 10
43.66641302076742
 20
-23.53051892857918
 10
43.66641302076742
 20
-23.53051892857918
 10
43.66641302076742
 20
-23.53051892857918
 10
42.85354274102273
 20
-25.19019367859829
 10
42.85354274102273
 20
-25.19019367859829
 10
42.72659097239126
 20
-25.45253769980006
 10
42.67577581398383
 20
-25.62186414290009
 10
42.67577581398383
 20
-25.79980332471325
 10
42.67577581398383
 20
-26.02838541015958
 10
42.78584661473757
 20
-26.1045220203836
 10
43.00598821624503
 20
-26.22320555985045
 10
43.00598821624503
 20
-26.22320555985045
 10
42.98066676442845
 20
-26.30778265401334
 10
42.98066676442845
 20
-26.30778265401334
 10
42.69265678186155
 20
-26.29934217007447
 10
42.45563421247637
 20
-26.29090168613561
 10
42.16779648468374
 20
-26.29090168613561
 10
41.91372069264657
 20
-26.29090168613561
 10
41.76971570136312
 20
-26.29090168613561
 10
41.52425264803908
 20
-26.30778265401334
 10
41.52425264803908
 20
-26.30778265401334
 10
41.50719942538709
 20
-26.20615233719846
 10
41.50719942538709
 20
-26.20615233719846
 10
41.80364989189284
 20
-26.1045220203836
 10
42.01535100946144
 20
-25.90987412546698
 10
42.2354926109689
 20
-25.46959092245205
 10
42.2354926109689
 20
-25.46959092245205
 10
44.48772378445098
 20
-20.99027777253021
 10
44.48772378445098
 20
-20.99027777253021
 10
44.66566296626414
 20
-20.63457166367816
 10
44.74179957648816
 20
-20.4144300621707
 10
44.74179957648816
 20
-20.21134168331522
 10
44.74179957648816
 20
-20.21134168331522
 10
44.8858045677716
 20
-20.21134168331522
 10
44.8858045677716
 20
-20.21134168331522
 10
44.8858045677716
 20
-20.21134168331522
 10
47.24810654200742
 20
-25.52040608085949
 10
47.24810654200742
 20
-25.52040608085949
 10
47.40899250116859
 20
-25.88438041887613
 10
47.61225313479832
 20
-26.1045220203836
 10
47.95934650493725
 20
-26.22320555985045
 10
47.95934650493725
 20
-26.22320555985045
 10
47.94246553705952
 20
-26.30778265401334
 10
47.94246553705952
 20
-26.30778265401334
 97
        0
 97
        1
330
95
 75
     2
 76
     1
 98
        1
 10
0.0
 20
0.0
450
        0
451
        0
460
0.0
461
0.0
452
        0
462
0.0
453
        0
470

  0
SPLINE
  5
97
330
70
100
AcDbEntity
  8
Layer 1
100
AcDbSpline
210
0.0
220
0.0
230
1.0
 70
     9
 71
     3
 72
    20
 73
    16
 74
     0
 42
0.0000000001
 43
0.0000000001
 40
0.0
 40
0.0
 40
0.0
 40
0.0
 40
1.0
 40
1.0
 40
1.0
 40
2.0
 40
2.0
 40
2.0
 40
3.0
 40
3.0
 40
3.0
 40
4.0
 40
4.0
 40
4.0
 40
5.0
 40
5.0
 40
5.0
 40
5.0
 10
51.04942490043209
 20
-20.75325520314502
 30
0.0
 10
50.50751138060229
 20
-20.75325520314502
 30
0.0
 10
50.11787108122053
 20
-20.76169568708388
 30
0.0
 10
49.62677271979817
 20
-20.77013617102275
 30
0.0
 10
49.62677271979817
 20
-20.77013617102275
 30
0.0
 10
49.62677271979817
 20
-22.92090928246422
 30
0.0
 10
49.62677271979817
 20
-22.92090928246422
 30
0.0
 10
50.03329398705766
 20
-22.92090928246422
 30
0.0
 10
50.41432154772628
 20
-22.92934976640308
 30
0.0
 10
50.83755152808922
 20
-22.92934976640308
 30
0.0
 10
51.66747503048591
 20
-22.92934976640308
 30
0.0
 10
52.36166177076375
 20
-22.57364365755103
 30
0.0
 10
52.36166177076375
 20
-21.79470756833605
 30
0.0
 10
52.36166177076375
 20
-21.07502712146736
 30
0.0
 10
51.93860404517508
 20
-20.75325520314502
 30
0.0
 10
51.04942490043209
 20
-20.75325520314502
 30
0.0
  0
SPLINE
  5
98
330
70
100
AcDbEntity
  8
Layer 1
100
AcDbSpline
210
0.0
220
0.0
230
1.0
 70
     9
 71
     3
 72
    65
 73
    61
 74
     0
 42
0.0000000001
 43
0.0000000001
 40
0.0
 40
0.0
 40
0.0
 40
0.0
 40
1.0
 40
1.0
 40
1.0
 40
2.0
 40
2.0
 40
2.0
 40
3.0
 40
3.0
 40
3.0
 40
4.0
 40
4.0
 40
4.0
 40
5.0
 40
5.0
 40
5.0
 40
6.0
 40
6.0
 40
6.0
 40
7.0
 40
7.0
 40
7.0
 40
8.0
 40
8.0
 40
8.0
 40
9.0
 40
9.0
 40
9.0
 40
10.0
 40
10.0
 40
10.0
 40
11.0
 40
11.0
 40
11.0
 40
12.0
 40
12.0
 40
12.0
 40
13.0
 40
13.0
 40
13.0
 40
14.0
 40
14.0
 40
14.0
 40
15.0
 40
15.0
 40
15.0
 40
16.0
 40
16.0
 40
16.0
 40
17.0
 40
17.0
 40
17.0
 40
18.0
 40
18.0
 40
18.0
 40
19.0
 40
19.0
 40
19.0
 40
20.0
 40
20.0
 40
20.0
 40
20.0
 10
54.14002006024972
 20
-26.35859781242077
 30
0.0
 10
52.80194497377868
 20
-26.35859781242077
 30
0.0
 10
51.66747503048591
 20
-25.46115043851319
 30
0.0
 10
50.53300508719313
 20
-23.31037732707171
 30
0.0
 10
50.16868623962796
 20
-23.31037732707171
 30
0.0
 10
49.90634221842619
 20
-23.31037732707171
 30
0.0
 10
49.62677271979817
 20
-23.31037732707171
 30
0.0
 10
49.62677271979817
 20
-23.31037732707171
 30
0.0
 10
49.62677271979817
 20
-25.61342365896123
 30
0.0
 10
49.62677271979817
 20
-25.61342365896123
 30
0.0
 10
49.62677271979817
 20
-25.96068928387441
 30
0.0
 10
49.72840303661303
 20
-26.1045220203836
 30
0.0
 10
49.99091931258908
 20
-26.21459282113733
 30
0.0
 10
49.99091931258908
 20
-26.21459282113733
 30
0.0
 10
49.9485446381205
 20
-26.30778265401334
 30
0.0
 10
49.9485446381205
 20
-26.30778265401334
 30
0.0
 10
49.6775878782056
 20
-26.28246120219675
 30
0.0
 10
49.54219562563529
 20
-26.29090168613561
 30
0.0
 10
49.30500080147584
 20
-26.29090168613561
 30
0.0
 10
49.06797823209064
 20
-26.29090168613561
 30
0.0
 10
48.9239732408072
 20
-26.29090168613561
 30
0.0
 10
48.67851018748315
 20
-26.30778265401334
 30
0.0
 10
48.67851018748315
 20
-26.30778265401334
 30
0.0
 10
48.64457599695344
 20
-26.23164604378931
 30
0.0
 10
48.64457599695344
 20
-26.23164604378931
 30
0.0
 10
48.84783663058318
 20
-26.13845621091331
 30
0.0
 10
48.93258597952033
 20
-25.96068928387441
 30
0.0
 10
48.93258597952033
 20
-25.68129204002065
 30
0.0
 10
48.93258597952033
 20
-25.68129204002065
 30
0.0
 10
48.93258597952033
 20
-20.97339680465248
 30
0.0
 10
48.93258597952033
 20
-20.97339680465248
 30
0.0
 10
48.93258597952033
 20
-20.78701713890047
 30
0.0
 10
48.86471759846091
 20
-20.566875537393
 30
0.0
 10
48.62769502907571
 20
-20.43992376876155
 30
0.0
 10
48.62769502907571
 20
-20.43992376876155
 30
0.0
 10
48.6530164808923
 20
-20.36361490376326
 30
0.0
 10
48.6530164808923
 20
-20.36361490376326
 30
0.0
 10
49.07641871602951
 20
-20.38066812641525
 30
0.0
 10
49.39819063435184
 20
-20.38066812641525
 30
0.0
 10
49.82159286948904
 20
-20.38066812641525
 30
0.0
 10
50.27031655644284
 20
-20.38066812641525
 30
0.0
 10
50.77829588574292
 20
-20.37222764247639
 30
0.0
 10
51.21857908875785
 20
-20.37222764247639
 30
0.0
 10
52.25176322478429
 20
-20.37222764247639
 30
0.0
 10
53.10683592422329
 20
-20.80407036155246
 30
0.0
 10
53.10683592422329
 20
-21.73545192598975
 30
0.0
 10
53.10683592422329
 20
-22.63289929989733
 30
0.0
 10
52.36166177076375
 20
-23.11555717738083
 30
0.0
 10
51.39669052534527
 20
-23.25956216866428
 30
0.0
 10
52.21800128902883
 20
-25.1138848136
 30
0.0
 10
53.30182832868843
 20
-26.18927136932074
 30
0.0
 10
54.37704262963491
 20
-26.18927136932074
 30
0.0
 10
54.56342229538692
 20
-26.18927136932074
 30
0.0
 10
54.68193358007951
 20
-26.17239040144302
 30
0.0
 10
54.81732583264983
 20
-26.11313475909672
 30
0.0
 10
54.81732583264983
 20
-26.11313475909672
 30
0.0
 10
54.86831324583153
 20
-26.20615233719846
 30
0.0
 10
54.86831324583153
 20
-26.20615233719846
 30
0.0
 10
54.6650526122018
 20
-26.30778265401334
 30
0.0
 10
54.4872856851629
 20
-26.35859781242077
 30
0.0
 10
54.14002006024972
 20
-26.35859781242077
 30
0.0
  0
HATCH
  5
99
330
70
100
AcDbEntity
  8
Layer 1
 62
   250
440
 33554687
100
AcDbHatch
 10
0.0
 20
0.0
 30
0.0
210
0.0
220
0.0
230
1.0
  2
SOLID
 70
     1
 71
     1
 91
        2
 92
        1
 93
        1
 72
     4
 94
        3
 73
     0
 74
     0
 95
       20
 96
       16
 40
0.0
 40
0.0
 40
0.0
 40
0.0
 40
1.0
 40
1.0
 40
1.0
 40
2.0
 40
2.0
 40
2.0
 40
3.0
 40
3.0
 40
3.0
 40
4.0
 40
4.0
 40
4.0
 40
5.0
 40
5.0
 40
5.0
 40
5.0
 10
51.04942490043209
 20
-20.75325520314502
 10
50.50751138060229
 20
-20.75325520314502
 10
50.11787108122053
 20
-20.76169568708388
 10
49.62677271979817
 20
-20.77013617102275
 10
49.62677271979817
 20
-20.77013617102275
 10
49.62677271979817
 20
-22.92090928246422
 10
49.62677271979817
 20
-22.92090928246422
 10
50.03329398705766
 20
-22.92090928246422
 10
50.41432154772628
 20
-22.92934976640308
 10
50.83755152808922
 20
-22.92934976640308
 10
51.66747503048591
 20
-22.92934976640308
 10
52.36166177076375
 20
-22.57364365755103
 10
52.36166177076375
 20
-21.79470756833605
 10
52.36166177076375
 20
-21.07502712146736
 10
51.93860404517508
 20
-20.75325520314502
 10
51.04942490043209
 20
-20.75325520314502
 97
        0
 97
        1
330
97
 92
        1
 93
        1
 72
     4
 94
        3
 73
     0
 74
     0
 95
       65
 96
       61
 40
0.0
 40
0.0
 40
0.0
 40
0.0
 40
1.0
 40
1.0
 40
1.0
 40
2.0
 40
2.0
 40
2.0
 40
3.0
 40
3.0
 40
3.0
 40
4.0
 40
4.0
 40
4.0
 40
5.0
 40
5.0
 40
5.0
 40
6.0
 40
6.0
 40
6.0
 40
7.0
 40
7.0
 40
7.0
 40
8.0
 40
8.0
 40
8.0
 40
9.0
 40
9.0
 40
9.0
 40
10.0
 40
10.0
 40
10.0
 40
11.0
 40
11.0
 40
11.0
 40
12.0
 40
12.0
 40
12.0
 40
13.0
 40
13.0
 40
13.0
 40
14.0
 40
14.0
 40
14.0
 40
15.0
 40
15.0
 40
15.0
 40
16.0
 40
16.0
 40
16.0
 40
17.0
 40
17.0
 40
17.0
 40
18.0
 40
18.0
 40
18.0
 40
19.0
 40
19.0
 40
19.0
 40
20.0
 40
20.0
 40
20.0
 40
20.0
 10
54.14002006024972
 20
-26.35859781242077
 10
52.80194497377868
 20
-26.35859781242077
 10
51.66747503048591
 20
-25.46115043851319
 10
50.53300508719313
 20
-23.31037732707171
 10
50.16868623962796
 20
-23.31037732707171
 10
49.90634221842619
 20
-23.31037732707171
 10
49.62677271979817
 20
-23.31037732707171
 10
49.62677271979817
 20
-23.31037732707171
 10
49.62677271979817
 20
-25.61342365896123
 10
49.62677271979817
 20
-25.61342365896123
 10
49.62677271979817
 20
-25.96068928387441
 10
49.72840303661303
 20
-26.1045220203836
 10
49.99091931258908
 20
-26.21459282113733
 10
49.99091931258908
 20
-26.21459282113733
 10
49.9485446381205
 20
-26.30778265401334
 10
49.9485446381205
 20
-26.30778265401334
 10
49.6775878782056
 20
-26.28246120219675
 10
49.54219562563529
 20
-26.29090168613561
 10
49.30500080147584
 20
-26.29090168613561
 10
49.06797823209064
 20
-26.29090168613561
 10
48.9239732408072
 20
-26.29090168613561
 10
48.67851018748315
 20
-26.30778265401334
 10
48.67851018748315
 20
-26.30778265401334
 10
48.64457599695344
 20
-26.23164604378931
 10
48.64457599695344
 20
-26.23164604378931
 10
48.84783663058318
 20
-26.13845621091331
 10
48.93258597952033
 20
-25.96068928387441
 10
48.93258597952033
 20
-25.68129204002065
 10
48.93258597952033
 20
-25.68129204002065
 10
48.93258597952033
 20
-20.97339680465248
 10
48.93258597952033
 20
-20.97339680465248
 10
48.93258597952033
 20
-20.78701713890047
 10
48.86471759846091
 20
-20.566875537393
 10
48.62769502907571
 20
-20.43992376876155
 10
48.62769502907571
 20
-20.43992376876155
 10
48.6530164808923
 20
-20.36361490376326
 10
48.6530164808923
 20
-20.36361490376326
 10
49.07641871602951
 20
-20.38066812641525
 10
49.39819063435184
 20
-20.38066812641525
 10
49.82159286948904
 20
-20.38066812641525
 10
50.27031655644284
 20
-20.38066812641525
 10
50.77829588574292
 20
-20.37222764247639
 10
51.21857908875785
 20
-20.37222764247639
 10
52.25176322478429
 20
-20.37222764247639
 10
53.10683592422329
 20
-20.80407036155246
 10
53.10683592422329
 20
-21.73545192598975
 10
53.10683592422329
 20
-22.63289929989733
 10
52.36166177076375
 20
-23.11555717738083
 10
51.39669052534527
 20
-23.25956216866428
 10
52.21800128902883
 20
-25.1138848136
 10
53.30182832868843
 20
-26.18927136932074
 10
54.37704262963491
 20
-26.18927136932074
 10
54.56342229538692
 20
-26.18927136932074
 10
54.68193358007951
 20
-26.17239040144302
 10
54.81732583264983
 20
-26.11313475909672
 10
54.81732583264983
 20
-26.11313475909672
 10
54.86831324583153
 20
-26.20615233719846
 10
54.86831324583153
 20
-26.20615233719846
 10
54.6650526122018
 20
-26.30778265401334
 10
54.4872856851629
 20
-26.35859781242077
 10
54.14002006024972
 20
-26.35859781242077
 97
        0
 97
        1
330
98
 75
     2
 76
     1
 98
        1
 10
0.0
 20
0.0
450
        0
451
        0
460
0.0
461
0.0
452
        0
462
0.0
453
        0
470

  0
SPLINE
  5
9A
330
70
100
AcDbEntity
  8
Layer 1
100
AcDbSpline
210
0.0
220
0.0
230
1.0
 70
     9
 71
     3
 72
    47
 73
    43
 74
     0
 42
0.0000000001
 43
0.0000000001
 40
0.0
 40
0.0
 40
0.0
 40
0.0
 40
1.0
 40
1.0
 40
1.0
 40
2.0
 40
2.0
 40
2.0
 40
3.0
 40
3.0
 40
3.0
 40
4.0
 40
4.0
 40
4.0
 40
5.0
 40
5.0
 40
5.0
 40
6.0
 40
6.0
 40
6.0
 40
7.0
 40
7.0
 40
7.0
 40
8.0
 40
8.0
 40
8.0
 40
9.0
 40
9.0
 40
9.0
 40
10.0
 40
10.0
 40
10.0
 40
11.0
 40
11.0
 40
11.0
 40
12.0
 40
12.0
 40
12.0
 40
13.0
 40
13.0
 40
13.0
 40
14.0
 40
14.0
 40
14.0
 40
14.0
 10
56.55227591902165
 20
-26.30778265401334
 30
0.0
 10
56.34074705622731
 20
-26.29090168613561
 30
0.0
 10
56.095111748129
 20
-26.29090168613561
 30
0.0
 10
55.88358288533466
 20
-26.29090168613561
 30
0.0
 10
55.63794757723634
 20
-26.29090168613561
 30
0.0
 10
55.40092500785116
 20
-26.29090168613561
 30
0.0
 10
55.18078340634369
 20
-26.30778265401334
 30
0.0
 10
55.18078340634369
 20
-26.30778265401334
 30
0.0
 10
55.16390243846597
 20
-26.22320555985045
 30
0.0
 10
55.16390243846597
 20
-26.22320555985045
 30
0.0
 10
55.40919323701576
 20
-26.11313475909672
 30
0.0
 10
55.52770452170835
 20
-25.99445121962986
 30
0.0
 10
55.52770452170835
 20
-25.69817300789838
 30
0.0
 10
55.52770452170835
 20
-25.69817300789838
 30
0.0
 10
55.52770452170835
 20
-21.00715874040794
 30
0.0
 10
55.52770452170835
 20
-21.00715874040794
 30
0.0
 10
55.52770452170835
 20
-20.67694633814674
 30
0.0
 10
55.426418714442
 20
-20.53311360163756
 30
0.0
 10
55.20627711293454
 20
-20.44836425270041
 30
0.0
 10
55.20627711293454
 20
-20.44836425270041
 30
0.0
 10
55.24003904868999
 20
-20.36361490376326
 30
0.0
 10
55.24003904868999
 20
-20.36361490376326
 30
0.0
 10
55.45156791148433
 20
-20.38066812641525
 30
0.0
 10
55.65482854511407
 20
-20.38066812641525
 30
0.0
 10
55.86670191745693
 20
-20.38066812641525
 30
0.0
 10
56.07823078025127
 20
-20.38066812641525
 30
0.0
 10
56.34074705622731
 20
-20.38066812641525
 30
0.0
 10
56.53539495114393
 20
-20.36361490376326
 30
0.0
 10
56.53539495114393
 20
-20.36361490376326
 30
0.0
 10
56.5695013964479
 20
-20.43992376876155
 30
0.0
 10
56.5695013964479
 20
-20.43992376876155
 30
0.0
 10
56.35762802410503
 20
-20.52450086292443
 30
0.0
 10
56.22223577153472
 20
-20.67694633814674
 30
0.0
 10
56.22223577153472
 20
-20.94790309806164
 30
0.0
 10
56.22223577153472
 20
-20.94790309806164
 30
0.0
 10
56.22223577153472
 20
-25.68973252395951
 30
0.0
 10
56.22223577153472
 20
-25.68973252395951
 30
0.0
 10
56.22223577153472
 20
-25.986010735691
 30
0.0
 10
56.34935979494044
 20
-26.11313475909672
 30
0.0
 10
56.5777696256125
 20
-26.22320555985045
 30
0.0
 10
56.5777696256125
 20
-26.22320555985045
 30
0.0
 10
56.55227591902165
 20
-26.30778265401334
 30
0.0
 10
56.55227591902165
 20
-26.30778265401334
 30
0.0
  0
HATCH
  5
9B
330
70
100
AcDbEntity
  8
Layer 1
 62
   250
440
 33554687
100
AcDbHatch
 10
0.0
 20
0.0
 30
0.0
210
0.0
220
0.0
230
1.0
  2
SOLID
 70
     1
 71
     1
 91
        1
 92
        1
 93
        1
 72
     4
 94
        3
 73
     0
 74
     0
 95
       47
 96
       43
 40
0.0
 40
0.0
 40
0.0
 40
0.0
 40
1.0
 40
1.0
 40
1.0
 40
2.0
 40
2.0
 40
2.0
 40
3.0
 40
3.0
 40
3.0
 40
4.0
 40
4.0
 40
4.0
 40
5.0
 40
5.0
 40
5.0
 40
6.0
 40
6.0
 40
6.0
 40
7.0
 40
7.0
 40
7.0
 40
8.0
 40
8.0
 40
8.0
 40
9.0
 40
9.0
 40
9.0
 40
10.0
 40
10.0
 40
10.0
 40
11.0
 40
11.0
 40
11.0
 40
12.0
 40
12.0
 40
12.0
 40
13.0
 40
13.0
 40
13.0
 40
14.0
 40
14.0
 40
14.0
 40
14.0
 10
56.55227591902165
 20
-26.30778265401334
 10
56.34074705622731
 20
-26.29090168613561
 10
56.095111748129
 20
-26.29090168613561
 10
55.88358288533466
 20
-26.29090168613561
 10
55.63794757723634
 20
-26.29090168613561
 10
55.40092500785116
 20
-26.29090168613561
 10
55.18078340634369
 20
-26.30778265401334
 10
55.18078340634369
 20
-26.30778265401334
 10
55.16390243846597
 20
-26.22320555985045
 10
55.16390243846597
 20
-26.22320555985045
 10
55.40919323701576
 20
-26.11313475909672
 10
55.52770452170835
 20
-25.99445121962986
 10
55.52770452170835
 20
-25.69817300789838
 10
55.52770452170835
 20
-25.69817300789838
 10
55.52770452170835
 20
-21.00715874040794
 10
55.52770452170835
 20
-21.00715874040794
 10
55.52770452170835
 20
-20.67694633814674
 10
55.426418714442
 20
-20.53311360163756
 10
55.20627711293454
 20
-20.44836425270041
 10
55.20627711293454
 20
-20.44836425270041
 10
55.24003904868999
 20
-20.36361490376326
 10
55.24003904868999
 20
-20.36361490376326
 10
55.45156791148433
 20
-20.38066812641525
 10
55.65482854511407
 20
-20.38066812641525
 10
55.86670191745693
 20
-20.38066812641525
 10
56.07823078025127
 20
-20.38066812641525
 10
56.34074705622731
 20
-20.38066812641525
 10
56.53539495114393
 20
-20.36361490376326
 10
56.53539495114393
 20
-20.36361490376326
 10
56.5695013964479
 20
-20.43992376876155
 10
56.5695013964479
 20
-20.43992376876155
 10
56.35762802410503
 20
-20.52450086292443
 10
56.22223577153472
 20
-20.67694633814674
 10
56.22223577153472
 20
-20.94790309806164
 10
56.22223577153472
 20
-20.94790309806164
 10
56.22223577153472
 20
-25.68973252395951
 10
56.22223577153472
 20
-25.68973252395951
 10
56.22223577153472
 20
-25.986010735691
 10
56.34935979494044
 20
-26.11313475909672
 10
56.5777696256125
 20
-26.22320555985045
 10
56.5777696256125
 20
-26.22320555985045
 10
56.55227591902165
 20
-26.30778265401334
 10
56.55227591902165
 20
-26.30778265401334
 97
        0
 97
        1
330
9A
 75
     2
 76
     1
 98
        1
 10
0.0
 20
0.0
450
        0
451
        0
460
0.0
461
0.0
452
        0
462
0.0
453
        0
470

  0
SPLINE
  5
9C
330
70
100
AcDbEntity
  8
Layer 1
100
AcDbSpline
210
0.0
220
0.0
230
1.0
 70
     9
 71
     3
 72
    53
 73
    49
 74
     0
 42
0.0000000001
 43
0.0000000001
 40
0.0
 40
0.0
 40
0.0
 40
0.0
 40
1.0
 40
1.0
 40
1.0
 40
2.0
 40
2.0
 40
2.0
 40
3.0
 40
3.0
 40
3.0
 40
4.0
 40
4.0
 40
4.0
 40
5.0
 40
5.0
 40
5.0
 40
6.0
 40
6.0
 40
6.0
 40
7.0
 40
7.0
 40
7.0
 40
8.0
 40
8.0
 40
8.0
 40
9.0
 40
9.0
 40
9.0
 40
10.0
 40
10.0
 40
10.0
 40
11.0
 40
11.0
 40
11.0
 40
12.0
 40
12.0
 40
12.0
 40
13.0
 40
13.0
 40
13.0
 40
14.0
 40
14.0
 40
14.0
 40
15.0
 40
15.0
 40
15.0
 40
16.0
 40
16.0
 40
16.0
 40
16.0
 10
59.61737737224844
 20
-26.35015732848191
 30
0.0
 10
58.7454237049317
 20
-26.35015732848191
 30
0.0
 10
58.16113551063333
 20
-26.1977118532596
 30
0.0
 10
57.56823457762183
 20
-25.93519557728356
 30
0.0
 10
57.56823457762183
 20
-25.93519557728356
 30
0.0
 10
57.51759167398866
 20
-24.93611788656111
 30
0.0
 10
57.51759167398866
 20
-24.93611788656111
 30
0.0
 10
57.51759167398866
 20
-24.93611788656111
 30
0.0
 10
57.61922199080353
 20
-24.91062417997027
 30
0.0
 10
57.61922199080353
 20
-24.91062417997027
 30
0.0
 10
57.92411294124814
 20
-25.56260850055379
 30
0.0
 10
58.6861680625854
 20
-25.96912976781327
 30
0.0
 10
59.7107394598987
 20
-25.96912976781327
 30
0.0
 10
60.78595376084518
 20
-25.96912976781327
 30
0.0
 10
61.50563420771387
 20
-25.43565673192234
 30
0.0
 10
61.50563420771387
 20
-24.64828015876849
 30
0.0
 10
61.50563420771387
 20
-24.02161729000154
 30
0.0
 10
61.19247502810466
 20
-23.76754149796437
 30
0.0
 10
59.8885063869376
 20
-23.46282280229402
 30
0.0
 10
58.33890243767222
 20
-23.09867620950311
 30
0.0
 10
57.80560165655554
 20
-22.78534477511964
 30
0.0
 10
57.80560165655554
 20
-21.89633788515092
 30
0.0
 10
57.80560165655554
 20
-21.00715874040794
 30
0.0
 10
58.6861680625854
 20
-20.32985296800782
 30
0.0
 10
59.95603025844849
 20
-20.32985296800782
 30
0.0
 10
60.69293618274343
 20
-20.32985296800782
 30
0.0
 10
61.25173067045096
 20
-20.43148328482269
 30
0.0
 10
61.7681504836899
 20
-20.61769069580044
 30
0.0
 10
61.7681504836899
 20
-20.61769069580044
 30
0.0
 10
61.68340113475276
 20
-21.33737114266913
 30
0.0
 10
61.68340113475276
 20
-21.33737114266913
 30
0.0
 10
61.68340113475276
 20
-21.33737114266913
 30
0.0
 10
61.59038355665102
 20
-21.35442436532112
 30
0.0
 10
61.59038355665102
 20
-21.35442436532112
 30
0.0
 10
61.25999889961556
 20
-20.97339680465248
 30
0.0
 10
60.76907279296746
 20
-20.71088052867645
 30
0.0
 10
59.82063800587817
 20
-20.71088052867645
 30
0.0
 10
58.94007159984831
 20
-20.71088052867645
 30
0.0
 10
58.44914549320021
 20
-21.1680446995691
 30
0.0
 10
58.44914549320021
 20
-21.68463676758232
 30
0.0
 10
58.44914549320021
 20
-22.20966931953439
 30
0.0
 10
58.66928709470768
 20
-22.43825140498072
 30
0.0
 10
60.04077960738564
 20
-22.76002332330305
 30
0.0
 10
61.49736597854928
 20
-23.09867620950311
 30
0.0
 10
62.14917804435854
 20
-23.48814425411061
 30
0.0
 10
62.14917804435854
 20
-24.4195258185479
 30
0.0
 10
62.14917804435854
 20
-25.61342365896123
 30
0.0
 10
61.0315890689435
 20
-26.35015732848191
 30
0.0
 10
59.61737737224844
 20
-26.35015732848191
 30
0.0
  0
HATCH
  5
9D
330
70
100
AcDbEntity
  8
Layer 1
 62
   250
440
 33554687
100
AcDbHatch
 10
0.0
 20
0.0
 30
0.0
210
0.0
220
0.0
230
1.0
  2
SOLID
 70
     1
 71
     1
 91
        1
 92
        1
 93
        1
 72
     4
 94
        3
 73
     0
 74
     0
 95
       53
 96
       49
 40
0.0
 40
0.0
 40
0.0
 40
0.0
 40
1.0
 40
1.0
 40
1.0
 40
2.0
 40
2.0
 40
2.0
 40
3.0
 40
3.0
 40
3.0
 40
4.0
 40
4.0
 40
4.0
 40
5.0
 40
5.0
 40
5.0
 40
6.0
 40
6.0
 40
6.0
 40
7.0
 40
7.0
 40
7.0
 40
8.0
 40
8.0
 40
8.0
 40
9.0
 40
9.0
 40
9.0
 40
10.0
 40
10.0
 40
10.0
 40
11.0
 40
11.0
 40
11.0
 40
12.0
 40
12.0
 40
12.0
 40
13.0
 40
13.0
 40
13.0
 40
14.0
 40
14.0
 40
14.0
 40
15.0
 40
15.0
 40
15.0
 40
16.0
 40
16.0
 40
16.0
 40
16.0
 10
59.61737737224844
 20
-26.35015732848191
 10
58.7454237049317
 20
-26.35015732848191
 10
58.16113551063333
 20
-26.1977118532596
 10
57.56823457762183
 20
-25.93519557728356
 10
57.56823457762183
 20
-25.93519557728356
 10
57.51759167398866
 20
-24.93611788656111
 10
57.51759167398866
 20
-24.93611788656111
 10
57.51759167398866
 20
-24.93611788656111
 10
57.61922199080353
 20
-24.91062417997027
 10
57.61922199080353
 20
-24.91062417997027
 10
57.92411294124814
 20
-25.56260850055379
 10
58.6861680625854
 20
-25.96912976781327
 10
59.7107394598987
 20
-25.96912976781327
 10
60.78595376084518
 20
-25.96912976781327
 10
61.50563420771387
 20
-25.43565673192234
 10
61.50563420771387
 20
-24.64828015876849
 10
61.50563420771387
 20
-24.02161729000154
 10
61.19247502810466
 20
-23.76754149796437
 10
59.8885063869376
 20
-23.46282280229402
 10
58.33890243767222
 20
-23.09867620950311
 10
57.80560165655554
 20
-22.78534477511964
 10
57.80560165655554
 20
-21.89633788515092
 10
57.80560165655554
 20
-21.00715874040794
 10
58.6861680625854
 20
-20.32985296800782
 10
59.95603025844849
 20
-20.32985296800782
 10
60.69293618274343
 20
-20.32985296800782
 10
61.25173067045096
 20
-20.43148328482269
 10
61.7681504836899
 20
-20.61769069580044
 10
61.7681504836899
 20
-20.61769069580044
 10
61.68340113475276
 20
-21.33737114266913
 10
61.68340113475276
 20
-21.33737114266913
 10
61.68340113475276
 20
-21.33737114266913
 10
61.59038355665102
 20
-21.35442436532112
 10
61.59038355665102
 20
-21.35442436532112
 10
61.25999889961556
 20
-20.97339680465248
 10
60.76907279296746
 20
-20.71088052867645
 10
59.82063800587817
 20
-20.71088052867645
 10
58.94007159984831
 20
-20.71088052867645
 10
58.44914549320021
 20
-21.1680446995691
 10
58.44914549320021
 20
-21.68463676758232
 10
58.44914549320021
 20
-22.20966931953439
 10
58.66928709470768
 20
-22.43825140498072
 10
60.04077960738564
 20
-22.76002332330305
 10
61.49736597854928
 20
-23.09867620950311
 10
62.14917804435854
 20
-23.48814425411061
 10
62.14917804435854
 20
-24.4195258185479
 10
62.14917804435854
 20
-25.61342365896123
 10
61.0315890689435
 20
-26.35015732848191
 10
59.61737737224844
 20
-26.35015732848191
 97
        0
 97
        1
330
9C
 75
     2
 76
     1
 98
        1
 10
0.0
 20
0.0
450
        0
451
        0
460
0.0
461
0.0
452
        0
462
0.0
453
        0
470

  0
ENDSEC
  0
SECTION
  2
OBJECTS
  0
DICTIONARY
  5
C
330
0
100
AcDbDictionary
281
     1
  3
ACAD_COLOR
350
63
  3
ACAD_DETAILVIEWSTYLE
350
6A
  3
ACAD_GROUP
350
D
  3
ACAD_LAYOUT
350
62
  3
ACAD_MATERIAL
350
10
  3
ACAD_MLEADERSTYLE
350
66
  3
ACAD_MLINESTYLE
350
5F
  3
ACAD_PLOTSETTINGS
350
61
  3
ACAD_PLOTSTYLENAME
350
E
  3
ACAD_SCALELIST
350
42
  3
ACAD_SECTIONVIEWSTYLE
350
68
  3
ACAD_TABLESTYLE
350
64
  3
ACAD_VISUALSTYLE
350
29
  3
ACDB_RECOMPOSE_DATA
350
A6
  3
AcDbVariableDictionary
350
9E
  0
DICTIONARY
  5
63
102
{ACAD_REACTORS
330
C
102
}
330
C
100
AcDbDictionary
281
     1
  0
DICTIONARY
  5
6A
102
{ACAD_REACTORS
330
C
102
}
330
C
100
AcDbDictionary
281
     1
  3
Imperial24
350
6B
  0
DICTIONARY
  5
D
102
{ACAD_REACTORS
330
C
102
}
330
C
100
AcDbDictionary
281
     1
  0
DICTIONARY
  5
62
102
{ACAD_REACTORS
330
C
102
}
330
C
100
AcDbDictionary
281
     1
  3
Layout1
350
6F
  3
Layout2
350
77
  3
Model
350
73
  0
DICTIONARY
  5
10
102
{ACAD_REACTORS
330
C
102
}
330
C
100
AcDbDictionary
281
     1
  3
ByBlock
350
19
  3
ByLayer
350
11
  3
Global
350
21
  0
DICTIONARY
  5
66
102
{ACAD_REACTORS
330
C
102
}
330
C
100
AcDbDictionary
281
     1
  3
Standard
350
67
  0
DICTIONARY
  5
5F
102
{ACAD_REACTORS
330
C
102
}
330
C
100
AcDbDictionary
281
     1
  3
Standard
350
60
  0
DICTIONARY
  5
61
102
{ACAD_REACTORS
330
C
102
}
330
C
100
AcDbDictionary
281
     1
  0
ACDBDICTIONARYWDFLT
  5
E
102
{ACAD_REACTORS
330
C
102
}
330
C
100
AcDbDictionary
281
     1
  3
Normal
350
F
100
AcDbDictionaryWithDefault
340
F
  0
DICTIONARY
  5
42
102
{ACAD_REACTORS
330
C
102
}
330
C
100
AcDbDictionary
281
     1
  3
A0
350
43
  3
A1
350
44
  3
A2
350
45
  3
A3
350
46
  3
A4
350
47
  3
A5
350
48
  3
A6
350
49
  3
A7
350
4A
  3
A8
350
4B
  3
A9
350
4C
  3
B0
350
4D
  3
B1
350
4E
  3
B2
350
4F
  3
B3
350
50
  3
B4
350
51
  3
B5
350
52
  3
B6
350
53
  0
DICTIONARY
  5
68
102
{ACAD_REACTORS
330
C
102
}
330
C
100
AcDbDictionary
281
     1
  3
Imperial24
350
69
  0
DICTIONARY
  5
64
102
{ACAD_REACTORS
330
C
102
}
330
C
100
AcDbDictionary
281
     1
  3
Standard
350
65
  0
DICTIONARY
  5
29
102
{ACAD_REACTORS
330
C
102
}
330
C
100
AcDbDictionary
281
     1
  3
2dWireframe
350
2F
  3
Basic
350
2E
  3
Brighten
350
35
  3
ColorChange
350
39
  3
Conceptual
350
32
  3
Dim
350
34
  3
EdgeColorOff
350
41
  3
Facepattern
350
38
  3
Flat
350
2A
  3
FlatWithEdges
350
2B
  3
Gouraud
350
2C
  3
GouraudWithEdges
350
2D
  3
Hidden
350
31
  3
JitterOff
350
3F
  3
Linepattern
350
37
  3
OverhangOff
350
40
  3
Realistic
350
33
  3
Shaded
350
3E
  3
Shaded with edges
350
3D
  3
Shades of Gray
350
3A
  3
Sketchy
350
3B
  3
Thicken
350
36
  3
Wireframe
350
30
  3
X-Ray
350
3C
  0
XRECORD
  5
A6
102
{ACAD_REACTORS
330
C
102
}
330
C
100
AcDbXrecord
280
     1
 90
        1
330
65
  0
DICTIONARY
  5
9E
102
{ACAD_REACTORS
330
C
102
}
330
C
100
AcDbDictionary
281
     1
  3
CANNOSCALE
350
A3
  3
CMLEADERSTYLE
350
A0
  3
CTABLESTYLE
350
9F
  3
CVIEWDETAILSTYLE
350
A1
  3
CVIEWSECTIONSTYLE
350
A2
  0
ACDBDETAILVIEWSTYLE
  5
6B
102
{ACAD_XDICTIONARY
360
A9
102
}
102
{ACAD_REACTORS
330
6A
102
}
330
6A
100
AcDbModelDocViewStyle
 70
     0
  3
Imperial24
290
     0
100
AcDbDetailViewStyle
 70
     0
 71
     0
 90
        3
 71
     1
340
55
 62
   256
 40
0.24
340
0
 62
   256
 40
0.24
300

 40
0.36
280
     3
 71
     2
340
5D
 90
       25
 62
   256
 71
     3
340
55
 62
   256
 40
0.24
 90
        1
 40
0.75
 90
        1
300
%<\AcVar ViewType \f "%tc1">% %<\AcVar ViewDetailId>%\PSCALE %<\AcVar ViewScale \f "%sn">%
 71
     4
340
5D
 90
       25
 62
   256
340
5D
 90
       25
 62
   256
280
     0
  0
LAYOUT
  5
6F
102
{ACAD_REACTORS
330
62
102
}
330
62
100
AcDbPlotSettings
  1

  2

  4

  6

 40
0.0
 41
0.0
 42
0.0
 43
0.0
 44
0.0
 45
0.0
 46
0.0
 47
0.0
 48
0.0
 49
0.0
140
0.0
141
0.0
142
1.0
143
1.0
 70
   688
 72
     0
 73
     0
 74
     5
  7

 75
    16
147
1.0
 76
     0
 77
     2
 78
   300
148
0.0
149
0.0
100
AcDbLayout
  1
Layout1
 70
     1
 71
     1
 10
0.0
 20
0.0
 11
12.0
 21
9.0
 12
0.0
 22
0.0
 32
0.0
 14
0.0
 24
0.0
 34
0.0
 15
0.0
 25
0.0
 35
0.0
146
0.0
 13
0.0
 23
0.0
 33
0.0
 16
1.0
 26
0.0
 36
0.0
 17
0.0
 27
1.0
 37
0.0
 76
     0
330
6C
  0
LAYOUT
  5
77
102
{ACAD_REACTORS
330
62
102
}
330
62
100
AcDbPlotSettings
  1

  2

  4

  6

 40
0.0
 41
0.0
 42
0.0
 43
0.0
 44
0.0
 45
0.0
 46
0.0
 47
0.0
 48
0.0
 49
0.0
140
0.0
141
0.0
142
1.0
143
1.0
 70
   688
 72
     0
 73
     0
 74
     5
  7

 75
    16
147
1.0
 76
     0
 77
     2
 78
   300
148
0.0
149
0.0
100
AcDbLayout
  1
Layout2
 70
     1
 71
     2
 10
0.0
 20
0.0
 11
12.0
 21
9.0
 12
0.0
 22
0.0
 32
0.0
 14
0.0
 24
0.0
 34
0.0
 15
0.0
 25
0.0
 35
0.0
146
0.0
 13
0.0
 23
0.0
 33
0.0
 16
1.0
 26
0.0
 36
0.0
 17
0.0
 27
1.0
 37
0.0
 76
     0
330
74
  0
LAYOUT
  5
73
102
{ACAD_REACTORS
330
62
102
}
330
62
100
AcDbPlotSettings
  1

  2

  4

  6

 40
0.0
 41
0.0
 42
0.0
 43
0.0
 44
0.0
 45
0.0
 46
0.0
 47
0.0
 48
0.0
 49
0.0
140
0.0
141
0.0
142
1.0
143
1.0
 70
  1712
 72
     0
 73
     0
 74
     0
  7

 75
     0
147
1.0
 76
     0
 77
     2
 78
   300
148
0.0
149
0.0
100
AcDbLayout
  1
Model
 70
     1
 71
     0
 10
0.0
 20
0.0
 11
12.0
 21
9.0
 12
0.0
 22
0.0
 32
0.0
 14
0.0
 24
0.0
 34
0.0
 15
0.0
 25
0.0
 35
0.0
146
0.0
 13
0.0
 23
0.0
 33
0.0
 16
1.0
 26
0.0
 36
0.0
 17
0.0
 27
1.0
 37
0.0
 76
     0
330
70
  0
MATERIAL
  5
19
102
{ACAD_XDICTIONARY
360
1A
102
}
102
{ACAD_REACTORS
330
10
102
}
330
10
100
AcDbMaterial
  1
ByBlock
 72
     0
 43
0.0208333333333333
 43
0.0
 43
0.0
 43
0.0
 43
0.0
 43
0.0208333333333333
 43
0.0
 43
0.0
 43
0.0
 43
0.0
 43
1.0
 43
0.0
 43
0.0
 43
0.0
 43
0.0
 43
1.0
 77
     0
 47
0.0208333333333333
 47
0.0
 47
0.0
 47
0.0
 47
0.0
 47
0.0208333333333333
 47
0.0
 47
0.0
 47
0.0
 47
0.0
 47
1.0
 47
0.0
 47
0.0
 47
0.0
 47
0.0
 47
1.0
171
     0
 49
0.0208333333333333
 49
0.0
 49
0.0
 49
0.0
 49
0.0
 49
0.0208333333333333
 49
0.0
 49
0.0
 49
0.0
 49
0.0
 49
1.0
 49
0.0
 49
0.0
 49
0.0
 49
0.0
 49
1.0
175
     0
142
0.0208333333333333
142
0.0
142
0.0
142
0.0
142
0.0
142
0.0208333333333333
142
0.0
142
0.0
142
0.0
142
0.0
142
1.0
142
0.0
142
0.0
142
0.0
142
0.0
142
1.0
179
     0
144
0.0208333333333333
144
0.0
144
0.0
144
0.0
144
0.0
144
0.0208333333333333
144
0.0
144
0.0
144
0.0
144
0.0
144
1.0
144
0.0
144
0.0
144
0.0
144
0.0
144
1.0
147
0.0208333333333333
147
0.0
147
0.0
147
0.0
147
0.0
147
0.0208333333333333
147
0.0
147
0.0
147
0.0
147
0.0
147
1.0
147
0.0
147
0.0
147
0.0
147
0.0
147
1.0
  0
MATERIAL
  5
11
102
{ACAD_XDICTIONARY
360
12
102
}
102
{ACAD_REACTORS
330
10
102
}
330
10
100
AcDbMaterial
  1
ByLayer
 72
     0
 43
0.0208333333333333
 43
0.0
 43
0.0
 43
0.0
 43
0.0
 43
0.0208333333333333
 43
0.0
 43
0.0
 43
0.0
 43
0.0
 43
1.0
 43
0.0
 43
0.0
 43
0.0
 43
0.0
 43
1.0
 77
     0
 47
0.0208333333333333
 47
0.0
 47
0.0
 47
0.0
 47
0.0
 47
0.0208333333333333
 47
0.0
 47
0.0
 47
0.0
 47
0.0
 47
1.0
 47
0.0
 47
0.0
 47
0.0
 47
0.0
 47
1.0
171
     0
 49
0.0208333333333333
 49
0.0
 49
0.0
 49
0.0
 49
0.0
 49
0.0208333333333333
 49
0.0
 49
0.0
 49
0.0
 49
0.0
 49
1.0
 49
0.0
 49
0.0
 49
0.0
 49
0.0
 49
1.0
175
     0
142
0.0208333333333333
142
0.0
142
0.0
142
0.0
142
0.0
142
0.0208333333333333
142
0.0
142
0.0
142
0.0
142
0.0
142
1.0
142
0.0
142
0.0
142
0.0
142
0.0
142
1.0
179
     0
144
0.0208333333333333
144
0.0
144
0.0
144
0.0
144
0.0
144
0.0208333333333333
144
0.0
144
0.0
144
0.0
144
0.0
144
1.0
144
0.0
144
0.0
144
0.0
144
0.0
144
1.0
147
0.0208333333333333
147
0.0
147
0.0
147
0.0
147
0.0
147
0.0208333333333333
147
0.0
147
0.0
147
0.0
147
0.0
147
1.0
147
0.0
147
0.0
147
0.0
147
0.0
147
1.0
  0
MATERIAL
  5
21
102
{ACAD_XDICTIONARY
360
22
102
}
102
{ACAD_REACTORS
330
10
102
}
330
10
100
AcDbMaterial
  1
Global
 72
     0
 43
0.0208333333333333
 43
0.0
 43
0.0
 43
0.0
 43
0.0
 43
0.0208333333333333
 43
0.0
 43
0.0
 43
0.0
 43
0.0
 43
1.0
 43
0.0
 43
0.0
 43
0.0
 43
0.0
 43
1.0
 77
     0
 47
0.0208333333333333
 47
0.0
 47
0.0
 47
0.0
 47
0.0
 47
0.0208333333333333
 47
0.0
 47
0.0
 47
0.0
 47
0.0
 47
1.0
 47
0.0
 47
0.0
 47
0.0
 47
0.0
 47
1.0
171
     0
 49
0.0208333333333333
 49
0.0
 49
0.0
 49
0.0
 49
0.0
 49
0.0208333333333333
 49
0.0
 49
0.0
 49
0.0
 49
0.0
 49
1.0
 49
0.0
 49
0.0
 49
0.0
 49
0.0
 49
1.0
175
     0
142
0.0208333333333333
142
0.0
142
0.0
142
0.0
142
0.0
142
0.0208333333333333
142
0.0
142
0.0
142
0.0
142
0.0
142
1.0
142
0.0
142
0.0
142
0.0
142
0.0
142
1.0
179
     0
144
0.0208333333333333
144
0.0
144
0.0
144
0.0
144
0.0
144
0.0208333333333333
144
0.0
144
0.0
144
0.0
144
0.0
144
1.0
144
0.0
144
0.0
144
0.0
144
0.0
144
1.0
147
0.0208333333333333
147
0.0
147
0.0
147
0.0
147
0.0
147
0.0208333333333333
147
0.0
147
0.0
147
0.0
147
0.0
147
1.0
147
0.0
147
0.0
147
0.0
147
0.0
147
1.0
  0
MLEADERSTYLE
  5
67
102
{ACAD_REACTORS
330
66
102
}
330
66
100
AcDbMLeaderStyle
179
     2
170
     2
171
     1
172
     0
 90
        2
 40
0.0
 41
0.0
173
     1
 91
-1056964608
340
5B
 92
       -2
290
     1
 42
0.09
291
     1
 43
0.36
  3
Standard
 44
0.18
300

342
55
174
     1
178
     6
175
     1
176
     0
 93
-1056964608
 45
0.18
292
     0
297
     0
 46
0.18
 94
-1056964608
 47
1.0
 49
1.0
140
1.0
293
     1
141
0.0
294
     1
177
     0
142
1.0
295
     0
296
     0
143
0.125
271
     0
272
     9
273
     9
298
     1
  0
MLINESTYLE
  5
60
102
{ACAD_REACTORS
330
5F
102
}
330
5F
100
AcDbMlineStyle
  2
STANDARD
 70
     0
  3

 62
   256
 51
90.0
 52
90.0
 71
     2
 49
0.5
 62
   256
  6
BYLAYER
 49
-0.5
 62
   256
  6
BYLAYER
  0
ACDBPLACEHOLDER
  5
F
102
{ACAD_REACTORS
330
E
102
}
330
E
  0
SCALE
  5
43
102
{ACAD_REACTORS
330
42
102
}
330
42
100
AcDbScale
 70
     0
300
1:1
140
1.0
141
1.0
290
     1
  0
SCALE
  5
44
102
{ACAD_REACTORS
330
42
102
}
330
42
100
AcDbScale
 70
     0
300
1/128" = 1'-0"
140
0.0078125
141
12.0
290
     0
  0
SCALE
  5
45
102
{ACAD_REACTORS
330
42
102
}
330
42
100
AcDbScale
 70
     0
300
1/64" = 1'-0"
140
0.015625
141
12.0
290
     0
  0
SCALE
  5
46
102
{ACAD_REACTORS
330
42
102
}
330
42
100
AcDbScale
 70
     0
300
1/32" = 1'-0"
140
0.03125
141
12.0
290
     0
  0
SCALE
  5
47
102
{ACAD_REACTORS
330
42
102
}
330
42
100
AcDbScale
 70
     0
300
1/16" = 1'-0"
140
0.0625
141
12.0
290
     0
  0
SCALE
  5
48
102
{ACAD_REACTORS
330
42
102
}
330
42
100
AcDbScale
 70
     0
300
3/32" = 1'-0"
140
0.09375
141
12.0
290
     0
  0
SCALE
  5
49
102
{ACAD_REACTORS
330
42
102
}
330
42
100
AcDbScale
 70
     0
300
1/8" = 1'-0"
140
0.125
141
12.0
290
     0
  0
SCALE
  5
4A
102
{ACAD_REACTORS
330
42
102
}
330
42
100
AcDbScale
 70
     0
300
3/16" = 1'-0"
140
0.1875
141
12.0
290
     0
  0
SCALE
  5
4B
102
{ACAD_REACTORS
330
42
102
}
330
42
100
AcDbScale
 70
     0
300
1/4" = 1'-0"
140
0.25
141
12.0
290
     0
  0
SCALE
  5
4C
102
{ACAD_REACTORS
330
42
102
}
330
42
100
AcDbScale
 70
     0
300
3/8" = 1'-0"
140
0.375
141
12.0
290
     0
  0
SCALE
  5
4D
102
{ACAD_REACTORS
330
42
102
}
330
42
100
AcDbScale
 70
     0
300
1/2" = 1'-0"
140
0.5
141
12.0
290
     0
  0
SCALE
  5
4E
102
{ACAD_REACTORS
330
42
102
}
330
42
100
AcDbScale
 70
     0
300
3/4" = 1'-0"
140
0.75
141
12.0
290
     0
  0
SCALE
  5
4F
102
{ACAD_REACTORS
330
42
102
}
330
42
100
AcDbScale
 70
     0
300
1" = 1'-0"
140
1.0
141
12.0
290
     0
  0
SCALE
  5
50
102
{ACAD_REACTORS
330
42
102
}
330
42
100
AcDbScale
 70
     0
300
1-1/2" = 1'-0"
140
1.5
141
12.0
290
     0
  0
SCALE
  5
51
102
{ACAD_REACTORS
330
42
102
}
330
42
100
AcDbScale
 70
     0
300
3" = 1'-0"
140
3.0
141
12.0
290
     0
  0
SCALE
  5
52
102
{ACAD_REACTORS
330
42
102
}
330
42
100
AcDbScale
 70
     0
300
6" = 1'-0"
140
6.0
141
12.0
290
     0
  0
SCALE
  5
53
102
{ACAD_REACTORS
330
42
102
}
330
42
100
AcDbScale
 70
     0
300
1'-0" = 1'-0"
140
12.0
141
12.0
290
     0
  0
ACDBSECTIONVIEWSTYLE
  5
69
102
{ACAD_XDICTIONARY
360
A7
102
}
102
{ACAD_REACTORS
330
68
102
}
330
68
100
AcDbModelDocViewStyle
 70
     0
  3
Imperial24
290
     0
100
AcDbSectionViewStyle
 70
     0
 71
     0
 90
       78
 71
     1
340
55
 62
   256
 40
0.24
340
0
340
0
 62
   256
 40
0.24
300
I, O, Q, S, X, Z
 40
0.48
 90
        3
 40
0.18
 90
        1
 71
     2
340
5D
 90
       25
 62
   256
340
5D
 90
       50
 62
   256
 40
0.24
 40
0.0
 40
0.24
 71
     3
340
55
 62
   256
 40
0.24
 90
        1
 40
0.75
 90
        1
300
%<\AcVar ViewType \f "%tc1">% %<\AcVar ViewSectionStartId>%-%<\AcVar ViewSectionEndId>%\PSCALE %<\AcVar ViewScale \f "%sn">%
 71
     4
 62
   256
 62
   257
300
ANSI31
 40
1.0
 90
        0
290
     0
290
     0
 90
        6
 40
0.0
 40
1.570796326794896
 40
0.2617993877991494
 40
1.308996938995747
 40
-0.2617993877991494
 40
1.832595714594046
  0
TABLESTYLE
  5
65
102
{ACAD_XDICTIONARY
360
A4
102
}
102
{ACAD_REACTORS
330
64
102
}
330
64
100
AcDbTableStyle
280
     0
  3
Standard
 70
     0
 71
     0
 40
0.06
 41
0.06
280
     0
281
     0
  7
Standard
140
0.18
170
     2
 62
     0
 63
     7
283
     0
 90
      512
 91
        0
  1

274
    -2
284
     1
 64
     0
275
    -2
285
     1
 65
     0
276
    -2
286
     1
 66
     0
277
    -2
287
     1
 67
     0
278
    -2
288
     1
 68
     0
279
    -2
289
     1
 69
     0
  7
Standard
140
0.25
170
     5
 62
     0
 63
     7
283
     0
 90
      512
 91
        0
  1

274
    -2
284
     1
 64
     0
275
    -2
285
     1
 65
     0
276
    -2
286
     1
 66
     0
277
    -2
287
     1
 67
     0
278
    -2
288
     1
 68
     0
279
    -2
289
     1
 69
     0
  7
Standard
140
0.18
170
     5
 62
     0
 63
     7
283
     0
 90
      512
 91
        0
  1

274
    -2
284
     1
 64
     0
275
    -2
285
     1
 65
     0
276
    -2
286
     1
 66
     0
277
    -2
287
     1
 67
     0
278
    -2
288
     1
 68
     0
279
    -2
289
     1
 69
     0
  0
VISUALSTYLE
  5
2F
102
{ACAD_REACTORS
330
29
102
}
330
29
100
AcDbVisualStyle
  2
2dWireframe
 70
     4
177
     3
291
     0
 70
    58
 90
        0
176
     1
 90
        2
176
     1
 90
        0
176
     1
 90
        0
176
     1
 40
0.6
176
     1
 40
30.0
176
     1
 62
     7
420
 16777215
176
     1
 90
        1
176
     1
 90
        4
176
     1
 62
     7
176
     1
 62
   257
176
     1
 90
        1
176
     1
 90
        1
176
     1
 40
1.0
176
     1
 90
        0
176
     1
 62
   257
176
     1
 40
1.0
176
     1
 90
        1
176
     1
 90
        6
176
     1
 90
        2
176
     1
 62
     7
176
     1
 90
        5
176
     1
 90
        0
176
     1
 90
        0
176
     1
290
     0
176
     1
 90
        1
176
     1
 40
0.0
176
     1
 90
        0
176
     1
290
     1
176
     1
290
     1
176
     1
290
     0
176
     1
290
     0
176
     1
290
     0
176
     1
290
     0
176
     1
290
     0
176
     1
290
     0
176
     1
290
     0
176
     1
 90
       50
176
     1
 40
0.0
176
     1
 40
1.0
176
     1
 90
        0
176
     1
 62
    18
420
        0
176
     1
 90
       50
176
     1
 90
        3
176
     1
 62
     5
420
      255
176
     1
290
     0
176
     1
 90
       50
176
     1
 90
       50
176
     1
 90
       50
176
     1
290
     0
176
     1
 90
       50
176
     1
 62
   256
176
     0
 40
1.0
176
     0
 90
        2
176
     1
  1
strokes_ogs.tif
176
     1
290
     0
176
     1
 40
1.0
176
     1
 40
1.0
176
     1
1001
ACAD
1000
AcDbSavedByObjectVersion
1070
     0
  0
VISUALSTYLE
  5
2E
102
{ACAD_REACTORS
330
29
102
}
330
29
100
AcDbVisualStyle
  2
Basic
 70
     7
177
     3
291
     1
 70
    58
 90
        1
176
     1
 90
        0
176
     1
 90
        1
176
     1
 90
        0
176
     1
 40
0.6
176
     1
 40
30.0
176
     1
 62
     7
420
 16777215
176
     1
 90
        0
176
     1
 90
        4
176
     1
 62
     7
176
     1
 62
   257
176
     1
 90
        1
176
     1
 90
        1
176
     1
 40
1.0
176
     1
 90
        8
176
     1
 62
     7
176
     1
 40
1.0
176
     1
 90
        1
176
     1
 90
        6
176
     1
 90
        2
176
     1
 62
     7
176
     1
 90
        5
176
     1
 90
        0
176
     1
 90
        0
176
     1
290
     0
176
     1
 90
        1
176
     1
 40
0.0
176
     1
 90
        0
176
     1
290
     0
176
     1
290
     1
176
     1
290
     1
176
     1
290
     0
176
     1
290
     0
176
     1
290
     0
176
     1
290
     0
176
     1
290
     0
176
     1
290
     0
176
     1
 90
       50
176
     1
 40
0.0
176
     1
 40
1.0
176
     1
 90
        0
176
     1
 62
    18
420
        0
176
     1
 90
       50
176
     1
 90
        3
176
     1
 62
     5
420
      255
176
     1
290
     0
176
     1
 90
       50
176
     1
 90
       50
176
     1
 90
       50
176
     1
290
     0
176
     1
 90
       50
176
     1
 62
   256
176
     0
 40
1.0
176
     0
 90
        2
176
     1
  1
strokes_ogs.tif
176
     1
290
     0
176
     1
 40
1.0
176
     1
 40
1.0
176
     1
1001
ACAD
1000
AcDbSavedByObjectVersion
1070
     0
  0
VISUALSTYLE
  5
35
102
{ACAD_REACTORS
330
29
102
}
330
29
100
AcDbVisualStyle
  2
Brighten
 70
    12
177
     3
291
     1
 70
    58
 90
        2
176
     1
 90
        2
176
     1
 90
        0
176
     1
 90
        0
176
     1
 40
0.6
176
     1
 40
30.0
176
     1
 62
     7
420
 16777215
176
     1
 90
        1
176
     1
 90
        4
176
     1
 62
     7
176
     1
 62
   257
176
     1
 90
        1
176
     1
 90
        1
176
     1
 40
1.0
176
     1
 90
        8
176
     1
 62
     7
176
     1
 40
1.0
176
     1
 90
        1
176
     1
 90
        6
176
     1
 90
        2
176
     1
 62
     7
176
     1
 90
        5
176
     1
 90
        0
176
     1
 90
        0
176
     1
290
     0
176
     1
 90
        1
176
     1
 40
50.0
176
     1
 90
        0
176
     1
290
     0
176
     1
290
     1
176
     1
290
     1
176
     1
290
     0
176
     1
290
     0
176
     1
290
     0
176
     1
290
     0
176
     1
290
     0
176
     1
290
     0
176
     1
 90
       50
176
     1
 40
0.0
176
     1
 40
1.0
176
     1
 90
        0
176
     1
 62
    18
420
        0
176
     1
 90
       50
176
     1
 90
        3
176
     1
 62
     5
420
      255
176
     1
290
     0
176
     1
 90
       50
176
     1
 90
       50
176
     1
 90
       50
176
     1
290
     0
176
     1
 90
       50
176
     1
 62
   256
176
     0
 40
1.0
176
     0
 90
        2
176
     1
  1
strokes_ogs.tif
176
     1
290
     0
176
     1
 40
1.0
176
     1
 40
1.0
176
     1
1001
ACAD
1000
AcDbSavedByObjectVersion
1070
     0
  0
VISUALSTYLE
  5
39
102
{ACAD_REACTORS
330
29
102
}
330
29
100
AcDbVisualStyle
  2
ColorChange
 70
    16
177
     3
291
     1
 70
    58
 90
        2
176
     1
 90
        2
176
     1
 90
        3
176
     1
 90
        0
176
     1
 40
0.6
176
     1
 40
30.0
176
     1
 62
     8
420
  8421504
176
     1
 90
        1
176
     1
 90
        4
176
     1
 62
     7
176
     1
 62
   257
176
     1
 90
        1
176
     1
 90
        1
176
     1
 40
1.0
176
     1
 90
        8
176
     1
 62
     8
420
  8421504
176
     1
 40
1.0
176
     1
 90
        1
176
     1
 90
        6
176
     1
 90
        2
176
     1
 62
     7
176
     1
 90
        5
176
     1
 90
        0
176
     1
 90
        0
176
     1
290
     0
176
     1
 90
        1
176
     1
 40
0.0
176
     1
 90
        0
176
     1
290
     0
176
     1
290
     1
176
     1
290
     1
176
     1
290
     0
176
     1
290
     0
176
     1
290
     0
176
     1
290
     0
176
     1
290
     0
176
     1
290
     0
176
     1
 90
       50
176
     1
 40
0.0
176
     1
 40
1.0
176
     1
 90
        0
176
     1
 62
    18
420
        0
176
     1
 90
       50
176
     1
 90
        3
176
     1
 62
     5
420
      255
176
     1
290
     0
176
     1
 90
       50
176
     1
 90
       50
176
     1
 90
       50
176
     1
290
     0
176
     1
 90
       50
176
     1
 62
   256
176
     0
 40
1.0
176
     0
 90
        2
176
     1
  1
strokes_ogs.tif
176
     1
290
     0
176
     1
 40
1.0
176
     1
 40
1.0
176
     1
1001
ACAD
1000
AcDbSavedByObjectVersion
1070
     0
  0
VISUALSTYLE
  5
32
102
{ACAD_REACTORS
330
29
102
}
330
29
100
AcDbVisualStyle
  2
Conceptual
 70
     9
177
     3
291
     0
 70
    58
 90
        3
176
     1
 90
        2
176
     1
 90
        0
176
     1
 90
        0
176
     1
 40
0.6
176
     1
 40
30.0
176
     1
 62
     7
420
 16777215
176
     1
 90
        2
176
     1
 90
        2
176
     1
 62
     7
176
     1
 62
   257
176
     1
 90
        1
176
     1
 90
        1
176
     1
 40
179.0
176
     1
 90
        8
176
     1
 62
     7
176
     1
 40
1.0
176
     1
 90
        1
176
     1
 90
        6
176
     1
 90
        2
176
     1
 62
     7
176
     1
 90
        3
176
     1
 90
        0
176
     1
 90
        0
176
     1
290
     0
176
     1
 90
        1
176
     1
 40
0.0
176
     1
 90
        0
176
     1
290
     0
176
     1
290
     1
176
     1
290
     1
176
     1
290
     0
176
     1
290
     0
176
     1
290
     0
176
     1
290
     0
176
     1
290
     0
176
     1
290
     0
176
     1
 90
       50
176
     1
 40
0.0
176
     1
 40
1.0
176
     1
 90
        0
176
     1
 62
    18
420
        0
176
     1
 90
       50
176
     1
 90
        3
176
     1
 62
     5
420
      255
176
     1
290
     0
176
     1
 90
       50
176
     1
 90
       50
176
     1
 90
       50
176
     1
290
     0
176
     1
 90
       50
176
     1
 62
   256
176
     0
 40
1.0
176
     0
 90
        2
176
     1
  1
strokes_ogs.tif
176
     1
290
     0
176
     1
 40
1.0
176
     1
 40
1.0
176
     1
1001
ACAD
1000
AcDbSavedByObjectVersion
1070
     0
  0
VISUALSTYLE
  5
34
102
{ACAD_REACTORS
330
29
102
}
330
29
100
AcDbVisualStyle
  2
Dim
 70
    11
177
     3
291
     1
 70
    58
 90
        2
176
     1
 90
        2
176
     1
 90
        0
176
     1
 90
        0
176
     1
 40
0.6
176
     1
 40
30.0
176
     1
 62
     7
420
 16777215
176
     1
 90
        1
176
     1
 90
        4
176
     1
 62
     7
176
     1
 62
   257
176
     1
 90
        1
176
     1
 90
        1
176
     1
 40
1.0
176
     1
 90
        8
176
     1
 62
     7
176
     1
 40
1.0
176
     1
 90
        1
176
     1
 90
        6
176
     1
 90
        2
176
     1
 62
     7
176
     1
 90
        5
176
     1
 90
        0
176
     1
 90
        0
176
     1
290
     0
176
     1
 90
        1
176
     1
 40
-50.0
176
     1
 90
        0
176
     1
290
     0
176
     1
290
     1
176
     1
290
     1
176
     1
290
     0
176
     1
290
     0
176
     1
290
     0
176
     1
290
     0
176
     1
290
     0
176
     1
290
     0
176
     1
 90
       50
176
     1
 40
0.0
176
     1
 40
1.0
176
     1
 90
        0
176
     1
 62
    18
420
        0
176
     1
 90
       50
176
     1
 90
        3
176
     1
 62
     5
420
      255
176
     1
290
     0
176
     1
 90
       50
176
     1
 90
       50
176
     1
 90
       50
176
     1
290
     0
176
     1
 90
       50
176
     1
 62
   256
176
     0
 40
1.0
176
     0
 90
        2
176
     1
  1
strokes_ogs.tif
176
     1
290
     0
176
     1
 40
1.0
176
     1
 40
1.0
176
     1
1001
ACAD
1000
AcDbSavedByObjectVersion
1070
     0
  0
VISUALSTYLE
  5
41
102
{ACAD_REACTORS
330
29
102
}
330
29
100
AcDbVisualStyle
  2
EdgeColorOff
 70
    22
177
     3
291
     1
 70
    58
 90
        2
176
     0
 90
        2
176
     0
 90
        0
176
     0
 90
        0
176
     0
 40
0.6
176
     0
 40
30.0
176
     0
 62
     7
420
 16777215
176
     0
 90
        1
176
     0
 90
        4
176
     0
 62
     7
176
     0
 62
   257
176
     0
 90
        1
176
     0
 90
        1
176
     0
 40
1.0
176
     0
 90
        8
176
     2
 62
     7
176
     0
 40
1.0
176
     0
 90
        1
176
     0
 90
        6
176
     0
 90
        2
176
     0
 62
     7
176
     0
 90
        5
176
     0
 90
        0
176
     0
 90
        0
176
     0
290
     0
176
     0
 90
        1
176
     0
 40
0.0
176
     0
 90
        0
176
     0
290
     0
176
     0
290
     1
176
     0
290
     1
176
     0
290
     0
176
     0
290
     0
176
     0
290
     0
176
     0
290
     0
176
     0
290
     0
176
     0
290
     0
176
     0
 90
       50
176
     0
 40
0.0
176
     0
 40
1.0
176
     0
 90
        0
176
     0
 62
    18
420
        0
176
     0
 90
       50
176
     0
 90
        3
176
     0
 62
     5
420
      255
176
     0
290
     0
176
     0
 90
       50
176
     0
 90
       50
176
     0
 90
       50
176
     0
290
     0
176
     0
 90
       50
176
     0
 62
   256
176
     0
 40
1.0
176
     0
 90
        2
176
     0
  1
strokes_ogs.tif
176
     0
290
     0
176
     0
 40
1.0
176
     0
 40
1.0
176
     0
1001
ACAD
1000
AcDbSavedByObjectVersion
1070
     0
  0
VISUALSTYLE
  5
38
102
{ACAD_REACTORS
330
29
102
}
330
29
100
AcDbVisualStyle
  2
Facepattern
 70
    15
177
     3
291
     1
 70
    58
 90
        2
176
     1
 90
        2
176
     1
 90
        0
176
     1
 90
        0
176
     1
 40
0.6
176
     1
 40
30.0
176
     1
 62
     7
420
 16777215
176
     1
 90
        1
176
     1
 90
        4
176
     1
 62
     7
176
     1
 62
   257
176
     1
 90
        1
176
     1
 90
        1
176
     1
 40
1.0
176
     1
 90
        8
176
     1
 62
     7
176
     1
 40
1.0
176
     1
 90
        1
176
     1
 90
        6
176
     1
 90
        2
176
     1
 62
     7
176
     1
 90
        5
176
     1
 90
        0
176
     1
 90
        0
176
     1
290
     0
176
     1
 90
        1
176
     1
 40
0.0
176
     1
 90
        0
176
     1
290
     0
176
     1
290
     1
176
     1
290
     1
176
     1
290
     0
176
     1
290
     0
176
     1
290
     0
176
     1
290
     0
176
     1
290
     0
176
     1
290
     0
176
     1
 90
       50
176
     1
 40
0.0
176
     1
 40
1.0
176
     1
 90
        0
176
     1
 62
    18
420
        0
176
     1
 90
       50
176
     1
 90
        3
176
     1
 62
     5
420
      255
176
     1
290
     0
176
     1
 90
       50
176
     1
 90
       50
176
     1
 90
       50
176
     1
290
     0
176
     1
 90
       50
176
     1
 62
   256
176
     0
 40
1.0
176
     0
 90
        2
176
     1
  1
strokes_ogs.tif
176
     1
290
     0
176
     1
 40
1.0
176
     1
 40
1.0
176
     1
1001
ACAD
1000
AcDbSavedByObjectVersion
1070
     0
  0
VISUALSTYLE
  5
2A
102
{ACAD_REACTORS
330
29
102
}
330
29
100
AcDbVisualStyle
  2
Flat
 70
     0
177
     3
291
     1
 70
    58
 90
        2
176
     1
 90
        1
176
     1
 90
        1
176
     1
 90
        2
176
     1
 40
0.6
176
     1
 40
30.0
176
     1
 62
     7
420
 16777215
176
     1
 90
        0
176
     1
 90
        0
176
     1
 62
     7
176
     1
 62
   257
176
     1
 90
        1
176
     1
 90
        1
176
     1
 40
1.0
176
     1
 90
        8
176
     1
 62
     7
176
     1
 40
1.0
176
     1
 90
        1
176
     1
 90
        6
176
     1
 90
        2
176
     1
 62
     7
176
     1
 90
        5
176
     1
 90
        0
176
     1
 90
        0
176
     1
290
     0
176
     1
 90
       13
176
     1
 40
0.0
176
     1
 90
        0
176
     1
290
     0
176
     1
290
     1
176
     1
290
     1
176
     1
290
     0
176
     1
290
     0
176
     1
290
     0
176
     1
290
     0
176
     1
290
     0
176
     1
290
     0
176
     1
 90
       50
176
     1
 40
0.0
176
     1
 40
1.0
176
     1
 90
        0
176
     1
 62
    18
420
        0
176
     1
 90
       50
176
     1
 90
        3
176
     1
 62
     5
420
      255
176
     1
290
     0
176
     1
 90
       50
176
     1
 90
       50
176
     1
 90
       50
176
     1
290
     0
176
     1
 90
       50
176
     1
 62
   256
176
     0
 40
1.0
176
     0
 90
        2
176
     1
  1
strokes_ogs.tif
176
     1
290
     0
176
     1
 40
1.0
176
     1
 40
1.0
176
     1
1001
ACAD
1000
AcDbSavedByObjectVersion
1070
     0
  0
VISUALSTYLE
  5
2B
102
{ACAD_REACTORS
330
29
102
}
330
29
100
AcDbVisualStyle
  2
FlatWithEdges
 70
     1
177
     3
291
     1
 70
    58
 90
        2
176
     1
 90
        1
176
     1
 90
        1
176
     1
 90
        2
176
     1
 40
0.6
176
     1
 40
30.0
176
     1
 62
     7
420
 16777215
176
     1
 90
        1
176
     1
 90
        0
176
     1
 62
     7
176
     1
 62
   257
176
     1
 90
        1
176
     1
 90
        1
176
     1
 40
1.0
176
     1
 90
        0
176
     1
 62
   257
176
     1
 40
1.0
176
     1
 90
        1
176
     1
 90
        6
176
     1
 90
        2
176
     1
 62
     7
176
     1
 90
        5
176
     1
 90
        0
176
     1
 90
        0
176
     1
290
     0
176
     1
 90
       13
176
     1
 40
0.0
176
     1
 90
        0
176
     1
290
     0
176
     1
290
     1
176
     1
290
     1
176
     1
290
     0
176
     1
290
     0
176
     1
290
     0
176
     1
290
     0
176
     1
290
     0
176
     1
290
     0
176
     1
 90
       50
176
     1
 40
0.0
176
     1
 40
1.0
176
     1
 90
        0
176
     1
 62
    18
420
        0
176
     1
 90
       50
176
     1
 90
        3
176
     1
 62
     5
420
      255
176
     1
290
     0
176
     1
 90
       50
176
     1
 90
       50
176
     1
 90
       50
176
     1
290
     0
176
     1
 90
       50
176
     1
 62
   256
176
     0
 40
1.0
176
     0
 90
        2
176
     1
  1
strokes_ogs.tif
176
     1
290
     0
176
     1
 40
1.0
176
     1
 40
1.0
176
     1
1001
ACAD
1000
AcDbSavedByObjectVersion
1070
     0
  0
VISUALSTYLE
  5
2C
102
{ACAD_REACTORS
330
29
102
}
330
29
100
AcDbVisualStyle
  2
Gouraud
 70
     2
177
     3
291
     1
 70
    58
 90
        2
176
     1
 90
        2
176
     1
 90
        1
176
     1
 90
        2
176
     1
 40
0.6
176
     1
 40
30.0
176
     1
 62
     7
420
 16777215
176
     1
 90
        0
176
     1
 90
        0
176
     1
 62
     7
176
     1
 62
   257
176
     1
 90
        1
176
     1
 90
        1
176
     1
 40
1.0
176
     1
 90
        0
176
     1
 62
     7
176
     1
 40
1.0
176
     1
 90
        1
176
     1
 90
        6
176
     1
 90
        2
176
     1
 62
     7
176
     1
 90
        5
176
     1
 90
        0
176
     1
 90
        0
176
     1
290
     0
176
     1
 90
       13
176
     1
 40
0.0
176
     1
 90
        0
176
     1
290
     0
176
     1
290
     1
176
     1
290
     1
176
     1
290
     0
176
     1
290
     0
176
     1
290
     0
176
     1
290
     0
176
     1
290
     0
176
     1
290
     0
176
     1
 90
       50
176
     1
 40
0.0
176
     1
 40
1.0
176
     1
 90
        0
176
     1
 62
    18
420
        0
176
     1
 90
       50
176
     1
 90
        3
176
     1
 62
     5
420
      255
176
     1
290
     0
176
     1
 90
       50
176
     1
 90
       50
176
     1
 90
       50
176
     1
290
     0
176
     1
 90
       50
176
     1
 62
   256
176
     0
 40
1.0
176
     0
 90
        2
176
     1
  1
strokes_ogs.tif
176
     1
290
     0
176
     1
 40
1.0
176
     1
 40
1.0
176
     1
1001
ACAD
1000
AcDbSavedByObjectVersion
1070
     0
  0
VISUALSTYLE
  5
2D
102
{ACAD_REACTORS
330
29
102
}
330
29
100
AcDbVisualStyle
  2
GouraudWithEdges
 70
     3
177
     3
291
     1
 70
    58
 90
        2
176
     1
 90
        2
176
     1
 90
        1
176
     1
 90
        2
176
     1
 40
0.6
176
     1
 40
30.0
176
     1
 62
     7
420
 16777215
176
     1
 90
        1
176
     1
 90
        0
176
     1
 62
     7
176
     1
 62
   257
176
     1
 90
        1
176
     1
 90
        1
176
     1
 40
1.0
176
     1
 90
        0
176
     1
 62
   257
176
     1
 40
1.0
176
     1
 90
        1
176
     1
 90
        6
176
     1
 90
        2
176
     1
 62
     7
176
     1
 90
        5
176
     1
 90
        0
176
     1
 90
        0
176
     1
290
     0
176
     1
 90
       13
176
     1
 40
0.0
176
     1
 90
        0
176
     1
290
     0
176
     1
290
     1
176
     1
290
     1
176
     1
290
     0
176
     1
290
     0
176
     1
290
     0
176
     1
290
     0
176
     1
290
     0
176
     1
290
     0
176
     1
 90
       50
176
     1
 40
0.0
176
     1
 40
1.0
176
     1
 90
        0
176
     1
 62
    18
420
        0
176
     1
 90
       50
176
     1
 90
        3
176
     1
 62
     5
420
      255
176
     1
290
     0
176
     1
 90
       50
176
     1
 90
       50
176
     1
 90
       50
176
     1
290
     0
176
     1
 90
       50
176
     1
 62
   256
176
     0
 40
1.0
176
     0
 90
        2
176
     1
  1
strokes_ogs.tif
176
     1
290
     0
176
     1
 40
1.0
176
     1
 40
1.0
176
     1
1001
ACAD
1000
AcDbSavedByObjectVersion
1070
     0
  0
VISUALSTYLE
  5
31
102
{ACAD_REACTORS
330
29
102
}
330
29
100
AcDbVisualStyle
  2
Hidden
 70
     6
177
     3
291
     0
 70
    58
 90
        1
176
     1
 90
        2
176
     1
 90
        2
176
     1
 90
        0
176
     1
 40
0.6
176
     1
 40
30.0
176
     1
 62
     7
420
 16777215
176
     1
 90
        2
176
     1
 90
        2
176
     1
 62
     7
176
     1
 62
   257
176
     1
 90
        2
176
     1
 90
        1
176
     1
 40
40.0
176
     1
 90
        0
176
     1
 62
   257
176
     1
 40
1.0
176
     1
 90
        1
176
     1
 90
        6
176
     1
 90
        2
176
     1
 62
     7
176
     1
 90
        3
176
     1
 90
        0
176
     1
 90
        0
176
     1
290
     0
176
     1
 90
        1
176
     1
 40
0.0
176
     1
 90
        0
176
     1
290
     0
176
     1
290
     1
176
     1
290
     1
176
     1
290
     0
176
     1
290
     0
176
     1
290
     0
176
     1
290
     0
176
     1
290
     0
176
     1
290
     0
176
     1
 90
       50
176
     1
 40
0.0
176
     1
 40
1.0
176
     1
 90
        0
176
     1
 62
    18
420
        0
176
     1
 90
       50
176
     1
 90
        3
176
     1
 62
     5
420
      255
176
     1
290
     0
176
     1
 90
       50
176
     1
 90
       50
176
     1
 90
       50
176
     1
290
     0
176
     1
 90
       50
176
     1
 62
   256
176
     0
 40
1.0
176
     0
 90
        2
176
     1
  1
strokes_ogs.tif
176
     1
290
     0
176
     1
 40
1.0
176
     1
 40
1.0
176
     1
1001
ACAD
1000
AcDbSavedByObjectVersion
1070
     0
  0
VISUALSTYLE
  5
3F
102
{ACAD_REACTORS
330
29
102
}
330
29
100
AcDbVisualStyle
  2
JitterOff
 70
    20
177
     3
291
     1
 70
    58
 90
        2
176
     0
 90
        2
176
     0
 90
        0
176
     0
 90
        0
176
     0
 40
0.6
176
     0
 40
30.0
176
     0
 62
     7
420
 16777215
176
     0
 90
        1
176
     0
 90
        4
176
     0
 62
     7
176
     0
 62
   257
176
     0
 90
        1
176
     0
 90
        1
176
     0
 40
1.0
176
     0
 90
       10
176
     2
 62
     7
176
     0
 40
1.0
176
     0
 90
        1
176
     0
 90
        6
176
     0
 90
        2
176
     0
 62
     7
176
     0
 90
        5
176
     0
 90
        0
176
     0
 90
        0
176
     0
290
     0
176
     0
 90
        1
176
     0
 40
0.0
176
     0
 90
        0
176
     0
290
     0
176
     0
290
     1
176
     0
290
     1
176
     0
290
     0
176
     0
290
     0
176
     0
290
     0
176
     0
290
     0
176
     0
290
     0
176
     0
290
     0
176
     0
 90
       50
176
     0
 40
0.0
176
     0
 40
1.0
176
     0
 90
        0
176
     0
 62
    18
420
        0
176
     0
 90
       50
176
     0
 90
        3
176
     0
 62
     5
420
      255
176
     0
290
     0
176
     0
 90
       50
176
     0
 90
       50
176
     0
 90
       50
176
     0
290
     0
176
     0
 90
       50
176
     0
 62
   256
176
     0
 40
1.0
176
     0
 90
        2
176
     0
  1
strokes_ogs.tif
176
     0
290
     0
176
     0
 40
1.0
176
     0
 40
1.0
176
     0
1001
ACAD
1000
AcDbSavedByObjectVersion
1070
     0
  0
VISUALSTYLE
  5
37
102
{ACAD_REACTORS
330
29
102
}
330
29
100
AcDbVisualStyle
  2
Linepattern
 70
    14
177
     3
291
     1
 70
    58
 90
        2
176
     1
 90
        2
176
     1
 90
        0
176
     1
 90
        0
176
     1
 40
0.6
176
     1
 40
30.0
176
     1
 62
     7
420
 16777215
176
     1
 90
        1
176
     1
 90
        4
176
     1
 62
     7
176
     1
 62
   257
176
     1
 90
        7
176
     1
 90
        7
176
     1
 40
1.0
176
     1
 90
        8
176
     1
 62
     7
176
     1
 40
1.0
176
     1
 90
        1
176
     1
 90
        6
176
     1
 90
        2
176
     1
 62
     7
176
     1
 90
        5
176
     1
 90
        0
176
     1
 90
        0
176
     1
290
     0
176
     1
 90
        1
176
     1
 40
0.0
176
     1
 90
        0
176
     1
290
     0
176
     1
290
     1
176
     1
290
     1
176
     1
290
     0
176
     1
290
     0
176
     1
290
     0
176
     1
290
     0
176
     1
290
     0
176
     1
290
     0
176
     1
 90
       50
176
     1
 40
0.0
176
     1
 40
1.0
176
     1
 90
        0
176
     1
 62
    18
420
        0
176
     1
 90
       50
176
     1
 90
        3
176
     1
 62
     5
420
      255
176
     1
290
     0
176
     1
 90
       50
176
     1
 90
       50
176
     1
 90
       50
176
     1
290
     0
176
     1
 90
       50
176
     1
 62
   256
176
     0
 40
1.0
176
     0
 90
        2
176
     1
  1
strokes_ogs.tif
176
     1
290
     0
176
     1
 40
1.0
176
     1
 40
1.0
176
     1
1001
ACAD
1000
AcDbSavedByObjectVersion
1070
     0
  0
VISUALSTYLE
  5
40
102
{ACAD_REACTORS
330
29
102
}
330
29
100
AcDbVisualStyle
  2
OverhangOff
 70
    21
177
     3
291
     1
 70
    58
 90
        2
176
     0
 90
        2
176
     0
 90
        0
176
     0
 90
        0
176
     0
 40
0.6
176
     0
 40
30.0
176
     0
 62
     7
420
 16777215
176
     0
 90
        1
176
     0
 90
        4
176
     0
 62
     7
176
     0
 62
   257
176
     0
 90
        1
176
     0
 90
        1
176
     0
 40
1.0
176
     0
 90
        9
176
     2
 62
     7
176
     0
 40
1.0
176
     0
 90
        1
176
     0
 90
        6
176
     0
 90
        2
176
     0
 62
     7
176
     0
 90
        5
176
     0
 90
        0
176
     0
 90
        0
176
     0
290
     0
176
     0
 90
        1
176
     0
 40
0.0
176
     0
 90
        0
176
     0
290
     0
176
     0
290
     1
176
     0
290
     1
176
     0
290
     0
176
     0
290
     0
176
     0
290
     0
176
     0
290
     0
176
     0
290
     0
176
     0
290
     0
176
     0
 90
       50
176
     0
 40
0.0
176
     0
 40
1.0
176
     0
 90
        0
176
     0
 62
    18
420
        0
176
     0
 90
       50
176
     0
 90
        3
176
     0
 62
     5
420
      255
176
     0
290
     0
176
     0
 90
       50
176
     0
 90
       50
176
     0
 90
       50
176
     0
290
     0
176
     0
 90
       50
176
     0
 62
   256
176
     0
 40
1.0
176
     0
 90
        2
176
     0
  1
strokes_ogs.tif
176
     0
290
     0
176
     0
 40
1.0
176
     0
 40
1.0
176
     0
1001
ACAD
1000
AcDbSavedByObjectVersion
1070
     0
  0
VISUALSTYLE
  5
33
102
{ACAD_REACTORS
330
29
102
}
330
29
100
AcDbVisualStyle
  2
Realistic
 70
     8
177
     3
291
     0
 70
    58
 90
        2
176
     1
 90
        3
176
     1
 90
        0
176
     1
 90
        2
176
     1
 40
0.6
176
     1
 40
30.0
176
     1
 62
     7
420
 16777215
176
     1
 90
        0
176
     1
 90
        0
176
     1
 62
     7
176
     1
 62
   257
176
     1
 90
        1
176
     1
 90
        1
176
     1
 40
1.0
176
     1
 90
        8
176
     1
 62
   257
176
     1
 40
1.0
176
     1
 90
        1
176
     1
 90
        6
176
     1
 90
        2
176
     1
 62
     7
176
     1
 90
        3
176
     1
 90
        0
176
     1
 90
        0
176
     1
290
     0
176
     1
 90
       13
176
     1
 40
0.0
176
     1
 90
        0
176
     1
290
     0
176
     1
290
     1
176
     1
290
     1
176
     1
290
     0
176
     1
290
     0
176
     1
290
     0
176
     1
290
     0
176
     1
290
     0
176
     1
290
     0
176
     1
 90
       50
176
     1
 40
0.0
176
     1
 40
1.0
176
     1
 90
        0
176
     1
 62
    18
420
        0
176
     1
 90
       50
176
     1
 90
        3
176
     1
 62
     5
420
      255
176
     1
290
     0
176
     1
 90
       50
176
     1
 90
       50
176
     1
 90
       50
176
     1
290
     0
176
     1
 90
       50
176
     1
 62
   256
176
     0
 40
1.0
176
     0
 90
        2
176
     1
  1
strokes_ogs.tif
176
     1
290
     0
176
     1
 40
1.0
176
     1
 40
1.0
176
     1
1001
ACAD
1000
AcDbSavedByObjectVersion
1070
     0
  0
VISUALSTYLE
  5
3E
102
{ACAD_REACTORS
330
29
102
}
330
29
100
AcDbVisualStyle
  2
Shaded
 70
    27
177
     3
291
     0
 70
    58
 90
        2
176
     1
 90
        2
176
     1
 90
        1
176
     1
 90
        2
176
     1
 40
0.6
176
     1
 40
30.0
176
     1
 62
     7
420
 16777215
176
     1
 90
        0
176
     1
 90
        4
176
     1
 62
     7
176
     1
 62
   257
176
     1
 90
        1
176
     1
 90
        1
176
     1
 40
1.0
176
     1
 90
        8
176
     1
 62
   257
176
     1
 40
1.0
176
     1
 90
        1
176
     1
 90
        6
176
     1
 90
        2
176
     1
 62
     8
420
  7895160
176
     1
 90
        3
176
     1
 90
        0
176
     1
 90
        0
176
     1
290
     0
176
     1
 90
        5
176
     1
 40
0.0
176
     1
 90
        0
176
     1
290
     0
176
     1
290
     1
176
     1
290
     1
176
     1
290
     0
176
     1
290
     0
176
     1
290
     0
176
     1
290
     0
176
     1
290
     0
176
     1
290
     0
176
     1
 90
       50
176
     1
 40
0.0
176
     1
 40
1.0
176
     1
 90
        0
176
     1
 62
    18
420
        0
176
     1
 90
       50
176
     1
 90
        3
176
     1
 62
     5
420
      255
176
     1
290
     0
176
     1
 90
       50
176
     1
 90
       50
176
     1
 90
       50
176
     1
290
     0
176
     1
 90
       50
176
     1
 62
   256
176
     0
 40
1.0
176
     0
 90
        2
176
     1
  1
strokes_ogs.tif
176
     1
290
     0
176
     1
 40
1.0
176
     1
 40
1.0
176
     1
1001
ACAD
1000
AcDbSavedByObjectVersion
1070
     0
  0
VISUALSTYLE
  5
3D
102
{ACAD_REACTORS
330
29
102
}
330
29
100
AcDbVisualStyle
  2
Shaded with edges
 70
    26
177
     3
291
     0
 70
    58
 90
        2
176
     1
 90
        2
176
     1
 90
        1
176
     1
 90
        2
176
     1
 40
0.6
176
     1
 40
30.0
176
     1
 62
     7
420
 16777215
176
     1
 90
        1
176
     1
 90
        2
176
     1
 62
     7
176
     1
 62
   257
176
     1
 90
        2
176
     1
 90
        1
176
     1
 40
1.0
176
     1
 90
        8
176
     1
 62
   257
176
     1
 40
1.0
176
     1
 90
        1
176
     1
 90
        6
176
     1
 90
        2
176
     1
 62
     7
176
     1
 90
        3
176
     1
 90
        0
176
     1
 90
        0
176
     1
290
     0
176
     1
 90
        5
176
     1
 40
0.0
176
     1
 90
        0
176
     1
290
     0
176
     1
290
     1
176
     1
290
     1
176
     1
290
     0
176
     1
290
     0
176
     1
290
     0
176
     1
290
     0
176
     1
290
     0
176
     1
290
     0
176
     1
 90
       50
176
     1
 40
0.0
176
     1
 40
1.0
176
     1
 90
        0
176
     1
 62
    18
420
        0
176
     1
 90
       50
176
     1
 90
        3
176
     1
 62
     5
420
      255
176
     1
290
     0
176
     1
 90
       50
176
     1
 90
       50
176
     1
 90
       50
176
     1
290
     0
176
     1
 90
       50
176
     1
 62
   256
176
     0
 40
1.0
176
     0
 90
        2
176
     1
  1
strokes_ogs.tif
176
     1
290
     0
176
     1
 40
1.0
176
     1
 40
1.0
176
     1
1001
ACAD
1000
AcDbSavedByObjectVersion
1070
     0
  0
VISUALSTYLE
  5
3A
102
{ACAD_REACTORS
330
29
102
}
330
29
100
AcDbVisualStyle
  2
Shades of Gray
 70
    23
177
     3
291
     0
 70
    58
 90
        2
176
     1
 90
        2
176
     1
 90
        3
176
     1
 90
        0
176
     1
 40
0.6
176
     1
 40
30.0
176
     1
 62
     7
420
 16777215
176
     1
 90
        2
176
     1
 90
        2
176
     1
 62
     7
176
     1
 62
     7
176
     1
 90
        1
176
     1
 90
        1
176
     1
 40
40.0
176
     1
 90
        8
176
     1
 62
     7
176
     1
 40
1.0
176
     1
 90
        1
176
     1
 90
        6
176
     1
 90
        2
176
     1
 62
     7
176
     1
 90
        3
176
     1
 90
        0
176
     1
 90
        0
176
     1
290
     0
176
     1
 90
        1
176
     1
 40
0.0
176
     1
 90
        0
176
     1
290
     0
176
     1
290
     1
176
     1
290
     1
176
     1
290
     0
176
     1
290
     0
176
     1
290
     0
176
     1
290
     0
176
     1
290
     0
176
     1
290
     0
176
     1
 90
       50
176
     1
 40
0.0
176
     1
 40
1.0
176
     1
 90
        0
176
     1
 62
    18
420
        0
176
     1
 90
       50
176
     1
 90
        3
176
     1
 62
     5
420
      255
176
     1
290
     0
176
     1
 90
       50
176
     1
 90
       50
176
     1
 90
       50
176
     1
290
     0
176
     1
 90
       50
176
     1
 62
   256
176
     0
 40
1.0
176
     0
 90
        2
176
     1
  1
strokes_ogs.tif
176
     1
290
     0
176
     1
 40
1.0
176
     1
 40
1.0
176
     1
1001
ACAD
1000
AcDbSavedByObjectVersion
1070
     0
  0
VISUALSTYLE
  5
3B
102
{ACAD_REACTORS
330
29
102
}
330
29
100
AcDbVisualStyle
  2
Sketchy
 70
    24
177
     3
291
     0
 70
    58
 90
        1
176
     1
 90
        2
176
     1
 90
        2
176
     1
 90
        0
176
     1
 40
0.6
176
     1
 40
30.0
176
     1
 62
     7
420
 16777215
176
     1
 90
        2
176
     1
 90
        2
176
     1
 62
     7
176
     1
 62
     7
176
     1
 90
        1
176
     1
 90
        1
176
     1
 40
40.0
176
     1
 90
       11
176
     1
 62
     7
176
     1
 40
1.0
176
     1
 90
        1
176
     1
 90
        6
176
     1
 90
        2
176
     1
 62
     7
176
     1
 90
        6
176
     1
 90
        0
176
     1
 90
        0
176
     1
290
     0
176
     1
 90
        1
176
     1
 40
0.0
176
     1
 90
        0
176
     1
290
     0
176
     1
290
     1
176
     1
290
     1
176
     1
290
     0
176
     1
290
     0
176
     1
290
     0
176
     1
290
     0
176
     1
290
     0
176
     1
290
     0
176
     1
 90
       50
176
     1
 40
0.0
176
     1
 40
1.0
176
     1
 90
        0
176
     1
 62
    18
420
        0
176
     1
 90
       50
176
     1
 90
        3
176
     1
 62
     5
420
      255
176
     1
290
     0
176
     1
 90
       50
176
     1
 90
       50
176
     1
 90
       50
176
     1
290
     0
176
     1
 90
       50
176
     1
 62
   256
176
     0
 40
1.0
176
     0
 90
        2
176
     1
  1
strokes_ogs.tif
176
     1
290
     0
176
     1
 40
1.0
176
     1
 40
1.0
176
     1
1001
ACAD
1000
AcDbSavedByObjectVersion
1070
     0
  0
VISUALSTYLE
  5
36
102
{ACAD_REACTORS
330
29
102
}
330
29
100
AcDbVisualStyle
  2
Thicken
 70
    13
177
     3
291
     1
 70
    58
 90
        2
176
     1
 90
        2
176
     1
 90
        0
176
     1
 90
        0
176
     1
 40
0.6
176
     1
 40
30.0
176
     1
 62
     7
420
 16777215
176
     1
 90
        1
176
     1
 90
        4
176
     1
 62
     7
176
     1
 62
   257
176
     1
 90
        1
176
     1
 90
        1
176
     1
 40
1.0
176
     1
 90
       12
176
     1
 62
     7
176
     1
 40
1.0
176
     1
 90
        1
176
     1
 90
        6
176
     1
 90
        2
176
     1
 62
     7
176
     1
 90
        5
176
     1
 90
        0
176
     1
 90
        0
176
     1
290
     0
176
     1
 90
        1
176
     1
 40
0.0
176
     1
 90
        0
176
     1
290
     0
176
     1
290
     1
176
     1
290
     1
176
     1
290
     0
176
     1
290
     0
176
     1
290
     0
176
     1
290
     0
176
     1
290
     0
176
     1
290
     0
176
     1
 90
       50
176
     1
 40
0.0
176
     1
 40
1.0
176
     1
 90
        0
176
     1
 62
    18
420
        0
176
     1
 90
       50
176
     1
 90
        3
176
     1
 62
     5
420
      255
176
     1
290
     0
176
     1
 90
       50
176
     1
 90
       50
176
     1
 90
       50
176
     1
290
     0
176
     1
 90
       50
176
     1
 62
   256
176
     0
 40
1.0
176
     0
 90
        2
176
     1
  1
strokes_ogs.tif
176
     1
290
     0
176
     1
 40
1.0
176
     1
 40
1.0
176
     1
1001
ACAD
1000
AcDbSavedByObjectVersion
1070
     0
  0
VISUALSTYLE
  5
30
102
{ACAD_REACTORS
330
29
102
}
330
29
100
AcDbVisualStyle
  2
Wireframe
 70
     5
177
     3
291
     0
 70
    58
 90
        0
176
     1
 90
        2
176
     1
 90
        0
176
     1
 90
        0
176
     1
 40
0.6
176
     1
 40
30.0
176
     1
 62
     7
420
 16777215
176
     1
 90
        1
176
     1
 90
        4
176
     1
 62
     7
176
     1
 62
   257
176
     1
 90
        1
176
     1
 90
        1
176
     1
 40
1.0
176
     1
 90
        0
176
     1
 62
   257
176
     1
 40
1.0
176
     1
 90
        1
176
     1
 90
        6
176
     1
 90
        2
176
     1
 62
     7
176
     1
 90
        3
176
     1
 90
        0
176
     1
 90
        0
176
     1
290
     0
176
     1
 90
        1
176
     1
 40
0.0
176
     1
 90
        0
176
     1
290
     0
176
     1
290
     1
176
     1
290
     1
176
     1
290
     0
176
     1
290
     0
176
     1
290
     0
176
     1
290
     0
176
     1
290
     0
176
     1
290
     0
176
     1
 90
       50
176
     1
 40
0.0
176
     1
 40
1.0
176
     1
 90
        0
176
     1
 62
    18
420
        0
176
     1
 90
       50
176
     1
 90
        3
176
     1
 62
     5
420
      255
176
     1
290
     0
176
     1
 90
       50
176
     1
 90
       50
176
     1
 90
       50
176
     1
290
     0
176
     1
 90
       50
176
     1
 62
   256
176
     0
 40
1.0
176
     0
 90
        2
176
     1
  1
strokes_ogs.tif
176
     1
290
     0
176
     1
 40
1.0
176
     1
 40
1.0
176
     1
1001
ACAD
1000
AcDbSavedByObjectVersion
1070
     0
  0
VISUALSTYLE
  5
3C
102
{ACAD_REACTORS
330
29
102
}
330
29
100
AcDbVisualStyle
  2
X-Ray
 70
    25
177
     3
291
     0
 70
    58
 90
        2
176
     1
 90
        2
176
     1
 90
        1
176
     1
 90
        1
176
     1
 40
0.5
176
     1
 40
30.0
176
     1
 62
     7
420
 16777215
176
     1
 90
        1
176
     1
 90
        0
176
     1
 62
     7
176
     1
 62
   257
176
     1
 90
        1
176
     1
 90
        1
176
     1
 40
1.0
176
     1
 90
        8
176
     1
 62
     7
176
     1
 40
1.0
176
     1
 90
        1
176
     1
 90
        6
176
     1
 90
        2
176
     1
 62
     7
176
     1
 90
        3
176
     1
 90
        0
176
     1
 90
        0
176
     1
290
     0
176
     1
 90
       13
176
     1
 40
0.0
176
     1
 90
        0
176
     1
290
     0
176
     1
290
     1
176
     1
290
     1
176
     1
290
     0
176
     1
290
     0
176
     1
290
     0
176
     1
290
     0
176
     1
290
     0
176
     1
290
     0
176
     1
 90
       50
176
     1
 40
0.0
176
     1
 40
1.0
176
     1
 90
        0
176
     1
 62
    18
420
        0
176
     1
 90
       50
176
     1
 90
        3
176
     1
 62
     5
420
      255
176
     1
290
     0
176
     1
 90
       50
176
     1
 90
       50
176
     1
 90
       50
176
     1
290
     0
176
     1
 90
       50
176
     1
 62
   256
176
     0
 40
1.0
176
     0
 90
        2
176
     1
  1
strokes_ogs.tif
176
     1
290
     0
176
     1
 40
1.0
176
     1
 40
1.0
176
     1
1001
ACAD
1000
AcDbSavedByObjectVersion
1070
     0
  0
DICTIONARYVAR
  5
A3
102
{ACAD_REACTORS
330
9E
102
}
330
9E
100
DictionaryVariables
280
     0
  1
1:1
  0
DICTIONARYVAR
  5
A0
102
{ACAD_REACTORS
330
9E
102
}
330
9E
100
DictionaryVariables
280
     0
  1
STANDARD
  0
DICTIONARYVAR
  5
9F
102
{ACAD_REACTORS
330
9E
102
}
330
9E
100
DictionaryVariables
280
     0
  1
STANDARD
  0
DICTIONARYVAR
  5
A1
102
{ACAD_REACTORS
330
9E
102
}
330
9E
100
DictionaryVariables
280
     0
  1
Imperial24
  0
DICTIONARYVAR
  5
A2
102
{ACAD_REACTORS
330
9E
102
}
330
9E
100
DictionaryVariables
280
     0
  1
Imperial24
  0
DICTIONARY
  5
A9
330
6B
100
AcDbDictionary
280
     1
281
     1
  3
ACAD_XREC_ROUNDTRIP
360
AA
  0
DICTIONARY
  5
1A
330
19
100
AcDbDictionary
280
     1
281
     1
  3
BUMPTILE
360
1C
  3
DIFFUSETILE
360
1B
  3
OPACITYTILE
360
1F
  3
REFLECTIONTILE
360
1E
  3
REFRACTIONTILE
360
20
  3
SPECULARTILE
360
1D
  0
DICTIONARY
  5
12
330
11
100
AcDbDictionary
280
     1
281
     1
  3
BUMPTILE
360
14
  3
DIFFUSETILE
360
13
  3
OPACITYTILE
360
17
  3
REFLECTIONTILE
360
16
  3
REFRACTIONTILE
360
18
  3
SPECULARTILE
360
15
  0
DICTIONARY
  5
22
330
21
100
AcDbDictionary
280
     1
281
     1
  3
BUMPTILE
360
24
  3
DIFFUSETILE
360
23
  3
OPACITYTILE
360
27
  3
REFLECTIONTILE
360
26
  3
REFRACTIONTILE
360
28
  3
SPECULARTILE
360
25
  0
DICTIONARY
  5
A7
330
69
100
AcDbDictionary
280
     1
281
     1
  3
ACAD_XREC_ROUNDTRIP
360
A8
  0
DICTIONARY
  5
A4
330
65
100
AcDbDictionary
280
     1
281
     1
  3
ACAD_ROUNDTRIP_2008_TABLESTYLE_CELLSTYLEMAP
360
A5
  0
XRECORD
  5
AA
102
{ACAD_REACTORS
330
A9
102
}
330
A9
100
AcDbXrecord
280
     1
102
DISPLAYNAME
  1
Imperial24
102
FLAGS
 90
        0
  0
XRECORD
  5
1C
102
{ACAD_REACTORS
330
1A
102
}
330
1A
100
AcDbXrecord
280
     1
270
     1
271
     1
  0
XRECORD
  5
1B
102
{ACAD_REACTORS
330
1A
102
}
330
1A
100
AcDbXrecord
280
     1
270
     1
271
     1
  0
XRECORD
  5
1F
102
{ACAD_REACTORS
330
1A
102
}
330
1A
100
AcDbXrecord
280
     1
270
     1
271
     1
  0
XRECORD
  5
1E
102
{ACAD_REACTORS
330
1A
102
}
330
1A
100
AcDbXrecord
280
     1
270
     1
271
     1
  0
XRECORD
  5
20
102
{ACAD_REACTORS
330
1A
102
}
330
1A
100
AcDbXrecord
280
     1
270
     1
271
     1
  0
XRECORD
  5
1D
102
{ACAD_REACTORS
330
1A
102
}
330
1A
100
AcDbXrecord
280
     1
270
     1
271
     1
  0
XRECORD
  5
14
102
{ACAD_REACTORS
330
12
102
}
330
12
100
AcDbXrecord
280
     1
270
     1
271
     1
  0
XRECORD
  5
13
102
{ACAD_REACTORS
330
12
102
}
330
12
100
AcDbXrecord
280
     1
270
     1
271
     1
  0
XRECORD
  5
17
102
{ACAD_REACTORS
330
12
102
}
330
12
100
AcDbXrecord
280
     1
270
     1
271
     1
  0
XRECORD
  5
16
102
{ACAD_REACTORS
330
12
102
}
330
12
100
AcDbXrecord
280
     1
270
     1
271
     1
  0
XRECORD
  5
18
102
{ACAD_REACTORS
330
12
102
}
330
12
100
AcDbXrecord
280
     1
270
     1
271
     1
  0
XRECORD
  5
15
102
{ACAD_REACTORS
330
12
102
}
330
12
100
AcDbXrecord
280
     1
270
     1
271
     1
  0
XRECORD
  5
24
102
{ACAD_REACTORS
330
22
102
}
330
22
100
AcDbXrecord
280
     1
270
     1
271
     1
  0
XRECORD
  5
23
102
{ACAD_REACTORS
330
22
102
}
330
22
100
AcDbXrecord
280
     1
270
     1
271
     1
  0
XRECORD
  5
27
102
{ACAD_REACTORS
330
22
102
}
330
22
100
AcDbXrecord
280
     1
270
     1
271
     1
  0
XRECORD
  5
26
102
{ACAD_REACTORS
330
22
102
}
330
22
100
AcDbXrecord
280
     1
270
     1
271
     1
  0
XRECORD
  5
28
102
{ACAD_REACTORS
330
22
102
}
330
22
100
AcDbXrecord
280
     1
270
     1
271
     1
  0
XRECORD
  5
25
102
{ACAD_REACTORS
330
22
102
}
330
22
100
AcDbXrecord
280
     1
270
     1
271
     1
  0
XRECORD
  5
A8
102
{ACAD_REACTORS
330
A7
102
}
330
A7
100
AcDbXrecord
280
     1
102
DISPLAYNAME
  1
Imperial24
102
FLAGS
 90
        0
  0
CELLSTYLEMAP
  5
A5
102
{ACAD_REACTORS
330
A4
102
}
330
A4
100
AcDbCellStyleMap
 90
        3
300
CELLSTYLE
  1
TABLEFORMAT_BEGIN
 90
        5
170
     1
 91
        0
 92
    32768
 62
   257
 93
        1
300
CONTENTFORMAT
  1
CONTENTFORMAT_BEGIN
 90
        0
 91
        0
 92
      512
 93
        0
300

 40
0.0
140
1.0
 94
        5
 62
     0
340
55
144
0.25
309
CONTENTFORMAT_END
171
     0
 94
        0
309
TABLEFORMAT_END
  1
CELLSTYLE_BEGIN
 90
        1
 91
        1
300
_TITLE
309
CELLSTYLE_END
300
CELLSTYLE
  1
TABLEFORMAT_BEGIN
 90
        5
170
     1
 91
        0
 92
        0
 62
   257
 93
        1
300
CONTENTFORMAT
  1
CONTENTFORMAT_BEGIN
 90
        0
 91
        0
 92
      512
 93
        0
300

 40
0.0
140
1.0
 94
        5
 62
     0
340
55
144
0.18
309
CONTENTFORMAT_END
171
     0
 94
        0
309
TABLEFORMAT_END
  1
CELLSTYLE_BEGIN
 90
        2
 91
        1
300
_HEADER
309
CELLSTYLE_END
300
CELLSTYLE
  1
TABLEFORMAT_BEGIN
 90
        5
170
     1
 91
        0
 92
        0
 62
   257
 93
        1
300
CONTENTFORMAT
  1
CONTENTFORMAT_BEGIN
 90
        0
 91
        0
 92
      512
 93
        0
300

 40
0.0
140
1.0
 94
        2
 62
     0
340
55
144
0.18
309
CONTENTFORMAT_END
171
     0
 94
        0
309
TABLEFORMAT_END
  1
CELLSTYLE_BEGIN
 90
        3
 91
        2
300
_DATA
309
CELLSTYLE_END
  0
ENDSEC
  0
EOF
