  0
SECTION
  2
HEADER
  9
$ACADVER
  1
AC1027
  9
$ACADMAINTVER
 70
   125
  9
$DWGCODEPAGE
  3
ANSI_1252
  9
$REQUIREDVERSIONS
160
                 0
  9
$INSBASE
 10
0.0
 20
0.0
 30
0.0
  9
$EXTMIN
 10
1.000000000000000E+20
 20
1.000000000000000E+20
 30
1.000000000000000E+20
  9
$EXTMAX
 10
-1.000000000000000E+20
 20
-1.000000000000000E+20
 30
-1.000000000000000E+20
  9
$LIMMIN
 10
0.0
 20
0.0
  9
$LIMMAX
 10
12.0
 20
9.0
  9
$ORTHOMODE
 70
     0
  9
$REGENMODE
 70
     1
  9
$FILLMODE
 70
     1
  9
$QTEXTMODE
 70
     0
  9
$MIRRTEXT
 70
     0
  9
$LTSCALE
 40
1.0
  9
$ATTMODE
 70
     1
  9
$TEXTSIZE
 40
0.2
  9
$TRACEWID
 40
0.05
  9
$TEXTSTYLE
  7
Standard
  9
$CLAYER
  8
0
  9
$CELTYPE
  6
ByLayer
  9
$CECOLOR
 62
   256
  9
$CELTSCALE
 40
1.0
  9
$DISPSILH
 70
     0
  9
$DIMSCALE
 40
1.0
  9
$DIMASZ
 40
0.18
  9
$DIMEXO
 40
0.0625
  9
$DIMDLI
 40
0.38
  9
$DIMRND
 40
0.0
  9
$DIMDLE
 40
0.0
  9
$DIMEXE
 40
0.18
  9
$DIMTP
 40
0.0
  9
$DIMTM
 40
0.0
  9
$DIMTXT
 40
0.18
  9
$DIMCEN
 40
0.09
  9
$DIMTSZ
 40
0.0
  9
$DIMTOL
 70
     0
  9
$DIMLIM
 70
     0
  9
$DIMTIH
 70
     1
  9
$DIMTOH
 70
     1
  9
$DIMSE1
 70
     0
  9
$DIMSE2
 70
     0
  9
$DIMTAD
 70
     0
  9
$DIMZIN
 70
     0
  9
$DIMBLK
  1

  9
$DIMASO
 70
     1
  9
$DIMSHO
 70
     1
  9
$DIMPOST
  1

  9
$DIMAPOST
  1

  9
$DIMALT
 70
     0
  9
$DIMALTD
 70
     2
  9
$DIMALTF
 40
25.4
  9
$DIMLFAC
 40
1.0
  9
$DIMTOFL
 70
     0
  9
$DIMTVP
 40
0.0
  9
$DIMTIX
 70
     0
  9
$DIMSOXD
 70
     0
  9
$DIMSAH
 70
     0
  9
$DIMBLK1
  1

  9
$DIMBLK2
  1

  9
$DIMSTYLE
  2
Standard
  9
$DIMCLRD
 70
     0
  9
$DIMCLRE
 70
     0
  9
$DIMCLRT
 70
     0
  9
$DIMTFAC
 40
1.0
  9
$DIMGAP
 40
0.09
  9
$DIMJUST
 70
     0
  9
$DIMSD1
 70
     0
  9
$DIMSD2
 70
     0
  9
$DIMTOLJ
 70
     1
  9
$DIMTZIN
 70
     0
  9
$DIMALTZ
 70
     0
  9
$DIMALTTZ
 70
     0
  9
$DIMUPT
 70
     0
  9
$DIMDEC
 70
     4
  9
$DIMTDEC
 70
     4
  9
$DIMALTU
 70
     2
  9
$DIMALTTD
 70
     2
  9
$DIMTXSTY
  7
Standard
  9
$DIMAUNIT
 70
     0
  9
$DIMADEC
 70
     0
  9
$DIMALTRND
 40
0.0
  9
$DIMAZIN
 70
     0
  9
$DIMDSEP
 70
    46
  9
$DIMATFIT
 70
     3
  9
$DIMFRAC
 70
     0
  9
$DIMLDRBLK
  1

  9
$DIMLUNIT
 70
     2
  9
$DIMLWD
 70
    -2
  9
$DIMLWE
 70
    -2
  9
$DIMTMOVE
 70
     0
  9
$DIMFXL
 40
1.0
  9
$DIMFXLON
 70
     0
  9
$DIMJOGANG
 40
0.7853981633974483
  9
$DIMTFILL
 70
     0
  9
$DIMTFILLCLR
 70
     0
  9
$DIMARCSYM
 70
     0
  9
$DIMLTYPE
  6

  9
$DIMLTEX1
  6

  9
$DIMLTEX2
  6

  9
$DIMTXTDIRECTION
 70
     0
  9
$LUNITS
 70
     2
  9
$LUPREC
 70
     4
  9
$SKETCHINC
 40
0.1
  9
$FILLETRAD
 40
0.0
  9
$AUNITS
 70
     0
  9
$AUPREC
 70
     0
  9
$MENU
  1
.
  9
$ELEVATION
 40
0.0
  9
$PELEVATION
 40
0.0
  9
$THICKNESS
 40
0.0
  9
$LIMCHECK
 70
     0
  9
$CHAMFERA
 40
0.0
  9
$CHAMFERB
 40
0.0
  9
$CHAMFERC
 40
0.0
  9
$CHAMFERD
 40
0.0
  9
$SKPOLY
 70
     0
  9
$TDCREATE
 40
2460417.567638889
  9
$TDUCREATE
 40
2460417.525972223
  9
$TDUPDATE
 40
2460417.567638889
  9
$TDUUPDATE
 40
2460417.525972223
  9
$TDINDWG
 40
0.0000000000
  9
$TDUSRTIMER
 40
0.0000000000
  9
$USRTIMER
 70
     1
  9
$ANGBASE
 50
0.0
  9
$ANGDIR
 70
     0
  9
$PDMODE
 70
     0
  9
$PDSIZE
 40
0.0
  9
$PLINEWID
 40
0.0
  9
$SPLFRAME
 70
     0
  9
$SPLINETYPE
 70
     6
  9
$SPLINESEGS
 70
     8
  9
$HANDSEED
  5
B5
  9
$SURFTAB1
 70
     6
  9
$SURFTAB2
 70
     6
  9
$SURFTYPE
 70
     6
  9
$SURFU
 70
     6
  9
$SURFV
 70
     6
  9
$UCSBASE
  2

  9
$UCSNAME
  2

  9
$UCSORG
 10
0.0
 20
0.0
 30
0.0
  9
$UCSXDIR
 10
1.0
 20
0.0
 30
0.0
  9
$UCSYDIR
 10
0.0
 20
1.0
 30
0.0
  9
$UCSORTHOREF
  2

  9
$UCSORTHOVIEW
 70
     0
  9
$UCSORGTOP
 10
0.0
 20
0.0
 30
0.0
  9
$UCSORGBOTTOM
 10
0.0
 20
0.0
 30
0.0
  9
$UCSORGLEFT
 10
0.0
 20
0.0
 30
0.0
  9
$UCSORGRIGHT
 10
0.0
 20
0.0
 30
0.0
  9
$UCSORGFRONT
 10
0.0
 20
0.0
 30
0.0
  9
$UCSORGBACK
 10
0.0
 20
0.0
 30
0.0
  9
$PUCSBASE
  2

  9
$PUCSNAME
  2

  9
$PUCSORG
 10
0.0
 20
0.0
 30
0.0
  9
$PUCSXDIR
 10
1.0
 20
0.0
 30
0.0
  9
$PUCSYDIR
 10
0.0
 20
1.0
 30
0.0
  9
$PUCSORTHOREF
  2

  9
$PUCSORTHOVIEW
 70
     0
  9
$PUCSORGTOP
 10
0.0
 20
0.0
 30
0.0
  9
$PUCSORGBOTTOM
 10
0.0
 20
0.0
 30
0.0
  9
$PUCSORGLEFT
 10
0.0
 20
0.0
 30
0.0
  9
$PUCSORGRIGHT
 10
0.0
 20
0.0
 30
0.0
  9
$PUCSORGFRONT
 10
0.0
 20
0.0
 30
0.0
  9
$PUCSORGBACK
 10
0.0
 20
0.0
 30
0.0
  9
$USERI1
 70
     0
  9
$USERI2
 70
     0
  9
$USERI3
 70
     0
  9
$USERI4
 70
     0
  9
$USERI5
 70
     0
  9
$USERR1
 40
0.0
  9
$USERR2
 40
0.0
  9
$USERR3
 40
0.0
  9
$USERR4
 40
0.0
  9
$USERR5
 40
0.0
  9
$WORLDVIEW
 70
     1
  9
$SHADEDGE
 70
     3
  9
$SHADEDIF
 70
    70
  9
$TILEMODE
 70
     1
  9
$MAXACTVP
 70
    64
  9
$PINSBASE
 10
0.0
 20
0.0
 30
0.0
  9
$PLIMCHECK
 70
     0
  9
$PEXTMIN
 10
1.000000000000000E+20
 20
1.000000000000000E+20
 30
1.000000000000000E+20
  9
$PEXTMAX
 10
-1.000000000000000E+20
 20
-1.000000000000000E+20
 30
-1.000000000000000E+20
  9
$PLIMMIN
 10
0.0
 20
0.0
  9
$PLIMMAX
 10
12.0
 20
9.0
  9
$UNITMODE
 70
     0
  9
$VISRETAIN
 70
     1
  9
$PLINEGEN
 70
     0
  9
$PSLTSCALE
 70
     1
  9
$TREEDEPTH
 70
  3020
  9
$CMLSTYLE
  2
Standard
  9
$CMLJUST
 70
     0
  9
$CMLSCALE
 40
1.0
  9
$PROXYGRAPHICS
 70
     1
  9
$MEASUREMENT
 70
     0
  9
$CELWEIGHT
370
    -1
  9
$ENDCAPS
280
     0
  9
$JOINSTYLE
280
     0
  9
$LWDISPLAY
290
     1
  9
$INSUNITS
 70
     4
  9
$HYPERLINKBASE
  1

  9
$STYLESHEET
  1

  9
$XEDIT
290
     1
  9
$CEPSNTYPE
380
     0
  9
$PSTYLEMODE
290
     1
  9
$FINGERPRINTGUID
  2
{EFF537CC-136A-ED45-8BEE-CD88AB1E5909}
  9
$VERSIONGUID
  2
{DDE9BD34-E47D-584D-8891-2DC699A504E6}
  9
$EXTNAMES
290
     1
  9
$PSVPSCALE
 40
0.0
  9
$OLESTARTUP
290
     0
  9
$SORTENTS
280
   127
  9
$INDEXCTL
280
     0
  9
$HIDETEXT
280
     1
  9
$XCLIPFRAME
280
     2
  9
$HALOGAP
280
     0
  9
$OBSCOLOR
 70
   257
  9
$OBSLTYPE
280
     0
  9
$INTERSECTIONDISPLAY
280
     0
  9
$INTERSECTIONCOLOR
 70
   257
  9
$DIMASSOC
280
     2
  9
$PROJECTNAME
  1

  9
$CAMERADISPLAY
290
     0
  9
$LENSLENGTH
 40
50.0
  9
$CAMERAHEIGHT
 40
0.0
  9
$STEPSPERSEC
 40
2.0
  9
$STEPSIZE
 40
6.0
  9
$3DDWFPREC
 40
2.0
  9
$PSOLWIDTH
 40
0.25
  9
$PSOLHEIGHT
 40
4.0
  9
$LOFTANG1
 40
1.570796326794896
  9
$LOFTANG2
 40
1.570796326794896
  9
$LOFTMAG1
 40
0.0
  9
$LOFTMAG2
 40
0.0
  9
$LOFTPARAM
 70
     7
  9
$LOFTNORMALS
280
     1
  9
$LATITUDE
 40
37.795
  9
$LONGITUDE
 40
-122.394
  9
$NORTHDIRECTION
 40
0.0
  9
$TIMEZONE
 70
 -8000
  9
$LIGHTGLYPHDISPLAY
280
     1
  9
$TILEMODELIGHTSYNCH
280
     1
  9
$CMATERIAL
347
11
  9
$SOLIDHIST
280
     0
  9
$SHOWHIST
280
     1
  9
$DWFFRAME
280
     2
  9
$DGNFRAME
280
     0
  9
$REALWORLDSCALE
290
     1
  9
$INTERFERECOLOR
 62
     1
  9
$INTERFEREOBJVS
345
33
  9
$INTERFEREVPVS
346
30
  9
$CSHADOW
280
     0
  9
$SHADOWPLANELOCATION
 40
0.0
  0
ENDSEC
  0
SECTION
  2
CLASSES
  0
CLASS
  1
ACDBDICTIONARYWDFLT
  2
AcDbDictionaryWithDefault
  3
ObjectDBX Classes
 90
        0
 91
        1
280
     0
281
     0
  0
CLASS
  1
MATERIAL
  2
AcDbMaterial
  3
ObjectDBX Classes
 90
     1153
 91
        3
280
     0
281
     0
  0
CLASS
  1
VISUALSTYLE
  2
AcDbVisualStyle
  3
ObjectDBX Classes
 90
     4095
 91
       24
280
     0
281
     0
  0
CLASS
  1
SCALE
  2
AcDbScale
  3
ObjectDBX Classes
 90
     1153
 91
       17
280
     0
281
     0
  0
CLASS
  1
TABLESTYLE
  2
AcDbTableStyle
  3
ObjectDBX Classes
 90
     4095
 91
        1
280
     0
281
     0
  0
CLASS
  1
MLEADERSTYLE
  2
AcDbMLeaderStyle
  3
ACDB_MLEADERSTYLE_CLASS
 90
     4095
 91
        1
280
     0
281
     0
  0
CLASS
  1
ACDBSECTIONVIEWSTYLE
  2
AcDbSectionViewStyle
  3
ObjectDBX Classes
 90
     1025
 91
        1
280
     0
281
     0
  0
CLASS
  1
ACDBDETAILVIEWSTYLE
  2
AcDbDetailViewStyle
  3
ObjectDBX Classes
 90
     1025
 91
        1
280
     0
281
     0
  0
CLASS
  1
DICTIONARYVAR
  2
AcDbDictionaryVar
  3
ObjectDBX Classes
 90
        0
 91
        5
280
     0
281
     0
  0
CLASS
  1
CELLSTYLEMAP
  2
AcDbCellStyleMap
  3
ObjectDBX Classes
 90
     1152
 91
        1
280
     0
281
     0
  0
ENDSEC
  0
SECTION
  2
TABLES
  0
TABLE
  2
VPORT
  5
8
330
0
100
AcDbSymbolTable
 70
     1
1001
ACAD
1000
DbSaveVer
1071
      278
  0
VPORT
  5
57
330
8
100
AcDbSymbolTableRecord
100
AcDbViewportTableRecord
  2
*Active
 70
     0
 10
0.0
 20
0.0
 11
1.0
 21
1.0
 12
0.0
 22
0.0
 13
0.0
 23
0.0
 14
1.0
 24
1.0
 15
0.0
 25
0.0
 16
0.0
 26
0.0
 36
1.0
 17
199.9999999500001
 27
-49.99999998749986
 37
0.0
 40
101.9999999744997
 41
4.000000000000013
 42
50.0
 43
0.0
 44
0.0
 50
0.0
 51
0.0
 71
     0
 72
   100
 73
     1
 74
     1
 75
     0
 76
     0
 77
     0
 78
     0
281
     0
 65
     1
110
0.0
120
0.0
130
0.0
111
1.0
121
0.0
131
0.0
112
0.0
122
1.0
132
0.0
 79
     0
146
0.0
 60
     3
 61
     5
292
     1
282
     1
141
0.0
142
0.0
 63
   250
421
  3355443
  0
ENDTAB
  0
TABLE
  2
LTYPE
  5
5
330
0
100
AcDbSymbolTable
 70
     1
  0
LTYPE
  5
5B
330
5
100
AcDbSymbolTableRecord
100
AcDbLinetypeTableRecord
  2
ByBlock
 70
     0
  3

 72
    65
 73
     0
 40
0.0
  0
LTYPE
  5
5C
330
5
100
AcDbSymbolTableRecord
100
AcDbLinetypeTableRecord
  2
ByLayer
 70
     0
  3

 72
    65
 73
     0
 40
0.0
  0
LTYPE
  5
5D
330
5
100
AcDbSymbolTableRecord
100
AcDbLinetypeTableRecord
  2
Continuous
 70
     0
  3
Solid line
 72
    65
 73
     0
 40
0.0
  0
ENDTAB
  0
TABLE
  2
LAYER
  5
2
330
0
100
AcDbSymbolTable
 70
     2
  0
LAYER
  5
54
330
2
100
AcDbSymbolTableRecord
100
AcDbLayerTableRecord
  2
0
 70
     0
 62
     7
  6
Continuous
370
    -3
390
F
347
21
348
0
  0
LAYER
  5
78
330
2
100
AcDbSymbolTableRecord
100
AcDbLayerTableRecord
  2
Layer 1
 70
     0
 62
     7
  6
Continuous
370
     0
390
F
347
21
348
0
  0
ENDTAB
  0
TABLE
  2
STYLE
  5
3
330
0
100
AcDbSymbolTable
 70
     2
  0
STYLE
  5
55
330
3
100
AcDbSymbolTableRecord
100
AcDbTextStyleTableRecord
  2
Standard
 70
     0
 40
0.0
 41
1.0
 50
0.0
 71
     0
 42
0.2
  3
txt
  4

  0
STYLE
  5
5A
330
3
100
AcDbSymbolTableRecord
100
AcDbTextStyleTableRecord
  2
Annotative
 70
     0
 40
0.0
 41
1.0
 50
0.0
 71
     0
 42
0.2
  3
txt
  4

1001
AcadAnnotative
1000
AnnotativeData
1002
{
1070
     1
1070
     1
1002
}
  0
ENDTAB
  0
TABLE
  2
VIEW
  5
6
330
0
100
AcDbSymbolTable
 70
     0
  0
ENDTAB
  0
TABLE
  2
UCS
  5
7
330
0
100
AcDbSymbolTable
 70
     0
  0
ENDTAB
  0
TABLE
  2
APPID
  5
9
330
0
100
AcDbSymbolTable
 70
     2
  0
APPID
  5
56
330
9
100
AcDbSymbolTableRecord
100
AcDbRegAppTableRecord
  2
ACAD
 70
     0
  0
APPID
  5
5E
330
9
100
AcDbSymbolTableRecord
100
AcDbRegAppTableRecord
  2
AcadAnnotative
 70
     0
  0
ENDTAB
  0
TABLE
  2
DIMSTYLE
  5
A
330
0
100
AcDbSymbolTable
 70
     2
100
AcDbDimStyleTable
 71
     0
  0
DIMSTYLE
105
58
330
A
100
AcDbSymbolTableRecord
100
AcDbDimStyleTableRecord
  2
Standard
 70
     0
340
55
  0
DIMSTYLE
105
59
330
A
100
AcDbSymbolTableRecord
100
AcDbDimStyleTableRecord
  2
Annotative
 70
     0
340
55
1001
AcadAnnotative
1000
AnnotativeData
1002
{
1070
     1
1070
     1
1002
}
  0
ENDTAB
  0
TABLE
  2
BLOCK_RECORD
  5
1
330
0
100
AcDbSymbolTable
 70
     1
  0
BLOCK_RECORD
  5
70
330
1
100
AcDbSymbolTableRecord
100
AcDbBlockTableRecord
  2
*Model_Space
340
73
 70
     0
280
     1
281
     0
  0
BLOCK_RECORD
  5
6C
330
1
100
AcDbSymbolTableRecord
100
AcDbBlockTableRecord
  2
*Paper_Space
340
6F
 70
     0
280
     1
281
     0
  0
BLOCK_RECORD
  5
74
330
1
100
AcDbSymbolTableRecord
100
AcDbBlockTableRecord
  2
*Paper_Space0
340
77
 70
     0
280
     1
281
     0
  0
ENDTAB
  0
ENDSEC
  0
SECTION
  2
BLOCKS
  0
BLOCK
  5
71
330
70
100
AcDbEntity
  8
0
100
AcDbBlockBegin
  2
*Model_Space
 70
     0
 10
0.0
 20
0.0
 30
0.0
  3
*Model_Space
  1

  0
ENDBLK
  5
72
330
70
100
AcDbEntity
  8
0
100
AcDbBlockEnd
  0
BLOCK
  5
6D
330
6C
100
AcDbEntity
 67
     1
  8
0
100
AcDbBlockBegin
  2
*Paper_Space
 70
     0
 10
0.0
 20
0.0
 30
0.0
  3
*Paper_Space
  1

  0
ENDBLK
  5
6E
330
6C
100
AcDbEntity
 67
     1
  8
0
100
AcDbBlockEnd
  0
BLOCK
  5
75
330
74
100
AcDbEntity
 67
     1
  8
0
100
AcDbBlockBegin
  2
*Paper_Space0
 70
     0
 10
0.0
 20
0.0
 30
0.0
  3
*Paper_Space0
  1

  0
ENDBLK
  5
76
330
74
100
AcDbEntity
 67
     1
  8
0
100
AcDbBlockEnd
  0
ENDSEC
  0
SECTION
  2
ENTITIES
  0
SPLINE
  5
79
330
70
100
AcDbEntity
  8
Layer 1
 62
   250
370
    20
100
AcDbSpline
210
0.0
220
0.0
230
1.0
 70
     9
 71
     3
 72
   362
 73
   358
 74
     0
 42
0.0000000001
 43
0.0000000001
 40
0.0
 40
0.0
 40
0.0
 40
0.0
 40
1.0
 40
1.0
 40
1.0
 40
2.0
 40
2.0
 40
2.0
 40
3.0
 40
3.0
 40
3.0
 40
4.0
 40
4.0
 40
4.0
 40
5.0
 40
5.0
 40
5.0
 40
6.0
 40
6.0
 40
6.0
 40
7.0
 40
7.0
 40
7.0
 40
8.0
 40
8.0
 40
8.0
 40
9.0
 40
9.0
 40
9.0
 40
10.0
 40
10.0
 40
10.0
 40
11.0
 40
11.0
 40
11.0
 40
12.0
 40
12.0
 40
12.0
 40
13.0
 40
13.0
 40
13.0
 40
14.0
 40
14.0
 40
14.0
 40
15.0
 40
15.0
 40
15.0
 40
16.0
 40
16.0
 40
16.0
 40
17.0
 40
17.0
 40
17.0
 40
18.0
 40
18.0
 40
18.0
 40
19.0
 40
19.0
 40
19.0
 40
20.0
 40
20.0
 40
20.0
 40
21.0
 40
21.0
 40
21.0
 40
22.0
 40
22.0
 40
22.0
 40
23.0
 40
23.0
 40
23.0
 40
24.0
 40
24.0
 40
24.0
 40
25.0
 40
25.0
 40
25.0
 40
26.0
 40
26.0
 40
26.0
 40
27.0
 40
27.0
 40
27.0
 40
28.0
 40
28.0
 40
28.0
 40
29.0
 40
29.0
 40
29.0
 40
30.0
 40
30.0
 40
30.0
 40
31.0
 40
31.0
 40
31.0
 40
32.0
 40
32.0
 40
32.0
 40
33.0
 40
33.0
 40
33.0
 40
34.0
 40
34.0
 40
34.0
 40
35.0
 40
35.0
 40
35.0
 40
36.0
 40
36.0
 40
36.0
 40
37.0
 40
37.0
 40
37.0
 40
38.0
 40
38.0
 40
38.0
 40
39.0
 40
39.0
 40
39.0
 40
40.0
 40
40.0
 40
40.0
 40
41.0
 40
41.0
 40
41.0
 40
42.0
 40
42.0
 40
42.0
 40
43.0
 40
43.0
 40
43.0
 40
44.0
 40
44.0
 40
44.0
 40
45.0
 40
45.0
 40
45.0
 40
46.0
 40
46.0
 40
46.0
 40
47.0
 40
47.0
 40
47.0
 40
48.0
 40
48.0
 40
48.0
 40
49.0
 40
49.0
 40
49.0
 40
50.0
 40
50.0
 40
50.0
 40
51.0
 40
51.0
 40
51.0
 40
52.0
 40
52.0
 40
52.0
 40
53.0
 40
53.0
 40
53.0
 40
54.0
 40
54.0
 40
54.0
 40
55.0
 40
55.0
 40
55.0
 40
56.0
 40
56.0
 40
56.0
 40
57.0
 40
57.0
 40
57.0
 40
58.0
 40
58.0
 40
58.0
 40
59.0
 40
59.0
 40
59.0
 40
60.0
 40
60.0
 40
60.0
 40
61.0
 40
61.0
 40
61.0
 40
62.0
 40
62.0
 40
62.0
 40
63.0
 40
63.0
 40
63.0
 40
64.0
 40
64.0
 40
64.0
 40
65.0
 40
65.0
 40
65.0
 40
66.0
 40
66.0
 40
66.0
 40
67.0
 40
67.0
 40
67.0
 40
68.0
 40
68.0
 40
68.0
 40
69.0
 40
69.0
 40
69.0
 40
70.0
 40
70.0
 40
70.0
 40
71.0
 40
71.0
 40
71.0
 40
72.0
 40
72.0
 40
72.0
 40
73.0
 40
73.0
 40
73.0
 40
74.0
 40
74.0
 40
74.0
 40
75.0
 40
75.0
 40
75.0
 40
76.0
 40
76.0
 40
76.0
 40
77.0
 40
77.0
 40
77.0
 40
78.0
 40
78.0
 40
78.0
 40
79.0
 40
79.0
 40
79.0
 40
80.0
 40
80.0
 40
80.0
 40
81.0
 40
81.0
 40
81.0
 40
82.0
 40
82.0
 40
82.0
 40
83.0
 40
83.0
 40
83.0
 40
84.0
 40
84.0
 40
84.0
 40
85.0
 40
85.0
 40
85.0
 40
86.0
 40
86.0
 40
86.0
 40
87.0
 40
87.0
 40
87.0
 40
88.0
 40
88.0
 40
88.0
 40
89.0
 40
89.0
 40
89.0
 40
90.0
 40
90.0
 40
90.0
 40
91.0
 40
91.0
 40
91.0
 40
92.0
 40
92.0
 40
92.0
 40
93.0
 40
93.0
 40
93.0
 40
94.0
 40
94.0
 40
94.0
 40
95.0
 40
95.0
 40
95.0
 40
96.0
 40
96.0
 40
96.0
 40
97.0
 40
97.0
 40
97.0
 40
98.0
 40
98.0
 40
98.0
 40
99.0
 40
99.0
 40
99.0
 40
100.0
 40
100.0
 40
100.0
 40
101.0
 40
101.0
 40
101.0
 40
102.0
 40
102.0
 40
102.0
 40
103.0
 40
103.0
 40
103.0
 40
104.0
 40
104.0
 40
104.0
 40
105.0
 40
105.0
 40
105.0
 40
106.0
 40
106.0
 40
106.0
 40
107.0
 40
107.0
 40
107.0
 40
108.0
 40
108.0
 40
108.0
 40
109.0
 40
109.0
 40
109.0
 40
110.0
 40
110.0
 40
110.0
 40
111.0
 40
111.0
 40
111.0
 40
112.0
 40
112.0
 40
112.0
 40
113.0
 40
113.0
 40
113.0
 40
114.0
 40
114.0
 40
114.0
 40
115.0
 40
115.0
 40
115.0
 40
116.0
 40
116.0
 40
116.0
 40
117.0
 40
117.0
 40
117.0
 40
118.0
 40
118.0
 40
118.0
 40
119.0
 40
119.0
 40
119.0
 40
119.0
 10
339.7907581751435
 20
-24.02715097462472
 30
0.0
 10
339.7907581751435
 20
-24.02715097462472
 30
0.0
 10
338.3247623869357
 20
-24.02715097462472
 30
0.0
 10
338.3247623869357
 20
-24.02715097462472
 30
0.0
 10
336.8961889484365
 20
-24.02715097462472
 30
0.0
 10
335.738098569223
 20
-25.18524135383824
 30
0.0
 10
335.738098569223
 20
-26.61381479233743
 30
0.0
 10
335.738098569223
 20
-26.61381479233743
 30
0.0
 10
335.738098569223
 20
-26.67152014171537
 30
0.0
 10
335.738098569223
 20
-26.67152014171537
 30
0.0
 10
335.738098569223
 20
-26.67152014171537
 30
0.0
 10
335.738098569223
 20
-50.33760357763913
 30
0.0
 10
335.738098569223
 20
-50.33760357763913
 30
0.0
 10
336.2834356526913
 20
-50.34882166981297
 30
0.0
 10
336.7225776678267
 20
-50.79254996831314
 30
0.0
 10
336.7225776678267
 20
-51.34057853262927
 30
0.0
 10
336.7225776678267
 20
-51.89564801084337
 30
0.0
 10
336.2726051337596
 20
-52.34562054491056
 30
0.0
 10
335.7175356555455
 20
-52.34562054491056
 30
0.0
 10
335.2475169721235
 20
-52.34562054491056
 30
0.0
 10
334.8560249339184
 20
-52.02158778267603
 30
0.0
 10
334.7461263879389
 20
-51.58565401271123
 30
0.0
 10
334.7461263879389
 20
-51.58565401271123
 30
0.0
 10
299.3506555444657
 20
-51.55970813733794
 30
0.0
 10
299.3506555444657
 20
-51.55970813733794
 30
0.0
 10
299.2504247976917
 20
-52.00907777969522
 30
0.0
 10
298.8507506577093
 20
-52.34562054491056
 30
0.0
 10
298.3711718343156
 20
-52.34562054491056
 30
0.0
 10
297.8161023561016
 20
-52.34562054491056
 30
0.0
 10
297.3661298220343
 20
-51.89564801084337
 30
0.0
 10
297.3661298220343
 20
-51.34057853262927
 30
0.0
 10
297.3661298220343
 20
-50.78550905441517
 30
0.0
 10
297.8161023561016
 20
-50.33553652034798
 30
0.0
 10
298.3711718343156
 20
-50.33553652034798
 30
0.0
 10
298.3746384616477
 20
-50.33553652034798
 30
0.0
 10
298.3778251749715
 20
-50.3365054534532
 30
0.0
 10
298.3812702704568
 20
-50.33654851714676
 30
0.0
 10
298.3812702704568
 20
-50.33654851714676
 30
0.0
 10
299.2169643077913
 20
-26.67152014171537
 30
0.0
 10
299.2169643077913
 20
-26.67152014171537
 30
0.0
 10
299.2169643077913
 20
-26.67152014171537
 30
0.0
 10
299.2080931869168
 20
-26.67152014171537
 30
0.0
 10
299.2080931869168
 20
-26.67152014171537
 30
0.0
 10
299.2080931869168
 20
-25.21107956997762
 30
0.0
 10
298.0241645915639
 20
-24.02715097462472
 30
0.0
 10
296.5637240198261
 20
-24.02715097462472
 30
0.0
 10
296.5637240198261
 20
-24.02715097462472
 30
0.0
 10
294.5042890024373
 20
-24.02715097462472
 30
0.0
 10
294.5042890024373
 20
-24.02715097462472
 30
0.0
 10
294.5042890024373
 20
-24.02715097462472
 30
0.0
 10
294.5042890024373
 20
-48.85039892035034
 30
0.0
 10
294.5042890024373
 20
-48.85039892035034
 30
0.0
 10
294.5042890024373
 20
-49.34543760973395
 30
0.0
 10
294.3712221893195
 20
-49.80671436336212
 30
0.0
 10
293.8834827959953
 20
-49.89137758491214
 30
0.0
 10
293.2522551757104
 20
-50.00097468503665
 30
0.0
 10
292.9042789998534
 20
-49.51795076615784
 30
0.0
 10
292.9042789998534
 20
-48.90698461369556
 30
0.0
 10
292.9042789998534
 20
-48.90698461369556
 30
0.0
 10
292.9042789998534
 20
-24.02715097462472
 30
0.0
 10
292.9042789998534
 20
-24.02715097462472
 30
0.0
 10
292.9042789998534
 20
-24.02715097462472
 30
0.0
 10
291.0397933232362
 20
-24.02715097462472
 30
0.0
 10
291.0397933232362
 20
-24.02715097462472
 30
0.0
 10
289.5793527514984
 20
-24.02715097462472
 30
0.0
 10
288.3954241561455
 20
-25.21107956997762
 30
0.0
 10
288.3954241561455
 20
-26.67152014171537
 30
0.0
 10
288.3954241561455
 20
-26.67152014171537
 30
0.0
 10
288.386553035271
 20
-26.67152014171537
 30
0.0
 10
288.386553035271
 20
-26.67152014171537
 30
0.0
 10
288.386553035271
 20
-26.67152014171537
 30
0.0
 10
289.2222470726054
 20
-50.33648392160642
 30
0.0
 10
289.2222470726054
 20
-50.33648392160642
 30
0.0
 10
289.2254337859293
 20
-50.33646238975964
 30
0.0
 10
289.2283836489386
 20
-50.33553652034798
 30
0.0
 10
289.2315703622625
 20
-50.33553652034798
 30
0.0
 10
289.7866398404765
 20
-50.33553652034798
 30
0.0
 10
290.2366123745437
 20
-50.78550905441517
 30
0.0
 10
290.2366123745437
 20
-51.34057853262927
 30
0.0
 10
290.2366123745437
 20
-51.89564801084337
 30
0.0
 10
289.7866398404765
 20
-52.34562054491056
 30
0.0
 10
289.2315703622625
 20
-52.34562054491056
 30
0.0
 10
288.7519915388689
 20
-52.34562054491056
 30
0.0
 10
288.3523173988863
 20
-52.00907777969522
 30
0.0
 10
288.2520866521123
 20
-51.55970813733794
 30
0.0
 10
288.2520866521123
 20
-51.55970813733794
 30
0.0
 10
252.8796118210032
 20
-51.58563248086444
 30
0.0
 10
252.8796118210032
 20
-51.58563248086444
 30
0.0
 10
252.7697348068705
 20
-52.02156625082924
 30
0.0
 10
252.3782427686654
 20
-52.34562054491056
 30
0.0
 10
251.9082025533966
 20
-52.34562054491056
 30
0.0
 10
251.3531330751826
 20
-52.34562054491056
 30
0.0
 10
250.9031605411154
 20
-51.89564801084337
 30
0.0
 10
250.9031605411154
 20
-51.34057853262927
 30
0.0
 10
250.9031605411154
 20
-50.80017224207427
 30
0.0
 10
251.3306538271413
 20
-50.36273124283467
 30
0.0
 10
251.8654187738392
 20
-50.33984288970454
 30
0.0
 10
251.8654187738392
 20
-50.33984288970454
 30
0.0
 10
251.8654187738392
 20
-26.67152014171537
 30
0.0
 10
251.8654187738392
 20
-26.67152014171537
 30
0.0
 10
251.8654187738392
 20
-26.67152014171537
 30
0.0
 10
251.8654187738392
 20
-26.61381479233743
 30
0.0
 10
251.8654187738392
 20
-26.61381479233743
 30
0.0
 10
251.8654187738392
 20
-25.18524135383824
 30
0.0
 10
250.7073499264725
 20
-24.02715097462472
 30
0.0
 10
249.2787549561265
 20
-24.02715097462472
 30
0.0
 10
249.2787549561265
 20
-24.02715097462472
 30
0.0
 10
246.7794243089649
 20
-24.02715097462472
 30
0.0
 10
246.7794243089649
 20
-24.02715097462472
 30
0.0
 10
245.3508508704657
 20
-24.02715097462472
 30
0.0
 10
244.1927604912522
 20
-25.18524135383824
 30
0.0
 10
244.1927604912522
 20
-26.61381479233743
 30
0.0
 10
244.1927604912522
 20
-26.61381479233743
 30
0.0
 10
244.1927604912522
 20
-26.67152014171537
 30
0.0
 10
244.1927604912522
 20
-26.67152014171537
 30
0.0
 10
244.1927604912522
 20
-26.67152014171537
 30
0.0
 10
244.1927604912522
 20
-50.33796961903443
 30
0.0
 10
244.1927604912522
 20
-50.33796961903443
 30
0.0
 10
244.7364180906714
 20
-50.35112557741873
 30
0.0
 10
245.1736437714432
 20
-50.79377728357977
 30
0.0
 10
245.1736437714432
 20
-51.34057853262927
 30
0.0
 10
245.1736437714432
 20
-51.89564801084337
 30
0.0
 10
244.723671237376
 20
-52.34562054491056
 30
0.0
 10
244.1686017591619
 20
-52.34562054491056
 30
0.0
 10
243.6985615438931
 20
-52.34562054491056
 30
0.0
 10
243.307069505688
 20
-52.02158778267603
 30
0.0
 10
243.1971709597085
 20
-51.58565401271123
 30
0.0
 10
243.1971709597085
 20
-51.58565401271123
 30
0.0
 10
207.8559819019748
 20
-51.5597512010315
 30
0.0
 10
207.8559819019748
 20
-51.5597512010315
 30
0.0
 10
207.7557511552008
 20
-52.00912084338877
 30
0.0
 10
207.3561200789118
 20
-52.34562054491056
 30
0.0
 10
206.8765412555183
 20
-52.34562054491056
 30
0.0
 10
206.3214717773042
 20
-52.34562054491056
 30
0.0
 10
205.871499243237
 20
-51.89564801084337
 30
0.0
 10
205.871499243237
 20
-51.34057853262927
 30
0.0
 10
205.871499243237
 20
-50.79946169113043
 30
0.0
 10
206.3000691216021
 20
-50.36148239572126
 30
0.0
 10
206.835824533252
 20
-50.33964910308349
 30
0.0
 10
206.835824533252
 20
-50.33964910308349
 30
0.0
 10
207.6716262298204
 20
-26.67152014171537
 30
0.0
 10
207.6716262298204
 20
-26.67152014171537
 30
0.0
 10
207.6716262298204
 20
-26.67152014171537
 30
0.0
 10
207.6627551089459
 20
-26.67152014171537
 30
0.0
 10
207.6627551089459
 20
-26.67152014171537
 30
0.0
 10
207.6627551089459
 20
-25.21107956997762
 30
0.0
 10
206.478826513593
 20
-24.02715097462472
 30
0.0
 10
205.0183859418552
 20
-24.02715097462472
 30
0.0
 10
205.0183859418552
 20
-24.02715097462472
 30
0.0
 10
202.9589509244664
 20
-24.02715097462472
 30
0.0
 10
202.9589509244664
 20
-24.02715097462472
 30
0.0
 10
202.9589509244664
 20
-24.02715097462472
 30
0.0
 10
202.9589509244664
 20
-48.75040502389096
 30
0.0
 10
202.9589509244664
 20
-48.75040502389096
 30
0.0
 10
202.9589509244664
 20
-49.29190943863188
 30
0.0
 10
202.7534509787713
 20
-49.77725879696324
 30
0.0
 10
202.2127001786678
 20
-49.80557317548264
 30
0.0
 10
201.6359911944369
 20
-49.83573929282536
 30
0.0
 10
201.3589409218825
 20
-49.37708942450469
 30
0.0
 10
201.3589409218825
 20
-48.80699071723618
 30
0.0
 10
201.3589409218825
 20
-48.80699071723618
 30
0.0
 10
201.3589409218825
 20
-24.02715097462472
 30
0.0
 10
201.3589409218825
 20
-24.02715097462472
 30
0.0
 10
201.3589409218825
 20
-24.02715097462472
 30
0.0
 10
199.4944552452652
 20
-24.02715097462472
 30
0.0
 10
199.4944552452652
 20
-24.02715097462472
 30
0.0
 10
198.0340146735275
 20
-24.02715097462472
 30
0.0
 10
196.8500860781746
 20
-25.21107956997762
 30
0.0
 10
196.8500860781746
 20
-26.67152014171537
 30
0.0
 10
196.8500860781746
 20
-26.67152014171537
 30
0.0
 10
196.8412149573001
 20
-26.67152014171537
 30
0.0
 10
196.8412149573001
 20
-26.67152014171537
 30
0.0
 10
196.8412149573001
 20
-26.67152014171537
 30
0.0
 10
197.6770166538685
 20
-50.33958450754314
 30
0.0
 10
197.6770166538685
 20
-50.33958450754314
 30
0.0
 10
198.2130735113734
 20
-50.36109482247917
 30
0.0
 10
198.6419663674402
 20
-50.7992463726626
 30
0.0
 10
198.6419663674402
 20
-51.34057853262927
 30
0.0
 10
198.6419663674402
 20
-51.89564801084337
 30
0.0
 10
198.1920153652198
 20
-52.34562054491056
 30
0.0
 10
197.6369458870057
 20
-52.34562054491056
 30
0.0
 10
197.1573670636121
 20
-52.34562054491056
 30
0.0
 10
196.7577144554764
 20
-52.00912084338877
 30
0.0
 10
196.6574837087024
 20
-51.5597512010315
 30
0.0
 10
196.6574837087024
 20
-51.5597512010315
 30
0.0
 10
161.3443506473267
 20
-51.58563248086444
 30
0.0
 10
161.3443506473267
 20
-51.58563248086444
 30
0.0
 10
161.234473633194
 20
-52.02158778267603
 30
0.0
 10
160.8430031268357
 20
-52.34562054491056
 30
0.0
 10
160.3729413797201
 20
-52.34562054491056
 30
0.0
 10
159.817871901506
 20
-52.34562054491056
 30
0.0
 10
159.3678993674388
 20
-51.89564801084337
 30
0.0
 10
159.3678993674388
 20
-51.34057853262927
 30
0.0
 10
159.3678993674388
 20
-50.80361733755951
 30
0.0
 10
159.790117351003
 20
-50.36891088286133
 30
0.0
 10
160.3200806958683
 20
-50.34085488650333
 30
0.0
 10
160.3200806958683
 20
-50.34085488650333
 30
0.0
 10
160.3200806958683
 20
-26.67152014171537
 30
0.0
 10
160.3200806958683
 20
-26.67152014171537
 30
0.0
 10
160.3200806958683
 20
-26.67152014171537
 30
0.0
 10
160.3200806958683
 20
-26.61381479233743
 30
0.0
 10
160.3200806958683
 20
-26.61381479233743
 30
0.0
 10
160.3200806958683
 20
-25.18524135383824
 30
0.0
 10
159.1620118485016
 20
-24.02715097462472
 30
0.0
 10
157.7334168781556
 20
-24.02715097462472
 30
0.0
 10
157.7334168781556
 20
-24.02715097462472
 30
0.0
 10
155.2340646991472
 20
-24.02715097462472
 30
0.0
 10
155.2340646991472
 20
-24.02715097462472
 30
0.0
 10
153.805491260648
 20
-24.02715097462472
 30
0.0
 10
152.6474008814345
 20
-25.18524135383824
 30
0.0
 10
152.6474008814345
 20
-26.61381479233743
 30
0.0
 10
152.6474008814345
 20
-26.61381479233743
 30
0.0
 10
152.6474008814345
 20
-26.67152014171537
 30
0.0
 10
152.6474008814345
 20
-26.67152014171537
 30
0.0
 10
152.6474008814345
 20
-26.67152014171537
 30
0.0
 10
152.6474008814345
 20
-50.33917540245427
 30
0.0
 10
152.6474008814345
 20
-50.33917540245427
 30
0.0
 10
153.185374073303
 20
-50.35861866009915
 30
0.0
 10
153.616333986661
 20
-50.7978683344685
 30
0.0
 10
153.616333986661
 20
-51.34057853262927
 30
0.0
 10
153.616333986661
 20
-51.89564801084337
 30
0.0
 10
153.1663614525938
 20
-52.34562054491056
 30
0.0
 10
152.6112919743797
 20
-52.34562054491056
 30
0.0
 10
152.1412517591109
 20
-52.34562054491056
 30
0.0
 10
151.7497597209058
 20
-52.02158778267603
 30
0.0
 10
151.6398827067732
 20
-51.58565401271123
 30
0.0
 10
151.6398827067732
 20
-51.58565401271123
 30
0.0
 10
116.2808006843629
 20
-51.55972966918472
 30
0.0
 10
116.2808006843629
 20
-51.55972966918472
 30
0.0
 10
116.2703362068265
 20
-52.10573423990325
 30
0.0
 10
115.8261988032374
 20
-52.54560833782932
 30
0.0
 10
115.2776965382921
 20
-52.54560833782932
 30
0.0
 10
114.722627060078
 20
-52.54560833782932
 30
0.0
 10
114.2726545260108
 20
-52.09565733560889
 30
0.0
 10
114.2726545260108
 20
-51.5405878573948
 30
0.0
 10
114.2726545260108
 20
-50.9855183791807
 30
0.0
 10
114.722627060078
 20
-50.53554584511351
 30
0.0
 10
115.2776965382921
 20
-50.53554584511351
 30
0.0
 10
115.2796990000429
 20
-50.53554584511351
 30
0.0
 10
115.2815292070194
 20
-50.53610567312986
 30
0.0
 10
115.2835316687703
 20
-50.53612720497664
 30
0.0
 10
115.2835316687703
 20
-50.53612720497664
 30
0.0
 10
116.1262666200027
 20
-26.67152014171537
 30
0.0
 10
116.1262666200027
 20
-26.67152014171537
 30
0.0
 10
116.1262666200027
 20
-26.67152014171537
 30
0.0
 10
116.1173954991282
 20
-26.67152014171537
 30
0.0
 10
116.1173954991282
 20
-26.67152014171537
 30
0.0
 10
116.1173954991282
 20
-25.21107956997762
 30
0.0
 10
114.9334669037753
 20
-24.02715097462472
 30
0.0
 10
113.4730263320375
 20
-24.02715097462472
 30
0.0
 10
113.4730263320375
 20
-24.02715097462472
 30
0.0
 10
111.4135913146488
 20
-24.02715097462472
 30
0.0
 10
111.4135913146488
 20
-24.02715097462472
 30
0.0
 10
111.4135913146488
 20
-24.02715097462472
 30
0.0
 10
111.4135913146488
 20
-48.75034042835061
 30
0.0
 10
111.4135913146488
 20
-48.75034042835061
 30
0.0
 10
111.4135913146488
 20
-49.2454221814278
 30
0.0
 10
111.2805029696842
 20
-49.70676353059631
 30
0.0
 10
110.7927205126664
 20
-49.79140522029954
 30
0.0
 10
110.1615144242283
 20
-49.90093772488371
 30
0.0
 10
109.8135813120648
 20
-49.41795686969847
 30
0.0
 10
109.8135813120648
 20
-48.80699071723618
 30
0.0
 10
109.8135813120648
 20
-48.80699071723618
 30
0.0
 10
109.8135813120648
 20
-24.02715097462472
 30
0.0
 10
109.8135813120648
 20
-24.02715097462472
 30
0.0
 10
109.8135813120648
 20
-24.02715097462472
 30
0.0
 10
107.8765117799427
 20
-24.02715097462472
 30
0.0
 10
107.8765117799427
 20
-24.02715097462472
 30
0.0
 10
106.5640165274497
 20
-24.02715097462472
 30
0.0
 10
105.4816321215245
 20
-25.00067036321598
 30
0.0
 10
105.304726468357
 20
-26.26441751459275
 30
0.0
 10
105.304726468357
 20
-26.26441751459275
 30
0.0
 10
105.304726468357
 20
-26.67152014171537
 30
0.0
 10
105.304726468357
 20
-26.67152014171537
 30
0.0
 10
105.304726468357
 20
-26.67152014171537
 30
0.0
 10
105.2958553474824
 20
-26.67152014171537
 30
0.0
 10
105.2958553474824
 20
-26.67152014171537
 30
0.0
 10
105.2958553474824
 20
-26.67152014171537
 30
0.0
 10
106.1386548942552
 20
-50.53759137055788
 30
0.0
 10
106.1386548942552
 20
-50.53759137055788
 30
0.0
 10
106.684142700651
 20
-50.54861567611068
 30
0.0
 10
107.1235000342543
 20
-50.99243010199799
 30
0.0
 10
107.1235000342543
 20
-51.5405878573948
 30
0.0
 10
107.1235000342543
 20
-52.09565733560889
 30
0.0
 10
106.6735275001871
 20
-52.54560833782932
 30
0.0
 10
106.118458021973
 20
-52.54560833782932
 30
0.0
 10
105.5699557570276
 20
-52.54560833782932
 30
0.0
 10
105.1258398852854
 20
-52.10575577175004
 30
0.0
 10
105.1153754077489
 20
-51.5597512010315
 30
0.0
 10
105.1153754077489
 20
-51.5597512010315
 30
0.0
 10
69.7525468439985
 20
-51.585675544558
 30
0.0
 10
69.7525468439985
 20
-51.585675544558
 30
0.0
 10
69.72847423929531
 20
-52.11936389891677
 30
0.0
 10
69.29167919545919
 20
-52.54560833782932
 30
0.0
 10
68.75204805138839
 20
-52.54560833782932
 30
0.0
 10
68.19697857317428
 20
-52.54560833782932
 30
0.0
 10
67.74700603910709
 20
-52.09565733560889
 30
0.0
 10
67.74700603910709
 20
-51.5405878573948
 30
0.0
 10
67.74700603910709
 20
-50.9855183791807
 30
0.0
 10
68.19697857317428
 20
-50.53554584511351
 30
0.0
 10
68.75204805138839
 20
-50.53554584511351
 30
0.0
 10
68.75982104807697
 20
-50.53554584511351
 30
0.0
 10
68.76699115305566
 20
-50.53765596609823
 30
0.0
 10
68.77472108605068
 20
-50.53782822087249
 30
0.0
 10
68.77472108605068
 20
-50.53782822087249
 30
0.0
 10
68.77472108605068
 20
-26.67152014171537
 30
0.0
 10
68.77472108605068
 20
-26.67152014171537
 30
0.0
 10
68.77472108605068
 20
-26.67152014171537
 30
0.0
 10
68.77472108605068
 20
-26.61381479233743
 30
0.0
 10
68.77472108605068
 20
-26.61381479233743
 30
0.0
 10
68.77472108605068
 20
-26.61381479233743
 30
0.0
 10
68.77472108605068
 20
-26.5913140124494
 30
0.0
 10
68.77472108605068
 20
-26.5913140124494
 30
0.0
 10
68.75534242394614
 20
-25.17204233176038
 30
0.0
 10
67.60037416251615
 20
-24.02715097462472
 30
0.0
 10
66.17651619846238
 20
-24.02715097462472
 30
0.0
 10
66.17651619846238
 20
-24.02715097462472
 30
0.0
 10
54.69074010541369
 20
-24.02715097462472
 30
0.0
 10
54.69074010541369
 20
-24.02715097462472
 30
0.0
 10
51.92932381921168
 20
-24.02715097462472
 30
0.0
 10
49.69072230474312
 20
-26.2657309572465
 30
0.0
 10
49.69072230474312
 20
-29.02716877529529
 30
0.0
 10
49.69072230474312
 20
-29.02716877529529
 30
0.0
 10
49.69072230474312
 20
-59.02716792008479
 30
0.0
 10
49.69072230474312
 20
-59.02716792008479
 30
0.0
 10
49.69072230474312
 20
-61.7885842062868
 30
0.0
 10
51.92930228736489
 20
-64.02716418890857
 30
0.0
 10
54.6907185735669
 20
-64.02716418890857
 30
0.0
 10
54.6907185735669
 20
-64.02716418890857
 30
0.0
 10
323.6907503802318
 20
-64.02716418890857
 30
0.0
 10
323.6907503802318
 20
-64.02716418890857
 30
0.0
 10
324.243042250211
 20
-64.02716418890857
 30
0.0
 10
324.6907539403659
 20
-63.57945249875357
 30
0.0
 10
324.6907539403659
 20
-63.02716062877446
 30
0.0
 10
324.6907539403659
 20
-63.02716062877446
 30
0.0
 10
324.6907539403659
 20
-61.01780868700249
 30
0.0
 10
324.6907539403659
 20
-61.01780868700249
 30
0.0
 10
324.6907539403659
 20
-61.01780868700249
 30
0.0
 10
327.7907369853809
 20
-61.01780868700249
 30
0.0
 10
327.7907369853809
 20
-61.01780868700249
 30
0.0
 10
327.7907369853809
 20
-61.01780868700249
 30
0.0
 10
327.7907369853809
 20
-63.02716062877446
 30
0.0
 10
327.7907369853809
 20
-63.02716062877446
 30
0.0
 10
327.7907369853809
 20
-63.57945249875357
 30
0.0
 10
328.2384486755359
 20
-64.02716418890857
 30
0.0
 10
328.790740545515
 20
-64.02716418890857
 30
0.0
 10
328.790740545515
 20
-64.02716418890857
 30
0.0
 10
345.7907364722546
 20
-64.02716418890857
 30
0.0
 10
345.7907364722546
 20
-64.02716418890857
 30
0.0
 10
346.8953202122128
 20
-64.02716418890857
 30
0.0
 10
347.7907435925228
 20
-63.13171927675179
 30
0.0
 10
347.7907435925228
 20
-62.02715706864035
 30
0.0
 10
347.7907435925228
 20
-62.02715706864035
 30
0.0
 10
347.7907435925228
 20
-32.02713639200407
 30
0.0
 10
347.7907435925228
 20
-32.02713639200407
 30
0.0
 10
344.666558751724
 20
-28.90295155120525
 30
0.0
 10
342.9149430159423
 20
-27.15133581542354
 30
0.0
 10
339.7907581751435
 20
-24.02715097462472
 30
0.0
  0
CIRCLE
  5
7A
330
70
100
AcDbEntity
  8
Layer 1
 62
   250
370
    20
100
AcDbCircle
 10
58.26688335816715
 20
-44.02716704967085
 30
0.0
 40
3.002364065443138
  0
SPLINE
  5
7B
330
70
100
AcDbEntity
  8
Layer 1
100
AcDbSpline
210
0.0
220
0.0
230
1.0
 70
     9
 71
     3
 72
    47
 73
    43
 74
     0
 42
0.0000000001
 43
0.0000000001
 40
0.0
 40
0.0
 40
0.0
 40
0.0
 40
1.0
 40
1.0
 40
1.0
 40
2.0
 40
2.0
 40
2.0
 40
3.0
 40
3.0
 40
3.0
 40
4.0
 40
4.0
 40
4.0
 40
5.0
 40
5.0
 40
5.0
 40
6.0
 40
6.0
 40
6.0
 40
7.0
 40
7.0
 40
7.0
 40
8.0
 40
8.0
 40
8.0
 40
9.0
 40
9.0
 40
9.0
 40
10.0
 40
10.0
 40
10.0
 40
11.0
 40
11.0
 40
11.0
 40
12.0
 40
12.0
 40
12.0
 40
13.0
 40
13.0
 40
13.0
 40
14.0
 40
14.0
 40
14.0
 40
14.0
 10
174.1573913138826
 20
-58.16389158702153
 30
0.0
 10
174.3499721515081
 20
-58.28240287171412
 30
0.0
 10
174.6317809622015
 20
-58.38127711214079
 30
0.0
 10
174.9284036834815
 20
-58.38127711214079
 30
0.0
 10
175.3679978673994
 20
-58.38127711214079
 30
0.0
 10
175.625001990599
 20
-58.14907767643496
 30
0.0
 10
175.625001990599
 20
-57.81283635707457
 30
0.0
 10
175.625001990599
 20
-57.50174423475651
 30
0.0
 10
175.4472350635601
 20
-57.32363279816909
 30
0.0
 10
174.9973055931865
 20
-57.15068900480955
 30
0.0
 10
174.4540140351626
 20
-56.95810816718409
 30
0.0
 10
174.1177727158022
 20
-56.67629935649065
 30
0.0
 10
174.1177727158022
 20
-56.2067328418511
 30
0.0
 10
174.1177727158022
 20
-55.68790146177247
 30
0.0
 10
174.5477206323614
 20
-55.30273978652154
 30
0.0
 10
175.1950540740398
 20
-55.30273978652154
 30
0.0
 10
175.5361185270796
 20
-55.30273978652154
 30
0.0
 10
175.783131873372
 20
-55.38163247313376
 30
0.0
 10
175.9312709792377
 20
-55.46569280297386
 30
0.0
 10
175.9312709792377
 20
-55.46569280297386
 30
0.0
 10
175.8127596945451
 20
-55.81640352337228
 30
0.0
 10
175.8127596945451
 20
-55.81640352337228
 30
0.0
 10
175.7042391867598
 20
-55.75714788102599
 30
0.0
 10
175.4816860184126
 20
-55.65827364059932
 30
0.0
 10
175.1802401634533
 20
-55.65827364059932
 30
0.0
 10
174.7258320689488
 20
-55.65827364059932
 30
0.0
 10
174.5528882755893
 20
-55.93009167438554
 30
0.0
 10
174.5528882755893
 20
-56.15746797641202
 30
0.0
 10
174.5528882755893
 20
-56.46890460827861
 30
0.0
 10
174.755459890122
 20
-56.6218668478237
 30
0.0
 10
175.2150356278543
 20
-56.79997828441112
 30
0.0
 10
175.7783087396927
 20
-57.01736380953039
 30
0.0
 10
176.0649406840654
 20
-57.2891818433166
 30
0.0
 10
176.0649406840654
 20
-57.77838540222207
 30
0.0
 10
176.0649406840654
 20
-58.29204913907283
 30
0.0
 10
175.6842576329453
 20
-58.73681096621858
 30
0.0
 10
174.8987758623084
 20
-58.73681096621858
 30
0.0
 10
174.5773484535345
 20
-58.73681096621858
 30
0.0
 10
174.2266377331361
 20
-58.64310436901978
 30
0.0
 10
174.0485262965487
 20
-58.52459308432718
 30
0.0
 10
174.0485262965487
 20
-58.52459308432718
 30
0.0
 10
174.1573913138826
 20
-58.16389158702153
 30
0.0
 10
174.1573913138826
 20
-58.16389158702153
 30
0.0
  0
HATCH
  5
7C
330
70
100
AcDbEntity
  8
Layer 1
 62
   114
440
 33554687
100
AcDbHatch
 10
0.0
 20
0.0
 30
0.0
210
0.0
220
0.0
230
1.0
  2
SOLID
 70
     1
 71
     1
 91
        1
 92
        1
 93
        1
 72
     4
 94
        3
 73
     0
 74
     0
 95
       47
 96
       43
 40
0.0
 40
0.0
 40
0.0
 40
0.0
 40
1.0
 40
1.0
 40
1.0
 40
2.0
 40
2.0
 40
2.0
 40
3.0
 40
3.0
 40
3.0
 40
4.0
 40
4.0
 40
4.0
 40
5.0
 40
5.0
 40
5.0
 40
6.0
 40
6.0
 40
6.0
 40
7.0
 40
7.0
 40
7.0
 40
8.0
 40
8.0
 40
8.0
 40
9.0
 40
9.0
 40
9.0
 40
10.0
 40
10.0
 40
10.0
 40
11.0
 40
11.0
 40
11.0
 40
12.0
 40
12.0
 40
12.0
 40
13.0
 40
13.0
 40
13.0
 40
14.0
 40
14.0
 40
14.0
 40
14.0
 10
174.1573913138826
 20
-58.16389158702153
 10
174.3499721515081
 20
-58.28240287171412
 10
174.6317809622015
 20
-58.38127711214079
 10
174.9284036834815
 20
-58.38127711214079
 10
175.3679978673994
 20
-58.38127711214079
 10
175.625001990599
 20
-58.14907767643496
 10
175.625001990599
 20
-57.81283635707457
 10
175.625001990599
 20
-57.50174423475651
 10
175.4472350635601
 20
-57.32363279816909
 10
174.9973055931865
 20
-57.15068900480955
 10
174.4540140351626
 20
-56.95810816718409
 10
174.1177727158022
 20
-56.67629935649065
 10
174.1177727158022
 20
-56.2067328418511
 10
174.1177727158022
 20
-55.68790146177247
 10
174.5477206323614
 20
-55.30273978652154
 10
175.1950540740398
 20
-55.30273978652154
 10
175.5361185270796
 20
-55.30273978652154
 10
175.783131873372
 20
-55.38163247313376
 10
175.9312709792377
 20
-55.46569280297386
 10
175.9312709792377
 20
-55.46569280297386
 10
175.8127596945451
 20
-55.81640352337228
 10
175.8127596945451
 20
-55.81640352337228
 10
175.7042391867598
 20
-55.75714788102599
 10
175.4816860184126
 20
-55.65827364059932
 10
175.1802401634533
 20
-55.65827364059932
 10
174.7258320689488
 20
-55.65827364059932
 10
174.5528882755893
 20
-55.93009167438554
 10
174.5528882755893
 20
-56.15746797641202
 10
174.5528882755893
 20
-56.46890460827861
 10
174.755459890122
 20
-56.6218668478237
 10
175.2150356278543
 20
-56.79997828441112
 10
175.7783087396927
 20
-57.01736380953039
 10
176.0649406840654
 20
-57.2891818433166
 10
176.0649406840654
 20
-57.77838540222207
 10
176.0649406840654
 20
-58.29204913907283
 10
175.6842576329453
 20
-58.73681096621858
 10
174.8987758623084
 20
-58.73681096621858
 10
174.5773484535345
 20
-58.73681096621858
 10
174.2266377331361
 20
-58.64310436901978
 10
174.0485262965487
 20
-58.52459308432718
 10
174.0485262965487
 20
-58.52459308432718
 10
174.1573913138826
 20
-58.16389158702153
 10
174.1573913138826
 20
-58.16389158702153
 97
        0
 97
        1
330
7B
 75
     2
 76
     1
 98
        1
 10
0.0
 20
0.0
450
        0
451
        0
460
0.0
461
0.0
452
        0
462
0.0
453
        0
470

  0
SPLINE
  5
7D
330
70
100
AcDbEntity
  8
Layer 1
100
AcDbSpline
210
0.0
220
0.0
230
1.0
 70
     9
 71
     3
 72
    17
 73
    13
 74
     0
 42
0.0000000001
 43
0.0000000001
 40
0.0
 40
0.0
 40
0.0
 40
0.0
 40
1.0
 40
1.0
 40
1.0
 40
2.0
 40
2.0
 40
2.0
 40
3.0
 40
3.0
 40
3.0
 40
4.0
 40
4.0
 40
4.0
 40
4.0
 10
176.9334492558969
 20
-57.49657659152863
 30
0.0
 10
176.9334492558969
 20
-58.02057561483514
 30
0.0
 10
177.2348951108563
 20
-58.41572806699329
 30
0.0
 10
177.6596753841876
 20
-58.41572806699329
 30
0.0
 10
178.0748093901602
 20
-58.41572806699329
 30
0.0
 10
178.3862460220268
 20
-58.02539874851448
 30
0.0
 10
178.3862460220268
 20
-57.48658581462141
 30
0.0
 10
178.3862460220268
 20
-57.08144258555603
 30
0.0
 10
178.1836744074941
 20
-56.56777884870528
 30
0.0
 10
177.6696661610948
 20
-56.56777884870528
 30
0.0
 10
177.1556579146955
 20
-56.56777884870528
 30
0.0
 10
176.9334492558969
 20
-57.04216849702419
 30
0.0
 10
176.9334492558969
 20
-57.49657659152863
 30
0.0
  0
SPLINE
  5
7E
330
70
100
AcDbEntity
  8
Layer 1
100
AcDbSpline
210
0.0
220
0.0
230
1.0
 70
     9
 71
     3
 72
    17
 73
    13
 74
     0
 42
0.0000000001
 43
0.0000000001
 40
0.0
 40
0.0
 40
0.0
 40
0.0
 40
1.0
 40
1.0
 40
1.0
 40
2.0
 40
2.0
 40
2.0
 40
3.0
 40
3.0
 40
3.0
 40
4.0
 40
4.0
 40
4.0
 40
4.0
 10
178.8310078491725
 20
-57.47177190403483
 30
0.0
 10
178.8310078491725
 20
-58.35647242464699
 30
0.0
 10
178.2181253623466
 20
-58.74197860944645
 30
0.0
 10
177.6400383399217
 20
-58.74197860944645
 30
0.0
 10
176.9927048982432
 20
-58.74197860944645
 30
0.0
 10
176.4935105624305
 20
-58.26758896112755
 30
0.0
 10
176.4935105624305
 20
-57.51139050211521
 30
0.0
 10
176.4935105624305
 20
-56.71075031134314
 30
0.0
 10
177.017509585737
 20
-56.24152830625212
 30
0.0
 10
177.679656938002
 20
-56.24152830625212
 30
0.0
 10
178.3662644682123
 20
-56.24152830625212
 30
0.0
 10
178.8310078491725
 20
-56.74072264206483
 30
0.0
 10
178.8310078491725
 20
-57.47177190403483
 30
0.0
  0
HATCH
  5
7F
330
70
100
AcDbEntity
  8
Layer 1
 62
   114
440
 33554687
100
AcDbHatch
 10
0.0
 20
0.0
 30
0.0
210
0.0
220
0.0
230
1.0
  2
SOLID
 70
     1
 71
     1
 91
        2
 92
        1
 93
        1
 72
     4
 94
        3
 73
     0
 74
     0
 95
       17
 96
       13
 40
0.0
 40
0.0
 40
0.0
 40
0.0
 40
1.0
 40
1.0
 40
1.0
 40
2.0
 40
2.0
 40
2.0
 40
3.0
 40
3.0
 40
3.0
 40
4.0
 40
4.0
 40
4.0
 40
4.0
 10
176.9334492558969
 20
-57.49657659152863
 10
176.9334492558969
 20
-58.02057561483514
 10
177.2348951108563
 20
-58.41572806699329
 10
177.6596753841876
 20
-58.41572806699329
 10
178.0748093901602
 20
-58.41572806699329
 10
178.3862460220268
 20
-58.02539874851448
 10
178.3862460220268
 20
-57.48658581462141
 10
178.3862460220268
 20
-57.08144258555603
 10
178.1836744074941
 20
-56.56777884870528
 10
177.6696661610948
 20
-56.56777884870528
 10
177.1556579146955
 20
-56.56777884870528
 10
176.9334492558969
 20
-57.04216849702419
 10
176.9334492558969
 20
-57.49657659152863
 97
        0
 97
        1
330
7D
 92
        1
 93
        1
 72
     4
 94
        3
 73
     0
 74
     0
 95
       17
 96
       13
 40
0.0
 40
0.0
 40
0.0
 40
0.0
 40
1.0
 40
1.0
 40
1.0
 40
2.0
 40
2.0
 40
2.0
 40
3.0
 40
3.0
 40
3.0
 40
4.0
 40
4.0
 40
4.0
 40
4.0
 10
178.8310078491725
 20
-57.47177190403483
 10
178.8310078491725
 20
-58.35647242464699
 10
178.2181253623466
 20
-58.74197860944645
 10
177.6400383399217
 20
-58.74197860944645
 10
176.9927048982432
 20
-58.74197860944645
 10
176.4935105624305
 20
-58.26758896112755
 10
176.4935105624305
 20
-57.51139050211521
 10
176.4935105624305
 20
-56.71075031134314
 10
177.017509585737
 20
-56.24152830625212
 10
177.679656938002
 20
-56.24152830625212
 10
178.3662644682123
 20
-56.24152830625212
 10
178.8310078491725
 20
-56.74072264206483
 10
178.8310078491725
 20
-57.47177190403483
 97
        0
 97
        1
330
7E
 75
     2
 76
     1
 98
        1
 10
0.0
 20
0.0
450
        0
451
        0
460
0.0
461
0.0
452
        0
462
0.0
453
        0
470

  0
SPLINE
  5
80
330
70
100
AcDbEntity
  8
Layer 1
100
AcDbSpline
210
0.0
220
0.0
230
1.0
 70
    11
 71
     3
 72
    17
 73
    13
 74
     0
 42
0.0000000001
 43
0.0000000001
 40
0.0
 40
0.0
 40
0.0
 40
0.0
 40
1.0
 40
1.0
 40
1.0
 40
2.0
 40
2.0
 40
2.0
 40
3.0
 40
3.0
 40
3.0
 40
4.0
 40
4.0
 40
4.0
 40
4.0
 10
179.3777445026817
 20
-55.17906085860107
 30
0.0
 10
179.3777445026817
 20
-55.17906085860107
 30
0.0
 10
179.8125155529202
 20
-55.17906085860107
 30
0.0
 10
179.8125155529202
 20
-55.17906085860107
 30
0.0
 10
179.8125155529202
 20
-55.17906085860107
 30
0.0
 10
179.8125155529202
 20
-58.6875461007795
 30
0.0
 10
179.8125155529202
 20
-58.6875461007795
 30
0.0
 10
179.8125155529202
 20
-58.6875461007795
 30
0.0
 10
179.3777445026817
 20
-58.6875461007795
 30
0.0
 10
179.3777445026817
 20
-58.6875461007795
 30
0.0
 10
179.3777445026817
 20
-58.6875461007795
 30
0.0
 10
179.3777445026817
 20
-55.17906085860107
 30
0.0
 10
179.3777445026817
 20
-55.17906085860107
 30
0.0
  0
HATCH
  5
81
330
70
100
AcDbEntity
  8
Layer 1
 62
   114
440
 33554687
100
AcDbHatch
 10
0.0
 20
0.0
 30
0.0
210
0.0
220
0.0
230
1.0
  2
SOLID
 70
     1
 71
     1
 91
        1
 92
        1
 93
        1
 72
     4
 94
        3
 73
     0
 74
     0
 95
       17
 96
       13
 40
0.0
 40
0.0
 40
0.0
 40
0.0
 40
1.0
 40
1.0
 40
1.0
 40
2.0
 40
2.0
 40
2.0
 40
3.0
 40
3.0
 40
3.0
 40
4.0
 40
4.0
 40
4.0
 40
4.0
 10
179.3777445026817
 20
-55.17906085860107
 10
179.3777445026817
 20
-55.17906085860107
 10
179.8125155529202
 20
-55.17906085860107
 10
179.8125155529202
 20
-55.17906085860107
 10
179.8125155529202
 20
-55.17906085860107
 10
179.8125155529202
 20
-58.6875461007795
 10
179.8125155529202
 20
-58.6875461007795
 10
179.8125155529202
 20
-58.6875461007795
 10
179.3777445026817
 20
-58.6875461007795
 10
179.3777445026817
 20
-58.6875461007795
 10
179.3777445026817
 20
-58.6875461007795
 10
179.3777445026817
 20
-55.17906085860107
 10
179.3777445026817
 20
-55.17906085860107
 97
        0
 97
        1
330
80
 75
     2
 76
     1
 98
        1
 10
0.0
 20
0.0
450
        0
451
        0
460
0.0
461
0.0
452
        0
462
0.0
453
        0
470

  0
SPLINE
  5
82
330
70
100
AcDbEntity
  8
Layer 1
100
AcDbSpline
210
0.0
220
0.0
230
1.0
 70
     9
 71
     3
 72
    17
 73
    13
 74
     0
 42
0.0000000001
 43
0.0000000001
 40
0.0
 40
0.0
 40
0.0
 40
0.0
 40
1.0
 40
1.0
 40
1.0
 40
2.0
 40
2.0
 40
2.0
 40
3.0
 40
3.0
 40
3.0
 40
4.0
 40
4.0
 40
4.0
 40
4.0
 10
180.8102152054486
 20
-57.49657659152863
 30
0.0
 10
180.8102152054486
 20
-58.02057561483514
 30
0.0
 10
181.1116610604079
 20
-58.41572806699329
 30
0.0
 10
181.5364413337392
 20
-58.41572806699329
 30
0.0
 10
181.9515753397118
 20
-58.41572806699329
 30
0.0
 10
182.2630119715784
 20
-58.02539874851448
 30
0.0
 10
182.2630119715784
 20
-57.48658581462141
 30
0.0
 10
182.2630119715784
 20
-57.08144258555603
 30
0.0
 10
182.0604403570457
 20
-56.56777884870528
 30
0.0
 10
181.5464321106464
 20
-56.56777884870528
 30
0.0
 10
181.0324238642472
 20
-56.56777884870528
 30
0.0
 10
180.8102152054486
 20
-57.04216849702419
 30
0.0
 10
180.8102152054486
 20
-57.49657659152863
 30
0.0
  0
SPLINE
  5
83
330
70
100
AcDbEntity
  8
Layer 1
100
AcDbSpline
210
0.0
220
0.0
230
1.0
 70
     9
 71
     3
 72
    17
 73
    13
 74
     0
 42
0.0000000001
 43
0.0000000001
 40
0.0
 40
0.0
 40
0.0
 40
0.0
 40
1.0
 40
1.0
 40
1.0
 40
2.0
 40
2.0
 40
2.0
 40
3.0
 40
3.0
 40
3.0
 40
4.0
 40
4.0
 40
4.0
 40
4.0
 10
182.7077737987242
 20
-57.47177190403483
 30
0.0
 10
182.7077737987242
 20
-58.35647242464699
 30
0.0
 10
182.0948913118982
 20
-58.74197860944645
 30
0.0
 10
181.5168042894733
 20
-58.74197860944645
 30
0.0
 10
180.8694708477949
 20
-58.74197860944645
 30
0.0
 10
180.3702765119822
 20
-58.26758896112755
 30
0.0
 10
180.3702765119822
 20
-57.51139050211521
 30
0.0
 10
180.3702765119822
 20
-56.71075031134314
 30
0.0
 10
180.8939310257401
 20
-56.24152830625212
 30
0.0
 10
181.5564228875537
 20
-56.24152830625212
 30
0.0
 10
182.243030417764
 20
-56.24152830625212
 30
0.0
 10
182.7077737987242
 20
-56.74072264206483
 30
0.0
 10
182.7077737987242
 20
-57.47177190403483
 30
0.0
  0
HATCH
  5
84
330
70
100
AcDbEntity
  8
Layer 1
 62
   114
440
 33554687
100
AcDbHatch
 10
0.0
 20
0.0
 30
0.0
210
0.0
220
0.0
230
1.0
  2
SOLID
 70
     1
 71
     1
 91
        2
 92
        1
 93
        1
 72
     4
 94
        3
 73
     0
 74
     0
 95
       17
 96
       13
 40
0.0
 40
0.0
 40
0.0
 40
0.0
 40
1.0
 40
1.0
 40
1.0
 40
2.0
 40
2.0
 40
2.0
 40
3.0
 40
3.0
 40
3.0
 40
4.0
 40
4.0
 40
4.0
 40
4.0
 10
180.8102152054486
 20
-57.49657659152863
 10
180.8102152054486
 20
-58.02057561483514
 10
181.1116610604079
 20
-58.41572806699329
 10
181.5364413337392
 20
-58.41572806699329
 10
181.9515753397118
 20
-58.41572806699329
 10
182.2630119715784
 20
-58.02539874851448
 10
182.2630119715784
 20
-57.48658581462141
 10
182.2630119715784
 20
-57.08144258555603
 10
182.0604403570457
 20
-56.56777884870528
 10
181.5464321106464
 20
-56.56777884870528
 10
181.0324238642472
 20
-56.56777884870528
 10
180.8102152054486
 20
-57.04216849702419
 10
180.8102152054486
 20
-57.49657659152863
 97
        0
 97
        1
330
82
 92
        1
 93
        1
 72
     4
 94
        3
 73
     0
 74
     0
 95
       17
 96
       13
 40
0.0
 40
0.0
 40
0.0
 40
0.0
 40
1.0
 40
1.0
 40
1.0
 40
2.0
 40
2.0
 40
2.0
 40
3.0
 40
3.0
 40
3.0
 40
4.0
 40
4.0
 40
4.0
 40
4.0
 10
182.7077737987242
 20
-57.47177190403483
 10
182.7077737987242
 20
-58.35647242464699
 10
182.0948913118982
 20
-58.74197860944645
 10
181.5168042894733
 20
-58.74197860944645
 10
180.8694708477949
 20
-58.74197860944645
 10
180.3702765119822
 20
-58.26758896112755
 10
180.3702765119822
 20
-57.51139050211521
 10
180.3702765119822
 20
-56.71075031134314
 10
180.8939310257401
 20
-56.24152830625212
 10
181.5564228875537
 20
-56.24152830625212
 10
182.243030417764
 20
-56.24152830625212
 10
182.7077737987242
 20
-56.74072264206483
 10
182.7077737987242
 20
-57.47177190403483
 97
        0
 97
        1
330
83
 75
     2
 76
     1
 98
        1
 10
0.0
 20
0.0
450
        0
451
        0
460
0.0
461
0.0
452
        0
462
0.0
453
        0
470

  0
SPLINE
  5
85
330
70
100
AcDbEntity
  8
Layer 1
100
AcDbSpline
210
0.0
220
0.0
230
1.0
 70
     9
 71
     3
 72
    20
 73
    16
 74
     0
 42
0.0000000001
 43
0.0000000001
 40
0.0
 40
0.0
 40
0.0
 40
0.0
 40
1.0
 40
1.0
 40
1.0
 40
2.0
 40
2.0
 40
2.0
 40
3.0
 40
3.0
 40
3.0
 40
4.0
 40
4.0
 40
4.0
 40
5.0
 40
5.0
 40
5.0
 40
5.0
 10
184.746581306895
 20
-58.36129555832634
 30
0.0
 10
184.8306416367351
 20
-58.37610946891292
 30
0.0
 10
184.9539760551071
 20
-58.38127711214079
 30
0.0
 10
185.1072828042007
 20
-58.38127711214079
 30
0.0
 10
185.5520446313464
 20
-58.38127711214079
 30
0.0
 10
185.9623555036397
 20
-58.21797958613995
 30
0.0
 10
185.9623555036397
 20
-57.73394367046235
 30
0.0
 10
185.9623555036397
 20
-57.27919106640937
 30
0.0
 10
185.5716816756124
 20
-57.09143336246325
 30
0.0
 10
185.1024596705213
 20
-57.09143336246325
 30
0.0
 10
185.1024596705213
 20
-57.09143336246325
 30
0.0
 10
184.746581306895
 20
-57.09143336246325
 30
0.0
 10
184.746581306895
 20
-57.09143336246325
 30
0.0
 10
184.746581306895
 20
-57.09143336246325
 30
0.0
 10
184.746581306895
 20
-58.36129555832634
 30
0.0
 10
184.746581306895
 20
-58.36129555832634
 30
0.0
  0
SPLINE
  5
86
330
70
100
AcDbEntity
  8
Layer 1
100
AcDbSpline
210
0.0
220
0.0
230
1.0
 70
    11
 71
     3
 72
    20
 73
    16
 74
     0
 42
0.0000000001
 43
0.0000000001
 40
0.0
 40
0.0
 40
0.0
 40
0.0
 40
1.0
 40
1.0
 40
1.0
 40
2.0
 40
2.0
 40
2.0
 40
3.0
 40
3.0
 40
3.0
 40
4.0
 40
4.0
 40
4.0
 40
5.0
 40
5.0
 40
5.0
 40
5.0
 10
184.746581306895
 20
-56.76518282001009
 30
0.0
 10
184.746581306895
 20
-56.76518282001009
 30
0.0
 10
185.1369106253738
 20
-56.76518282001009
 30
0.0
 10
185.1369106253738
 20
-56.76518282001009
 30
0.0
 10
185.5916632294268
 20
-56.76518282001009
 30
0.0
 10
185.8583136199852
 20
-56.52816025062491
 30
0.0
 10
185.8583136199852
 20
-56.2067328418511
 30
0.0
 10
185.8583136199852
 20
-55.81640352337228
 30
0.0
 10
185.5620354082537
 20
-55.6634412838272
 30
0.0
 10
185.1272643580151
 20
-55.6634412838272
 30
0.0
 10
184.9295158771618
 20
-55.6634412838272
 30
0.0
 10
184.8158277261486
 20
-55.67825519441377
 30
0.0
 10
184.746581306895
 20
-55.69306910500035
 30
0.0
 10
184.746581306895
 20
-55.69306910500035
 30
0.0
 10
184.746581306895
 20
-56.76518282001009
 30
0.0
 10
184.746581306895
 20
-56.76518282001009
 30
0.0
  0
SPLINE
  5
87
330
70
100
AcDbEntity
  8
Layer 1
100
AcDbSpline
210
0.0
220
0.0
230
1.0
 70
     9
 71
     3
 72
    35
 73
    31
 74
     0
 42
0.0000000001
 43
0.0000000001
 40
0.0
 40
0.0
 40
0.0
 40
0.0
 40
1.0
 40
1.0
 40
1.0
 40
2.0
 40
2.0
 40
2.0
 40
3.0
 40
3.0
 40
3.0
 40
4.0
 40
4.0
 40
4.0
 40
5.0
 40
5.0
 40
5.0
 40
6.0
 40
6.0
 40
6.0
 40
7.0
 40
7.0
 40
7.0
 40
8.0
 40
8.0
 40
8.0
 40
9.0
 40
9.0
 40
9.0
 40
10.0
 40
10.0
 40
10.0
 40
10.0
 10
184.3166333903359
 20
-55.40126951739968
 30
0.0
 10
184.504391094282
 20
-55.36199542886784
 30
0.0
 10
184.801013815562
 20
-55.33236760769469
 30
0.0
 10
185.1024596705213
 20
-55.33236760769469
 30
0.0
 10
185.5324075870805
 20
-55.33236760769469
 30
0.0
 10
185.8090487545461
 20
-55.40643716062756
 30
0.0
 10
186.0164435027581
 20
-55.57421331075922
 30
0.0
 10
186.1893872961177
 20
-55.70271537235904
 30
0.0
 10
186.2934291797722
 20
-55.90046385321238
 30
0.0
 10
186.2934291797722
 20
-56.16229111009137
 30
0.0
 10
186.2934291797722
 20
-56.48371851886518
 30
0.0
 10
186.0808667883323
 20
-56.76518282001009
 30
0.0
 10
185.7298115583853
 20
-56.89368488160991
 30
0.0
 10
185.7298115583853
 20
-56.89368488160991
 30
0.0
 10
185.7298115583853
 20
-56.90367565851714
 30
0.0
 10
185.7298115583853
 20
-56.90367565851714
 30
0.0
 10
186.0460713239312
 20
-56.98256834512935
 30
0.0
 10
186.4167635981442
 20
-57.24474011155687
 30
0.0
 10
186.4167635981442
 20
-57.73876680414169
 30
0.0
 10
186.4167635981442
 20
-58.02539874851448
 30
0.0
 10
186.3030754471309
 20
-58.24278427363375
 30
0.0
 10
186.1352992969992
 20
-58.40573729008607
 30
0.0
 10
185.9027553517449
 20
-58.61829968152598
 30
0.0
 10
185.5272399438526
 20
-58.71717392195265
 30
0.0
 10
184.9839483858287
 20
-58.71717392195265
 30
0.0
 10
184.6873256645487
 20
-58.71717392195265
 30
0.0
 10
184.4599493625222
 20
-58.69753687768673
 30
0.0
 10
184.3166333903359
 20
-58.67755532387228
 30
0.0
 10
184.3166333903359
 20
-58.67755532387228
 30
0.0
 10
184.3166333903359
 20
-55.40126951739968
 30
0.0
 10
184.3166333903359
 20
-55.40126951739968
 30
0.0
  0
HATCH
  5
88
330
70
100
AcDbEntity
  8
Layer 1
 62
   114
440
 33554687
100
AcDbHatch
 10
0.0
 20
0.0
 30
0.0
210
0.0
220
0.0
230
1.0
  2
SOLID
 70
     1
 71
     1
 91
        3
 92
        1
 93
        1
 72
     4
 94
        3
 73
     0
 74
     0
 95
       20
 96
       16
 40
0.0
 40
0.0
 40
0.0
 40
0.0
 40
1.0
 40
1.0
 40
1.0
 40
2.0
 40
2.0
 40
2.0
 40
3.0
 40
3.0
 40
3.0
 40
4.0
 40
4.0
 40
4.0
 40
5.0
 40
5.0
 40
5.0
 40
5.0
 10
184.746581306895
 20
-58.36129555832634
 10
184.8306416367351
 20
-58.37610946891292
 10
184.9539760551071
 20
-58.38127711214079
 10
185.1072828042007
 20
-58.38127711214079
 10
185.5520446313464
 20
-58.38127711214079
 10
185.9623555036397
 20
-58.21797958613995
 10
185.9623555036397
 20
-57.73394367046235
 10
185.9623555036397
 20
-57.27919106640937
 10
185.5716816756124
 20
-57.09143336246325
 10
185.1024596705213
 20
-57.09143336246325
 10
185.1024596705213
 20
-57.09143336246325
 10
184.746581306895
 20
-57.09143336246325
 10
184.746581306895
 20
-57.09143336246325
 10
184.746581306895
 20
-57.09143336246325
 10
184.746581306895
 20
-58.36129555832634
 10
184.746581306895
 20
-58.36129555832634
 97
        0
 97
        1
330
85
 92
        1
 93
        1
 72
     4
 94
        3
 73
     0
 74
     0
 95
       20
 96
       16
 40
0.0
 40
0.0
 40
0.0
 40
0.0
 40
1.0
 40
1.0
 40
1.0
 40
2.0
 40
2.0
 40
2.0
 40
3.0
 40
3.0
 40
3.0
 40
4.0
 40
4.0
 40
4.0
 40
5.0
 40
5.0
 40
5.0
 40
5.0
 10
184.746581306895
 20
-56.76518282001009
 10
184.746581306895
 20
-56.76518282001009
 10
185.1369106253738
 20
-56.76518282001009
 10
185.1369106253738
 20
-56.76518282001009
 10
185.5916632294268
 20
-56.76518282001009
 10
185.8583136199852
 20
-56.52816025062491
 10
185.8583136199852
 20
-56.2067328418511
 10
185.8583136199852
 20
-55.81640352337228
 10
185.5620354082537
 20
-55.6634412838272
 10
185.1272643580151
 20
-55.6634412838272
 10
184.9295158771618
 20
-55.6634412838272
 10
184.8158277261486
 20
-55.67825519441377
 10
184.746581306895
 20
-55.69306910500035
 10
184.746581306895
 20
-55.69306910500035
 10
184.746581306895
 20
-56.76518282001009
 10
184.746581306895
 20
-56.76518282001009
 97
        0
 97
        1
330
86
 92
        1
 93
        1
 72
     4
 94
        3
 73
     0
 74
     0
 95
       35
 96
       31
 40
0.0
 40
0.0
 40
0.0
 40
0.0
 40
1.0
 40
1.0
 40
1.0
 40
2.0
 40
2.0
 40
2.0
 40
3.0
 40
3.0
 40
3.0
 40
4.0
 40
4.0
 40
4.0
 40
5.0
 40
5.0
 40
5.0
 40
6.0
 40
6.0
 40
6.0
 40
7.0
 40
7.0
 40
7.0
 40
8.0
 40
8.0
 40
8.0
 40
9.0
 40
9.0
 40
9.0
 40
10.0
 40
10.0
 40
10.0
 40
10.0
 10
184.3166333903359
 20
-55.40126951739968
 10
184.504391094282
 20
-55.36199542886784
 10
184.801013815562
 20
-55.33236760769469
 10
185.1024596705213
 20
-55.33236760769469
 10
185.5324075870805
 20
-55.33236760769469
 10
185.8090487545461
 20
-55.40643716062756
 10
186.0164435027581
 20
-55.57421331075922
 10
186.1893872961177
 20
-55.70271537235904
 10
186.2934291797722
 20
-55.90046385321238
 10
186.2934291797722
 20
-56.16229111009137
 10
186.2934291797722
 20
-56.48371851886518
 10
186.0808667883323
 20
-56.76518282001009
 10
185.7298115583853
 20
-56.89368488160991
 10
185.7298115583853
 20
-56.89368488160991
 10
185.7298115583853
 20
-56.90367565851714
 10
185.7298115583853
 20
-56.90367565851714
 10
186.0460713239312
 20
-56.98256834512935
 10
186.4167635981442
 20
-57.24474011155687
 10
186.4167635981442
 20
-57.73876680414169
 10
186.4167635981442
 20
-58.02539874851448
 10
186.3030754471309
 20
-58.24278427363375
 10
186.1352992969992
 20
-58.40573729008607
 10
185.9027553517449
 20
-58.61829968152598
 10
185.5272399438526
 20
-58.71717392195265
 10
184.9839483858287
 20
-58.71717392195265
 10
184.6873256645487
 20
-58.71717392195265
 10
184.4599493625222
 20
-58.69753687768673
 10
184.3166333903359
 20
-58.67755532387228
 10
184.3166333903359
 20
-58.67755532387228
 10
184.3166333903359
 20
-55.40126951739968
 10
184.3166333903359
 20
-55.40126951739968
 97
        0
 97
        1
330
87
 75
     2
 76
     1
 98
        1
 10
0.0
 20
0.0
450
        0
451
        0
460
0.0
461
0.0
452
        0
462
0.0
453
        0
470

  0
SPLINE
  5
89
330
70
100
AcDbEntity
  8
Layer 1
100
AcDbSpline
210
0.0
220
0.0
230
1.0
 70
     9
 71
     3
 72
    17
 73
    13
 74
     0
 42
0.0000000001
 43
0.0000000001
 40
0.0
 40
0.0
 40
0.0
 40
0.0
 40
1.0
 40
1.0
 40
1.0
 40
2.0
 40
2.0
 40
2.0
 40
3.0
 40
3.0
 40
3.0
 40
4.0
 40
4.0
 40
4.0
 40
4.0
 10
187.2652906161612
 20
-57.49657659152863
 30
0.0
 10
187.2652906161612
 20
-58.02057561483514
 30
0.0
 10
187.5667364711205
 20
-58.41572806699329
 30
0.0
 10
187.9915167444518
 20
-58.41572806699329
 30
0.0
 10
188.4066507504244
 20
-58.41572806699329
 30
0.0
 10
188.718087382291
 20
-58.02539874851448
 30
0.0
 10
188.718087382291
 20
-57.48658581462141
 30
0.0
 10
188.718087382291
 20
-57.08144258555603
 30
0.0
 10
188.5155157677583
 20
-56.56777884870528
 30
0.0
 10
188.0015075213591
 20
-56.56777884870528
 30
0.0
 10
187.4874992749598
 20
-56.56777884870528
 30
0.0
 10
187.2652906161612
 20
-57.04216849702419
 30
0.0
 10
187.2652906161612
 20
-57.49657659152863
 30
0.0
  0
SPLINE
  5
8A
330
70
100
AcDbEntity
  8
Layer 1
100
AcDbSpline
210
0.0
220
0.0
230
1.0
 70
     9
 71
     3
 72
    17
 73
    13
 74
     0
 42
0.0000000001
 43
0.0000000001
 40
0.0
 40
0.0
 40
0.0
 40
0.0
 40
1.0
 40
1.0
 40
1.0
 40
2.0
 40
2.0
 40
2.0
 40
3.0
 40
3.0
 40
3.0
 40
4.0
 40
4.0
 40
4.0
 40
4.0
 10
189.1628492094368
 20
-57.47177190403483
 30
0.0
 10
189.1628492094368
 20
-58.35647242464699
 30
0.0
 10
188.5499667226108
 20
-58.74197860944645
 30
0.0
 10
187.9718797001859
 20
-58.74197860944645
 30
0.0
 10
187.3245462585075
 20
-58.74197860944645
 30
0.0
 10
186.8253519226948
 20
-58.26758896112755
 30
0.0
 10
186.8253519226948
 20
-57.51139050211521
 30
0.0
 10
186.8253519226948
 20
-56.71075031134314
 30
0.0
 10
187.3493509460013
 20
-56.24152830625212
 30
0.0
 10
188.0114982982663
 20
-56.24152830625212
 30
0.0
 10
188.6981058284766
 20
-56.24152830625212
 30
0.0
 10
189.1628492094368
 20
-56.74072264206483
 30
0.0
 10
189.1628492094368
 20
-57.47177190403483
 30
0.0
  0
HATCH
  5
8B
330
70
100
AcDbEntity
  8
Layer 1
 62
   114
440
 33554687
100
AcDbHatch
 10
0.0
 20
0.0
 30
0.0
210
0.0
220
0.0
230
1.0
  2
SOLID
 70
     1
 71
     1
 91
        2
 92
        1
 93
        1
 72
     4
 94
        3
 73
     0
 74
     0
 95
       17
 96
       13
 40
0.0
 40
0.0
 40
0.0
 40
0.0
 40
1.0
 40
1.0
 40
1.0
 40
2.0
 40
2.0
 40
2.0
 40
3.0
 40
3.0
 40
3.0
 40
4.0
 40
4.0
 40
4.0
 40
4.0
 10
187.2652906161612
 20
-57.49657659152863
 10
187.2652906161612
 20
-58.02057561483514
 10
187.5667364711205
 20
-58.41572806699329
 10
187.9915167444518
 20
-58.41572806699329
 10
188.4066507504244
 20
-58.41572806699329
 10
188.718087382291
 20
-58.02539874851448
 10
188.718087382291
 20
-57.48658581462141
 10
188.718087382291
 20
-57.08144258555603
 10
188.5155157677583
 20
-56.56777884870528
 10
188.0015075213591
 20
-56.56777884870528
 10
187.4874992749598
 20
-56.56777884870528
 10
187.2652906161612
 20
-57.04216849702419
 10
187.2652906161612
 20
-57.49657659152863
 97
        0
 97
        1
330
89
 92
        1
 93
        1
 72
     4
 94
        3
 73
     0
 74
     0
 95
       17
 96
       13
 40
0.0
 40
0.0
 40
0.0
 40
0.0
 40
1.0
 40
1.0
 40
1.0
 40
2.0
 40
2.0
 40
2.0
 40
3.0
 40
3.0
 40
3.0
 40
4.0
 40
4.0
 40
4.0
 40
4.0
 10
189.1628492094368
 20
-57.47177190403483
 10
189.1628492094368
 20
-58.35647242464699
 10
188.5499667226108
 20
-58.74197860944645
 10
187.9718797001859
 20
-58.74197860944645
 10
187.3245462585075
 20
-58.74197860944645
 10
186.8253519226948
 20
-58.26758896112755
 10
186.8253519226948
 20
-57.51139050211521
 10
186.8253519226948
 20
-56.71075031134314
 10
187.3493509460013
 20
-56.24152830625212
 10
188.0114982982663
 20
-56.24152830625212
 10
188.6981058284766
 20
-56.24152830625212
 10
189.1628492094368
 20
-56.74072264206483
 10
189.1628492094368
 20
-57.47177190403483
 97
        0
 97
        1
330
8A
 75
     2
 76
     1
 98
        1
 10
0.0
 20
0.0
450
        0
451
        0
460
0.0
461
0.0
452
        0
462
0.0
453
        0
470

  0
SPLINE
  5
8C
330
70
100
AcDbEntity
  8
Layer 1
100
AcDbSpline
210
0.0
220
0.0
230
1.0
 70
     9
 71
     3
 72
    17
 73
    13
 74
     0
 42
0.0000000001
 43
0.0000000001
 40
0.0
 40
0.0
 40
0.0
 40
0.0
 40
1.0
 40
1.0
 40
1.0
 40
2.0
 40
2.0
 40
2.0
 40
3.0
 40
3.0
 40
3.0
 40
4.0
 40
4.0
 40
4.0
 40
4.0
 10
189.9765807630528
 20
-57.49657659152863
 30
0.0
 10
189.9765807630528
 20
-58.02057561483514
 30
0.0
 10
190.2780266180122
 20
-58.41572806699329
 30
0.0
 10
190.7028068913435
 20
-58.41572806699329
 30
0.0
 10
191.1179408973161
 20
-58.41572806699329
 30
0.0
 10
191.4293775291827
 20
-58.02539874851448
 30
0.0
 10
191.4293775291827
 20
-57.48658581462141
 30
0.0
 10
191.4293775291827
 20
-57.08144258555603
 30
0.0
 10
191.22680591465
 20
-56.56777884870528
 30
0.0
 10
190.7127976682507
 20
-56.56777884870528
 30
0.0
 10
190.1987894218514
 20
-56.56777884870528
 30
0.0
 10
189.9765807630528
 20
-57.04216849702419
 30
0.0
 10
189.9765807630528
 20
-57.49657659152863
 30
0.0
  0
SPLINE
  5
8D
330
70
100
AcDbEntity
  8
Layer 1
100
AcDbSpline
210
0.0
220
0.0
230
1.0
 70
     9
 71
     3
 72
    17
 73
    13
 74
     0
 42
0.0000000001
 43
0.0000000001
 40
0.0
 40
0.0
 40
0.0
 40
0.0
 40
1.0
 40
1.0
 40
1.0
 40
2.0
 40
2.0
 40
2.0
 40
3.0
 40
3.0
 40
3.0
 40
4.0
 40
4.0
 40
4.0
 40
4.0
 10
191.8741393563284
 20
-57.47177190403483
 30
0.0
 10
191.8741393563284
 20
-58.35647242464699
 30
0.0
 10
191.2612568695024
 20
-58.74197860944645
 30
0.0
 10
190.6831698470776
 20
-58.74197860944645
 30
0.0
 10
190.0358364053991
 20
-58.74197860944645
 30
0.0
 10
189.5366420695864
 20
-58.26758896112755
 30
0.0
 10
189.5366420695864
 20
-57.51139050211521
 30
0.0
 10
189.5366420695864
 20
-56.71075031134314
 30
0.0
 10
190.0606410928929
 20
-56.24152830625212
 30
0.0
 10
190.7227884451579
 20
-56.24152830625212
 30
0.0
 10
191.4093959753682
 20
-56.24152830625212
 30
0.0
 10
191.8741393563284
 20
-56.74072264206483
 30
0.0
 10
191.8741393563284
 20
-57.47177190403483
 30
0.0
  0
HATCH
  5
8E
330
70
100
AcDbEntity
  8
Layer 1
 62
   114
440
 33554687
100
AcDbHatch
 10
0.0
 20
0.0
 30
0.0
210
0.0
220
0.0
230
1.0
  2
SOLID
 70
     1
 71
     1
 91
        2
 92
        1
 93
        1
 72
     4
 94
        3
 73
     0
 74
     0
 95
       17
 96
       13
 40
0.0
 40
0.0
 40
0.0
 40
0.0
 40
1.0
 40
1.0
 40
1.0
 40
2.0
 40
2.0
 40
2.0
 40
3.0
 40
3.0
 40
3.0
 40
4.0
 40
4.0
 40
4.0
 40
4.0
 10
189.9765807630528
 20
-57.49657659152863
 10
189.9765807630528
 20
-58.02057561483514
 10
190.2780266180122
 20
-58.41572806699329
 10
190.7028068913435
 20
-58.41572806699329
 10
191.1179408973161
 20
-58.41572806699329
 10
191.4293775291827
 20
-58.02539874851448
 10
191.4293775291827
 20
-57.48658581462141
 10
191.4293775291827
 20
-57.08144258555603
 10
191.22680591465
 20
-56.56777884870528
 10
190.7127976682507
 20
-56.56777884870528
 10
190.1987894218514
 20
-56.56777884870528
 10
189.9765807630528
 20
-57.04216849702419
 10
189.9765807630528
 20
-57.49657659152863
 97
        0
 97
        1
330
8C
 92
        1
 93
        1
 72
     4
 94
        3
 73
     0
 74
     0
 95
       17
 96
       13
 40
0.0
 40
0.0
 40
0.0
 40
0.0
 40
1.0
 40
1.0
 40
1.0
 40
2.0
 40
2.0
 40
2.0
 40
3.0
 40
3.0
 40
3.0
 40
4.0
 40
4.0
 40
4.0
 40
4.0
 10
191.8741393563284
 20
-57.47177190403483
 10
191.8741393563284
 20
-58.35647242464699
 10
191.2612568695024
 20
-58.74197860944645
 10
190.6831698470776
 20
-58.74197860944645
 10
190.0358364053991
 20
-58.74197860944645
 10
189.5366420695864
 20
-58.26758896112755
 10
189.5366420695864
 20
-57.51139050211521
 10
189.5366420695864
 20
-56.71075031134314
 10
190.0606410928929
 20
-56.24152830625212
 10
190.7227884451579
 20
-56.24152830625212
 10
191.4093959753682
 20
-56.24152830625212
 10
191.8741393563284
 20
-56.74072264206483
 10
191.8741393563284
 20
-57.47177190403483
 97
        0
 97
        1
330
8D
 75
     2
 76
     1
 98
        1
 10
0.0
 20
0.0
450
        0
451
        0
460
0.0
461
0.0
452
        0
462
0.0
453
        0
470

  0
SPLINE
  5
8F
330
70
100
AcDbEntity
  8
Layer 1
100
AcDbSpline
210
0.0
220
0.0
230
1.0
 70
    11
 71
     3
 72
    47
 73
    43
 74
     0
 42
0.0000000001
 43
0.0000000001
 40
0.0
 40
0.0
 40
0.0
 40
0.0
 40
1.0
 40
1.0
 40
1.0
 40
2.0
 40
2.0
 40
2.0
 40
3.0
 40
3.0
 40
3.0
 40
4.0
 40
4.0
 40
4.0
 40
5.0
 40
5.0
 40
5.0
 40
6.0
 40
6.0
 40
6.0
 40
7.0
 40
7.0
 40
7.0
 40
8.0
 40
8.0
 40
8.0
 40
9.0
 40
9.0
 40
9.0
 40
10.0
 40
10.0
 40
10.0
 40
11.0
 40
11.0
 40
11.0
 40
12.0
 40
12.0
 40
12.0
 40
13.0
 40
13.0
 40
13.0
 40
14.0
 40
14.0
 40
14.0
 40
14.0
 10
192.8511684359453
 20
-57.39287921742262
 30
0.0
 10
192.8511684359453
 20
-57.39287921742262
 30
0.0
 10
192.8611592128525
 20
-57.39287921742262
 30
0.0
 10
192.8611592128525
 20
-57.39287921742262
 30
0.0
 10
192.9204148551988
 20
-57.30881888758251
 30
0.0
 10
193.0044751850389
 20
-57.2051215134765
 30
0.0
 10
193.0733770947439
 20
-57.12106118363641
 30
0.0
 10
193.0733770947439
 20
-57.12106118363641
 30
0.0
 10
193.7751430450893
 20
-56.29596081491907
 30
0.0
 10
193.7751430450893
 20
-56.29596081491907
 30
0.0
 10
193.7751430450893
 20
-56.29596081491907
 30
0.0
 10
194.2991420683958
 20
-56.29596081491907
 30
0.0
 10
194.2991420683958
 20
-56.29596081491907
 30
0.0
 10
194.2991420683958
 20
-56.29596081491907
 30
0.0
 10
193.3748229497032
 20
-57.27919106640937
 30
0.0
 10
193.3748229497032
 20
-57.27919106640937
 30
0.0
 10
193.3748229497032
 20
-57.27919106640937
 30
0.0
 10
194.4276441299956
 20
-58.6875461007795
 30
0.0
 10
194.4276441299956
 20
-58.6875461007795
 30
0.0
 10
194.4276441299956
 20
-58.6875461007795
 30
0.0
 10
193.8988219730098
 20
-58.6875461007795
 30
0.0
 10
193.8988219730098
 20
-58.6875461007795
 30
0.0
 10
193.8988219730098
 20
-58.6875461007795
 30
0.0
 10
193.0733770947439
 20
-57.54101832328836
 30
0.0
 10
193.0733770947439
 20
-57.54101832328836
 30
0.0
 10
193.0733770947439
 20
-57.54101832328836
 30
0.0
 10
192.8511684359453
 20
-57.78803166958077
 30
0.0
 10
192.8511684359453
 20
-57.78803166958077
 30
0.0
 10
192.8511684359453
 20
-57.78803166958077
 30
0.0
 10
192.8511684359453
 20
-58.6875461007795
 30
0.0
 10
192.8511684359453
 20
-58.6875461007795
 30
0.0
 10
192.8511684359453
 20
-58.6875461007795
 30
0.0
 10
192.4212205193861
 20
-58.6875461007795
 30
0.0
 10
192.4212205193861
 20
-58.6875461007795
 30
0.0
 10
192.4212205193861
 20
-58.6875461007795
 30
0.0
 10
192.4212205193861
 20
-55.17906085860107
 30
0.0
 10
192.4212205193861
 20
-55.17906085860107
 30
0.0
 10
192.4212205193861
 20
-55.17906085860107
 30
0.0
 10
192.8511684359453
 20
-55.17906085860107
 30
0.0
 10
192.8511684359453
 20
-55.17906085860107
 30
0.0
 10
192.8511684359453
 20
-55.17906085860107
 30
0.0
 10
192.8511684359453
 20
-57.39287921742262
 30
0.0
 10
192.8511684359453
 20
-57.39287921742262
 30
0.0
  0
HATCH
  5
90
330
70
100
AcDbEntity
  8
Layer 1
 62
   114
440
 33554687
100
AcDbHatch
 10
0.0
 20
0.0
 30
0.0
210
0.0
220
0.0
230
1.0
  2
SOLID
 70
     1
 71
     1
 91
        1
 92
        1
 93
        1
 72
     4
 94
        3
 73
     0
 74
     0
 95
       47
 96
       43
 40
0.0
 40
0.0
 40
0.0
 40
0.0
 40
1.0
 40
1.0
 40
1.0
 40
2.0
 40
2.0
 40
2.0
 40
3.0
 40
3.0
 40
3.0
 40
4.0
 40
4.0
 40
4.0
 40
5.0
 40
5.0
 40
5.0
 40
6.0
 40
6.0
 40
6.0
 40
7.0
 40
7.0
 40
7.0
 40
8.0
 40
8.0
 40
8.0
 40
9.0
 40
9.0
 40
9.0
 40
10.0
 40
10.0
 40
10.0
 40
11.0
 40
11.0
 40
11.0
 40
12.0
 40
12.0
 40
12.0
 40
13.0
 40
13.0
 40
13.0
 40
14.0
 40
14.0
 40
14.0
 40
14.0
 10
192.8511684359453
 20
-57.39287921742262
 10
192.8511684359453
 20
-57.39287921742262
 10
192.8611592128525
 20
-57.39287921742262
 10
192.8611592128525
 20
-57.39287921742262
 10
192.9204148551988
 20
-57.30881888758251
 10
193.0044751850389
 20
-57.2051215134765
 10
193.0733770947439
 20
-57.12106118363641
 10
193.0733770947439
 20
-57.12106118363641
 10
193.7751430450893
 20
-56.29596081491907
 10
193.7751430450893
 20
-56.29596081491907
 10
193.7751430450893
 20
-56.29596081491907
 10
194.2991420683958
 20
-56.29596081491907
 10
194.2991420683958
 20
-56.29596081491907
 10
194.2991420683958
 20
-56.29596081491907
 10
193.3748229497032
 20
-57.27919106640937
 10
193.3748229497032
 20
-57.27919106640937
 10
193.3748229497032
 20
-57.27919106640937
 10
194.4276441299956
 20
-58.6875461007795
 10
194.4276441299956
 20
-58.6875461007795
 10
194.4276441299956
 20
-58.6875461007795
 10
193.8988219730098
 20
-58.6875461007795
 10
193.8988219730098
 20
-58.6875461007795
 10
193.8988219730098
 20
-58.6875461007795
 10
193.0733770947439
 20
-57.54101832328836
 10
193.0733770947439
 20
-57.54101832328836
 10
193.0733770947439
 20
-57.54101832328836
 10
192.8511684359453
 20
-57.78803166958077
 10
192.8511684359453
 20
-57.78803166958077
 10
192.8511684359453
 20
-57.78803166958077
 10
192.8511684359453
 20
-58.6875461007795
 10
192.8511684359453
 20
-58.6875461007795
 10
192.8511684359453
 20
-58.6875461007795
 10
192.4212205193861
 20
-58.6875461007795
 10
192.4212205193861
 20
-58.6875461007795
 10
192.4212205193861
 20
-58.6875461007795
 10
192.4212205193861
 20
-55.17906085860107
 10
192.4212205193861
 20
-55.17906085860107
 10
192.4212205193861
 20
-55.17906085860107
 10
192.8511684359453
 20
-55.17906085860107
 10
192.8511684359453
 20
-55.17906085860107
 10
192.8511684359453
 20
-55.17906085860107
 10
192.8511684359453
 20
-57.39287921742262
 10
192.8511684359453
 20
-57.39287921742262
 97
        0
 97
        1
330
8F
 75
     2
 76
     1
 98
        1
 10
0.0
 20
0.0
450
        0
451
        0
460
0.0
461
0.0
452
        0
462
0.0
453
        0
470

  0
SPLINE
  5
91
330
70
100
AcDbEntity
  8
Layer 1
100
AcDbSpline
210
0.0
220
0.0
230
1.0
 70
     9
 71
     3
 72
    59
 73
    55
 74
     0
 42
0.0000000001
 43
0.0000000001
 40
0.0
 40
0.0
 40
0.0
 40
0.0
 40
1.0
 40
1.0
 40
1.0
 40
2.0
 40
2.0
 40
2.0
 40
3.0
 40
3.0
 40
3.0
 40
4.0
 40
4.0
 40
4.0
 40
5.0
 40
5.0
 40
5.0
 40
6.0
 40
6.0
 40
6.0
 40
7.0
 40
7.0
 40
7.0
 40
8.0
 40
8.0
 40
8.0
 40
9.0
 40
9.0
 40
9.0
 40
10.0
 40
10.0
 40
10.0
 40
11.0
 40
11.0
 40
11.0
 40
12.0
 40
12.0
 40
12.0
 40
13.0
 40
13.0
 40
13.0
 40
14.0
 40
14.0
 40
14.0
 40
15.0
 40
15.0
 40
15.0
 40
16.0
 40
16.0
 40
16.0
 40
17.0
 40
17.0
 40
17.0
 40
18.0
 40
18.0
 40
18.0
 40
18.0
 10
195.7498717772345
 20
-58.1883517649668
 30
0.0
 10
195.8732061956064
 20
-58.26758896112755
 30
0.0
 10
196.1598381399792
 20
-58.39092337949949
 30
0.0
 10
196.4612839949386
 20
-58.39092337949949
 30
0.0
 10
197.0199062278718
 20
-58.39092337949949
 30
0.0
 10
197.1928500212314
 20
-58.03538952542171
 30
0.0
 10
197.188026887552
 20
-57.76839462531484
 30
0.0
 10
197.1828592443241
 20
-57.31880966448974
 30
0.0
 10
196.7777160152588
 20
-57.12588431731575
 30
0.0
 10
196.3575866208325
 20
-57.12588431731575
 30
0.0
 10
196.3575866208325
 20
-57.12588431731575
 30
0.0
 10
196.1153964082195
 20
-57.12588431731575
 30
0.0
 10
196.1153964082195
 20
-57.12588431731575
 30
0.0
 10
196.1153964082195
 20
-57.12588431731575
 30
0.0
 10
196.1153964082195
 20
-56.79997828441112
 30
0.0
 10
196.1153964082195
 20
-56.79997828441112
 30
0.0
 10
196.1153964082195
 20
-56.79997828441112
 30
0.0
 10
196.3575866208325
 20
-56.79997828441112
 30
0.0
 10
196.3575866208325
 20
-56.79997828441112
 30
0.0
 10
196.6738463863785
 20
-56.79997828441112
 30
0.0
 10
197.0743387365388
 20
-56.63668075841028
 30
0.0
 10
197.0743387365388
 20
-56.2563422168387
 30
0.0
 10
197.0743387365388
 20
-55.99933809363905
 30
0.0
 10
196.9110412105379
 20
-55.77196179161257
 30
0.0
 10
196.5108933699261
 20
-55.77196179161257
 30
0.0
 10
196.2538892467265
 20
-55.77196179161257
 30
0.0
 10
196.0068759004341
 20
-55.88564994262581
 30
0.0
 10
195.8683830619271
 20
-55.98452418305249
 30
0.0
 10
195.8683830619271
 20
-55.98452418305249
 30
0.0
 10
195.7546949109138
 20
-55.66826441750655
 30
0.0
 10
195.7546949109138
 20
-55.66826441750655
 30
0.0
 10
195.922815570594
 20
-55.54458548958607
 30
0.0
 10
196.2487216034986
 20
-55.42125107121414
 30
0.0
 10
196.5946091902177
 20
-55.42125107121414
 30
0.0
 10
197.2273009760839
 20
-55.42125107121414
 30
0.0
 10
197.5139329204567
 20
-55.79676647910637
 30
0.0
 10
197.5139329204567
 20
-56.18709579758517
 30
0.0
 10
197.5139329204567
 20
-56.51816947371768
 30
0.0
 10
197.3165289491518
 20
-56.79997828441112
 30
0.0
 10
196.9210319874452
 20
-56.94329425659751
 30
0.0
 10
196.9210319874452
 20
-56.94329425659751
 30
0.0
 10
196.9210319874452
 20
-56.95294052395621
 30
0.0
 10
196.9210319874452
 20
-56.95294052395621
 30
0.0
 10
197.3165289491518
 20
-57.03217772011695
 30
0.0
 10
197.6376118483771
 20
-57.32845593184844
 30
0.0
 10
197.6376118483771
 20
-57.77838540222207
 30
0.0
 10
197.6376118483771
 20
-58.29204913907283
 30
0.0
 10
197.2372917529911
 20
-58.74197860944645
 30
0.0
 10
196.4664516381665
 20
-58.74197860944645
 30
0.0
 10
196.1054056313123
 20
-58.74197860944645
 30
0.0
 10
195.7891458657663
 20
-58.6282904584332
 30
0.0
 10
195.6310159829934
 20
-58.52459308432718
 30
0.0
 10
195.6310159829934
 20
-58.52459308432718
 30
0.0
 10
195.7498717772345
 20
-58.1883517649668
 30
0.0
 10
195.7498717772345
 20
-58.1883517649668
 30
0.0
  0
HATCH
  5
92
330
70
100
AcDbEntity
  8
Layer 1
 62
   114
440
 33554687
100
AcDbHatch
 10
0.0
 20
0.0
 30
0.0
210
0.0
220
0.0
230
1.0
  2
SOLID
 70
     1
 71
     1
 91
        1
 92
        1
 93
        1
 72
     4
 94
        3
 73
     0
 74
     0
 95
       59
 96
       55
 40
0.0
 40
0.0
 40
0.0
 40
0.0
 40
1.0
 40
1.0
 40
1.0
 40
2.0
 40
2.0
 40
2.0
 40
3.0
 40
3.0
 40
3.0
 40
4.0
 40
4.0
 40
4.0
 40
5.0
 40
5.0
 40
5.0
 40
6.0
 40
6.0
 40
6.0
 40
7.0
 40
7.0
 40
7.0
 40
8.0
 40
8.0
 40
8.0
 40
9.0
 40
9.0
 40
9.0
 40
10.0
 40
10.0
 40
10.0
 40
11.0
 40
11.0
 40
11.0
 40
12.0
 40
12.0
 40
12.0
 40
13.0
 40
13.0
 40
13.0
 40
14.0
 40
14.0
 40
14.0
 40
15.0
 40
15.0
 40
15.0
 40
16.0
 40
16.0
 40
16.0
 40
17.0
 40
17.0
 40
17.0
 40
18.0
 40
18.0
 40
18.0
 40
18.0
 10
195.7498717772345
 20
-58.1883517649668
 10
195.8732061956064
 20
-58.26758896112755
 10
196.1598381399792
 20
-58.39092337949949
 10
196.4612839949386
 20
-58.39092337949949
 10
197.0199062278718
 20
-58.39092337949949
 10
197.1928500212314
 20
-58.03538952542171
 10
197.188026887552
 20
-57.76839462531484
 10
197.1828592443241
 20
-57.31880966448974
 10
196.7777160152588
 20
-57.12588431731575
 10
196.3575866208325
 20
-57.12588431731575
 10
196.3575866208325
 20
-57.12588431731575
 10
196.1153964082195
 20
-57.12588431731575
 10
196.1153964082195
 20
-57.12588431731575
 10
196.1153964082195
 20
-57.12588431731575
 10
196.1153964082195
 20
-56.79997828441112
 10
196.1153964082195
 20
-56.79997828441112
 10
196.1153964082195
 20
-56.79997828441112
 10
196.3575866208325
 20
-56.79997828441112
 10
196.3575866208325
 20
-56.79997828441112
 10
196.6738463863785
 20
-56.79997828441112
 10
197.0743387365388
 20
-56.63668075841028
 10
197.0743387365388
 20
-56.2563422168387
 10
197.0743387365388
 20
-55.99933809363905
 10
196.9110412105379
 20
-55.77196179161257
 10
196.5108933699261
 20
-55.77196179161257
 10
196.2538892467265
 20
-55.77196179161257
 10
196.0068759004341
 20
-55.88564994262581
 10
195.8683830619271
 20
-55.98452418305249
 10
195.8683830619271
 20
-55.98452418305249
 10
195.7546949109138
 20
-55.66826441750655
 10
195.7546949109138
 20
-55.66826441750655
 10
195.922815570594
 20
-55.54458548958607
 10
196.2487216034986
 20
-55.42125107121414
 10
196.5946091902177
 20
-55.42125107121414
 10
197.2273009760839
 20
-55.42125107121414
 10
197.5139329204567
 20
-55.79676647910637
 10
197.5139329204567
 20
-56.18709579758517
 10
197.5139329204567
 20
-56.51816947371768
 10
197.3165289491518
 20
-56.79997828441112
 10
196.9210319874452
 20
-56.94329425659751
 10
196.9210319874452
 20
-56.94329425659751
 10
196.9210319874452
 20
-56.95294052395621
 10
196.9210319874452
 20
-56.95294052395621
 10
197.3165289491518
 20
-57.03217772011695
 10
197.6376118483771
 20
-57.32845593184844
 10
197.6376118483771
 20
-57.77838540222207
 10
197.6376118483771
 20
-58.29204913907283
 10
197.2372917529911
 20
-58.74197860944645
 10
196.4664516381665
 20
-58.74197860944645
 10
196.1054056313123
 20
-58.74197860944645
 10
195.7891458657663
 20
-58.6282904584332
 10
195.6310159829934
 20
-58.52459308432718
 10
195.6310159829934
 20
-58.52459308432718
 10
195.7498717772345
 20
-58.1883517649668
 10
195.7498717772345
 20
-58.1883517649668
 97
        0
 97
        1
330
91
 75
     2
 76
     1
 98
        1
 10
0.0
 20
0.0
450
        0
451
        0
460
0.0
461
0.0
452
        0
462
0.0
453
        0
470

  0
SPLINE
  5
93
330
70
100
AcDbEntity
  8
Layer 1
100
AcDbSpline
210
0.0
220
0.0
230
1.0
 70
     9
 71
     3
 72
    17
 73
    13
 74
     0
 42
0.0000000001
 43
0.0000000001
 40
0.0
 40
0.0
 40
0.0
 40
0.0
 40
1.0
 40
1.0
 40
1.0
 40
2.0
 40
2.0
 40
2.0
 40
3.0
 40
3.0
 40
3.0
 40
4.0
 40
4.0
 40
4.0
 40
4.0
 10
198.6742410798888
 20
-56.24635143993147
 30
0.0
 10
198.6742410798888
 20
-56.56777884870528
 30
0.0
 10
198.9164312925019
 20
-56.74072264206483
 30
0.0
 10
199.2867790571662
 20
-56.83925237294296
 30
0.0
 10
199.5637647341803
 20
-56.74554577574417
 30
0.0
 10
199.7759826160717
 20
-56.54779729489083
 30
0.0
 10
199.7759826160717
 20
-56.2563422168387
 30
0.0
 10
199.7759826160717
 20
-55.99933809363905
 30
0.0
 10
199.6230203765266
 20
-55.73234319353219
 30
0.0
 10
199.2326910580478
 20
-55.73234319353219
 30
0.0
 10
198.8719895607422
 20
-55.73234319353219
 30
0.0
 10
198.6742410798888
 20
-55.96971027246591
 30
0.0
 10
198.6742410798888
 20
-56.24635143993147
 30
0.0
  0
SPLINE
  5
94
330
70
100
AcDbEntity
  8
Layer 1
100
AcDbSpline
210
0.0
220
0.0
230
1.0
 70
     9
 71
     3
 72
    17
 73
    13
 74
     0
 42
0.0000000001
 43
0.0000000001
 40
0.0
 40
0.0
 40
0.0
 40
0.0
 40
1.0
 40
1.0
 40
1.0
 40
2.0
 40
2.0
 40
2.0
 40
3.0
 40
3.0
 40
3.0
 40
4.0
 40
4.0
 40
4.0
 40
4.0
 10
199.870033722819
 20
-57.85245495515495
 30
0.0
 10
199.870033722819
 20
-57.46212563667613
 30
0.0
 10
199.5982156890328
 20
-57.27436793273002
 30
0.0
 10
199.1634446387943
 20
-57.15068900480955
 30
0.0
 10
198.7879292309021
 20
-57.25955402214345
 30
0.0
 10
198.5853576163694
 20
-57.50656736843586
 30
0.0
 10
198.5853576163694
 20
-57.81283635707457
 30
0.0
 10
198.5705437057828
 20
-58.13908689952773
 30
0.0
 10
198.8175570520752
 20
-58.42571884390052
 30
0.0
 10
199.2275234148199
 20
-58.42571884390052
 30
0.0
 10
199.6181972428473
 20
-58.42571884390052
 30
0.0
 10
199.870033722819
 20
-58.18352863128745
 30
0.0
 10
199.870033722819
 20
-57.85245495515495
 30
0.0
  0
SPLINE
  5
95
330
70
100
AcDbEntity
  8
Layer 1
100
AcDbSpline
210
0.0
220
0.0
230
1.0
 70
     9
 71
     3
 72
    35
 73
    31
 74
     0
 42
0.0000000001
 43
0.0000000001
 40
0.0
 40
0.0
 40
0.0
 40
0.0
 40
1.0
 40
1.0
 40
1.0
 40
2.0
 40
2.0
 40
2.0
 40
3.0
 40
3.0
 40
3.0
 40
4.0
 40
4.0
 40
4.0
 40
5.0
 40
5.0
 40
5.0
 40
6.0
 40
6.0
 40
6.0
 40
7.0
 40
7.0
 40
7.0
 40
8.0
 40
8.0
 40
8.0
 40
9.0
 40
9.0
 40
9.0
 40
10.0
 40
10.0
 40
10.0
 40
10.0
 10
198.1405957892236
 20
-57.87209199942086
 30
0.0
 10
198.1405957892236
 20
-57.46694877035548
 30
0.0
 10
198.3827860018367
 20
-57.1803168259827
 30
0.0
 10
198.7779384539948
 20
-57.0121961663025
 30
0.0
 10
198.7779384539948
 20
-57.0121961663025
 30
0.0
 10
198.7731153203155
 20
-56.99738225571593
 30
0.0
 10
198.7731153203155
 20
-56.99738225571593
 30
0.0
 10
198.4172369566891
 20
-56.82960610558427
 30
0.0
 10
198.2639302075955
 20
-56.55296493811871
 30
0.0
 10
198.2639302075955
 20
-56.27597926110461
 30
0.0
 10
198.2639302075955
 20
-55.76713865793322
 30
0.0
 10
198.6938781241548
 20
-55.42125107121414
 30
0.0
 10
199.2571512359931
 20
-55.42125107121414
 30
0.0
 10
199.8800244997262
 20
-55.42125107121414
 30
0.0
 10
200.1911166220443
 20
-55.81158038969294
 30
0.0
 10
200.1911166220443
 20
-56.21190048507897
 30
0.0
 10
200.1911166220443
 20
-56.48371851886518
 30
0.0
 10
200.0577914267652
 20
-56.77517359691732
 30
0.0
 10
199.662638974607
 20
-56.96293130086344
 30
0.0
 10
199.662638974607
 20
-56.96293130086344
 30
0.0
 10
199.662638974607
 20
-56.97774521145001
 30
0.0
 10
199.662638974607
 20
-56.97774521145001
 30
0.0
 10
200.0626145604445
 20
-57.13587509422298
 30
0.0
 10
200.3099724162855
 20
-57.41768390491642
 30
0.0
 10
200.3099724162855
 20
-57.80801322339522
 30
0.0
 10
200.3099724162855
 20
-58.36646320155422
 30
0.0
 10
199.8304151247386
 20
-58.74197860944645
 30
0.0
 10
199.2178771474612
 20
-58.74197860944645
 30
0.0
 10
198.545739018289
 20
-58.74197860944645
 30
0.0
 10
198.1405957892236
 20
-58.34165851406042
 30
0.0
 10
198.1405957892236
 20
-57.87209199942086
 30
0.0
  0
HATCH
  5
96
330
70
100
AcDbEntity
  8
Layer 1
 62
   114
440
 33554687
100
AcDbHatch
 10
0.0
 20
0.0
 30
0.0
210
0.0
220
0.0
230
1.0
  2
SOLID
 70
     1
 71
     1
 91
        3
 92
        1
 93
        1
 72
     4
 94
        3
 73
     0
 74
     0
 95
       17
 96
       13
 40
0.0
 40
0.0
 40
0.0
 40
0.0
 40
1.0
 40
1.0
 40
1.0
 40
2.0
 40
2.0
 40
2.0
 40
3.0
 40
3.0
 40
3.0
 40
4.0
 40
4.0
 40
4.0
 40
4.0
 10
198.6742410798888
 20
-56.24635143993147
 10
198.6742410798888
 20
-56.56777884870528
 10
198.9164312925019
 20
-56.74072264206483
 10
199.2867790571662
 20
-56.83925237294296
 10
199.5637647341803
 20
-56.74554577574417
 10
199.7759826160717
 20
-56.54779729489083
 10
199.7759826160717
 20
-56.2563422168387
 10
199.7759826160717
 20
-55.99933809363905
 10
199.6230203765266
 20
-55.73234319353219
 10
199.2326910580478
 20
-55.73234319353219
 10
198.8719895607422
 20
-55.73234319353219
 10
198.6742410798888
 20
-55.96971027246591
 10
198.6742410798888
 20
-56.24635143993147
 97
        0
 97
        1
330
93
 92
        1
 93
        1
 72
     4
 94
        3
 73
     0
 74
     0
 95
       17
 96
       13
 40
0.0
 40
0.0
 40
0.0
 40
0.0
 40
1.0
 40
1.0
 40
1.0
 40
2.0
 40
2.0
 40
2.0
 40
3.0
 40
3.0
 40
3.0
 40
4.0
 40
4.0
 40
4.0
 40
4.0
 10
199.870033722819
 20
-57.85245495515495
 10
199.870033722819
 20
-57.46212563667613
 10
199.5982156890328
 20
-57.27436793273002
 10
199.1634446387943
 20
-57.15068900480955
 10
198.7879292309021
 20
-57.25955402214345
 10
198.5853576163694
 20
-57.50656736843586
 10
198.5853576163694
 20
-57.81283635707457
 10
198.5705437057828
 20
-58.13908689952773
 10
198.8175570520752
 20
-58.42571884390052
 10
199.2275234148199
 20
-58.42571884390052
 10
199.6181972428473
 20
-58.42571884390052
 10
199.870033722819
 20
-58.18352863128745
 10
199.870033722819
 20
-57.85245495515495
 97
        0
 97
        1
330
94
 92
        1
 93
        1
 72
     4
 94
        3
 73
     0
 74
     0
 95
       35
 96
       31
 40
0.0
 40
0.0
 40
0.0
 40
0.0
 40
1.0
 40
1.0
 40
1.0
 40
2.0
 40
2.0
 40
2.0
 40
3.0
 40
3.0
 40
3.0
 40
4.0
 40
4.0
 40
4.0
 40
5.0
 40
5.0
 40
5.0
 40
6.0
 40
6.0
 40
6.0
 40
7.0
 40
7.0
 40
7.0
 40
8.0
 40
8.0
 40
8.0
 40
9.0
 40
9.0
 40
9.0
 40
10.0
 40
10.0
 40
10.0
 40
10.0
 10
198.1405957892236
 20
-57.87209199942086
 10
198.1405957892236
 20
-57.46694877035548
 10
198.3827860018367
 20
-57.1803168259827
 10
198.7779384539948
 20
-57.0121961663025
 10
198.7779384539948
 20
-57.0121961663025
 10
198.7731153203155
 20
-56.99738225571593
 10
198.7731153203155
 20
-56.99738225571593
 10
198.4172369566891
 20
-56.82960610558427
 10
198.2639302075955
 20
-56.55296493811871
 10
198.2639302075955
 20
-56.27597926110461
 10
198.2639302075955
 20
-55.76713865793322
 10
198.6938781241548
 20
-55.42125107121414
 10
199.2571512359931
 20
-55.42125107121414
 10
199.8800244997262
 20
-55.42125107121414
 10
200.1911166220443
 20
-55.81158038969294
 10
200.1911166220443
 20
-56.21190048507897
 10
200.1911166220443
 20
-56.48371851886518
 10
200.0577914267652
 20
-56.77517359691732
 10
199.662638974607
 20
-56.96293130086344
 10
199.662638974607
 20
-56.96293130086344
 10
199.662638974607
 20
-56.97774521145001
 10
199.662638974607
 20
-56.97774521145001
 10
200.0626145604445
 20
-57.13587509422298
 10
200.3099724162855
 20
-57.41768390491642
 10
200.3099724162855
 20
-57.80801322339522
 10
200.3099724162855
 20
-58.36646320155422
 10
199.8304151247386
 20
-58.74197860944645
 10
199.2178771474612
 20
-58.74197860944645
 10
198.545739018289
 20
-58.74197860944645
 10
198.1405957892236
 20
-58.34165851406042
 10
198.1405957892236
 20
-57.87209199942086
 97
        0
 97
        1
330
95
 75
     2
 76
     1
 98
        1
 10
0.0
 20
0.0
450
        0
451
        0
460
0.0
461
0.0
452
        0
462
0.0
453
        0
470

  0
SPLINE
  5
97
330
70
100
AcDbEntity
  8
Layer 1
100
AcDbSpline
210
0.0
220
0.0
230
1.0
 70
     9
 71
     3
 72
    80
 73
    76
 74
     0
 42
0.0000000001
 43
0.0000000001
 40
0.0
 40
0.0
 40
0.0
 40
0.0
 40
1.0
 40
1.0
 40
1.0
 40
2.0
 40
2.0
 40
2.0
 40
3.0
 40
3.0
 40
3.0
 40
4.0
 40
4.0
 40
4.0
 40
5.0
 40
5.0
 40
5.0
 40
6.0
 40
6.0
 40
6.0
 40
7.0
 40
7.0
 40
7.0
 40
8.0
 40
8.0
 40
8.0
 40
9.0
 40
9.0
 40
9.0
 40
10.0
 40
10.0
 40
10.0
 40
11.0
 40
11.0
 40
11.0
 40
12.0
 40
12.0
 40
12.0
 40
13.0
 40
13.0
 40
13.0
 40
14.0
 40
14.0
 40
14.0
 40
15.0
 40
15.0
 40
15.0
 40
16.0
 40
16.0
 40
16.0
 40
17.0
 40
17.0
 40
17.0
 40
18.0
 40
18.0
 40
18.0
 40
19.0
 40
19.0
 40
19.0
 40
20.0
 40
20.0
 40
20.0
 40
21.0
 40
21.0
 40
21.0
 40
22.0
 40
22.0
 40
22.0
 40
23.0
 40
23.0
 40
23.0
 40
24.0
 40
24.0
 40
24.0
 40
25.0
 40
25.0
 40
25.0
 40
25.0
 10
200.8518859361152
 20
-56.94329425659751
 30
0.0
 10
200.8518859361152
 20
-56.69593640075657
 30
0.0
 10
200.8470628024359
 20
-56.49336478622388
 30
0.0
 10
200.8322488918493
 20
-56.29596081491907
 30
0.0
 10
200.8322488918493
 20
-56.29596081491907
 30
0.0
 10
201.2125874334209
 20
-56.29596081491907
 30
0.0
 10
201.2125874334209
 20
-56.29596081491907
 30
0.0
 10
201.2125874334209
 20
-56.29596081491907
 30
0.0
 10
201.2325689872354
 20
-56.68112249016999
 30
0.0
 10
201.2325689872354
 20
-56.68112249016999
 30
0.0
 10
201.2325689872354
 20
-56.68112249016999
 30
0.0
 10
201.2473828978219
 20
-56.68112249016999
 30
0.0
 10
201.2473828978219
 20
-56.68112249016999
 30
0.0
 10
201.3807080931011
 20
-56.45409069769204
 30
0.0
 10
201.6029167518997
 20
-56.24152830625212
 30
0.0
 10
201.9984137136064
 20
-56.24152830625212
 30
0.0
 10
202.3246642560596
 20
-56.24152830625212
 30
0.0
 10
202.571677602352
 20
-56.43927678710547
 30
0.0
 10
202.675374976458
 20
-56.72074108825037
 30
0.0
 10
202.675374976458
 20
-56.72074108825037
 30
0.0
 10
202.6853657533652
 20
-56.72074108825037
 30
0.0
 10
202.6853657533652
 20
-56.72074108825037
 30
0.0
 10
202.7594353062981
 20
-56.5874158929712
 30
0.0
 10
202.8531419034969
 20
-56.48371851886518
 30
0.0
 10
202.9520161439235
 20
-56.40964896593231
 30
0.0
 10
203.0953321161099
 20
-56.30078394859841
 30
0.0
 10
203.2534619988829
 20
-56.24152830625212
 30
0.0
 10
203.4808383009094
 20
-56.24152830625212
 30
0.0
 10
203.7970980664553
 20
-56.24152830625212
 30
0.0
 10
204.2666645810949
 20
-56.44892305446416
 30
0.0
 10
204.2666645810949
 20
-57.27919106640937
 30
0.0
 10
204.2666645810949
 20
-57.27919106640937
 30
0.0
 10
204.2666645810949
 20
-58.6875461007795
 30
0.0
 10
204.2666645810949
 20
-58.6875461007795
 30
0.0
 10
204.2666645810949
 20
-58.6875461007795
 30
0.0
 10
203.841539798215
 20
-58.6875461007795
 30
0.0
 10
203.841539798215
 20
-58.6875461007795
 30
0.0
 10
203.841539798215
 20
-58.6875461007795
 30
0.0
 10
203.841539798215
 20
-57.33362357507632
 30
0.0
 10
203.841539798215
 20
-57.33362357507632
 30
0.0
 10
203.841539798215
 20
-56.87404783734399
 30
0.0
 10
203.6734191385348
 20
-56.59740666987843
 30
0.0
 10
203.3227084181365
 20
-56.59740666987843
 30
0.0
 10
203.075695071844
 20
-56.59740666987843
 30
0.0
 10
202.88276972467
 20
-56.77999673059667
 30
0.0
 10
202.8087001717371
 20
-56.99255912203658
 30
0.0
 10
202.7890631274712
 20
-57.05181476438288
 30
0.0
 10
202.7742492168847
 20
-57.13105196054363
 30
0.0
 10
202.7742492168847
 20
-57.20994464715585
 30
0.0
 10
202.7742492168847
 20
-57.20994464715585
 30
0.0
 10
202.7742492168847
 20
-58.6875461007795
 30
0.0
 10
202.7742492168847
 20
-58.6875461007795
 30
0.0
 10
202.7742492168847
 20
-58.6875461007795
 30
0.0
 10
202.3491244340049
 20
-58.6875461007795
 30
0.0
 10
202.3491244340049
 20
-58.6875461007795
 30
0.0
 10
202.3491244340049
 20
-58.6875461007795
 30
0.0
 10
202.3491244340049
 20
-57.25438637891556
 30
0.0
 10
202.3491244340049
 20
-57.25438637891556
 30
0.0
 10
202.3491244340049
 20
-56.87404783734399
 30
0.0
 10
202.1813482838731
 20
-56.59740666987843
 30
0.0
 10
201.8502746077407
 20
-56.59740666987843
 30
0.0
 10
201.5784565739545
 20
-56.59740666987843
 30
0.0
 10
201.3807080931011
 20
-56.81479219499769
 30
0.0
 10
201.3114616738476
 20
-57.03217772011695
 30
0.0
 10
201.2866569863538
 20
-57.09625649614261
 30
0.0
 10
201.2770107189951
 20
-57.17032604907547
 30
0.0
 10
201.2770107189951
 20
-57.24474011155687
 30
0.0
 10
201.2770107189951
 20
-57.24474011155687
 30
0.0
 10
201.2770107189951
 20
-58.6875461007795
 30
0.0
 10
201.2770107189951
 20
-58.6875461007795
 30
0.0
 10
201.2770107189951
 20
-58.6875461007795
 30
0.0
 10
200.8518859361152
 20
-58.6875461007795
 30
0.0
 10
200.8518859361152
 20
-58.6875461007795
 30
0.0
 10
200.8518859361152
 20
-58.6875461007795
 30
0.0
 10
200.8518859361152
 20
-56.94329425659751
 30
0.0
 10
200.8518859361152
 20
-56.94329425659751
 30
0.0
  0
HATCH
  5
98
330
70
100
AcDbEntity
  8
Layer 1
 62
   114
440
 33554687
100
AcDbHatch
 10
0.0
 20
0.0
 30
0.0
210
0.0
220
0.0
230
1.0
  2
SOLID
 70
     1
 71
     1
 91
        1
 92
        1
 93
        1
 72
     4
 94
        3
 73
     0
 74
     0
 95
       80
 96
       76
 40
0.0
 40
0.0
 40
0.0
 40
0.0
 40
1.0
 40
1.0
 40
1.0
 40
2.0
 40
2.0
 40
2.0
 40
3.0
 40
3.0
 40
3.0
 40
4.0
 40
4.0
 40
4.0
 40
5.0
 40
5.0
 40
5.0
 40
6.0
 40
6.0
 40
6.0
 40
7.0
 40
7.0
 40
7.0
 40
8.0
 40
8.0
 40
8.0
 40
9.0
 40
9.0
 40
9.0
 40
10.0
 40
10.0
 40
10.0
 40
11.0
 40
11.0
 40
11.0
 40
12.0
 40
12.0
 40
12.0
 40
13.0
 40
13.0
 40
13.0
 40
14.0
 40
14.0
 40
14.0
 40
15.0
 40
15.0
 40
15.0
 40
16.0
 40
16.0
 40
16.0
 40
17.0
 40
17.0
 40
17.0
 40
18.0
 40
18.0
 40
18.0
 40
19.0
 40
19.0
 40
19.0
 40
20.0
 40
20.0
 40
20.0
 40
21.0
 40
21.0
 40
21.0
 40
22.0
 40
22.0
 40
22.0
 40
23.0
 40
23.0
 40
23.0
 40
24.0
 40
24.0
 40
24.0
 40
25.0
 40
25.0
 40
25.0
 40
25.0
 10
200.8518859361152
 20
-56.94329425659751
 10
200.8518859361152
 20
-56.69593640075657
 10
200.8470628024359
 20
-56.49336478622388
 10
200.8322488918493
 20
-56.29596081491907
 10
200.8322488918493
 20
-56.29596081491907
 10
201.2125874334209
 20
-56.29596081491907
 10
201.2125874334209
 20
-56.29596081491907
 10
201.2125874334209
 20
-56.29596081491907
 10
201.2325689872354
 20
-56.68112249016999
 10
201.2325689872354
 20
-56.68112249016999
 10
201.2325689872354
 20
-56.68112249016999
 10
201.2473828978219
 20
-56.68112249016999
 10
201.2473828978219
 20
-56.68112249016999
 10
201.3807080931011
 20
-56.45409069769204
 10
201.6029167518997
 20
-56.24152830625212
 10
201.9984137136064
 20
-56.24152830625212
 10
202.3246642560596
 20
-56.24152830625212
 10
202.571677602352
 20
-56.43927678710547
 10
202.675374976458
 20
-56.72074108825037
 10
202.675374976458
 20
-56.72074108825037
 10
202.6853657533652
 20
-56.72074108825037
 10
202.6853657533652
 20
-56.72074108825037
 10
202.7594353062981
 20
-56.5874158929712
 10
202.8531419034969
 20
-56.48371851886518
 10
202.9520161439235
 20
-56.40964896593231
 10
203.0953321161099
 20
-56.30078394859841
 10
203.2534619988829
 20
-56.24152830625212
 10
203.4808383009094
 20
-56.24152830625212
 10
203.7970980664553
 20
-56.24152830625212
 10
204.2666645810949
 20
-56.44892305446416
 10
204.2666645810949
 20
-57.27919106640937
 10
204.2666645810949
 20
-57.27919106640937
 10
204.2666645810949
 20
-58.6875461007795
 10
204.2666645810949
 20
-58.6875461007795
 10
204.2666645810949
 20
-58.6875461007795
 10
203.841539798215
 20
-58.6875461007795
 10
203.841539798215
 20
-58.6875461007795
 10
203.841539798215
 20
-58.6875461007795
 10
203.841539798215
 20
-57.33362357507632
 10
203.841539798215
 20
-57.33362357507632
 10
203.841539798215
 20
-56.87404783734399
 10
203.6734191385348
 20
-56.59740666987843
 10
203.3227084181365
 20
-56.59740666987843
 10
203.075695071844
 20
-56.59740666987843
 10
202.88276972467
 20
-56.77999673059667
 10
202.8087001717371
 20
-56.99255912203658
 10
202.7890631274712
 20
-57.05181476438288
 10
202.7742492168847
 20
-57.13105196054363
 10
202.7742492168847
 20
-57.20994464715585
 10
202.7742492168847
 20
-57.20994464715585
 10
202.7742492168847
 20
-58.6875461007795
 10
202.7742492168847
 20
-58.6875461007795
 10
202.7742492168847
 20
-58.6875461007795
 10
202.3491244340049
 20
-58.6875461007795
 10
202.3491244340049
 20
-58.6875461007795
 10
202.3491244340049
 20
-58.6875461007795
 10
202.3491244340049
 20
-57.25438637891556
 10
202.3491244340049
 20
-57.25438637891556
 10
202.3491244340049
 20
-56.87404783734399
 10
202.1813482838731
 20
-56.59740666987843
 10
201.8502746077407
 20
-56.59740666987843
 10
201.5784565739545
 20
-56.59740666987843
 10
201.3807080931011
 20
-56.81479219499769
 10
201.3114616738476
 20
-57.03217772011695
 10
201.2866569863538
 20
-57.09625649614261
 10
201.2770107189951
 20
-57.17032604907547
 10
201.2770107189951
 20
-57.24474011155687
 10
201.2770107189951
 20
-57.24474011155687
 10
201.2770107189951
 20
-58.6875461007795
 10
201.2770107189951
 20
-58.6875461007795
 10
201.2770107189951
 20
-58.6875461007795
 10
200.8518859361152
 20
-58.6875461007795
 10
200.8518859361152
 20
-58.6875461007795
 10
200.8518859361152
 20
-58.6875461007795
 10
200.8518859361152
 20
-56.94329425659751
 10
200.8518859361152
 20
-56.94329425659751
 97
        0
 97
        1
330
97
 75
     2
 76
     1
 98
        1
 10
0.0
 20
0.0
450
        0
451
        0
460
0.0
461
0.0
452
        0
462
0.0
453
        0
470

  0
SPLINE
  5
99
330
70
100
AcDbEntity
  8
Layer 1
100
AcDbSpline
210
0.0
220
0.0
230
1.0
 70
     9
 71
     3
 72
    80
 73
    76
 74
     0
 42
0.0000000001
 43
0.0000000001
 40
0.0
 40
0.0
 40
0.0
 40
0.0
 40
1.0
 40
1.0
 40
1.0
 40
2.0
 40
2.0
 40
2.0
 40
3.0
 40
3.0
 40
3.0
 40
4.0
 40
4.0
 40
4.0
 40
5.0
 40
5.0
 40
5.0
 40
6.0
 40
6.0
 40
6.0
 40
7.0
 40
7.0
 40
7.0
 40
8.0
 40
8.0
 40
8.0
 40
9.0
 40
9.0
 40
9.0
 40
10.0
 40
10.0
 40
10.0
 40
11.0
 40
11.0
 40
11.0
 40
12.0
 40
12.0
 40
12.0
 40
13.0
 40
13.0
 40
13.0
 40
14.0
 40
14.0
 40
14.0
 40
15.0
 40
15.0
 40
15.0
 40
16.0
 40
16.0
 40
16.0
 40
17.0
 40
17.0
 40
17.0
 40
18.0
 40
18.0
 40
18.0
 40
19.0
 40
19.0
 40
19.0
 40
20.0
 40
20.0
 40
20.0
 40
21.0
 40
21.0
 40
21.0
 40
22.0
 40
22.0
 40
22.0
 40
23.0
 40
23.0
 40
23.0
 40
24.0
 40
24.0
 40
24.0
 40
25.0
 40
25.0
 40
25.0
 40
25.0
 10
204.97084209828
 20
-56.94329425659751
 30
0.0
 10
204.97084209828
 20
-56.69593640075657
 30
0.0
 10
204.9660189646006
 20
-56.49336478622388
 30
0.0
 10
204.951205054014
 20
-56.29596081491907
 30
0.0
 10
204.951205054014
 20
-56.29596081491907
 30
0.0
 10
205.3315435955856
 20
-56.29596081491907
 30
0.0
 10
205.3315435955856
 20
-56.29596081491907
 30
0.0
 10
205.3315435955856
 20
-56.29596081491907
 30
0.0
 10
205.3515251494001
 20
-56.68112249016999
 30
0.0
 10
205.3515251494001
 20
-56.68112249016999
 30
0.0
 10
205.3515251494001
 20
-56.68112249016999
 30
0.0
 10
205.3663390599866
 20
-56.68112249016999
 30
0.0
 10
205.3663390599866
 20
-56.68112249016999
 30
0.0
 10
205.4996642552658
 20
-56.45409069769204
 30
0.0
 10
205.7218729140644
 20
-56.24152830625212
 30
0.0
 10
206.1173698757711
 20
-56.24152830625212
 30
0.0
 10
206.4436204182243
 20
-56.24152830625212
 30
0.0
 10
206.6906337645167
 20
-56.43927678710547
 30
0.0
 10
206.7943311386227
 20
-56.72074108825037
 30
0.0
 10
206.7943311386227
 20
-56.72074108825037
 30
0.0
 10
206.8043219155299
 20
-56.72074108825037
 30
0.0
 10
206.8043219155299
 20
-56.72074108825037
 30
0.0
 10
206.8783914684628
 20
-56.5874158929712
 30
0.0
 10
206.9720980656616
 20
-56.48371851886518
 30
0.0
 10
207.0709723060883
 20
-56.40964896593231
 30
0.0
 10
207.2142882782746
 20
-56.30078394859841
 30
0.0
 10
207.3724181610476
 20
-56.24152830625212
 30
0.0
 10
207.5997944630741
 20
-56.24152830625212
 30
0.0
 10
207.91605422862
 20
-56.24152830625212
 30
0.0
 10
208.3856207432596
 20
-56.44892305446416
 30
0.0
 10
208.3856207432596
 20
-57.27919106640937
 30
0.0
 10
208.3856207432596
 20
-57.27919106640937
 30
0.0
 10
208.3856207432596
 20
-58.6875461007795
 30
0.0
 10
208.3856207432596
 20
-58.6875461007795
 30
0.0
 10
208.3856207432596
 20
-58.6875461007795
 30
0.0
 10
207.9604959603798
 20
-58.6875461007795
 30
0.0
 10
207.9604959603798
 20
-58.6875461007795
 30
0.0
 10
207.9604959603798
 20
-58.6875461007795
 30
0.0
 10
207.9604959603798
 20
-57.33362357507632
 30
0.0
 10
207.9604959603798
 20
-57.33362357507632
 30
0.0
 10
207.9604959603798
 20
-56.87404783734399
 30
0.0
 10
207.7923753006996
 20
-56.59740666987843
 30
0.0
 10
207.4416645803011
 20
-56.59740666987843
 30
0.0
 10
207.1946512340087
 20
-56.59740666987843
 30
0.0
 10
207.0017258868347
 20
-56.77999673059667
 30
0.0
 10
206.9276563339019
 20
-56.99255912203658
 30
0.0
 10
206.9080192896359
 20
-57.05181476438288
 30
0.0
 10
206.8932053790494
 20
-57.13105196054363
 30
0.0
 10
206.8932053790494
 20
-57.20994464715585
 30
0.0
 10
206.8932053790494
 20
-57.20994464715585
 30
0.0
 10
206.8932053790494
 20
-58.6875461007795
 30
0.0
 10
206.8932053790494
 20
-58.6875461007795
 30
0.0
 10
206.8932053790494
 20
-58.6875461007795
 30
0.0
 10
206.4680805961695
 20
-58.6875461007795
 30
0.0
 10
206.4680805961695
 20
-58.6875461007795
 30
0.0
 10
206.4680805961695
 20
-58.6875461007795
 30
0.0
 10
206.4680805961695
 20
-57.25438637891556
 30
0.0
 10
206.4680805961695
 20
-57.25438637891556
 30
0.0
 10
206.4680805961695
 20
-56.87404783734399
 30
0.0
 10
206.3003044460379
 20
-56.59740666987843
 30
0.0
 10
205.9692307699053
 20
-56.59740666987843
 30
0.0
 10
205.6974127361191
 20
-56.59740666987843
 30
0.0
 10
205.4996642552658
 20
-56.81479219499769
 30
0.0
 10
205.4304178360123
 20
-57.03217772011695
 30
0.0
 10
205.4056131485185
 20
-57.09625649614261
 30
0.0
 10
205.3959668811598
 20
-57.17032604907547
 30
0.0
 10
205.3959668811598
 20
-57.24474011155687
 30
0.0
 10
205.3959668811598
 20
-57.24474011155687
 30
0.0
 10
205.3959668811598
 20
-58.6875461007795
 30
0.0
 10
205.3959668811598
 20
-58.6875461007795
 30
0.0
 10
205.3959668811598
 20
-58.6875461007795
 30
0.0
 10
204.97084209828
 20
-58.6875461007795
 30
0.0
 10
204.97084209828
 20
-58.6875461007795
 30
0.0
 10
204.97084209828
 20
-58.6875461007795
 30
0.0
 10
204.97084209828
 20
-56.94329425659751
 30
0.0
 10
204.97084209828
 20
-56.94329425659751
 30
0.0
  0
HATCH
  5
9A
330
70
100
AcDbEntity
  8
Layer 1
 62
   114
440
 33554687
100
AcDbHatch
 10
0.0
 20
0.0
 30
0.0
210
0.0
220
0.0
230
1.0
  2
SOLID
 70
     1
 71
     1
 91
        1
 92
        1
 93
        1
 72
     4
 94
        3
 73
     0
 74
     0
 95
       80
 96
       76
 40
0.0
 40
0.0
 40
0.0
 40
0.0
 40
1.0
 40
1.0
 40
1.0
 40
2.0
 40
2.0
 40
2.0
 40
3.0
 40
3.0
 40
3.0
 40
4.0
 40
4.0
 40
4.0
 40
5.0
 40
5.0
 40
5.0
 40
6.0
 40
6.0
 40
6.0
 40
7.0
 40
7.0
 40
7.0
 40
8.0
 40
8.0
 40
8.0
 40
9.0
 40
9.0
 40
9.0
 40
10.0
 40
10.0
 40
10.0
 40
11.0
 40
11.0
 40
11.0
 40
12.0
 40
12.0
 40
12.0
 40
13.0
 40
13.0
 40
13.0
 40
14.0
 40
14.0
 40
14.0
 40
15.0
 40
15.0
 40
15.0
 40
16.0
 40
16.0
 40
16.0
 40
17.0
 40
17.0
 40
17.0
 40
18.0
 40
18.0
 40
18.0
 40
19.0
 40
19.0
 40
19.0
 40
20.0
 40
20.0
 40
20.0
 40
21.0
 40
21.0
 40
21.0
 40
22.0
 40
22.0
 40
22.0
 40
23.0
 40
23.0
 40
23.0
 40
24.0
 40
24.0
 40
24.0
 40
25.0
 40
25.0
 40
25.0
 40
25.0
 10
204.97084209828
 20
-56.94329425659751
 10
204.97084209828
 20
-56.69593640075657
 10
204.9660189646006
 20
-56.49336478622388
 10
204.951205054014
 20
-56.29596081491907
 10
204.951205054014
 20
-56.29596081491907
 10
205.3315435955856
 20
-56.29596081491907
 10
205.3315435955856
 20
-56.29596081491907
 10
205.3315435955856
 20
-56.29596081491907
 10
205.3515251494001
 20
-56.68112249016999
 10
205.3515251494001
 20
-56.68112249016999
 10
205.3515251494001
 20
-56.68112249016999
 10
205.3663390599866
 20
-56.68112249016999
 10
205.3663390599866
 20
-56.68112249016999
 10
205.4996642552658
 20
-56.45409069769204
 10
205.7218729140644
 20
-56.24152830625212
 10
206.1173698757711
 20
-56.24152830625212
 10
206.4436204182243
 20
-56.24152830625212
 10
206.6906337645167
 20
-56.43927678710547
 10
206.7943311386227
 20
-56.72074108825037
 10
206.7943311386227
 20
-56.72074108825037
 10
206.8043219155299
 20
-56.72074108825037
 10
206.8043219155299
 20
-56.72074108825037
 10
206.8783914684628
 20
-56.5874158929712
 10
206.9720980656616
 20
-56.48371851886518
 10
207.0709723060883
 20
-56.40964896593231
 10
207.2142882782746
 20
-56.30078394859841
 10
207.3724181610476
 20
-56.24152830625212
 10
207.5997944630741
 20
-56.24152830625212
 10
207.91605422862
 20
-56.24152830625212
 10
208.3856207432596
 20
-56.44892305446416
 10
208.3856207432596
 20
-57.27919106640937
 10
208.3856207432596
 20
-57.27919106640937
 10
208.3856207432596
 20
-58.6875461007795
 10
208.3856207432596
 20
-58.6875461007795
 10
208.3856207432596
 20
-58.6875461007795
 10
207.9604959603798
 20
-58.6875461007795
 10
207.9604959603798
 20
-58.6875461007795
 10
207.9604959603798
 20
-58.6875461007795
 10
207.9604959603798
 20
-57.33362357507632
 10
207.9604959603798
 20
-57.33362357507632
 10
207.9604959603798
 20
-56.87404783734399
 10
207.7923753006996
 20
-56.59740666987843
 10
207.4416645803011
 20
-56.59740666987843
 10
207.1946512340087
 20
-56.59740666987843
 10
207.0017258868347
 20
-56.77999673059667
 10
206.9276563339019
 20
-56.99255912203658
 10
206.9080192896359
 20
-57.05181476438288
 10
206.8932053790494
 20
-57.13105196054363
 10
206.8932053790494
 20
-57.20994464715585
 10
206.8932053790494
 20
-57.20994464715585
 10
206.8932053790494
 20
-58.6875461007795
 10
206.8932053790494
 20
-58.6875461007795
 10
206.8932053790494
 20
-58.6875461007795
 10
206.4680805961695
 20
-58.6875461007795
 10
206.4680805961695
 20
-58.6875461007795
 10
206.4680805961695
 20
-58.6875461007795
 10
206.4680805961695
 20
-57.25438637891556
 10
206.4680805961695
 20
-57.25438637891556
 10
206.4680805961695
 20
-56.87404783734399
 10
206.3003044460379
 20
-56.59740666987843
 10
205.9692307699053
 20
-56.59740666987843
 10
205.6974127361191
 20
-56.59740666987843
 10
205.4996642552658
 20
-56.81479219499769
 10
205.4304178360123
 20
-57.03217772011695
 10
205.4056131485185
 20
-57.09625649614261
 10
205.3959668811598
 20
-57.17032604907547
 10
205.3959668811598
 20
-57.24474011155687
 10
205.3959668811598
 20
-57.24474011155687
 10
205.3959668811598
 20
-58.6875461007795
 10
205.3959668811598
 20
-58.6875461007795
 10
205.3959668811598
 20
-58.6875461007795
 10
204.97084209828
 20
-58.6875461007795
 10
204.97084209828
 20
-58.6875461007795
 10
204.97084209828
 20
-58.6875461007795
 10
204.97084209828
 20
-56.94329425659751
 10
204.97084209828
 20
-56.94329425659751
 97
        0
 97
        1
330
99
 75
     2
 76
     1
 98
        1
 10
0.0
 20
0.0
450
        0
451
        0
460
0.0
461
0.0
452
        0
462
0.0
453
        0
470

  0
SPLINE
  5
9B
330
70
100
AcDbEntity
  8
Layer 1
100
AcDbSpline
210
0.0
220
0.0
230
1.0
 70
    11
 71
     3
 72
    59
 73
    55
 74
     0
 42
0.0000000001
 43
0.0000000001
 40
0.0
 40
0.0
 40
0.0
 40
0.0
 40
1.0
 40
1.0
 40
1.0
 40
2.0
 40
2.0
 40
2.0
 40
3.0
 40
3.0
 40
3.0
 40
4.0
 40
4.0
 40
4.0
 40
5.0
 40
5.0
 40
5.0
 40
6.0
 40
6.0
 40
6.0
 40
7.0
 40
7.0
 40
7.0
 40
8.0
 40
8.0
 40
8.0
 40
9.0
 40
9.0
 40
9.0
 40
10.0
 40
10.0
 40
10.0
 40
11.0
 40
11.0
 40
11.0
 40
12.0
 40
12.0
 40
12.0
 40
13.0
 40
13.0
 40
13.0
 40
14.0
 40
14.0
 40
14.0
 40
15.0
 40
15.0
 40
15.0
 40
16.0
 40
16.0
 40
16.0
 40
17.0
 40
17.0
 40
17.0
 40
18.0
 40
18.0
 40
18.0
 40
18.0
 10
210.3393343929448
 20
-56.29596081491907
 30
0.0
 10
210.3393343929448
 20
-56.29596081491907
 30
0.0
 10
210.6803988459845
 20
-56.80962455176982
 30
0.0
 10
210.6803988459845
 20
-56.80962455176982
 30
0.0
 10
210.7692823095039
 20
-56.94329425659751
 30
0.0
 10
210.8433518624369
 20
-57.06662867496945
 30
0.0
 10
210.9225890585975
 20
-57.20029837979715
 30
0.0
 10
210.9225890585975
 20
-57.20029837979715
 30
0.0
 10
210.9374029691842
 20
-57.20029837979715
 30
0.0
 10
210.9374029691842
 20
-57.20029837979715
 30
0.0
 10
211.0162956557964
 20
-57.05698240761075
 30
0.0
 10
211.0955328519571
 20
-56.93330347969029
 30
0.0
 10
211.1744255385693
 20
-56.80480141809047
 30
0.0
 10
211.1744255385693
 20
-56.80480141809047
 30
0.0
 10
211.5106668579297
 20
-56.29596081491907
 30
0.0
 10
211.5106668579297
 20
-56.29596081491907
 30
0.0
 10
211.5106668579297
 20
-56.29596081491907
 30
0.0
 10
211.9798888630207
 20
-56.29596081491907
 30
0.0
 10
211.9798888630207
 20
-56.29596081491907
 30
0.0
 10
211.9798888630207
 20
-56.29596081491907
 30
0.0
 10
211.1647792712107
 20
-57.45213485976891
 30
0.0
 10
211.1647792712107
 20
-57.45213485976891
 30
0.0
 10
211.1647792712107
 20
-57.45213485976891
 30
0.0
 10
212.0046935505146
 20
-58.6875461007795
 30
0.0
 10
212.0046935505146
 20
-58.6875461007795
 30
0.0
 10
212.0046935505146
 20
-58.6875461007795
 30
0.0
 10
211.5106668579297
 20
-58.6875461007795
 30
0.0
 10
211.5106668579297
 20
-58.6875461007795
 30
0.0
 10
211.5106668579297
 20
-58.6875461007795
 30
0.0
 10
211.1596116279828
 20
-58.14907767643496
 30
0.0
 10
211.1596116279828
 20
-58.14907767643496
 30
0.0
 10
211.065905030784
 20
-58.01058483792791
 30
0.0
 10
210.9866678346232
 20
-57.87725964264875
 30
0.0
 10
210.9026075047832
 20
-57.73394367046235
 30
0.0
 10
210.9026075047832
 20
-57.73394367046235
 30
0.0
 10
210.8929612374244
 20
-57.73394367046235
 30
0.0
 10
210.8929612374244
 20
-57.73394367046235
 30
0.0
 10
210.8137240412637
 20
-57.87725964264875
 30
0.0
 10
210.7296637114236
 20
-58.00576170424856
 30
0.0
 10
210.6407802479041
 20
-58.14907767643496
 30
0.0
 10
210.6407802479041
 20
-58.14907767643496
 30
0.0
 10
210.2948926611851
 20
-58.6875461007795
 30
0.0
 10
210.2948926611851
 20
-58.6875461007795
 30
0.0
 10
210.2948926611851
 20
-58.6875461007795
 30
0.0
 10
209.8156798791868
 20
-58.6875461007795
 30
0.0
 10
209.8156798791868
 20
-58.6875461007795
 30
0.0
 10
209.8156798791868
 20
-58.6875461007795
 30
0.0
 10
210.6655849353979
 20
-57.46694877035548
 30
0.0
 10
210.6655849353979
 20
-57.46694877035548
 30
0.0
 10
210.6655849353979
 20
-57.46694877035548
 30
0.0
 10
209.8549539677186
 20
-56.29596081491907
 30
0.0
 10
209.8549539677186
 20
-56.29596081491907
 30
0.0
 10
209.8549539677186
 20
-56.29596081491907
 30
0.0
 10
210.3393343929448
 20
-56.29596081491907
 30
0.0
 10
210.3393343929448
 20
-56.29596081491907
 30
0.0
  0
HATCH
  5
9C
330
70
100
AcDbEntity
  8
Layer 1
 62
   114
440
 33554687
100
AcDbHatch
 10
0.0
 20
0.0
 30
0.0
210
0.0
220
0.0
230
1.0
  2
SOLID
 70
     1
 71
     1
 91
        1
 92
        1
 93
        1
 72
     4
 94
        3
 73
     0
 74
     0
 95
       59
 96
       55
 40
0.0
 40
0.0
 40
0.0
 40
0.0
 40
1.0
 40
1.0
 40
1.0
 40
2.0
 40
2.0
 40
2.0
 40
3.0
 40
3.0
 40
3.0
 40
4.0
 40
4.0
 40
4.0
 40
5.0
 40
5.0
 40
5.0
 40
6.0
 40
6.0
 40
6.0
 40
7.0
 40
7.0
 40
7.0
 40
8.0
 40
8.0
 40
8.0
 40
9.0
 40
9.0
 40
9.0
 40
10.0
 40
10.0
 40
10.0
 40
11.0
 40
11.0
 40
11.0
 40
12.0
 40
12.0
 40
12.0
 40
13.0
 40
13.0
 40
13.0
 40
14.0
 40
14.0
 40
14.0
 40
15.0
 40
15.0
 40
15.0
 40
16.0
 40
16.0
 40
16.0
 40
17.0
 40
17.0
 40
17.0
 40
18.0
 40
18.0
 40
18.0
 40
18.0
 10
210.3393343929448
 20
-56.29596081491907
 10
210.3393343929448
 20
-56.29596081491907
 10
210.6803988459845
 20
-56.80962455176982
 10
210.6803988459845
 20
-56.80962455176982
 10
210.7692823095039
 20
-56.94329425659751
 10
210.8433518624369
 20
-57.06662867496945
 10
210.9225890585975
 20
-57.20029837979715
 10
210.9225890585975
 20
-57.20029837979715
 10
210.9374029691842
 20
-57.20029837979715
 10
210.9374029691842
 20
-57.20029837979715
 10
211.0162956557964
 20
-57.05698240761075
 10
211.0955328519571
 20
-56.93330347969029
 10
211.1744255385693
 20
-56.80480141809047
 10
211.1744255385693
 20
-56.80480141809047
 10
211.5106668579297
 20
-56.29596081491907
 10
211.5106668579297
 20
-56.29596081491907
 10
211.5106668579297
 20
-56.29596081491907
 10
211.9798888630207
 20
-56.29596081491907
 10
211.9798888630207
 20
-56.29596081491907
 10
211.9798888630207
 20
-56.29596081491907
 10
211.1647792712107
 20
-57.45213485976891
 10
211.1647792712107
 20
-57.45213485976891
 10
211.1647792712107
 20
-57.45213485976891
 10
212.0046935505146
 20
-58.6875461007795
 10
212.0046935505146
 20
-58.6875461007795
 10
212.0046935505146
 20
-58.6875461007795
 10
211.5106668579297
 20
-58.6875461007795
 10
211.5106668579297
 20
-58.6875461007795
 10
211.5106668579297
 20
-58.6875461007795
 10
211.1596116279828
 20
-58.14907767643496
 10
211.1596116279828
 20
-58.14907767643496
 10
211.065905030784
 20
-58.01058483792791
 10
210.9866678346232
 20
-57.87725964264875
 10
210.9026075047832
 20
-57.73394367046235
 10
210.9026075047832
 20
-57.73394367046235
 10
210.8929612374244
 20
-57.73394367046235
 10
210.8929612374244
 20
-57.73394367046235
 10
210.8137240412637
 20
-57.87725964264875
 10
210.7296637114236
 20
-58.00576170424856
 10
210.6407802479041
 20
-58.14907767643496
 10
210.6407802479041
 20
-58.14907767643496
 10
210.2948926611851
 20
-58.6875461007795
 10
210.2948926611851
 20
-58.6875461007795
 10
210.2948926611851
 20
-58.6875461007795
 10
209.8156798791868
 20
-58.6875461007795
 10
209.8156798791868
 20
-58.6875461007795
 10
209.8156798791868
 20
-58.6875461007795
 10
210.6655849353979
 20
-57.46694877035548
 10
210.6655849353979
 20
-57.46694877035548
 10
210.6655849353979
 20
-57.46694877035548
 10
209.8549539677186
 20
-56.29596081491907
 10
209.8549539677186
 20
-56.29596081491907
 10
209.8549539677186
 20
-56.29596081491907
 10
210.3393343929448
 20
-56.29596081491907
 10
210.3393343929448
 20
-56.29596081491907
 97
        0
 97
        1
330
9B
 75
     2
 76
     1
 98
        1
 10
0.0
 20
0.0
450
        0
451
        0
460
0.0
461
0.0
452
        0
462
0.0
453
        0
470

  0
SPLINE
  5
9D
330
70
100
AcDbEntity
  8
Layer 1
100
AcDbSpline
210
0.0
220
0.0
230
1.0
 70
     9
 71
     3
 72
    59
 73
    55
 74
     0
 42
0.0000000001
 43
0.0000000001
 40
0.0
 40
0.0
 40
0.0
 40
0.0
 40
1.0
 40
1.0
 40
1.0
 40
2.0
 40
2.0
 40
2.0
 40
3.0
 40
3.0
 40
3.0
 40
4.0
 40
4.0
 40
4.0
 40
5.0
 40
5.0
 40
5.0
 40
6.0
 40
6.0
 40
6.0
 40
7.0
 40
7.0
 40
7.0
 40
8.0
 40
8.0
 40
8.0
 40
9.0
 40
9.0
 40
9.0
 40
10.0
 40
10.0
 40
10.0
 40
11.0
 40
11.0
 40
11.0
 40
12.0
 40
12.0
 40
12.0
 40
13.0
 40
13.0
 40
13.0
 40
14.0
 40
14.0
 40
14.0
 40
15.0
 40
15.0
 40
15.0
 40
16.0
 40
16.0
 40
16.0
 40
17.0
 40
17.0
 40
17.0
 40
18.0
 40
18.0
 40
18.0
 40
18.0
 10
213.4361307246359
 20
-58.1883517649668
 30
0.0
 10
213.5594651430078
 20
-58.26758896112755
 30
0.0
 10
213.8460970873806
 20
-58.39092337949949
 30
0.0
 10
214.14754294234
 20
-58.39092337949949
 30
0.0
 10
214.7059929204989
 20
-58.39092337949949
 30
0.0
 10
214.8789367138585
 20
-58.03538952542171
 30
0.0
 10
214.8741135801791
 20
-57.76839462531484
 30
0.0
 10
214.8689459369513
 20
-57.31880966448974
 30
0.0
 10
214.4638027078859
 20
-57.12588431731575
 30
0.0
 10
214.0438455682339
 20
-57.12588431731575
 30
0.0
 10
214.0438455682339
 20
-57.12588431731575
 30
0.0
 10
213.8016553556209
 20
-57.12588431731575
 30
0.0
 10
213.8016553556209
 20
-57.12588431731575
 30
0.0
 10
213.8016553556209
 20
-57.12588431731575
 30
0.0
 10
213.8016553556209
 20
-56.79997828441112
 30
0.0
 10
213.8016553556209
 20
-56.79997828441112
 30
0.0
 10
213.8016553556209
 20
-56.79997828441112
 30
0.0
 10
214.0438455682339
 20
-56.79997828441112
 30
0.0
 10
214.0438455682339
 20
-56.79997828441112
 30
0.0
 10
214.3601053337799
 20
-56.79997828441112
 30
0.0
 10
214.7604254291659
 20
-56.63668075841028
 30
0.0
 10
214.7604254291659
 20
-56.2563422168387
 30
0.0
 10
214.7604254291659
 20
-55.99933809363905
 30
0.0
 10
214.597127903165
 20
-55.77196179161257
 30
0.0
 10
214.1971523173276
 20
-55.77196179161257
 30
0.0
 10
213.9401481941279
 20
-55.77196179161257
 30
0.0
 10
213.6931348478355
 20
-55.88564994262581
 30
0.0
 10
213.5546420093285
 20
-55.98452418305249
 30
0.0
 10
213.5546420093285
 20
-55.98452418305249
 30
0.0
 10
213.4409538583152
 20
-55.66826441750655
 30
0.0
 10
213.4409538583152
 20
-55.66826441750655
 30
0.0
 10
213.6090745179954
 20
-55.54458548958607
 30
0.0
 10
213.9349805509001
 20
-55.42125107121414
 30
0.0
 10
214.2808681376191
 20
-55.42125107121414
 30
0.0
 10
214.913387668711
 20
-55.42125107121414
 30
0.0
 10
215.2000196130838
 20
-55.79676647910637
 30
0.0
 10
215.2000196130838
 20
-56.18709579758517
 30
0.0
 10
215.2000196130838
 20
-56.51816947371768
 30
0.0
 10
215.002615641779
 20
-56.79997828441112
 30
0.0
 10
214.6071186800722
 20
-56.94329425659751
 30
0.0
 10
214.6071186800722
 20
-56.94329425659751
 30
0.0
 10
214.6071186800722
 20
-56.95294052395621
 30
0.0
 10
214.6071186800722
 20
-56.95294052395621
 30
0.0
 10
215.002615641779
 20
-57.03217772011695
 30
0.0
 10
215.3236985410043
 20
-57.32845593184844
 30
0.0
 10
215.3236985410043
 20
-57.77838540222207
 30
0.0
 10
215.3236985410043
 20
-58.29204913907283
 30
0.0
 10
214.9233784456182
 20
-58.74197860944645
 30
0.0
 10
214.1527105855678
 20
-58.74197860944645
 30
0.0
 10
213.7916645787136
 20
-58.74197860944645
 30
0.0
 10
213.4754048131677
 20
-58.6282904584332
 30
0.0
 10
213.3172749303947
 20
-58.52459308432718
 30
0.0
 10
213.3172749303947
 20
-58.52459308432718
 30
0.0
 10
213.4361307246359
 20
-58.1883517649668
 30
0.0
 10
213.4361307246359
 20
-58.1883517649668
 30
0.0
  0
HATCH
  5
9E
330
70
100
AcDbEntity
  8
Layer 1
 62
   114
440
 33554687
100
AcDbHatch
 10
0.0
 20
0.0
 30
0.0
210
0.0
220
0.0
230
1.0
  2
SOLID
 70
     1
 71
     1
 91
        1
 92
        1
 93
        1
 72
     4
 94
        3
 73
     0
 74
     0
 95
       59
 96
       55
 40
0.0
 40
0.0
 40
0.0
 40
0.0
 40
1.0
 40
1.0
 40
1.0
 40
2.0
 40
2.0
 40
2.0
 40
3.0
 40
3.0
 40
3.0
 40
4.0
 40
4.0
 40
4.0
 40
5.0
 40
5.0
 40
5.0
 40
6.0
 40
6.0
 40
6.0
 40
7.0
 40
7.0
 40
7.0
 40
8.0
 40
8.0
 40
8.0
 40
9.0
 40
9.0
 40
9.0
 40
10.0
 40
10.0
 40
10.0
 40
11.0
 40
11.0
 40
11.0
 40
12.0
 40
12.0
 40
12.0
 40
13.0
 40
13.0
 40
13.0
 40
14.0
 40
14.0
 40
14.0
 40
15.0
 40
15.0
 40
15.0
 40
16.0
 40
16.0
 40
16.0
 40
17.0
 40
17.0
 40
17.0
 40
18.0
 40
18.0
 40
18.0
 40
18.0
 10
213.4361307246359
 20
-58.1883517649668
 10
213.5594651430078
 20
-58.26758896112755
 10
213.8460970873806
 20
-58.39092337949949
 10
214.14754294234
 20
-58.39092337949949
 10
214.7059929204989
 20
-58.39092337949949
 10
214.8789367138585
 20
-58.03538952542171
 10
214.8741135801791
 20
-57.76839462531484
 10
214.8689459369513
 20
-57.31880966448974
 10
214.4638027078859
 20
-57.12588431731575
 10
214.0438455682339
 20
-57.12588431731575
 10
214.0438455682339
 20
-57.12588431731575
 10
213.8016553556209
 20
-57.12588431731575
 10
213.8016553556209
 20
-57.12588431731575
 10
213.8016553556209
 20
-57.12588431731575
 10
213.8016553556209
 20
-56.79997828441112
 10
213.8016553556209
 20
-56.79997828441112
 10
213.8016553556209
 20
-56.79997828441112
 10
214.0438455682339
 20
-56.79997828441112
 10
214.0438455682339
 20
-56.79997828441112
 10
214.3601053337799
 20
-56.79997828441112
 10
214.7604254291659
 20
-56.63668075841028
 10
214.7604254291659
 20
-56.2563422168387
 10
214.7604254291659
 20
-55.99933809363905
 10
214.597127903165
 20
-55.77196179161257
 10
214.1971523173276
 20
-55.77196179161257
 10
213.9401481941279
 20
-55.77196179161257
 10
213.6931348478355
 20
-55.88564994262581
 10
213.5546420093285
 20
-55.98452418305249
 10
213.5546420093285
 20
-55.98452418305249
 10
213.4409538583152
 20
-55.66826441750655
 10
213.4409538583152
 20
-55.66826441750655
 10
213.6090745179954
 20
-55.54458548958607
 10
213.9349805509001
 20
-55.42125107121414
 10
214.2808681376191
 20
-55.42125107121414
 10
214.913387668711
 20
-55.42125107121414
 10
215.2000196130838
 20
-55.79676647910637
 10
215.2000196130838
 20
-56.18709579758517
 10
215.2000196130838
 20
-56.51816947371768
 10
215.002615641779
 20
-56.79997828441112
 10
214.6071186800722
 20
-56.94329425659751
 10
214.6071186800722
 20
-56.94329425659751
 10
214.6071186800722
 20
-56.95294052395621
 10
214.6071186800722
 20
-56.95294052395621
 10
215.002615641779
 20
-57.03217772011695
 10
215.3236985410043
 20
-57.32845593184844
 10
215.3236985410043
 20
-57.77838540222207
 10
215.3236985410043
 20
-58.29204913907283
 10
214.9233784456182
 20
-58.74197860944645
 10
214.1527105855678
 20
-58.74197860944645
 10
213.7916645787136
 20
-58.74197860944645
 10
213.4754048131677
 20
-58.6282904584332
 10
213.3172749303947
 20
-58.52459308432718
 10
213.3172749303947
 20
-58.52459308432718
 10
213.4361307246359
 20
-58.1883517649668
 10
213.4361307246359
 20
-58.1883517649668
 97
        0
 97
        1
330
9D
 75
     2
 76
     1
 98
        1
 10
0.0
 20
0.0
450
        0
451
        0
460
0.0
461
0.0
452
        0
462
0.0
453
        0
470

  0
SPLINE
  5
9F
330
70
100
AcDbEntity
  8
Layer 1
100
AcDbSpline
210
0.0
220
0.0
230
1.0
 70
     9
 71
     3
 72
    17
 73
    13
 74
     0
 42
0.0000000001
 43
0.0000000001
 40
0.0
 40
0.0
 40
0.0
 40
0.0
 40
1.0
 40
1.0
 40
1.0
 40
2.0
 40
2.0
 40
2.0
 40
3.0
 40
3.0
 40
3.0
 40
4.0
 40
4.0
 40
4.0
 40
4.0
 10
216.2562858888614
 20
-57.09625649614261
 30
0.0
 10
216.2562858888614
 20
-57.93134764176716
 30
0.0
 10
216.5129455025125
 20
-58.40573729008607
 30
0.0
 10
216.9084424642192
 20
-58.40573729008607
 30
0.0
 10
217.3532042913649
 20
-58.40573729008607
 30
0.0
 10
217.5657666828048
 20
-57.88690591000744
 30
0.0
 10
217.5657666828048
 20
-57.06662867496945
 30
0.0
 10
217.5657666828048
 20
-56.27597926110461
 30
0.0
 10
217.3631950682722
 20
-55.75714788102599
 30
0.0
 10
216.9132655978985
 20
-55.75714788102599
 30
0.0
 10
216.5329270563269
 20
-55.75714788102599
 30
0.0
 10
216.2562858888614
 20
-56.22154675243767
 30
0.0
 10
216.2562858888614
 20
-57.09625649614261
 30
0.0
  0
SPLINE
  5
A0
330
70
100
AcDbEntity
  8
Layer 1
100
AcDbSpline
210
0.0
220
0.0
230
1.0
 70
     9
 71
     3
 72
    17
 73
    13
 74
     0
 42
0.0000000001
 43
0.0000000001
 40
0.0
 40
0.0
 40
0.0
 40
0.0
 40
1.0
 40
1.0
 40
1.0
 40
2.0
 40
2.0
 40
2.0
 40
3.0
 40
3.0
 40
3.0
 40
4.0
 40
4.0
 40
4.0
 40
4.0
 10
218.0005377330433
 20
-57.04699163070353
 30
0.0
 10
218.0005377330433
 20
-58.13908689952773
 30
0.0
 10
217.595394503978
 20
-58.74197860944645
 30
0.0
 10
216.8836377767254
 20
-58.74197860944645
 30
0.0
 10
216.2562858888614
 20
-58.74197860944645
 30
0.0
 10
215.8311611059815
 20
-58.15390081011431
 30
0.0
 10
215.8211703290743
 20
-57.09143336246325
 30
0.0
 10
215.8211703290743
 20
-56.01415200422563
 30
0.0
 10
216.2859137100345
 20
-55.42125107121414
 30
0.0
 10
216.9380702853923
 20
-55.42125107121414
 30
0.0
 10
217.6150315482439
 20
-55.42125107121414
 30
0.0
 10
218.0005377330433
 20
-56.02414278113286
 30
0.0
 10
218.0005377330433
 20
-57.04699163070353
 30
0.0
  0
HATCH
  5
A1
330
70
100
AcDbEntity
  8
Layer 1
 62
   114
440
 33554687
100
AcDbHatch
 10
0.0
 20
0.0
 30
0.0
210
0.0
220
0.0
230
1.0
  2
SOLID
 70
     1
 71
     1
 91
        2
 92
        1
 93
        1
 72
     4
 94
        3
 73
     0
 74
     0
 95
       17
 96
       13
 40
0.0
 40
0.0
 40
0.0
 40
0.0
 40
1.0
 40
1.0
 40
1.0
 40
2.0
 40
2.0
 40
2.0
 40
3.0
 40
3.0
 40
3.0
 40
4.0
 40
4.0
 40
4.0
 40
4.0
 10
216.2562858888614
 20
-57.09625649614261
 10
216.2562858888614
 20
-57.93134764176716
 10
216.5129455025125
 20
-58.40573729008607
 10
216.9084424642192
 20
-58.40573729008607
 10
217.3532042913649
 20
-58.40573729008607
 10
217.5657666828048
 20
-57.88690591000744
 10
217.5657666828048
 20
-57.06662867496945
 10
217.5657666828048
 20
-56.27597926110461
 10
217.3631950682722
 20
-55.75714788102599
 10
216.9132655978985
 20
-55.75714788102599
 10
216.5329270563269
 20
-55.75714788102599
 10
216.2562858888614
 20
-56.22154675243767
 10
216.2562858888614
 20
-57.09625649614261
 97
        0
 97
        1
330
9F
 92
        1
 93
        1
 72
     4
 94
        3
 73
     0
 74
     0
 95
       17
 96
       13
 40
0.0
 40
0.0
 40
0.0
 40
0.0
 40
1.0
 40
1.0
 40
1.0
 40
2.0
 40
2.0
 40
2.0
 40
3.0
 40
3.0
 40
3.0
 40
4.0
 40
4.0
 40
4.0
 40
4.0
 10
218.0005377330433
 20
-57.04699163070353
 10
218.0005377330433
 20
-58.13908689952773
 10
217.595394503978
 20
-58.74197860944645
 10
216.8836377767254
 20
-58.74197860944645
 10
216.2562858888614
 20
-58.74197860944645
 10
215.8311611059815
 20
-58.15390081011431
 10
215.8211703290743
 20
-57.09143336246325
 10
215.8211703290743
 20
-56.01415200422563
 10
216.2859137100345
 20
-55.42125107121414
 10
216.9380702853923
 20
-55.42125107121414
 10
217.6150315482439
 20
-55.42125107121414
 10
218.0005377330433
 20
-56.02414278113286
 10
218.0005377330433
 20
-57.04699163070353
 97
        0
 97
        1
330
A0
 75
     2
 76
     1
 98
        1
 10
0.0
 20
0.0
450
        0
451
        0
460
0.0
461
0.0
452
        0
462
0.0
453
        0
470

  0
SPLINE
  5
A2
330
70
100
AcDbEntity
  8
Layer 1
100
AcDbSpline
210
0.0
220
0.0
230
1.0
 70
    11
 71
     3
 72
    17
 73
    13
 74
     0
 42
0.0000000001
 43
0.0000000001
 40
0.0
 40
0.0
 40
0.0
 40
0.0
 40
1.0
 40
1.0
 40
1.0
 40
2.0
 40
2.0
 40
2.0
 40
3.0
 40
3.0
 40
3.0
 40
4.0
 40
4.0
 40
4.0
 40
4.0
 10
220.5926275761453
 20
-57.19030760288992
 30
0.0
 10
220.5926275761453
 20
-57.19030760288992
 30
0.0
 10
220.5926275761453
 20
-57.51139050211521
 30
0.0
 10
220.5926275761453
 20
-57.51139050211521
 30
0.0
 10
220.5926275761453
 20
-57.51139050211521
 30
0.0
 10
219.3720302457213
 20
-57.51139050211521
 30
0.0
 10
219.3720302457213
 20
-57.51139050211521
 30
0.0
 10
219.3720302457213
 20
-57.51139050211521
 30
0.0
 10
219.3720302457213
 20
-57.19030760288992
 30
0.0
 10
219.3720302457213
 20
-57.19030760288992
 30
0.0
 10
219.3720302457213
 20
-57.19030760288992
 30
0.0
 10
220.5926275761453
 20
-57.19030760288992
 30
0.0
 10
220.5926275761453
 20
-57.19030760288992
 30
0.0
  0
HATCH
  5
A3
330
70
100
AcDbEntity
  8
Layer 1
 62
   114
440
 33554687
100
AcDbHatch
 10
0.0
 20
0.0
 30
0.0
210
0.0
220
0.0
230
1.0
  2
SOLID
 70
     1
 71
     1
 91
        1
 92
        1
 93
        1
 72
     4
 94
        3
 73
     0
 74
     0
 95
       17
 96
       13
 40
0.0
 40
0.0
 40
0.0
 40
0.0
 40
1.0
 40
1.0
 40
1.0
 40
2.0
 40
2.0
 40
2.0
 40
3.0
 40
3.0
 40
3.0
 40
4.0
 40
4.0
 40
4.0
 40
4.0
 10
220.5926275761453
 20
-57.19030760288992
 10
220.5926275761453
 20
-57.19030760288992
 10
220.5926275761453
 20
-57.51139050211521
 10
220.5926275761453
 20
-57.51139050211521
 10
220.5926275761453
 20
-57.51139050211521
 10
219.3720302457213
 20
-57.51139050211521
 10
219.3720302457213
 20
-57.51139050211521
 10
219.3720302457213
 20
-57.51139050211521
 10
219.3720302457213
 20
-57.19030760288992
 10
219.3720302457213
 20
-57.19030760288992
 10
219.3720302457213
 20
-57.19030760288992
 10
220.5926275761453
 20
-57.19030760288992
 10
220.5926275761453
 20
-57.19030760288992
 97
        0
 97
        1
330
A2
 75
     2
 76
     1
 98
        1
 10
0.0
 20
0.0
450
        0
451
        0
460
0.0
461
0.0
452
        0
462
0.0
453
        0
470

  0
SPLINE
  5
A4
330
70
100
AcDbEntity
  8
Layer 1
100
AcDbSpline
210
0.0
220
0.0
230
1.0
 70
    11
 71
     3
 72
    35
 73
    31
 74
     0
 42
0.0000000001
 43
0.0000000001
 40
0.0
 40
0.0
 40
0.0
 40
0.0
 40
1.0
 40
1.0
 40
1.0
 40
2.0
 40
2.0
 40
2.0
 40
3.0
 40
3.0
 40
3.0
 40
4.0
 40
4.0
 40
4.0
 40
5.0
 40
5.0
 40
5.0
 40
6.0
 40
6.0
 40
6.0
 40
7.0
 40
7.0
 40
7.0
 40
8.0
 40
8.0
 40
8.0
 40
9.0
 40
9.0
 40
9.0
 40
10.0
 40
10.0
 40
10.0
 40
10.0
 10
222.7161844332533
 20
-58.6875461007795
 30
0.0
 10
222.7161844332533
 20
-58.6875461007795
 30
0.0
 10
221.6289122981085
 20
-55.35682778563996
 30
0.0
 10
221.6289122981085
 20
-55.35682778563996
 30
0.0
 10
221.6289122981085
 20
-55.35682778563996
 30
0.0
 10
222.0936556790687
 20
-55.35682778563996
 30
0.0
 10
222.0936556790687
 20
-55.35682778563996
 30
0.0
 10
222.0936556790687
 20
-55.35682778563996
 30
0.0
 10
222.6124870591473
 20
-56.99738225571593
 30
0.0
 10
222.6124870591473
 20
-56.99738225571593
 30
0.0
 10
222.7558030313337
 20
-57.44731172608957
 30
0.0
 10
222.8791374497057
 20
-57.85245495515495
 30
0.0
 10
222.9683654227736
 20
-58.24278427363375
 30
0.0
 10
222.9683654227736
 20
-58.24278427363375
 30
0.0
 10
222.9780116901323
 20
-58.24278427363375
 30
0.0
 10
222.9780116901323
 20
-58.24278427363375
 30
0.0
 10
223.0720627968797
 20
-57.85727808883429
 30
0.0
 10
223.2102111258381
 20
-57.43732094918233
 30
0.0
 10
223.3586947412524
 20
-57.00254989894381
 30
0.0
 10
223.3586947412524
 20
-57.00254989894381
 30
0.0
 10
223.9219678530908
 20
-55.35682778563996
 30
0.0
 10
223.9219678530908
 20
-55.35682778563996
 30
0.0
 10
223.9219678530908
 20
-55.35682778563996
 30
0.0
 10
224.3815435908231
 20
-55.35682778563996
 30
0.0
 10
224.3815435908231
 20
-55.35682778563996
 30
0.0
 10
224.3815435908231
 20
-55.35682778563996
 30
0.0
 10
223.1905740815722
 20
-58.6875461007795
 30
0.0
 10
223.1905740815722
 20
-58.6875461007795
 30
0.0
 10
223.1905740815722
 20
-58.6875461007795
 30
0.0
 10
222.7161844332533
 20
-58.6875461007795
 30
0.0
 10
222.7161844332533
 20
-58.6875461007795
 30
0.0
  0
HATCH
  5
A5
330
70
100
AcDbEntity
  8
Layer 1
 62
   114
440
 33554687
100
AcDbHatch
 10
0.0
 20
0.0
 30
0.0
210
0.0
220
0.0
230
1.0
  2
SOLID
 70
     1
 71
     1
 91
        1
 92
        1
 93
        1
 72
     4
 94
        3
 73
     0
 74
     0
 95
       35
 96
       31
 40
0.0
 40
0.0
 40
0.0
 40
0.0
 40
1.0
 40
1.0
 40
1.0
 40
2.0
 40
2.0
 40
2.0
 40
3.0
 40
3.0
 40
3.0
 40
4.0
 40
4.0
 40
4.0
 40
5.0
 40
5.0
 40
5.0
 40
6.0
 40
6.0
 40
6.0
 40
7.0
 40
7.0
 40
7.0
 40
8.0
 40
8.0
 40
8.0
 40
9.0
 40
9.0
 40
9.0
 40
10.0
 40
10.0
 40
10.0
 40
10.0
 10
222.7161844332533
 20
-58.6875461007795
 10
222.7161844332533
 20
-58.6875461007795
 10
221.6289122981085
 20
-55.35682778563996
 10
221.6289122981085
 20
-55.35682778563996
 10
221.6289122981085
 20
-55.35682778563996
 10
222.0936556790687
 20
-55.35682778563996
 10
222.0936556790687
 20
-55.35682778563996
 10
222.0936556790687
 20
-55.35682778563996
 10
222.6124870591473
 20
-56.99738225571593
 10
222.6124870591473
 20
-56.99738225571593
 10
222.7558030313337
 20
-57.44731172608957
 10
222.8791374497057
 20
-57.85245495515495
 10
222.9683654227736
 20
-58.24278427363375
 10
222.9683654227736
 20
-58.24278427363375
 10
222.9780116901323
 20
-58.24278427363375
 10
222.9780116901323
 20
-58.24278427363375
 10
223.0720627968797
 20
-57.85727808883429
 10
223.2102111258381
 20
-57.43732094918233
 10
223.3586947412524
 20
-57.00254989894381
 10
223.3586947412524
 20
-57.00254989894381
 10
223.9219678530908
 20
-55.35682778563996
 10
223.9219678530908
 20
-55.35682778563996
 10
223.9219678530908
 20
-55.35682778563996
 10
224.3815435908231
 20
-55.35682778563996
 10
224.3815435908231
 20
-55.35682778563996
 10
224.3815435908231
 20
-55.35682778563996
 10
223.1905740815722
 20
-58.6875461007795
 10
223.1905740815722
 20
-58.6875461007795
 10
223.1905740815722
 20
-58.6875461007795
 10
222.7161844332533
 20
-58.6875461007795
 10
222.7161844332533
 20
-58.6875461007795
 97
        0
 97
        1
330
A4
 75
     2
 76
     1
 98
        1
 10
0.0
 20
0.0
450
        0
451
        0
460
0.0
461
0.0
452
        0
462
0.0
453
        0
470

  0
SPLINE
  5
A6
330
70
100
AcDbEntity
  8
Layer 1
100
AcDbSpline
210
0.0
220
0.0
230
1.0
 70
    11
 71
     3
 72
    29
 73
    25
 74
     0
 42
0.0000000001
 43
0.0000000001
 40
0.0
 40
0.0
 40
0.0
 40
0.0
 40
1.0
 40
1.0
 40
1.0
 40
2.0
 40
2.0
 40
2.0
 40
3.0
 40
3.0
 40
3.0
 40
4.0
 40
4.0
 40
4.0
 40
5.0
 40
5.0
 40
5.0
 40
6.0
 40
6.0
 40
6.0
 40
7.0
 40
7.0
 40
7.0
 40
8.0
 40
8.0
 40
8.0
 40
8.0
 10
225.5315164637995
 20
-55.88082680894646
 30
0.0
 10
225.5315164637995
 20
-55.88082680894646
 30
0.0
 10
225.5215256868923
 20
-55.88082680894646
 30
0.0
 10
225.5215256868923
 20
-55.88082680894646
 30
0.0
 10
225.5215256868923
 20
-55.88082680894646
 30
0.0
 10
224.9634202182818
 20
-56.18227266390582
 30
0.0
 10
224.9634202182818
 20
-56.18227266390582
 30
0.0
 10
224.9634202182818
 20
-56.18227266390582
 30
0.0
 10
224.8793598884417
 20
-55.85119898777332
 30
0.0
 10
224.8793598884417
 20
-55.85119898777332
 30
0.0
 10
224.8793598884417
 20
-55.85119898777332
 30
0.0
 10
225.5811258387871
 20
-55.47568357988108
 30
0.0
 10
225.5811258387871
 20
-55.47568357988108
 30
0.0
 10
225.5811258387871
 20
-55.47568357988108
 30
0.0
 10
225.9514736034514
 20
-55.47568357988108
 30
0.0
 10
225.9514736034514
 20
-55.47568357988108
 30
0.0
 10
225.9514736034514
 20
-55.47568357988108
 30
0.0
 10
225.9514736034514
 20
-58.6875461007795
 30
0.0
 10
225.9514736034514
 20
-58.6875461007795
 30
0.0
 10
225.9514736034514
 20
-58.6875461007795
 30
0.0
 10
225.5315164637995
 20
-58.6875461007795
 30
0.0
 10
225.5315164637995
 20
-58.6875461007795
 30
0.0
 10
225.5315164637995
 20
-58.6875461007795
 30
0.0
 10
225.5315164637995
 20
-55.88082680894646
 30
0.0
 10
225.5315164637995
 20
-55.88082680894646
 30
0.0
  0
HATCH
  5
A7
330
70
100
AcDbEntity
  8
Layer 1
 62
   114
440
 33554687
100
AcDbHatch
 10
0.0
 20
0.0
 30
0.0
210
0.0
220
0.0
230
1.0
  2
SOLID
 70
     1
 71
     1
 91
        1
 92
        1
 93
        1
 72
     4
 94
        3
 73
     0
 74
     0
 95
       29
 96
       25
 40
0.0
 40
0.0
 40
0.0
 40
0.0
 40
1.0
 40
1.0
 40
1.0
 40
2.0
 40
2.0
 40
2.0
 40
3.0
 40
3.0
 40
3.0
 40
4.0
 40
4.0
 40
4.0
 40
5.0
 40
5.0
 40
5.0
 40
6.0
 40
6.0
 40
6.0
 40
7.0
 40
7.0
 40
7.0
 40
8.0
 40
8.0
 40
8.0
 40
8.0
 10
225.5315164637995
 20
-55.88082680894646
 10
225.5315164637995
 20
-55.88082680894646
 10
225.5215256868923
 20
-55.88082680894646
 10
225.5215256868923
 20
-55.88082680894646
 10
225.5215256868923
 20
-55.88082680894646
 10
224.9634202182818
 20
-56.18227266390582
 10
224.9634202182818
 20
-56.18227266390582
 10
224.9634202182818
 20
-56.18227266390582
 10
224.8793598884417
 20
-55.85119898777332
 10
224.8793598884417
 20
-55.85119898777332
 10
224.8793598884417
 20
-55.85119898777332
 10
225.5811258387871
 20
-55.47568357988108
 10
225.5811258387871
 20
-55.47568357988108
 10
225.5811258387871
 20
-55.47568357988108
 10
225.9514736034514
 20
-55.47568357988108
 10
225.9514736034514
 20
-55.47568357988108
 10
225.9514736034514
 20
-55.47568357988108
 10
225.9514736034514
 20
-58.6875461007795
 10
225.9514736034514
 20
-58.6875461007795
 10
225.9514736034514
 20
-58.6875461007795
 10
225.5315164637995
 20
-58.6875461007795
 10
225.5315164637995
 20
-58.6875461007795
 10
225.5315164637995
 20
-58.6875461007795
 10
225.5315164637995
 20
-55.88082680894646
 10
225.5315164637995
 20
-55.88082680894646
 97
        0
 97
        1
330
A6
 75
     2
 76
     1
 98
        1
 10
0.0
 20
0.0
450
        0
451
        0
460
0.0
461
0.0
452
        0
462
0.0
453
        0
470

  0
ENDSEC
  0
SECTION
  2
OBJECTS
  0
DICTIONARY
  5
C
330
0
100
AcDbDictionary
281
     1
  3
ACAD_COLOR
350
63
  3
ACAD_DETAILVIEWSTYLE
350
6A
  3
ACAD_GROUP
350
D
  3
ACAD_LAYOUT
350
62
  3
ACAD_MATERIAL
350
10
  3
ACAD_MLEADERSTYLE
350
66
  3
ACAD_MLINESTYLE
350
5F
  3
ACAD_PLOTSETTINGS
350
61
  3
ACAD_PLOTSTYLENAME
350
E
  3
ACAD_SCALELIST
350
42
  3
ACAD_SECTIONVIEWSTYLE
350
68
  3
ACAD_TABLESTYLE
350
64
  3
ACAD_VISUALSTYLE
350
29
  3
ACDB_RECOMPOSE_DATA
350
B0
  3
AcDbVariableDictionary
350
A8
  0
DICTIONARY
  5
63
102
{ACAD_REACTORS
330
C
102
}
330
C
100
AcDbDictionary
281
     1
  0
DICTIONARY
  5
6A
102
{ACAD_REACTORS
330
C
102
}
330
C
100
AcDbDictionary
281
     1
  3
Imperial24
350
6B
  0
DICTIONARY
  5
D
102
{ACAD_REACTORS
330
C
102
}
330
C
100
AcDbDictionary
281
     1
  0
DICTIONARY
  5
62
102
{ACAD_REACTORS
330
C
102
}
330
C
100
AcDbDictionary
281
     1
  3
Layout1
350
6F
  3
Layout2
350
77
  3
Model
350
73
  0
DICTIONARY
  5
10
102
{ACAD_REACTORS
330
C
102
}
330
C
100
AcDbDictionary
281
     1
  3
ByBlock
350
19
  3
ByLayer
350
11
  3
Global
350
21
  0
DICTIONARY
  5
66
102
{ACAD_REACTORS
330
C
102
}
330
C
100
AcDbDictionary
281
     1
  3
Standard
350
67
  0
DICTIONARY
  5
5F
102
{ACAD_REACTORS
330
C
102
}
330
C
100
AcDbDictionary
281
     1
  3
Standard
350
60
  0
DICTIONARY
  5
61
102
{ACAD_REACTORS
330
C
102
}
330
C
100
AcDbDictionary
281
     1
  0
ACDBDICTIONARYWDFLT
  5
E
102
{ACAD_REACTORS
330
C
102
}
330
C
100
AcDbDictionary
281
     1
  3
Normal
350
F
100
AcDbDictionaryWithDefault
340
F
  0
DICTIONARY
  5
42
102
{ACAD_REACTORS
330
C
102
}
330
C
100
AcDbDictionary
281
     1
  3
A0
350
43
  3
A1
350
44
  3
A2
350
45
  3
A3
350
46
  3
A4
350
47
  3
A5
350
48
  3
A6
350
49
  3
A7
350
4A
  3
A8
350
4B
  3
A9
350
4C
  3
B0
350
4D
  3
B1
350
4E
  3
B2
350
4F
  3
B3
350
50
  3
B4
350
51
  3
B5
350
52
  3
B6
350
53
  0
DICTIONARY
  5
68
102
{ACAD_REACTORS
330
C
102
}
330
C
100
AcDbDictionary
281
     1
  3
Imperial24
350
69
  0
DICTIONARY
  5
64
102
{ACAD_REACTORS
330
C
102
}
330
C
100
AcDbDictionary
281
     1
  3
Standard
350
65
  0
DICTIONARY
  5
29
102
{ACAD_REACTORS
330
C
102
}
330
C
100
AcDbDictionary
281
     1
  3
2dWireframe
350
2F
  3
Basic
350
2E
  3
Brighten
350
35
  3
ColorChange
350
39
  3
Conceptual
350
32
  3
Dim
350
34
  3
EdgeColorOff
350
41
  3
Facepattern
350
38
  3
Flat
350
2A
  3
FlatWithEdges
350
2B
  3
Gouraud
350
2C
  3
GouraudWithEdges
350
2D
  3
Hidden
350
31
  3
JitterOff
350
3F
  3
Linepattern
350
37
  3
OverhangOff
350
40
  3
Realistic
350
33
  3
Shaded
350
3E
  3
Shaded with edges
350
3D
  3
Shades of Gray
350
3A
  3
Sketchy
350
3B
  3
Thicken
350
36
  3
Wireframe
350
30
  3
X-Ray
350
3C
  0
XRECORD
  5
B0
102
{ACAD_REACTORS
330
C
102
}
330
C
100
AcDbXrecord
280
     1
 90
        1
330
65
  0
DICTIONARY
  5
A8
102
{ACAD_REACTORS
330
C
102
}
330
C
100
AcDbDictionary
281
     1
  3
CANNOSCALE
350
AD
  3
CMLEADERSTYLE
350
AA
  3
CTABLESTYLE
350
A9
  3
CVIEWDETAILSTYLE
350
AB
  3
CVIEWSECTIONSTYLE
350
AC
  0
ACDBDETAILVIEWSTYLE
  5
6B
102
{ACAD_XDICTIONARY
360
B3
102
}
102
{ACAD_REACTORS
330
6A
102
}
330
6A
100
AcDbModelDocViewStyle
 70
     0
  3
Imperial24
290
     0
100
AcDbDetailViewStyle
 70
     0
 71
     0
 90
        3
 71
     1
340
55
 62
   256
 40
0.24
340
0
 62
   256
 40
0.24
300

 40
0.36
280
     3
 71
     2
340
5D
 90
       25
 62
   256
 71
     3
340
55
 62
   256
 40
0.24
 90
        1
 40
0.75
 90
        1
300
%<\AcVar ViewType \f "%tc1">% %<\AcVar ViewDetailId>%\PSCALE %<\AcVar ViewScale \f "%sn">%
 71
     4
340
5D
 90
       25
 62
   256
340
5D
 90
       25
 62
   256
280
     0
  0
LAYOUT
  5
6F
102
{ACAD_REACTORS
330
62
102
}
330
62
100
AcDbPlotSettings
  1

  2

  4

  6

 40
0.0
 41
0.0
 42
0.0
 43
0.0
 44
0.0
 45
0.0
 46
0.0
 47
0.0
 48
0.0
 49
0.0
140
0.0
141
0.0
142
1.0
143
1.0
 70
   688
 72
     0
 73
     0
 74
     5
  7

 75
    16
147
1.0
 76
     0
 77
     2
 78
   300
148
0.0
149
0.0
100
AcDbLayout
  1
Layout1
 70
     1
 71
     1
 10
0.0
 20
0.0
 11
12.0
 21
9.0
 12
0.0
 22
0.0
 32
0.0
 14
0.0
 24
0.0
 34
0.0
 15
0.0
 25
0.0
 35
0.0
146
0.0
 13
0.0
 23
0.0
 33
0.0
 16
1.0
 26
0.0
 36
0.0
 17
0.0
 27
1.0
 37
0.0
 76
     0
330
6C
  0
LAYOUT
  5
77
102
{ACAD_REACTORS
330
62
102
}
330
62
100
AcDbPlotSettings
  1

  2

  4

  6

 40
0.0
 41
0.0
 42
0.0
 43
0.0
 44
0.0
 45
0.0
 46
0.0
 47
0.0
 48
0.0
 49
0.0
140
0.0
141
0.0
142
1.0
143
1.0
 70
   688
 72
     0
 73
     0
 74
     5
  7

 75
    16
147
1.0
 76
     0
 77
     2
 78
   300
148
0.0
149
0.0
100
AcDbLayout
  1
Layout2
 70
     1
 71
     2
 10
0.0
 20
0.0
 11
12.0
 21
9.0
 12
0.0
 22
0.0
 32
0.0
 14
0.0
 24
0.0
 34
0.0
 15
0.0
 25
0.0
 35
0.0
146
0.0
 13
0.0
 23
0.0
 33
0.0
 16
1.0
 26
0.0
 36
0.0
 17
0.0
 27
1.0
 37
0.0
 76
     0
330
74
  0
LAYOUT
  5
73
102
{ACAD_REACTORS
330
62
102
}
330
62
100
AcDbPlotSettings
  1

  2

  4

  6

 40
0.0
 41
0.0
 42
0.0
 43
0.0
 44
0.0
 45
0.0
 46
0.0
 47
0.0
 48
0.0
 49
0.0
140
0.0
141
0.0
142
1.0
143
1.0
 70
  1712
 72
     0
 73
     0
 74
     0
  7

 75
     0
147
1.0
 76
     0
 77
     2
 78
   300
148
0.0
149
0.0
100
AcDbLayout
  1
Model
 70
     1
 71
     0
 10
0.0
 20
0.0
 11
12.0
 21
9.0
 12
0.0
 22
0.0
 32
0.0
 14
0.0
 24
0.0
 34
0.0
 15
0.0
 25
0.0
 35
0.0
146
0.0
 13
0.0
 23
0.0
 33
0.0
 16
1.0
 26
0.0
 36
0.0
 17
0.0
 27
1.0
 37
0.0
 76
     0
330
70
  0
MATERIAL
  5
19
102
{ACAD_XDICTIONARY
360
1A
102
}
102
{ACAD_REACTORS
330
10
102
}
330
10
100
AcDbMaterial
  1
ByBlock
 72
     0
 43
0.0208333333333333
 43
0.0
 43
0.0
 43
0.0
 43
0.0
 43
0.0208333333333333
 43
0.0
 43
0.0
 43
0.0
 43
0.0
 43
1.0
 43
0.0
 43
0.0
 43
0.0
 43
0.0
 43
1.0
 77
     0
 47
0.0208333333333333
 47
0.0
 47
0.0
 47
0.0
 47
0.0
 47
0.0208333333333333
 47
0.0
 47
0.0
 47
0.0
 47
0.0
 47
1.0
 47
0.0
 47
0.0
 47
0.0
 47
0.0
 47
1.0
171
     0
 49
0.0208333333333333
 49
0.0
 49
0.0
 49
0.0
 49
0.0
 49
0.0208333333333333
 49
0.0
 49
0.0
 49
0.0
 49
0.0
 49
1.0
 49
0.0
 49
0.0
 49
0.0
 49
0.0
 49
1.0
175
     0
142
0.0208333333333333
142
0.0
142
0.0
142
0.0
142
0.0
142
0.0208333333333333
142
0.0
142
0.0
142
0.0
142
0.0
142
1.0
142
0.0
142
0.0
142
0.0
142
0.0
142
1.0
179
     0
144
0.0208333333333333
144
0.0
144
0.0
144
0.0
144
0.0
144
0.0208333333333333
144
0.0
144
0.0
144
0.0
144
0.0
144
1.0
144
0.0
144
0.0
144
0.0
144
0.0
144
1.0
147
0.0208333333333333
147
0.0
147
0.0
147
0.0
147
0.0
147
0.0208333333333333
147
0.0
147
0.0
147
0.0
147
0.0
147
1.0
147
0.0
147
0.0
147
0.0
147
0.0
147
1.0
  0
MATERIAL
  5
11
102
{ACAD_XDICTIONARY
360
12
102
}
102
{ACAD_REACTORS
330
10
102
}
330
10
100
AcDbMaterial
  1
ByLayer
 72
     0
 43
0.0208333333333333
 43
0.0
 43
0.0
 43
0.0
 43
0.0
 43
0.0208333333333333
 43
0.0
 43
0.0
 43
0.0
 43
0.0
 43
1.0
 43
0.0
 43
0.0
 43
0.0
 43
0.0
 43
1.0
 77
     0
 47
0.0208333333333333
 47
0.0
 47
0.0
 47
0.0
 47
0.0
 47
0.0208333333333333
 47
0.0
 47
0.0
 47
0.0
 47
0.0
 47
1.0
 47
0.0
 47
0.0
 47
0.0
 47
0.0
 47
1.0
171
     0
 49
0.0208333333333333
 49
0.0
 49
0.0
 49
0.0
 49
0.0
 49
0.0208333333333333
 49
0.0
 49
0.0
 49
0.0
 49
0.0
 49
1.0
 49
0.0
 49
0.0
 49
0.0
 49
0.0
 49
1.0
175
     0
142
0.0208333333333333
142
0.0
142
0.0
142
0.0
142
0.0
142
0.0208333333333333
142
0.0
142
0.0
142
0.0
142
0.0
142
1.0
142
0.0
142
0.0
142
0.0
142
0.0
142
1.0
179
     0
144
0.0208333333333333
144
0.0
144
0.0
144
0.0
144
0.0
144
0.0208333333333333
144
0.0
144
0.0
144
0.0
144
0.0
144
1.0
144
0.0
144
0.0
144
0.0
144
0.0
144
1.0
147
0.0208333333333333
147
0.0
147
0.0
147
0.0
147
0.0
147
0.0208333333333333
147
0.0
147
0.0
147
0.0
147
0.0
147
1.0
147
0.0
147
0.0
147
0.0
147
0.0
147
1.0
  0
MATERIAL
  5
21
102
{ACAD_XDICTIONARY
360
22
102
}
102
{ACAD_REACTORS
330
10
102
}
330
10
100
AcDbMaterial
  1
Global
 72
     0
 43
0.0208333333333333
 43
0.0
 43
0.0
 43
0.0
 43
0.0
 43
0.0208333333333333
 43
0.0
 43
0.0
 43
0.0
 43
0.0
 43
1.0
 43
0.0
 43
0.0
 43
0.0
 43
0.0
 43
1.0
 77
     0
 47
0.0208333333333333
 47
0.0
 47
0.0
 47
0.0
 47
0.0
 47
0.0208333333333333
 47
0.0
 47
0.0
 47
0.0
 47
0.0
 47
1.0
 47
0.0
 47
0.0
 47
0.0
 47
0.0
 47
1.0
171
     0
 49
0.0208333333333333
 49
0.0
 49
0.0
 49
0.0
 49
0.0
 49
0.0208333333333333
 49
0.0
 49
0.0
 49
0.0
 49
0.0
 49
1.0
 49
0.0
 49
0.0
 49
0.0
 49
0.0
 49
1.0
175
     0
142
0.0208333333333333
142
0.0
142
0.0
142
0.0
142
0.0
142
0.0208333333333333
142
0.0
142
0.0
142
0.0
142
0.0
142
1.0
142
0.0
142
0.0
142
0.0
142
0.0
142
1.0
179
     0
144
0.0208333333333333
144
0.0
144
0.0
144
0.0
144
0.0
144
0.0208333333333333
144
0.0
144
0.0
144
0.0
144
0.0
144
1.0
144
0.0
144
0.0
144
0.0
144
0.0
144
1.0
147
0.0208333333333333
147
0.0
147
0.0
147
0.0
147
0.0
147
0.0208333333333333
147
0.0
147
0.0
147
0.0
147
0.0
147
1.0
147
0.0
147
0.0
147
0.0
147
0.0
147
1.0
  0
MLEADERSTYLE
  5
67
102
{ACAD_REACTORS
330
66
102
}
330
66
100
AcDbMLeaderStyle
179
     2
170
     2
171
     1
172
     0
 90
        2
 40
0.0
 41
0.0
173
     1
 91
-1056964608
340
5B
 92
       -2
290
     1
 42
0.09
291
     1
 43
0.36
  3
Standard
 44
0.18
300

342
55
174
     1
178
     6
175
     1
176
     0
 93
-1056964608
 45
0.18
292
     0
297
     0
 46
0.18
 94
-1056964608
 47
1.0
 49
1.0
140
1.0
293
     1
141
0.0
294
     1
177
     0
142
1.0
295
     0
296
     0
143
0.125
271
     0
272
     9
273
     9
298
     1
  0
MLINESTYLE
  5
60
102
{ACAD_REACTORS
330
5F
102
}
330
5F
100
AcDbMlineStyle
  2
STANDARD
 70
     0
  3

 62
   256
 51
90.0
 52
90.0
 71
     2
 49
0.5
 62
   256
  6
BYLAYER
 49
-0.5
 62
   256
  6
BYLAYER
  0
ACDBPLACEHOLDER
  5
F
102
{ACAD_REACTORS
330
E
102
}
330
E
  0
SCALE
  5
43
102
{ACAD_REACTORS
330
42
102
}
330
42
100
AcDbScale
 70
     0
300
1:1
140
1.0
141
1.0
290
     1
  0
SCALE
  5
44
102
{ACAD_REACTORS
330
42
102
}
330
42
100
AcDbScale
 70
     0
300
1/128" = 1'-0"
140
0.0078125
141
12.0
290
     0
  0
SCALE
  5
45
102
{ACAD_REACTORS
330
42
102
}
330
42
100
AcDbScale
 70
     0
300
1/64" = 1'-0"
140
0.015625
141
12.0
290
     0
  0
SCALE
  5
46
102
{ACAD_REACTORS
330
42
102
}
330
42
100
AcDbScale
 70
     0
300
1/32" = 1'-0"
140
0.03125
141
12.0
290
     0
  0
SCALE
  5
47
102
{ACAD_REACTORS
330
42
102
}
330
42
100
AcDbScale
 70
     0
300
1/16" = 1'-0"
140
0.0625
141
12.0
290
     0
  0
SCALE
  5
48
102
{ACAD_REACTORS
330
42
102
}
330
42
100
AcDbScale
 70
     0
300
3/32" = 1'-0"
140
0.09375
141
12.0
290
     0
  0
SCALE
  5
49
102
{ACAD_REACTORS
330
42
102
}
330
42
100
AcDbScale
 70
     0
300
1/8" = 1'-0"
140
0.125
141
12.0
290
     0
  0
SCALE
  5
4A
102
{ACAD_REACTORS
330
42
102
}
330
42
100
AcDbScale
 70
     0
300
3/16" = 1'-0"
140
0.1875
141
12.0
290
     0
  0
SCALE
  5
4B
102
{ACAD_REACTORS
330
42
102
}
330
42
100
AcDbScale
 70
     0
300
1/4" = 1'-0"
140
0.25
141
12.0
290
     0
  0
SCALE
  5
4C
102
{ACAD_REACTORS
330
42
102
}
330
42
100
AcDbScale
 70
     0
300
3/8" = 1'-0"
140
0.375
141
12.0
290
     0
  0
SCALE
  5
4D
102
{ACAD_REACTORS
330
42
102
}
330
42
100
AcDbScale
 70
     0
300
1/2" = 1'-0"
140
0.5
141
12.0
290
     0
  0
SCALE
  5
4E
102
{ACAD_REACTORS
330
42
102
}
330
42
100
AcDbScale
 70
     0
300
3/4" = 1'-0"
140
0.75
141
12.0
290
     0
  0
SCALE
  5
4F
102
{ACAD_REACTORS
330
42
102
}
330
42
100
AcDbScale
 70
     0
300
1" = 1'-0"
140
1.0
141
12.0
290
     0
  0
SCALE
  5
50
102
{ACAD_REACTORS
330
42
102
}
330
42
100
AcDbScale
 70
     0
300
1-1/2" = 1'-0"
140
1.5
141
12.0
290
     0
  0
SCALE
  5
51
102
{ACAD_REACTORS
330
42
102
}
330
42
100
AcDbScale
 70
     0
300
3" = 1'-0"
140
3.0
141
12.0
290
     0
  0
SCALE
  5
52
102
{ACAD_REACTORS
330
42
102
}
330
42
100
AcDbScale
 70
     0
300
6" = 1'-0"
140
6.0
141
12.0
290
     0
  0
SCALE
  5
53
102
{ACAD_REACTORS
330
42
102
}
330
42
100
AcDbScale
 70
     0
300
1'-0" = 1'-0"
140
12.0
141
12.0
290
     0
  0
ACDBSECTIONVIEWSTYLE
  5
69
102
{ACAD_XDICTIONARY
360
B1
102
}
102
{ACAD_REACTORS
330
68
102
}
330
68
100
AcDbModelDocViewStyle
 70
     0
  3
Imperial24
290
     0
100
AcDbSectionViewStyle
 70
     0
 71
     0
 90
       78
 71
     1
340
55
 62
   256
 40
0.24
340
0
340
0
 62
   256
 40
0.24
300
I, O, Q, S, X, Z
 40
0.48
 90
        3
 40
0.18
 90
        1
 71
     2
340
5D
 90
       25
 62
   256
340
5D
 90
       50
 62
   256
 40
0.24
 40
0.0
 40
0.24
 71
     3
340
55
 62
   256
 40
0.24
 90
        1
 40
0.75
 90
        1
300
%<\AcVar ViewType \f "%tc1">% %<\AcVar ViewSectionStartId>%-%<\AcVar ViewSectionEndId>%\PSCALE %<\AcVar ViewScale \f "%sn">%
 71
     4
 62
   256
 62
   257
300
ANSI31
 40
1.0
 90
        0
290
     0
290
     0
 90
        6
 40
0.0
 40
1.570796326794896
 40
0.2617993877991494
 40
1.308996938995747
 40
-0.2617993877991494
 40
1.832595714594046
  0
TABLESTYLE
  5
65
102
{ACAD_XDICTIONARY
360
AE
102
}
102
{ACAD_REACTORS
330
64
102
}
330
64
100
AcDbTableStyle
280
     0
  3
Standard
 70
     0
 71
     0
 40
0.06
 41
0.06
280
     0
281
     0
  7
Standard
140
0.18
170
     2
 62
     0
 63
     7
283
     0
 90
      512
 91
        0
  1

274
    -2
284
     1
 64
     0
275
    -2
285
     1
 65
     0
276
    -2
286
     1
 66
     0
277
    -2
287
     1
 67
     0
278
    -2
288
     1
 68
     0
279
    -2
289
     1
 69
     0
  7
Standard
140
0.25
170
     5
 62
     0
 63
     7
283
     0
 90
      512
 91
        0
  1

274
    -2
284
     1
 64
     0
275
    -2
285
     1
 65
     0
276
    -2
286
     1
 66
     0
277
    -2
287
     1
 67
     0
278
    -2
288
     1
 68
     0
279
    -2
289
     1
 69
     0
  7
Standard
140
0.18
170
     5
 62
     0
 63
     7
283
     0
 90
      512
 91
        0
  1

274
    -2
284
     1
 64
     0
275
    -2
285
     1
 65
     0
276
    -2
286
     1
 66
     0
277
    -2
287
     1
 67
     0
278
    -2
288
     1
 68
     0
279
    -2
289
     1
 69
     0
  0
VISUALSTYLE
  5
2F
102
{ACAD_REACTORS
330
29
102
}
330
29
100
AcDbVisualStyle
  2
2dWireframe
 70
     4
177
     3
291
     0
 70
    58
 90
        0
176
     1
 90
        2
176
     1
 90
        0
176
     1
 90
        0
176
     1
 40
0.6
176
     1
 40
30.0
176
     1
 62
     7
420
 16777215
176
     1
 90
        1
176
     1
 90
        4
176
     1
 62
     7
176
     1
 62
   257
176
     1
 90
        1
176
     1
 90
        1
176
     1
 40
1.0
176
     1
 90
        0
176
     1
 62
   257
176
     1
 40
1.0
176
     1
 90
        1
176
     1
 90
        6
176
     1
 90
        2
176
     1
 62
     7
176
     1
 90
        5
176
     1
 90
        0
176
     1
 90
        0
176
     1
290
     0
176
     1
 90
        1
176
     1
 40
0.0
176
     1
 90
        0
176
     1
290
     1
176
     1
290
     1
176
     1
290
     0
176
     1
290
     0
176
     1
290
     0
176
     1
290
     0
176
     1
290
     0
176
     1
290
     0
176
     1
290
     0
176
     1
 90
       50
176
     1
 40
0.0
176
     1
 40
1.0
176
     1
 90
        0
176
     1
 62
    18
420
        0
176
     1
 90
       50
176
     1
 90
        3
176
     1
 62
     5
420
      255
176
     1
290
     0
176
     1
 90
       50
176
     1
 90
       50
176
     1
 90
       50
176
     1
290
     0
176
     1
 90
       50
176
     1
 62
   256
176
     0
 40
1.0
176
     0
 90
        2
176
     1
  1
strokes_ogs.tif
176
     1
290
     0
176
     1
 40
1.0
176
     1
 40
1.0
176
     1
1001
ACAD
1000
AcDbSavedByObjectVersion
1070
     0
  0
VISUALSTYLE
  5
2E
102
{ACAD_REACTORS
330
29
102
}
330
29
100
AcDbVisualStyle
  2
Basic
 70
     7
177
     3
291
     1
 70
    58
 90
        1
176
     1
 90
        0
176
     1
 90
        1
176
     1
 90
        0
176
     1
 40
0.6
176
     1
 40
30.0
176
     1
 62
     7
420
 16777215
176
     1
 90
        0
176
     1
 90
        4
176
     1
 62
     7
176
     1
 62
   257
176
     1
 90
        1
176
     1
 90
        1
176
     1
 40
1.0
176
     1
 90
        8
176
     1
 62
     7
176
     1
 40
1.0
176
     1
 90
        1
176
     1
 90
        6
176
     1
 90
        2
176
     1
 62
     7
176
     1
 90
        5
176
     1
 90
        0
176
     1
 90
        0
176
     1
290
     0
176
     1
 90
        1
176
     1
 40
0.0
176
     1
 90
        0
176
     1
290
     0
176
     1
290
     1
176
     1
290
     1
176
     1
290
     0
176
     1
290
     0
176
     1
290
     0
176
     1
290
     0
176
     1
290
     0
176
     1
290
     0
176
     1
 90
       50
176
     1
 40
0.0
176
     1
 40
1.0
176
     1
 90
        0
176
     1
 62
    18
420
        0
176
     1
 90
       50
176
     1
 90
        3
176
     1
 62
     5
420
      255
176
     1
290
     0
176
     1
 90
       50
176
     1
 90
       50
176
     1
 90
       50
176
     1
290
     0
176
     1
 90
       50
176
     1
 62
   256
176
     0
 40
1.0
176
     0
 90
        2
176
     1
  1
strokes_ogs.tif
176
     1
290
     0
176
     1
 40
1.0
176
     1
 40
1.0
176
     1
1001
ACAD
1000
AcDbSavedByObjectVersion
1070
     0
  0
VISUALSTYLE
  5
35
102
{ACAD_REACTORS
330
29
102
}
330
29
100
AcDbVisualStyle
  2
Brighten
 70
    12
177
     3
291
     1
 70
    58
 90
        2
176
     1
 90
        2
176
     1
 90
        0
176
     1
 90
        0
176
     1
 40
0.6
176
     1
 40
30.0
176
     1
 62
     7
420
 16777215
176
     1
 90
        1
176
     1
 90
        4
176
     1
 62
     7
176
     1
 62
   257
176
     1
 90
        1
176
     1
 90
        1
176
     1
 40
1.0
176
     1
 90
        8
176
     1
 62
     7
176
     1
 40
1.0
176
     1
 90
        1
176
     1
 90
        6
176
     1
 90
        2
176
     1
 62
     7
176
     1
 90
        5
176
     1
 90
        0
176
     1
 90
        0
176
     1
290
     0
176
     1
 90
        1
176
     1
 40
50.0
176
     1
 90
        0
176
     1
290
     0
176
     1
290
     1
176
     1
290
     1
176
     1
290
     0
176
     1
290
     0
176
     1
290
     0
176
     1
290
     0
176
     1
290
     0
176
     1
290
     0
176
     1
 90
       50
176
     1
 40
0.0
176
     1
 40
1.0
176
     1
 90
        0
176
     1
 62
    18
420
        0
176
     1
 90
       50
176
     1
 90
        3
176
     1
 62
     5
420
      255
176
     1
290
     0
176
     1
 90
       50
176
     1
 90
       50
176
     1
 90
       50
176
     1
290
     0
176
     1
 90
       50
176
     1
 62
   256
176
     0
 40
1.0
176
     0
 90
        2
176
     1
  1
strokes_ogs.tif
176
     1
290
     0
176
     1
 40
1.0
176
     1
 40
1.0
176
     1
1001
ACAD
1000
AcDbSavedByObjectVersion
1070
     0
  0
VISUALSTYLE
  5
39
102
{ACAD_REACTORS
330
29
102
}
330
29
100
AcDbVisualStyle
  2
ColorChange
 70
    16
177
     3
291
     1
 70
    58
 90
        2
176
     1
 90
        2
176
     1
 90
        3
176
     1
 90
        0
176
     1
 40
0.6
176
     1
 40
30.0
176
     1
 62
     8
420
  8421504
176
     1
 90
        1
176
     1
 90
        4
176
     1
 62
     7
176
     1
 62
   257
176
     1
 90
        1
176
     1
 90
        1
176
     1
 40
1.0
176
     1
 90
        8
176
     1
 62
     8
420
  8421504
176
     1
 40
1.0
176
     1
 90
        1
176
     1
 90
        6
176
     1
 90
        2
176
     1
 62
     7
176
     1
 90
        5
176
     1
 90
        0
176
     1
 90
        0
176
     1
290
     0
176
     1
 90
        1
176
     1
 40
0.0
176
     1
 90
        0
176
     1
290
     0
176
     1
290
     1
176
     1
290
     1
176
     1
290
     0
176
     1
290
     0
176
     1
290
     0
176
     1
290
     0
176
     1
290
     0
176
     1
290
     0
176
     1
 90
       50
176
     1
 40
0.0
176
     1
 40
1.0
176
     1
 90
        0
176
     1
 62
    18
420
        0
176
     1
 90
       50
176
     1
 90
        3
176
     1
 62
     5
420
      255
176
     1
290
     0
176
     1
 90
       50
176
     1
 90
       50
176
     1
 90
       50
176
     1
290
     0
176
     1
 90
       50
176
     1
 62
   256
176
     0
 40
1.0
176
     0
 90
        2
176
     1
  1
strokes_ogs.tif
176
     1
290
     0
176
     1
 40
1.0
176
     1
 40
1.0
176
     1
1001
ACAD
1000
AcDbSavedByObjectVersion
1070
     0
  0
VISUALSTYLE
  5
32
102
{ACAD_REACTORS
330
29
102
}
330
29
100
AcDbVisualStyle
  2
Conceptual
 70
     9
177
     3
291
     0
 70
    58
 90
        3
176
     1
 90
        2
176
     1
 90
        0
176
     1
 90
        0
176
     1
 40
0.6
176
     1
 40
30.0
176
     1
 62
     7
420
 16777215
176
     1
 90
        2
176
     1
 90
        2
176
     1
 62
     7
176
     1
 62
   257
176
     1
 90
        1
176
     1
 90
        1
176
     1
 40
179.0
176
     1
 90
        8
176
     1
 62
     7
176
     1
 40
1.0
176
     1
 90
        1
176
     1
 90
        6
176
     1
 90
        2
176
     1
 62
     7
176
     1
 90
        3
176
     1
 90
        0
176
     1
 90
        0
176
     1
290
     0
176
     1
 90
        1
176
     1
 40
0.0
176
     1
 90
        0
176
     1
290
     0
176
     1
290
     1
176
     1
290
     1
176
     1
290
     0
176
     1
290
     0
176
     1
290
     0
176
     1
290
     0
176
     1
290
     0
176
     1
290
     0
176
     1
 90
       50
176
     1
 40
0.0
176
     1
 40
1.0
176
     1
 90
        0
176
     1
 62
    18
420
        0
176
     1
 90
       50
176
     1
 90
        3
176
     1
 62
     5
420
      255
176
     1
290
     0
176
     1
 90
       50
176
     1
 90
       50
176
     1
 90
       50
176
     1
290
     0
176
     1
 90
       50
176
     1
 62
   256
176
     0
 40
1.0
176
     0
 90
        2
176
     1
  1
strokes_ogs.tif
176
     1
290
     0
176
     1
 40
1.0
176
     1
 40
1.0
176
     1
1001
ACAD
1000
AcDbSavedByObjectVersion
1070
     0
  0
VISUALSTYLE
  5
34
102
{ACAD_REACTORS
330
29
102
}
330
29
100
AcDbVisualStyle
  2
Dim
 70
    11
177
     3
291
     1
 70
    58
 90
        2
176
     1
 90
        2
176
     1
 90
        0
176
     1
 90
        0
176
     1
 40
0.6
176
     1
 40
30.0
176
     1
 62
     7
420
 16777215
176
     1
 90
        1
176
     1
 90
        4
176
     1
 62
     7
176
     1
 62
   257
176
     1
 90
        1
176
     1
 90
        1
176
     1
 40
1.0
176
     1
 90
        8
176
     1
 62
     7
176
     1
 40
1.0
176
     1
 90
        1
176
     1
 90
        6
176
     1
 90
        2
176
     1
 62
     7
176
     1
 90
        5
176
     1
 90
        0
176
     1
 90
        0
176
     1
290
     0
176
     1
 90
        1
176
     1
 40
-50.0
176
     1
 90
        0
176
     1
290
     0
176
     1
290
     1
176
     1
290
     1
176
     1
290
     0
176
     1
290
     0
176
     1
290
     0
176
     1
290
     0
176
     1
290
     0
176
     1
290
     0
176
     1
 90
       50
176
     1
 40
0.0
176
     1
 40
1.0
176
     1
 90
        0
176
     1
 62
    18
420
        0
176
     1
 90
       50
176
     1
 90
        3
176
     1
 62
     5
420
      255
176
     1
290
     0
176
     1
 90
       50
176
     1
 90
       50
176
     1
 90
       50
176
     1
290
     0
176
     1
 90
       50
176
     1
 62
   256
176
     0
 40
1.0
176
     0
 90
        2
176
     1
  1
strokes_ogs.tif
176
     1
290
     0
176
     1
 40
1.0
176
     1
 40
1.0
176
     1
1001
ACAD
1000
AcDbSavedByObjectVersion
1070
     0
  0
VISUALSTYLE
  5
41
102
{ACAD_REACTORS
330
29
102
}
330
29
100
AcDbVisualStyle
  2
EdgeColorOff
 70
    22
177
     3
291
     1
 70
    58
 90
        2
176
     0
 90
        2
176
     0
 90
        0
176
     0
 90
        0
176
     0
 40
0.6
176
     0
 40
30.0
176
     0
 62
     7
420
 16777215
176
     0
 90
        1
176
     0
 90
        4
176
     0
 62
     7
176
     0
 62
   257
176
     0
 90
        1
176
     0
 90
        1
176
     0
 40
1.0
176
     0
 90
        8
176
     2
 62
     7
176
     0
 40
1.0
176
     0
 90
        1
176
     0
 90
        6
176
     0
 90
        2
176
     0
 62
     7
176
     0
 90
        5
176
     0
 90
        0
176
     0
 90
        0
176
     0
290
     0
176
     0
 90
        1
176
     0
 40
0.0
176
     0
 90
        0
176
     0
290
     0
176
     0
290
     1
176
     0
290
     1
176
     0
290
     0
176
     0
290
     0
176
     0
290
     0
176
     0
290
     0
176
     0
290
     0
176
     0
290
     0
176
     0
 90
       50
176
     0
 40
0.0
176
     0
 40
1.0
176
     0
 90
        0
176
     0
 62
    18
420
        0
176
     0
 90
       50
176
     0
 90
        3
176
     0
 62
     5
420
      255
176
     0
290
     0
176
     0
 90
       50
176
     0
 90
       50
176
     0
 90
       50
176
     0
290
     0
176
     0
 90
       50
176
     0
 62
   256
176
     0
 40
1.0
176
     0
 90
        2
176
     0
  1
strokes_ogs.tif
176
     0
290
     0
176
     0
 40
1.0
176
     0
 40
1.0
176
     0
1001
ACAD
1000
AcDbSavedByObjectVersion
1070
     0
  0
VISUALSTYLE
  5
38
102
{ACAD_REACTORS
330
29
102
}
330
29
100
AcDbVisualStyle
  2
Facepattern
 70
    15
177
     3
291
     1
 70
    58
 90
        2
176
     1
 90
        2
176
     1
 90
        0
176
     1
 90
        0
176
     1
 40
0.6
176
     1
 40
30.0
176
     1
 62
     7
420
 16777215
176
     1
 90
        1
176
     1
 90
        4
176
     1
 62
     7
176
     1
 62
   257
176
     1
 90
        1
176
     1
 90
        1
176
     1
 40
1.0
176
     1
 90
        8
176
     1
 62
     7
176
     1
 40
1.0
176
     1
 90
        1
176
     1
 90
        6
176
     1
 90
        2
176
     1
 62
     7
176
     1
 90
        5
176
     1
 90
        0
176
     1
 90
        0
176
     1
290
     0
176
     1
 90
        1
176
     1
 40
0.0
176
     1
 90
        0
176
     1
290
     0
176
     1
290
     1
176
     1
290
     1
176
     1
290
     0
176
     1
290
     0
176
     1
290
     0
176
     1
290
     0
176
     1
290
     0
176
     1
290
     0
176
     1
 90
       50
176
     1
 40
0.0
176
     1
 40
1.0
176
     1
 90
        0
176
     1
 62
    18
420
        0
176
     1
 90
       50
176
     1
 90
        3
176
     1
 62
     5
420
      255
176
     1
290
     0
176
     1
 90
       50
176
     1
 90
       50
176
     1
 90
       50
176
     1
290
     0
176
     1
 90
       50
176
     1
 62
   256
176
     0
 40
1.0
176
     0
 90
        2
176
     1
  1
strokes_ogs.tif
176
     1
290
     0
176
     1
 40
1.0
176
     1
 40
1.0
176
     1
1001
ACAD
1000
AcDbSavedByObjectVersion
1070
     0
  0
VISUALSTYLE
  5
2A
102
{ACAD_REACTORS
330
29
102
}
330
29
100
AcDbVisualStyle
  2
Flat
 70
     0
177
     3
291
     1
 70
    58
 90
        2
176
     1
 90
        1
176
     1
 90
        1
176
     1
 90
        2
176
     1
 40
0.6
176
     1
 40
30.0
176
     1
 62
     7
420
 16777215
176
     1
 90
        0
176
     1
 90
        0
176
     1
 62
     7
176
     1
 62
   257
176
     1
 90
        1
176
     1
 90
        1
176
     1
 40
1.0
176
     1
 90
        8
176
     1
 62
     7
176
     1
 40
1.0
176
     1
 90
        1
176
     1
 90
        6
176
     1
 90
        2
176
     1
 62
     7
176
     1
 90
        5
176
     1
 90
        0
176
     1
 90
        0
176
     1
290
     0
176
     1
 90
       13
176
     1
 40
0.0
176
     1
 90
        0
176
     1
290
     0
176
     1
290
     1
176
     1
290
     1
176
     1
290
     0
176
     1
290
     0
176
     1
290
     0
176
     1
290
     0
176
     1
290
     0
176
     1
290
     0
176
     1
 90
       50
176
     1
 40
0.0
176
     1
 40
1.0
176
     1
 90
        0
176
     1
 62
    18
420
        0
176
     1
 90
       50
176
     1
 90
        3
176
     1
 62
     5
420
      255
176
     1
290
     0
176
     1
 90
       50
176
     1
 90
       50
176
     1
 90
       50
176
     1
290
     0
176
     1
 90
       50
176
     1
 62
   256
176
     0
 40
1.0
176
     0
 90
        2
176
     1
  1
strokes_ogs.tif
176
     1
290
     0
176
     1
 40
1.0
176
     1
 40
1.0
176
     1
1001
ACAD
1000
AcDbSavedByObjectVersion
1070
     0
  0
VISUALSTYLE
  5
2B
102
{ACAD_REACTORS
330
29
102
}
330
29
100
AcDbVisualStyle
  2
FlatWithEdges
 70
     1
177
     3
291
     1
 70
    58
 90
        2
176
     1
 90
        1
176
     1
 90
        1
176
     1
 90
        2
176
     1
 40
0.6
176
     1
 40
30.0
176
     1
 62
     7
420
 16777215
176
     1
 90
        1
176
     1
 90
        0
176
     1
 62
     7
176
     1
 62
   257
176
     1
 90
        1
176
     1
 90
        1
176
     1
 40
1.0
176
     1
 90
        0
176
     1
 62
   257
176
     1
 40
1.0
176
     1
 90
        1
176
     1
 90
        6
176
     1
 90
        2
176
     1
 62
     7
176
     1
 90
        5
176
     1
 90
        0
176
     1
 90
        0
176
     1
290
     0
176
     1
 90
       13
176
     1
 40
0.0
176
     1
 90
        0
176
     1
290
     0
176
     1
290
     1
176
     1
290
     1
176
     1
290
     0
176
     1
290
     0
176
     1
290
     0
176
     1
290
     0
176
     1
290
     0
176
     1
290
     0
176
     1
 90
       50
176
     1
 40
0.0
176
     1
 40
1.0
176
     1
 90
        0
176
     1
 62
    18
420
        0
176
     1
 90
       50
176
     1
 90
        3
176
     1
 62
     5
420
      255
176
     1
290
     0
176
     1
 90
       50
176
     1
 90
       50
176
     1
 90
       50
176
     1
290
     0
176
     1
 90
       50
176
     1
 62
   256
176
     0
 40
1.0
176
     0
 90
        2
176
     1
  1
strokes_ogs.tif
176
     1
290
     0
176
     1
 40
1.0
176
     1
 40
1.0
176
     1
1001
ACAD
1000
AcDbSavedByObjectVersion
1070
     0
  0
VISUALSTYLE
  5
2C
102
{ACAD_REACTORS
330
29
102
}
330
29
100
AcDbVisualStyle
  2
Gouraud
 70
     2
177
     3
291
     1
 70
    58
 90
        2
176
     1
 90
        2
176
     1
 90
        1
176
     1
 90
        2
176
     1
 40
0.6
176
     1
 40
30.0
176
     1
 62
     7
420
 16777215
176
     1
 90
        0
176
     1
 90
        0
176
     1
 62
     7
176
     1
 62
   257
176
     1
 90
        1
176
     1
 90
        1
176
     1
 40
1.0
176
     1
 90
        0
176
     1
 62
     7
176
     1
 40
1.0
176
     1
 90
        1
176
     1
 90
        6
176
     1
 90
        2
176
     1
 62
     7
176
     1
 90
        5
176
     1
 90
        0
176
     1
 90
        0
176
     1
290
     0
176
     1
 90
       13
176
     1
 40
0.0
176
     1
 90
        0
176
     1
290
     0
176
     1
290
     1
176
     1
290
     1
176
     1
290
     0
176
     1
290
     0
176
     1
290
     0
176
     1
290
     0
176
     1
290
     0
176
     1
290
     0
176
     1
 90
       50
176
     1
 40
0.0
176
     1
 40
1.0
176
     1
 90
        0
176
     1
 62
    18
420
        0
176
     1
 90
       50
176
     1
 90
        3
176
     1
 62
     5
420
      255
176
     1
290
     0
176
     1
 90
       50
176
     1
 90
       50
176
     1
 90
       50
176
     1
290
     0
176
     1
 90
       50
176
     1
 62
   256
176
     0
 40
1.0
176
     0
 90
        2
176
     1
  1
strokes_ogs.tif
176
     1
290
     0
176
     1
 40
1.0
176
     1
 40
1.0
176
     1
1001
ACAD
1000
AcDbSavedByObjectVersion
1070
     0
  0
VISUALSTYLE
  5
2D
102
{ACAD_REACTORS
330
29
102
}
330
29
100
AcDbVisualStyle
  2
GouraudWithEdges
 70
     3
177
     3
291
     1
 70
    58
 90
        2
176
     1
 90
        2
176
     1
 90
        1
176
     1
 90
        2
176
     1
 40
0.6
176
     1
 40
30.0
176
     1
 62
     7
420
 16777215
176
     1
 90
        1
176
     1
 90
        0
176
     1
 62
     7
176
     1
 62
   257
176
     1
 90
        1
176
     1
 90
        1
176
     1
 40
1.0
176
     1
 90
        0
176
     1
 62
   257
176
     1
 40
1.0
176
     1
 90
        1
176
     1
 90
        6
176
     1
 90
        2
176
     1
 62
     7
176
     1
 90
        5
176
     1
 90
        0
176
     1
 90
        0
176
     1
290
     0
176
     1
 90
       13
176
     1
 40
0.0
176
     1
 90
        0
176
     1
290
     0
176
     1
290
     1
176
     1
290
     1
176
     1
290
     0
176
     1
290
     0
176
     1
290
     0
176
     1
290
     0
176
     1
290
     0
176
     1
290
     0
176
     1
 90
       50
176
     1
 40
0.0
176
     1
 40
1.0
176
     1
 90
        0
176
     1
 62
    18
420
        0
176
     1
 90
       50
176
     1
 90
        3
176
     1
 62
     5
420
      255
176
     1
290
     0
176
     1
 90
       50
176
     1
 90
       50
176
     1
 90
       50
176
     1
290
     0
176
     1
 90
       50
176
     1
 62
   256
176
     0
 40
1.0
176
     0
 90
        2
176
     1
  1
strokes_ogs.tif
176
     1
290
     0
176
     1
 40
1.0
176
     1
 40
1.0
176
     1
1001
ACAD
1000
AcDbSavedByObjectVersion
1070
     0
  0
VISUALSTYLE
  5
31
102
{ACAD_REACTORS
330
29
102
}
330
29
100
AcDbVisualStyle
  2
Hidden
 70
     6
177
     3
291
     0
 70
    58
 90
        1
176
     1
 90
        2
176
     1
 90
        2
176
     1
 90
        0
176
     1
 40
0.6
176
     1
 40
30.0
176
     1
 62
     7
420
 16777215
176
     1
 90
        2
176
     1
 90
        2
176
     1
 62
     7
176
     1
 62
   257
176
     1
 90
        2
176
     1
 90
        1
176
     1
 40
40.0
176
     1
 90
        0
176
     1
 62
   257
176
     1
 40
1.0
176
     1
 90
        1
176
     1
 90
        6
176
     1
 90
        2
176
     1
 62
     7
176
     1
 90
        3
176
     1
 90
        0
176
     1
 90
        0
176
     1
290
     0
176
     1
 90
        1
176
     1
 40
0.0
176
     1
 90
        0
176
     1
290
     0
176
     1
290
     1
176
     1
290
     1
176
     1
290
     0
176
     1
290
     0
176
     1
290
     0
176
     1
290
     0
176
     1
290
     0
176
     1
290
     0
176
     1
 90
       50
176
     1
 40
0.0
176
     1
 40
1.0
176
     1
 90
        0
176
     1
 62
    18
420
        0
176
     1
 90
       50
176
     1
 90
        3
176
     1
 62
     5
420
      255
176
     1
290
     0
176
     1
 90
       50
176
     1
 90
       50
176
     1
 90
       50
176
     1
290
     0
176
     1
 90
       50
176
     1
 62
   256
176
     0
 40
1.0
176
     0
 90
        2
176
     1
  1
strokes_ogs.tif
176
     1
290
     0
176
     1
 40
1.0
176
     1
 40
1.0
176
     1
1001
ACAD
1000
AcDbSavedByObjectVersion
1070
     0
  0
VISUALSTYLE
  5
3F
102
{ACAD_REACTORS
330
29
102
}
330
29
100
AcDbVisualStyle
  2
JitterOff
 70
    20
177
     3
291
     1
 70
    58
 90
        2
176
     0
 90
        2
176
     0
 90
        0
176
     0
 90
        0
176
     0
 40
0.6
176
     0
 40
30.0
176
     0
 62
     7
420
 16777215
176
     0
 90
        1
176
     0
 90
        4
176
     0
 62
     7
176
     0
 62
   257
176
     0
 90
        1
176
     0
 90
        1
176
     0
 40
1.0
176
     0
 90
       10
176
     2
 62
     7
176
     0
 40
1.0
176
     0
 90
        1
176
     0
 90
        6
176
     0
 90
        2
176
     0
 62
     7
176
     0
 90
        5
176
     0
 90
        0
176
     0
 90
        0
176
     0
290
     0
176
     0
 90
        1
176
     0
 40
0.0
176
     0
 90
        0
176
     0
290
     0
176
     0
290
     1
176
     0
290
     1
176
     0
290
     0
176
     0
290
     0
176
     0
290
     0
176
     0
290
     0
176
     0
290
     0
176
     0
290
     0
176
     0
 90
       50
176
     0
 40
0.0
176
     0
 40
1.0
176
     0
 90
        0
176
     0
 62
    18
420
        0
176
     0
 90
       50
176
     0
 90
        3
176
     0
 62
     5
420
      255
176
     0
290
     0
176
     0
 90
       50
176
     0
 90
       50
176
     0
 90
       50
176
     0
290
     0
176
     0
 90
       50
176
     0
 62
   256
176
     0
 40
1.0
176
     0
 90
        2
176
     0
  1
strokes_ogs.tif
176
     0
290
     0
176
     0
 40
1.0
176
     0
 40
1.0
176
     0
1001
ACAD
1000
AcDbSavedByObjectVersion
1070
     0
  0
VISUALSTYLE
  5
37
102
{ACAD_REACTORS
330
29
102
}
330
29
100
AcDbVisualStyle
  2
Linepattern
 70
    14
177
     3
291
     1
 70
    58
 90
        2
176
     1
 90
        2
176
     1
 90
        0
176
     1
 90
        0
176
     1
 40
0.6
176
     1
 40
30.0
176
     1
 62
     7
420
 16777215
176
     1
 90
        1
176
     1
 90
        4
176
     1
 62
     7
176
     1
 62
   257
176
     1
 90
        7
176
     1
 90
        7
176
     1
 40
1.0
176
     1
 90
        8
176
     1
 62
     7
176
     1
 40
1.0
176
     1
 90
        1
176
     1
 90
        6
176
     1
 90
        2
176
     1
 62
     7
176
     1
 90
        5
176
     1
 90
        0
176
     1
 90
        0
176
     1
290
     0
176
     1
 90
        1
176
     1
 40
0.0
176
     1
 90
        0
176
     1
290
     0
176
     1
290
     1
176
     1
290
     1
176
     1
290
     0
176
     1
290
     0
176
     1
290
     0
176
     1
290
     0
176
     1
290
     0
176
     1
290
     0
176
     1
 90
       50
176
     1
 40
0.0
176
     1
 40
1.0
176
     1
 90
        0
176
     1
 62
    18
420
        0
176
     1
 90
       50
176
     1
 90
        3
176
     1
 62
     5
420
      255
176
     1
290
     0
176
     1
 90
       50
176
     1
 90
       50
176
     1
 90
       50
176
     1
290
     0
176
     1
 90
       50
176
     1
 62
   256
176
     0
 40
1.0
176
     0
 90
        2
176
     1
  1
strokes_ogs.tif
176
     1
290
     0
176
     1
 40
1.0
176
     1
 40
1.0
176
     1
1001
ACAD
1000
AcDbSavedByObjectVersion
1070
     0
  0
VISUALSTYLE
  5
40
102
{ACAD_REACTORS
330
29
102
}
330
29
100
AcDbVisualStyle
  2
OverhangOff
 70
    21
177
     3
291
     1
 70
    58
 90
        2
176
     0
 90
        2
176
     0
 90
        0
176
     0
 90
        0
176
     0
 40
0.6
176
     0
 40
30.0
176
     0
 62
     7
420
 16777215
176
     0
 90
        1
176
     0
 90
        4
176
     0
 62
     7
176
     0
 62
   257
176
     0
 90
        1
176
     0
 90
        1
176
     0
 40
1.0
176
     0
 90
        9
176
     2
 62
     7
176
     0
 40
1.0
176
     0
 90
        1
176
     0
 90
        6
176
     0
 90
        2
176
     0
 62
     7
176
     0
 90
        5
176
     0
 90
        0
176
     0
 90
        0
176
     0
290
     0
176
     0
 90
        1
176
     0
 40
0.0
176
     0
 90
        0
176
     0
290
     0
176
     0
290
     1
176
     0
290
     1
176
     0
290
     0
176
     0
290
     0
176
     0
290
     0
176
     0
290
     0
176
     0
290
     0
176
     0
290
     0
176
     0
 90
       50
176
     0
 40
0.0
176
     0
 40
1.0
176
     0
 90
        0
176
     0
 62
    18
420
        0
176
     0
 90
       50
176
     0
 90
        3
176
     0
 62
     5
420
      255
176
     0
290
     0
176
     0
 90
       50
176
     0
 90
       50
176
     0
 90
       50
176
     0
290
     0
176
     0
 90
       50
176
     0
 62
   256
176
     0
 40
1.0
176
     0
 90
        2
176
     0
  1
strokes_ogs.tif
176
     0
290
     0
176
     0
 40
1.0
176
     0
 40
1.0
176
     0
1001
ACAD
1000
AcDbSavedByObjectVersion
1070
     0
  0
VISUALSTYLE
  5
33
102
{ACAD_REACTORS
330
29
102
}
330
29
100
AcDbVisualStyle
  2
Realistic
 70
     8
177
     3
291
     0
 70
    58
 90
        2
176
     1
 90
        3
176
     1
 90
        0
176
     1
 90
        2
176
     1
 40
0.6
176
     1
 40
30.0
176
     1
 62
     7
420
 16777215
176
     1
 90
        0
176
     1
 90
        0
176
     1
 62
     7
176
     1
 62
   257
176
     1
 90
        1
176
     1
 90
        1
176
     1
 40
1.0
176
     1
 90
        8
176
     1
 62
   257
176
     1
 40
1.0
176
     1
 90
        1
176
     1
 90
        6
176
     1
 90
        2
176
     1
 62
     7
176
     1
 90
        3
176
     1
 90
        0
176
     1
 90
        0
176
     1
290
     0
176
     1
 90
       13
176
     1
 40
0.0
176
     1
 90
        0
176
     1
290
     0
176
     1
290
     1
176
     1
290
     1
176
     1
290
     0
176
     1
290
     0
176
     1
290
     0
176
     1
290
     0
176
     1
290
     0
176
     1
290
     0
176
     1
 90
       50
176
     1
 40
0.0
176
     1
 40
1.0
176
     1
 90
        0
176
     1
 62
    18
420
        0
176
     1
 90
       50
176
     1
 90
        3
176
     1
 62
     5
420
      255
176
     1
290
     0
176
     1
 90
       50
176
     1
 90
       50
176
     1
 90
       50
176
     1
290
     0
176
     1
 90
       50
176
     1
 62
   256
176
     0
 40
1.0
176
     0
 90
        2
176
     1
  1
strokes_ogs.tif
176
     1
290
     0
176
     1
 40
1.0
176
     1
 40
1.0
176
     1
1001
ACAD
1000
AcDbSavedByObjectVersion
1070
     0
  0
VISUALSTYLE
  5
3E
102
{ACAD_REACTORS
330
29
102
}
330
29
100
AcDbVisualStyle
  2
Shaded
 70
    27
177
     3
291
     0
 70
    58
 90
        2
176
     1
 90
        2
176
     1
 90
        1
176
     1
 90
        2
176
     1
 40
0.6
176
     1
 40
30.0
176
     1
 62
     7
420
 16777215
176
     1
 90
        0
176
     1
 90
        4
176
     1
 62
     7
176
     1
 62
   257
176
     1
 90
        1
176
     1
 90
        1
176
     1
 40
1.0
176
     1
 90
        8
176
     1
 62
   257
176
     1
 40
1.0
176
     1
 90
        1
176
     1
 90
        6
176
     1
 90
        2
176
     1
 62
     8
420
  7895160
176
     1
 90
        3
176
     1
 90
        0
176
     1
 90
        0
176
     1
290
     0
176
     1
 90
        5
176
     1
 40
0.0
176
     1
 90
        0
176
     1
290
     0
176
     1
290
     1
176
     1
290
     1
176
     1
290
     0
176
     1
290
     0
176
     1
290
     0
176
     1
290
     0
176
     1
290
     0
176
     1
290
     0
176
     1
 90
       50
176
     1
 40
0.0
176
     1
 40
1.0
176
     1
 90
        0
176
     1
 62
    18
420
        0
176
     1
 90
       50
176
     1
 90
        3
176
     1
 62
     5
420
      255
176
     1
290
     0
176
     1
 90
       50
176
     1
 90
       50
176
     1
 90
       50
176
     1
290
     0
176
     1
 90
       50
176
     1
 62
   256
176
     0
 40
1.0
176
     0
 90
        2
176
     1
  1
strokes_ogs.tif
176
     1
290
     0
176
     1
 40
1.0
176
     1
 40
1.0
176
     1
1001
ACAD
1000
AcDbSavedByObjectVersion
1070
     0
  0
VISUALSTYLE
  5
3D
102
{ACAD_REACTORS
330
29
102
}
330
29
100
AcDbVisualStyle
  2
Shaded with edges
 70
    26
177
     3
291
     0
 70
    58
 90
        2
176
     1
 90
        2
176
     1
 90
        1
176
     1
 90
        2
176
     1
 40
0.6
176
     1
 40
30.0
176
     1
 62
     7
420
 16777215
176
     1
 90
        1
176
     1
 90
        2
176
     1
 62
     7
176
     1
 62
   257
176
     1
 90
        2
176
     1
 90
        1
176
     1
 40
1.0
176
     1
 90
        8
176
     1
 62
   257
176
     1
 40
1.0
176
     1
 90
        1
176
     1
 90
        6
176
     1
 90
        2
176
     1
 62
     7
176
     1
 90
        3
176
     1
 90
        0
176
     1
 90
        0
176
     1
290
     0
176
     1
 90
        5
176
     1
 40
0.0
176
     1
 90
        0
176
     1
290
     0
176
     1
290
     1
176
     1
290
     1
176
     1
290
     0
176
     1
290
     0
176
     1
290
     0
176
     1
290
     0
176
     1
290
     0
176
     1
290
     0
176
     1
 90
       50
176
     1
 40
0.0
176
     1
 40
1.0
176
     1
 90
        0
176
     1
 62
    18
420
        0
176
     1
 90
       50
176
     1
 90
        3
176
     1
 62
     5
420
      255
176
     1
290
     0
176
     1
 90
       50
176
     1
 90
       50
176
     1
 90
       50
176
     1
290
     0
176
     1
 90
       50
176
     1
 62
   256
176
     0
 40
1.0
176
     0
 90
        2
176
     1
  1
strokes_ogs.tif
176
     1
290
     0
176
     1
 40
1.0
176
     1
 40
1.0
176
     1
1001
ACAD
1000
AcDbSavedByObjectVersion
1070
     0
  0
VISUALSTYLE
  5
3A
102
{ACAD_REACTORS
330
29
102
}
330
29
100
AcDbVisualStyle
  2
Shades of Gray
 70
    23
177
     3
291
     0
 70
    58
 90
        2
176
     1
 90
        2
176
     1
 90
        3
176
     1
 90
        0
176
     1
 40
0.6
176
     1
 40
30.0
176
     1
 62
     7
420
 16777215
176
     1
 90
        2
176
     1
 90
        2
176
     1
 62
     7
176
     1
 62
     7
176
     1
 90
        1
176
     1
 90
        1
176
     1
 40
40.0
176
     1
 90
        8
176
     1
 62
     7
176
     1
 40
1.0
176
     1
 90
        1
176
     1
 90
        6
176
     1
 90
        2
176
     1
 62
     7
176
     1
 90
        3
176
     1
 90
        0
176
     1
 90
        0
176
     1
290
     0
176
     1
 90
        1
176
     1
 40
0.0
176
     1
 90
        0
176
     1
290
     0
176
     1
290
     1
176
     1
290
     1
176
     1
290
     0
176
     1
290
     0
176
     1
290
     0
176
     1
290
     0
176
     1
290
     0
176
     1
290
     0
176
     1
 90
       50
176
     1
 40
0.0
176
     1
 40
1.0
176
     1
 90
        0
176
     1
 62
    18
420
        0
176
     1
 90
       50
176
     1
 90
        3
176
     1
 62
     5
420
      255
176
     1
290
     0
176
     1
 90
       50
176
     1
 90
       50
176
     1
 90
       50
176
     1
290
     0
176
     1
 90
       50
176
     1
 62
   256
176
     0
 40
1.0
176
     0
 90
        2
176
     1
  1
strokes_ogs.tif
176
     1
290
     0
176
     1
 40
1.0
176
     1
 40
1.0
176
     1
1001
ACAD
1000
AcDbSavedByObjectVersion
1070
     0
  0
VISUALSTYLE
  5
3B
102
{ACAD_REACTORS
330
29
102
}
330
29
100
AcDbVisualStyle
  2
Sketchy
 70
    24
177
     3
291
     0
 70
    58
 90
        1
176
     1
 90
        2
176
     1
 90
        2
176
     1
 90
        0
176
     1
 40
0.6
176
     1
 40
30.0
176
     1
 62
     7
420
 16777215
176
     1
 90
        2
176
     1
 90
        2
176
     1
 62
     7
176
     1
 62
     7
176
     1
 90
        1
176
     1
 90
        1
176
     1
 40
40.0
176
     1
 90
       11
176
     1
 62
     7
176
     1
 40
1.0
176
     1
 90
        1
176
     1
 90
        6
176
     1
 90
        2
176
     1
 62
     7
176
     1
 90
        6
176
     1
 90
        0
176
     1
 90
        0
176
     1
290
     0
176
     1
 90
        1
176
     1
 40
0.0
176
     1
 90
        0
176
     1
290
     0
176
     1
290
     1
176
     1
290
     1
176
     1
290
     0
176
     1
290
     0
176
     1
290
     0
176
     1
290
     0
176
     1
290
     0
176
     1
290
     0
176
     1
 90
       50
176
     1
 40
0.0
176
     1
 40
1.0
176
     1
 90
        0
176
     1
 62
    18
420
        0
176
     1
 90
       50
176
     1
 90
        3
176
     1
 62
     5
420
      255
176
     1
290
     0
176
     1
 90
       50
176
     1
 90
       50
176
     1
 90
       50
176
     1
290
     0
176
     1
 90
       50
176
     1
 62
   256
176
     0
 40
1.0
176
     0
 90
        2
176
     1
  1
strokes_ogs.tif
176
     1
290
     0
176
     1
 40
1.0
176
     1
 40
1.0
176
     1
1001
ACAD
1000
AcDbSavedByObjectVersion
1070
     0
  0
VISUALSTYLE
  5
36
102
{ACAD_REACTORS
330
29
102
}
330
29
100
AcDbVisualStyle
  2
Thicken
 70
    13
177
     3
291
     1
 70
    58
 90
        2
176
     1
 90
        2
176
     1
 90
        0
176
     1
 90
        0
176
     1
 40
0.6
176
     1
 40
30.0
176
     1
 62
     7
420
 16777215
176
     1
 90
        1
176
     1
 90
        4
176
     1
 62
     7
176
     1
 62
   257
176
     1
 90
        1
176
     1
 90
        1
176
     1
 40
1.0
176
     1
 90
       12
176
     1
 62
     7
176
     1
 40
1.0
176
     1
 90
        1
176
     1
 90
        6
176
     1
 90
        2
176
     1
 62
     7
176
     1
 90
        5
176
     1
 90
        0
176
     1
 90
        0
176
     1
290
     0
176
     1
 90
        1
176
     1
 40
0.0
176
     1
 90
        0
176
     1
290
     0
176
     1
290
     1
176
     1
290
     1
176
     1
290
     0
176
     1
290
     0
176
     1
290
     0
176
     1
290
     0
176
     1
290
     0
176
     1
290
     0
176
     1
 90
       50
176
     1
 40
0.0
176
     1
 40
1.0
176
     1
 90
        0
176
     1
 62
    18
420
        0
176
     1
 90
       50
176
     1
 90
        3
176
     1
 62
     5
420
      255
176
     1
290
     0
176
     1
 90
       50
176
     1
 90
       50
176
     1
 90
       50
176
     1
290
     0
176
     1
 90
       50
176
     1
 62
   256
176
     0
 40
1.0
176
     0
 90
        2
176
     1
  1
strokes_ogs.tif
176
     1
290
     0
176
     1
 40
1.0
176
     1
 40
1.0
176
     1
1001
ACAD
1000
AcDbSavedByObjectVersion
1070
     0
  0
VISUALSTYLE
  5
30
102
{ACAD_REACTORS
330
29
102
}
330
29
100
AcDbVisualStyle
  2
Wireframe
 70
     5
177
     3
291
     0
 70
    58
 90
        0
176
     1
 90
        2
176
     1
 90
        0
176
     1
 90
        0
176
     1
 40
0.6
176
     1
 40
30.0
176
     1
 62
     7
420
 16777215
176
     1
 90
        1
176
     1
 90
        4
176
     1
 62
     7
176
     1
 62
   257
176
     1
 90
        1
176
     1
 90
        1
176
     1
 40
1.0
176
     1
 90
        0
176
     1
 62
   257
176
     1
 40
1.0
176
     1
 90
        1
176
     1
 90
        6
176
     1
 90
        2
176
     1
 62
     7
176
     1
 90
        3
176
     1
 90
        0
176
     1
 90
        0
176
     1
290
     0
176
     1
 90
        1
176
     1
 40
0.0
176
     1
 90
        0
176
     1
290
     0
176
     1
290
     1
176
     1
290
     1
176
     1
290
     0
176
     1
290
     0
176
     1
290
     0
176
     1
290
     0
176
     1
290
     0
176
     1
290
     0
176
     1
 90
       50
176
     1
 40
0.0
176
     1
 40
1.0
176
     1
 90
        0
176
     1
 62
    18
420
        0
176
     1
 90
       50
176
     1
 90
        3
176
     1
 62
     5
420
      255
176
     1
290
     0
176
     1
 90
       50
176
     1
 90
       50
176
     1
 90
       50
176
     1
290
     0
176
     1
 90
       50
176
     1
 62
   256
176
     0
 40
1.0
176
     0
 90
        2
176
     1
  1
strokes_ogs.tif
176
     1
290
     0
176
     1
 40
1.0
176
     1
 40
1.0
176
     1
1001
ACAD
1000
AcDbSavedByObjectVersion
1070
     0
  0
VISUALSTYLE
  5
3C
102
{ACAD_REACTORS
330
29
102
}
330
29
100
AcDbVisualStyle
  2
X-Ray
 70
    25
177
     3
291
     0
 70
    58
 90
        2
176
     1
 90
        2
176
     1
 90
        1
176
     1
 90
        1
176
     1
 40
0.5
176
     1
 40
30.0
176
     1
 62
     7
420
 16777215
176
     1
 90
        1
176
     1
 90
        0
176
     1
 62
     7
176
     1
 62
   257
176
     1
 90
        1
176
     1
 90
        1
176
     1
 40
1.0
176
     1
 90
        8
176
     1
 62
     7
176
     1
 40
1.0
176
     1
 90
        1
176
     1
 90
        6
176
     1
 90
        2
176
     1
 62
     7
176
     1
 90
        3
176
     1
 90
        0
176
     1
 90
        0
176
     1
290
     0
176
     1
 90
       13
176
     1
 40
0.0
176
     1
 90
        0
176
     1
290
     0
176
     1
290
     1
176
     1
290
     1
176
     1
290
     0
176
     1
290
     0
176
     1
290
     0
176
     1
290
     0
176
     1
290
     0
176
     1
290
     0
176
     1
 90
       50
176
     1
 40
0.0
176
     1
 40
1.0
176
     1
 90
        0
176
     1
 62
    18
420
        0
176
     1
 90
       50
176
     1
 90
        3
176
     1
 62
     5
420
      255
176
     1
290
     0
176
     1
 90
       50
176
     1
 90
       50
176
     1
 90
       50
176
     1
290
     0
176
     1
 90
       50
176
     1
 62
   256
176
     0
 40
1.0
176
     0
 90
        2
176
     1
  1
strokes_ogs.tif
176
     1
290
     0
176
     1
 40
1.0
176
     1
 40
1.0
176
     1
1001
ACAD
1000
AcDbSavedByObjectVersion
1070
     0
  0
DICTIONARYVAR
  5
AD
102
{ACAD_REACTORS
330
A8
102
}
330
A8
100
DictionaryVariables
280
     0
  1
1:1
  0
DICTIONARYVAR
  5
AA
102
{ACAD_REACTORS
330
A8
102
}
330
A8
100
DictionaryVariables
280
     0
  1
STANDARD
  0
DICTIONARYVAR
  5
A9
102
{ACAD_REACTORS
330
A8
102
}
330
A8
100
DictionaryVariables
280
     0
  1
STANDARD
  0
DICTIONARYVAR
  5
AB
102
{ACAD_REACTORS
330
A8
102
}
330
A8
100
DictionaryVariables
280
     0
  1
Imperial24
  0
DICTIONARYVAR
  5
AC
102
{ACAD_REACTORS
330
A8
102
}
330
A8
100
DictionaryVariables
280
     0
  1
Imperial24
  0
DICTIONARY
  5
B3
330
6B
100
AcDbDictionary
280
     1
281
     1
  3
ACAD_XREC_ROUNDTRIP
360
B4
  0
DICTIONARY
  5
1A
330
19
100
AcDbDictionary
280
     1
281
     1
  3
BUMPTILE
360
1C
  3
DIFFUSETILE
360
1B
  3
OPACITYTILE
360
1F
  3
REFLECTIONTILE
360
1E
  3
REFRACTIONTILE
360
20
  3
SPECULARTILE
360
1D
  0
DICTIONARY
  5
12
330
11
100
AcDbDictionary
280
     1
281
     1
  3
BUMPTILE
360
14
  3
DIFFUSETILE
360
13
  3
OPACITYTILE
360
17
  3
REFLECTIONTILE
360
16
  3
REFRACTIONTILE
360
18
  3
SPECULARTILE
360
15
  0
DICTIONARY
  5
22
330
21
100
AcDbDictionary
280
     1
281
     1
  3
BUMPTILE
360
24
  3
DIFFUSETILE
360
23
  3
OPACITYTILE
360
27
  3
REFLECTIONTILE
360
26
  3
REFRACTIONTILE
360
28
  3
SPECULARTILE
360
25
  0
DICTIONARY
  5
B1
330
69
100
AcDbDictionary
280
     1
281
     1
  3
ACAD_XREC_ROUNDTRIP
360
B2
  0
DICTIONARY
  5
AE
330
65
100
AcDbDictionary
280
     1
281
     1
  3
ACAD_ROUNDTRIP_2008_TABLESTYLE_CELLSTYLEMAP
360
AF
  0
XRECORD
  5
B4
102
{ACAD_REACTORS
330
B3
102
}
330
B3
100
AcDbXrecord
280
     1
102
DISPLAYNAME
  1
Imperial24
102
FLAGS
 90
        0
  0
XRECORD
  5
1C
102
{ACAD_REACTORS
330
1A
102
}
330
1A
100
AcDbXrecord
280
     1
270
     1
271
     1
  0
XRECORD
  5
1B
102
{ACAD_REACTORS
330
1A
102
}
330
1A
100
AcDbXrecord
280
     1
270
     1
271
     1
  0
XRECORD
  5
1F
102
{ACAD_REACTORS
330
1A
102
}
330
1A
100
AcDbXrecord
280
     1
270
     1
271
     1
  0
XRECORD
  5
1E
102
{ACAD_REACTORS
330
1A
102
}
330
1A
100
AcDbXrecord
280
     1
270
     1
271
     1
  0
XRECORD
  5
20
102
{ACAD_REACTORS
330
1A
102
}
330
1A
100
AcDbXrecord
280
     1
270
     1
271
     1
  0
XRECORD
  5
1D
102
{ACAD_REACTORS
330
1A
102
}
330
1A
100
AcDbXrecord
280
     1
270
     1
271
     1
  0
XRECORD
  5
14
102
{ACAD_REACTORS
330
12
102
}
330
12
100
AcDbXrecord
280
     1
270
     1
271
     1
  0
XRECORD
  5
13
102
{ACAD_REACTORS
330
12
102
}
330
12
100
AcDbXrecord
280
     1
270
     1
271
     1
  0
XRECORD
  5
17
102
{ACAD_REACTORS
330
12
102
}
330
12
100
AcDbXrecord
280
     1
270
     1
271
     1
  0
XRECORD
  5
16
102
{ACAD_REACTORS
330
12
102
}
330
12
100
AcDbXrecord
280
     1
270
     1
271
     1
  0
XRECORD
  5
18
102
{ACAD_REACTORS
330
12
102
}
330
12
100
AcDbXrecord
280
     1
270
     1
271
     1
  0
XRECORD
  5
15
102
{ACAD_REACTORS
330
12
102
}
330
12
100
AcDbXrecord
280
     1
270
     1
271
     1
  0
XRECORD
  5
24
102
{ACAD_REACTORS
330
22
102
}
330
22
100
AcDbXrecord
280
     1
270
     1
271
     1
  0
XRECORD
  5
23
102
{ACAD_REACTORS
330
22
102
}
330
22
100
AcDbXrecord
280
     1
270
     1
271
     1
  0
XRECORD
  5
27
102
{ACAD_REACTORS
330
22
102
}
330
22
100
AcDbXrecord
280
     1
270
     1
271
     1
  0
XRECORD
  5
26
102
{ACAD_REACTORS
330
22
102
}
330
22
100
AcDbXrecord
280
     1
270
     1
271
     1
  0
XRECORD
  5
28
102
{ACAD_REACTORS
330
22
102
}
330
22
100
AcDbXrecord
280
     1
270
     1
271
     1
  0
XRECORD
  5
25
102
{ACAD_REACTORS
330
22
102
}
330
22
100
AcDbXrecord
280
     1
270
     1
271
     1
  0
XRECORD
  5
B2
102
{ACAD_REACTORS
330
B1
102
}
330
B1
100
AcDbXrecord
280
     1
102
DISPLAYNAME
  1
Imperial24
102
FLAGS
 90
        0
  0
CELLSTYLEMAP
  5
AF
102
{ACAD_REACTORS
330
AE
102
}
330
AE
100
AcDbCellStyleMap
 90
        3
300
CELLSTYLE
  1
TABLEFORMAT_BEGIN
 90
        5
170
     1
 91
        0
 92
    32768
 62
   257
 93
        1
300
CONTENTFORMAT
  1
CONTENTFORMAT_BEGIN
 90
        0
 91
        0
 92
      512
 93
        0
300

 40
0.0
140
1.0
 94
        5
 62
     0
340
55
144
0.25
309
CONTENTFORMAT_END
171
     0
 94
        0
309
TABLEFORMAT_END
  1
CELLSTYLE_BEGIN
 90
        1
 91
        1
300
_TITLE
309
CELLSTYLE_END
300
CELLSTYLE
  1
TABLEFORMAT_BEGIN
 90
        5
170
     1
 91
        0
 92
        0
 62
   257
 93
        1
300
CONTENTFORMAT
  1
CONTENTFORMAT_BEGIN
 90
        0
 91
        0
 92
      512
 93
        0
300

 40
0.0
140
1.0
 94
        5
 62
     0
340
55
144
0.18
309
CONTENTFORMAT_END
171
     0
 94
        0
309
TABLEFORMAT_END
  1
CELLSTYLE_BEGIN
 90
        2
 91
        1
300
_HEADER
309
CELLSTYLE_END
300
CELLSTYLE
  1
TABLEFORMAT_BEGIN
 90
        5
170
     1
 91
        0
 92
        0
 62
   257
 93
        1
300
CONTENTFORMAT
  1
CONTENTFORMAT_BEGIN
 90
        0
 91
        0
 92
      512
 93
        0
300

 40
0.0
140
1.0
 94
        2
 62
     0
340
55
144
0.18
309
CONTENTFORMAT_END
171
     0
 94
        0
309
TABLEFORMAT_END
  1
CELLSTYLE_BEGIN
 90
        3
 91
        2
300
_DATA
309
CELLSTYLE_END
  0
ENDSEC
  0
EOF
